<svg width="704" height="131" viewBox="0 0 704 131" fill="none" xmlns="http://www.w3.org/2000/svg"><path d="M0 130h419M661 130h43" stroke="#fff" stroke-width=".8" stroke-miterlimit="10"/><path d="M511.485 75.138c.212.135.346.231.5.328.327.192.404.461.212.788-1.02 1.654-2.039 3.309-3.077 4.944-.135.211-.308.423-.519.538-.173.097-.481.173-.635.077-.153-.096-.25-.404-.25-.596.039-.346.116-.712.27-1.02.692-1.404 1.423-2.789 2.134-4.193.096-.192.211-.365.346-.616-1.307-.577-2.538-1.115-3.788-1.673-.019.038-.058.058-.077.096.231.327.462.654.673.981 1.481 2.29 1.404 4.386-.307 6.521-.385.481-.866.866-1.269 1.308-.116.135-.231.385-.193.52 1.346 3.885.654 7.636-.769 11.33-.423 1.096-.942 2.154-1.48 3.212-.308.615-.808 1.02-1.481 1.25-2.307.827-4.595 1.712-6.903 2.559-.365.134-.557.307-.653.711-.173.789-.462 1.539-.654 2.328-.058.25-.058.558.038.769.423.943.539 1.866.212 2.905-1.904 5.886-3.769 11.811-5.672 17.716-.25.77-.616 1.52-.962 2.366 1.289-.058 2.5-.115 3.692-.173 3.884-.212 7.768-.442 11.633-.654 2.269-.135 4.538-.269 6.826-.385.423-.019.557-.173.596-.596.519-5.309 1-10.637 1.576-15.947.635-5.693 1.269-11.387 2.077-17.062.788-5.597 1.75-11.156 2.73-16.735.327-1.827.885-3.616 1.365-5.424.712-2.655 2.346-4.713 4.346-6.521 2.019-1.847 4.422-3.117 6.787-4.425 1.962-1.077 3.865-2.25 5.749-3.443.693-.442 1.269-1.096 1.808-1.75-.135.019-.269.019-.385.077-2.403.865-4.807 1.712-7.191 2.616-.327.115-.634.442-.827.75-.788 1.25-1.519 2.539-2.769 3.385-.365.25-.865.404-1.307.385-1 0-1.481-.98-.904-1.789.289-.385.654-.75 1.058-1 1.077-.654 2.192-1.212 3.288-1.847.25-.154.519-.365.634-.615 2.192-4.405 3.25-9.08 3.192-13.985-.077-5.347-.058-10.695-.308-16.023-.307-6.771 1.462-12.869 5.307-18.428 3.23-4.655 7.691-7.29 13.19-8.272 2.846-.519 5.692-.615 8.538 0 .192.039.384.097.576.154.981.327 1.789.847 1.904 2 4.249-.365 6.903 2.117 9.056 5.233 3.826 5.54 5.73 11.695 5.422 18.466-.173 3.598-1.038 7.06-2.076 10.484a115.985 115.985 0 0 0-1.288 4.463c-.577 2.039-.289 4.04.346 6.02.999 3.136 2.691 5.925 4.48 8.637.269.385.519.789.769 1.174.423.673.384.808-.308 1.115 2.538 1.25 5.096 2.52 7.576 3.751-.135-.884-.365-1.846-.423-2.808-.269-4.848 2.98-7.079 7.018-6.675 2.346.231 3.307.693 5.595 2.347-.48-1.02-.5-2.078-.038-3.059.519-1.115 1.173-2.173 1.769-3.25.134-.231.307-.443.519-.731-.365-.212-.692-.404-1.096-.616-.192.365-.365.731-.558 1.058-.73 1.25-1.403 2.54-2.211 3.751-.711 1.077-1.038 1.096-2.153.5-3.654-2.039-7.211-4.251-10.479-6.867-.481-.385-.904-.808-1.346-1.231-.981-.962-1.173-2.135-.866-3.424.27-1.116.885-2.04 1.558-2.943.307-.404.577-.327.961-.116 3.865 2.193 7.71 4.367 11.575 6.56 1.039.577 2.077 1.173 3.154 1.789.211-.443.403-.827.557-1.212.154-.385.404-.539.769-.289 1.731 1.174 3.48 2.347 5.192 3.559.596.423 1.077.981.903 1.847-.019.115.097.288.212.384 2.538 2.366 5.076 4.752 7.614 7.098.269.25.615.424.942.654.039-.038.058-.077.096-.115-.499-.423-.98-.866-1.48-1.289-.865-.75-1.731-1.481-2.557-2.25-.193-.173-.404-.578-.327-.731.115-.212.48-.385.75-.404 2.326-.135 4.634.038 6.845.807.884.308 1.576.828 2.096 1.616 1.768 2.751 3.326 5.598 4.518 8.637.25.616.404 1.27.615 1.982.481-.539.962-.212 1.442.057 6.211 3.444 12.441 6.868 18.632 10.35 1.384.769 2.615 1.788 3.942 2.673.154.096.365.135.538.154 1.519.135 2.864.149 4.383.264.057 0 .461-.02.5 0 .153.115.155.37.309.486-.174.096-.347.27-.5.27-1.366-.097-2.731-.212-4.115-.328-.5-.038-.923.039-1.385.289-.961.538-1.999.5-3.018.077-.231-.096-.385-.443-.558-.673.25-.154.462-.424.731-.443.634-.058 1.288-.02 1.999-.154-.173-.134-.326-.288-.519-.385-3.749-2.212-7.479-4.443-11.286-6.597-3.288-1.866-6.653-3.597-9.979-5.425-.385-.212-.654-.212-.885.154-.384.539-.788 1.058-1.134 1.635a464.511 464.511 0 0 0-3.096 5.29c-.269.48-.5.98-.769 1.462-.192.365-.173.673.115.962.75.77 1.442 1.635 2.25 2.308 3.884 3.232 7.787 6.406 11.69 9.599.981.788 1.923 1.635 2.923 2.385 1.211.885 1.846 2.116 1.942 3.558.173 2.29.365 4.579.308 6.868-.193 6.405-1 12.753-2.173 19.062-.077.385-.154.77-.25 1.155-.462 2.019-1.654 3.385-3.653 4.001-.308.096-.596.192-.904.269-1.577.346-3.115.769-4.557 1.52-.269.134-.577.211-.865.307-.385-.442-.27-.673.173-.884 1.076-.462 2.172-.885 3.211-1.424.692-.365 1.288-.885 1.903-1.366.462-.365.596-.865.385-1.423-.442-1.154-.769-2.366-1.346-3.443a1362.308 1362.308 0 0 0-8.71-16.639c-1.327-2.52-2.75-4.983-4.173-7.445-.365-.634-.865-1.192-1.326-1.827-1.327 1.154-2.885 1.443-4.346 2-1.384.54-2.769 1.097-4.115 1.732-1.153.538-1.672 1.462-1.653 2.789.019 2.674.442 5.271.923 7.887 1.307 7.078 3.076 14.061 4.922 21.024.039.174.096.347.135.52.153.442-.02.615-.481.615-1.923.02-3.846.077-5.768.077-12.729.039-25.439.154-38.167.096-10.864-.057-21.708-.25-32.553-.5a209.369 209.369 0 0 1-13.921-.827c-2.768-.25-5.499-.885-8.229-1.385-.212-.038-.538-.269-.519-.404 0-.346.327-.404.653-.384 2.442.096 4.904.23 7.345.23 2.289 0 2.923-.442 3.365-2.693.443-2.25.827-4.539.885-6.809.154-7.675.192-15.35.173-23.025 0-1.982-.366-3.982-.5-5.964-.096-1.327-.135-2.673-.173-4-.135-4.136-.25-8.291-.385-12.427 0-.173-.038-.365 0-.52.039-.134.193-.288.327-.307.116 0 .346.115.365.23.116.366.193.77.231 1.155.173 2.212.308 4.424.462 6.636 0 .192.019.385.038.596h.192c2.077-1.27 4.154-2.539 6.211-3.847.711-.442 1.365-1 1.98-1.577.52-.5.462-.827-.173-1.135-.903-.442-1.865-.789-2.826-1.173-.846-.327-1.692-.635-2.519-.962a2.382 2.382 0 0 1-.558-.327c-.98-.654-1.076-1.385-.269-2.232.616-.634 1.25-1.25 1.865-1.885 3.346-3.424 6.269-7.194 8.845-11.214.077-.135.135-.27.154-.52-.192.097-.442.135-.558.289-2.326 2.75-5.383 4.463-8.518 6.079-2.326 1.211-4.576 2.5-6.575 4.212-2.635 2.25-4.134 5.098-4.923 8.426-1.192 5-2.076 10.08-2.788 15.157a863.834 863.834 0 0 0-2.211 17.043c-.596 5.002-1.077 10.042-1.596 15.043a699.292 699.292 0 0 0-.596 6.271c-.038.404-.231.519-.596.538-3.307.193-6.614.404-9.941.577-4.287.231-8.575.462-12.882.712-.212 0-.442.193-.616.346-.442.443-.672.424-1.095-.038-.135-.154-.443-.212-.654-.212-3.865.135-7.73.308-11.595.424-1.615.057-3.211.038-4.826.038-.211 0-.423-.077-.634-.135 0-.096-.019-.173-.039-.269.27-.096.539-.25.827-.269 2.692-.173 5.365-.366 8.057-.462 1.249-.038 2.153-.596 2.961-1.462 1.672-1.847 2.922-3.982 4.114-6.155 2.961-5.348 5.423-10.926 7.768-16.562.212-.501-.038-.674-.384-.77-1.269-.365-2.558-.808-3.846-1.039-2.461-.442-4.961-.769-7.441-1.154-.5-.077-.75.058-1 .52-3.288 5.809-6.691 11.541-10.537 17.023-1.019 1.443-2.153 2.809-3.211 4.213-1.519 2.001-3.537 3.039-5.979 3.347-6.403.808-12.691.423-18.863-1.539-1.519-.481-2.942-1.173-4.23-2.135-1.75-1.308-2.461-3.039-2.288-5.232.269-3.193 1.673-5.809 3.923-8.002.98-.962 1.961-1.905 2.807-2.982 2.711-3.462 5.787-6.579 8.96-9.58 4.018-3.808 8.114-7.52 12.19-11.272.25-.23.289-.403.154-.692-.788-1.866-2.077-3.366-3.422-4.828-.385-.423-.808-.808-1.212-1.212-.404-.404-.365-.577.154-.808.615-.25 1.211-.52 1.961-.827-.519-.462-.903-.885-1.365-1.174-.211-.134-.634-.134-.884 0-1.25.54-2.519 1.04-3.673 1.713-4.095 2.385-8.152 4.866-12.248 7.27a52.464 52.464 0 0 1-4.384 2.27c-1.134.54-1.884.25-2.269-.942-.461-1.424-.827-2.924-.98-4.405-.635-5.848-.5-11.715-.308-17.6 0-.482.308-.616.635-.809 6.748-3.559 13.497-7.117 20.246-10.695 1.135-.596 2.25-1.27 3.231-1.847-1.519-3.385-2.981-6.674-4.48-10.002-1.039.211-2.096.48-3.173.654-4.153.635-8.287 1.289-12.46 1.846-2.518.347-5.076.52-7.614.77-.077 0-.173.058-.23.02-.174-.078-.327-.193-.5-.29.153-.115.288-.327.442-.346 1.25-.134 2.499-.23 3.749-.365 6.365-.673 12.71-1.404 18.959-2.809.192-.038.365-.096.596-.154l-.558-1.346c.154-.096.308-.192.539-.327.192.385.384.712.519 1.077.154.366.346.404.73.327 3.019-.654 5.442-2.25 7.48-4.52.961-1.078 1.961-2.155 2.865-3.29 2.249-2.808 5.114-4.078 8.71-3.847 2.5.154 4.961.443 7.403.981.538.116.903.385.999.943.097.596-.288.962-.769 1.116a55.296 55.296 0 0 1-3.518.904c-1.365.327-2.75.634-4.115.961-.269.058-.519.173-.769.289-1.019.442-1.077.577-.519 1.5.096.174.211.347.25.52.134.692.557.942 1.211.885 2.115-.174 4.23-.289 6.326-.52 2.384-.288 4.73-.673 7.095-1.039-.077-.23-.269-.519-.192-.615.134-.192.403-.346.653-.404 3.731-.808 7.48-1.597 11.229-2.385 1.193-.25 2.365-.539 3.558-.808.211-.039.403-.116.73-.212-.25-.23-.404-.423-.596-.538-.865-.539-1.73-1.078-2.634-1.559-.308-.173-.731-.23-1.077-.192-2.634.154-5.287.27-7.922.577-2.057.25-4.076.75-6.133 1.135-.212.039-.616-.038-.654-.173-.173-.423.173-.52.5-.577 2.346-.481 4.691-.981 7.018-1.462 2.038-.423 4.076-.846 6.095-1.289 1.039-.211 2.019-.135 2.981.308a10.255 10.255 0 0 1 3.48 2.654c.154.174.288.366.404.578.749 1.211.615 1.808-.75 2.173-2.538.693-5.096 1.27-7.653 1.866-.865.212-1.769.346-2.788.673.115.039.231.058.327.116.442.365.461.75.038 1.154a5.39 5.39 0 0 1-.826.654c-4.481 3.135-9.172 5.905-14.306 7.848a15.395 15.395 0 0 1-5.114 1c-3.269.058-6.557.231-9.826.328-1.346.038-2.499.384-3.384 1.461-.25.308-.596.558-.923.828-.519.423-1.057.75-1.923.423.443.75.77 1.366 1.173 1.943.423.596.443.692-.192 1.077-1.461.865-2.923 1.75-4.442 2.558-6.287 3.347-12.594 6.656-18.9 9.964-.404.212-.616.443-.616.924 0 4.29-.096 8.56.039 12.83.077 2.385.5 4.751.807 7.117.077.52.327 1 .539 1.481.211.481.615.654 1.115.404 1.596-.827 3.23-1.596 4.788-2.5 4.057-2.366 8.056-4.81 12.094-7.195 1.019-.596 2.115-1.038 3.172-1.538 1.039-.5 1.923-.327 2.692.557.231.27.5.5.808.808.942-.577 1.865-1.154 2.326-2.27 1.269-3.02 2.923-5.828 4.846-8.463.596-.808 1.461-1.5 2.346-2 1.845-1.04 3.749-1.944 5.672-2.867.75-.365 1.153-.096 1.23.731.058.558 0 1.135 0 1.847.25-.154.423-.27.596-.385 2.5-1.77 5-3.54 7.48-5.328.75-.52.711-.5 1.173.25 1.096 1.77 2.249 3.5 3.384 5.232.096.154.25.288.288.346a4629.91 4629.91 0 0 1 9.48-6.06c-1.846-2.48-3.673-4.924-5.557-7.463-1.25.943-2.365 1.79-3.48 2.636-1.135.865-2.269 1.75-3.404 2.616-.788.577-1.461.48-1.884-.385-.365-.75-.538-1.577-.711-2.385-.039-.193.096-.52.269-.654a108.521 108.521 0 0 1 3.903-2.732c.673-.442 1.384-.827 2.077-1.212.826-.442 1.576-.327 2.249.347.308.307.635.596 1 .942.385-.27.769-.558 1.173-.846 3.057-2.174 6.134-4.328 9.556-5.886a14.55 14.55 0 0 1 2.327-.828c1.788-.48 3.384 0 4.826 1.078 2.288 1.673 2.153 6.097.057 7.482-2.845 1.866-5.652 3.828-8.498 5.713-.962.635-1.961 1.231-3 1.866.308.539.577 1.078.904 1.578.673 1 .538 1.904-.231 2.789-1.769 2.039-3.884 3.578-6.46 4.463-1.058.365-2.019.115-2.884-.52-.5-.365-.981-.788-1.423-1.23-.25-.25-.404-.251-.692-.078-1.193.654-2.365 1.308-3.596 1.885-1.827.866-3.807 1.212-5.826 1.308-2.423.116-3.423-.73-3.826-3.231-.423.288-.846.538-1.212.846-.346.289-.307.712-.077 1.02.404.519.846 1.058 1.366 1.423 1.98 1.327 4.191 1.52 6.441 1.02 1.365-.308 2.692-.828 4.018-1.29.404-.134.789-.365 1.193-.5.211-.057.519-.038.673.078.096.057.057.442-.039.615-.673 1.154-1.327 2.328-2.077 3.424-.98 1.443-2.038 2.847-3.037 4.27-1.577 2.213-3.75 3.463-6.384 3.944-2.577.462-5.134.904-7.691 1.385a4.342 4.342 0 0 0-1.596.673c-1 .673-1.923 1.424-2.865 2.154-.135.116-.269.424-.231.578.519 1.577.039 2.923-.942 4.116-1.634 1.981-3.249 4.001-5.018 5.848-4.653 4.809-9.633 9.252-15.036 13.196-.923.673-1.942 1.25-2.961 1.788-.693.366-.923.251-1.404-.384-2.769 2.5-4.442 5.52-4.269 9.348.077 1.712 1.154 2.828 2.481 3.732 2.057 1.385 4.384 2.078 6.768 2.597a45 45 0 0 0 13.805.808c.866-.077 1.712-.25 2.558-.404 1.634-.289 2.942-1.097 4.037-2.328 2.346-2.635 4.365-5.52 6.211-8.502 2.788-4.482 5.48-9.022 8.191-13.561.25-.423.5-.635 1.019-.558 3.326.558 6.653 1.077 9.979 1.674.846.153 1.635.519 2.558.807.25-.807.596-1.712 1.884-1.75-.269-.346-.442-.596-.635-.789-1.384-1.327-2.961-2.385-4.787-3.039-.539-.192-1.135-.212-1.712-.23-.461 0-.826.23-1.134.615-.827.962-1.961 1.404-3.153 1.692-.173.039-.539-.096-.539-.173 0-.211.039-.558.173-.654.981-.596 2.019-1.115 3.019-1.712.288-.173.635-.404.731-.673a49.622 49.622 0 0 0 1.076-3.655c1.327-5.424 4.557-9.195 9.749-11.272.192-.077.442 0 .673 0-.039.23-.039.481-.115.693-.443 1.192-.962 2.366-1.366 3.558-.134.385-.115.847-.096 1.289 0 .654.346 1.096.942 1.366 1.981.904 4.384.404 5.923-1.25.615-.655 1.23-1.309 1.845-1.982.443-.462.423-.635-.173-.904-1.519-.654-3.057-1.231-4.557-1.904-1.038-.462-2.038-1.02-3.018-1.597-.404-.23-.731-.577-1.039-.943-.384-.442-.538-.98-.288-1.538.596-1.29 1.173-2.616 1.884-3.847.712-1.27 1.577-2.443 2.346-3.674.25-.385.5-.462.923-.27.942.423 1.903.789 2.942 1.058-.327-.288-.673-.538-.981-.846-.134-.135-.173-.385-.25-.577.192 0 .423-.097.577-.039 1.615.52 3.249 1.077 4.865 1.597.096.038.173.038.307-.039-.269-.134-.519-.269-.788-.384-1.154-.5-2.288-1.04-3.461-1.5-.5-.193-.75-.52-.865-1.02-.212-.943 0-1.828.327-2.713 1.461-3.635 6.133-5.809 9.883-4.597 2.115.692 3.23 2.212 3.595 4.328.558 3.251-.73 5.732-3.269 7.695-.576.442-1.115.904-1.672 1.384-.077.077-.116.193-.193.347l.231-.02Zm64.913-17.677s.077-.135.096-.193c-.231-.346-.442-.673-.673-1.02-1.846-2.808-3.576-5.674-4.595-8.905-.712-2.251-.904-4.52-.193-6.83.654-2.096 1.25-4.212 1.846-6.328.942-3.308 1.5-6.675 1.423-10.099-.115-4.693-1.423-9.079-3.653-13.215-1.115-2.077-2.423-4.04-4.25-5.597-1.48-1.27-3.134-2.174-5.172-2.078-.519.02-1 .077-1.307.597-.154.269-.462.404-.75.115-.269-.27-.116-.539.115-.77.635-.615.596-1.154-.192-1.596a5.08 5.08 0 0 0-1.596-.558c-3.499-.673-6.96-.346-10.364.654-2.711.789-5.21 1.982-7.287 3.944-3.423 3.212-5.595 7.175-7.114 11.56-.923 2.693-1.192 5.483-1.154 8.291.077 5.617.212 11.234.327 16.85.096 5.021-.769 9.85-2.903 14.408-.039.096-.058.212-.116.346.116-.019.173-.019.231-.038 2.711-.943 5.403-1.866 8.114-2.808a1.08 1.08 0 0 0 .519-.347c.731-1 1.442-2 2.115-3.039.25-.404.442-.538.904-.212-.269.905-.558 1.828-.885 2.924.77-.192 1.404-.269 1.981-.5 1.769-.673 2.749-2.077 3.422-3.75.154-.405.346-.597.808-.328-.038 1.039-.327 2.058-.884 2.924-.962 1.481-2 2.905-3.039 4.328-.442.616-.48.596.116 1.097.346.288.711.577 1.077.808 1.634 1.058 3.268 2.077 4.922 3.116 2.75 1.73 5.518 3.462 8.268 5.213.404.269.788.596 1.096.961.154.174.288.558.211.712-.115.192-.461.385-.692.385-.75 0-1.5-.058-2.23-.173-1.096-.193-2.192-.462-3.288-.712.288.27.596.462.923.635 1.769.942 3.557 1.827 5.614 1.981 1.788.135 2.615-.404 3.115-2.135.077-.25.154-.481.192-.731.366-2.924.693-5.848 1.058-8.752.25-1.905.538-3.81.788-5.694.019-.193-.096-.443-.211-.616-.866-1.25-1.519-2.577-1.712-4.097-.173-1.308-.211-2.616-.307-3.924-.019-.308 0-.596 0-.962-1 1.02-1.846 2.04-2.846 2.886-1.173.98-2.403 1.904-3.73 2.635-2.461 1.346-4.865.827-7.114-.616-3.634-2.346-6.172-5.636-8.018-9.502-1.365-2.847-1.846-5.944-2.269-9.041-.346-2.5.5-4.559 2.192-6.386 1.384-1.482 2.922-2.77 4.73-3.655 3.249-1.578 6.537-3.04 9.825-4.56a79.568 79.568 0 0 0 3.634-1.807c.212-.116.346-.423.481-.674.269-.5.481-1.02.808-1.48.115-.174.519-.29.692-.212.173.077.346.5.288.673-.192.48-.423.98-.769 1.346-.346.366-.442.712-.211 1.097.576.98 1.134 1.962 1.807 2.866.923 1.25 1.961 2.404 2.884 3.636 2.057 2.75 2.75 5.886 2.211 9.252-.442 2.808-1 5.598-1.519 8.387-.615 3.366-1.23 6.713-1.134 10.156.057 2.386 1.23 4.098 3.23 5.156 2.23 1.192 4.557 2.193 6.884 3.174 1.038.423 2.172.577 3.268.865l-.038-.038Zm10.998 9.637c-.673-1.058-1.384-2.058-1.961-3.116a3.304 3.304 0 0 0-1.231-1.29c-3.941-2.327-8.095-4.135-12.344-5.77-1.807-.692-3.538-1.558-5.307-2.385-.442-.212-.827-.539-1.25-.808.058.25.193.404.327.577.866 1.154 1.692 2.366 2.615 3.482.808 1 1.596 2.096 2.615 2.827 1.692 1.231 3.557 2.212 5.326 3.328.289.173.693.5.693.75 0 .27-.424.539-.693.75-.211.174-.48.25-.73.366-1.135.481-2.269.962-3.423 1.443-.288.115-.557.27-.961.461.634.327 1.115.616 1.615.866 2.403 1.154 4.826 2.27 7.21 3.463 1.212.596 1.288 1.115.481 2.212a5.398 5.398 0 0 1-.519.634c-.885.866-1.75 1.75-2.654 2.578-2.422 2.231-4.883 4.444-6.96 7.021-1.673 2.058-3.096 4.27-3.384 7.002a35.896 35.896 0 0 0-.25 3.52c-.058 5.444.538 10.849 1.192 16.254.615 5.059 1.25 10.119 1.865 15.197.039.365.154.5.539.481 1.288-.077 2.595-.077 3.883-.212 1.962-.192 3.942-.462 5.903-.692.481-.058.712-.27.596-.77-.153-.769-.25-1.558-.423-2.308-.711-2.828-1.249-5.694-.98-8.618.307-3.366.731-6.713 1.115-10.06.154-1.385.461-2.77.442-4.155 0-2.424-.288-4.867-.327-7.29a315.026 315.026 0 0 1-.019-11.254c0-.923.346-1.846.596-2.75.058-.193.385-.423.616-.443.173 0 .403.25.557.424.116.134.173.346.212.538.134.847.307 1.712.327 2.558.211 5.079-.327 10.119-.866 15.158-.115 1.174-.423 2.347-.327 3.501.366 4.463.808 8.907 1.346 13.35.366 3.02.981 6.002 2.135 8.848.346.866.134 1.789-.693 2.27-.826.5-1.749.866-2.653 1.212-.442.154-.558.443-.538.77 0 .23.211.538.403.673.27.173.616.269.943.327 2.48.462 4.96.308 7.46.173 2.942-.173 5.864-.442 8.806-.616.481-.038.692-.211.692-.634 0-.981.077-1.962 0-2.943-.403-4.944-1.288-9.811-2.211-14.658-2.288-12.061-4.961-24.045-7.845-35.99-.077-.308-.269-.597-.442-.866-.808-1.193-1.654-2.385-2.461-3.597-.327-.5-.212-.924.269-1.27.25-.173.5-.365.731-.52h-.058Zm-47.608 58.996c9.672.558 19.266 1.039 28.823.847-.52-3.04-1.135-6.002-1.539-9.003-.711-5.27-1.403-10.541-1.903-15.831-.462-4.828-.731-9.675-.904-14.523-.154-4.482-.058-8.945-.077-13.427v-2c-.769.27-1.403.558-2.096.712-.692.173-1.422.327-2.153.327-2.538 0-5.095.057-7.633-.135-3.731-.27-7.403-.923-10.903-2.308-.077-.039-.173-.039-.346-.058 1.077 9.252 1.135 18.466.808 27.7-.327 9.214-.981 18.428-2.115 27.68l.038.019Zm56.53-52.398c.057.115.077.211.134.288.212.27.404.539.635.789 2.249 2.347 4.768 4.328 7.633 5.848.558.308 1.192.538 1.808.711.98.27 1.615-.192 1.73-1.192.039-.27 0-.558-.019-.827-.212-1.481-.827-2.809-1.481-4.136-.096-.192-.077-.423-.096-.635.212 0 .481-.077.654 0 1.423.635 2.903 1.212 4.249 1.981 1.673.943 3 2.309 3.519 4.252.346 1.25.692 2.5.846 3.789.288 2.347.423 4.732.654 7.098.038.346.019.789.23.981.943.866 1.577 1.943 2.173 3.059 3.75 6.944 7.557 13.849 11.229 20.832 1 1.904 1.692 3.963 2.481 5.963.269.693.076 1.308-.462 1.828-.288.288-.596.557-.961.904 2.595-.424 3.922-1.655 4.46-4.078.135-.616.25-1.231.366-1.847 1-5.598 1.711-11.214 1.923-16.889.096-2.482-.058-4.982-.193-7.464-.077-1.48-.653-2.77-1.961-3.654-.731-.5-1.365-1.116-2.057-1.674-4.096-3.347-8.23-6.694-12.306-10.08-.923-.75-1.692-1.692-2.5-2.558-.403-.442-.48-.98-.173-1.52l1.616-2.943c.23-.423.48-.827.73-1.23-.192.019-.308.096-.384.21-1.308 1.598-2.962 1.905-4.827 1.232-1.845-.673-3.653-1.423-5.479-2.135-1.846-.712-3.385-1.885-4.73-3.309-1.02-1.077-1.923-2.231-2.423-3.655-.442-1.23-.173-1.904.923-2.596.154-.097.307-.193.596-.385-1.538-.02-2.827-.346-3.923-1.193-1.038-.808-2.019-1.673-3.038-2.539.135.23.289.462.404.693.346.711.75 1.385 1 2.115.385 1.059.135 1.597-.904 2.078-2.288 1.039-4.576 2.058-6.864 3.097a7.73 7.73 0 0 1-.577.27c.019.057.058.096.077.153.192-.077.385-.154.577-.25 2.98-1.25 5.98-2.481 8.96-3.732.365-.153.654-.23.923.174.923 1.442 1.884 2.846 2.75 4.308.807 1.366.749 1.712-.5 2.674-1.904 1.462-3.865 2.809-5.826 4.194-.5.365-1.058.654-1.615 1h.019Zm-38.34-59.881c-.942.461-1.827.923-2.731 1.327-2.941 1.308-5.903 2.558-8.825 3.905-2.75 1.288-5.288 2.904-7.211 5.347-1.192 1.5-1.692 3.174-1.442 5.06.173 1.307.404 2.596.654 3.885 1.058 5.617 3.942 10.099 8.383 13.619 1.173.923 2.462 1.616 3.942 1.885 1.692.308 3.173-.327 4.557-1.193 2.25-1.385 4.038-3.308 5.672-5.347.173-.212.423-.327.654-.5.077.269.192.52.192.788.019 1.328-.019 2.674.039 4.001.038.866.25 1.712.403 2.559.058 0 .097 0 .154-.02-.25-2.558.02-5.097.462-7.617.673-3.886 1.442-7.752 2.096-11.638.423-2.539.23-5.04-1.058-7.328-.731-1.27-1.615-2.463-2.519-3.617-1.269-1.635-2.826-3.058-3.442-5.117h.02Zm57.894 79.02c-.961-.673-1.884-.884-2.845-.538a28.314 28.314 0 0 0-3.231 1.404c-1.115.558-2.172 1.212-3.384 1.885-.019-.288-.057-.5-.057-.73 0-.347.038-.712-.02-1.059-.134-.712-.327-1.404-.461-2.135-.077-.423-.289-.635-.654-.808a85.849 85.849 0 0 1-3.595-1.616c-2.808-1.308-5.211-3.116-6.98-5.713-1.211-1.789-2.173-3.712-2.307-5.905-.058-.923.096-1.847.153-2.616-.788-.327-1.557-.654-2.307-.981.039.154.077.346.115.538 3.423 14.523 6.749 29.047 9.057 43.781.384 2.501.538 5.04.75 7.56.038.442-.039.904-.116 1.346-.115.712-.404.924-1.115.943-.558.019-1.096.058-1.654.096-3.249.212-6.499.462-9.748.635-1.865.096-3.73.135-5.557-.365-.461-.135-.961-.385-1.288-.751-.231-.269-.212-.769-.327-1.212h-.154c-3.865.731-7.768.924-11.671.981-2.999.058-5.999.058-9.018-.038-5.787-.192-11.575-.462-17.362-.692a1104.8 1104.8 0 0 0-2.442-.116c-.116.712-.231 1.366-.346 2.116 24.111.558 48.165.404 72.296.192-.058-.269-.116-.461-.154-.654-2.019-7.636-3.999-15.292-5.23-23.121-.288-1.885-.385-3.828-.519-5.732-.096-1.424.538-2.501 1.807-3.174.827-.443 1.673-.866 2.538-1.212 1.519-.597 3.077-1.097 4.596-1.654.403-.154.769-.424 1.23-.693v.038Zm-77.334 33.202c.116-1.347.231-2.597.347-3.848.499-5.54 1.057-11.06 1.461-16.6.231-3.02.211-6.04.308-9.06.076-2.597-.923-4.655-3.038-6.156-1.404-1-2.788-2.02-4.231-2.981-2.518-1.674-5.076-3.29-7.614-4.925-.038-.019-.115 0-.038 0v6.425c0 1.135-.019 2.29.173 3.405.5 2.847 1.5 5.559 2.538 8.252.231.577.423 1.193.673 1.751 1.288 2.808 1.461 5.693.75 8.675-1.154 4.924-2.288 9.868-3.423 14.792-.077.308-.115.616-.192.943.038.058.077.115.115.192 3.942-1.75 8.018-1.096 12.152-.885l.019.02Zm69.028-50.764c.269.616.461 1.077.654 1.539.442 1.135.826 2.29.653 3.54-.173 1.192-1.096 1.904-2.268 1.634a10.506 10.506 0 0 1-2.25-.827c-2.288-1.173-4.326-2.712-6.211-4.443-.826-.75-1.576-1.578-2.288-2.443-.48-.596-.346-.923.327-1.308 2.577-1.52 5.057-3.174 7.326-5.136.692-.596.75-.712.288-1.481-.846-1.424-1.749-2.79-2.634-4.194-.192-.308-.404-.23-.654-.115-2.922 1.23-5.864 2.443-8.787 3.674-.134.058-.269.154-.423.23.942 1.944 1.846 3.848 2.769 5.752.212.404.192.731 0 1.154-.904 1.847-1.442 3.79-.923 5.867.981 3.867 3.307 6.79 6.711 8.791 1.807 1.077 3.787 1.866 5.71 2.77.539.25.865.577.962 1.212.153.962.403 1.885.615 2.885.269-.153.481-.288.692-.384 1.385-.693 2.769-1.405 4.173-2.059.826-.384 1.711-.596 2.634-.365.403.096.807.23 1.211.346.019-.077.058-.115.058-.135-.154-3.327-.423-6.655-1.173-9.925-.885-3.79-3.865-5.213-7.172-6.579ZM492.584 35.455l-.038-.289c-.827-.057-1.673-.288-2.481-.173-4.576.635-9.152 1.385-13.747 2-1.346.174-2.731.078-4.096.078-.461 0-.769-.327-.942-.77a9.217 9.217 0 0 0-.654-1.308c-.346-.577-.288-1.116.25-1.5.385-.27.808-.52 1.25-.654 1.442-.385 2.884-.731 4.326-1.077 1.212-.289 2.442-.578 3.653-.904.174-.039.308-.27.443-.424-.173-.134-.327-.365-.519-.404-2.75-.596-5.519-.961-8.345-.961-2.731 0-4.884 1.077-6.634 3.116-.827.962-1.692 1.923-2.519 2.885-2.326 2.75-5.037 4.886-8.671 5.636-.096 0-.173.077-.231.096v.154c1.134 2.212 2.269 4.444 3.403 6.656.193.385.481.404.769.173.635-.52 1.289-1.039 1.865-1.616.577-.558 1.231-.885 2.019-.961.52-.039 1.058-.116 1.577-.135 2.807-.096 5.614-.212 8.422-.27 2.038-.038 4.018-.25 5.941-.98 4.711-1.79 9.018-4.31 13.19-7.099.596-.403 1.173-.846 1.75-1.27h.019ZM610.181 54.17c.827.693 1.577 1.328 2.307 1.962.75.654 1.5 1.328 2.192 2.04.154.173.135.519.173.788-.288.058-.634.23-.846.135-.577-.25-1.173-.558-1.653-.981a123.629 123.629 0 0 1-4.75-4.213c-.98-.923-1.884-1.924-2.845-2.905a923.416 923.416 0 0 1-4.865 6.714c.039.038.077.096.135.154 2.095 2.096 4.691 2.327 7.422 2.02 1.307-.154 2.595-.308 3.903-.424.346-.038.865-.115.884.404.019.539-.538.443-.846.481-1.288.116-2.576.192-3.865.27-1.153.076-2.211.48-3.172 1.115-.462.308-.673.731-.442 1.27.327.73.615 1.5 1.076 2.135 1.616 2.347 3.731 4.059 6.422 5.04 1.827.673 3.615 1.385 5.461 2 1.173.404 2.25.116 3.096-.827.827-.904 1.634-1.866 2.499-2.731 1.135-1.155 1.212-2.386.616-3.828a55.654 55.654 0 0 0-4.442-8.483c-.481-.75-1.134-1.232-1.961-1.5-1.961-.636-3.98-.809-6.038-.77-.115 0-.211.057-.442.115l-.019.02Zm-71.7 1.886c-1.212 1.654-2.346 3.231-3.519 4.79-2.076 2.788-4.461 5.328-6.941 7.77-.577.558-.538.905.154 1.27.73.404 1.538.693 2.307 1 1.115.443 2.269.789 3.326 1.308 1.27.635 1.346 1.462.347 2.463-.25.25-.52.48-.808.692-.731.5-1.461 1-2.192 1.481-1.711 1.077-3.442 2.116-5.153 3.193-.75.481-.75 1.154-.077 1.732.346.288.692.577 1.077.827 2.307 1.48 4.634 2.943 6.96 4.424 1.904 1.212 3.769 2.481 5.384 4.078 1 1 1.673 2.174 1.769 3.616 0 .154.077.308.115.462.135-1.654.135-3.27.135-4.905.038-6.406-.212-12.792-.923-19.16-.058-.576-.231-.922-.731-1.192-.903-.5-1.403-1.327-1.672-2.327-.693-2.559-.481-5.136-.154-7.714.154-1.25.365-2.481.577-3.809h.019Zm30.091 67.075h.077c0-.058.019-.115 0-.173-.711-5.771-1.461-11.522-2.134-17.293-.462-4.097-.692-8.214-.539-12.35.116-2.943.962-5.636 2.769-7.983.558-.711 1.058-1.48 1.692-2.115 2.519-2.501 5.076-4.963 7.614-7.464.693-.673 1.308-1.404 1.942-2.116.327-.365.308-.692-.192-.923-.288-.116-.538-.308-.827-.443-2.23-1.058-4.48-2.096-6.71-3.174a12.137 12.137 0 0 1-1.538-.865c-.558-.385-.539-.789.077-1.116.48-.27.98-.48 1.499-.692.981-.424 1.962-.808 2.923-1.231.308-.135.577-.308.981-.5-.77-.404-1.404-.75-2.077-1.097-2.884-1.5-5.384-3.443-7.057-6.31-.461-.788-1.096-1.48-1.653-2.212-.077-.115-.212-.192-.346-.327.173 2.29.384 4.482.461 6.695.116 3.174.308 6.367-.692 9.464-.058.154-.038.346-.038.519 0 4.982-.077 9.983.096 14.965.173 5.233.423 10.484.903 15.697.5 5.405 1.269 10.791 1.962 16.177.211 1.635.538 3.232.807 4.867Zm-81.66-54.476s-.096-.038-.115-.038c-.173.057-.327.134-.5.192-1.5.48-2.961 1.058-4.48 1.385-2.423.5-4.788.173-6.845-1.308-.577-.404-1.058-1-1.423-1.597-.462-.75-.192-1.5.538-2 .366-.25.731-.462 1.077-.712.115-.077.308-.212.308-.327.019-.789 0-1.577 0-2.424-.212.058-.347.077-.481.135-1.846.942-3.73 1.827-5.538 2.847-.769.442-1.519 1.038-2.038 1.75-1.826 2.5-3.403 5.194-4.634 8.04a5.207 5.207 0 0 1-1.942 2.367c-.23.154-.442.308-.711.48 1.5 1.944 2.653 4.021 3.461 6.349.884-.674 1.711-1.29 2.538-1.905.75-.558 1.538-.98 2.48-1.135 2.577-.423 5.134-.884 7.691-1.385 1.923-.384 3.654-1.096 5-2.654 2.115-2.443 3.884-5.117 5.518-7.906.019-.039.019-.096.038-.154h.058Zm-.442 27.834c.596.077 1.154.058 1.653.212 2.365.77 4.404 2.058 6.019 3.943.211.25.365.308.692.193 2.192-.828 4.403-1.674 6.614-2.463.673-.25 1.135-.654 1.462-1.27 1.442-2.77 2.422-5.712 2.711-8.828.096-1.04-.116-2.116-.173-3.174h-.193c-.711.77-1.423 1.5-2.115 2.289-1.653 1.885-4.345 2.539-6.652 1.596-1.02-.404-1.5-1.154-1.519-2.231-.02-1.347.461-2.578.98-3.79.096-.211.173-.403.308-.711l-.539.23c-3.095 1.386-5.249 3.752-6.941 6.637-1.346 2.289-1.269 5.001-2.307 7.348v.02Zm57.529-43.723s-.096-.096-.134-.154a6.29 6.29 0 0 1-3.058 1.404c-1.057.174-.923.077-.865 1.058.269 4.367.673 8.734.865 13.1.058 1.52.731 2.058 2.019 2.462 2.846.866 5.749 1.424 8.691 1.75 2.942.328 5.922.5 8.864.135.962-.115 1.923-.404 2.846-.692.596-.192.961-.693.942-1.347l-.115-14.542v-2.366h-.193c-.038.173-.115.366-.134.539-.269 2.635-.5 5.27-.827 7.906-.269 2.173-.577 4.347-1.038 6.501-.327 1.558-.866 2.25-3.154 2.386a7.097 7.097 0 0 1-3.499-.693c-1.788-.846-3.519-1.808-5.249-2.77-.173-.096-.231-.423-.327-.654.231-.058.461-.173.711-.192.193 0 .385.077.577.134 1.538.347 3.096.731 4.653 1.058.481.097.981.077 1.462.096 0-.057.038-.115.038-.173-.538-.403-1.038-.827-1.596-1.192-2.961-1.847-5.961-3.655-8.902-5.52a105.019 105.019 0 0 1-4.923-3.329c-.826-.596-.788-.885-.153-1.692.846-1.058 1.653-2.136 2.48-3.194l.019-.019Zm-50.434-2.654c1.903 2.558 3.749 5.04 5.614 7.54 1.5-.942 3.058-1.866 4.557-2.866a301.941 301.941 0 0 0 6.557-4.482c.423-.289.865-.673 1.115-1.116 1.365-2.404.192-5.405-2.422-6.31-1.02-.345-2.039-.422-3.058-.076-.673.23-1.346.442-1.98.75-3.038 1.404-5.807 3.29-8.537 5.194-.635.442-1.269.904-1.865 1.346l.019.02Zm96.792 15.523c-.192-.539-.045-.923.442-1.154 2.385-1.077 4.75-2.135 7.134-3.213.98-.442 1.115-.692.634-1.673-.538-1.116-1.192-2.154-1.788-3.251-.615-1.116-1.557-1.866-2.672-2.385a9.339 9.339 0 0 0-4.577-.885c-2.73.173-4.499 1.847-4.864 4.559-.193 1.327.038 2.616.403 3.886.231.788.597 1.442 1.289 1.942.903.654 1.557 1.54 1.788 2.674.019.135.115.27.192.443.692-.347 1.346-.654 2.019-.981v.038Zm-86.063 5.694-.077.077c.481.404.885.923 1.442 1.173 1.596.77 3.23 1.443 4.845 2.116.135.058.423-.038.558-.154.423-.346.788-.75 1.192-1.115.539-.462 1.135-.847 1.635-1.328 1.634-1.558 2.384-3.462 2.153-5.732-.25-2.5-1.634-4.136-4.057-4.482-2.48-.346-4.749.288-6.595 1.981-1.192 1.097-1.961 2.482-2 4.194 0 .596.212.942.808 1.192 1.769.731 3.518 1.54 5.268 2.347.539.25 1.039.539 1.558.846.115.077.23.347.173.404-.096.154-.289.308-.462.327-.211.02-.461-.076-.692-.134-1.904-.577-3.826-1.154-5.73-1.731l-.019.019Zm34.148 55.399c-.154-.019-.327-.058-.5-.077-1.48-.077-2.98-.154-4.46-.25-2-.135-3.961.135-5.865.77a6.997 6.997 0 0 1-.904.25c-.807.153-1.153-.193-1.057-1.001.038-.327.135-.654.211-.981 1.096-4.751 2.192-9.521 3.308-14.273.653-2.827.615-5.559-.52-8.29-.999-2.386-1.769-4.867-2.634-7.31-.019-.058-.096-.096-.192-.212v.674c0 3.616.096 7.232 0 10.829-.096 4.598-.288 9.176-.519 13.773-.096 1.693-.404 3.386-1.135 4.963-.461.981-1.211 1.52-2.288 1.597-.846.057-1.692.096-2.519.115h-1.48v.135c6.787 1.058 13.652 1.115 20.554 1.404v-2.154.038Zm58.741-79.886c-4.98-2.809-9.902-5.598-14.882-8.407-.712.866-1.269 1.79-1.5 2.867-.231 1.02 0 1.904.75 2.635.365.346.711.73 1.115 1.039 3.365 2.712 6.999 4.982 10.768 7.06.326.172.576.172.807-.136 1.231-1.52 2.038-3.289 2.923-5.059h.019ZM505.005 83.87c-.057-.23-.057-.384-.115-.48-.288-.539-.058-.828.346-1.231a13.94 13.94 0 0 0 1.884-2.232c.539-.808.712-1.77.5-2.712-.384-1.674-1.461-2.924-2.615-4.116-.057-.058-.173-.097-.25-.135a405.219 405.219 0 0 1-4.249-1.75c-.327-.135-.5-.04-.673.23-1 1.616-2.019 3.232-2.999 4.867-.347.577-.558 1.212-.846 1.808-.308.654-.154 1.212.403 1.616.635.462 1.269.942 1.962 1.27 2.153.98 4.345 1.885 6.633 2.885l.019-.02Zm-20.304-25.16c-2.769 1.962-5.557 3.924-8.345 5.905a.606.606 0 0 0-.211.328c-.25 1.461.538 2.654 2.019 2.77 1.211.076 2.461-.058 3.672-.25 2.48-.385 4.634-1.617 6.691-2.867-1.288-1.981-2.557-3.905-3.845-5.886h.019Zm7.441 45.647c-.096.211-.173.384-.269.577-1.404 3.193-2.73 6.425-4.249 9.56-2.442 5.001-4.673 10.157-8.845 14.196 2.192-.096 4.326-.192 6.499-.288.038-.385.057-.712.096-1.039.288-2.559 1.038-5.001 1.903-7.387 1.731-4.789 3.5-9.579 5.288-14.35.212-.577.096-.923-.404-1.269h-.019Zm88.928-.039h-.096c-.077.52-.154 1.039-.212 1.558-.326 2.828-.692 5.637-.942 8.464-.365 3.886.923 7.56 1.558 11.484.865-.423 1.73-.789 2.519-1.27.615-.365.692-.942.461-1.596-.231-.635-.5-1.289-.692-1.943-1.25-4.232-1.75-8.598-2.231-12.965-.134-1.25-.249-2.481-.365-3.732Zm17.017-57.765c.384.23.711.423 1.057.615.712.405.692.443.25 1.097-.692 1.039-1.423 2.077-1.961 3.193-.923 1.924-.096 4.367 1.73 5.482 1.135-1.365 2.289-2.693 3.385-4.078.596-.75 1.076-1.577 1.557-2.404.231-.385.308-.847-.077-1.25-1.557-1.578-3.461-2.674-5.384-3.848-.192.424-.365.789-.538 1.193h-.019Zm-156.956 59.958s.115.135.192.193c1.019-.693 2.096-1.308 3.019-2.097 4.807-4.059 9.345-8.387 13.767-12.85 1.192-1.192 2.288-2.481 3.423-3.731.442-.5.596-1.116.461-1.943-7.383 6.501-14.478 13.1-20.862 20.428Zm48.473-41.8c.654.52 1.192 1.02 1.769 1.424.731.52 1.538.577 2.403.25 1.789-.673 3.365-1.693 4.75-2.981.557-.52 1.038-1.116 1.48-1.732.135-.192.231-.558.135-.75-.346-.77-.769-1.52-1.212-2.347-3.114 2.078-6.402 3.694-9.325 6.137Zm-3.711 63.594s.173.077.25.135c.154-.154.385-.269.461-.442.289-.597.577-1.212.808-1.828 2.346-6.136 4.153-12.445 5.98-18.755.115-.404-.039-.885-.077-1.327h-.192c-.058.135-.135.289-.193.442-.884 2.347-1.788 4.694-2.653 7.041-1.423 3.828-2.903 7.617-3.846 11.599-.25 1.039-.365 2.097-.538 3.155v-.02Zm-46.589-19.178.212.25c.788-.481 1.634-.904 2.384-1.442 6.634-4.79 12.652-10.234 18.151-16.293 1.058-1.174 1.961-2.5 2.884-3.79.596-.827.731-1.75.308-2.731-.481.173-.654.48-.577 1 .135.943-.135 1.79-.769 2.5-.25.27-.481.578-.731.847-4.038 4.424-8.422 8.503-12.844 12.542-2.25 2.058-4.461 4.136-7.229 5.501a4.4 4.4 0 0 0-.923.635c-.327.289-.577.654-.866.981Zm53.126-59.015c-1.115-1.5-1.615-1.616-3.153-.731-.423.25-.846.5-1.25.788-.98.693-1.942 1.385-2.922 2.097-1.096.789-1.135.923-.635 2.174.077.173.154.365.269.519.346.558.539.616 1.058.212 1.769-1.347 3.519-2.693 5.268-4.04.443-.346.904-.673 1.346-1.02h.019Zm47.801 19.312c-.347-4.443-.693-8.79-1.039-13.138-.634 2.963-1.115 5.944-.865 8.983.077.943.346 1.886.615 2.809.173.616.673 1 1.289 1.346Zm41.07 26.238c.134-1.385.288-2.77.404-4.155.269-3.347.538-6.694.288-10.06-.058-.731-.211-1.481-.308-2.212-.98 1.442-1.153 9.887-.384 16.408v.02Zm-86.602-68.076h.462c.961-.019 1.923-.096 2.884-.057 1.73.077 2.961 1.23 4.326 2.096.269.173.577.693.519.943-.077.289-.557.5-.884.712-.116.077-.289.096-.442.115-3.692.789-7.403 1.558-11.095 2.347-.48.096-.961.212-1.442.327 0 .058 0 .115.019.173.616-.038 1.25 0 1.846-.115 1.769-.289 3.557-.597 5.326-.981 2.25-.5 4.5-1.078 6.73-1.674.75-.211.808-.423.385-1.096-.673-1.116-1.712-1.866-2.75-2.597-1.923-1.347-3.884-.693-5.845-.193h-.039Zm-32.302 57.266c.307-.308.769-.366.577-.943-.731-2.135-1.808-4.078-3.211-5.867-.077-.096-.308-.212-.423-.154-.52.212-1.02.462-1.577.712 1.865 1.885 3.576 3.79 4.634 6.232v.02Zm130.902-11.965c.308-.346.269-.731.038-1.193-.711-1.404-1.365-2.827-2.057-4.232-.192-.404-.404-.807-.615-1.25-.731.366-1.423.712-2.173 1.077a853.091 853.091 0 0 0 4.807 5.598Zm-4.192-3.963-.173.116c.193.808.481 1.615.577 2.443.173 1.27 1 1.962 1.981 2.52.269.153.673.038 1.019.057-.02-.327.077-.75-.097-.98-1.076-1.405-2.211-2.77-3.326-4.156h.019Zm-62.009-10.272c-.519.27-1.077.52-1.577.847-.634.423-1.23.885-1.807 1.385-.135.115-.231.519-.154.596.154.173.442.25.692.288.135.02.308-.076.443-.153 1.134-.693 1.807-1.79 2.403-2.963ZM511.581 76.1c-.327-.365-.519-.346-.73 0-.481.904-1 1.77-1.481 2.674-.327.635-.615 1.289-.904 1.943a.904.904 0 0 0 .193.096c.961-1.577 1.942-3.155 2.922-4.751v.038Zm76.296-8.444c-.308.192-.539.307-.712.48-.115.116-.23.366-.192.462.5.866 1.038 1.712 1.577 2.559.057-.039.115-.058.173-.096-.269-1.097-.558-2.193-.865-3.405h.019Zm-94.197 34.432c-.634.115-1.153.712-1.173 1.385 0 .231.27.462.5.827.25-.846.442-1.5.673-2.231v.019Zm71.22-41.184h-.077v5.963h.077v-5.963Z" fill="#fff"/><path d="m425.634 48.709-.25 75.097M425.634 48.71c0-.366 0-2.155 1.384-3.502a4.462 4.462 0 0 1 2.019-1.135M419 130c2.5 0 3.616-.153 5-2 .961-1.289 1.384-3.324 1.384-4.213M656.981 84.95v41.395M661 130c-1 0-1.962-.019-3-1-1.019-.943-1-1.5-1.019-2.674M656.982 84.95c0-.462-.058-1.501-.731-2.578-.923-1.462-2.365-1.924-2.73-2.02" stroke="#fff" stroke-width=".8" stroke-miterlimit="10"/></svg>