<svg data-name="Layer 2" xmlns="http://www.w3.org/2000/svg" viewBox="0 0 552 109.08"><path d="m0 108.58 319.31-.28c1.62 0 3.19-.57 4.44-1.61l11.91-9.91s3.42-2.64 8.23-2.71c.42 0 .84-.07 1.25-.18s.74-.29 1.09-.48c1.08-.62 4.96-2.56 9.79-1.81 5.71.89 16.54-3.75 19.16-3.57s.57-3.1-4.34-2.71c-4.91.39-19.04-.03-19.04-.03s-2.12-.76.09-2.64c2.21-1.88 5.74-2.57 4.84-6.94 0 0-.27-2.05-7.05 2.95 0 0-2.86 3.04-8.13 3.57-5.27.54-6.96 5.09-6.96 5.09s0 3.48-24.82 13.39c0 0-10.63 6.25 1.34 1.07a543.09 543.09 0 0 0 18.94-8.65c1.81-.87 3.43-2.08 4.79-3.56l4.85-5.3s13-3.48 12.13-6.43c-.87-2.95-10.79-12.14-5.96-25.89 4.82-13.75 11.61-17.5 22.32-18.57 10.45-1.05 20.76 2.67 25.5 8.81.22.29.32.65.29 1.01-.11 1.42-.12 5.35 2.64 7.92.92.86 1.45 2.06 1.55 3.31.14 1.79-.28 3.87-1.67 1.9-.89-1.27-1.43-2.11-1.75-2.65-.14-.23-.49-.12-.47.15.11 1.54.77 4.23 3.94 4.29 0 0 2.49.22.26 4-1.49 2.52-1.77 4.88-1.79 6.18-.01.9-.25 1.77-.66 2.57-1.09 2.12-3.53 6-7.83 8.81a.447.447 0 0 1-.69-.45c.14-.74.28-1.76.2-2.58-.13-1.47-.67-4.06-.13-5.54s-.67-5.31-2.9-4.55-3.48 1.7-3.48 1.7-2.23.67-3.39-1.43-3.17-4.87-1.43-8.35 5.56-5.42 5.56-5.42 3.62-2.68 3.48-3.55 2.28-.8 3.95.4c1.67 1.21 1.61-1.21 1.61-1.21v-1.38c0-.39.51-.54.72-.21 1.01 1.58 2.51 4.56.29 5.82-3.08 1.74-4.55-.2-4.55-.2s-4.75-.54-5.96-.33c-.61.1-1.26-.26-1.75-.65a.956.956 0 0 1-.09-1.41c.59-.59 1.32-1.49 1.36-2.3.07-1.34 1.81-4.35 3.95-5.02s-1.07-2.01-3.75-.87c-1.79.76-.54-1.58.5-3.22.49-.78 1.57-.91 2.24-.28l.76.72c.11.1.29 0 .26-.14-.25-1.23-1.53-4.56-8.14-4.22-.62.03-1.1.62-.95 1.22.14.54 0 1.31-.83 2.37-2.01 2.54-3.68 4.42-6.43 1.94 0 0-1.68-1.06 2.17-4.08.15-.12.07-.36-.12-.37l-4.27-.24s2.34 2.48.67 2.68c-.87.1-1.75-.59-2.38-1.29-.58-.63-1.57-.65-2.18-.05l-2.14 2.14s-.83 1.54 3.81.27c.47-.13.93.24.92.72l-.06 2.01a1.59 1.59 0 0 1-1.31 1.52c-1.05.18-2.46.51-3.01 1.03-.94.87-8.1 5.56-8.1 5.56l-.36-1.76a.494.494 0 0 0-.82-.26l-2.91 2.69.31.31c.7.7 1.1 1.66 1.1 2.65v3.65c0 1.22.67 2.36 1.76 2.92 2.65 1.38 7.62 4.55 9.98 9.85.06.15.22.23.38.18.6-.17 2.13-.41 3.29 1.07 1.47 1.88 1 3.09 1 3.09s-1.74.99-1.74 1.73c0 .41-.6.59-1.13.67s-1.07.34-1.46.74l-3.03 3.14s-3.42 1.39.6 2.88 18.89 1.94 18.89 1.94 19.66-1.54 20.94-25.25c.18-3.25-.24-6.51-1.22-9.61-.92-2.88-2.37-6.29-4.4-7.94a1.31 1.31 0 0 0-1.53-.1c-1.02.64-2.89 1.7-3.59 1.28-.34-.2-.29-.89-.08-1.7.51-1.97 1.66-3.71 3.2-5.05l2.25-1.95s2.41-.89-3.66-1.7c-6.07-.8-9.91-1.88-17.41-.09 0 0-3.75 1.07-4.38-1.79 0 0-.36-.98 5.18-1.88 7.07-1.14 31.52-3.39 34.38-7.23s28.75-21.16 28.75-21.16 5.36-3.66.98 1.43c-4.38 5.09-27.5 18.39-27.5 18.39s-2.14.89 1.16 4.64c3.07 3.48-2.22 5.54-4.94 9.78-.68 1.07-1.76 1.82-2.98 2.16-.89.25-2.1.5-3.74.69a7.15 7.15 0 0 0-3.09 1.14c-1.02.67-2.38 1.37-3.11.91-1.27-.8 4.09-3.15 8.04-4.22s10.71-9.04 17.48-11.12c5.55-1.7 15.48-6.88 18.86-8.68 1.11-.59 2.3-1.03 3.55-1.22 3.22-.51 7.34.28-4.08 12.34-15.89 16.79-3.75 58.4-3.75 58.4s5.54 21.88 22.5 21.88h95.8" style="fill:none;stroke:#fff;stroke-linejoin:round" data-name="Layer 1"/></svg>