<svg data-name="Layer 2" xmlns="http://www.w3.org/2000/svg" viewBox="0 0 552 84.14"><path d="M552 83.4H362.55s-.46-2.36-1.22-3.48c-.75-1.13-.7-2.66-.7-2.66h-13.37s-1.74 3.28.92 3.07c2.66-.2 6.38 0 6.38 0s.59-.14.52-1.4c-.07-1.26.1-1.37-.41-1.37s-.51.79-.51.79-.34 1.98 1.13 1.98c1.85 0 5.36-.24 5.36-.24l.44-2.84s4.46-.54 3.46-10.93c-.03-.27-.38-.35-.51-.12-.41.7-.74 2.37 1 3.23 1.35 1.16 5.89-7.75 4.77-10.16 0 0-2.84 5.04-3.11 1.28-.26-3.62-.27-5.34-3.21-11.64-1.01-2.13-7.17-2.68-4.3-5.95-1.8 4.39 4.59 2.34 1.48.35 0 0 .59-.43 1.05.69.6 1.47-1.94.03-1.66-.33.17-.22.57.26.85.67.46 1.14-2.02.51-1.51 0 .13-.13.31-.17.44-.04.45.44 1.27 1.37.09 1.23-3.29-.27.78-5.6 1.95-3.69l1.84 3.61c2.55 3.22 10.96 10.06 4.13 15.71-.95.09.87-6.26-2.05-4.59 0 0-1.47 4.78-6.99 5.35-5.52.56-4.29-.91-4.29-.91s.46-.77-1.82-2.51c-2.28-1.74-1.18-3.59-1.18-3.59l3.54-5.41c1.55-2.54 7.53 1.82 4.32 3.54 1.33.2-.09 1.87-.09 1.87 3.9-2.72 5.03.96 2.22 1.81 0 0-2.29-.24-1.71 1.54s2.32.65 2.32.65c4.75-4.03 2.15-7.52 2.15-7.52s-3.69-3.69-6.33-3.69-1.12.68-1.12.68c8.12 2.9 2.31 4.58 4.18 8.52 1.18 2.92-.42 3.33-.42 3.33s-5.88 3.78-12.67-1.73c-.29-.23-.73 0-.67.36.24 1.35.35 6.75-2.3 2.82.38.36-4.34-3.94-5.62-6.12-2.05-3.38-1.86-7.91-4.77-9.9l-1.98-1.01c-.76-.62.06-1.37 1.01-1.19.31.03.61.16.86.34 1.2.92-2.28-.01-1.86-1.12.32-.6 1.23-.49 2.28 0 1.25.7-1.84.54-2.14-.65-.32-1.28 1.44-.75 2.17-.48.48.83-1.21.65-1.95-.39-.28-.67.41-.89 1.23-.64 0 0 .92-.13 1.48-.75l5.9-35.41s.26-.87 2.05 0c8.69 4.61 34.85 11.05 43.15 14.25 0 0 6.35 2.05 10.86-.61 0 0 3.48-.61 5.43.92 0 0 1.23 0 4-.92s2.25 2.15 2.25 2.15.92 15.89-1.33 16.81c-5.64 1.06-5.75-.83-10.45-1.02-13.04 1.36-6.48-8.92-25.62-6.76-15.23 1.72-13.96-8.23-31.26-7.28l1.74-18.45s.61-6.66-1.54 0-3.38 19.16-3.38 19.16c-1.27 8.73-4.26 21.17-4.56 30.85.3 1.69 2.03-9.72 2.81-13.94-2.27-4.28 10.28-.08 4.37-15.98 0 0 12.96-1.43 17.17 3.18 15.3 8.25 14.91-2.89 29.26 6.92a15.49 15.49 0 0 0 7.51 2.68c4.2.34 10.21.63 12.63-.17 0 0 1.02-.72.56 2.66-.46 3.38-2.56 13.73-2.56 13.73-.01 3.47-3.54 2.3-5.12 2.31-3.99.54-4.14-9.52-14.86-6.1-19.89 2.99-9-.9-31.21-4.92-10.81-2-18.26-3.67-18.26-3.67.55-.18.09-1.11.89-.97.36.04.55.85.53 1.37-.12.99 1.24 5.36 2.08 7.38 1.16 2.79 3.75 6.89 6.64 9 2.26 1.39 4.13 6.31-.06 5.63 3.52 8.6 1.74 4.29 4.5 1.4.08.04-.16.61-.16.61-2.5 4.27-.88 3.14-1.6 6.83-.89 4.57-3.07 11.99-3.07 11.99-108.48 0-236.53.24-345 .24" style="fill:none;stroke:#fff;stroke-linejoin:round" data-name="Layer 1"/></svg>