<svg data-name="Layer 2" xmlns="http://www.w3.org/2000/svg" viewBox="0 0 328 141.07"><path d="m0 140.57 139.67-.37c2.1 0 4.14-.74 5.75-2.08l15.44-12.85s4.43-3.42 10.66-3.51c.55 0 1.09-.08 1.62-.23s.96-.37 1.41-.63c1.4-.8 6.43-3.32 12.69-2.34 7.41 1.16 21.43-4.86 24.83-4.63 3.4.23.74-4.02-5.63-3.51-6.36.51-24.67-.04-24.67-.04s-2.75-.99.11-3.42c2.86-2.43 7.43-3.33 6.28-9 0 0-.35-2.66-9.14 3.82 0 0-3.7 3.93-10.53 4.63-6.83.69-9.03 6.6-9.03 6.6s0 4.51-32.17 17.36c0 0-13.77 8.1 1.74 1.39 10.53-4.56 19.73-8.89 24.55-11.21 2.35-1.13 4.45-2.69 6.2-4.61l6.28-6.86s16.85-4.51 15.71-8.33c-1.13-3.82-13.98-15.74-7.73-33.56s15.04-22.68 28.93-24.07c13.54-1.35 26.91 3.46 33.04 11.42.29.37.41.84.38 1.3-.14 1.84-.16 6.93 3.42 10.26 1.19 1.11 1.88 2.67 2 4.29.18 2.32-.37 5.02-2.16 2.46-1.16-1.65-1.86-2.74-2.27-3.44-.18-.3-.64-.15-.61.19.15 2 1 5.48 5.1 5.56 0 0 3.23.29.33 5.18-1.93 3.26-2.29 6.33-2.31 8.01-.02 1.16-.32 2.3-.86 3.33-1.41 2.75-4.57 7.77-10.14 11.42-.43.28-.99-.08-.89-.59.18-.96.36-2.28.26-3.34-.17-1.91-.87-5.27-.17-7.17s-.87-6.89-3.76-5.9-4.51 2.2-4.51 2.2-2.89.87-4.4-1.85-4.11-6.31-1.85-10.82 7.2-7.03 7.2-7.03 4.69-3.47 4.51-4.6 2.95-1.04 5.12.52 2.08-1.56 2.08-1.56v-1.79c0-.5.66-.7.93-.28 1.31 2.04 3.25 5.91.37 7.54-3.99 2.26-5.9-.26-5.9-.26s-6.16-.69-7.72-.43c-.79.13-1.63-.34-2.26-.84a1.23 1.23 0 0 1-.11-1.83c.76-.77 1.72-1.93 1.77-2.97.09-1.74 2.34-5.64 5.12-6.51s-1.39-2.6-4.86-1.13c-2.31.98-.69-2.04.64-4.17.63-1.01 2.03-1.18 2.9-.36l.99.93c.14.13.37 0 .34-.18-.32-1.59-1.98-5.91-10.55-5.47-.8.04-1.43.81-1.23 1.59.18.7.01 1.69-1.07 3.07-2.6 3.3-4.77 5.73-8.33 2.52 0 0-2.18-1.37 2.81-5.29.19-.15.09-.46-.15-.48l-5.53-.31s3.04 3.21.87 3.47c-1.13.14-2.27-.77-3.09-1.67-.75-.82-2.03-.85-2.82-.06l-2.77 2.77s-1.07 2 4.94.36a.944.944 0 0 1 1.19.94l-.08 2.61c-.03.98-.74 1.8-1.7 1.97-1.36.23-3.19.66-3.91 1.33-1.22 1.13-10.5 7.2-10.5 7.2l-.47-2.28a.637.637 0 0 0-1.06-.34l-3.77 3.48.4.4c.91.91 1.42 2.15 1.42 3.44v4.72c0 1.59.87 3.05 2.28 3.79 3.44 1.79 9.88 5.9 12.93 12.76.08.19.29.29.49.24.78-.22 2.76-.53 4.27 1.38 1.91 2.43 1.3 4.01 1.3 4.01s-2.26 1.29-2.26 2.24c0 .53-.78.77-1.47.87s-1.39.44-1.9.96l-3.93 4.07s-4.43 1.8.78 3.73 24.47 2.52 24.47 2.52 25.48-1.99 27.14-32.72c.23-4.21-.3-8.43-1.59-12.46-1.19-3.73-3.07-8.16-5.7-10.29a1.7 1.7 0 0 0-1.98-.12c-1.33.83-3.75 2.2-4.66 1.66-.45-.26-.38-1.16-.11-2.21.66-2.55 2.15-4.81 4.14-6.54l2.91-2.53s3.12-1.16-4.74-2.2c-7.87-1.04-12.84-2.43-22.56-.12 0 0-4.86 1.39-5.67-2.31 0 0-.46-1.27 6.71-2.43 9.16-1.48 40.85-4.4 44.55-9.37s37.26-27.43 37.26-27.43 6.94-4.74 1.27 1.85c-5.67 6.6-35.64 23.84-35.64 23.84s-2.78 1.16 1.5 6.02c3.98 4.51-2.88 7.18-6.4 12.68-.89 1.38-2.28 2.36-3.86 2.8-1.16.33-2.73.65-4.84.9-1.43.17-2.8.68-4.01 1.48-1.32.87-3.08 1.78-4.03 1.17-1.65-1.04 5.29-4.08 10.41-5.47 5.12-1.39 13.89-11.72 22.65-14.41 7.2-2.21 20.06-8.92 24.44-11.25 1.44-.77 2.98-1.33 4.6-1.59 4.18-.66 9.52.36-5.29 15.99-20.6 21.75-4.86 75.68-4.86 75.68s7.17 28.35 29.16 28.35l10.92-.02" style="fill:none;stroke:#fff;stroke-linejoin:round" data-name="Layer 1"/></svg>