<svg data-name="Layer 2" xmlns="http://www.w3.org/2000/svg" viewBox="0 0 552 79"><path d="m0 78.47 307.53-.28s4.38-.25 4.48-8.46c.1-8.21 0-40.38 0-40.38s-.65-3.02 4.48-3.12c5.14-.1 11.46-1.81 11.46-1.81s2.95-.3 6.65-4.76c2.65-3.19 7.29-2.29 9.33-1.78.46.11.49.75.06.92l-4.75 1.22s-.4.07-.54.29c-.29.44.31 1.3 1.2 1.57.42.13.63.06 1.42.02 4.48-.25 9.92-1.31 9.92-1.31l5.84-1.39c.37-.09.57-.51.38-.84s-.45-.73-.78-1.11a6.52 6.52 0 0 0-1.33-1.15c-.24-.16-.53-.2-.81-.14-2.7.57-5.39 1.15-8.09 1.72 0 0-.81.45 1.06.2 1.5-.2 5.33-.9 6.77-1.16.35-.06.7.06.95.32l.83.89c.22.24.12.62-.19.72l-7.54 2.45 3.19-.43c.25-.03.41.25.25.44-1.24 1.46-5.12 5.41-10.9 5.78-4.59.29-6.69.37-7.61.39-.42 0-.82.18-1.12.48l-.48.49a.76.76 0 0 1-1.2-.14l-2.64-4.36 2.97 6.77-14.1 7.73s-.6 13.67 1.28 13.82 12.09-6.87 12.09-6.87 5.66 1.69 4.66 6.42c-.81 3.79-9.67 10.28-13.18 12.73-.33.23-.74-.16-.52-.5 1.89-2.93 6.62-9.53 12.74-12.83 4.87-2.63 6.65-3.18 7.29-3.21.93-.04 1.82-.35 2.61-.83 1.56-.95 3.57-2.68 4.78-5.73 0 0-7.05 2.11-7.87-.91 0 0-1.09-.81 6.6-4.93 0 0 2.51 5.54 6.06 4.33s2.94-4.33 2.94-4.33l-4.83-6.24s-.5-.45-1.91.4-2.92 1.71-2.92 1.71-.4.55 0 1.06.6 1.31 1.46.76 9.82-7.05 9.82-7.05 2.97-1.81 4.53.15 1.01 2.92 1.01 2.92l-11.28 7.96-3.98 2.37s-6.45 3.68-6.8-2.67c0 0-4.78 1.76-6.8 6.04s-3.93 4.26-3.93 4.26 5.16 2.89 2.64 5.98c-2.52 3.1-14.75 12.99-14.75 12.99s-8.18 7.57 6.04 8.99c9.59.96 13.62-6.42 13.62-6.42l5.02-8.54s9.8.7 9.57 2.52-3.29 13.39-4.63 14.2c-1.13.68 2.89-11.66 4.22-15.68.29-.87.02-1.85-.7-2.42-1.26-.99-3.55-1.92-6.67.37 0 0 2.46.7 3.54-4.33 1.09-5.04 4.91-5.64 4.91-5.64s-.9 4.03 1.52 3.73c1.54-.19 2.87-1.24 3.64-1.98l-4.92-3.53a.47.47 0 0 1-.13-.62l2.63-4.28c.16-.27.5-.36.78-.22l6.74 3.5-3.21 2.21 2.65-3.46c.22-.28.44-.55.68-.81 1.05-1.15 4.24-5.11-.31-6.73s-5.36 1.94-5.55 3.2c-.04.26.08.51.3.64l3.94 2.4-4.53-1.79c3.02 3.12 3.83 4.76 1.41 7.23-.92.94.2 1.51.2 1.51s1.26 7.4-2.72 8.86c-3.98 1.46-3.42.3-6.65 6.55-3.22 6.24-3.95 13.76-12.53 12.69-4.86-.6 24.82 0 24.82 0s.96-24.93 4.43-33.84c3.47-8.91 10.77-10.12 10.77-10.12s1.98-.3 2.48-4.08 2.76 40.59-.56 46.02c0 0 2.53-19.24 1.06-20.95-1.19-1.38-6.38-4.91-8.14-6.02a.63.63 0 0 1-.1-.98l3.3-3.23c.53-.52.41-1.41-.24-1.77l-1.88-1.04c-.54-.3-.69-1-.33-1.49l7.16-9.83s-5.63 10.87 3.38 11.67c6.85.61 9.89.35 10.95.19.28-.04.5-.27.53-.56.2-1.83.83-8.49-.56-10.31-1.61-2.11-1.52 8.26-1.52 8.26s-.09 4.03-6.74.1l3.73-.2-8.7-5.64s2.16-3.32 1.86-4.73.8 2.72-7.1 3.63c-3.76.43-5.42 1.37-6.13 2.23-.52.63.29 1.48.96 1.02 1.44-1 3.56-3.05 4.02-6.57.7-5.44-.48-17.02-.48-17.02S372.78-1.26 390.91.7c0 0 1.96.91.15 1.81 0 0 3.1-1.44 5.21 1.81s4.68 7.18 3.02 15.86c-1.66 8.69 2.49 14.35 2.49 14.35s-9.14-.3-8.84-8.99l2.04-7.78s1.34-2.11-2.12-6.04c-3.47-3.93-1.6-4.83-1.6-4.83s3.22.2-3.73 2.82-8.56 5.04-8.56 5.04-3.02 6.85 4.13 12.99c0 0 3.52 4.73 8.76-1.31 0 0 .81 4.12 3 5.66 0 0-2.85 36.68 2.59 43.13 0 0-3.5-9.25-2.31-18.84.26-2.09 1.13-4.05 2.51-5.64l5.75-6.65c.23-.28.14-.69-.18-.85l-5.1-2.59a.239.239 0 0 1 0-.43l2.54-1.34c.33-.18.4-.62.13-.89l-5.64-5.52s0-.08.04-.06c1.02.54 5.16 2.67 7.76 3.09 3.73.6 8.56 6.45 10.57 26.99l1.71 14s-12.19 2.03-11.48-.7c.71-2.73-.2-11.48-.2-11.48 2.52-12.79 1.21-17.19 1.21-17.19s-.5.27-1.11 5.81c-.6 5.54 2.72 21.15 2.72 21.15-2.32 1.61-22.56 1.81-26.53 1.11s-8.32 0-8.32 0 5.04-9.77 1.88-14.65-3.59-18.89-2.66-17.98.27 30.31-.72 32.23c-1 1.91-5.75 1.01-5.75 1.01 7.35 3.83 57.91 2.52 57.91 2.52.7-2.72-.1-4.03-1.91-11.18-1.07-4.23-1.12-6.69-.99-8 .08-.73.61-1.32 1.32-1.51 4.33-1.17 4.5-3.29 4.2-7.41-.24-3.28-3.16-4.85-4.66-5.44-.13-.05-.22.12-.12.2.89.69 1.99 2.01-.16 3.33-2.68 1.64-5.66-3.02-6.45-4.38-.11-.2-.04-.44.16-.56l4.31-2.41c.3-.17.39-.56.19-.84l-2.54-3.5-8.7 4.73c3.05 4.44 4.13 3.81 4.08 3.02-.03-.49-.23-.95-.53-1.33l-3.19-4.13c-.9-1.16-1.38-2.63-1.2-4.09.16-1.33.86-2.74 2.89-3.43 4.43-1.51 5.64 4.93 5.64 4.93l-4.83 3.12 2.11 4.33c-1.71 8.36 7.3 10.27 7.3 10.27l.04 1.68c0 .2.25.3.39.16.38-.36 1.14-.83 2.64-1.24 2.92-.81 3.32.4 3.32.4s1.41 4.33 5.94 11.48 2.62 7.35 2.62 7.35l-2.82 1.71c5.74-.6 6.14-5.24 6.14-5.24 2.32-13.5 0-15.51 0-15.51s-4.33-4.33-7.96-6.34-2.22-4.23-2.22-4.23l1.87-4.16c.06-.14.07-.29.03-.44-.2-.61-.81-2.47-1.79-5.07-1.21-3.22-6.34-2.62-6.34-2.62l2.72 3.02-5.41-4.33-3.41 4.27s1.06-1.55 2.67-3.66c1.61-2.11-2.72-4.63-2.72-4.63l-3.02 4.53s-4.73-2.32-6.95-4.33c-1.75-1.59-.74-2.99-.24-3.51a.41.41 0 0 1 .49-.07l9.31 5.29s-1.31 4.63 0 6.04 7.75 1.61 7.75 1.61h-4.13c-3.88 0 1.26 3.55 1.26 3.55l3.88 2.75c3.98 2.98 6.14-2.98 6.14-2.98s3.32 2.72 11.28 6.34c7.96 3.63 3.02 3.22 1.11 2.52s2.6-.54 2.6-.54c5.14.1 4.48 3.12 4.48 3.12s-.1 10.88 0 19.08c.1 8.21 4.48 8.46 4.48 8.46h98.76" style="fill:none;stroke:#fff;stroke-linejoin:round" data-name="Layer 1"/></svg>