<svg data-name="Layer 2" xmlns="http://www.w3.org/2000/svg" viewBox="0 0 704 209"><path d="m0 208.5 424.33-.54c3.12 0 6.14-1.09 8.54-3.09l22.92-19.08s6.58-5.08 15.83-5.21a9.16 9.16 0 0 0 2.4-.35c.74-.21 1.43-.55 2.1-.93 2.09-1.19 9.55-4.93 18.84-3.48 11 1.72 31.83-7.22 36.88-6.87 5.05.34 1.1-5.97-8.35-5.22s-36.64-.06-36.64-.06-4.09-1.46.16-5.07c4.25-3.61 11.04-4.94 9.32-13.36 0 0-.52-3.95-13.58 5.67 0 0-5.5 5.84-15.64 6.87-10.14 1.03-13.4 9.79-13.4 9.79s0 6.7-47.77 25.78c0 0-20.45 12.03 2.58 2.06 15.64-6.77 29.3-13.21 36.45-16.64 3.48-1.67 6.61-3.99 9.21-6.84l9.33-10.19s25.02-6.7 23.34-12.37c-1.68-5.67-20.76-23.37-11.48-49.83 9.28-26.46 22.34-33.68 42.96-35.74 20.11-2.01 39.96 5.13 49.07 16.96.42.55.61 1.24.56 1.94-.21 2.73-.23 10.29 5.08 15.24 1.77 1.65 2.79 3.96 2.98 6.37.27 3.45-.54 7.45-3.21 3.65-1.72-2.45-2.76-4.06-3.38-5.11-.26-.44-.95-.23-.91.29.22 2.97 1.48 8.13 7.58 8.26 0 0 4.79.43.49 7.69-2.86 4.84-3.4 9.39-3.44 11.89-.03 1.73-.48 3.41-1.27 4.95-2.1 4.08-6.79 11.55-15.06 16.96-.63.41-1.47-.12-1.33-.87.27-1.43.53-3.39.39-4.96-.26-2.84-1.29-7.82-.26-10.65s-1.29-10.22-5.58-8.76c-4.3 1.46-6.7 3.26-6.7 3.26s-4.3 1.29-6.53-2.75-6.1-9.37-2.75-16.07 10.7-10.44 10.7-10.44 6.96-5.16 6.7-6.83c-.26-1.68 4.38-1.55 7.6.77 3.22 2.32 3.09-2.32 3.09-2.32v-2.66c0-.75.97-1.04 1.38-.41 1.95 3.03 4.82 8.78.56 11.19-5.93 3.35-8.76-.39-8.76-.39s-9.15-1.03-11.47-.64c-1.18.2-2.42-.5-3.36-1.24-.85-.67-.93-1.95-.17-2.72 1.13-1.14 2.55-2.87 2.63-4.42.13-2.58 3.48-8.38 7.6-9.67s-2.06-3.87-7.22-1.68c-3.44 1.46-1.03-3.04.96-6.2.94-1.5 3.02-1.75 4.31-.54l1.47 1.39c.21.2.56.01.5-.27-.48-2.36-2.94-8.78-15.67-8.12-1.19.06-2.12 1.2-1.83 2.36.26 1.03.01 2.51-1.6 4.56-3.87 4.9-7.09 8.51-12.37 3.74 0 0-3.24-2.04 4.18-7.86.29-.22.14-.69-.22-.71l-8.21-.46s4.51 4.77 1.29 5.16c-1.68.2-3.37-1.14-4.59-2.47a2.897 2.897 0 0 0-4.19-.09l-4.11 4.11s-1.6 2.96 7.33.53c.9-.25 1.79.46 1.76 1.39l-.12 3.88a3.046 3.046 0 0 1-2.53 2.92c-2.02.35-4.73.98-5.8 1.97-1.8 1.68-15.59 10.7-15.59 10.7l-.69-3.38c-.15-.72-1.03-1.01-1.57-.51l-5.6 5.17.59.59a7.227 7.227 0 0 1 2.11 5.11v7.02c0 2.36 1.29 4.53 3.38 5.62 5.11 2.66 14.67 8.76 19.2 18.95.12.28.43.43.72.35 1.16-.33 4.1-.78 6.33 2.05 2.84 3.61 1.93 5.95 1.93 5.95s-3.35 1.91-3.35 3.33c0 .79-1.15 1.14-2.18 1.29-1.07.16-2.06.65-2.82 1.43l-5.83 6.04s-6.57 2.67 1.16 5.54 36.34 3.74 36.34 3.74 37.84-2.96 40.3-48.59c.34-6.26-.45-12.53-2.36-18.5-1.77-5.55-4.55-12.11-8.46-15.28-.84-.68-2.02-.76-2.94-.18-1.97 1.24-5.57 3.27-6.91 2.47-.66-.39-.57-1.72-.16-3.28.98-3.79 3.19-7.15 6.15-9.72l4.32-3.76s4.64-1.72-7.05-3.26c-11.69-1.55-19.07-3.61-33.51-.17 0 0-7.22 2.06-8.42-3.44 0 0-.69-1.89 9.97-3.61 13.61-2.2 60.66-6.53 66.16-13.92s55.33-40.73 55.33-40.73 10.31-7.05 1.89 2.75c-8.42 9.79-52.93 35.4-52.93 35.4s-4.12 1.72 2.23 8.94c5.9 6.7-4.27 10.66-9.5 18.83-1.32 2.05-3.39 3.5-5.74 4.16-1.72.49-4.05.97-7.19 1.34-2.13.25-4.16 1.02-5.95 2.2-1.96 1.29-4.57 2.64-5.99 1.74-2.45-1.55 7.86-6.06 15.47-8.12 7.6-2.06 20.62-17.4 33.64-21.39 10.69-3.28 29.8-13.25 36.3-16.71 2.14-1.14 4.43-1.98 6.82-2.36 6.2-.98 14.13.53-7.85 23.75-30.59 32.31-7.22 112.38-7.22 112.38s10.65 42.1 43.3 42.1l16.22-.02" style="fill:none;stroke:#fff;stroke-linejoin:round" data-name="Layer 1"/></svg>