<svg data-name="Layer 2" xmlns="http://www.w3.org/2000/svg" viewBox="0 0 328.01 88.9"><path d="m0 88 134.77-.32s4.94-.28 5.05-9.49c.11-9.21 0-45.32 0-45.32s-.74-3.39 5.05-3.5c5.79-.11 12.91-2.03 12.91-2.03s3.32-.34 7.49-5.34c2.99-3.58 8.22-2.57 10.52-2 .51.13.56.84.06 1.04l-5.35 1.37s-.45.08-.61.32c-.33.49.35 1.46 1.35 1.76.47.14.71.07 1.6.02 5.05-.28 11.18-1.47 11.18-1.47l6.58-1.56c.42-.1.64-.57.43-.95s-.5-.82-.88-1.25c-.51-.59-1.05-1-1.5-1.29-.27-.17-.59-.23-.91-.16-3.04.64-6.08 1.29-9.12 1.93 0 0-.91.51 1.19.23 1.69-.23 6.01-1.01 7.63-1.3.39-.07.79.06 1.07.36l.93 1c.25.26.13.69-.21.81l-8.5 2.75 3.59-.49c.28-.04.46.29.28.5-1.4 1.64-5.77 6.08-12.28 6.49-5.17.33-7.54.41-8.57.43-.48 0-.93.2-1.26.54l-.54.55c-.4.4-1.07.32-1.36-.16l-2.97-4.9 3.35 7.6-15.89 8.67s-.68 15.34 1.45 15.51c2.13.17 13.62-7.71 13.62-7.71s6.38 1.89 5.25 7.21c-.91 4.25-10.9 11.54-14.86 14.28-.37.26-.83-.18-.58-.56 2.13-3.29 7.46-10.69 14.35-14.4 5.48-2.95 7.49-3.57 8.22-3.6 1.04-.04 2.05-.39 2.94-.93 1.76-1.06 4.02-3.01 5.38-6.43 0 0-7.95 2.37-8.86-1.02 0 0-1.23-.9 7.44-5.54 0 0 2.83 6.22 6.83 4.86 4-1.36 3.32-4.86 3.32-4.86l-5.45-7.01s-.57-.51-2.16.45-3.29 1.92-3.29 1.92-.45.62 0 1.19.68 1.47 1.65.85 11.07-7.91 11.07-7.91 3.35-2.03 5.11.17c1.76 2.2 1.13 3.28 1.13 3.28l-12.71 8.93-4.48 2.66s-7.26 4.13-7.66-3c0 0-5.39 1.98-7.66 6.78s-4.43 4.78-4.43 4.78 5.82 3.24 2.98 6.72c-2.84 3.48-16.63 14.58-16.63 14.58s-9.21 8.49 6.81 10.09c10.8 1.07 15.34-7.21 15.34-7.21l5.66-9.58s11.05.79 10.78 2.83-3.71 15.03-5.22 15.94c-1.27.76 3.25-13.09 4.75-17.59.33-.98.02-2.07-.79-2.71-1.42-1.11-4-2.16-7.52.41 0 0 2.77.79 3.99-4.86 1.23-5.65 5.53-6.33 5.53-6.33s-1.01 4.52 1.71 4.18c1.73-.22 3.24-1.39 4.1-2.22l-5.55-3.96a.52.52 0 0 1-.14-.7l2.96-4.8c.18-.3.57-.4.88-.24l7.59 3.93-3.62 2.48 2.99-3.88c.24-.32.5-.62.77-.91 1.19-1.29 4.77-5.73-.34-7.56-4.98-1.78-6.04 2.18-6.25 3.59-.04.29.09.57.34.72l4.44 2.7-5.11-2.01c3.4 3.5 4.31 5.34 1.59 8.11-1.04 1.05.23 1.7.23 1.7s1.42 8.31-3.06 9.95c-4.48 1.64-3.86.34-7.49 7.35-3.63 7.01-4.45 15.44-14.12 14.24-5.47-.68 27.97 0 27.97 0s1.08-27.97 5-37.97c3.91-10 12.14-11.36 12.14-11.36s2.23-.34 2.79-4.58 3.11 45.55-.63 51.65c0 0 2.85-21.59 1.19-23.51-1.34-1.55-7.19-5.51-9.18-6.76a.705.705 0 0 1-.12-1.1l3.72-3.62c.6-.59.46-1.58-.27-1.98l-2.12-1.16c-.61-.33-.78-1.12-.38-1.68l8.06-11.03s-6.35 12.19 3.81 13.1c7.72.69 11.14.39 12.34.22.32-.05.56-.3.59-.62.23-2.05.93-9.53-.63-11.57-1.82-2.37-1.71 9.27-1.71 9.27s-.1 4.52-7.59.11l4.2-.23-9.81-6.33s2.43-3.73 2.09-5.31.9 3.05-8.01 4.07c-4.24.48-6.11 1.53-6.91 2.5-.58.7.33 1.67 1.08 1.14 1.62-1.13 4.01-3.42 4.53-7.37.79-6.1-.55-19.1-.55-19.1S208.23-1.46 228.66.75c0 0 2.21 1.02.17 2.03 0 0 3.49-1.61 5.87 2.03 2.38 3.64 5.28 8.05 3.4 17.8-1.87 9.75 2.81 16.11 2.81 16.11s-10.3-.34-9.96-10.09l2.3-8.73s1.51-2.37-2.39-6.78-1.81-5.42-1.81-5.42 3.63.23-4.2 3.16-9.65 5.65-9.65 5.65-3.4 7.69 4.65 14.58c0 0 3.97 5.31 9.87-1.47 0 0 .91 4.62 3.38 6.36 0 0-3.21 41.17 2.92 48.4 0 0-3.95-10.38-2.61-21.15.29-2.34 1.28-4.55 2.83-6.33l6.48-7.46c.26-.31.16-.78-.2-.96l-5.75-2.91c-.2-.1-.2-.38 0-.48l2.86-1.5c.37-.2.45-.7.14-.99l-6.36-6.19s0-.09.05-.07c1.15.6 5.81 2.99 8.74 3.47 4.2.68 9.65 7.23 11.92 30.29l1.93 15.71s-13.73 2.28-12.94-.79c.79-3.07-.23-12.88-.23-12.88 2.84-14.35 1.36-19.29 1.36-19.29s-.57.3-1.25 6.52 3.06 23.73 3.06 23.73c-2.61 1.81-25.42 2.03-29.9 1.24-4.47-.79-9.37 0-9.37 0s5.68-10.96 2.12-16.44-4.05-21.2-2.99-20.18.31 34.02-.82 36.17-6.48 1.13-6.48 1.13c8.28 4.29 65.26 2.83 65.26 2.83.79-3.05-.11-4.52-2.16-12.55-1.21-4.74-1.27-7.51-1.11-8.98.09-.82.69-1.48 1.49-1.69 4.88-1.31 5.07-3.69 4.73-8.31-.27-3.68-3.56-5.44-5.25-6.11-.14-.06-.25.13-.13.22 1.01.78 2.25 2.26-.18 3.74-3.02 1.84-6.37-3.39-7.26-4.91-.13-.22-.05-.5.17-.62l4.86-2.7a.65.65 0 0 0 .21-.95l-2.86-3.93-9.8 5.31c3.44 4.98 4.66 4.27 4.6 3.39-.03-.55-.26-1.06-.59-1.5l-3.6-4.64c-1.01-1.31-1.55-2.95-1.35-4.59.18-1.49.97-3.07 3.26-3.85 4.99-1.7 6.36 5.54 6.36 5.54l-5.45 3.5 2.38 4.86c-1.93 9.38 8.23 11.53 8.23 11.53l.04 1.89c0 .23.28.34.44.18.43-.4 1.28-.93 2.98-1.39 3.29-.9 3.75.45 3.75.45s1.59 4.86 6.7 12.88 2.95 8.25 2.95 8.25l-3.18 1.92c6.47-.68 6.92-5.88 6.92-5.88 2.61-15.14 0-17.41 0-17.41s-4.88-4.86-8.97-7.12c-4.09-2.26-2.5-4.75-2.5-4.75l2.1-4.67c.07-.16.08-.33.03-.49-.23-.69-.92-2.77-2.02-5.69-1.36-3.62-7.15-2.94-7.15-2.94l3.06 3.39-6.09-4.86-3.84 4.79s1.19-1.74 3.01-4.11c1.82-2.37-3.06-5.2-3.06-5.2l-3.4 5.09s-5.33-2.6-7.83-4.86c-1.97-1.78-.83-3.35-.26-3.94.15-.15.37-.18.55-.08L255.14 32s-1.48 5.2 0 6.78 8.74 1.81 8.74 1.81h-4.65c-4.37 0 1.42 3.98 1.42 3.98l4.37 3.09c4.48 3.34 6.92-3.34 6.92-3.34s3.75 3.05 12.71 7.12c8.97 4.07 3.4 3.62 1.25 2.83s2.93-.6 2.93-.6c5.79.11 5.05 3.5 5.05 3.5s-.11 12.21 0 21.42 5.05 9.49 5.05 9.49l29.03.37" style="fill:none;stroke:#fff;stroke-linejoin:round" data-name="Layer 1"/></svg>