<svg data-name="Layer 2" xmlns="http://www.w3.org/2000/svg" viewBox="0 0 328 140"><path d="M328 139.5c-60.42 0-60.67-.36-121.09-.36 0 0-.77-3.94-2.03-5.83-1.26-1.89-1.18-4.46-1.18-4.46h-22.37s-2.91 5.48 1.54 5.14c4.46-.34 10.68 0 10.68 0s.98-.23.87-2.34c-.11-2.11.17-2.29-.69-2.29s-.86 1.31-.86 1.31-.57 3.31 1.89 3.31c3.09 0 8.97-.4 8.97-.4l.74-4.74s7.47-.9 5.78-18.28c-.04-.45-.63-.59-.86-.2-.69 1.18-1.24 3.97 1.67 5.39 2.26 1.94 9.86-12.97 7.98-17 0 0-4.74 8.43-5.2 2.14-.44-6.06-.46-8.93-5.37-19.47-1.69-3.56-12-4.49-7.19-9.95-3 7.35 7.68 3.91 2.48.58 0 0 .99-.72 1.76 1.15 1.01 2.45-3.24.06-2.77-.54.29-.36.95.43 1.43 1.12.76 1.91-3.37.86-2.52.02.21-.21.53-.28.74-.07.74.73 2.13 2.29.15 2.05-5.5-.46 1.3-9.36 3.26-6.17l3.09 6.04c4.26 5.39 18.34 16.82 6.9 26.27-1.58.14 1.46-10.47-3.43-7.68 0 0-2.46 8-11.69 8.94-9.23.94-7.17-1.51-7.17-1.51s.77-1.29-3.04-4.2c-3.82-2.91-1.97-6-1.97-6l5.93-9.05c2.59-4.24 12.6 3.05 7.23 5.92 2.23.34-.14 3.13-.14 3.13 6.53-4.55 8.42 1.61 3.72 3.03 0 0-3.83-.4-2.86 2.57s3.89 1.09 3.89 1.09c7.94-6.74 3.6-12.57 3.6-12.57s-6.17-6.17-10.58-6.17-1.88 1.14-1.88 1.14c13.58 4.85 3.87 7.67 7 14.25 1.97 4.88-.71 5.57-.71 5.57s-9.84 6.32-21.2-2.89c-.48-.39-1.23 0-1.12.6.41 2.26.59 11.29-3.84 4.72.64.61-7.26-6.59-9.4-10.23-3.44-5.65-3.11-13.23-7.97-16.55l-3.31-1.69c-1.27-1.04.09-2.28 1.69-1.99.52.06 1.02.26 1.44.57 2.01 1.54-3.82-.02-3.11-1.87.53-1.01 2.05-.82 3.82-.01 2.09 1.17-3.08.9-3.57-1.09-.53-2.15 2.41-1.26 3.64-.8.8 1.38-2.02 1.09-3.26-.65-.47-1.12.69-1.5 2.06-1.08 0 0 1.54-.22 2.48-1.25l9.87-59.21s.43-1.46 3.43 0c14.54 7.7 58.3 18.48 72.19 23.82 0 0 10.63 3.43 18.18-1.03 0 0 5.83-1.03 9.09 1.54 0 0 2.06 0 6.69-1.54 4.63-1.54 3.77 3.6 3.77 3.6s1.54 26.57-2.23 28.11c-9.44 1.77-9.62-1.39-17.49-1.71-21.81 2.28-10.85-14.92-42.87-11.31-25.48 2.87-23.36-13.77-52.3-12.17l2.91-30.85s1.03-11.14-2.57 0c-3.6 11.14-5.66 32.05-5.66 32.05-2.13 14.6-7.12 35.41-7.63 51.59.5 2.83 3.4-16.26 4.7-23.32-3.8-7.16 17.2-.13 7.3-26.73 0 0 21.69-2.4 28.72 5.31 25.6 13.79 24.94-4.83 48.95 11.57 3.73 2.55 8.05 4.11 12.56 4.48 7.02.56 17.08 1.05 21.13-.28 0 0 1.71-1.2.94 4.46s-4.29 22.97-4.29 22.97c-.02 5.8-5.93 3.85-8.57 3.86-6.68.91-6.92-15.93-24.86-10.2-33.28 5-15.06-1.5-52.21-8.23-18.09-3.34-30.55-6.14-30.55-6.14.91-.3.14-1.86 1.49-1.63.6.07.92 1.43.89 2.28-.21 1.65 2.08 8.97 3.48 12.34 1.95 4.67 6.27 11.52 11.12 15.06 3.78 2.32 6.91 10.56-.1 9.41 5.88 14.38 2.91 7.18 7.53 2.34.13.07-.26 1.01-.26 1.01-4.18 7.14-1.48 5.26-2.68 11.43-1.48 7.64-5.14 20.05-5.14 20.05-181.49 0 3.94.3-177.55.3" style="fill:none;stroke:#fff;stroke-linejoin:round" data-name="Layer 1"/></svg>