<svg width="328" height="89" viewBox="0 0 328 89" fill="none" xmlns="http://www.w3.org/2000/svg"><path d="M0 87.898h135.3M298.926 87.898H328" stroke="#fff" stroke-width=".541" stroke-miterlimit="10"/><path d="M197.835 50.804c.143.09.234.156.338.221.221.13.273.312.143.533a288.525 288.525 0 0 1-2.08 3.343c-.091.143-.208.286-.351.364-.117.065-.325.117-.429.052-.104-.065-.169-.273-.169-.403a2.08 2.08 0 0 1 .182-.69c.468-.949.962-1.885 1.443-2.835.065-.13.143-.247.234-.416-.884-.39-1.716-.754-2.561-1.132-.013.026-.039.04-.052.066.156.22.312.442.455.663 1.001 1.547.949 2.965-.208 4.409-.26.325-.586.585-.859.884-.078.091-.155.26-.129.351.91 2.628.441 5.164-.521 7.661-.286.741-.637 1.457-1.001 2.172-.208.416-.546.69-1.001.845-1.56.56-3.107 1.158-4.667 1.73-.247.091-.377.208-.442.481-.117.534-.312 1.04-.442 1.574-.039.17-.039.377.026.52.286.638.364 1.262.143 1.964-1.287 3.98-2.548 7.986-3.835 11.979-.169.52-.416 1.027-.65 1.6.871-.04 1.69-.078 2.496-.117 2.626-.143 5.252-.3 7.865-.443 1.534-.09 3.069-.182 4.616-.26.286-.013.377-.117.403-.403.351-3.59.676-7.192 1.066-10.782.429-3.85.858-7.7 1.404-11.536.533-3.785 1.183-7.544 1.846-11.316.221-1.235.598-2.445.923-3.667.481-1.795 1.586-3.187 2.938-4.41 1.365-1.248 2.99-2.106 4.589-2.99 1.326-.73 2.613-1.523 3.887-2.329.468-.299.858-.741 1.222-1.183-.091.013-.182.013-.26.052-1.625.585-3.25 1.157-4.862 1.768-.221.078-.429.3-.559.508-.533.845-1.027 1.717-1.872 2.289a1.53 1.53 0 0 1-.884.26c-.676 0-1.001-.663-.611-1.21a2.72 2.72 0 0 1 .715-.676c.728-.442 1.482-.82 2.223-1.249.169-.104.351-.247.429-.416a20.415 20.415 0 0 0 2.158-9.455c-.052-3.616-.039-7.232-.208-10.834-.208-4.578.988-8.701 3.588-12.46 2.184-3.148 5.201-4.93 8.919-5.593 1.924-.35 3.848-.416 5.772 0 .13.026.26.065.39.104.663.221 1.209.573 1.287 1.353 2.873-.247 4.667 1.43 6.123 3.538 2.587 3.745 3.874 7.907 3.666 12.485-.117 2.433-.702 4.774-1.404 7.089a80.05 80.05 0 0 0-.871 3.017c-.39 1.379-.195 2.732.234 4.071.676 2.12 1.82 4.006 3.03 5.84.182.26.351.533.52.793.286.455.26.546-.208.755 1.716.845 3.445 1.703 5.122 2.536-.091-.599-.247-1.249-.286-1.9-.182-3.277 2.015-4.785 4.745-4.512 1.586.156 2.236.468 3.783 1.587-.325-.69-.338-1.405-.026-2.069.351-.754.793-1.47 1.196-2.197.091-.157.208-.3.351-.495-.247-.143-.468-.273-.741-.416-.13.247-.247.494-.377.715-.494.846-.949 1.717-1.495 2.537-.481.728-.702.74-1.456.338-2.47-1.379-4.875-2.875-7.085-4.643-.325-.26-.611-.547-.91-.833-.663-.65-.793-1.444-.585-2.315.182-.754.598-1.378 1.053-1.99.208-.273.39-.22.65-.078 2.613 1.483 5.213 2.953 7.826 4.435.702.39 1.404.794 2.132 1.21.143-.3.273-.56.377-.82.104-.26.273-.364.52-.195 1.17.794 2.353 1.587 3.51 2.406.403.286.728.664.611 1.249-.013.078.065.195.143.26 1.716 1.6 3.432 3.213 5.149 4.8.182.168.416.285.637.442.026-.026.039-.052.065-.078-.338-.287-.663-.586-1.001-.872-.585-.507-1.17-1.001-1.73-1.522-.13-.117-.273-.39-.221-.494.078-.143.325-.26.507-.273 1.574-.091 3.134.026 4.629.546a2.69 2.69 0 0 1 1.417 1.093c1.196 1.86 2.249 3.785 3.055 5.84.169.416.273.858.416 1.34.325-.365.65-.144.975.038 4.199 2.328 8.411 4.643 12.597 6.998.936.52 1.769 1.209 2.666 1.807a.902.902 0 0 0 .364.104c1.027.091 1.936.1 2.963.179.039 0 .312-.013.338 0 .104.078.105.25.209.329-.117.065-.234.182-.338.182-.923-.065-1.846-.143-2.782-.221a1.59 1.59 0 0 0-.936.195c-.65.364-1.353.338-2.042.052-.156-.065-.26-.3-.377-.456.169-.104.312-.286.494-.299.43-.039.872-.013 1.353-.104-.117-.09-.221-.195-.351-.26-2.536-1.495-5.058-3.004-7.632-4.46-2.223-1.263-4.498-2.433-6.747-3.669-.26-.143-.442-.143-.598.104-.26.365-.533.716-.767 1.106a321.859 321.859 0 0 0-2.093 3.577c-.182.325-.338.663-.52.988-.13.247-.117.455.078.65.507.52.975 1.106 1.521 1.561 2.626 2.185 5.265 4.331 7.904 6.49.663.533 1.3 1.106 1.976 1.613.819.598 1.248 1.43 1.313 2.406.117 1.548.247 3.095.208 4.643-.13 4.331-.676 8.623-1.469 12.89-.052.26-.104.52-.169.78-.312 1.365-1.118 2.289-2.47 2.705-.208.065-.403.13-.611.182-1.066.234-2.106.52-3.081 1.027-.182.091-.39.144-.585.209-.26-.3-.182-.456.117-.599.728-.312 1.469-.598 2.171-.962.468-.247.871-.599 1.287-.924.312-.247.403-.585.26-.962-.299-.78-.52-1.6-.91-2.328a924.696 924.696 0 0 0-5.889-11.25c-.897-1.704-1.859-3.37-2.821-5.034-.247-.429-.585-.806-.897-1.235-.897.78-1.95.975-2.938 1.352-.937.364-1.873.742-2.783 1.17-.78.365-1.131.99-1.118 1.887.013 1.808.299 3.563.624 5.332.884 4.786 2.08 9.508 3.329 14.216.026.117.065.234.091.351.104.3-.013.416-.325.416-1.301.013-2.601.052-3.901.052-8.606.026-17.199.104-25.806.065-7.345-.039-14.677-.169-22.01-.338a141.636 141.636 0 0 1-9.412-.56c-1.872-.168-3.718-.597-5.564-.936-.143-.026-.364-.182-.351-.273 0-.234.221-.273.442-.26 1.651.065 3.315.156 4.966.156 1.547 0 1.976-.299 2.275-1.82.299-1.522.559-3.07.598-4.605.104-5.19.13-10.379.117-15.568 0-1.34-.247-2.692-.338-4.032-.065-.897-.091-1.808-.117-2.705-.091-2.797-.169-5.606-.26-8.402 0-.117-.026-.247 0-.351.026-.091.13-.195.221-.208.078 0 .234.078.247.156.078.247.13.52.156.78.117 1.496.208 2.991.312 4.487 0 .13.013.26.026.403h.13a280.938 280.938 0 0 0 4.199-2.6c.481-.3.923-.677 1.339-1.067.351-.339.312-.56-.117-.768-.611-.299-1.261-.533-1.911-.793-.572-.221-1.144-.43-1.703-.65-.13-.053-.26-.13-.377-.222-.663-.442-.728-.936-.182-1.508.416-.43.845-.846 1.261-1.275 2.262-2.315 4.238-4.864 5.98-7.582a.75.75 0 0 0 .104-.352c-.13.066-.299.091-.377.195-1.573 1.86-3.64 3.018-5.759 4.11-1.573.82-3.094 1.691-4.446 2.849-1.781 1.522-2.795 3.446-3.328 5.696-.806 3.382-1.404 6.816-1.885 10.25a581.875 581.875 0 0 0-1.495 11.523c-.403 3.381-.728 6.789-1.079 10.17a467.205 467.205 0 0 0-.403 4.24c-.026.273-.156.352-.403.364-2.236.13-4.473.274-6.722.39-2.899.157-5.798.313-8.71.482-.143 0-.299.13-.416.234-.299.3-.455.286-.741-.026-.091-.104-.299-.143-.442-.143-2.613.091-5.226.208-7.839.286-1.092.04-2.172.026-3.264.026-.143 0-.286-.052-.429-.091 0-.065-.013-.117-.026-.182.182-.065.364-.17.559-.182 1.821-.117 3.628-.247 5.448-.312.845-.026 1.456-.403 2.002-.989 1.131-1.248 1.976-2.692 2.782-4.162 2.002-3.615 3.666-7.387 5.252-11.198.143-.338-.026-.455-.26-.52-.858-.247-1.729-.546-2.6-.703-1.664-.299-3.354-.52-5.031-.78-.338-.052-.507.04-.676.351-2.223 3.928-4.524 7.804-7.125 11.51-.689.976-1.456 1.9-2.171 2.849-1.027 1.353-2.392 2.055-4.043 2.263-4.329.546-8.58.286-12.753-1.04a9.555 9.555 0 0 1-2.86-1.444c-1.184-.884-1.665-2.055-1.548-3.538.182-2.159 1.131-3.928 2.653-5.41.663-.65 1.326-1.288 1.898-2.016 1.833-2.341 3.913-4.448 6.058-6.477 2.717-2.575 5.486-5.086 8.242-7.622.169-.156.195-.273.104-.468-.533-1.262-1.404-2.276-2.314-3.265-.26-.286-.546-.546-.819-.819-.273-.273-.247-.39.104-.546.416-.17.819-.351 1.326-.56-.351-.312-.611-.598-.923-.793-.143-.09-.429-.09-.598 0-.845.364-1.703.703-2.483 1.158-2.769 1.612-5.512 3.29-8.281 4.916-.962.56-1.95 1.067-2.964 1.535-.768.364-1.275.169-1.535-.638-.312-.962-.559-1.977-.663-2.978-.429-3.954-.338-7.92-.208-11.9 0-.326.208-.417.429-.547 4.564-2.406 9.127-4.812 13.69-7.231.767-.403 1.521-.858 2.184-1.249-1.027-2.289-2.015-4.513-3.029-6.763-.702.143-1.417.325-2.145.442-2.808.43-5.603.872-8.424 1.249-1.704.234-3.433.351-5.149.52-.052 0-.117.04-.156.013-.117-.052-.221-.13-.338-.195.104-.078.195-.221.299-.234.845-.091 1.69-.156 2.535-.247 4.304-.455 8.594-.95 12.819-1.899.13-.026.247-.065.403-.104l-.377-.91c.104-.066.208-.13.364-.222.13.26.26.482.351.729.104.247.234.273.494.22 2.041-.441 3.679-1.52 5.057-3.056.65-.728 1.326-1.456 1.937-2.224 1.521-1.899 3.458-2.757 5.89-2.6 1.69.103 3.354.298 5.005.663.364.078.611.26.676.637.065.403-.195.65-.52.754-.78.234-1.586.43-2.379.611-.923.221-1.859.43-2.782.65-.182.04-.351.118-.52.196-.689.299-.729.39-.352 1.014.065.117.144.234.17.351.091.469.377.638.819.599 1.43-.117 2.86-.195 4.277-.351 1.612-.196 3.198-.456 4.797-.703-.052-.156-.182-.35-.13-.416.091-.13.273-.234.442-.273 2.522-.546 5.057-1.08 7.592-1.613.806-.169 1.599-.364 2.405-.546.143-.026.273-.078.494-.143-.169-.156-.273-.286-.403-.364-.585-.365-1.17-.729-1.781-1.054a1.28 1.28 0 0 0-.728-.13c-1.781.104-3.575.182-5.356.39-1.391.17-2.756.508-4.147.768-.143.026-.416-.026-.442-.117-.117-.287.117-.352.338-.39 1.586-.326 3.172-.664 4.745-.989 1.378-.286 2.756-.572 4.121-.871.702-.143 1.365-.091 2.015.208a6.923 6.923 0 0 1 2.353 1.794c.104.117.195.248.273.39.507.82.416 1.223-.507 1.47-1.716.469-3.445.859-5.174 1.262-.585.143-1.196.234-1.885.455.078.026.156.04.221.078.299.247.312.507.026.78a3.64 3.64 0 0 1-.559.443c-3.029 2.12-6.201 3.993-9.672 5.306-1.105.416-2.262.65-3.458.677-2.211.039-4.434.156-6.644.22-.91.027-1.69.26-2.288.99-.169.207-.403.376-.624.558-.351.287-.715.508-1.3.287.299.507.52.923.793 1.313.286.403.299.468-.13.729-.988.585-1.976 1.183-3.003 1.73-4.251 2.262-8.515 4.5-12.78 6.736-.273.144-.416.3-.416.625 0 2.9-.065 5.787.026 8.675.052 1.612.338 3.212.546 4.812.052.351.221.676.364 1.002.143.325.417.442.755.273 1.079-.56 2.184-1.08 3.237-1.691 2.743-1.6 5.447-3.252 8.177-4.864.689-.404 1.43-.703 2.145-1.041.702-.338 1.3-.221 1.82.377.156.182.338.338.546.547.637-.39 1.261-.78 1.573-1.535.858-2.042 1.976-3.941 3.276-5.723.403-.546.988-1.014 1.586-1.352 1.248-.703 2.536-1.314 3.836-1.938.507-.248.78-.066.832.494.039.377 0 .767 0 1.248.169-.104.286-.182.403-.26 1.69-1.196 3.38-2.393 5.057-3.602.507-.352.481-.339.793.169.741 1.196 1.521 2.367 2.288 3.537.065.104.169.195.195.234a3205.59 3205.59 0 0 1 6.409-4.096c-1.248-1.678-2.483-3.33-3.757-5.047-.845.637-1.599 1.21-2.353 1.782-.767.585-1.534 1.184-2.301 1.769-.533.39-.988.325-1.274-.26-.247-.508-.364-1.067-.481-1.613-.026-.13.065-.351.182-.442a73.681 73.681 0 0 1 2.639-1.847c.455-.3.936-.56 1.404-.82.559-.299 1.066-.22 1.521.235.208.208.429.403.676.637.26-.182.52-.377.793-.572 2.067-1.47 4.147-2.927 6.461-3.98a9.854 9.854 0 0 1 1.573-.56c1.21-.325 2.289 0 3.264.729 1.547 1.131 1.456 4.123.039 5.06-1.924 1.26-3.823 2.587-5.747 3.862-.65.43-1.326.832-2.028 1.262.208.364.39.728.611 1.066.455.676.364 1.288-.156 1.886-1.196 1.379-2.626 2.42-4.368 3.017-.715.248-1.365.078-1.95-.35a8.322 8.322 0 0 1-.962-.833c-.169-.17-.273-.17-.468-.052-.806.442-1.599.884-2.431 1.274-1.235.586-2.574.82-3.939.885-1.638.078-2.314-.494-2.587-2.185-.286.195-.572.364-.819.572-.234.195-.208.481-.052.69.273.35.572.715.923.962 1.339.897 2.834 1.027 4.355.69.923-.209 1.82-.56 2.717-.872.273-.091.533-.247.806-.338.143-.04.351-.026.455.052.065.039.039.299-.026.416-.455.78-.897 1.574-1.404 2.315-.663.975-1.378 1.925-2.054 2.887-1.066 1.496-2.535 2.341-4.316 2.666-1.742.313-3.471.612-5.201.937a2.94 2.94 0 0 0-1.079.455c-.676.455-1.3.963-1.937 1.457-.091.078-.182.286-.156.39.351 1.066.026 1.977-.637 2.783-1.105 1.34-2.197 2.706-3.393 3.954-3.146 3.252-6.513 6.256-10.166 8.922-.624.456-1.313.846-2.002 1.21-.468.247-.624.169-.949-.26-1.873 1.69-3.004 3.733-2.887 6.32.052 1.158.78 1.913 1.678 2.524 1.391.936 2.964 1.404 4.576 1.756 3.081.663 6.201.845 9.334.546.585-.052 1.157-.17 1.729-.273 1.105-.195 1.989-.742 2.73-1.574 1.586-1.782 2.951-3.733 4.199-5.749 1.886-3.03 3.706-6.1 5.539-9.169.169-.286.338-.43.689-.377 2.249.377 4.498.728 6.747 1.131.572.104 1.105.352 1.729.547.169-.547.403-1.158 1.274-1.184-.182-.234-.299-.403-.429-.533-.936-.898-2.002-1.613-3.237-2.055-.364-.13-.767-.143-1.157-.156-.312 0-.559.156-.767.416-.559.65-1.326.95-2.132 1.145-.117.026-.364-.065-.364-.117 0-.143.026-.378.117-.443.663-.403 1.365-.754 2.041-1.157.195-.117.429-.273.494-.455.273-.82.52-1.64.728-2.472.897-3.667 3.081-6.217 6.591-7.621.13-.052.299 0 .455 0-.026.156-.026.325-.078.468-.299.806-.65 1.6-.923 2.406-.091.26-.078.572-.065.872 0 .442.234.741.637.923 1.339.611 2.964.273 4.004-.845.416-.442.832-.885 1.248-1.34.299-.312.286-.43-.117-.611-1.027-.442-2.067-.833-3.081-1.288a20.399 20.399 0 0 1-2.041-1.08c-.273-.155-.494-.39-.702-.637-.26-.299-.364-.663-.195-1.04.403-.872.793-1.769 1.274-2.601.481-.859 1.066-1.652 1.586-2.485.169-.26.338-.312.624-.182.637.287 1.287.534 1.989.716-.221-.195-.455-.364-.663-.573-.091-.09-.117-.26-.169-.39.13 0 .286-.065.39-.026 1.092.352 2.197.729 3.29 1.08.065.026.117.026.208-.026-.182-.091-.351-.182-.533-.26-.781-.339-1.548-.703-2.341-1.015-.338-.13-.507-.351-.585-.69-.143-.636 0-1.235.221-1.833.988-2.458 4.148-3.928 6.683-3.108 1.43.468 2.184 1.495 2.431 2.926.377 2.198-.494 3.876-2.21 5.202-.39.3-.754.612-1.131.937-.052.052-.078.13-.13.234l.156-.013Zm43.89-11.953s.052-.09.065-.13c-.156-.234-.3-.455-.456-.69-1.248-1.898-2.418-3.836-3.107-6.02-.481-1.523-.611-3.057-.13-4.618.442-1.418.845-2.848 1.248-4.279.637-2.237 1.014-4.513.962-6.828-.078-3.174-.962-6.14-2.47-8.935-.754-1.405-1.638-2.732-2.873-3.785-1.001-.859-2.119-1.47-3.497-1.405-.351.013-.676.052-.884.403-.104.182-.312.274-.507.078-.182-.182-.078-.364.078-.52.429-.416.403-.78-.13-1.08a3.435 3.435 0 0 0-1.079-.377c-2.366-.455-4.706-.234-7.007.443-1.833.533-3.523 1.34-4.928 2.666-2.314 2.172-3.783 4.851-4.81 7.817-.624 1.82-.806 3.706-.78 5.605.052 3.798.143 7.596.221 11.393.065 3.395-.52 6.66-1.963 9.742-.026.065-.039.143-.078.234.078-.013.117-.013.156-.026 1.833-.637 3.653-1.261 5.486-1.899a.73.73 0 0 0 .351-.234c.494-.676.975-1.352 1.43-2.055.169-.273.299-.364.612-.143-.183.611-.378 1.236-.599 1.977.52-.13.949-.182 1.34-.338 1.196-.455 1.859-1.405 2.314-2.536.104-.273.234-.403.546-.221a3.913 3.913 0 0 1-.598 1.976c-.65 1.002-1.352 1.965-2.054 2.927-.299.416-.325.403.078.741.234.195.481.39.728.547 1.105.715 2.21 1.404 3.328 2.107 1.859 1.17 3.731 2.34 5.59 3.524.273.182.533.403.741.65.104.117.195.378.143.482-.078.13-.312.26-.468.26a9.683 9.683 0 0 1-1.508-.117c-.741-.13-1.482-.312-2.223-.481.195.182.403.312.624.429 1.196.637 2.405 1.235 3.796 1.34 1.209.09 1.768-.274 2.106-1.444.052-.17.104-.325.13-.495.247-1.977.468-3.953.715-5.917.169-1.288.364-2.575.533-3.85.013-.13-.065-.3-.143-.416-.585-.846-1.027-1.743-1.157-2.77-.117-.885-.143-1.77-.208-2.654-.013-.208 0-.403 0-.65-.676.69-1.248 1.378-1.924 1.95-.793.664-1.625 1.288-2.522 1.783-1.664.91-3.289.559-4.81-.417-2.457-1.586-4.174-3.81-5.422-6.425-.923-1.925-1.248-4.019-1.534-6.113-.234-1.69.338-3.082 1.482-4.317.937-1.002 1.977-1.873 3.199-2.472 2.197-1.066 4.42-2.055 6.643-3.082.832-.39 1.651-.793 2.457-1.223.143-.078.234-.286.325-.455.182-.338.325-.69.546-1.001.078-.117.351-.195.468-.143.117.052.234.338.195.455-.13.325-.286.663-.52.91-.234.247-.299.481-.143.742.39.663.767 1.326 1.222 1.938.624.845 1.326 1.625 1.95 2.458 1.391 1.86 1.859 3.98 1.495 6.256-.299 1.898-.676 3.784-1.027 5.67-.416 2.276-.832 4.54-.767 6.867.039 1.613.832 2.77 2.184 3.486 1.508.806 3.081 1.483 4.654 2.146.702.286 1.469.39 2.211.585l-.026-.026Zm7.436 6.516c-.455-.715-.936-1.391-1.326-2.107a2.234 2.234 0 0 0-.832-.871c-2.665-1.574-5.474-2.796-8.347-3.902-1.222-.468-2.392-1.053-3.588-1.613-.299-.143-.559-.364-.845-.546.039.17.13.273.221.39.585.78 1.144 1.6 1.768 2.354.546.677 1.079 1.418 1.768 1.912 1.144.833 2.405 1.496 3.601 2.25.196.117.469.338.469.508 0 .182-.286.364-.469.507-.143.117-.325.169-.494.247-.767.325-1.534.65-2.314.975-.195.078-.377.183-.65.313.429.22.754.416 1.092.585 1.625.78 3.264 1.535 4.876 2.34.819.404.871.755.325 1.497a3.61 3.61 0 0 1-.351.429c-.598.585-1.183 1.183-1.794 1.743-1.639 1.508-3.303 3.004-4.707 4.747-1.131 1.392-2.093 2.887-2.288 4.734a24.404 24.404 0 0 0-.169 2.38c-.039 3.68.364 7.336.806 10.99.416 3.42.845 6.841 1.261 10.275.026.247.104.338.364.325.871-.052 1.755-.052 2.626-.143 1.327-.13 2.666-.312 3.992-.468.325-.039.481-.182.403-.52-.104-.52-.169-1.054-.286-1.561-.481-1.912-.845-3.85-.663-5.827.208-2.276.494-4.539.754-6.802.104-.936.312-1.873.299-2.81 0-1.638-.195-3.29-.221-4.928a212.072 212.072 0 0 1-.013-7.61c0-.623.234-1.248.403-1.859.039-.13.26-.286.416-.3.117 0 .273.17.377.287.078.091.117.234.143.364.091.572.208 1.158.221 1.73.143 3.434-.221 6.841-.585 10.249-.078.793-.286 1.587-.221 2.367.247 3.017.546 6.022.91 9.026.247 2.042.663 4.058 1.443 5.983.234.585.091 1.21-.468 1.535-.559.338-1.183.585-1.794.819-.299.104-.377.3-.364.52 0 .156.143.365.273.456.182.117.416.182.637.22 1.677.313 3.354.209 5.044.118 1.989-.117 3.965-.3 5.954-.417.325-.026.468-.143.468-.429 0-.663.052-1.326 0-1.99-.273-3.342-.871-6.633-1.495-9.91-1.547-8.155-3.354-16.258-5.304-24.335-.052-.208-.182-.403-.299-.585-.546-.806-1.118-1.613-1.664-2.432-.221-.338-.143-.624.182-.858.169-.117.338-.248.494-.352h-.039Zm-32.19 39.89c6.54.377 13.027.702 19.488.572-.351-2.055-.767-4.058-1.04-6.087-.481-3.563-.949-7.127-1.287-10.704-.312-3.264-.494-6.542-.611-9.82-.104-3.03-.039-6.047-.052-9.077v-1.353c-.52.182-.949.377-1.417.481-.468.117-.962.221-1.456.221-1.716 0-3.445.04-5.161-.09-2.522-.183-5.005-.625-7.371-1.561-.052-.026-.117-.026-.234-.04.728 6.256.767 12.486.546 18.73-.221 6.23-.663 12.46-1.431 18.715l.026.013Zm38.222-35.429c.039.078.052.143.091.195.143.183.273.365.429.534 1.521 1.587 3.224 2.926 5.161 3.954.377.208.806.364 1.222.48.663.183 1.092-.13 1.17-.806.026-.182 0-.377-.013-.559-.143-1.001-.559-1.899-1.001-2.796-.065-.13-.052-.286-.065-.43.143 0 .325-.051.442 0 .962.43 1.963.82 2.874 1.34 1.131.638 2.028 1.561 2.379 2.875.234.845.468 1.69.572 2.562.195 1.587.286 3.2.442 4.8.026.233.013.532.156.662.637.586 1.066 1.314 1.469 2.068 2.535 4.696 5.109 9.365 7.592 14.086.676 1.288 1.144 2.68 1.677 4.032.182.468.052.884-.312 1.235-.195.195-.403.378-.65.612 1.755-.286 2.652-1.119 3.016-2.758.091-.416.169-.832.247-1.248.676-3.785 1.157-7.583 1.3-11.42.065-1.677-.039-3.368-.13-5.046-.052-1.001-.442-1.873-1.326-2.471-.494-.338-.923-.754-1.391-1.132-2.769-2.263-5.564-4.526-8.32-6.815-.624-.507-1.144-1.144-1.69-1.73-.273-.299-.325-.663-.117-1.027l1.092-1.99c.156-.286.325-.56.494-.832-.13.013-.208.065-.26.143-.884 1.08-2.002 1.287-3.263.832-1.248-.455-2.47-.962-3.706-1.444-1.248-.48-2.288-1.274-3.198-2.237-.689-.728-1.3-1.508-1.638-2.47-.299-.833-.117-1.288.624-1.757.104-.065.208-.13.403-.26-1.04-.013-1.911-.234-2.652-.806-.702-.546-1.365-1.132-2.054-1.717.091.156.195.312.273.468.234.482.507.937.676 1.431.26.715.091 1.08-.611 1.405-1.547.702-3.094 1.391-4.641 2.094-.13.065-.26.13-.39.182.013.039.039.065.052.104.13-.052.26-.104.39-.17 2.015-.845 4.043-1.677 6.058-2.523.247-.104.442-.156.624.118.624.975 1.274 1.925 1.859 2.913.546.923.507 1.157-.338 1.808-1.287.988-2.613 1.899-3.939 2.835-.338.247-.715.442-1.092.676h.013ZM229.27 9.341c-.637.312-1.235.624-1.846.897-1.989.884-3.991 1.73-5.967 2.64-1.859.872-3.575 1.964-4.876 3.616-.806 1.014-1.144 2.146-.975 3.42.117.885.273 1.756.442 2.628.715 3.797 2.666 6.828 5.669 9.208.793.624 1.664 1.093 2.665 1.275 1.144.208 2.145-.221 3.081-.807 1.521-.936 2.73-2.237 3.835-3.616.117-.143.286-.22.442-.338.052.183.13.352.13.534.013.897-.013 1.808.026 2.705.026.585.169 1.157.273 1.73.039 0 .065 0 .104-.013-.169-1.73.013-3.447.312-5.15.455-2.628.975-5.242 1.417-7.87.286-1.716.156-3.407-.715-4.955-.494-.858-1.092-1.664-1.703-2.445-.858-1.105-1.911-2.068-2.327-3.46h.013Zm39.145 53.428c-.65-.455-1.274-.598-1.924-.364-.741.273-1.483.586-2.185.95-.754.377-1.469.82-2.288 1.274-.013-.195-.039-.338-.039-.494 0-.234.026-.481-.013-.715-.091-.481-.221-.95-.312-1.444-.052-.286-.195-.43-.442-.546a57.899 57.899 0 0 1-2.431-1.093c-1.898-.884-3.523-2.107-4.719-3.863-.819-1.209-1.469-2.51-1.56-3.992-.039-.625.065-1.249.104-1.77a94.135 94.135 0 0 1-1.56-.663c.026.105.052.235.078.365 2.314 9.82 4.563 19.639 6.123 29.602.26 1.69.364 3.407.507 5.11.026.3-.026.612-.078.911-.078.482-.273.625-.754.638-.377.013-.741.039-1.118.065-2.197.143-4.394.312-6.591.429-1.261.065-2.522.09-3.757-.247-.312-.091-.65-.26-.871-.507-.156-.183-.143-.52-.221-.82h-.104c-2.614.494-5.253.624-7.892.663-2.028.04-4.056.04-6.097-.025-3.913-.13-7.826-.313-11.739-.469-.546-.026-1.08-.052-1.652-.078-.078.481-.156.924-.234 1.43 16.303.378 32.567.274 48.883.13-.039-.181-.078-.311-.104-.441-1.366-5.164-2.705-10.34-3.537-15.634-.195-1.274-.26-2.588-.351-3.875-.065-.963.364-1.691 1.222-2.146.559-.3 1.131-.586 1.716-.82 1.028-.403 2.081-.741 3.108-1.118.273-.104.52-.286.832-.469v.026Zm-52.289 22.449c.078-.91.156-1.756.234-2.601.338-3.746.715-7.479.988-11.225.157-2.041.144-4.083.209-6.125.052-1.756-.625-3.148-2.055-4.162-.949-.677-1.885-1.366-2.86-2.016-1.703-1.132-3.432-2.224-5.148-3.33-.026-.013-.078 0-.026 0v4.344c0 .768-.013 1.548.117 2.302.338 1.925 1.014 3.76 1.716 5.58.156.39.286.806.455 1.183.871 1.9.988 3.85.507 5.866-.78 3.33-1.547 6.672-2.314 10.002-.052.208-.078.416-.13.637.026.04.052.078.078.13 2.665-1.183 5.421-.741 8.216-.598l.013.013Zm46.672-34.323c.182.416.312.728.442 1.04.299.768.559 1.548.442 2.394-.117.806-.741 1.287-1.534 1.105a7.125 7.125 0 0 1-1.521-.56c-1.547-.793-2.925-1.833-4.199-3.004a15.496 15.496 0 0 1-1.547-1.651c-.325-.404-.234-.625.221-.885 1.742-1.027 3.419-2.146 4.953-3.472.468-.404.507-.482.195-1.002-.572-.962-1.183-1.886-1.781-2.835-.13-.208-.273-.156-.442-.078-1.976.832-3.965 1.651-5.941 2.484-.091.039-.182.104-.286.156.637 1.314 1.248 2.601 1.872 3.889.143.273.13.494 0 .78-.611 1.249-.975 2.562-.624 3.967.663 2.614 2.236 4.591 4.537 5.944 1.222.728 2.561 1.261 3.861 1.873.364.169.585.39.65.82.104.65.273 1.274.416 1.95.182-.104.325-.195.468-.26.936-.468 1.872-.95 2.822-1.392.559-.26 1.157-.403 1.781-.247.273.065.546.156.819.234.013-.052.039-.078.039-.09-.104-2.25-.286-4.5-.793-6.712-.598-2.562-2.614-3.525-4.85-4.448Zm-77.743-26.923-.026-.195c-.559-.039-1.131-.195-1.677-.117-3.094.43-6.188.937-9.295 1.353-.91.117-1.846.052-2.769.052-.312 0-.52-.221-.637-.52a6.144 6.144 0 0 0-.443-.885c-.234-.39-.195-.754.17-1.014.26-.182.546-.351.845-.443.975-.26 1.95-.494 2.925-.728.819-.195 1.651-.39 2.47-.611.117-.026.208-.182.299-.286-.117-.091-.221-.247-.351-.273-1.859-.404-3.731-.65-5.642-.65-1.847 0-3.303.728-4.486 2.106-.559.65-1.144 1.3-1.703 1.951-1.573 1.86-3.406 3.304-5.863 3.811-.065 0-.117.052-.156.065v.104c.767 1.496 1.534 3.005 2.301 4.5.13.26.325.273.52.117.429-.35.871-.702 1.261-1.092.39-.377.832-.598 1.365-.65.351-.027.715-.079 1.066-.092 1.898-.065 3.796-.143 5.695-.182 1.378-.026 2.717-.169 4.017-.663 3.185-1.21 6.097-2.913 8.918-4.8.403-.272.793-.571 1.183-.858h.013Zm79.511 12.655c.559.468 1.067.898 1.561 1.327.507.442 1.014.897 1.482 1.379.104.117.091.35.117.533-.195.039-.429.156-.572.09-.39-.168-.793-.376-1.118-.663a82.868 82.868 0 0 1-3.212-2.848c-.663-.624-1.274-1.3-1.924-1.964a612.988 612.988 0 0 1-3.289 4.54c.026.025.052.064.091.103 1.417 1.418 3.172 1.574 5.018 1.366.884-.104 1.755-.208 2.64-.286.234-.026.585-.078.598.273.013.364-.364.3-.573.325-.871.078-1.742.13-2.613.182-.78.052-1.495.325-2.145.755-.312.208-.455.494-.299.858.221.494.416 1.014.728 1.444 1.092 1.587 2.522 2.744 4.343 3.407 1.235.456 2.444.937 3.692 1.353.793.273 1.521.078 2.093-.56.559-.61 1.105-1.26 1.69-1.846.767-.78.819-1.613.416-2.588a37.589 37.589 0 0 0-3.003-5.736 2.395 2.395 0 0 0-1.326-1.014c-1.326-.43-2.691-.547-4.083-.52-.078 0-.143.038-.299.077l-.013.013Zm-48.479 1.275c-.819 1.118-1.586 2.185-2.379 3.238-1.404 1.886-3.016 3.603-4.693 5.255-.39.377-.364.611.104.858.494.273 1.04.468 1.56.676.754.3 1.534.534 2.249.885.858.43.91.988.234 1.665-.169.169-.351.325-.546.468-.494.338-.988.676-1.482 1.001-1.157.729-2.327 1.431-3.484 2.16-.507.325-.507.78-.052 1.17.234.195.468.39.728.56 1.56 1 3.133 1.99 4.706 2.99 1.287.82 2.548 1.678 3.64 2.758.676.676 1.132 1.47 1.197 2.445 0 .104.052.208.078.312.091-1.118.091-2.21.091-3.316.026-4.331-.143-8.65-.625-12.954-.039-.39-.156-.625-.494-.807-.611-.338-.949-.897-1.131-1.573-.468-1.73-.325-3.473-.104-5.216.104-.845.247-1.678.39-2.575h.013Zm20.346 45.352h.052c0-.039.013-.078 0-.117-.481-3.902-.988-7.79-1.443-11.692-.312-2.77-.468-5.554-.364-8.35.078-1.99.65-3.811 1.872-5.398.377-.481.715-1.001 1.144-1.43 1.703-1.691 3.432-3.356 5.149-5.047.468-.455.884-.95 1.313-1.43.221-.248.208-.469-.13-.625-.195-.078-.364-.208-.559-.299-1.508-.715-3.03-1.418-4.538-2.146a8.186 8.186 0 0 1-1.04-.585c-.377-.26-.364-.533.052-.755a8.988 8.988 0 0 1 1.014-.468c.663-.286 1.326-.546 1.976-.832.208-.091.391-.208.664-.338-.521-.273-.95-.508-1.405-.742-1.95-1.014-3.64-2.328-4.771-4.266-.312-.533-.741-1.001-1.118-1.495-.052-.078-.143-.13-.234-.221.117 1.547.26 3.03.312 4.526.078 2.146.208 4.305-.468 6.399-.039.104-.026.234-.026.35 0 3.37-.052 6.75.065 10.12.117 3.537.286 7.088.611 10.612.338 3.655.858 7.297 1.326 10.938.143 1.106.364 2.186.546 3.291ZM181.22 46.421s-.065-.026-.078-.026c-.117.039-.221.09-.338.13-1.014.325-2.002.715-3.029.936-1.638.339-3.237.117-4.628-.884-.39-.273-.715-.676-.962-1.08-.312-.507-.13-1.014.364-1.352.247-.17.494-.312.728-.481.078-.053.208-.144.208-.221.013-.534 0-1.067 0-1.64-.143.04-.234.053-.325.092-1.248.637-2.522 1.235-3.745 1.925-.52.299-1.027.702-1.378 1.183a28.246 28.246 0 0 0-3.133 5.437 3.523 3.523 0 0 1-1.313 1.6c-.156.104-.299.208-.481.325a14.978 14.978 0 0 1 2.34 4.292c.598-.456 1.157-.872 1.716-1.288.507-.377 1.04-.663 1.677-.767a173.5 173.5 0 0 0 5.201-.937c1.3-.26 2.47-.741 3.38-1.795 1.43-1.651 2.626-3.46 3.731-5.345.013-.026.013-.065.026-.104h.039Zm-.299 18.82c.403.052.78.039 1.118.143 1.599.52 2.977 1.391 4.069 2.666.143.169.247.208.468.13 1.482-.56 2.977-1.132 4.472-1.665.455-.169.767-.442.988-.858.975-1.873 1.639-3.863 1.834-5.97.065-.702-.078-1.43-.117-2.146h-.131c-.481.52-.962 1.015-1.43 1.548-1.118 1.274-2.938 1.717-4.498 1.08-.689-.274-1.014-.781-1.027-1.51-.013-.91.312-1.742.663-2.562.065-.143.117-.273.208-.48l-.364.155c-2.093.937-3.549 2.536-4.693 4.487-.91 1.548-.858 3.382-1.56 4.969v.013Zm38.898-29.563s-.065-.065-.091-.104a4.25 4.25 0 0 1-2.068.95c-.715.116-.624.051-.585.715.182 2.952.455 5.904.585 8.857.04 1.027.495 1.391 1.366 1.665 1.924.585 3.887.962 5.876 1.183 1.989.221 4.004.338 5.993.091.65-.078 1.3-.273 1.924-.468a.889.889 0 0 0 .637-.91l-.078-9.833v-1.6h-.13c-.026.117-.078.247-.091.364-.182 1.782-.338 3.564-.559 5.346-.182 1.47-.39 2.94-.702 4.396-.221 1.053-.585 1.522-2.132 1.613a4.799 4.799 0 0 1-2.366-.469c-1.209-.572-2.379-1.222-3.549-1.872-.117-.066-.156-.287-.221-.443.156-.039.312-.117.481-.13.13 0 .26.052.39.091 1.04.234 2.093.495 3.146.716.325.065.663.052.988.065 0-.04.026-.078.026-.117-.364-.274-.702-.56-1.079-.807-2.002-1.248-4.03-2.471-6.019-3.733a71.084 71.084 0 0 1-3.328-2.25c-.559-.403-.533-.598-.104-1.144.572-.715 1.118-1.444 1.677-2.16l.013-.012Zm-34.101-1.795c1.287 1.73 2.535 3.408 3.796 5.098 1.014-.637 2.067-1.261 3.081-1.938a203.059 203.059 0 0 0 4.434-3.03c.286-.195.585-.455.754-.754.923-1.626.13-3.655-1.638-4.266-.689-.234-1.378-.286-2.067-.052-.455.156-.911.299-1.34.507-2.054.95-3.926 2.224-5.772 3.512-.429.299-.858.61-1.261.91l.013.013Zm65.445 10.496c-.13-.364-.03-.624.299-.78 1.612-.729 3.211-1.444 4.823-2.172.663-.3.754-.469.429-1.132-.364-.754-.806-1.457-1.209-2.198-.416-.754-1.053-1.262-1.807-1.613a6.311 6.311 0 0 0-3.094-.598c-1.846.117-3.042 1.248-3.289 3.082-.13.898.026 1.77.273 2.628.156.533.403.975.871 1.313.611.442 1.053 1.04 1.209 1.808.013.091.078.182.13.3.468-.235.91-.443 1.365-.664v.026Zm-58.191 3.85-.052.052c.325.273.598.624.975.793 1.08.52 2.185.976 3.277 1.43.091.04.286-.025.377-.103.286-.234.533-.508.806-.755.364-.312.767-.572 1.105-.897 1.105-1.054 1.612-2.341 1.456-3.876-.169-1.69-1.105-2.796-2.743-3.03-1.677-.234-3.211.195-4.46 1.34-.806.74-1.326 1.677-1.352 2.835 0 .403.143.637.546.806 1.196.494 2.38 1.04 3.563 1.587.364.169.702.364 1.053.572.078.052.156.234.117.273-.065.104-.195.208-.312.221-.143.013-.312-.052-.468-.09-1.287-.39-2.588-.781-3.875-1.171l-.013.013Zm23.089 37.457c-.104-.013-.221-.039-.338-.052-1.001-.052-2.015-.104-3.016-.169a10.265 10.265 0 0 0-3.965.52c-.195.065-.403.13-.611.17-.546.103-.78-.13-.715-.677.026-.221.091-.442.143-.663.741-3.213 1.482-6.438 2.236-9.65.442-1.913.416-3.76-.351-5.606-.676-1.613-1.196-3.29-1.781-4.943-.013-.039-.065-.065-.13-.143v.456c0 2.445.065 4.89 0 7.322a318.353 318.353 0 0 1-.351 9.312c-.065 1.145-.273 2.29-.767 3.356-.312.663-.819 1.027-1.547 1.08-.572.038-1.144.064-1.703.077h-1.001v.091c4.589.716 9.23.755 13.897.95V85.66v.026Zm39.717-54.014c-3.367-1.899-6.695-3.785-10.062-5.684-.481.586-.858 1.21-1.014 1.938-.156.69 0 1.288.507 1.782.247.234.481.494.754.702 2.275 1.834 4.732 3.369 7.28 4.774.221.117.39.117.546-.091.832-1.028 1.378-2.225 1.976-3.421h.013Zm-62.325 25.037c-.039-.156-.039-.26-.078-.326-.195-.364-.039-.559.234-.832a9.383 9.383 0 0 0 1.275-1.509 2.347 2.347 0 0 0 .338-1.833c-.26-1.132-.988-1.977-1.769-2.784-.039-.039-.117-.065-.169-.09-.962-.391-1.911-.781-2.873-1.184-.221-.091-.338-.026-.455.156-.676 1.092-1.365 2.185-2.028 3.29-.234.39-.377.82-.572 1.223-.208.442-.104.82.273 1.092.429.313.858.638 1.326.859 1.456.663 2.938 1.274 4.485 1.95l.013-.012Zm-13.728-17.012c-1.872 1.326-3.757 2.653-5.642 3.993a.41.41 0 0 0-.143.22c-.169.99.364 1.796 1.365 1.874.819.052 1.664-.04 2.483-.17 1.677-.26 3.133-1.092 4.524-1.937-.871-1.34-1.729-2.64-2.6-3.98h.013Zm5.031 30.863c-.065.143-.117.26-.182.39-.949 2.16-1.846 4.344-2.873 6.464-1.651 3.382-3.159 6.867-5.98 9.599l4.394-.195c.026-.26.039-.481.065-.703.195-1.73.702-3.381 1.287-4.994a867.375 867.375 0 0 1 3.575-9.703c.143-.39.065-.624-.273-.858h-.013Zm60.128-.026h-.065c-.052.351-.104.702-.143 1.054-.221 1.912-.468 3.81-.637 5.722-.247 2.627.624 5.112 1.053 7.765.585-.286 1.17-.533 1.703-.859.416-.247.468-.637.312-1.079-.156-.43-.338-.871-.468-1.314-.845-2.86-1.183-5.813-1.508-8.766a165.6 165.6 0 0 1-.247-2.523Zm11.505-39.057c.26.156.481.286.715.416.481.273.468.3.169.741-.468.703-.962 1.405-1.326 2.16-.624 1.3-.065 2.952 1.17 3.706.767-.923 1.547-1.82 2.288-2.757.403-.507.728-1.067 1.053-1.626.156-.26.208-.572-.052-.845-1.053-1.067-2.34-1.808-3.64-2.601-.13.286-.247.533-.364.806h-.013Zm-106.123 40.54s.078.09.13.13c.689-.468 1.417-.885 2.041-1.418 3.25-2.744 6.318-5.67 9.308-8.688.806-.806 1.547-1.678 2.314-2.523.299-.338.403-.754.312-1.314-4.992 4.396-9.789 8.857-14.105 13.813Zm32.774-28.262c.442.35.806.689 1.196.962.494.351 1.04.39 1.625.17a9.721 9.721 0 0 0 3.211-2.017 7.808 7.808 0 0 0 1.001-1.17c.091-.13.156-.378.091-.508-.234-.52-.52-1.027-.819-1.586-2.106 1.404-4.329 2.497-6.305 4.149Zm-2.509 42.998s.117.052.169.09c.104-.103.26-.181.312-.298.195-.404.39-.82.546-1.236 1.586-4.149 2.808-8.415 4.043-12.68.078-.274-.026-.6-.052-.898h-.13c-.039.09-.091.195-.13.299-.598 1.587-1.209 3.173-1.794 4.76-.962 2.588-1.963 5.15-2.6 7.843-.169.702-.247 1.417-.364 2.133v-.013Zm-31.5-12.967.143.169c.533-.325 1.105-.612 1.612-.976 4.485-3.238 8.554-6.919 12.272-11.016.715-.793 1.326-1.69 1.95-2.562.403-.56.494-1.184.208-1.847-.325.117-.442.325-.39.676.091.638-.091 1.21-.52 1.691-.169.182-.325.39-.494.572-2.73 2.992-5.694 5.75-8.684 8.48-1.521 1.392-3.016 2.797-4.888 3.72-.221.117-.442.26-.624.43-.221.194-.39.441-.585.663Zm35.92-39.903c-.754-1.015-1.092-1.093-2.132-.494-.286.169-.572.338-.845.533-.663.468-1.313.937-1.976 1.418-.741.533-.767.624-.429 1.47.052.116.104.246.182.35.234.378.364.417.715.144 1.196-.91 2.379-1.821 3.562-2.732.299-.234.611-.455.91-.689h.013Zm32.32 13.058c-.235-3.004-.469-5.944-.703-8.883-.429 2.003-.754 4.019-.585 6.074.052.637.234 1.274.416 1.899.117.416.455.676.872.91Zm27.769 17.74c.091-.936.195-1.872.273-2.809.182-2.263.364-4.526.195-6.802-.039-.494-.143-1.002-.208-1.496-.663.976-.78 6.685-.26 11.094v.013Zm-58.555-46.028h.312c.65-.013 1.3-.065 1.95-.04 1.17.053 2.002.833 2.925 1.419.182.117.39.468.351.637-.052.195-.377.338-.598.481-.078.052-.195.065-.299.078-2.496.533-5.005 1.054-7.501 1.587-.325.065-.65.143-.975.22 0 .04 0 .079.013.118.416-.026.845 0 1.248-.078a69.817 69.817 0 0 0 3.601-.663c1.521-.338 3.042-.729 4.55-1.132.507-.143.546-.286.26-.741-.455-.755-1.157-1.262-1.859-1.756-1.3-.91-2.626-.468-3.952-.13h-.026Zm-21.841 38.719c.208-.208.52-.247.39-.637a13.422 13.422 0 0 0-2.171-3.967c-.052-.065-.208-.143-.286-.104-.351.143-.689.312-1.066.481 1.261 1.275 2.418 2.562 3.133 4.214v.013Zm88.508-8.09c.208-.234.182-.494.026-.806-.481-.95-.923-1.912-1.391-2.861-.13-.274-.273-.547-.416-.846-.494.247-.962.481-1.469.728a586.19 586.19 0 0 0 3.25 3.785Zm-2.834-2.68-.117.079c.13.546.325 1.093.39 1.652.117.858.676 1.326 1.339 1.703.182.105.455.027.689.04-.013-.221.052-.508-.065-.664-.728-.95-1.495-1.873-2.249-2.81h.013Zm-41.927-6.944c-.351.182-.728.35-1.066.572-.429.286-.832.598-1.222.936-.091.078-.156.352-.104.404.104.117.299.169.468.195.091.013.208-.052.299-.104.767-.469 1.222-1.21 1.625-2.003ZM197.9 51.454c-.221-.247-.351-.234-.494 0-.325.611-.676 1.197-1.001 1.808-.221.43-.416.871-.611 1.314a.603.603 0 0 0 .13.065c.65-1.067 1.313-2.133 1.976-3.213v.026Zm51.586-5.71c-.208.13-.364.209-.481.326-.078.078-.156.247-.13.312.338.585.702 1.157 1.066 1.73.039-.026.078-.04.117-.065-.182-.742-.377-1.483-.585-2.302h.013Zm-63.69 23.281a1 1 0 0 0-.793.937c0 .156.182.312.338.56.169-.573.299-1.015.455-1.51v.013ZM233.95 41.18h-.052v4.032h.052V41.18Z" fill="#fff"/><path d="m139.787 32.934-.169 50.776M139.787 32.934c0-.247 0-1.456.936-2.367a3.015 3.015 0 0 1 1.365-.767M135.302 87.898c1.69 0 2.444-.104 3.38-1.352.65-.872.936-2.248.936-2.85M296.209 57.438v27.989M298.926 87.897c-.676 0-1.326-.012-2.028-.675-.689-.638-.676-1.014-.689-1.809M296.209 57.437a3.28 3.28 0 0 0-.494-1.743 3.242 3.242 0 0 0-1.846-1.365" stroke="#fff" stroke-width=".541" stroke-miterlimit="10"/></svg>