<svg data-name="Layer 2" xmlns="http://www.w3.org/2000/svg" viewBox="0 0 552 89"><path d="M552 87.95h-91.8c-8.6 0-7.75-6.04-7.75-6.04s-.19-13.08 0-21.6c.17-7.68-6.78-6.88-6.78-6.88h-55.52c-.25 0-.41-.26-.29-.48 2.46-4.36 3.16-12.75 2.3-15.45-.07-.21-.25-.81-.6-.85-.38-.05-.74.59-.88.82-1.08 1.88-2.26 10.92 1.17 13.38.99.71 2.41.47 3.2-.46 3.79-4.43 2.72-13.64 2.09-16.5-.07-.31-.24-1.05-.58-1.09-.38-.05-.77.77-.91 1.06-1.15 2.4-1.18 12.17 2.08 16.45.61.8 1.83.86 2.48.09 4.16-4.95 3.25-18.4 2.82-19.54-.05-.14-.21-.55-.44-.56-.23-.01-.42.38-.49.51-.6 1.22-2.95 15.05.83 19.21 1.12 1.23 3.11 1.06 4.09-.28 2.19-2.99 2.1-8.68 1.32-10.71-.09-.22-.31-.81-.59-.8-.29 0-.49.61-.57.84-.44 1.29-1.84 8.75 1.01 11.04.94.76 2.34.6 3.16-.29a11.15 11.15 0 0 0 2.2-3.49s1.86-5.21.1-8.29c-.06-.11-.24-.41-.44-.4-.21.01-.35.35-.4.47-.38.91-1.37 9.02 1.48 11.96.61.63 1.65.57 2.2-.1 2.11-2.55 3.12-5.09 3.51-7.41 0 0 .93-5.23-.91-8.03-.09-.14-.35-.53-.65-.5-.31.03-.5.48-.57.65-.52 1.22-1.76 11.11 1.24 14.89.65.82 1.93.73 2.5-.14 2.03-3.08 3.07-6.13 3.54-8.86 0 0 1.07-5.47-.36-9.23-.07-.18-.26-.69-.51-.68-.24 0-.41.51-.47.7-2.8 8.44-.16 16.1-.16 16.1 2.49 8.04 2.92-3.21 2.92-3.21l.54-18.68 1.67 2.08c.22.28.66.2.78-.13l2.26-6.37a.397.397 0 0 0-.36-.53l-6.43-.16c-.35 0-.57.36-.4.66l1.67 2.91c.16.28.1.63-.15.84-2.85 2.37-19.19 15.53-18.95 5.46.22-9.19-3.2-6.89-3.2-6.89s-17.83 13.61-17.82-2.32c0-12.58 1.23-10.77 1.46-7.72.18 2.32.21 4.64.13 6.97l-1.01 28.26c.24 5.33-2.91 4.84-2.91 4.84-17.68-.73-19.37 1.36-19.37 1.36-10.85 8.14-15.4 8.43-19.95 10.75-4.55 2.32-6.1-9.01-3.49-16.66 2.61-7.65-2.13-8.81-2.13-8.81s-6.88-3.44-8.23-6.97c-1.36-3.53-10.69-3.49-12.36-4.21-1.67-.73 1.49-3.56 3.01-4.29 1.53-.73 2.08-.02 1.31 1.14s-1.26.39-1.26.39c-6.28-13-3.1-18.98-3.1-18.98 5.37-9.5 12.74-6.48 15.43-4.93.84.48 1.7.93 2.58 1.34 2.23 1.03 5.86 2.98 3.78 3.88-1.97.85-6.34-.43-8.95-1.34-1.35-.47-2.86-.09-3.8.99-.02.02-.03.04-.05.06-1.75 2.05-2.84 4.59-3.2 7.27-.14 1.07-.27 2.3-.3 3.46-.03.99-.97 2.54-1.85 3-.92.48-1.93.43-2.19-2.88-.58-7.31 4.07-1.45 4.07-1.45.21 6.27 5.3 10.84 7.75 10.65 3.78-.29 3.2-2.81 3.2-2.81-3.68-2.81-1.07-3.39-1.07-3.39 2.91-.19 1.74-3 1.74-3 2.52-1.07.87-2.71.87-2.71-2.57-4.65.77-6.1.77-6.1 3.97 2.52 1.26 20.05-1.45 19.66s-3.29.77-4.07 3.58c-.77 2.81 1.26 5.62 1.26 5.62s5.52 7.65 8.04 12.98c1.91 4.03 1.81 8.23 1.66 10.03-.04.46-.5.76-.94.62-8.04-2.64-12.68.99-13.81 2.05-.06.05 0 .15.07.12 1.07-.33 4.23-.87 5.89-1.14.58-.09 1-.62.94-1.21-1.48-14.17-10.02-26.09-17.14-22.3-8.91 4.75-2.76 12.18-2.76 12.18s12.93 15.81 17.1 20.46c4.16 4.65 7.17 1.26 7.17 1.26l14.24-9.39s2.32-3 7.46-2.36c5.13.65 5.91-1.81 5.91-1.81s-.29-1.26 3.29-1.84c3.58-.58 2.42-1.74 2.42-1.74-7.46 0-6.59-2.13-6.59-2.13-.19-3.49-3.97-1.07-3.97-1.07l-4.16 4.36s-1.16 1.26-10.17 4.75-9.01-.52-9.01-.52l-5.13-12.46c-5.06-13.04-11.76-14.47-15.46-14.09-1.74.18-3.33 1-4.53 2.27-2.62 2.74-6.86 9.35-3.64 21.47C314.14 75.4 312.82 88 312.82 88c-143.76-.95-169.07 1.25-312.82.31" style="fill:none;stroke:#fff;stroke-linejoin:round" data-name="Layer 1"/></svg>