<svg data-name="Layer 2" xmlns="http://www.w3.org/2000/svg" viewBox="0 0 704.01 131"><path d="m0 129.91 418.22-.47s7.3-.42 7.47-14.04c.17-13.62 0-67.03 0-67.03s-1.09-5.01 7.47-5.18c8.56-.17 19.09-3.01 19.09-3.01s4.91-.5 11.08-7.9c4.42-5.3 12.16-3.8 15.56-2.95.76.19.82 1.24.1 1.53l-7.91 2.03s-.67.12-.9.48c-.49.73.52 2.15 2 2.6.69.21 1.04.11 2.37.03 7.47-.42 16.53-2.17 16.53-2.17l9.73-2.31c.62-.15.95-.84.64-1.4s-.74-1.21-1.3-1.85a10.59 10.59 0 0 0-2.21-1.91c-.4-.26-.88-.34-1.34-.24-4.49.95-8.99 1.91-13.48 2.86 0 0-1.34.75 1.76.33 2.5-.34 8.89-1.49 11.29-1.93.58-.11 1.17.09 1.58.53l1.38 1.48c.36.39.2 1.03-.31 1.19l-12.56 4.07 5.31-.72c.41-.06.68.42.41.74-2.07 2.42-8.53 8.99-18.17 9.6-7.65.49-11.15.61-12.68.64-.7.01-1.37.3-1.86.8l-.8.81c-.58.59-1.58.48-2.01-.23l-4.39-7.24 4.95 11.24-23.5 12.83s-1.01 22.69 2.14 22.94c3.15.25 20.14-11.41 20.14-11.41s9.44 2.8 7.76 10.66c-1.34 6.29-16.12 17.07-21.97 21.13-.55.38-1.23-.27-.86-.83 3.16-4.87 11.03-15.81 21.23-21.3 8.11-4.36 11.08-5.28 12.16-5.32 1.54-.06 3.03-.58 4.35-1.38 2.6-1.57 5.94-4.45 7.96-9.51 0 0-11.75 3.51-13.11-1.5 0 0-1.82-1.34 11-8.19 0 0 4.18 9.19 10.1 7.19 5.91-2.01 4.9-7.19 4.9-7.19l-8.06-10.36s-.84-.75-3.19.67-4.87 2.84-4.87 2.84-.67.92 0 1.76 1.01 2.17 2.43 1.25S502 42.87 502 42.87s4.95-3.01 7.55.25c2.6 3.26 1.68 4.85 1.68 4.85l-18.8 13.2-6.63 3.93s-10.74 6.1-11.33-4.43c0 0-7.97 2.93-11.33 10.03-3.36 7.1-6.55 7.07-6.55 7.07s8.6 4.79 4.41 9.93c-4.2 5.14-24.59 21.56-24.59 21.56s-13.63 12.56 10.07 14.92c15.98 1.59 22.69-10.66 22.69-10.66l8.37-14.17s16.34 1.17 15.95 4.18-5.48 22.23-7.72 23.57c-1.88 1.12 4.81-19.35 7.03-26.02.48-1.45.03-3.07-1.17-4.01-2.1-1.65-5.91-3.19-11.12.61 0 0 4.09 1.17 5.91-7.19 1.81-8.36 8.18-9.36 8.18-9.36s-1.5 6.69 2.53 6.18c2.56-.32 4.79-2.06 6.07-3.29l-8.2-5.85a.774.774 0 0 1-.21-1.03l4.38-7.1c.27-.44.84-.6 1.3-.36l11.23 5.81-5.35 3.67 4.42-5.74c.36-.47.74-.91 1.14-1.34 1.76-1.91 7.06-8.47-.51-11.17-7.37-2.63-8.93 3.22-9.25 5.31-.06.42.14.84.51 1.06l6.57 3.99-7.55-2.97c5.04 5.18 6.38 7.9 2.35 11.99-1.53 1.56.34 2.51.34 2.51s2.1 12.29-4.53 14.71-5.71.5-11.08 10.86-6.58 22.83-20.88 21.06c-8.09-1 41.36 0 41.36 0s1.6-41.37 7.39-56.16c5.79-14.79 17.95-16.8 17.95-16.8s3.3-.5 4.13-6.77 4.6 67.36-.94 76.39c0 0 4.21-31.93 1.76-34.77-1.98-2.3-10.64-8.15-13.57-10-.57-.36-.65-1.15-.17-1.62l5.5-5.36c.89-.87.69-2.34-.4-2.93l-3.14-1.72c-.9-.49-1.16-1.66-.55-2.48l11.93-16.31s-9.39 18.04 5.63 19.37c11.42 1.02 16.48.58 18.25.32.47-.07.83-.45.88-.92.34-3.03 1.38-14.09-.93-17.11-2.69-3.51-2.53 13.71-2.53 13.71s-.15 6.69-11.23.17l6.21-.33-14.51-9.36s3.6-5.52 3.09-7.86 1.33 4.51-11.84 6.02c-6.27.72-9.04 2.27-10.22 3.7-.86 1.04.49 2.46 1.6 1.69 2.4-1.66 5.94-5.06 6.7-10.9 1.17-9.03-.81-28.25-.81-28.25S526.95-2.42 557.17.84c0 0 3.27 1.5.25 3.01 0 0 5.16-2.38 8.69 3.01 3.52 5.39 7.8 11.91 5.04 26.33-2.77 14.42 4.15 23.82 4.15 23.82s-15.23-.5-14.73-14.92l3.4-12.91s2.24-3.51-3.54-10.03-2.67-8.02-2.67-8.02 5.37.33-6.21 4.68-14.27 8.36-14.27 8.36-5.04 11.37 6.88 21.56c0 0 5.87 7.86 14.6-2.17 0 0 1.34 6.83 4.99 9.4 0 0-4.74 60.89 4.32 71.58 0 0-5.84-15.36-3.86-31.28.43-3.46 1.89-6.73 4.18-9.37l9.59-11.03a.927.927 0 0 0-.29-1.42l-8.51-4.3a.403.403 0 0 1 0-.72l4.23-2.22c.55-.29.66-1.03.21-1.47l-9.41-9.16c-.05-.05 0-.14.07-.1 1.7.89 8.59 4.43 12.93 5.13 6.21 1 14.27 10.7 17.62 44.8l2.85 23.23s-20.31 3.37-19.13-1.17c1.18-4.54-.34-19.06-.34-19.06 4.2-21.23 2.01-28.53 2.01-28.53s-.84.45-1.85 9.64c-1.01 9.19 4.53 35.1 4.53 35.1-3.86 2.67-37.6 3.01-44.22 1.84-6.62-1.17-13.86 0-13.86 0s8.4-16.21 3.14-24.31c-5.26-8.09-5.99-31.35-4.43-29.85 1.56 1.5.46 50.31-1.21 53.49-1.66 3.18-9.58 1.67-9.58 1.67 12.25 6.35 96.51 4.18 96.51 4.18 1.17-4.51-.17-6.69-3.19-18.56-1.79-7.02-1.87-11.11-1.64-13.29.13-1.21 1.02-2.18 2.2-2.5 7.21-1.94 7.5-5.45 6.99-12.3-.4-5.44-5.27-8.05-7.77-9.03-.21-.08-.37.19-.19.33 1.49 1.15 3.32 3.34-.26 5.53-4.47 2.73-9.43-5.02-10.74-7.26a.664.664 0 0 1 .26-.92l7.19-3.99c.5-.28.65-.93.31-1.4l-4.23-5.81-14.5 7.85c5.09 7.37 6.89 6.32 6.8 5.01-.05-.81-.38-1.57-.88-2.22l-5.32-6.86c-1.5-1.93-2.3-4.36-2-6.79.27-2.2 1.43-4.54 4.82-5.69 7.39-2.51 9.4 8.19 9.4 8.19l-8.06 5.18 3.52 7.19c-2.85 13.87 12.17 17.05 12.17 17.05l.06 2.79c0 .34.41.5.66.27.63-.59 1.89-1.37 4.4-2.06 4.87-1.34 5.54.67 5.54.67s2.35 7.19 9.9 19.06c7.55 11.87 4.36 12.2 4.36 12.2l-4.7 2.84c9.57-1 10.24-8.69 10.24-8.69 3.86-22.4 0-25.74 0-25.74s-7.22-7.19-13.26-10.53c-6.04-3.34-3.69-7.02-3.69-7.02l3.11-6.91c.1-.23.12-.49.04-.73-.33-1.02-1.36-4.09-2.99-8.42-2.01-5.35-10.57-4.35-10.57-4.35l4.53 5.01-9.01-7.19-5.68 7.08s1.77-2.57 4.45-6.08c2.69-3.51-4.53-7.69-4.53-7.69l-5.04 7.52s-7.89-3.84-11.58-7.19c-2.91-2.63-1.23-4.96-.39-5.82.21-.22.55-.27.82-.12l15.52 8.79s-2.18 7.69 0 10.03c2.18 2.34 12.92 2.67 12.92 2.67h-6.88c-6.46 0 2.1 5.89 2.1 5.89l6.46 4.57c6.63 4.94 10.24-4.94 10.24-4.94s5.54 4.51 18.8 10.53c13.26 6.02 5.04 5.35 1.85 4.18s4.33-.89 4.33-.89c8.56.17 7.47 5.18 7.47 5.18s-.17 18.05 0 31.68c.17 13.62 7.47 14.04 7.47 14.04l42.94.54" style="fill:none;stroke:#fff;stroke-linejoin:round" data-name="Layer 1"/></svg>