<svg width="48" height="43" viewBox="0 0 48 43" fill="none" xmlns="http://www.w3.org/2000/svg"><path d="M43.5 21.056H36V15.04c0-3.318 2.69-6.016 6-6.016h.75A2.248 2.248 0 0 0 45 6.768V2.256A2.248 2.248 0 0 0 42.75 0H42c-8.288 0-15 6.73-15 15.04V37.6a4.507 4.507 0 0 0 4.5 4.512h12c2.484 0 4.5-2.02 4.5-4.512V25.568a4.507 4.507 0 0 0-4.5-4.512Zm-27 0H9V15.04c0-3.318 2.69-6.016 6-6.016h.75A2.248 2.248 0 0 0 18 6.768V2.256A2.248 2.248 0 0 0 15.75 0H15C6.713 0 0 6.73 0 15.04V37.6a4.507 4.507 0 0 0 4.5 4.512h12c2.484 0 4.5-2.02 4.5-4.512V25.568a4.507 4.507 0 0 0-4.5-4.512Z" fill="#0D0D58" fill-opacity=".15"/></svg>