<svg width="1669" height="1507" viewBox="0 0 1669 1507" fill="none" xmlns="http://www.w3.org/2000/svg"><path d="M1349.61 1.975s0 .112-.02.168a1509.581 1509.581 0 0 1-12.11 67.11c-8.43 41.419-16.93 82.818-26.24 124.05-7.39 32.717-15.89 65.192-24.12 97.723-6.73 26.624-13.52 53.23-20.74 79.743-10.07 36.928-20.46 73.781-30.88 110.616-7.93 28.022-16.01 56.006-24.18 83.954-7.83 26.773-15.83 53.491-23.87 80.209-8.51 28.264-16.73 56.621-25.87 84.68-7.52 23.029-16 45.76-24.42 68.49-18.7 50.548-39.35 100.22-67.48 146.445-11.34 18.65-26.07 30.257-49.99 27.612-20.419-2.273-41.141-23.532-39.817-44.101 1.063-16.638 2.22-33.276 3.786-49.859 1.325-13.936 3.414-27.798 5.036-41.697a6081.826 6081.826 0 0 0 5.857-52.019c1.399-12.931 2.574-25.861 3.991-38.792 1.455-13.302 3.187-26.587 4.587-39.908 1.44-13.527 2.54-27.091 3.92-40.636 1.51-14.943 3.21-29.866 4.7-44.809.99-9.912 1.6-19.843 2.63-29.755 1.47-14.122 3.37-28.208 4.7-42.349 1.49-15.986 2.5-32.009 3.82-48.014 1.98-23.886 4.2-47.753 6.03-71.657 1.47-19.265 2.7-38.549 3.67-57.851 1.06-21.371 2.33-42.76 2.41-64.149.17-47.343 1.45-94.723-3.53-141.954-1.51-14.346-1.83-28.842-4.03-43.076-3.37-21.855-7.62-43.561-12.01-65.248-3.88-19.21-9.55-37.86-16.635-56.025-1.269 0-2.556 0-3.824-.02 6.959 17.943 12.329 36.538 16.549 55.542 5.31 23.941 9 48.274 12.4 72.588 2.54 18.278 4.29 36.761 4.89 55.206 1.36 42.033 2.21 84.103 2.46 126.155.13 22.19-1.2 44.417-2.37 66.589-1.33 24.78-3.06 49.523-4.91 74.265-1.82 24.52-3.82 49.02-6.15 73.484-2.09 21.817-4.94 43.56-7.15 65.359-1.54 15.371-2.4 30.798-3.89 46.169-1.27 12.912-3.06 25.786-4.52 38.68-1.42 12.501-2.683 25.04-4.026 37.542-1.53 14.123-3.115 28.246-4.607 42.369-.989 9.297-1.791 18.594-2.779 27.891A19191.612 19191.612 0 0 1 984.89 839c-1.678 15.539-3.45 31.077-5.054 46.616-1.343 13.117-2.779 26.252-3.637 39.406-1.586 24.538 14.455 44.772 39.601 50.995 20.36 5.049 43.1-5.981 55.26-26.066 22.59-37.301 41.22-76.52 56.67-117.193 13.89-36.592 27.97-73.203 39.97-110.448 16.73-51.964 31.84-104.467 47.22-156.859a12995.978 12995.978 0 0 0 43.42-150.898c9.44-33.5 18.54-67.111 27.09-100.834 11.47-45.349 22.62-90.773 33.18-136.346 8.07-34.841 15.48-69.831 22.29-104.933 4.53-23.402 8.6-46.915 12.36-70.465h-3.65ZM286.119 443.302c10.426 7.08 20.666 4.043 28.388-7.062 17.365-24.91 34.842-49.765 51.927-74.861a8797.948 8797.948 0 0 0 62.017-92.45c14.735-22.265 29.041-44.828 43.477-67.298 17.757-27.593 34.749-55.708 53.382-82.706 16.059-23.252 33.349-45.703 51.218-67.632 14.082-17.272 28.724-34.226 44.316-50.157h-4.084c-7.181 7.304-14.306 14.645-21.114 22.284-13.131 14.756-26.187 29.605-38.497 45.051-30.291 38.009-54.986 79.837-81.341 120.528-21.17 32.698-42.041 65.583-63.472 98.095-17.496 26.55-35.513 52.746-53.512 78.961-15.91 23.196-32.044 46.244-48.271 69.217-2.91 4.117-6.323 7.974-12.329 8.011-10.464.075-17.626-6.428-17.738-18.986-.205-23.27.038-46.579 1.306-69.812 1.063-19.638 3.842-39.182 5.875-58.764 1.679-16.154 3.096-32.345 5.129-48.461 2.518-19.917 5.596-39.779 8.394-59.658 2.536-17.887 4.831-35.81 7.61-53.641 2.965-19.041 6.36-38.027 9.568-57.031 4.253-25.116 8.431-50.231 12.795-75.328h-4.066c-1.38 8.869-2.704 17.365-4.122 25.805-2.686 15.967-5.484 31.916-8.3 47.865-.205 1.136-.783 2.198-1.194 3.279v2.46c-1.753 12.017-3.45 24.053-5.278 36.07-1.474 9.819-3.059 19.6-4.663 29.401-.112.726-.746 1.378-1.119 2.068l-5.484 41.623c-1.865 14.272-3.767 28.543-5.577 42.815-1.79 14.086-3.544 28.19-5.166 42.294-1.642 14.309-3.096 28.637-4.701 42.946-.223 1.993-.802 3.95-1.212 5.906-1.212 16.396-2.798 32.773-3.525 49.187-.597 13.471-.149 26.979-.168 40.468v15.949c3.115 4.621 5.241 10.657 9.512 13.564h.019Z" fill="#F8F8F8"/><path d="M1664.99 1.994c-.19 1.677-.37 3.353-.56 5.012-3.08 25.58-6.88 51.069-10.76 76.538-3.86 25.283-7.87 50.529-12.44 75.682-6.44 35.363-12.93 70.725-20.37 105.865-9.51 44.939-19.83 89.692-30.18 134.445-5 21.594-10.82 43.002-16.41 64.447-5.39 20.662-10.8 41.344-16.55 61.913-7.94 28.432-16.04 56.845-24.43 85.146-11.88 40.04-23.58 80.172-36.33 119.932-15.2 47.417-31.39 94.518-47.29 141.693-7.68 22.805-15.31 45.629-23.59 68.211-12.83 35.027-25.78 70.032-39.52 104.732-8.34 21.01-17.8 41.64-27.68 61.96-12.03 24.75-25.05 49.01-37.64 73.47-23.35 45.39-49.48 89.19-78.45 131.18-17.53 25.45-36.56 49.96-56.07 73.95-22.7 27.95-49.24 52.21-79.53 71.66-16.92 10.86-35.49 19.28-53.81 27.78-7.46 3.47-15.57 5.59-24.77 4.21-8.73-1.32-17.98 1.04-27.01 1.42-3.374.15-6.824-.6-10.2-1.12-11.639-1.77-23.259-3.71-34.898-5.4-7.125-1.05-14.641-3.54-21.356-2.2-8.841 1.77-16.544-3.13-25.478-1.33-7.219 1.46-15.388-1.69-23.11-2.94-7.013-1.14-14.231-1.7-20.89-3.91-6.08-2.03-11.844-5.46-17.216-9.08-25.609-17.3-47.077-38.88-65.132-63.92-21.412-29.7-36.744-62.47-48.923-96.79-12.273-34.6-20.741-70.24-27.12-106.31-3.6-20.35-5.633-41.01-7.666-61.6-2.126-21.43-3.898-42.93-4.924-64.43-1.324-27.29-2.667-54.64-2.276-81.94.355-24.78 2.854-49.523 4.738-74.266a1530.813 1530.813 0 0 1 4.887-52.168c2.592-23.401 5.745-46.728 8.356-70.111 1.231-11.104 1.585-22.302 2.686-33.425 1.156-11.514 2.797-22.954 4.159-34.45 1.511-12.893 2.947-25.805 4.402-38.716 1.567-14.123 3.152-28.227 4.644-42.35.616-5.869.951-11.757 1.529-17.625.243-2.404.784-4.77 1.194-7.136l1.231-12.279v-11.048l1.231-3.689v-3.689l1.231-6.149v-8.589l1.231-3.689v-3.689c1.604-19.824 3.208-39.648 4.775-59.472.541-6.894 1.026-13.787 1.343-20.681.877-19.302 1.753-38.623 2.462-57.944.56-15.278.784-30.556 1.306-45.834.13-4.043 1.175-8.086 1.1-12.111-.149-9.148-.746-18.296-1.156-27.425-2.052-2.87-4.104-5.739-6.155-8.59l-3.693-3.689-18.447-2.459-3.693 1.23-2.462 1.229c-2.872 2.46-5.745 4.919-8.599 7.36-3.282 4.099-6.565 8.179-9.829 12.278l-3.693 4.919c-8.188 11.458-16.395 22.917-24.583 34.375-5.335 7.77-10.65 15.557-15.985 23.327-5.334 7.769-10.65 15.557-15.984 23.327-5.335 7.769-10.651 15.557-15.985 23.326a2474.05 2474.05 0 0 1-4.924 7.36c-6.304 9.688-12.385 19.507-18.95 29.009-9.457 13.713-19.23 27.221-28.929 40.785-1.045 1.453-2.5 2.59-3.749 3.875-2.052 2.87-4.104 5.739-6.155 8.589l-3.693 4.919c-4.514 6.149-9.009 12.278-13.523 18.427l-3.693 4.919c-2.462 3.279-4.924 6.539-7.367 9.818l-3.693 4.919-3.694 4.919-4.924 6.148c-2.462 3.28-4.924 6.54-7.367 9.819l-4.924 6.149-4.924 6.148c-1.642 2.05-3.283 4.099-4.924 6.13l-1.231 1.23-4.924 6.148-4.924 6.148c-2.052 2.46-4.104 4.919-6.156 7.36a2367.831 2367.831 0 0 1-6.155 7.359l-1.231 1.23-4.924 6.148-1.231 1.23a20801.25 20801.25 0 0 0-7.367 8.589c-2.873 3.28-5.745 6.54-8.599 9.819l-3.693 3.689c-2.462 2.87-4.924 5.739-7.367 8.589l-3.693 3.689-2.462 2.46-6.155 6.148c-.765 1.379-1.269 3.019-2.351 4.099a1863.846 1863.846 0 0 1-24.284 24.259c-1.082 1.062-2.723 1.583-4.104 2.347l-2.462 2.46-4.924 4.918-1.231 1.23c-2.462 2.05-4.924 4.099-7.367 6.148l-3.693 3.689-6.155 4.919-2.462 2.46-6.156 4.918-1.231 1.23-4.924 3.689-4.924 3.689-1.231 1.23-4.924 3.689-4.924 3.689-6.155 3.689-2.462 2.459c-2.462 1.64-4.924 3.28-7.367 4.919l-1.232 1.23-4.924 2.459-4.924 3.689c-2.462 1.23-4.924 2.46-7.367 3.689l-2.462 2.46c-6.155 3.279-12.292 6.539-18.447 9.818-2.462.82-4.924 1.64-7.367 2.46l-4.924 3.689-6.155 1.23-2.462 2.459c-4.962 1.695-9.867 3.615-14.903 5.031-3.954 1.099-8.095 1.583-12.143 2.347l-2.462 1.23-8.598 1.229-3.693 1.23c-2.873.82-5.745 1.64-8.599 2.46h-7.367c-1.903.409-3.786 1.155-5.689 1.173-9.326.131-18.633.131-27.959 0-1.902-.018-3.786-.764-5.689-1.173-13.597-.336-25.87-5.329-37.695-11.31-26.374-13.34-46.536-34.096-65.84-55.82-25.218-28.395-40.028-61.484-45.306-98.971-.56-4.006-1.567-7.956-2.369-11.924v-7.36l-1.23-6.148v-12.279c-.411-1.919-1.176-3.819-1.176-5.738-.075-34.655-.075-69.31 0-103.965 0-1.919.765-3.819 1.175-5.738v-2.459c0-9.148-.075-18.297.056-27.445.019-1.9.765-3.801 1.175-5.72v-2.459c0-11.402-.056-22.786.056-34.189.019-2.105.765-4.229 1.175-6.335V429.85l1.231-4.919c0-9.558-.074-19.116.056-28.674.019-1.9.765-3.801 1.175-5.72v-2.459c0-11.813-.056-23.606.056-35.419.019-2.105.765-4.229 1.175-6.335v-13.508c0-10.582-.074-21.165.056-31.729.019-2.106.765-4.211 1.175-6.335v-18.427c.82-6.539 1.641-13.098 2.462-19.637v-11.049l1.231-6.148v-8.589l1.231-6.149v-8.589c.82-4.919 1.642-9.819 2.462-14.738v-3.689c.41-2.459.821-4.918 1.231-7.359v-3.689l1.231-6.149v-6.148l1.231-6.149v-3.689c.821-4.508 1.642-8.999 2.462-13.507v-3.69l1.231-6.148v-2.459l1.231-6.149v-3.689c1.231-6.949 2.462-13.918 3.693-20.867v-2.46l1.231-6.148v-3.69c1.642-8.998 3.283-18.016 4.925-27.015v-2.46l4.924-33.145v-2.46l2.462-9.837c-1.25 1.379-3.339 2.59-3.619 4.155-3.618 19.768-7.162 39.555-10.333 59.379-3.73 23.234-7.405 46.486-10.5 69.813-2.575 19.507-4.384 39.145-6.342 58.726-2.127 21.222-4.42 42.425-5.95 63.683-1.343 18.483-1.866 37.021-2.537 55.541-.578 16.116-.82 32.233-1.268 48.33-.784 27.724-1.567 55.448-2.462 83.172-.728 22.414-1.698 44.809-2.406 67.223-.541 16.731-1.362 33.462-1.138 50.175.317 23.643.951 47.305 2.518 70.893 1.026 15.352 3.19 30.705 6.174 45.815 5.017 25.525 15.275 49.038 30.812 69.999 11.658 15.725 23.576 31.338 39.3 43.374 12.758 9.763 25.236 20.104 38.945 28.358 27.959 16.824 59.089 16.097 89.92 12.185 28.798-3.652 55.47-14.291 81.005-28.19 32.678-17.774 61.793-40.337 89.267-65.024 16.992-15.259 32.921-31.767 48.588-48.424 16.899-17.961 33.424-36.313 49.185-55.242 20.051-24.091 40.045-48.312 58.473-73.632 33.555-46.114 65.879-93.121 98.799-139.682 23.874-33.76 47.842-67.465 71.977-101.057 4.831-6.727 12.161-8.925 20.182-7.434 7.983 1.471 13.877 6.483 14.623 14.532.97 10.452.447 21.054.186 31.581-.709 28.133-1.567 56.267-2.462 84.401-.224 6.912-.765 13.806-1.306 20.718-1.566 20.253-3.208 40.505-4.812 60.758-.895 11.347-1.529 22.731-2.648 34.059-1.828 18.575-4.048 37.114-5.932 55.689-1.809 17.775-3.208 35.605-5.11 53.38-1.772 16.545-4.141 33.015-5.931 49.56-1.884 17.365-3.246 34.785-5.074 52.15-2.294 21.799-4.942 43.56-7.218 65.36-2.201 21.202-4.346 42.424-6.118 63.664-1.902 22.898-4.01 45.796-4.793 68.732-.634 18.54.447 37.13 1.044 55.69.634 19.95 1.362 39.91 2.518 59.84.84 14.41 1.94 28.81 3.843 43.1 2.76 20.7 6.285 41.32 9.568 61.95 5.073 31.84 13.448 62.88 23.725 93.36 8.207 24.37 18.447 47.94 31.149 70.45 22.923 40.63 51.982 75.4 92.083 100.27 35.943 22.31 75.54 32.25 117.264 34.04 12.665.54 25.572-1.71 38.198-3.7 36.73-5.78 70-20.63 100.68-41.03 26.9-17.91 51.82-38.46 72.45-63.53 18.74-22.79 37.97-45.34 54.68-69.58 21.3-30.85 40.95-62.91 60.06-95.17 16.94-28.58 32.66-57.92 48.05-87.38 10.56-20.21 20.13-40.97 29.23-61.89 14.3-32.89 28.93-65.72 41.42-99.308 17.91-48.144 34.21-96.903 50.77-145.532 10.63-31.245 20.61-62.695 30.69-94.127 9.56-29.866 19.08-59.77 28.22-89.767 7.53-24.742 14.77-49.578 21.65-74.507 13.11-47.474 26.3-94.947 38.65-142.625 9.68-37.413 18.41-75.067 27.06-112.722 6.6-28.711 12.65-57.553 18.54-86.432 5.15-25.264 9.87-50.603 14.55-75.961 3.13-16.973 6.02-33.984 8.75-51.013 2.91-18.222 5.63-36.5 8.19-54.777 2.36-16.88 4.53-33.798 6.58-50.715.19-1.49.33-3 .52-4.49h-3.77.04ZM46.854 1.64a752.561 752.561 0 0 0-2.183 12.706c-.205 1.211 1.306 2.702 2.033 4.062 1.194-5.59 2.406-11.179 3.6-16.768h-3.45Z" fill="#F8F8F8"/><path d="M50.304 1.658c-1.194 5.59-2.406 11.18-3.6 16.769v2.44l-2.462 9.838c1.623-.969 4.44-1.677 4.7-2.944 1.884-8.664 3.47-17.383 5.111-26.103h-3.749Z" fill="#F8F8F8"/><path d="M1554.81 2.05c-66.26.037-132.53 0-198.82-.056-1.2 8.514-2.43 17.047-3.77 25.544-2.09 13.228-4.74 26.382-7.42 39.499-6.83 33.425-13.64 66.85-20.82 100.2-4.7 21.855-9.7 43.635-15.11 65.323-11.15 44.566-22.38 89.115-34.11 133.532-10.71 40.524-22.01 80.88-33.31 121.236-7.13 25.488-14.65 50.865-22.13 76.241-8.91 30.22-17.77 60.478-27.02 90.587-9.81 31.897-19.36 63.906-30.37 95.412-12.14 34.823-25.27 69.31-38.98 103.555-8.91 22.246-19.08 44.082-29.82 65.527-7.11 14.16-15.58 27.761-24.62 40.803-12.22 17.607-30.57 22.526-50.81 19.936-16.06-2.05-29.303-9.763-37.64-24.37-6.025-10.564-8.226-21.836-6.734-33.928.746-6.037.653-12.185 1.287-18.259a3361.32 3361.32 0 0 1 5.204-47.213c1.231-10.471 2.891-20.904 4.122-31.375 1.604-13.713 2.966-27.445 4.458-41.158 1.455-13.526 3.003-27.034 4.402-40.561 1.063-10.303 1.902-20.625 2.984-30.928 1.418-13.527 3.022-27.016 4.497-40.542 1.4-12.912 2.74-25.843 4.08-38.773 1.98-18.762 4.07-37.524 5.9-56.305 1.1-11.328 1.71-22.711 2.74-34.039 1.49-16.583 3.21-33.146 4.68-49.728.67-7.49.88-15.036 1.46-22.545 1.54-20.047 3.26-40.095 4.73-60.161.67-9.129 1.05-18.296 1.36-27.463.88-25.469 1.76-50.939 2.47-76.427.56-19.991 1.36-40.002 1.12-59.994-.28-24.668-.71-49.373-2.58-73.948-1.66-21.818-5.63-43.449-8.15-65.211-3.15-27.388-9.68-54.05-18.11-80.135-2.798-8.626-6.099-17.103-9.643-25.488C947.885.596 905.452.317 863.02 0c-78.767.54-157.534.932-236.3 1.174a276.19 276.19 0 0 0-3.992 4.099c-18.446 19.265-36.315 39.2-52.878 60.087-18.204 22.935-35.121 46.951-51.684 71.135-12.888 18.818-24.21 38.698-36.52 57.926-12.851 20.085-26.001 39.983-39.15 59.863-18.988 28.749-37.807 57.609-57.224 86.06-23.053 33.797-46.779 67.166-69.981 100.871-6.137 8.906-16.004 9.577-26.411 7.453-9.046-1.863-14.008-9.316-14.754-20.085 0-14.104-.466-28.227.131-42.294.634-15.203 2.35-30.332 3.394-45.517.355-5.086.131-10.21.168-15.315 1.492-13.284 3.04-26.55 4.477-39.853 1.025-9.465 1.828-18.967 2.928-28.432 1.268-11.067 2.667-22.116 4.122-33.164 1.828-13.843 3.6-27.705 5.745-41.511 1.753-11.328 4.047-22.582 6.08-33.854 1.809-12.595 3.544-25.19 5.447-37.766a786.276 786.276 0 0 1 4.476-26.27c.242-1.268 1.548-2.349 2.369-3.504v-2.459c.522-6.689.559-13.47 1.641-20.085 3.078-18.855 6.472-37.673 9.848-56.882l-110.997.056c-53.306.018-106.613 0-159.92-.038-1.623 8.72-3.227 17.44-5.11 26.103-.28 1.267-3.078 1.975-4.701 2.944v2.46c3.618-.261 4.029 1.919 3.507 4.695-1.567 8.533-3.06 17.066-4.906 25.544-.261 1.173-2.313 1.956-3.525 2.906v2.46c.802.95 2.425 1.993 2.313 2.813a381.06 381.06 0 0 1-3.861 22.525c-.15.746-2.201 1.118-3.358 1.677v3.69c.803 1.322 2.052 2.608 2.164 3.987.056.614-2.2 1.434-3.395 2.142v2.46c.803.95 2.388 1.975 2.295 2.813-.579 5.291-1.362 10.564-2.5 15.762-.205.969-2.275 1.547-3.488 2.292v3.689c.802 1.323 2.052 2.608 2.164 3.987.056.615-2.2 1.435-3.395 2.143v2.459c.802 1.323 2.052 2.609 2.164 3.987.056.615-2.2 1.435-3.395 2.143v3.689c4.03 3.782 2.574 11.719-2.462 13.508v3.689c.802 1.323 2.052 2.608 2.164 3.987.056.615-2.201 1.435-3.395 2.143v6.148c.802 1.323 2.052 2.609 2.164 3.987.056.615-2.201 1.435-3.395 2.143v3.689c3.899 3.559 3.526 5.739-1.23 7.36v3.689c3.972 3.651 2.387 13.098-2.463 14.737v8.589c.802 1.323 2.052 2.609 2.164 3.988.056.614-2.201 1.434-3.395 2.142v8.589c.802 1.323 2.052 2.609 2.164 3.988.056.614-2.201 1.434-3.395 2.142v11.049c2.556 2.366 2.07 17.495-.69 19.47-.41.298-1.175.13-1.772.186v13.508l1.231 4.919c0 10.918.112 21.855-.112 32.773-.037 1.788-1.53 3.54-2.35 5.291v11.049l1.231 2.459v40.524l-1.23 3.689v33.145c-.337 2.59 1.36 6.391-3.694 6.149v17.197l1.231 3.689v39.294l-1.23 3.689v31.916l-1.232 3.689v115.423l-1.231 4.919v7.359c1.212.727 3.45 1.528 3.395 2.143-.112 1.378-1.38 2.664-2.164 3.987v7.359c4.663-.559 3.973 3.559 4.532 5.832 2.76 11.198 4.757 22.6 7.722 33.742 4.924 18.52 14.157 35.046 24.807 50.846 11.714 17.401 26.3 32.307 41.706 46.262 18.353 16.619 38.422 30.891 63.323 36.592 3.152.727 6.117 2.329 9.158 3.54 11.004 0 22.009-.056 32.995.056 2.107.019 4.234.764 6.341 1.174h7.368c1.622-4.695 5.39-5.757 8.598-2.46l3.693-1.229c3.488-3.82 5.782-4.136 8.599-1.23l2.462-1.23c1.287-1.043 2.424-2.459 3.898-3.092a4115.253 4115.253 0 0 1 44.727-18.688c1.25-.522 2.816-.223 4.234-.317l2.462-1.229c2.63-2.013 5.167-4.192 7.908-6.037 7.275-4.863 14.586-9.67 22.009-14.29 1.642-1.025 3.805-1.211 5.727-1.789 2.872-2.05 5.744-4.099 8.598-6.148l4.924-3.689 4.924-3.69 6.155-4.918 12.292-9.819 8.598-7.36c1.791-4.564 4.533-8.048 9.83-8.589l1.231-1.229c3.562-5.981 7.498-11.552 14.753-13.508 6.566-6.54 13.113-13.098 19.678-19.638l3.693-3.689 1.231-1.23c2.705-8.161 9.158-12.856 15.985-17.197l2.462-2.459c.559-5.292 4.029-8.03 8.598-9.819l2.462-2.459c2.052-2.46 4.104-4.919 6.155-7.36l2.462-2.459c2.052-2.46 4.104-4.919 6.156-7.36 2.051-2.459 4.103-4.919 6.155-7.359l1.231-1.23 4.924-6.148 1.231-1.23 4.924-6.149 1.231-1.229 3.693-4.919c2.052-2.459 4.103-4.919 6.155-7.359l4.924-6.149 4.924-6.148 4.924-6.149 3.693-4.918 3.693-4.919 4.924-6.149 3.693-4.918 3.694-4.919 3.693-3.689v-1.23l3.693-3.689v-1.23l3.693-3.689v-1.229l3.693-3.689v-1.23l3.693-3.689 2.462-4.919 3.693-3.689v-1.23l3.693-3.689v-1.229l2.462-3.689 3.693-3.689 2.462-4.919 3.693-3.689 2.462-4.919 3.693-3.689 2.462-4.919 3.693-3.689 1.231-3.689 2.462-2.459 1.231-2.46 2.463-3.689 3.693-3.689v-1.229l2.462-3.69 2.462-3.689 2.462-3.689 3.693-3.689a3327.12 3327.12 0 0 1 4.924-8.589l2.462-3.689 3.693-3.689 1.231-3.689 3.693-3.689 2.462-4.919c-.205-.596-.392-1.211-.597-1.807.597.205 1.212.391 1.809.596l1.231-2.459 2.462-3.689 2.462-3.689 2.462-3.689 3.694-3.689c2.462-4.099 4.924-8.18 7.367-12.279l2.462-3.689 2.462-3.689 3.693-3.689 2.462-4.919c-.205-.596-.391-1.211-.597-1.807.597.205 1.213.391 1.81.596l3.693-6.148 2.462-3.689 2.462-3.689 3.693-3.689 2.462-4.919 3.693-3.689 2.462-4.919 2.462-3.689 2.462-3.689 2.462-2.459 1.231-2.46 3.693-3.689v-1.229l3.693-3.69v-1.229l3.693-3.689v-1.23l2.462-2.459 2.462-3.689 2.462-2.46h2.462l3.693-6.148.989-2.907c.895.559 1.809 1.118 2.704 1.677h1.231l2.462-1.23v-1.229c-.205-.596-.391-1.211-.596-1.808l1.809.597 2.462 1.229 18.447 2.46c.503-.634 1.007-1.267 1.51-1.919.317.633.634 1.267.952 1.919h1.231c5.222 2.441 8.057 6.558 8.598 12.278 0 25.861.466 51.721-.149 77.545-.522 21.519-2.033 43.039-3.619 64.521-1.697 23.066-4.028 46.076-5.968 69.123-.336 4.062-.075 8.179-.093 12.26l-1.231 3.689-2.462 3.689v4.919l1.231 3.689-2.463 6.148v3.689c.747.708 1.474 1.435 2.22 2.143-1.156.522-2.294 1.025-3.451 1.546v8.589c.635.504 1.269 1.007 1.922 1.51-.635.316-1.269.633-1.922.95l-1.231 12.278c.765.764 2.239 1.602 2.164 2.273-1.343 11.477-3.059 22.917-4.309 34.394-1.156 10.508-1.715 21.072-2.797 31.581-1.38 13.526-3.041 27.015-4.514 40.523-1.399 12.707-2.667 25.451-4.066 38.158-1.492 13.508-3.115 27.016-4.57 40.524-1.044 9.688-1.809 19.414-2.816 29.121-1.511 14.532-3.19 29.047-4.645 43.579a1121.837 1121.837 0 0 0-2.704 31.581c-1.735 24.538-4.01 49.075-4.775 73.65-.821 26.273-.392 52.583 0 78.873.187 13 1.213 26 2.388 38.97 1.287 14.14 3.058 28.25 4.83 42.33 1.884 14.89 3.6 29.83 6.137 44.61a978.524 978.524 0 0 0 9.96 50.17c8.486 37.68 20.591 74.21 37.509 108.96 13.056 26.83 29.208 51.65 49.147 74.14 15.351 17.3 32.883 31.71 52.636 43.28 7.927 4.64 17.719 5.29 27.101 3.76 4.29-.69 7.554-1.42 11.582 2.35 2.63 2.44 8.524 1.58 12.963 1.75 2.537.09 5.204-1.34 7.648-.97 9.344 1.42 18.614 3.35 27.94 4.94 2.108.35 4.346-.13 6.491.11 6.155.65 12.291 1.56 18.446 2.2 12.012 1.25 24.024 2.38 36.037 3.57 3.43.34 6.86 1.05 10.29.99 3.16-.05 6.27-1.26 9.42-1.3 4.26-.08 8.53.41 12.8.76 9.47.8 17.77-3.54 25.44-7.6 17.74-9.41 35.31-19.4 51.91-30.69 25.07-17.03 46.24-38.56 66.3-61.18 32.61-36.74 59.69-77.47 85.3-119.15 18.56-30.22 35.96-61.22 52.52-92.58 17.52-33.15 33.97-66.87 49.88-100.82 10.37-22.13 19.3-44.96 28.24-67.74 7.63-19.509 14.36-39.37 21.43-59.082 10.52-29.327 21.17-58.616 31.43-88.035 6.41-18.445 12.19-37.114 18.28-55.69 8.24-25.152 16.73-50.212 24.69-75.458 8.82-27.966 17.29-56.044 25.66-84.159 10.3-34.524 20.62-69.048 30.39-103.703 6.9-24.445 13.05-49.113 19.34-73.744 9.05-35.419 18.17-70.837 26.73-106.368 6.23-25.861 11.75-51.907 17.36-77.917 5.32-24.594 10.73-49.169 15.41-73.893 5.91-31.301 11.19-62.733 16.56-94.127 3.36-19.6 6.74-39.201 9.5-58.876 2.44-17.309 4.12-34.748 6.15-52.113-35.66.02-71.32.038-107 .056l-.27.298Z" fill="#F8F8F8"/><path d="M1353.26 1.975c-3.76 23.55-7.83 47.063-12.36 70.465-6.81 35.102-14.22 70.11-22.29 104.933-10.56 45.573-21.71 90.997-33.18 136.346-8.53 33.742-17.65 67.335-27.09 100.834a13837.055 13837.055 0 0 1-43.42 150.898c-15.4 52.392-30.49 104.895-47.22 156.859-12 37.245-26.08 73.837-39.97 110.448-15.45 40.673-34.08 79.893-56.67 117.193-12.16 20.085-34.88 31.115-55.26 26.066-25.146-6.223-41.187-26.476-39.602-50.995.858-13.154 2.295-26.289 3.637-39.406 1.586-15.557 3.376-31.077 5.055-46.616 2.015-18.762 4.029-37.524 5.987-56.305.97-9.297 1.791-18.594 2.779-27.891 1.493-14.123 3.078-28.246 4.607-42.369 1.362-12.52 2.627-25.041 4.027-37.542 1.46-12.893 3.27-25.768 4.52-38.68 1.49-15.371 2.35-30.798 3.89-46.169 2.21-21.799 5.04-43.542 7.15-65.359 2.35-24.464 4.33-48.983 6.15-73.483 1.85-24.743 3.58-49.486 4.91-74.266 1.17-22.19 2.5-44.399 2.37-66.589-.25-42.052-1.1-84.122-2.46-126.155-.6-18.445-2.34-36.928-4.89-55.205-3.38-24.296-7.09-48.648-12.41-72.59-4.21-19.003-9.58-37.616-16.539-55.54-1.548 0-3.096-.019-4.626-.019 3.544 8.385 6.864 16.862 9.643 25.488 8.432 26.085 14.962 52.747 18.112 80.135 2.5 21.762 6.47 43.393 8.15 65.211 1.86 24.575 2.29 49.28 2.57 73.948.23 19.992-.57 40.002-1.12 59.994-.7 25.47-1.56 50.958-2.46 76.427-.31 9.167-.69 18.315-1.36 27.463-1.47 20.066-3.19 40.095-4.74 60.161-.57 7.509-.8 15.036-1.45 22.545-1.47 16.582-3.19 33.145-4.68 49.728-1.01 11.346-1.64 22.711-2.74 34.039-1.83 18.781-3.92 37.543-5.9 56.305-1.36 12.93-2.68 25.842-4.08 38.772-1.477 13.508-3.062 27.016-4.499 40.543-1.081 10.303-1.921 20.625-2.984 30.928-1.399 13.527-2.947 27.035-4.402 40.561-1.492 13.713-2.853 27.463-4.457 41.158-1.231 10.471-2.892 20.904-4.123 31.375a3346.436 3346.436 0 0 0-5.203 47.213c-.635 6.055-.541 12.203-1.287 18.259-1.492 12.11.708 23.364 6.733 33.928 8.337 14.607 21.562 22.32 37.642 24.37 20.23 2.59 38.59-2.311 50.8-19.936 9.05-13.023 17.52-26.624 24.63-40.803 10.74-21.445 20.9-43.263 29.82-65.527 13.73-34.227 26.84-68.732 38.98-103.555 10.99-31.506 20.54-63.515 30.37-95.412 9.27-30.128 18.13-60.367 27.02-90.587 7.48-25.376 15-50.753 22.12-76.241 11.29-40.356 22.59-80.731 33.32-121.236 11.75-44.417 22.98-88.966 34.11-133.532 5.43-21.688 10.43-43.468 15.11-65.323 7.16-33.35 13.97-66.775 20.81-100.2 2.69-13.136 5.34-26.271 7.43-39.5 1.34-8.495 2.57-17.01 3.77-25.543h-2.75v-.02ZM620.844 1.155c-15.593 15.93-30.234 32.866-44.316 50.157-17.85 21.91-35.159 44.38-51.218 67.632-18.633 26.997-35.625 55.112-53.382 82.706-14.436 22.47-28.742 45.032-43.477 67.297-20.48 30.947-41.127 61.783-62.017 92.45-17.085 25.116-34.562 49.952-51.927 74.862-7.74 11.104-17.962 14.141-28.388 7.061-4.271-2.906-6.416-8.943-9.512-13.563l-2.462-1.23c.746 10.769 5.707 18.24 14.753 20.085 10.408 2.124 20.293 1.453 26.411-7.453 23.203-33.704 46.928-67.074 69.982-100.871 19.416-28.451 38.217-57.311 57.223-86.06 13.15-19.898 26.281-39.797 39.15-59.863 12.311-19.228 23.632-39.108 36.521-57.926 16.562-24.165 33.48-48.181 51.684-71.135 16.563-20.886 34.431-40.822 52.878-60.087 1.324-1.379 2.667-2.739 3.991-4.1h-5.894v.038Z" fill="#F8F8F8"/><path d="M1661.82 1.994c-2.05 17.364-3.73 34.803-6.15 52.112-2.76 19.675-6.14 39.294-9.5 58.876-5.39 31.394-10.67 62.826-16.56 94.127-4.66 24.724-10.09 49.299-15.41 73.893-5.61 26.01-11.11 52.057-17.36 77.917-8.56 35.531-17.7 70.949-26.73 106.368-6.29 24.631-12.44 49.299-19.34 73.744-9.79 34.673-20.09 69.179-30.39 103.704-8.37 28.096-16.84 56.192-25.66 84.158-7.97 25.228-16.45 50.306-24.7 75.458-6.08 18.558-11.86 37.245-18.27 55.69-10.24 29.42-20.91 58.708-31.43 88.035-7.07 19.712-13.81 39.573-21.43 59.084-8.92 22.76-17.87 45.61-28.24 67.74-15.91 33.95-32.36 67.67-49.88 100.82-16.58 31.35-33.96 62.36-52.52 92.58-25.59 41.66-52.67 82.4-85.3 119.15-20.08 22.61-41.25 44.15-66.3 61.18-16.6 11.29-34.17 21.26-51.91 30.69-7.67 4.08-15.97 8.4-25.44 7.6-4.25-.35-8.53-.84-12.8-.76-3.15.05-6.26 1.26-9.42 1.3-3.43.06-6.86-.65-10.29-.99-12.014-1.19-24.025-2.33-36.037-3.57-6.155-.64-12.292-1.55-18.447-2.2-2.145-.23-4.383.26-6.491-.11-9.326-1.59-18.596-3.53-27.94-4.94-2.443-.37-5.111 1.06-7.647.97-4.439-.17-10.352.69-12.963-1.75-4.048-3.75-7.293-3.04-11.583-2.35-9.382 1.53-19.174.89-27.101-3.77-19.752-11.57-37.285-25.97-52.636-43.28-19.938-22.49-36.091-47.3-49.147-74.13-16.917-34.75-29.022-71.29-37.509-108.96a974.27 974.27 0 0 1-9.96-50.17c-2.537-14.8-4.253-29.72-6.136-44.61-1.772-14.08-3.544-28.19-4.831-42.33-1.175-12.97-2.201-25.97-2.388-38.98-.373-26.29-.802-52.59 0-78.864.765-24.576 3.059-49.113 4.775-73.651.746-10.546 1.66-21.073 2.705-31.581 1.455-14.532 3.133-29.046 4.644-43.579 1.007-9.707 1.772-19.414 2.816-29.121 1.455-13.508 3.078-27.016 4.57-40.524 1.399-12.707 2.667-25.432 4.066-38.158 1.474-13.507 3.134-27.015 4.514-40.523 1.082-10.508 1.641-21.073 2.798-31.581 1.268-11.477 2.965-22.917 4.308-34.394.075-.67-1.399-1.509-2.163-2.273-.411 2.385-.97 4.751-1.194 7.136-.578 5.869-.914 11.757-1.529 17.626-1.493 14.122-3.078 28.245-4.645 42.349-1.436 12.912-2.872 25.824-4.402 38.717-1.343 11.495-3.002 22.935-4.159 34.45-1.119 11.123-1.455 22.32-2.686 33.425-2.611 23.382-5.763 46.728-8.356 70.11a1524.374 1524.374 0 0 0-4.887 52.169c-1.883 24.743-4.383 49.485-4.737 74.265-.392 27.292.951 54.642 2.275 81.942 1.045 21.5 2.798 43 4.925 64.43 2.033 20.59 4.066 41.25 7.665 61.59 6.379 36.08 14.847 71.72 27.12 106.32 12.161 34.32 27.512 67.09 48.924 96.79 18.055 25.04 39.504 46.61 65.132 63.92 5.353 3.62 11.135 7.06 17.216 9.08 6.658 2.21 13.895 2.77 20.889 3.91 7.722 1.25 15.892 4.4 23.11 2.94 8.934-1.8 16.637 3.1 25.478 1.33 6.696-1.35 14.232 1.15 21.357 2.19 11.638 1.7 23.259 3.64 34.897 5.41 3.376.52 6.827 1.25 10.2 1.12 9.03-.4 18.28-2.74 27.01-1.42 9.2 1.38 17.31-.75 24.77-4.21 18.32-8.5 36.89-16.92 53.81-27.78 30.31-19.43 56.85-43.71 79.53-71.66 19.49-24 38.52-48.5 56.07-73.95 28.95-41.99 55.08-85.8 78.45-131.18 12.59-24.47 25.61-48.74 37.64-73.47 9.88-20.34 19.34-40.95 27.68-61.97 13.76-34.67 26.69-69.678 39.52-104.724 8.28-22.581 15.91-45.405 23.6-68.21 15.89-47.194 32.06-94.295 47.28-141.694 12.76-39.778 24.45-79.892 36.33-119.931 8.39-28.302 16.49-56.715 24.44-85.147 5.74-20.569 11.15-41.25 16.54-61.913 5.59-21.444 11.41-42.852 16.41-64.446 10.35-44.753 20.67-89.525 30.18-134.446 7.44-35.158 13.93-70.52 20.37-105.865 4.59-25.152 8.58-50.417 12.44-75.681 3.88-25.47 7.68-50.958 10.76-76.539.21-1.677.38-3.354.56-5.012h-3.17v-.018ZM7.368 670.402c4.663-.559 3.973 3.559 4.533 5.832 2.76 11.198 4.756 22.6 7.721 33.742 4.925 18.52 14.157 35.046 24.807 50.846 11.714 17.402 26.3 32.307 41.706 46.262 18.353 16.638 38.422 30.891 63.323 36.592 3.152.727 6.117 2.329 9.158 3.54v1.23c-13.598-.335-25.87-5.329-37.696-11.309-26.373-13.341-46.536-34.096-65.84-55.821-25.218-28.394-40.027-61.484-45.306-98.971-.56-4.006-1.566-7.955-2.369-11.924l-.037-.019ZM746.222 343.79c0 25.861.467 51.722-.149 77.545-.522 21.52-2.033 43.039-3.618 64.521-1.698 23.066-4.029 46.076-5.969 69.124-.336 4.061-.075 8.179-.093 12.259h-2.462c1.604-19.824 3.208-39.648 4.775-59.472.54-6.894 1.025-13.787 1.342-20.681.877-19.302 1.754-38.623 2.463-57.944.559-15.278.783-30.556 1.305-45.834.131-4.043 1.175-8.086 1.101-12.111-.15-9.148-.747-18.296-1.157-27.425h2.462v.018ZM277.838 325.382c1.492-13.284 3.04-26.55 4.476-39.853 1.026-9.465 1.828-18.967 2.929-28.432 1.268-11.067 2.667-22.115 4.122-33.164 1.828-13.843 3.6-27.705 5.745-41.511 1.753-11.328 4.047-22.582 6.08-33.854h1.231l-5.484 41.623c-1.865 14.272-3.767 28.544-5.576 42.816-1.791 14.085-3.544 28.189-5.167 42.294-1.641 14.309-3.096 28.636-4.7 42.945-.224 1.994-.802 3.95-1.213 5.907l-2.462 1.229h.019ZM324.971 1.62c-3.376 19.191-6.789 38.028-9.848 56.883-1.082 6.614-1.119 13.378-1.642 20.085.411-1.1 1.008-2.161 1.194-3.28 2.798-15.948 5.614-31.897 8.3-47.864 1.418-8.459 2.742-16.936 4.122-25.805h-2.107l-.019-.018ZM7.368 529.193v115.423h-1.23c-.411-1.919-1.176-3.819-1.176-5.738-.074-34.655-.074-69.31 0-103.965 0-1.919.765-3.819 1.175-5.738h1.231v.018ZM277.838 325.382l2.462-1.229c-1.212 16.395-2.798 32.773-3.525 49.187-.597 13.471-.149 26.979-.168 40.468v15.949l-2.462-1.23c0-14.104-.466-28.227.131-42.294.634-15.203 2.35-30.332 3.394-45.517.355-5.086.131-10.21.168-15.315v-.019ZM558.137 539.031l2.462-4.919 3.693-3.689 2.462-4.919 3.693-3.689 2.462-4.918 3.693-3.689 1.231-3.689 2.462-2.46 1.231-2.459 2.462-3.689 3.693-3.689v-1.23l2.462-3.689 2.462-3.689 2.462-3.689 3.693-3.689c1.642-2.87 3.283-5.739 4.924-8.589l2.462-3.69 3.694-1.229c-6.305 9.688-12.385 19.507-18.951 29.009-9.456 13.713-19.23 27.221-28.929 40.785-1.044 1.453-2.499 2.59-3.749 3.875v-2.459l-.074.093ZM228.653 842.298c1.287-1.044 2.425-2.46 3.899-3.093a4115.253 4115.253 0 0 1 44.727-18.688c1.249-.521 2.816-.223 4.234-.316l-4.924 4.918c-2.462.82-4.925 1.64-7.368 2.46a15766.56 15766.56 0 0 0-4.924 3.689l-6.155 1.23-2.462 2.459c-4.961 1.695-9.867 3.614-14.903 5.03-3.954 1.1-8.095 1.584-12.142 2.348l.018-.037Z" fill="#F8F8F8"/><path d="M302.42 148.568h-1.231c1.81-12.595 3.544-25.19 5.447-37.766a789.27 789.27 0 0 1 4.476-26.27c.243-1.267 1.548-2.348 2.369-3.503-1.753 12.017-3.451 24.053-5.278 36.071-1.474 9.818-3.059 19.6-4.663 29.4-.112.727-.747 1.379-1.12 2.068ZM44.242 33.146c3.619-.261 4.03 1.919 3.507 4.695-1.567 8.533-3.059 17.066-4.906 25.544-.26 1.174-2.312 1.956-3.525 2.906l4.924-33.145ZM390.924 737.942c6.565-6.54 13.112-13.098 19.677-19.638l3.694-3.689 1.231-1.23 3.693-1.229c-.765 1.379-1.269 3.018-2.351 4.099a1870.048 1870.048 0 0 1-24.284 24.258c-1.082 1.062-2.723 1.584-4.104 2.348l2.462-4.919h-.018ZM283.974 818.971c2.63-2.013 5.166-4.192 7.908-6.037 7.274-4.863 14.586-9.67 22.009-14.29 1.642-1.025 3.805-1.211 5.726-1.789l-3.693 4.919-1.231 1.229-4.924 2.46a15766.56 15766.56 0 0 0-4.924 3.689l-7.367 3.689-2.462 2.459c-3.693 1.23-7.368 2.46-11.061 3.689l.019-.018ZM13.504 346.25v40.523l-2.462 1.23c0-11.812-.056-23.606.056-35.419.019-2.105.765-4.229 1.175-6.334h1.231ZM9.83 450.624v39.294l-2.463 1.23c0-11.403-.055-22.787.056-34.189.02-2.106.765-4.23 1.176-6.335h1.23ZM158.578 848.446v-1.23c11.005 0 22.009-.056 32.995.056 2.108.019 4.234.764 6.342 1.174-1.903.41-3.787 1.155-5.689 1.174-9.326.13-18.633.13-27.959 0-1.903-.019-3.786-.764-5.689-1.174ZM662.624 388.003l2.462-4.919 3.693-3.689 2.462-4.918 2.462-3.69 2.462-3.689 2.462-2.459 1.231-2.459 3.693-3.689v-1.23l3.693-1.23c-8.188 11.459-16.394 22.917-24.583 34.376v-2.46l-.037.056ZM14.735 294.677c0 10.919.112 21.855-.112 32.774-.037 1.788-1.53 3.54-2.35 5.291 0-10.583-.074-21.166.056-31.73.019-2.105.765-4.211 1.175-6.335h1.231ZM39.319 68.77c.801.95 2.424 1.993 2.312 2.813a381.05 381.05 0 0 1-3.86 22.525c-.15.745-2.202 1.118-3.358 1.677l4.924-27.016h-.019Z" fill="#F8F8F8"/><path d="m419.2 712.156-3.693 1.229c2.704-8.16 9.158-12.855 15.984-17.197v3.689l-3.693 3.69-2.462 2.459-6.155 6.148.019-.018ZM12.273 390.462v33.146l-2.462 1.23c0-9.558-.074-19.116.056-28.674.019-1.901.765-3.801 1.175-5.72h1.231v.018ZM8.598 493.588v31.916l-2.462 1.23c0-9.148-.074-18.296.056-27.444.02-1.901.765-3.801 1.175-5.72h1.231v.018ZM33.182 108.045c.802.95 2.388 1.975 2.294 2.813-.578 5.291-1.361 10.564-2.499 15.762-.205.969-2.275 1.547-3.488 2.292 1.231-6.95 2.462-13.918 3.693-20.867ZM618.364 451.854l1.231-2.46 2.462-3.689 2.462-3.689 2.462-3.689 3.693-1.23c-5.334 7.77-10.65 15.558-15.985 23.327v-2.459l2.463-4.919 1.23-1.23-.018.038ZM630.655 434.657c2.462-4.099 4.924-8.18 7.368-12.279l2.462-3.689 2.462-3.689 3.693-1.229c-5.335 7.769-10.65 15.557-15.985 23.326v-2.459.019ZM650.333 405.182l3.693-6.149 2.462-3.689 2.462-3.689 3.693-1.23c-5.335 7.77-10.65 15.558-15.985 23.327v-2.459l2.462-4.919 1.231-1.23-.018.038ZM390.924 737.942l-2.462 4.919L386 745.32l-4.925 4.919-1.231 1.229h-3.693c3.563-5.98 7.498-11.551 14.754-13.507l.019-.019ZM15.967 256.613c2.555 2.366 2.07 17.495-.69 19.47-.41.298-1.175.13-1.772.186.82-6.539 1.641-13.098 2.462-19.637v-.019ZM746.222 343.79h-2.462a3549.737 3549.737 0 0 0-6.156-8.589v-3.689c5.223 2.441 8.058 6.559 8.599 12.278h.019ZM534.767 570.947v-1.23l3.693-3.689v-1.23l3.693-3.689 2.462-4.918 3.693-1.23c-4.514 6.148-9.009 12.278-13.523 18.427v-2.46l-.018.019ZM20.89 201.37c3.974 3.652 2.388 13.098-2.461 14.738.82-4.919 1.641-9.819 2.462-14.738ZM27.026 151.028c4.03 3.782 2.574 11.719-2.462 13.508.821-4.509 1.642-8.999 2.462-13.508ZM283.974 818.971c3.693-1.23 7.367-2.46 11.061-3.689-6.156 3.279-12.292 6.539-18.447 9.819l4.924-4.919 2.462-1.23v.019ZM344.22 778.447l12.291-9.819-2.462 4.919-1.231 1.23-4.924 3.689h-3.693l.019-.019ZM365.109 761.269c1.791-4.565 4.533-8.049 9.83-8.589l-2.462 4.918-3.693 3.689h-3.693l.018-.018ZM433.953 693.729c.56-5.291 4.029-8.03 8.599-9.819v3.689l-3.693 3.69-4.924 2.459.018-.019ZM698.286 338.89h2.462c-3.282 4.099-6.565 8.179-9.829 12.278v-3.689l2.462-2.459 2.462-3.689 2.462-2.459-.019.018Z" fill="#F8F8F8"/><path d="m356.511 768.628 8.598-7.359-2.462 4.919-2.462 2.459h-3.693l.019-.019ZM442.57 687.599v-3.689l2.462-2.459 6.155-3.689c-2.872 3.279-5.744 6.54-8.598 9.819l-.019.018ZM511.414 604.093c-2.462 3.279-4.924 6.539-7.367 9.818v-3.689l3.693-4.918 3.693-1.23-.019.019ZM205.301 848.446c1.622-4.695 5.39-5.757 8.598-2.459-2.872.819-5.744 1.639-8.598 2.459ZM451.169 674.092l2.462-2.46 4.924-2.459c-2.462 2.869-4.924 5.738-7.367 8.589v-3.689l-.019.019ZM433.953 693.729l4.924-2.459c-2.462 2.869-4.924 5.738-7.367 8.589v-3.689l2.462-2.459-.019.018ZM483.139 636.027c2.051-2.459 4.103-4.919 6.155-7.359v3.689l-1.231 1.229-4.924 2.46v-.019ZM458.555 669.173l-4.924 2.459c2.052-2.459 4.103-4.919 6.155-7.359v3.689l-1.231 1.229v-.018ZM459.786 664.273c2.052-2.46 4.104-4.919 6.155-7.36v3.689l-1.231 1.23-4.924 2.459v-.018ZM708.117 331.512h1.231c-2.873 2.459-5.745 4.919-8.599 7.36l3.693-6.149 3.693-1.23-.018.019ZM527.399 580.766v-1.23l3.693-1.23c-2.462 3.28-4.924 6.54-7.367 9.819v-3.689l3.693-3.689-.019.019ZM217.593 844.757c3.488-3.82 5.782-4.136 8.598-1.23-2.872.41-5.745.82-8.598 1.23ZM551.982 547.62v-1.23l2.462-3.689 3.693-1.229a3294.334 3294.334 0 0 1-6.155 8.589v-2.46.019ZM22.122 190.322c3.898 3.558 3.525 5.738-1.231 7.359.41-2.459.82-4.918 1.23-7.359ZM472.078 649.535l1.231-1.23 4.924-2.459c-2.052 2.459-4.103 4.919-6.155 7.359v-3.689.019Z" fill="#F8F8F8"/><path d="M465.923 660.584v-3.689l1.231-1.23 4.924-2.459c-2.052 2.459-4.103 4.918-6.155 7.359v.019ZM372.496 757.58l2.462-4.919 1.231-1.23h3.693c-2.462 2.05-4.924 4.099-7.367 6.149h-.019ZM338.064 783.366l6.156-4.919-1.231 3.689-1.231 1.23h-3.694ZM23.352 180.503c.802 1.323 2.052 2.608 2.164 3.987.056.615-2.201 1.435-3.395 2.143l1.231-6.149v.019ZM18.428 224.697c.802 1.323 2.052 2.609 2.164 3.987.056.615-2.201 1.435-3.395 2.143l1.231-6.149v.019ZM17.198 239.435c.802 1.323 2.052 2.608 2.163 3.987.056.615-2.2 1.434-3.394 2.142l1.23-6.148v.019ZM6.137 656.895c1.212.726 3.45 1.527 3.394 2.142-.112 1.379-1.38 2.665-2.163 3.987l-1.231-6.148v.019ZM28.258 141.209c.802 1.323 2.052 2.608 2.164 3.987.056.615-2.2 1.435-3.395 2.143l1.231-6.149v.019ZM34.413 99.456c.802 1.322 2.051 2.608 2.163 3.987.056.615-2.2 1.434-3.394 2.142l1.23-6.148v.019ZM29.489 132.601c.802 1.323 2.052 2.609 2.163 3.987.056.615-2.2 1.435-3.394 2.143l1.23-6.148v.018ZM24.565 168.225c.802 1.323 2.052 2.608 2.164 3.987.056.615-2.201 1.434-3.395 2.142l1.231-6.148v.019ZM609.766 465.362l1.231-3.689 3.693-1.23c-1.642 2.459-3.283 4.919-4.924 7.359v-2.459.019ZM9.83 424.838l2.462-1.23c-.336 2.59 1.361 6.391-3.693 6.149l1.23-4.919ZM315.943 801.792l3.693-4.918h3.693a2479.156 2479.156 0 0 0-7.367 4.918h-.019ZM459.786 664.273l4.924-2.46-4.924 6.149v-3.689ZM478.214 642.157l1.231-1.23 3.693-1.229-4.924 6.148v-3.689ZM483.139 636.027l4.924-2.459-4.924 6.148v-3.689ZM489.293 632.338v-3.689l4.924-2.459-4.924 6.148Z" fill="#F8F8F8"/><path d="m499.122 620.06-4.924 6.148v-3.689l4.924-2.459Z" fill="#F8F8F8"/><path d="m504.029 613.93-4.925 6.149v-3.689l4.925-2.46ZM362.647 766.169l2.462-4.919h3.694l-6.156 4.919ZM516.338 597.963l-4.924 6.148v-3.689l4.924-2.459ZM356.511 768.628h3.693l-6.155 4.919 2.462-4.919ZM733.931 583.225l-2.462 6.149 1.231-6.149h1.231ZM331.928 790.725l-6.156 3.689 2.463-3.689h3.693ZM531.092 575.866v-1.23l3.693-1.23-3.693 4.919v-2.459ZM14.736 294.678h-1.231v-4.919l1.23 4.919ZM342.988 782.136l1.231-3.689h3.693l-4.924 3.689ZM523.706 588.144l-3.693 4.919v-3.69l3.693-1.229ZM520.012 593.044l-3.693 4.919v-3.689l3.693-1.23ZM731.468 593.044c.746.708 1.474 1.435 2.22 2.143-1.157.521-2.294 1.024-3.451 1.546l1.231-3.689ZM548.289 552.539v-1.23l3.693-1.229-3.693 4.918v-2.459ZM6.137 644.616h1.23l-1.23 4.919v-4.919ZM687.208 353.628v-1.23l3.693-1.23-3.693 4.919v-2.459Z" fill="#F8F8F8"/><path d="m336.833 787.055-4.924 3.689 1.231-3.689h3.693ZM338.064 783.366h3.693l-4.924 3.689 1.231-3.689ZM737.624 331.512v3.689a12837.39 12837.39 0 0 1-3.693-3.689h3.693ZM733.931 567.258h2.462l-1.231 3.689h-1.231v-3.689ZM733.93 583.225h-1.231v-3.689l1.231 3.689ZM733.93 570.947h1.231l-2.462 3.689 1.231-3.689ZM9.83 450.624H8.599v-3.689l1.23 3.689ZM8.6 493.588H7.367v-2.459l2.462-1.23-1.23 3.689ZM6.137 526.753l2.462-1.23-1.231 3.689H6.137v-2.459ZM711.81 330.282v-1.229l1.231-1.23 2.462 1.23-3.693 1.229ZM12.273 390.462h-1.231v-2.459l2.462-1.23-1.231 3.689ZM730.237 605.322c.634.503 1.269 1.006 1.921 1.509-.634.317-1.268.634-1.921.951v-2.46ZM13.505 346.25h-1.232v-2.459l1.232 2.459ZM325.773 794.414l-2.462 2.46h-3.693c2.873-2.05 5.745-4.099 8.599-6.149l-2.462 3.689h.018ZM451.169 674.091v3.689l-6.155 3.689c2.051-2.459 4.103-4.918 6.155-7.359v-.019ZM478.214 642.157v3.689l-4.924 2.459 4.924-6.148ZM494.199 622.519v3.689l-4.925 2.46 4.925-6.149ZM499.122 616.371v3.689l-4.924 2.459 4.924-6.148Z" fill="#F8F8F8"/><path d="m504.029 613.93-4.925 2.459 4.925-6.148v3.689ZM516.338 594.274v3.689l-4.924 2.459 4.924-6.148ZM472.077 653.205l-4.924 2.46 4.924-6.149v3.689ZM338.065 783.366l-1.231 3.689h-3.693l4.924-3.689ZM483.138 636.027v3.689l-3.693 1.23 3.693-4.919ZM333.159 787.055l-1.231 3.689h-3.693l4.924-3.689ZM511.415 600.422v3.689l-3.693 1.23 3.693-4.919ZM520.012 593.044l-3.693 1.23 3.693-4.919v3.689ZM523.706 588.144l-3.693 1.23 3.693-4.919v3.689ZM708.116 331.512l-3.693 1.23c.336-.969.653-1.938.988-2.907.896.559 1.81 1.118 2.705 1.677ZM531.092 575.866v2.459l-3.694 1.23 3.694-3.689ZM534.766 573.406l-3.693 1.23 3.693-3.689v2.459ZM609.765 465.362v2.459l-3.693 1.23 3.693-3.689ZM548.289 552.539v2.459l-3.693 1.23 3.693-3.689ZM551.982 550.08l-3.693 1.229 3.693-3.689v2.46ZM558.137 541.472l-3.693 1.229 3.693-3.689v2.46ZM690.901 351.168l-3.693 1.23 3.693-3.689v2.459ZM614.689 460.443l-3.693 1.229 3.693-3.689v2.46ZM687.208 353.628v2.459l-3.693 1.23 3.693-3.689ZM662.625 390.463l-3.693 1.229 3.693-3.689v2.46ZM646.64 411.33v2.459l-3.693 1.23 3.693-3.689ZM630.655 434.657v2.459l-3.693 1.23 3.693-3.689ZM683.533 358.528l-3.693 3.689 3.693-3.689ZM576.565 513.245l-3.693 3.689 3.693-3.689ZM668.78 379.414l-3.693 3.689 3.693-3.689ZM650.333 405.182l-1.231 1.229c-.205-.596-.392-1.211-.597-1.807.597.205 1.212.391 1.809.596l.019-.018ZM736.393 331.512h-2.462c.503-.633 1.007-1.267 1.51-1.919.318.633.635 1.267.952 1.919ZM618.364 451.854l-1.231 1.229c-.205-.596-.392-1.211-.597-1.807.597.205 1.213.391 1.809.596l.019-.018ZM713.041 327.842l-1.231 1.229c-.205-.596-.392-1.211-.597-1.807.597.205 1.212.391 1.809.596l.019-.018Z" fill="#F8F8F8"/></svg>