<svg width="500" height="445" viewBox="0 0 500 445" fill="none" xmlns="http://www.w3.org/2000/svg"><circle cx="250" cy="135" r="135" fill="#020224"/><path d="M204.409 128.909V142h-1.585v-13.091h1.585Zm4.482 7.185V142h-1.508v-9.818h1.457v1.534h.128c.23-.499.579-.899 1.048-1.202.469-.307 1.074-.46 1.815-.46.665 0 1.247.136 1.746.409.498.269.886.678 1.163 1.227.277.546.415 1.236.415 2.071V142h-1.508v-6.136c0-.772-.2-1.373-.601-1.803-.401-.435-.95-.652-1.649-.652-.482 0-.912.104-1.291.313a2.245 2.245 0 0 0-.889.914c-.217.401-.326.887-.326 1.458Zm13.291-3.912v1.278h-5.088v-1.278h5.088Zm-3.605-2.352h1.508v9.358c0 .426.062.745.186.958.127.209.289.35.485.422.201.068.412.102.633.102.166 0 .303-.008.409-.025l.256-.051.307 1.355a3.064 3.064 0 0 1-.428.115 3.138 3.138 0 0 1-.697.064c-.426 0-.844-.092-1.253-.275a2.482 2.482 0 0 1-1.01-.837c-.264-.375-.396-.848-.396-1.419v-9.767Zm9.885 12.375c-.946 0-1.762-.209-2.448-.627a4.207 4.207 0 0 1-1.579-1.764c-.366-.759-.55-1.641-.55-2.646 0-1.006.184-1.892.55-2.659.371-.772.886-1.373 1.547-1.803.665-.435 1.44-.652 2.327-.652.511 0 1.016.085 1.515.256.498.17.952.447 1.361.831.409.379.735.882.978 1.508.243.627.364 1.398.364 2.314v.639h-7.568v-1.304h6.034c0-.554-.111-1.048-.332-1.483a2.515 2.515 0 0 0-.933-1.029c-.401-.251-.874-.377-1.419-.377-.601 0-1.121.149-1.56.448a2.945 2.945 0 0 0-1.004 1.15c-.234.473-.351.98-.351 1.521v.87c0 .741.128 1.37.383 1.885.26.512.62.902 1.081 1.17.46.264.995.396 1.604.396.396 0 .754-.055 1.074-.166a2.29 2.29 0 0 0 .837-.511c.235-.23.416-.516.544-.857l1.457.409a3.215 3.215 0 0 1-.774 1.304 3.764 3.764 0 0 1-1.342.87c-.533.204-1.131.307-1.796.307Zm7.869-13.296V142h-1.509v-13.091h1.509Zm4.271 0V142h-1.508v-13.091h1.508ZM243.365 142v-9.818h1.509V142h-1.509Zm.767-11.455c-.294 0-.547-.1-.761-.3a.967.967 0 0 1-.313-.722.97.97 0 0 1 .313-.723c.214-.2.467-.3.761-.3s.546.1.754.3c.213.201.32.441.32.723a.956.956 0 0 1-.32.722c-.208.2-.46.3-.754.3Zm7.468 15.341c-.729 0-1.356-.093-1.88-.281-.524-.183-.961-.426-1.31-.729a3.992 3.992 0 0 1-.825-.958l1.202-.844c.136.179.309.383.518.614.209.234.494.436.856.607.367.174.846.262 1.439.262.792 0 1.446-.192 1.962-.575.516-.384.773-.985.773-1.803v-1.994h-.127a8.28 8.28 0 0 1-.473.664c-.201.26-.491.493-.87.697-.375.2-.882.301-1.521.301-.793 0-1.504-.188-2.135-.563-.626-.375-1.123-.92-1.489-1.636-.363-.716-.544-1.586-.544-2.608 0-1.006.177-1.882.531-2.627.354-.75.846-1.33 1.476-1.739.631-.413 1.36-.62 2.186-.62.64 0 1.147.107 1.522.32.379.208.669.447.869.715.205.265.362.482.473.652h.154v-1.559h1.457v10.099c0 .844-.192 1.53-.575 2.058-.38.533-.891.923-1.534 1.17-.64.252-1.351.377-2.135.377Zm-.052-5.395c.606 0 1.117-.138 1.535-.415.417-.277.735-.675.952-1.195.217-.52.326-1.142.326-1.867 0-.707-.107-1.331-.32-1.873-.213-.541-.528-.965-.946-1.272-.417-.307-.933-.46-1.547-.46-.639 0-1.171.162-1.598.486a2.961 2.961 0 0 0-.952 1.304 5.032 5.032 0 0 0-.313 1.815c0 .682.106 1.285.319 1.809.218.52.537.929.959 1.227.426.294.955.441 1.585.441Zm11.174 1.714c-.946 0-1.762-.209-2.448-.627a4.207 4.207 0 0 1-1.579-1.764c-.367-.759-.55-1.641-.55-2.646 0-1.006.183-1.892.55-2.659.371-.772.886-1.373 1.547-1.803.664-.435 1.44-.652 2.326-.652.512 0 1.017.085 1.515.256.499.17.953.447 1.362.831.409.379.735.882.978 1.508.243.627.364 1.398.364 2.314v.639h-7.568v-1.304h6.034c0-.554-.111-1.048-.332-1.483a2.517 2.517 0 0 0-.934-1.029c-.4-.251-.873-.377-1.419-.377-.6 0-1.12.149-1.559.448a2.945 2.945 0 0 0-1.004 1.15c-.234.473-.351.98-.351 1.521v.87c0 .741.127 1.37.383 1.885.26.512.62.902 1.08 1.17.461.264.995.396 1.605.396.396 0 .754-.055 1.074-.166.323-.115.603-.285.837-.511a2.33 2.33 0 0 0 .543-.857l1.458.409a3.237 3.237 0 0 1-.774 1.304 3.764 3.764 0 0 1-1.342.87c-.533.204-1.131.307-1.796.307Zm7.868-6.111V142h-1.508v-9.818h1.457v1.534h.128c.23-.499.58-.899 1.048-1.202.469-.307 1.074-.46 1.816-.46.664 0 1.246.136 1.745.409.498.269.886.678 1.163 1.227.277.546.416 1.236.416 2.071V142h-1.509v-6.136c0-.772-.2-1.373-.601-1.803-.4-.435-.95-.652-1.649-.652a2.63 2.63 0 0 0-1.291.313 2.25 2.25 0 0 0-.889.914c-.217.401-.326.887-.326 1.458Zm13.01 6.111c-.921 0-1.713-.218-2.378-.652-.665-.435-1.176-1.034-1.534-1.797-.358-.762-.537-1.634-.537-2.614 0-.997.183-1.877.55-2.64.37-.767.886-1.366 1.547-1.796.664-.435 1.44-.652 2.326-.652.691 0 1.313.128 1.867.384a3.56 3.56 0 0 1 1.361 1.073c.354.461.573.998.659 1.611h-1.509c-.115-.447-.371-.844-.767-1.189-.392-.349-.92-.524-1.585-.524-.588 0-1.104.153-1.547.46-.439.303-.782.731-1.029 1.285-.243.55-.365 1.195-.365 1.937 0 .758.12 1.419.358 1.981.243.563.584 1 1.023 1.311.443.311.963.466 1.56.466.392 0 .748-.068 1.067-.204.32-.136.59-.333.812-.588.222-.256.379-.563.473-.921h1.509a3.507 3.507 0 0 1-.633 1.566 3.543 3.543 0 0 1-1.323 1.1c-.546.268-1.181.403-1.905.403Zm10.182 0c-.946 0-1.762-.209-2.448-.627a4.207 4.207 0 0 1-1.579-1.764c-.366-.759-.549-1.641-.549-2.646 0-1.006.183-1.892.549-2.659.371-.772.887-1.373 1.547-1.803.665-.435 1.441-.652 2.327-.652.511 0 1.016.085 1.515.256.498.17.952.447 1.361.831.409.379.735.882.978 1.508.243.627.365 1.398.365 2.314v.639h-7.569v-1.304h6.035c0-.554-.111-1.048-.333-1.483a2.508 2.508 0 0 0-.933-1.029c-.401-.251-.874-.377-1.419-.377-.601 0-1.121.149-1.56.448a2.942 2.942 0 0 0-1.003 1.15c-.235.473-.352.98-.352 1.521v.87c0 .741.128 1.37.384 1.885.26.512.62.902 1.08 1.17.46.264.995.396 1.604.396.397 0 .755-.055 1.074-.166.324-.115.603-.285.838-.511a2.33 2.33 0 0 0 .543-.857l1.457.409a3.224 3.224 0 0 1-.773 1.304c-.362.371-.81.661-1.343.87-.532.204-1.131.307-1.796.307Z" fill="#fff"/><circle cx="135" cy="310" r="135" fill="#0D0D58"/><path d="m95.18 303.909 3.887 11.02h.154l3.886-11.02h1.662L99.962 317h-1.636l-4.807-13.091h1.662Zm14.626 13.296c-.946 0-1.762-.209-2.448-.627a4.207 4.207 0 0 1-1.579-1.764c-.367-.759-.55-1.641-.55-2.646 0-1.006.183-1.892.55-2.659.371-.772.886-1.373 1.547-1.803.664-.435 1.44-.652 2.326-.652.512 0 1.017.085 1.515.256.499.17.953.447 1.362.831.409.379.735.882.978 1.508.243.627.364 1.398.364 2.314v.639h-7.568v-1.304h6.034c0-.554-.111-1.048-.332-1.483a2.517 2.517 0 0 0-.934-1.029c-.4-.251-.873-.377-1.419-.377-.601 0-1.12.149-1.559.448a2.945 2.945 0 0 0-1.004 1.15c-.234.473-.351.98-.351 1.521v.87c0 .741.127 1.37.383 1.885.26.512.62.902 1.08 1.17.461.264.995.396 1.605.396.396 0 .754-.055 1.074-.166.323-.115.603-.285.837-.511a2.33 2.33 0 0 0 .543-.857l1.458.409a3.237 3.237 0 0 1-.774 1.304 3.764 3.764 0 0 1-1.342.87c-.533.204-1.131.307-1.796.307Zm6.36-.205v-9.818h1.457v1.483h.102c.179-.486.503-.88.972-1.183a2.865 2.865 0 0 1 1.585-.454c.111 0 .25.003.416.007.166.004.292.01.377.019v1.534a4.15 4.15 0 0 0-.352-.057 3.436 3.436 0 0 0-.569-.045c-.477 0-.903.1-1.278.3a2.264 2.264 0 0 0-.882.818 2.21 2.21 0 0 0-.32 1.183V317h-1.508Zm13.652-7.619-1.355.383a2.515 2.515 0 0 0-.378-.658 1.827 1.827 0 0 0-.664-.537c-.282-.141-.642-.211-1.081-.211-.6 0-1.101.138-1.502.415-.396.273-.594.62-.594 1.042 0 .375.136.672.409.889.273.217.699.398 1.278.543l1.458.358c.878.213 1.532.539 1.962.978.43.435.646.995.646 1.681 0 .563-.162 1.066-.486 1.509-.32.443-.767.792-1.342 1.048-.576.256-1.245.384-2.008.384-1.001 0-1.83-.218-2.486-.652-.656-.435-1.072-1.07-1.247-1.905l1.432-.358c.137.528.394.924.774 1.189.383.264.884.396 1.502.396.703 0 1.261-.149 1.675-.447.417-.303.626-.665.626-1.087 0-.341-.119-.627-.358-.857-.239-.234-.605-.409-1.099-.524l-1.637-.383c-.899-.213-1.559-.544-1.981-.991-.418-.452-.627-1.016-.627-1.694 0-.554.156-1.044.467-1.47.315-.426.743-.761 1.285-1.004.545-.243 1.163-.364 1.853-.364.972 0 1.735.213 2.289.639.558.426.954.989 1.189 1.688Zm5.339 7.849a3.993 3.993 0 0 1-1.694-.351 2.906 2.906 0 0 1-1.208-1.03c-.299-.451-.448-.997-.448-1.636 0-.562.111-1.018.333-1.368.221-.354.517-.631.888-.831.371-.2.78-.349 1.227-.447.452-.103.906-.183 1.362-.243.596-.077 1.08-.134 1.451-.173.375-.042.648-.113.818-.211.175-.098.262-.268.262-.511v-.051c0-.631-.173-1.121-.518-1.47-.341-.35-.858-.524-1.553-.524-.72 0-1.285.157-1.694.473-.409.315-.697.652-.863 1.009l-1.432-.511c.256-.596.597-1.061 1.023-1.393a3.83 3.83 0 0 1 1.406-.703 5.821 5.821 0 0 1 1.509-.205c.315 0 .677.038 1.087.115.413.072.811.224 1.195.454.388.23.709.577.965 1.042.256.464.384 1.086.384 1.866V317h-1.509v-1.33h-.077a2.609 2.609 0 0 1-.511.684c-.239.243-.556.45-.952.62-.397.171-.88.256-1.451.256Zm.23-1.355c.596 0 1.099-.117 1.508-.352.414-.234.725-.536.933-.907.214-.371.32-.761.32-1.17v-1.381c-.064.077-.204.147-.422.211-.213.06-.46.113-.741.16a31.625 31.625 0 0 1-1.445.192 5.755 5.755 0 0 0-1.099.249c-.337.111-.61.279-.818.505-.205.222-.307.524-.307.908 0 .524.194.92.581 1.189.392.264.889.396 1.49.396Zm11.293-8.693v1.278h-5.088v-1.278h5.088Zm-3.605-2.352h1.508v9.358c0 .426.062.745.186.958.127.209.289.35.485.422.201.068.412.102.633.102.166 0 .303-.008.409-.025l.256-.051.307 1.355a3.064 3.064 0 0 1-.428.115 3.138 3.138 0 0 1-.697.064c-.426 0-.844-.092-1.253-.275a2.488 2.488 0 0 1-1.01-.837c-.264-.375-.396-.848-.396-1.419v-9.767Zm5.874 12.17v-9.818h1.509V317h-1.509Zm.767-11.455c-.294 0-.547-.1-.761-.3a.967.967 0 0 1-.313-.722.97.97 0 0 1 .313-.723c.214-.2.467-.3.761-.3s.546.1.754.3c.213.201.32.441.32.723a.956.956 0 0 1-.32.722c-.208.2-.46.3-.754.3Zm5.013-1.636V317h-1.508v-13.091h1.508ZM157.492 317v-9.818h1.509V317h-1.509Zm.767-11.455c-.294 0-.548-.1-.761-.3a.967.967 0 0 1-.313-.722.97.97 0 0 1 .313-.723c.213-.2.467-.3.761-.3s.546.1.754.3c.213.201.32.441.32.723a.956.956 0 0 1-.32.722c-.208.2-.46.3-.754.3Zm7.774 1.637v1.278h-5.088v-1.278h5.088Zm-3.605-2.352h1.509v9.358c0 .426.062.745.185.958.128.209.29.35.486.422.2.068.411.102.633.102.166 0 .302-.008.409-.025l.256-.051.306 1.355a3.064 3.064 0 0 1-.428.115 3.126 3.126 0 0 1-.697.064c-.426 0-.843-.092-1.252-.275a2.482 2.482 0 0 1-1.01-.837c-.265-.375-.397-.848-.397-1.419v-9.767Zm6.846 15.852c-.256 0-.484-.021-.684-.064a1.793 1.793 0 0 1-.415-.115l.383-1.33c.367.094.691.128.972.103a1.17 1.17 0 0 0 .748-.378c.221-.221.424-.581.607-1.08l.281-.767-3.63-9.869h1.636l2.71 7.824h.102l2.711-7.824h1.636l-4.168 11.25c-.187.507-.419.927-.696 1.259a2.607 2.607 0 0 1-.966.748 2.973 2.973 0 0 1-1.227.243Z" fill="#fff"/><circle cx="365" cy="310" r="135" fill="#593FF0"/><path d="M336.233 308h-1.586a3.271 3.271 0 0 0-.492-1.202 3.263 3.263 0 0 0-.844-.869 3.56 3.56 0 0 0-1.093-.537 4.371 4.371 0 0 0-1.252-.179c-.793 0-1.511.2-2.155.601-.639.4-1.148.991-1.527 1.771-.375.779-.563 1.736-.563 2.87 0 1.133.188 2.09.563 2.87.379.779.888 1.37 1.527 1.77a3.993 3.993 0 0 0 2.155.601c.434 0 .852-.06 1.252-.179a3.66 3.66 0 0 0 1.093-.53 3.337 3.337 0 0 0 1.336-2.078h1.586a5.299 5.299 0 0 1-.652 1.796 4.916 4.916 0 0 1-1.177 1.349 5.14 5.14 0 0 1-1.578.837c-.58.192-1.2.288-1.86.288-1.117 0-2.11-.273-2.979-.818-.869-.546-1.553-1.321-2.052-2.327-.499-1.006-.748-2.199-.748-3.579 0-1.381.249-2.574.748-3.58.499-1.006 1.183-1.781 2.052-2.327.869-.545 1.862-.818 2.979-.818.66 0 1.28.096 1.86.288.583.192 1.11.473 1.578.844.469.366.861.813 1.177 1.342.315.524.532 1.123.652 1.796Zm2.357 9v-9.818h1.457v1.483h.102c.179-.486.503-.88.972-1.183a2.865 2.865 0 0 1 1.585-.454c.111 0 .249.003.416.007.166.004.292.01.377.019v1.534a4.228 4.228 0 0 0-.352-.057 3.436 3.436 0 0 0-.569-.045c-.477 0-.903.1-1.278.3a2.264 2.264 0 0 0-.882.818 2.21 2.21 0 0 0-.32 1.183V317h-1.508Zm10.515.205c-.946 0-1.762-.209-2.449-.627a4.205 4.205 0 0 1-1.578-1.764c-.367-.759-.55-1.641-.55-2.646 0-1.006.183-1.892.55-2.659.37-.772.886-1.373 1.546-1.803.665-.435 1.441-.652 2.327-.652.512 0 1.017.085 1.515.256.499.17.953.447 1.362.831.409.379.735.882.978 1.508.242.627.364 1.398.364 2.314v.639h-7.568v-1.304h6.034c0-.554-.111-1.048-.333-1.483a2.508 2.508 0 0 0-.933-1.029c-.4-.251-.873-.377-1.419-.377-.601 0-1.121.149-1.559.448-.435.294-.77.677-1.004 1.15-.234.473-.352.98-.352 1.521v.87c0 .741.128 1.37.384 1.885.26.512.62.902 1.08 1.17.46.264.995.396 1.605.396.396 0 .754-.055 1.073-.166.324-.115.603-.285.838-.511a2.33 2.33 0 0 0 .543-.857l1.458.409a3.237 3.237 0 0 1-.774 1.304c-.362.371-.81.661-1.342.87a4.993 4.993 0 0 1-1.796.307Zm9.249.025a3.996 3.996 0 0 1-1.694-.351 2.906 2.906 0 0 1-1.208-1.03c-.298-.451-.448-.997-.448-1.636 0-.562.111-1.018.333-1.368.221-.354.518-.631.888-.831.371-.2.78-.349 1.228-.447.451-.103.905-.183 1.361-.243.597-.077 1.08-.134 1.451-.173.375-.042.648-.113.818-.211.175-.098.262-.268.262-.511v-.051c0-.631-.172-1.121-.517-1.47-.341-.35-.859-.524-1.554-.524-.72 0-1.284.157-1.694.473-.409.315-.696.652-.862 1.009l-1.432-.511c.255-.596.596-1.061 1.022-1.393.431-.337.9-.571 1.407-.703a5.808 5.808 0 0 1 1.508-.205c.316 0 .678.038 1.087.115.413.072.812.224 1.195.454.388.23.71.577.965 1.042.256.464.384 1.086.384 1.866V317h-1.509v-1.33h-.076a2.638 2.638 0 0 1-.512.684c-.238.243-.556.45-.952.62-.396.171-.88.256-1.451.256Zm.23-1.355c.597 0 1.099-.117 1.509-.352a2.39 2.39 0 0 0 1.252-2.077v-1.381c-.064.077-.204.147-.422.211-.213.06-.46.113-.741.16a31.625 31.625 0 0 1-1.445.192 5.755 5.755 0 0 0-1.099.249 1.894 1.894 0 0 0-.818.505c-.205.222-.307.524-.307.908 0 .524.194.92.582 1.189.392.264.888.396 1.489.396Zm11.293-8.693v1.278h-5.088v-1.278h5.088Zm-3.605-2.352h1.509v9.358c0 .426.061.745.185.958.128.209.29.35.486.422.2.068.411.102.633.102.166 0 .302-.008.409-.025l.255-.051.307 1.355a3.064 3.064 0 0 1-.428.115 3.132 3.132 0 0 1-.697.064c-.426 0-.844-.092-1.253-.275a2.488 2.488 0 0 1-1.01-.837c-.264-.375-.396-.848-.396-1.419v-9.767Zm5.874 12.17v-9.818h1.509V317h-1.509Zm.767-11.455c-.294 0-.547-.1-.76-.3a.965.965 0 0 1-.314-.722c0-.282.105-.522.314-.723.213-.2.466-.3.76-.3s.546.1.755.3a.957.957 0 0 1 .319.723.955.955 0 0 1-.319.722c-.209.2-.461.3-.755.3Zm11.533 1.637-3.63 9.818h-1.535l-3.63-9.818h1.636l2.71 7.824h.103l2.71-7.824h1.636Zm1.991 9.818v-9.818h1.509V317h-1.509Zm.767-11.455c-.294 0-.547-.1-.76-.3a.964.964 0 0 1-.313-.722c0-.282.104-.522.313-.723.213-.2.466-.3.76-.3s.546.1.755.3a.957.957 0 0 1 .319.723.955.955 0 0 1-.319.722c-.209.2-.461.3-.755.3Zm7.775 1.637v1.278h-5.088v-1.278h5.088Zm-3.605-2.352h1.508v9.358c0 .426.062.745.185.958.128.209.29.35.486.422.201.068.411.102.633.102.166 0 .303-.008.409-.025l.256-.051.307 1.355a3.085 3.085 0 0 1-.429.115 3.122 3.122 0 0 1-.696.064c-.426 0-.844-.092-1.253-.275a2.482 2.482 0 0 1-1.01-.837c-.264-.375-.396-.848-.396-1.419v-9.767Zm6.845 15.852a3.27 3.27 0 0 1-.683-.064 1.805 1.805 0 0 1-.416-.115l.384-1.33c.366.094.69.128.971.103.281-.026.531-.152.748-.378.222-.221.424-.581.607-1.08l.282-.767-3.631-9.869h1.636l2.71 7.824h.103l2.71-7.824h1.636l-4.167 11.25c-.188.507-.42.927-.697 1.259a2.612 2.612 0 0 1-.965.748 2.978 2.978 0 0 1-1.228.243Z" fill="#fff"/></svg>