<svg width="1437" height="763" viewBox="0 0 1437 763" fill="none" xmlns="http://www.w3.org/2000/svg"><path opacity=".7" d="M-107.705-91h-325.024c-33.505 34.587-84.866 410.101-16.753 470.627 210.208 186.791 548.694-66.641 778.903-266.474 16.827-14.606 42.841-1.725 40.813 20.465-23.204 253.925-84.881 374.986-56.859 497.381C345.07 769.433 471.55 872.342 650.128 865.695 981.295 853.37 1278.76 413.597 1437-91h-366.35c-90.501 247.859-187.528 415.24-331.989 619.385-36.469 51.536-112.991 18.044-99.902-43.718C694.217 222.97 737.474 42.386 666.323-91H202.8C79.515 7.05-1.319 74.09-128.362 182.896c-17.902 15.332-45.865-1.818-41.506-24.982 3.997-21.239 7.804-44.341 13.577-77.215L-107.705-91Z" fill="#F6F6F6"/></svg>