<svg width="120" height="120" viewBox="0 0 120 120" fill="none" xmlns="http://www.w3.org/2000/svg"><g filter="url(#a)" stroke="#fff"><path d="M30.328 10.268a56 56 0 0 0 30.566 103.294l-.072-7a48.996 48.996 0 0 1-47.496-35.093 49 49 0 0 1 20.75-55.289l-3.748-5.912Z" fill="#593FF0"/><path d="M60.894 113.562a56.008 56.008 0 0 0 41.565-19.123l-5.268-4.61a48.993 48.993 0 0 1-36.37 16.733l.073 7Z" fill="#0D0D58"/><path d="M102.459 94.439a56.001 56.001 0 0 0 2.025-71.296l-5.521 4.302a49.005 49.005 0 0 1 10.33 31.511 49.004 49.004 0 0 1-12.102 30.873l5.268 4.61Z" fill="#020224"/><path d="M104.484 23.143a56 56 0 0 0-74.156-12.875l3.749 5.912a49 49 0 0 1 64.886 11.266l5.521-4.303Z" fill="#D56BC4"/></g><defs><filter id="a" x="-.188" y="1.065" width="121" height="121.002" filterUnits="userSpaceOnUse" color-interpolation-filters="sRGB"><feFlood flood-opacity="0" result="BackgroundImageFix"/><feColorMatrix in="SourceAlpha" values="0 0 0 0 0 0 0 0 0 0 0 0 0 0 0 0 0 0 127 0" result="hardAlpha"/><feOffset dy="4"/><feGaussianBlur stdDeviation="2"/><feComposite in2="hardAlpha" operator="out"/><feColorMatrix values="0 0 0 0 0 0 0 0 0 0 0 0 0 0 0 0 0 0 0.25 0"/><feBlend in2="BackgroundImageFix" result="effect1_dropShadow_42_11892"/><feBlend in="SourceGraphic" in2="effect1_dropShadow_42_11892" result="shape"/></filter></defs></svg>