<svg data-name="Layer 2" xmlns="http://www.w3.org/2000/svg" viewBox="0 0 328.25 45.25"><path d="M328.12 38.13h-141.4s-.36.02-.36-.03c-.85-.15-1.52-.41-2.11-1.04-.49-.53-.79-1.26-1.41-1.62.23.63.78 1.14 1.44 1.32.08-.24-.07-.49-.22-.7l-.61-.88c.53.43 1.27.67 1.95.78 1.2.2 1.95-.65 2.23-1.74.14-.56.16-1.14.14-1.71 0-.13 0-.29.1-.38.68.46 1.23 1.11 1.59 1.85.14.28.25.58.25.9s-.12.64-.37.83-.64.19-.86-.03c.25 0 .46.23.51.48.12.55-.34 1.09-.8 1.32-.6.3-1.32.39-1.97.22-.86-.22-1.59-.89-1.85-1.74-.04-.14.04-.28.17-.36s.28-.1.42-.16c.3-.12.5-.41.66-.69s.32-.59.58-.78c.3-.22.7-.25 1.07-.28.05 0 .11 0 .15-.04.1-.07.07-.23.02-.34-.23-.47-.67-.83-.79-1.33.11.18.24.3.43.39.09.05.21.08.29.02.09-.06.09-.19.06-.29a1.041 1.041 0 0 0-1.3-.77c-.11.03-.24.1-.26.22.02.04.1 0 .1-.04s-.03-.09-.07-.12c-.27-.23-.63-.3-.98-.35-.72-.1-1.45-.12-2.18-.06-.21.02-.43.05-.58.19-.19.18-.2.47-.17.72.05.47.24.89.39 1.34.23.66.46 1.28.63 1.96-.02-.07-.23-.2-.28-.24-.11-.1-.22-.2-.33-.31-.21-.2-.39-.42-.6-.62-.41-.41-.77-.9-1.14-1.35-.78-1.06-1.37-2.25-1.76-3.5-.15-.5-.27-1.02-.54-1.47-.04.46.16.9.39 1.3.18.33.38.66.63.94s.57.51.94.61c.56.16 1.16 0 1.74-.09.61-.1 1.23-.12 1.84-.08.2-.04.47-.02.66.02.98.21 1.91.7 2.91.81.03 0 .06 0 .08-.01.04-.03.03-.09.01-.13-.2-.64-.63-1.18-1.05-1.71-.08-.1-.18-.22-.31-.23-.11-.01-.22.06-.31.12-.23.16-.46.31-.69.47-.14.09-.29.19-.46.2-.06 0-.14-.02-.15-.09 0-.03 0-.06.02-.09.14-.29.28-.59.42-.88-1.09.12-2.21.19-3.3 0-.75-.14-1.48-.43-2.1-.88s-1.13-1.06-1.43-1.76c-.03-.08-.07-.17-.15-.14-.05.02-.06.08-.07.13a6.91 6.91 0 0 0 .16 3.32c.17.55.4 1.07.61 1.6.39 1 .69 2.03.9 3.08.02.1.11.15.21.17s.2 0 .29-.02c.28-.05.56-.07.84-.06.06 0 .13.02.16.07.02.06-.02.12-.07.16-.1.11-.21.22-.31.33-.04.04-.08.09-.06.15.02.04.07.06.11.07l1.35.42c.09.03.19.05.26 0 .1-.08.03-.26-.1-.28s-.24.09-.26.22c-.06.36.42.7.64.93l.59.35c-.26.24-.59.45-.93.56-1.13.34-2.38.1-3.44-.44s-1.94-1.35-2.77-2.19a29.745 29.745 0 0 1-4.08-5.26c-.47-.78-.79-1.65-1.09-2.51-.08-.22-.14-.48-.01-.67.06-.08.14-.13.22-.19.17-.11.35-.21.52-.3.24-.13.51-.27.59-.53.07-.21 0-.43-.08-.63-.14-.38-.28-.77-.42-1.15-.07-.01-.12.05-.16.11-.13.22-.21.47-.24.72-.02.18.01.39.17.48-.09-.54-.31-1.06-.65-1.49-.12.41-.16.83-.11 1.25 0 .06.05.14.11.11.03-.02.03-.06.03-.1-.04-.39-.2-.76-.46-1.05-.2.38-.19.85.02 1.22.03.06.11.13.16.08.04-.03.03-.08.02-.13-.07-.29-.22-.57-.43-.79-.06-.06-.16-.12-.22-.06-.03.03-.03.07-.03.11-.02.57 0 1.36.35 1.85.1.14.26.26.43.26.12 0 .23-.04.34-.09.18-.08.35-.17.52-.28.22-.13.44-.29.69-.29.25 0 .48.13.67.3.24.22.43.48.61.75.74 1.12 1.3 2.37 2.15 3.41.74.91 1.83 1.57 2.52 2.53.28.39.53.83.52 1.31 0 .02 0 .04-.02.06-.02.02-.05 0-.08 0-.12-.06-.18-.19-.23-.31-.23-.52-.46-1.03-.68-1.55-.35-.79-.77-1.48-.86-2.37-.07-.71 0-1.43.12-2.14.06-.39.25-.69.35-1.06.02-.06.06-.14.12-.12.03.47.03.95.01 1.42 0 .14-.02.28-.1.39-.07-.15-.06-.32-.05-.49.05-.57.1-1.17.38-1.67 1.68.72 3.57 1.36 5.38 1.61-3.1-1.42-6.59-1.75-9.53-3.48-.08-.05-.11-.14-.12-.23 0-.04 0-.08.02-.12.04-.13.09-.25.14-.38.09-.23.2-.47.17-.72 0-.07-.05-.1-.12-.13-.58-.32-1.23-.52-1.89-.6-.13-.01-.26-.02-.38 0-.03 0-.05.02-.07.04-.01.02 0 .05 0 .08.05.1.16.16.27.2.21.09.43.17.65.23-.36-.2-.72-.38-1.14-.33-.06 0-.13.03-.14.09 0 .03 0 .06.02.08.07.11.19.18.31.23.21.09.44.14.67.16-.25-.15-.58-.18-.86-.18-.06 0-.13.02-.14.08 0 .02.01.05.03.07.08.09.19.14.31.18.33.12.68.22 1.02.28-.18-.04-.39-.11-.57-.15-.08-.02-.18-.04-.24.02-.06.05-.05.15 0 .22s.12.1.19.13c.43.2.87.4 1.33.52.04.01.09.02.13.01.12-.02.16-.17.18-.29.06-.3.15-.59.27-.87.04-.08.08-.16.16-.2.06-.03.12-.03.19-.03.4.01.8.05 1.19.11 3.22.5 6.47 1.12 9.45 2.43.47.21.94.43 1.36.73.77.56 1.34 1.38 1.65 2.28s.37 1.88.25 2.82c-.03.02-.07-.01-.1 0-.25-.48-.33-1.03-.44-1.56-.17-.8-.43-1.59-.8-2.32-.05-.1-.12-.21-.22-.24-.06-.02-.13 0-.19.01-.22.07-.4.22-.58.36-.1.08-.38.42-.51.33-.07-.04-.09-.13-.09-.21s.04-.15.07-.22c.13-.28.22-.59.26-.89.01-.07.02-.14-.02-.2-.05-.07-.14-.09-.23-.1-.94-.09-1.89.06-2.82-.04-.18-.02-.51-.03-.66-.15-.19-.15-.03-.33.14-.42.27-.15.54-.3.81-.44-.8-.22-1.61-.45-2.41-.67-.48-.13-.96-.27-1.44-.39s-.93-.22-1.39-.32c-.79-.16-1.62-.3-2.24-.81.39-.09.79 0 1.17.08 1.17.23 2.4.4 3.56.1.98-.26 2.06-.41 3.04-.7.8-.24 1.6-.54 2.29-1.01s1.29-1.12 1.58-1.9c.04-.1.07-.23 0-.32-.1-.15-.32-.1-.48-.03-.62.24-1.27.43-1.93.42-1.02-.02-2.02-.52-2.62-1.34.45.18.94.05 1.42 0 .27-.03.55-.05.82-.12.7-.19 1.27-.69 1.88-1.08.28-.18.63-.34.92-.18.05.03.09.07.1.12.02.11-.13.17-.24.16-.23-.02-.43-.19-.55-.39s-.17-.43-.23-.66c-.06-.28-.13-.56-.19-.84-.05-.21-.1-.43-.21-.62-.25-.46-.79-.7-1.32-.71s-1.03.16-1.51.37c-.41.18-.81.39-1.15.67s-.63.65-.78 1.07c-.07.21-.1.45 0 .65.11.22.36.33.58.42.25.1.5.22.77.25.64.08 1.29.16 1.93.16.93 0 1.86-.16 2.77-.02.08.01.17.04.2.11.02.04 0 .09 0 .13-.09.26-.35.42-.53.62-.1.12-.19.3-.09.43.09.13.28.11.43.08.73-.18 1.62-.64 1.85-1.4.14-.46.18-.95.12-1.43-.02-.13-.05-.27-.03-.4.03-.27.23-.49.29-.76.05-.22 0-.45-.06-.66-.14-.5-.34-1.01-.75-1.32-.16-.12-.34-.2-.52-.27-.62-.23-1.29-.26-1.94-.18s-1.29.26-1.92.45c-.97.29-1.83.8-2.64 1.42-.09.07-.36.32-.2.44.05.04.12.02.18 0 .4-.15.8-.31 1.17-.52s.71-.51.92-.87c.07-.12.13-.24.13-.38.03-.44-.43-.8-.77-.99-.84-.47-1.82-.76-2.78-.63-.8.11-1.54.49-2.18.98-.3.23-.56.45-.83.72-1.21 1.23-2.42 2.47-3.4 3.88-.56.8-1.04 1.65-1.68 2.4-.15.17-.15.47.02.62.09.08.21.11.31.19.2.16.18.51-.02.68s-.51.16-.72.01c-.13-.09-.23-.22-.23-.37s.11-.31.26-.32c.21-.01.35.23.55.26.16.03.32-.07.46-.17 2-1.45 4-2.89 6.01-4.34.2-.15.42-.32.44-.57-.25.09-.46.28-.65.46-.32.31-.63.63-.87 1s-.39.81-.37 1.26c.02.36.2.74.54.85.41.13.82-.17 1.12-.47.49-.48.93-1.01 1.38-1.53.21-.25.43-.53.41-.86a5.52 5.52 0 0 0-1.4 1.82c-.15.32-.2.58.1.8.28.2.64.22.96.22.35 0 .7-.01 1.06-.04.16-.01.34-.04.42-.18-.35-.12-.74-.08-1.11-.04-.68.08-1.37.17-1.97.49-.14.08-.29.17-.36.32-.12.26.04.56.23.76.22.22.51.44.81.52s.61.08.92.09c.63 0 1.25.01 1.88.02.27 0 .58-.01.74-.23-1.22-.35-2.53-.2-3.77.08-.5.11-1 .24-1.51.27-1.15.05-2.27-.44-3.42-.36-.22.02-.45.05-.64.16-.46.26-.62.93-.34 1.37.03-.38 0-.77-.05-1.14-.03-.16-.09-.35-.25-.37a.44.44 0 0 0-.22.07c-.21.11-.42.23-.63.34-.18.1-.38.23-.41.43.27 0 .54-.05.8-.13-.21.06-.42.16-.6.28-.07.05-.15.14-.09.2.02.02.05.03.08.04.23.05.48.07.71.05-.5.09-1.02-.08-1.28-.51-.14-.22-.18-.49-.22-.75-.04-.29-.09-.58-.07-.87 0-.18.07-.38.24-.44.12-.04.24.01.35.07.06.03.12.09.11.15-.02.1-.17.09-.26.06-.24-.09-.48-.18-.68-.33s-.37-.37-.39-.62c-.02-.19.05-.38.12-.56.15-.37.33-.73.55-1.07.3.08.57.3.8.52.17.15.34.31.42.52.02.04.03.09 0 .13-.04.07-.14.06-.21.03-.26-.09-.52-.24-.65-.48-.17-.31.05-.82.11-1.15l.26-1.35s-.02.02 0 .02.02-.02.03-.03c.36-1.12.73-2.23 1.09-3.35.16-.5.33-1.01.55-1.49.05-.12.18-.23.22-.35s-.02-.26-.04-.37c-.06-.34-.13-.68-.19-1.01 0-.03 0-.06-.02-.08s-.05.04-.02.03c.02-.17-.09-.32-.24-.41s-.32-.1-.48-.11c-.06 0-.07-.09-.03-.13s.1-.05.16-.05l.65-.03c.05 0 .08-.06.06-.11s-.05-.08-.09-.11l-1.62-1.38c-.07-.06-.17-.13-.26-.08-.04.02-.07.07-.08.12-.3.71-.29 1.51-.32 2.29-.04 1.05-.17 2.1-.4 3.12-.08.01-3.65-.95-3.74-.95s-.19.02-.22.1c-.02.05-.01.11 0 .16.11.35.41.6.73.79.6.36 1.29.55 1.98.64s1.39.07 2.09.02c.26-.02.58-.01.71.21-.3-.02-.59-.12-.88-.15-.36-.04-.73.01-1.09 0-.85-.03-1.65-.42-2.39-.84-.4-.22-.79-.46-1.09-.81-.05-.07-.11-.15-.08-.23.06-.16.34-.06.44-.2-.28-.22-.65-.33-.91-.55-.23-.2-.43-.44-.67-.64-.06-.05-.12-.11-.1-.18.02-.07.1-.09.17-.1.27-.03.54.04.79.12.28.09.56.2.84.31.83.32 1.69.66 2.33 1.27.27.26.5.57.78.83s.61.48.99.51c.22.02.51 0 .68-.12s.31-.31.41-.5c.16-.29.29-.61.4-.92.2-.56.35-1.13.53-1.69.16-.49.12-.76.11-1.28.01.01-.09-.34-.11-.35s-.02-.03-.03-.04a3.93 3.93 0 0 0-2.05-2.31c-.18-.08-.35-.21-.52-.32a.265.265 0 0 1-.06-.05c-.03-.05 0-.12.06-.15.21-.1.53-.01.74.06.71.24 1.39.54 2.05.89.74.39 1.46.78 2 1.43.2.24.38.49.5.78s.17.61.09.91c-.02.06-.04.12-.09.17-.07.07-.18.07-.27.04s-.17-.09-.24-.15c-.22-.18-.44-.36-.65-.54-.03-.02-.06-.05-.1-.05-.1 0-.12.15-.09.24.2.74.78 1.23 1.09 1.91.04.08.07.18.05.27-.02.06-.07.11-.12.16-.34.3-.79.45-1.13.75-.07.07-.15.15-.13.25.02.16.23.19.39.19s.37.04.39.2c.01.11-.08.2-.16.27-.52.45-1.01.93-1.47 1.45-.06.06-.1.19-.02.22.04.01.08-.01.11-.04.25-.19.49-.42.8-.44.03 0 .07 0 .09.02.06.04.03.13 0 .2-.29.61-.67 1.17-.98 1.77-.34.65-.64 1.31-.9 1.99-.07.18-.14.39-.07.57.42-.4.7-.94.96-1.46.6-1.2 1.18-2.41 1.77-3.61.12-.25.27-.47.37-.74.12-.3.22-.6.32-.9.19-.61.35-1.23.47-1.86.01-.06.02-.13.04-.19.09-.51.16-1.03.11-1.54s-.25-1.03-.63-1.38c-1.1-1.05-2.63-1.54-4.15-1.67-.43-.04-.92-.04-1.22-.35-.4-.4-.27-1.07-.38-1.62-.13-.62-.61-1.13-1.18-1.41s-1.22-.35-1.85-.33c-.57.02-1.14.11-1.65.37s-.93.7-1.09 1.24c-.03.12-.05.25-.01.36s.17.21.29.17c-.17-.24-.53-.27-.78-.12s-.38.44-.4.73.05.57.13.85c.24.83.58 1.62 1 2.37-.02.06.14.14.19.12s.07-.09.06-.15-.04-.11-.07-.16c-.21-.38-.15-.85-.08-1.28s.13-.9-.07-1.29c.05.1 0 .3.06.42.05.13.14.29.26.38.19.14.49.25.71.32.58.17 1.24.08 1.74-.27.41-.29.7-.72 1.04-1.1.04-.05.09-.1.15-.12.14-.05.28.08.37.2.19.25.37.58.68.63.05 0 .11 0 .15-.02.04-.02.07-.07.09-.11.15-.31.15-.7-.02-1.01.06.92.08 1.84.06 2.75 0 .36-.02.73-.02 1.09 0 .49.06.98.11 1.47.07.72.15 1.44.22 2.17.04.05.05.01.09.06.11-.18.1-.4.09-.6-.06-1.55-.18-3.1-.34-4.64-.37.7-.74 1.41-1.12 2.11-.17.32-.34.64-.58.9s-.57.47-.93.49c-.32.02-.63-.1-.9-.26a3.82 3.82 0 0 1-1.69-1.98c-.07-.18-.11-.42.04-.55.22.31.44.62.65.93.27.4.54.83.58 1.31 0 .08 0 .17-.07.22-.04.03-.1.02-.15.02-.2-.03-.39-.11-.59-.14s-.43 0-.57.13c-.04.04-.07.09-.09.15-.04.17.11.32.25.42.52.39 1.03.67 1.31 1.26.19.4.24.85.29 1.28.03.23.05.46.08.7.02.15.02.33-.1.41-.13.09-.31 0-.44-.08.24-.03.46.14.62.32.24.27.44.58.64.88.62.97 1.24 1.95 1.68 3.02.04.11.14.13.19.24.01.03.03.06.03.09 0 .05-.03.1-.06.14-.19.26-.5.4-.79.52.3-.21.64-.35 1-.4.06-.01.13-.02.19 0 .13.04.21.18.26.31.07.18.13.36.18.54 0 .03.01.06 0 .08-.02.03-.08.02-.11 0-.18-.08-.35-.19-.49-.32-.02-.02-.04-.03-.06-.03s-.02.05 0 .04c.09.4.16.75.25 1.15-.2-.22-.37-.47-.5-.73.11.22.17.45.19.69 0 .02 0 .05-.01.07-.03.03-.09 0-.11-.05-.17-.24-.31-.5-.44-.77.06.16.08.33.06.5 0 .02 0 .05-.03.06-.03.01-.06-.01-.08-.04-.14-.18-.23-.41-.23-.64 0 .1-.02.21-.04.31 0 .04-.03.08-.07.08-.02 0-.04-.02-.05-.04a1.27 1.27 0 0 1-.18-.37c-.23-.8-.8-1.47-1.31-2.13-.23-.3-.47-.59-.71-.88-.37-.46-.69-.95-1.04-1.43-.32-.45-.62-.89-.82-1.41-.21-.55-.3-1.13-.39-1.71l-.51-3.22c-.07-.45-.05-.97-.07-1.43 0-.22.02-.48.22-.58.1.23.06.5-.01.74s-.2.46-.3.7c-.31.78-.24 1.66-.08 2.48.24 1.24.42 2.53 1.05 3.64.49.87 1.13 1.63 1.75 2.41s1.2 1.65 1.71 2.53c.15.26.29.52.4.8.05.14.09.3 0 .42s-.26.12-.4.18c-.14.07-.22.21-.32.33s-.27.21-.41.14c-.04.03-.05-.02-.09-.05s-.06-.07-.09-.1c-.09-.12-.22-.22-.36-.29-.04-.02-.1-.03-.12.01.04.14.21.2.35.24s.3.16.27.3c-.15.03-.3-.02-.45-.06s-.32-.05-.44.04c.1.07.21.15.33.19s.26.05.37-.02.18-.21.13-.33c-.03-.06-.09-.14-.05-.19.05 0 .1 0 .15.01h.06c.04-.02.05-.08.03-.12s-.06-.07-.1-.1c-.23-.16-.47-.32-.7-.48-.11-.08-.24-.16-.38-.14-.18.03-.28.23-.32.41-.08.36-.07.74.02 1.09.04-.02.04-.08.04-.12-.03-.35-.09-.69-.16-1.03-.07-.29-.08-.48-.42-.54-.53-.09-1 .06-1.53.1-.48.03-.95.11-1.43.15-.23.02-.45.04-.68.03-.7-.04-1.34-.39-2-.61-1.01-.34-2.11-.26-3.18-.18-.16.01-.37.07-.37.23 1.17.08 2.33.1 3.5.05.27-.01.49-.09.7-.26s.37-.42.34-.69c-.04-.31-.32-.54-.59-.7-.42-.25-.89-.43-1.37-.53-.4-.08-.83-.11-1.2.06.42.07.84.13 1.27.16.21.02.43.01.64.03.15.01.31.07.45-.02.16-.12.13-.37.06-.56-.25-.72-.62-1.4-1.1-2-.04-.05-.09-.11-.16-.12-.07.11-.03.25.03.37.23.5.56.91.92 1.32s.67.8 1.12 1.1c.13.09.28.17.43.18.28.02.54-.17.68-.41.15-.26.2-.58.16-.88s-.14-.59-.28-.87c-.27-.56-.68-1.07-1.23-1.36.06.28.27.49.48.68.28.25.57.49.88.7.79.54 1.44 1.21 2.14 1.85.74.67 1.55 1.24 2.37 1.8.2.14.44.28.67.19.07-.03.13-.08.21-.1.17-.05.35.07.49.19.03.02.06.05.07.08 0 .03 0 .06-.01.09-.09.23-.35.39-.6.38s-.48-.2-.55-.44a.362.362 0 0 1 0-.23c.09-.18.37-.14.52-.26.11-.09.13-.25.1-.38s-.12-.25-.2-.36c-.29-.41-.57-.79-.78-1.24-.18-.38-.45-.72-.71-1.05s-.44-.72-.7-1.06c-.71-.92-1.42-1.83-2.21-2.67-.47-.49-.96-.96-1.5-1.37s-1.03-.84-1.71-.95c-.84-.15-1.73-.03-2.51.32-.25.11-.5.26-.69.46s-.32.47-.32.74c0 .31.17.6.39.81s.5.36.77.51c.28.15.56.31.84.46.1.05.27.08.29-.03-.58-.63-1.32-1.08-2.06-1.52-.76-.45-1.54-.89-2.4-1.05-1.15-.22-2.54.12-3.2 1.15-.35.55-.44 1.27-.15 1.86-.36.44-.45 1.07-.3 1.62.27.96 1.22 1.72 2.22 1.81.08 0 .18 0 .22-.07.05-.08 0-.18-.07-.25-.15-.16-.34-.28-.48-.45-.08-.09-.13-.23-.07-.33.07-.12.22-.13.36-.13h.28c.64-.05 1.28.03 1.92.06l2.08.11c.36.02.73.04 1.07-.07s.66-.38.72-.74c.04-.26-.12-.52-.23-.75-.13-.27-.28-.53-.49-.75-.13-.14-.29-.27-.44-.39-.25-.19-.51-.38-.79-.53-.34-.17-.7-.28-1.07-.35-.28-.06-.58-.1-.86-.07s-.57.16-.75.39c-.3.39-.21.94-.28 1.43-.04.24-.11.48-.23.69-.18.34-.51.64-.89.61-.08 0-.17-.03-.22-.1s-.06-.17 0-.22c.03-.03.08-.04.12-.05.24-.04.49.02.71.14s.41.27.6.42c.59.44 1.24.82 1.96.96.51.1 1.03.08 1.55.06.05-.04.06-.04.11 0 .05.03.05.1.03.15s-.08.08-.12.11c-.84.54-1.79 1.03-2.79.99-.61-.02-1.2-.24-1.75-.52-.12-.06-.28-.11-.35 0-.03.05-.03.11-.02.16.03.24.15.47.27.69.13.25.26.49.42.72.6.86 1.68 1.53 2.66 1.87.54.18 1.06.45 1.61.63.58.19 1.19.33 1.8.41.24.03.49.05.74.06 1.02.05 2.03-.06 3.04-.14 1.84-.14 3.68-.16 5.52-.17.12 0 .25 0 .33.09.09.09.08.23.06.35-.04.24-.1.48-.19.71-.06.15-.13.3-.14.46s.05.34.2.41c.13.06.3 0 .41-.1s.16-.25.2-.39c.11-.41.1-.84-.01-1.24-.01-.05-.03-.09-.07-.11-.09-.04-.16.07-.19.16-.29.85-.75 1.66-1.67 1.89-1.03.26-2.1.22-3.15.3-1.4.11-2.78.42-4.17.63-.18.03-.36.05-.53 0 .1-.12.28-.15.44-.16.47-.05.94-.05 1.41 0 .85-.04 1.78.04 2.63.18.16.03.32.06.45.13.03.02.07.04.08.08.04.09-.05.17-.13.23-.84.56-1.68 1.13-2.52 1.69-.61.41-1.25.84-1.99.96-.02-.1.08-.18.16-.23.43-.26.87-.49 1.33-.69.23-.1.45-.03.68.04s.45.23.56.45c.16.33.06.72-.05 1.07-.1.31-.19.63-.29.94.07-.22.24-.4.37-.59.18-.25.36-.5.55-.74.37-.47.77-.92 1.17-1.38.26-.3.54-.61.92-.74-.43 1.02-1.21 1.89-1.48 2.96-.02.09-.03.19.04.25.48-.41.96-.82 1.4-1.27.24-.25.48-.52.54-.86.04-.25-.02-.51-.08-.76-.14-.56-.29-1.14-.63-1.61-.04-.05-.09-.11-.15-.1-.02.55.12 1.1.39 1.58.09.16.24.33.42.3.1-.02.17-.09.24-.15.26-.25.52-.5.78-.74.35-.33.74-.49 1.14-.77.13-.09.25-.18.35-.3s.15-.28.12-.43c-.06.02-.1.07-.14.12-1.47 2.06-2.51 4.31-3.66 6.54-.51.99-1.12 1.93-1.83 2.79-.36.44-.76.88-1.3 1.06-.9.31-1.87-.15-2.82-.16-.24 0-.49.03-.7.15s-.37.34-.36.58c0 .03 0 .06.02.09.07.12.25-.02.31-.14.31-.56.72-1.05 1.21-1.46.53-.44 1.15-.72 1.72-1.09.23-.15.46-.31.6-.54.12-.19.18-.41.22-.63.11-.71-.02-1.46-.38-2.08-.08-.14-.34-.58-.56-.37-.08.08-.1.21-.11.32-.1 1.23-.61 2.43-1.44 3.36-.38.43-.84.81-1.4.95-.56.14-1.15.03-1.72-.03s-1.2-.05-1.67.28c-.07.05-.14.16-.07.22.03.03.08.02.13 0 .13-.04.25-.14.32-.26.34-.6.19-1.3.28-1.98.08-.61.3-1.22.67-1.71.41-.53.99-.92 1.61-1.18s1.28-.4 1.95-.52c.06-.01.12-.02.17-.06.09-.08.05-.23-.01-.33-.23-.4-.67-.65-1.12-.74s-.92-.04-1.37.03c-.38.06-.76.14-1.08.34-.38.24-.64.63-.89 1.01-.33.51-.66 1.01-.99 1.52-.54.83-1.1 1.73-1.1 2.72 0 .31.06.63.23.9s.45.47.76.48c.04-.02.03-.1-.02-.11s-.1 0-.13.04c-.14.12-.17.34-.11.52s.19.32.33.45c.36.35.93.82 1.47.79s1.05-.31 1.45-.64c.78-.66 1.38-1.58 1.84-2.48.41-.8.72-1.7.59-2.59-.06-.37-.21-.75-.54-.93-.33-.18-.73-.11-1.09 0-.56.16-1.11.39-1.65.62-.5.21-1.01.43-1.37.84-.09.11-.17.25-.11.38.1 0 .17-.11.17-.21s-.05-.19-.1-.28c-.38-.72-.67-1.49-.8-2.29-.18-1.14.04-2.35.66-3.33.4-.62.96-1.14 1.61-1.49.71-.37 1.48-.74 2.25-.94 1.06-.28 2.18-.23 3.28-.18-.01.29 0 .6 0 .89.47-.52 1-1.06 1.69-1.17.29-.04.65.04.75.32.06.17 0 .36-.08.53-.03.07-.07.15-.05.23.03.09.13.13.22.12s.17-.06.25-.11c.48-.29.95-.59 1.42-.9.16-.11.34-.22.53-.24.03 0 .07 0 .09.02.02.02.02.05.01.08-.03.17-.09.34-.18.49-.06.09-.11.23-.02.28.06.04.14 0 .19-.05.41-.29.81-.63 1.3-.77.09-.03.19-.04.27 0 .06.04.1.11.11.18.09.36-.17.75-.03 1.09.12.29.48.39.69.62.25.26.29.67.19 1.02s-.32.65-.53.94c-.1.14-.21.28-.36.36-.1-.13-.02-.32.07-.45.3-.47.7-.89.94-1.4.35-.73.35-1.57.36-2.37 0-.13-.05-.67.15-.69.09-.01.15.1.17.19.15.53.23 1.09.22 1.65.04-.57.11-1.19.18-1.76.02-.18.05-.36.18-.5.08.06.09.18.08.28-.03.59-.07 1.18-.1 1.77.03-.42.07-.85.1-1.27 0-.11.02-.23.11-.31.03-.02.07-.04.1-.04.08.01.11.12.12.2.05.57 0 1.15-.16 1.7-.09-.24.08-.48.23-.68l.34-.43c.06-.08.15-.16.24-.13.04.1.01.21-.02.31-.17.49-.39.96-.67 1.4.06-.14.13-.3.28-.33.14-.03.26.07.37.16.06.05.12.1.14.18.04.12-.04.24-.13.31s-.22.11-.33.15c-.63.26-.78.78-.82 1.4 0 .05-.02.12-.07.13-.03 0-.06 0-.08-.02-.32-.16-.64-.31-.96-.47.38.04.74.17 1.1.29.06.02.13.05.14.11v.09c-.1.39-.2.78-.3 1.16 0 .04-.02.07-.05.1-.03.03-.07.03-.11.03-.6 0-1.18-.29-1.77-.2.31.11.63.17.95.19.13 0 .25 0 .37.05s.22.15.22.28c0 .07-.04.14-.07.2-.19.35-.38.7-.58 1.05-.51.94-1.02 1.77-1.53 2.71-.27.5-.52 1.01-.64 1.56-.23 1.08.09 2.21-.07 3.3-.02.15-.06.31-.17.41.06-1.22-.25-2.47.01-3.67.04-.17.09-.35.22-.46.28-.25.74-.11 1.08-.27.53-.25 1.2-.11 1.78-.15.19-.01.43-.05.5-.23-.02-.06-.1-.08-.16-.09-.73-.1-1.49-.03-2.2.18-.06.02-.12.04-.16.09-.04.06-.04.14-.03.21.03.29.09.58.15.87.15.84.17 1.73-.18 2.51-.5 1.12-1.52 1.9-2.62 2.37.38.12.76.24 1.13.38l-1.06.33c-.27.08-.5.27-.47.58.01.18.1.34.16.51.15.36.23.76.48 1.06.05.06.11.12.18.14.2.06.41-.13.52-.27 1.04-1.34 1.81-2.91 2.15-4.57.15-.73.22-1.48.29-2.22.03-.28.05-.55.08-.83.02-.18-.04-.53.14-.64-.03.02.34 1.05.37 1.15.11.34.26.67.36 1 .24.77.39 1.53.72 2.27.09.2.18.39.34.54.32.28.78.26 1.2.3.06 0 .13.02.16.08.02.06-.03.12-.08.17-.25.23-.51.45-.76.68-.07.06-.13.17-.06.22.03.02.06.02.1.02.34-.03.68-.1 1.03-.08.18.01.39.1.41.27 0 .07-.02.14-.05.2-.32.68-.76 1.3-1.29 1.84.02-.02-.43-.86-.47-.95-.15-.33-.29-.67-.42-1.02-.26-.71-.52-1.41-.77-2.13-.11-.31-.21-.63-.3-.94-.12-.42-.21-.84-.27-1.27-.1-.7-.11-1.47.31-2.04.27-.35.67-.58 1.09-.73.38-.14.77-.23 1.18-.24.25 0 .87-.05 1 .24.04.1.03.22.02.33-.03.33-.07.66-.12.98-.07.4-.17.81-.17 1.22 0 .85.42 1.64.92 2.32.16.22.33.43.45.67.02.05.04.11 0 .14-.03.03-.09.02-.13 0-.3-.15-.39-.53-.42-.87-.19-1.76-.06-3.55-.37-5.29-.19-1.04-.59-1.95-.86-2.97-.07-.24-.11-.53.05-.73.19-.23.5-.26.77-.32.36-.09.7-.27 1.07-.35-.09.02.47 1.33.51 1.44.09.22.11.48.17.71.07.27.15.53.24.8.35 1.1.7 2.21.91 3.35.3 1.61.18 3.2.11 4.82 0 .2-.02.41-.08.61-.17.52-.7.83-1.18 1.1-.4.23-.8.46-1.2.7-.7.42-1.45.88-2.26.85-.06 0-.13-.01-.17-.06s-.02-.15.05-.14c.16.06.19.26.19.43 0 .44-.01.88-.06 1.31-.04.41-.1.77-.29 1.13-.35.65-.87 1.22-1.52 1.57s-1.41.51-2.14.37c-.27-.05-.55-.15-.7-.39-.07-.12-.1-.25-.13-.39-.03-.18-.04-.36-.05-.53 0-.23.21-.09.15.09s-.24.14-.36.04c-.19-.17-.37-.37-.5-.59-.24-.43-.26-.96-.15-1.44s.34-.92.6-1.35c-.01-.07.19-.09.26-.06s.1.1.12.17c.05.23-.03.51.13.69.14.15.39.14.51.3.08.11.08.26.05.39-.05.21-.17.41-.34.55.05-.32.31-.55.56-.75.38-.29.79-.54 1.25-.67s.97-.12 1.39.1c.19.1.36.24.56.3.02 0 .04.01.06 0 .03 0 .04-.03.06-.06.1-.16.2-.33.3-.49.02.38-.08.77-.3 1.09-.03.05-.08.1-.14.09-.07-.01-.09-.1-.1-.17-.03-.53-.02-1.05.05-1.58.05-.44.14-.88.07-1.32-.05-.29-.16-.56-.27-.83-.1-.25-.21-.51-.38-.73s-.4-.4-.67-.45c-.41-.07-.8.18-1.11.46-.49.45-.87 1.02-1.2 1.6-.21.37-.4.76-.39 1.19 0 .32.38.31.31.04s-.53-.23-.73-.19c-.23.05-.48.12-.7.04-.24-.09-.39-.34-.5-.57-.5-1.03-.76-2.16-.91-3.3-.13-1-.07-2-.09-3.01-.02-.59 0-1.15.26-1.69.44-.94.95-1.85 1.48-2.74.28-.46.54-1.04.91-1.44.34-.37.63-.76.92-1.18.15-.13.24-.36.43-.4.13-.03.26.05.38.12.2.13.39.27.59.4s.18.22.09.45c-.18.46-.48.85-.74 1.27l-1.17 1.86c-.15.25-.31.49-.52.69.43-.87.79-1.77 1.08-2.69.07-.24.14-.48.14-.73-.4.49-.85.97-1.2 1.49s-.65 1.14-.97 1.7c-.65 1.13-1.31 2.26-1.99 3.36s-2.07 4.11-2.28 4.26S.19 38.13.12 38.13" style="fill:none;stroke:#fff;stroke-linecap:round;stroke-linejoin:round;stroke-width:.25px" data-name="Layer 1"/></svg>