<svg data-name="Layer 2" xmlns="http://www.w3.org/2000/svg" viewBox="0 0 328.25 37.25"><path d="M328.12 37.12h-86.74c-.39-.02-.59-.15-.51-.55 0-1.05.11-2.12-.19-3.14-.25-.92-1.13-1.33-1.9-1.76-.59-.32-1.37-1.14-.63-1.72.91-.69 2.36-.89 2.95-1.95.17-.35.22-.73.22-1.11 0-1.85.06-3.7-.09-5.55-.06-1.71-.72-4.92-3.08-4.05-1.82.82-2.92 3.08-5.11 3.07-4.37-.22-2.59-3.68-3.2-6.51-.11-.62-.68-1.59-1.4-1.12-1.86 1.58-2.56 7.83-3.37 10.32-.06.16-.13.32-.3.34l-1.49.07c-.92.22-1.71.95-2.67 1.04-2.41.32-4.57-2.11-5.92-3.84-.73-.99-.82-2.2-1.1-3.35-.3-.71-.67.17-.63.54.09 1.69.4 3.69 1.6 4.97.97.94 2.03 1.86 3.25 2.45.37.13.76.09 1.14.02.97-.2 1.97-.09 2.95-.27.59-.11.91-.27 1.07-1 .25-1.35.45-2.85.53-4.21.02-1.61-.08-3.22-.11-4.84-.17-2.23-1.34-4.45-3.22-5.71-.87-.5-.69-2.08-.58-2.94 0-.03.03-.05.05-.06.06-.01.09.06.09.12.06.57-.06 1.71-.69 1.94-.51.06-1.24.11-1.51-.42-.21-.7-.14-.79.59-.91.15-.05.2-.13.14-.28-.2-.71-.79-1.38-.63-2.14.18-.68.55-1.02 1.28-.82.41.11.86.21 1.09.62.14.21.3.43.35.68.05.24.04.82-.31.85-.36-.11-.27-.68-.21-.97.06-.72.21-1.69-.09-2.39-.17-.56-.53-1.12-1.18-1.14-1.16-.04-2.59.04-3.32 1.09-.32.57-.21 1.04-.16 1.74 0 .03.04.03.04 0-.02-1.39.53-1.7 2.08-1.81 1.04-.17 1.77.11 2.74-.02 1.01-.32.09-1.48-.51-1.76-.89-.45-1.91-.54-2.9-.54-1.87-.13-2.32 1.82-2.09 3.32.05.77.39 1.79.14 2.51-.16.3-.55.19-.7-.06-.7-1.02.27-2.61.86-.81.18.44 0 1.42.11 2 .17.86.85 1.53 1.49 2.09.46.37.97.43 1.51.2.4-.1 1.28-.75 1.51-.18.07.2 0 .59-.14.76-.27.34-.34.55-.75 1-.38.37-1.07 1.33-.33 1.65.32.06.54-.27.56-.55.09-.59-.52-.91-1.06-.83-.35.04-.7.15-1.05.13-.4-.03-.79-.24-1.02-.57-.38-.42-.36-1.92.48-1.27.49.37.98.74 1.46 1.11.15.12.36.25.55.14.3-.26.34-.84.53-1.17.09-.17.32-.18.43-.02.34.75.58 1.55.61 2.38.24 2.88.58 5.74.84 8.61-.45 1.97-5.14-9.76-5.43-10.49-.2-.39-.45-1.55-1.05-1.09-.26.22-.49.48-.77.69-.99.77-2.21 1.17-3.16 2-1.79 1.67-1.53 5.93-1.1 8.18.52 2.8 2.97 4.03 2.66 7.04-.2 2.58.22 5.74 2.88 6.88 1.59.77 3.5 1.25 5.14.38.97-.49 1.51-1.48 2.19-2.28.76-.87 2.17-1.9 3.26-.98 1.48 1.43 2.37 2.97 4.58 3.43.88.23 3.09.55 3.35-.61-.11-.97-1.25.08-1.72.2-1.43.47-2.62-.99-3.17-2.13-.3-.67-.34-1.44-.35-2.17 0-1.45.14-2.9.11-4.35 0-.36.02-.96 0-1.32-.01-.15-.21-.18-.28-.05-.38.99-.53 2.1-1.25 2.93-.23.24-.54.57-.9.47-.42-.2-.09-.69.18-.91.3-.3.6-.6.86-.95 1.11-1.32.76-4.35 1.77-5.25.2.17.02 1.04.06 1.35.04 1.83.06 3.67.22 5.49.13.93 1.17 1.05 1.93 1.13.59.08 1.27.3 1.32-.54.13-1.42-.29-2.86.07-4.26.13-.51.41-.54.58-.04.52 1.35.73 2.99 1.71 4.11 1 .81 3.05.71 4.13.09.47-.35-.18-.73-.54-.65-.38.03-.74.15-1.11.23-1.84.53-1.35-1.75-1.25-2.83.11-1.02.37-2.07.13-3.09-.29-.94-1.73-.44-1.96.34-.29.99-.09 2.07-.1 3.09.07 1.36.26 5.4.43 6.7.11.85.13 1.73.42 2.54.47 1.12 1.97.69 2.82.33 1.11-.47 1.65-1.58 2.07-2.65.15-.22.37-1.09.72-.6.17.22.25.48.3.75.04.66.68.97 1.26.77.38-.1.61-.38.72-.75.24-.71-.49-1.15-1.11-1.14-1-.02-1.19-1-1.44-1.88-1-2.78-.09-5.69-.27-8.55-.01-.33-.11-.78-.49-.84-.57-.03-.64.69-.53 1.12.44 2.69.86 5.41 1.55 8.05.25 1.23.87 1.63 2.05 1.89 1.2.26 1.3-1.23 1.17-2.06-.34-2.4-1.29-4.69-1.45-7.12-.18-1.84-.33-3.68-.46-5.53-.12-1.36-.11-2.74-.33-4.09-.17-.92-1.28-.92-1.98-1.25-.83-.29-1.58-.72-2.27-1.28-.54-.42-1.07-.99-1.77-1.11-1.36-.11-1.28 2.32-3.12 1.47-.67-.29-1.32-1.08-1.36-1.82 0-.04.05-.06.08-.04.34.2.61.59 1.05.48.59-.12 1.26-.03 1.79-.37.63-.56-.52-.47-.82-.6-.41-.16-.08-.75-.48-.89-.3-.07-.41-.1-.33-.42.13-.58.4-1.43 1.12-1.42.53-.02 1.16.05 1.19-.71.03-.67-.17-1.61-.96-1.7-.7-.13-1.43-.1-2.12.08-.29.09-.5.28-.55.57-.26 1.2-1.33 2.04-1.63 3.22-.15.79.97 1.14.73.3-.17-.58-.38-1.16-.55-1.74-.26-1.31.24-2.91 1.52-3.49.97-.47 2.21-.33 3.12.24 1.19.72 1.27 2.13 1.09 3.38-.06.45.09.88.14 1.32.01.12.26.19.37.11.5-.45.1-1.6-.31-.45-.21.64-.25 1.4-.26 2.07.04.85.54.93.93 1.36.4.22.34 2.47.16 3.98-.05.84-.37 4.73-1.18 4.93-.59-.16-.94-4.52-1.09-5.28-.12-.71-.3-2.52-1.34-1.46-.46.92 1.7 1.55 1.46.3-.3-.83-.3-1.85.6-2.24.83-.39.8.84.78 1.35-.17 2.3-.6 4.64-1.01 6.91-.14.34-.44 3.59-1.02 2.18-.93-2.54-1.52-5.18-2.22-7.79-.21-.72-.39-1.87-1.4-1.65-.77.1-1.48.39-2.17.71-.79.34-1.75.84-1.73 1.84.38 3.08.13 6.2-.77 9.18-.37 1.15-.8 2.28-1.35 3.36-.59 1 .46 2.13 1.12 2.81.25.28.77.38.85-.08.02-.66-.66-1.56-1.28-1.74-1.18-.15-2.39.35-3.41.92-.89.44-.61 1.32.09 1.81 1.7 1.53 3.4-.32 1.64-1.77-.81-.74-2.26-1.24-2.97-.12-.31.42-.48.91-.69 1.39-.9 2.42-2.15 1.21-3.58.05-.77-.54-3.28-3.38-4-1.88-.4.99-.29 2.08-.29 3.12.02 1.21.14 2.41.17 3.61.05 1.18.08 2.36.07 3.55 0 .13-.11.24-.25.24H.12" style="fill:none;stroke:#fff;stroke-linecap:round;stroke-linejoin:round;stroke-width:.25px" data-name="Layer 1"/></svg>