<svg data-name="Layer 2" xmlns="http://www.w3.org/2000/svg" viewBox="0 0 1128 128"><path d="m0 126.87 492.36.34 5.06-4.02v-3.22h-4.14s-.23 1.61-1.03 2.3c-.8.69-2.07 4.25.86 5.23l4.31-3.76.34-3.42s1.9 0 1.72-2.99c-.17-2.99 3.45-44.94 3.45-44.94l3.33 47.35 6.32.57 6.78 2.87s1.49 1.49-1.03 1.49-11.15-.11-11.15-.11l-.23-3.33 5.8-.46s2.82-44.48.98-55.22h-21.84c-2.32 2.78.38 51.29-.23 52.69l5.4.34-4.48-1.84.46-48.73s.23-.8-2.93-2.47c-3.16-1.67-1.09-13.91-1.09-13.91s11.53-4.81 12.91-12.32l-3.14-3.08 2.44-3.76c.84-.75.63 1.24.72 1.57l2.99-3.22s1.09-.57 1.26.52l-2.7 2.47s4.14-4.15 4.48-3.14c.34 1.01-3.22 3.54-3.22 3.54 3.87-3.66 5.54-1.74.52.86 0 0 2.56-2.15 3.13-1.38.57.78-4.48 4.6-4.48 4.6s-1.58 1.24-5.55-1.87l-9.88 7.79s4.31.8 4.48-4.65c.17-5.46 0-11.72 0-11.72s.11-2.76-2.82-2.87c-4.69-.62-10.11 26.33-3.68 26.72 5.86-.29-.23-1.32-.23-1.32-3.25 1.75 1.4-22.47 1.92-22.08 7.88-10.77 11.75-1.26 10.72-14.18 0 0-2.03-3.52-1.19-6.67 0 0 .92-.61 2.22-.61 0 0 1.15-2.99 7.59-1.76.78 1.52-6.2-.53-6.82 3.83 0 0 .08.61-2.38.54-.04 3.05 2.75 3.09 1.23 4.67 0 0-1 .61-2.99-2.83-1.99-3.45.08-8.27.08-8.27.02-.05.19-.11.23-.14.22-.12.43-.25.65-.36.73-.38 1.47-.73 2.23-1.03s1.59-.58 2.42-.75c.74-.16 1.51-.26 2.27-.21.71.04 1.41.2 2.03.56.44.26.82.61 1.12 1.02 0 0 1.26 1.53.23 3.18-.78 3.88 3.12 16.2-6.68 10.4 1.78.05 4.4.8 3.74 4.65 3.29 4.8-4.19 6.07-6.21 4.6 0 0-2.47-4.37.86-4.31 3.33.06 4.02 2.24 4.02 2.24s.34 2.47-1.49 2.13c-1.84-.34-1.38-1.72-1.38-1.72s.34-4.25 5.29-2.24c7.86 3.82 9.82 2.64 11.55 10.57 1.21 6.61 3.64 17.32 2.72 29.04 0 0 0 1.38-2.45 1.38s-2.83.23-3.14-2.22c-.31-2.45-3.22-18.08-3.14-26.43 0 0 5.44 20.91 2.83 30.65 0 0-17.39.08-20.99-2.14 0 0-1.62-.5-1.3-6.21s1.53-2.91 1.53-2.91c1.95 1.93 7.06 14.73 9.19 4.9 1.53-7.28 2.61-3.91 2.61-3.91l7.74 9.42.15-2.45 6.21-.15.63 5.98s-.06 3.51-2.24 3.33-2.01-1.78-2.01-1.78c3.08 1.48 3.45-2.69.46-1.09l-.06-3.91 1.29-.05c1.91.63 9.13-3.49 8.93-.84-3.77 8.12.12 42.34-.11 46.92h5.9c-.39 2.19 1.87 15.3-1.23 15.65-1.76-.08-2.3-1.99-2.3-3.98 0 0 2.64-.88 3.45-.19.8.69-3.33-.27-3.33-.27s.69-2.57.65-6.24c-.04-3.68 0-4.6 0-4.6l4.67-.04 1.15-28.31s-2.41 22.41.46 26.89l4.29.34-.27 8.16 1.57 1.8 1.47.67 3.33 3.16-4.88.23-2.01-1.9-2.13-.29v1.61l-1.55-.17s.06-4.83 1.21-5.34c0 0 2.01 2.13 4.14 2.24l-4.14-1.93-.11-7.97 5.78.38s5.94-38.58 3.7-45.02c0 0 .29 7.01-.63 7.47-.92.46-3.91-1.72-3.91-1.72s5.06 0 3.8 4.6c-2.34 6.66-.78 10.24-5.75 8.27-2.76-1.26-13.79-6.21-13.79-6.21-1.66-.67 3.24-11.36 2.76-10.86 3.19.09-.36 3.47 5.92-.46 0 0-.17-.63-2.24.46-2.07 1.09-.11 3.74-.11 3.74.82 1.44.92 4.03 3.91 2.53 1.61-1.15-1.03-3.91-1.03-3.91s-.06-1.09 1.32-.34c1.38.75-1.44-1.27-1.61-3.56s-7.3-16.47-7.3-16.47 0-12.03.46-6.97.46 6.97.46 6.97l5.77 12.72s.92 1.9-2.55 4.29c-4.24 2.49-8.06-13.1-9.42-14.63.4-.65 2.18-20.44 3.62-19.98 2.06-.89 5.53-2.73 7.67-3.27.43-.12.72-.24.36-.28-2.19-1.03-4.23 4.61-4.65 6.03-.24 2.25 4.96 8.77 5.19 10.97 1.03 4.48 2.21 5.78-3.53 6.21-3.14.54 4.14 0 4.14 0L533.51 28c1.46-2.3 1.15-8.43 1.15-8.43-1.32-.1-1.97-5.13.92-4.2.82.32.54-1.71.69-2.04 0 0 .57-1.38 5.4-1.26s1.84-1.84 1.84-1.84c-4.6-4.6-7.82-2.07-10.34 1.15-2.46 3.15-4.52-1.23-3.01-3.02 1.56-2.08 4.13-1.8 3.35.72-4.1 4.77-3.06 15.23-2.53 17.28 8.41-3.5-2.3-9.49 2.53-12.34 1.72-.8 2.53-2.41 2.99-3.1s1.38-.57 5.17-.23c3.79.34 2.72 6.28 2.72 6.28s.54 4.98-2.38 5.82c-1.34.65-6.22-.58-4.91-1.46 2.6-.01 3.53 1.92 3.53 1.92-.25 1.18.66 4.97-1.19 5.28-.89.6-6.54.36-4.94-1.37 0 0 2.91 1.46 4.98-.35 2.07-1.8 4.67.88 4.67.88l4.83 2.82c1.1.48.9 2.92 1.14 3.85 0 0-4.52 1.55-2.99.52 1.53-1.03 6.19 1.67 6.19 1.67-2.15-5.31 1.81.47 3.41 2.08.42.5.49 1.2.19 1.78-.92 1.74-.66 2.47-.66 2.47l2.86-2.29c2.05-1.47 9.89 6.29 11.79 1.95 0 0 3.68-5.23 5.69-7.3 2.01-2.07 1.21-5.46 1.21-5.46s4.02-.8 6.44-2.59c2.41-1.78-5.69 1.84-5.69 1.84-.15-1.49-.86-5.5 2.87-3.56-7.9.34-6.38-.15-7.01-7.59 2.53-2.53 3.85-5.69 3.85-5.69 3.05-1.38 4.08 1.26 4.08 1.26 0 2.95 3.79 1.48 2.36 6.67-.82.23-.85 4.09 1.17 2.22 4.52-3.45 3.49-6.55 3.49-6.55-1.2-.68-2.03.67-.77.73 1.99-.46.88-2.5.88-2.5-2.58-4.6-7.47-4.09-10.38-4.24-.44-.02-1.31-.03-1.75.54-.42.55-.25 1.3-.05 1.9 0 .03.02.05.03.07.02.02.04.04.07.06 1.29.93 2.58 1.86 3.86 2.8.14.1.27.2.41.3v2.07c3.36.21-.91 5.63 2.75 6.17 0 4.42.75 5.57.75 5.57l-6.99 2.66-8.06 10.09s-1.38 2.13-4.37.06c-2.5-1.27-5.3-4.04-7.19-2.43-2.4 3.99-8.4.93-9.64-.29h-1.3v10.51l-2.68 5.58c-.06.27-4.68 4.23-3.98 4.54 1.33 1.81 3.87 2.56 1.24 4.71-.66.59-.51 1.72-.52 2.51.16 1-2.66 3.98-3.1 4.78 0 0-1.69-.92-.92-4.52-.25-.22-1.11-.56-.69-1 .62-.7 2.68-2.56 3.06-3.39 2.26-4.48 1.34-2.83 6.06.25.28-.69 6.93-12.1 6.47-12.55.09-2.35.2-9.54-1.62-10.78-1.93-1.32-3.96-1.74-4.28-3.33-.06-.29.27-.51.52-.36l5.94 3.56c4.55 3.12-4.15 12.43-10.68 10.92-.77.04-2.56-.02-2.56-1.41 0-1.76 1.38-22.68 1.38-22.68 3.36-1.04 4.53 5.66 3.92 8.05l-4.38 7.89-.31 6.59s9.27.23 4.98 2.07c.37-.15-5.19 3.03-13.44.87 2.36-.39 12.4-1.18 13.18 1.37.51-1.24 5.79-12.29 10.84-9.18 2.16 1.93 6.63 5.89 8.95 7.71 7.96 7.09 16.33-16.72 16.43-15.98-10.24 15.41-9.94 10.56-11.84 29.48h15.11s4.08 4.02-3.74 14.37c-7.82 10.34-14.63 40.9-14.63 40.9l-5.28-.15-.17 1.64s-2.64 1.01-5.92 1.84c-3.28.83-1.55 1.75-1.55 1.75l11.35.02.23-3.83-5.44-1c3.72-16.79 2.73-23.27 15.38-42.26 6.26-8.79-11.32 19.77-11.32 19.77l-8.89 22.33-4.06-1.3v2.68s-4.9 2.6-7.28 3.22-1.61 1.53-1.61 1.53 2.3-.08 7.74-.15c5.44-.08 4.37-1 4.37-1l-.15-3.91-5.06-2.15c3.91-30.57 22.22-53.4 22.22-53.4h16.01s1.92-17.55 2.61-24.82c.69-7.28-4.81-11.88-4.81-11.88l6.42 13.03 3.83 22.37-5.06.4-1.69-8.22s2.99 5.52 3.37 8.22c.38 2.7 1.69 3.2 1.69 3.2 2.49-.21 2.39-.93 5.59.08 1.84.61.38-1.46.38-1.46L596.85 66c-.22.22-3.73 1.27-2.99-.92 0 0-1.23-1.92-1.15 1.76s-1.53 2.74-1.53 2.74h-5.06l-.61 4.31 88.11.38-.15-4.69H597.9s-5.17-.11-5.4 1.84c-.23 1.95 1.13 2.01 1.13 2.01h5.52l-10.62 53.33h3.65c.84-.66 7.09-46.1 9.66-46.32 0 0 49.56.69 52.9.46 3.33-.23 3.56 1.72 3.56 1.72l7.93 44.13h461.76" style="fill:none;stroke:#fff;stroke-linejoin:round" data-name="Layer 1"/></svg>