<svg data-name="Layer 2" xmlns="http://www.w3.org/2000/svg" viewBox="0 0 1129 128"><path d="M1128.5 127.5H648.32c-1.34-.05-2.03-.5-1.75-1.88-.03-3.59.36-7.27-.66-10.79-.85-3.15-3.89-4.57-6.51-6.02-2.03-1.1-4.71-3.9-2.17-5.91 3.12-2.38 8.11-3.07 10.13-6.68.59-1.2.74-2.51.76-3.8 0-6.34.21-12.7-.32-19.03-.22-5.87-2.47-16.9-10.56-13.91-6.24 2.83-10.02 10.59-17.53 10.53-15.01-.76-8.9-12.62-10.97-22.34-.39-2.12-2.32-5.45-4.81-3.85-6.4 5.43-8.8 26.88-11.57 35.41-.19.53-.46 1.1-1.03 1.18l-5.1.26c-3.14.76-5.88 3.26-9.17 3.58-8.26 1.11-15.68-7.25-20.31-13.19-2.5-3.41-2.83-7.55-3.79-11.51-1.04-2.42-2.3.57-2.16 1.86.31 5.8 1.36 12.67 5.48 17.04 3.33 3.22 6.97 6.38 11.15 8.41 1.27.46 2.6.32 3.91.08 3.33-.67 6.78-.31 10.12-.92 2.01-.38 3.14-.92 3.67-3.42.86-4.64 1.56-9.77 1.81-14.45.06-5.53-.27-11.06-.37-16.6-.59-7.66-4.61-15.29-11.06-19.6-2.97-1.72-2.38-7.15-1.99-10.09.02-.1.09-.18.18-.21.19-.05.3.2.32.4.2 1.97-.21 5.86-2.37 6.65-1.74.22-4.26.36-5.17-1.46-.72-2.41-.48-2.7 2.03-3.13.53-.16.68-.45.48-.96-.7-2.43-2.71-4.72-2.17-7.35.61-2.34 1.89-3.51 4.4-2.82 1.4.38 2.97.72 3.75 2.14.49.73 1.02 1.47 1.18 2.34.19.83.13 2.83-1.08 2.93-1.23-.39-.91-2.33-.72-3.31.2-2.49.71-5.81-.3-8.19-.57-1.93-1.82-3.85-4.04-3.91-3.98-.14-8.9.15-11.4 3.73-1.1 1.97-.72 3.57-.54 5.99.01.09.15.09.15 0-.05-4.77 1.82-5.83 7.14-6.21 3.55-.58 6.07.39 9.41-.06 3.47-1.11.3-5.07-1.75-6.03-3.06-1.56-6.56-1.86-9.94-1.85-6.43-.45-7.96 6.25-7.17 11.38.17 2.64 1.35 6.14.49 8.63-.56 1.04-1.89.65-2.41-.19-2.4-3.49.93-8.96 2.94-2.77.61 1.5.02 4.88.38 6.86.59 2.96 2.92 5.24 5.11 7.17 1.59 1.26 3.31 1.47 5.18.67 1.38-.35 4.39-2.57 5.18-.61.25.7-.01 2.02-.49 2.61-.94 1.15-1.17 1.88-2.57 3.45-1.3 1.29-3.66 4.58-1.13 5.68 1.1.2 1.86-.93 1.91-1.9.3-2.04-1.79-3.13-3.62-2.84-1.21.12-2.4.52-3.62.45a4.69 4.69 0 0 1-3.49-1.96c-1.3-1.44-1.24-6.6 1.64-4.34 1.68 1.27 3.35 2.54 5.03 3.81.51.41 1.25.87 1.89.49 1.03-.88 1.17-2.89 1.82-4.02.31-.57 1.11-.6 1.48-.07 1.16 2.58 1.98 5.31 2.09 8.18.81 9.87 2 19.7 2.87 29.57-1.55 6.76-17.63-33.52-18.64-36.02-.68-1.34-1.53-5.31-3.61-3.74-.9.76-1.69 1.65-2.64 2.36-3.39 2.65-7.59 4.03-10.84 6.86-6.14 5.73-5.26 20.37-3.79 28.06 1.78 9.61 10.21 13.83 9.12 24.15-.7 8.86.74 19.7 9.9 23.62 5.44 2.65 12 4.28 17.65 1.31 3.33-1.69 5.2-5.07 7.53-7.82 2.61-3 7.45-6.51 11.2-3.37 5.1 4.91 8.14 10.19 15.73 11.79 3.02.78 10.6 1.9 11.51-2.09-.37-3.31-4.29.28-5.91.68-4.91 1.61-8.99-3.39-10.88-7.32-1.03-2.3-1.18-4.95-1.21-7.46.03-4.98.47-9.95.39-14.94 0-1.22.06-3.3-.03-4.52-.04-.51-.73-.63-.95-.16-1.3 3.39-1.83 7.21-4.31 10.04-.77.83-1.85 1.94-3.08 1.61-1.46-.7-.3-2.37.6-3.12 1.03-1.05 2.07-2.07 2.96-3.25 3.81-4.53 2.6-14.95 6.08-18.01.68.58.07 3.58.21 4.64.13 6.28.2 12.59.74 18.85.44 3.2 4.02 3.61 6.63 3.89 2.02.26 4.36 1.04 4.52-1.84.46-4.88-.99-9.82.26-14.63.45-1.75 1.39-1.85 1.99-.12 1.78 4.64 2.5 10.25 5.88 14.09 3.43 2.78 10.47 2.44 14.18.3 1.62-1.19-.61-2.52-1.87-2.22-1.29.1-2.53.52-3.79.78-6.32 1.82-4.63-6-4.28-9.7.36-3.5 1.28-7.12.43-10.6-.98-3.22-5.94-1.52-6.73 1.15-1.01 3.41-.32 7.09-.36 10.59.24 4.68.91 18.53 1.49 23.01.38 2.93.43 5.93 1.44 8.74 1.6 3.85 6.75 2.37 9.7 1.13 3.81-1.63 5.68-5.44 7.11-9.08.52-.77 1.27-3.74 2.46-2.05.6.76.85 1.65 1.03 2.59.14 2.26 2.32 3.34 4.32 2.63 1.29-.34 2.08-1.3 2.47-2.57.84-2.43-1.68-3.94-3.79-3.9-3.44-.06-4.07-3.44-4.93-6.44-3.44-9.56-.3-19.55-.91-29.35-.05-1.13-.39-2.67-1.69-2.88-1.96-.09-2.2 2.38-1.82 3.84 1.51 9.22 2.95 18.57 5.31 27.61.85 4.24 2.98 5.61 7.05 6.5 4.11.88 4.45-4.22 4.02-7.07-1.17-8.25-4.42-16.09-4.99-24.45-.63-6.32-1.12-12.64-1.57-18.97-.41-4.67-.39-9.4-1.13-14.03-.57-3.16-4.41-3.16-6.8-4.28a25.486 25.486 0 0 1-7.78-4.39c-1.86-1.44-3.66-3.41-6.08-3.81-4.68-.39-4.38 7.97-10.71 5.06-2.3-1-4.54-3.7-4.67-6.25 0-.14.16-.22.28-.14 1.16.7 2.08 2.01 3.6 1.65 2.04-.43 4.33-.11 6.14-1.27 2.15-1.93-1.78-1.6-2.82-2.07-1.42-.56-.26-2.57-1.64-3.05-1.03-.24-1.42-.33-1.14-1.44.45-2 1.37-4.91 3.85-4.87 1.83-.05 3.98.17 4.08-2.42.1-2.3-.57-5.53-3.3-5.83-2.39-.44-4.93-.36-7.29.28-.99.32-1.72.96-1.9 1.94-.88 4.13-4.56 7.01-5.61 11.06-.52 2.72 3.34 3.93 2.51 1.02-.58-2-1.3-3.97-1.88-5.97-.91-4.48.83-9.98 5.21-11.99 3.33-1.6 7.6-1.14 10.7.83 4.09 2.49 4.35 7.33 3.74 11.61-.22 1.55.32 3.01.5 4.52.05.42.91.64 1.25.36 1.71-1.56.33-5.49-1.06-1.55-.72 2.21-.87 4.82-.91 7.12.14 2.93 1.86 3.2 3.2 4.65 1.37.76 1.17 8.49.53 13.68-.18 2.88-1.27 16.22-4.06 16.92-2.04-.55-3.24-15.5-3.75-18.12-.41-2.45-1.03-8.64-4.61-5-1.58 3.15 5.85 5.31 5 1.02-1.04-2.84-1.04-6.35 2.05-7.7 2.86-1.34 2.76 2.87 2.69 4.63-.57 7.9-2.05 15.94-3.48 23.73-.47 1.17-1.51 12.32-3.49 7.47-3.19-8.7-5.2-17.8-7.61-26.74-.73-2.48-1.34-6.41-4.8-5.68-2.65.33-5.06 1.35-7.47 2.43-2.73 1.17-6.02 2.88-5.92 6.32 1.29 10.57.45 21.29-2.63 31.5-1.28 3.95-2.76 7.83-4.64 11.54-2.03 3.42 1.56 7.3 3.86 9.64.87.96 2.63 1.3 2.93-.26.08-2.27-2.26-5.37-4.4-5.97-4.05-.51-8.21 1.2-11.7 3.15-3.04 1.51-2.08 4.53.31 6.2 5.82 5.24 11.67-1.08 5.64-6.09-2.76-2.53-7.76-4.27-10.18-.43-1.07 1.44-1.63 3.14-2.35 4.76-3.09 8.31-7.39 4.15-12.29.18-2.66-1.84-11.26-11.59-13.73-6.44-1.37 3.38-.99 7.15-1.01 10.72.07 4.14.49 8.27.6 12.4.19 4.06.26 8.11.23 12.17 0 .46-.38.84-.84.84H.5" style="fill:none;stroke:#fff;stroke-linecap:round;stroke-linejoin:round" data-name="Layer 1"/></svg>