<svg data-name="Layer 2" xmlns="http://www.w3.org/2000/svg" viewBox="0 0 1129 126.9"><path d="M.5 126.37h459.46c10.38.1 20.75-.28 31.13-.13 1.56.02 3.15 0 4.63-.55 1.28-.47 1.93-1.3 2-2.6.1-1.74.31-3.49.87-5.15.39-1.16.94-2.26 1.32-3.42.74-2.27.79-4.71.35-7.05s-1.55-4.37-1.93-6.67c-.32-1.91-.04-3.87-.19-5.79-.09-1.16-.32-2.3-.56-3.44l-.95-4.57c-.27-1.31-.72-2.69-.84-4.01-.12-1.31-.08-2.65.27-3.93.48-1.71 1.79-4.39 3.71-4.75.87-.16 1.76 0 2.62.16 3.85.75 7.64 1.75 11.36 2.99 1.84.61 3.65 1.28 5.45 2 .92.37 1.85.74 2.74 1.16s.82 1.04.58 1.99c-.45 1.83-.9 3.67-.98 5.55-.1 2.22-.49 4.94 1.42 6.57 1.51 1.28 3.82 1.14 5.64 1.63 1.82.49 3.83 1.88 4.77 3.57.55.99.75 2.15.78 3.28.04 2.02-.51 3.91-1.43 5.69-.85 1.63-1 3.93-1 5.76.01 3.16 1.34 6.65-.4 9.29-2.62-5.74-1.91-12.87 1.79-17.99.86-1.19 1.87-2.28 2.61-3.55.38-.65.56-1.31.77-2.04.19-.64.37-1.3.27-1.95-.06-.42-.24-.81-.35-1.21s-.15-.86.04-1.24c.61-1.15 3.19-1.26 4.3-1.38 4.04-.41 8.01-1.46 11.73-3.09 2.02-.89 4.68-2.24 6.94-2.18.45.01.95.12 1.21.48.28.4.17.98-.14 1.36s-.77.6-1.22.79c-8.53 3.71-18.57 3.65-27.39 6.76-2.95 1.04-6.29 2.38-9.03.88-2.1-1.15-3.08-3.62-3.72-5.93-.92-3.32.02-7.52 1.59-10.6.84-1.65 1.86-3.29 3.39-4.35 3.6-2.48 8.45-.92 12.66.26 2.81.78 5.67 1.36 8.57 1.72 1 .13 2.01.25 3.02.32s1.87.01 2.83-.02c1.59-.05 3.17-.1 4.76-.14 1.34-.03 2.83-.21 4.09-.71.21-.08.42-.19.53-.38.65-1.13-2.52-.89-2.95-.84-.97.1-1.93.27-2.88.5l-.08.02c-4.98 1.09-9.89 2.33-15.05 1.9-5.85-.48-11.06-2.86-16.48-4.85-5.67-2.08-11.47-3.82-17.35-5.2-1.07-.25-4.33-.77-3.43-2.7.17-.37.52-.62.87-.84 2.89-1.79 6.62-1.95 9.81-.8 1.7.61 3.26 1.56 5 2.11.61.19 2.05.76 2.68.39 1.35-.81-.75-2.33-1.6-2.75s-1.86-.67-2.79-.97c-5.01-1.61-9.53-5.5-7.34-11.34.56-1.5 1.5-2.84 2.46-4.12.58-.77 1.2-1.54 1.97-2.12s1.75-.95 2.71-.83c2.26.29 3.56 2.31 4.43 4.16.46.98 1.23 1.74 1.82 2.64.22.33.82 1.02.79 1.44-.04.49-.77.75-1 1.18-.18.34-.21.81.06 1.08.11.1.25.17.39.22.38.13.79.17 1.19.13.19-.02.38-.06.56-.05s.39.08.5.23c.8 1.04-2.93 2.64-3.56 2.82-.74.21-1.88-.24-2.54.1-1.34.7-.03 1.28.98 1.39 1.2.13 2.41-.26 3.59-.12.54.06 1.08.32 1.35.79.23.39.24.88.13 1.31-.15.6-.42 1.16-.69 1.72-.16.34-.27.85-.66 1-.14.05-.28.06-.43.06-.36 0-1.45-.15-1.68.14s.07 1.03.11 1.34c.03.34.04.79.21 1.09.28.48.78.68 1.17 1.03s.76.8 1.08 1.24c.64.86 1.23 1.8 2.15 2.39.15.1.37.17.49.03.04-.05.05-.12.06-.19.09-.83-.51-1.64-.93-2.31s-.89-1.38-1.36-2.06c-.56-.81-.5-1.55.58-1.79.44-.1.91-.05 1.36.03 2.49.44 5.04 1.51 7.33 2.55.6.27 1.2.57 1.68 1.01.52.48.89.81 1.58 1.06s1.37.38 2.08.46c.98.12 1.99.11 2.95.31.88.18 1.83.55 2.66.9.76.33 1.5.85 1.83 1.62.55 1.3-.17 3.01.71 4.11.4-.3.26-.98.31-1.43.09-.76.11-1.55.42-2.27.1-.22.21-.45.4-.61.3-.26.72-.32 1.11-.38 2.49-.33 5.11-.07 7.62.08 2.41.15 4.79.48 7.19.64 1.39.09 2.78.09 4.17.22 1.28.12 2.63-.08 3.93-.04 1.13.03 2.25.07 3.38.1.76.02 1.51.05 2.26.15.64.09 1.27.24 1.89.44.43.14.88.34 1.1.73.06.12.11.25.08.38s-.14.24-.28.24c-.08 0-.16-.05-.23-.09-.7-.41-1.52-.57-2.32-.71-2.21-.37-4.44-.56-6.68-.58-1.03 0-2.07-.02-3.09-.01-1.12 0-2.25.05-3.35.31-.79.19-1.82.5-2.4 1.11s-.16 1.27.05 1.9c.35 1.05.59 2.15.72 3.25.27 2.18.15 4.41-.39 6.54.56.39 1.21-.38 1.42-1.03.64-1.98.75-4.13.31-6.17-.23-1.07-.58-2.31.08-3.18.37-.49.98-.72 1.55-.93 1.92-.71 3.83-1.43 5.75-2.14.38-.14.63-.12 1.04-.12-.7-.73-1.41-1.46-2.11-2.19-.98-1.02-2.16-1.87-2.97-3.05-.28-.41-.57-.89-1.06-1-.43-.1-.85.13-1.27.26-2.09.68-4.91-.6-6.9-1.2-4.15-1.25-8.46-1.9-12.69-2.75-.9-.18-2.18-.81-2.79.17-.21.34-.29.73-.37 1.12-.2.98-.39 1.96-.59 2.94-.1.48-.2.97-.44 1.4s-.65.79-1.14.85c1-.76 1.42-2.06 1.64-3.3s.27-2.52.75-3.68a38.44 38.44 0 0 1-5.19-1.14c-.51-.15-1.08-.31-1.55-.05-.42.23-.61.73-.74 1.19-.48 1.69-.63 3.48-.43 5.23-.46-.11-.61-.69-.61-1.17 0-1.73.85-3.34 1.29-5.01.02-.09.04-.18.01-.27-.04-.12-.17-.18-.28-.23-1.44-.6-2.95-1.04-4.49-1.31-.44-.08-.91-.14-1.32.03-.33.14-.58.41-.82.68-1.27 1.46-2.22 3.93-4.48 3.97-.14 0-.28 0-.4-.07-.28-.17-.26-.59-.11-.88.45-.82 1.57-1 2.2-1.7.62-.69.62-1.72.69-2.64.26-3.44 1.94-6.89 1-10.21-.43-1.55-.92-3.18-1.62-4.63-1.92-4-4.04-7.9-6.37-11.68-.18-.29-.52-.05-.74.21s-.25.61-.3.95c-.22 1.5-.97 2.92-2.08 3.95-.92.85-2.07 1.44-2.86 2.41-1.54 1.9-1.26 4.64-1.81 7.03-.6 2.61-2.25 4.85-3.05 7.41-.64 2.04-.72 4.21-1.03 6.32-.14.98-.35 1.98-.94 2.78-.82 1.1-2.21 1.58-3.42 2.22-1.65.88-3.06 2.14-4.7 3.05-2.27 1.26-6.64 1.76-7.95-1.18-.42-.95-.36-2.02-.35-3.06.02-4.56-1.93-8.58-2.44-13.03-.39-3.35.45-6.71 1.28-9.97l1.35-5.33c.22-.85.5-1.72.66-2.59.1-.57.08-1.03.34-1.56 3.22-6.62 12.19-8.14 18.68-6.74 1.81.39 3.56 1 5.3 1.61l5.82 2.04c1.88 2.34 3.65 4.91 4.83 7.67s1.58 5.99.4 8.75c.67-.07 1.21.5 1.71.94 1.29 1.13 2.98 1.67 4.63 2.15 4.04 1.18 8.13 2.19 12.25 3.03.32-.79.23-1.73-.12-2.51-.82-1.84-1.15-3.9-.93-5.9 1.5.67 1.99 2.49 2.67 3.98.76 1.68 1.93 3.13 3.14 4.53 1 1.15 2.05 2.29 3.33 3.11 1.36.88 2.92 1.37 4.45 1.86 2.53.8 5.07 1.6 7.68 2.06.85.15 2.04.03 2.15-.83.05-.41-.2-.79-.46-1.11-1.74-2.17-4.14-3.69-6.19-5.57-2.47-2.27-4.4-5.05-6.62-7.56-4.11-4.63-9.19-8.29-14.3-11.79-.64-.44-1.48-.9-2.16-.51-.5.28-.68.89-.79 1.45-.77 3.9-.04 7.92.3 11.88.06.71.04 1.57-.56 1.95-.58.37-1.36.06-1.88-.38-1.85-1.58-1.82-4.86.06-6.4.35-.28.75-.52.99-.9.42-.66.22-1.53-.07-2.25-.17-.42-.41-.87-.84-1.03-.43-.16-.91.04-1.32.24-1.59.75-3.18 1.51-4.78 2.26-.62.29-1.53.49-1.82-.13-.08-.17-.08-.37-.09-.57-.07-1.89-.98-3.67-2.19-5.13s-2.73-2.62-4.22-3.77c.59-1.15 2.11-1.58 3.37-1.27s2.3 1.19 3.21 2.11c1.4 1.41 2.63 2.98 3.67 4.68.22.36.43.73.49 1.14.16 1.14-.89 2.09-1.94 2.55-.52.23-1.13.4-1.66.17-.39-.17-.66-.52-.92-.87-1.92-2.59-3.85-5.17-5.77-7.76-.59-.8-1.19-1.92-.57-2.7.53-.66 1.56-.55 2.3-.95 1.02-.56 1.23-1.9 1.33-3.06.15-1.81.18-4.18-.39-5.9-.21-.63-.51-1.23-.7-1.86-.26-.85-.3-1.75-.14-2.62.04-.23.11-.47.3-.6.27-.19.67-.06.89.19s.32.58.45.89c.36.84 1.13 1.58 2.05 1.57.6 0 .82-.82 1.01-1.39 1.27-3.73 5-6.48 8.94-6.6 3.94-.11 7.82 2.42 9.31 6.07.1.25.2.51.41.68.49.4 1.21.03 1.7-.37.68-.56 1.29-1.19 1.83-1.88.34-.44.66-.94.65-1.49-.03-1.09-1.25-1.67-2.22-2.19-2.21-1.17-3.72-3.2-5.78-4.54-.8-.52-1.35-1.21-2.11-1.76-1.98-1.45-4.52-1.3-6.83-.93-3.85.62-8.95 1.02-11.8 4.03-1.12 1.19-1.74 2.81-1.84 4.44-.11 1.84.61 3.47.88 5.23.32 2.04 1.1 4.01 1.42 6.06.1.65.19 1.32.11 1.98-.07.58-.23 1.04.16 1.57.37.5 1.11.43 1.73.41 3.72-.08 6.3 3.86 9.9 4.78 2.29.59 4.81-.17 6.61-1.7s2.93-3.76 3.42-6.07c.55-2.61.36-5.43 1.51-7.84-1.67-.07-3.42-1.07-4.92-.32-1.15.58-1.62 2.01-1.62 3.29s.34 2.56.29 3.85c-.01.31-.06.65-.28.87-.8.79-2.28-.93-3.14-.22.08.67.84.99 1.48 1.23s1.35.75 1.2 1.41c-.74.37-1.65.16-2.39-.2s-1.42-.88-2.21-1.14c-.19-.06-.41-.1-.57.01-.19.14-.18.42-.12.64.46 1.51 2.51 1.6 3.94 2.27.19.09.37.2.48.37.22.36 0 .84-.33 1.1s-.75.37-1.12.57c-2.38 1.26-2.24 5.42-4.81 6.2-.32.1-.77.28-1.05.47 1.35-.82 2.7-1.64 4.05-2.47.61-.37 1.41-.74 1.99-.33.55.38.53 1.19.41 1.85-.15.9-.4 1.85-1.09 2.44s-1.94.59-2.36-.22c-.23-.44-.15-.98.08-1.42s.59-.79.94-1.13c.16-.15.04-.57.19-.73-1.62.52-3.55 1.44-3.57 3.14 0 .42.12.83.1 1.25-.07 1.19-1.29 1.98-2.46 2.2-.49.09-1.06.16-1.34.57-.14.2-.18.45-.21.69-.15 1.23-.07 2.49.23 3.7.17.69.43 1.38.91 1.91.44.48 1.03.79 1.62 1.07 1.56.75 3.18 1.39 4.83 1.92 6.45 2.05 13.56 2.39 19.35 5.9 1.19.72 2.32 1.58 3.59 2.14 2.67 1.18 5.77 1 8.49 2.05 1.61.62 3.2.98 4.83 1.52.22.07.46.16.59.35.14.21.13.49.08.74-.29 1.58-1.49 3.22-.73 4.64.27.51.76.87 1.23 1.2 2.3 1.61 4.67 3.12 7.1 4.52.46.26 1.15.47 1.42.01.11-.18.09-.41.03-.62-.27-.93-1.32-1.78-.89-2.65.23-.46.81-.64 1.31-.57s.95.36 1.38.63c1.67 1.07 3.33 2.13 5 3.2.2.13.4.26.64.27.44.03.82-.37.91-.8s-.06-.88-.24-1.28c-.6-1.3-1.69-2.37-2.99-2.96-.5-.22-1.2-.32-1.48.15-.33.56.33 1.18.91 1.47.87.44 1.78.82 2.7 1.13.74.25 1.83.28 2.01-.48.07-.3-.06-.61-.2-.89a8.099 8.099 0 0 0-4.54-3.89c1.22 1.69 3.22 2.81 5.3 2.96.18.01.4 0 .5-.14.1-.14.05-.34-.01-.5-.43-1.06-1.28-1.89-2.14-2.64-1.58-1.37-3.31-2.61-5.3-3.25-1.74-.56-3.59-.62-5.41-.68l-6.23-.21c.12.32.07.69-.13.96l.66-2.48c-2.46.09-4.32-2.13-6.08-3.56s-3.49-3.04-4.29-5.23c-1.18-3.2-1.19-6.97-1.27-10.36s.06-7.1.26-10.65c.06-1.11.13-2.23.49-3.28.68-2 2.43-2.85 4.33-3.46 2.2-.71 4.66-.91 6.77.02-.14.62-.51 1.14-.73 1.73s-.28 1.32.14 1.79c.3.33.86.63.7 1.06-.13.35-.62.34-.94.51-.35.18-.52.6-.53.99s.14.77.28 1.14c1.66 4.22 4.02 8.14 6.79 11.73.29.37.65.78 1.12.78-.1-.9-.38-1.78-.7-2.63-.8-2.15-1.8-4.23-2.98-6.2-.66-1.1-1.41-2.32-1.12-3.57.12-.51.41-.96.56-1.46.33-1.07 0-2.23-.53-3.21s-1.27-1.83-1.87-2.77c-.1-.15-.19-.32-.19-.5 0-.31.28-.55.56-.67.76-.31 1.65-.02 2.26.53s.97 1.31 1.26 2.07.53 1.55.96 2.25c.16.27.37.53.67.62s.69-.09.71-.4c-.14.59.19 1.18.56 1.66s.81.94.95 1.53c.14.61-.06 1.24-.28 1.82s-.45 1.19-.37 1.81.63 1.22 1.24 1.13c.48-.07.82-.52.98-.97.32-.89.16-1.87.22-2.81s.45-2 1.35-2.3c.14-.05.3-.08.4-.18.42-.43-.45-1.39-.48-1.9-.03-.68.53-1.33 1.03-1.74.35-.28.78-.52.92-.95-.67.45-1.34.9-2.01 1.34-.3.2-.6.4-.95.5-1.25.37-2.51-.55-3.27-1.45l-2.06-2.45c-.43-.51-1.02-1.23-1-1.97.04-1.15.92-1.24 1.73-.7 1.35.89 2.29 2.27 3.57 3.26.67.52 1.48.93 2.33.89s1.71-.64 1.81-1.49c.02-.19 0-.39-.11-.54-.41-.58-1.4.05-2.01-.32-.53-.32-.35-1.2.16-1.56s1.16-.39 1.76-.5 1.27-.42 1.43-1.01c-.99.09-1.98.18-2.97.06-.45-.06-2.53-.41-2.13-1.26.27-.57 2.05.15 2.63-.1.36-.15.63-.48.99-.63.41-.18.93-.12 1.26-.42.42-.37.32-1.03.2-1.57-.16-.72-.29-1.46-.19-2.2s.47-1.46 1.11-1.83c.67-.39 1.53-.32 2.24 0s1.3.84 1.88 1.36c-.03-.68-.23-1.35-.26-2.02-.04-.7.36-1.54.07-2.17-.24-.53-.91-.84-1.46-.91-.8-.11-1.6.1-2.4.08-1.74-.06-3.13-1.19-4.76-1.62-1.71-.45-2.24 1.35-2.81 2.66-.32.73-.59 1.5-1.1 2.12s-1.32 1.06-2.09.88c-.61-.14-1.07-.62-1.49-1.08.39.42.64 1.55.91 2.1.38.77.63 1.64.8 2.49.34 1.66.31 3.4-.1 5.05-.35.02-.67.29-.76.63.57-1.49.78-3.26.45-4.83-.27-1.28-1.21-2.18-1.61-3.39-.45-1.36.33-2.35.57-3.61.2-1.06-.22-2.16-.04-3.23.22-1.34 1.31-2.35 2.39-3.17 1.44-1.1 3.02-2.09 4.79-2.5s3.75-.2 5.18.92c1.1.86 1.75 2.12 2.73 3.09.44.44.88.81 1.48.91.66.11 1.29-.05 1.82.49.31.32.43.8.42 1.25s-.14.89-.28 1.32c-.26.85-.42 1.81-.76 2.62-.77 1.84-1.71 3.74-2.67 5.49-1.07 1.96-1.7 4.26-2.48 6.37-.06.15-.11.35.01.46.11.11.29.07.44.05.97-.09 1.49 1.07 2.06 1.87.97 1.36 2.47 2.28 3.9 3.07 1.52.84 3.22 1.32 4.66 2.27.61.41 1.18.93 1.47 1.61.29.68.25 1.45.21 2.19-.13 2.07-.5 4.05-.89 6.07-.36 1.86-.61 3.74-.75 5.63-.14 1.86-.17 3.73-.35 5.59-.21 2.22-.64 4.41-1.28 6.54 1.69-.7 2.86-2.22 4.01-3.65 2.39-2.96 4.98-5.74 7.77-8.33 1.97-1.83 4.16-3.62 6.81-4.1 1.05-.19 2.12-.16 3.17-.3 1.5-.2 3.1-1 3.67-2.51.65-1.73-.49-3.16-1.22-4.65-1.06-2.13-1.42-4.6-1.04-6.95.35-2.19.59-4.32 2.04-6.11.35-.44.75-.85 1.21-1.17 1.57-1.1 3.68-1.97 5.56-2.36 1.1-.23 1.57-.19 1.61 1.07.01.36-.04.73.07 1.08.09.29.28.54.47.78 1.05 1.29 1.6 2.7 2.48 4.13-1.74-1.54-4.85-1.19-5.44 1.32-.34 1.45.41 2.91 1.09 4.23.45.86-.35.88-.92.94-.76.08-1.2.67-1.86.93-.79.31-1.64.08-2.44.16-.15.8 4.92 1.28 5.71 1.3-1.11 1.37-3.17.89-4.12 2.58-.12.22-.22.49-.13.72.08.19.28.31.48.39.52.21 1.05.21 1.59.17 2.86-.23 5.31-2.5 6.26-5.2.96-2.71.59-5.75-.46-8.42 1.16 3.55 1.7 7.55.11 10.92-.51 1.09-1.24 2.08-1.65 3.21-.35.96-.47 1.98-.77 2.95-.37 1.19-1 2.28-1.68 3.33-4.71 7.3-11.79 12.89-16.15 20.41-.62 1.08-1.2 2.24-1.25 3.48 6.62-2.75 12.36-7.23 17.87-11.81.63-.52 1.27-1.06 1.65-1.79s.43-1.68-.1-2.31c-.3-.36-.75-.57-1.11-.87s-.64-.81-.44-1.24c.09-.19.25-.32.42-.43 1.03-.66 2.39-.57 3.45-1.18 2.25-1.29 2.25-4.17 2.38-6.4.01-.02.03.03 0 .03s-.04-.02-.05-.04a2.286 2.286 0 0 0-1.85-1.27c-1.85-.15-3.05 2-4.57 2.75-.3.15-.62.28-.89.48-.32.24-.55.57-.79.89-2.7 3.7-6.02 6.83-8.83 10.41-1.11 1.41-2.22 3.79-3.97 4.51-.09.04-.19.07-.29.06-.92-.06.45-2.99.64-3.48.54-1.38 1.15-2.73 1.8-4.06 1.3-2.67 2.73-5.28 4-7.96.46-.97.97-2.5-.28-3.12-.6-.29-1.3-.26-1.96-.31-1.29-.09-2.67-.59-3.3-1.72-.52-.92-.43-2.05-.32-3.1.2-1.98.39-3.96.6-5.94.27-2.59.88-5.25 2-7.65.89-1.91 2.24-3.53 3.66-5.06 1.36-1.46 2.78-3.01 4.82-3.42 1.19-.24 2.41-.1 3.62.04.93.11 1.86.21 2.75.47.83.24 1.62.62 2.39 1.03 1.85 1.01 3.7 2.45 4.16 4.51.43 1.91-.64 4.07-1.16 5.9-.02.06-.02.16.04.18s.02-.13 0-.06c-.46 1.37.32 3.76.77 5.06.5 1.42 1.8 2.49 1.26 4.1-.56 1.69-2.46 3.14-3.63 4.41-.24.26-.48.53-.58.87-.1.34-.05.7.04 1.04.4 1.64 1.46 3.04 2.64 4.25s2.5 2.28 3.61 3.55c.29.33.57.69.66 1.13.06.32.02.65-.03.97-.23 1.53-.46 3.06-.7 4.59-.8 5.25-2.78 10.54-5.93 14.81-.98 1.32-2.22 2.53-2.62 4.12-.04.17-.06.39.07.51.09.08.23.09.35.09 1.55-.05 2.7-1.37 3.77-2.48 1.54-1.6 3.55-3.06 5.77-2.89 1.01.08 2.09.61 2.37 1.58.1.35.09.73.05 1.09-.12.99-.47 1.94-1.03 2.77-.42-.77-.64-1.65-1.07-2.41s-1.19-1.45-2.07-1.41c-.5.02-.96.27-1.37.55-1.46.97-2.65 2.35-4.25 3.08-1.33.6-2.74.62-4.15.87-1.43.26-2.87.9-4.26 1.34-2.99.93-6.03 1.73-9.14 2.08-2.14.24-4.31.28-6.39.85-2.43.67-4.61 2.04-7.04 2.71-.44.12-1 .18-1.28-.18-.13-.17-.16-.38-.19-.59-.13-.95-.27-1.91-.4-2.86-.13-.93-.26-1.89.02-2.79.31-.97 1.07-1.74 1.93-2.28 3.31-2.05 7.67-.94 11.38-2.1 2.71-.85 4.9-2.85 6.72-5.02 2.31-2.74 4.18-5.85 5.55-9.16-.36-.32-.89.09-1.19.46-2.2 2.78-4.39 5.56-6.59 8.34-1.01 1.28-2.04 2.57-3.38 3.5-1.15.8-2.49 1.29-3.83 1.69-2.62.77-5.33 1.21-8.06 1.31.25-.85 1.13-1.34 1.65-2.07.65-.9.69-2.09.63-3.2-.14-2.82.1-5.66-.08-8.49-.09-1.36-.22-2.76.18-4.07.16-.52.71-1.53 1.34-.93.35.33.38.88.35 1.37-.1 1.66-.39 3.24-1.29 4.66-.77 1.22-1.77 2.26-2.78 3.28-1.85 1.86-3.68 3.78-5.85 5.28-1.1.76-2.28 1.41-3.54 1.88-1.13.42-2.82 1.36-3.73.06-.64-.93-.4-1.9-.56-2.94-.24-1.53-1.67-3.2-1.14-4.79.19-.57.72-.93 1.2-1.28 1.89-1.4 3.45-3.23 4.53-5.32-3.36 1.49-5.4 5.33-8.94 6.31-1.08.3-2.5.15-2.97-.87-.59-1.28.73-2.55 1.65-3.62 1.52-1.77 2.09-4.21 3.04-6.3.89-2.18 1.78-4.36 2.68-6.53.51-1.23.93-2.51 1.41-3.75.12-.32.25-.65.29-.99.02-.18.01-.37-.11-.51-.14-.15-.38-.16-.58-.11-.36.1-.65.38-.9.66-.65.73-1.09 1.58-1.58 2.41-.66 1.1-1.08 2.43-1.54 3.62-.94 2.44-1.72 4.93-2.34 7.47-.28 1.17-.62 2.34-1.11 3.44-.35.8-.71 2.3-1.63 2.61-.37.13-.78.06-1.15-.05-1.5-.43-2.77-1.57-3.38-3 2.31-4.13.48-9.49 2.39-13.81.61-1.38 1.57-2.58 2.53-3.75.88-1.06 1.76-2.12 2.69-3.13 1.04-1.14 2.21-2.41 2.16-3.95-.03-.87-.45-1.79-.1-2.59.19-.42.57-.73.81-1.12.61-.99.25-2.27-.12-3.37-.29-.85-.71-1.83-1.59-2.03-.91-.21-1.75.54-2.33 1.27-1.87 2.36-3.08 5.17-4.27 7.94-.5 1.17-1 2.34-1.37 3.55-.85 2.85-1.04 5.87-.8 8.81.36 4.33.14 8.7-.64 12.97-.76-.58-1.57-1.23-2.33-1.8-.8-.61-1.6-1.21-2.34-1.89-1.62-1.48-2.59-3.62-3.55-5.55-2.15-4.28-4.66-8.44-6.1-13.03-.16-.49-.55-1.96.29-1.96.45 0 .95.8 1.15 1.13 1.82 3.01 3.76 5.89 5.24 9.1s2.58 6.48 3.34 9.88c.2.88.63 2.24.3 3.13-.29.79-1.25 1.41-1.96 1.76s-1.53.64-2.14 1.19c1.35-.67 2.81-1.24 4.31-1.14.75.05 1.49.27 2.2.51 2.38.8 4.67 1.85 6.83 3.12-.08.3-.53.21-.8.05-1.55-.9-3.2-1.61-4.91-2.13-.86-.26-1.73-.47-2.61-.62-1.42-.25-3.37-.57-4.44.71-.27.32-.42.73-.58 1.12l-1.38 3.6c-.6 1.57-1.35 3.29-2.91 3.92.73 1.17 1.56 2.28 2.46 3.31 1.33-.55 2.65-1.11 3.98-1.66.08-.08-.18-.06-.12.04s.21.06.31.03c.82-.26 1.68.23 2.29.83s1.1 1.34 1.83 1.78c.22.13.45.23.7.26.32.04.65-.05.97-.12.78-.17 1.76-.16 2.18.52.14.22.2.49.35.7.37.51 1.11.51 1.73.43 1.17-.15 2.32-.42 3.44-.8.76-.26 1.51-.57 2.12-1.09 1.18-1 1.66-2.57 2.08-4.05.36-1.26.65-2.8-.29-3.72-.43-.42-1.02-.6-1.59-.77-1.25-.36-2.49-.73-3.74-1.09-.24-.07-.5-.15-.68-.32s-.27-.48-.12-.69c1.46.62 2.92 1.23 4.37 1.85.76.32 1.56.67 2.06 1.34s.61 1.58.47 2.41-.5 1.61-.85 2.37c-1.02 2.2-2.21 4.58-4.41 5.6-1.15.53-2.44.63-3.66.95-.23.06-.48.14-.64.32-.23.27-.18.71.03 1s.55.46.88.59c1.61.63 3.42.53 5.11.19s3.34-.9 5.05-1.19c2.95-.49 6.03-.12 8.78 1.05-.21-1.46-.52-2.91-.93-4.33-.18-.64-.42-1.32-.97-1.71-.62-.44-1.46-.36-2.22-.25-2.56.36-5.19.79-7.71.22-.71 1.51-2.37 2.56-3.99 2.95-.77.19-1.58.21-2.34.41s-1.53.64-1.84 1.38c-.08.2-.13.43-.06.64.09.27.35.45.55.66.46.48.64 1.16.94 1.74.53 1.01 1.45 1.76 2.36 2.46 2.44 1.88 4.95 3.65 7.46 5.43a106.96 106.96 0 0 1-10.93-7.1c-.49-.37-1.04-.75-1.65-.74s-1.23.68-.94 1.22c-.18-1.3.08-2.62.02-3.93s-.55-2.74-1.72-3.34c-1.77-.9-3.96.58-5.87.03-.17-.05-.34-.12-.46-.24-.13-.14-.18-.32-.23-.5-.19-.67-.37-1.33-.56-2 .71-.54 1.48-1.11 2.37-1.19 1.69-.15 2.97 1.43 3.92 2.83-.86-.9-2.1-1.55-3.32-1.31s-2.19 1.64-1.68 2.78c2.12.09 4.23.43 6.27 1 .3.08.66.24.69.55.02.17-.07.32-.16.46-1.74 2.7-6 4.27-8.41 6.4-.56.5-1.08 1.29-.72 1.94.12.21.31.37.53.49 1.35.74 3.01-.15 4.19-1.16.35-.3.71-.64.83-1.09s.5-1.91.04-1.99c-.43-.07-1.41 1.19-1.66 1.54-.58.79-1.04 1.67-1.36 2.6-.17.49-.27 1.09.09 1.46.2.21.51.29.79.36 1.14.27 2.5.49 3.34-.33.3-.3.49-.69.65-1.08.66-1.55 1.75-4.08 2.02-5.74.52.64-.13 1.6.07 2.4.09.38.37.68.63.96 1.19 1.27 2.37 2.54 3.56 3.81a9.91 9.91 0 0 0-4.24 1.65c3.7 1.54 7.92 1.12 11.8.12.88-.23 1.76-.48 2.67-.51 1.56-.04 3.05.6 4.49 1.19 4.11 1.67 8.36 2.97 12.69 3.9 3.4.73 6.65 1.88 10.07 2.49 1.59.29 3.19.52 4.72 1.02s3 1.31 4.02 2.56c.57.7.99 1.52 1.36 2.35 2.49 5.55 3.68 13.34.25 18.78-.35.56-.71 1.13-1.2 1.59-.8.76-2.39 1.32-2.38-.31 0-2.91 1.12-5.69 2.12-8.42.99-2.74 1.9-5.64 1.46-8.52-.3-1.99-1.24-3.85-2.44-5.47-.35-.47-.48-1.32 0-1.66.19-.14.44-.17.68-.19a95.29 95.29 0 0 1 20.26.24c-1.01 1.08-2.4 1.75-3.83 2.11-1.43.36-2.92.44-4.4.49-.64.02-1.29.04-1.89-.16-.8-.26-1.45-.88-1.97-1.55-.83-1.07-1.41-2.31-2.15-3.44-1.85-2.82-4.66-4.9-6.6-7.66-.4-.57-.77-1.33-.42-1.93.05-.09 1.08-.21 1.25-.26.34-.11 1.04-.24 1.3-.5.62-.62 0-1.86-.34-2.49a63.12 63.12 0 0 0-1.82-3.21c-.29-.48-.6-.97-1.06-1.29-.76-.52-1.46-.2-2.19.18-2.2 1.15-4.77 1.59-7.23 1.23-4.97-.73-9.84 2-14.56 3.73-.64.24-1.48.41-1.92-.11-.19-.23-.25-.53-.3-.83-.19-1.36-.04-2.76.43-4.04.19-.51.42-1.02.48-1.56.1-.93-.34-1.86-.2-2.78.2-1.27 1.66-2.18 2.89-1.79-3.49-.39-6.97-.79-10.46-1.18 1.46-.12 3.01.06 4.18.93 1.93 1.43 2.21 4.16 2.32 6.57-3.89-1.94-8.81-1.63-12.42.79.9 1.66 2.99 2.17 4.85 2.51 1.59.29 3.2.42 4.78.75 1.68.36 3.32.88 5.01 1.17 1.41.24 2.84.33 4.24.61 2.11.43 4.06.89 6.22 1.07 2.3.2 4.61.2 6.92.21 3.77 0 7.42.15 11.13-.68 1.81-.41 3.58-.96 5.36-1.51 4.66-1.45 9.32-2.91 13.98-4.36 3.19-1 6.44-2.03 9.57-.86s5.65 3.86 6.61 7.06c.58 1.94.82 3.89 2.88 4.75 1.9.79 3.93-.36 5.3-1.73 1.22-1.22 2.05-2.79 2.59-4.43.48-1.47.77-3.15.5-4.69-.19-1.03-1.19-1.85-1.96-2.52-1.78-1.53-4.02-2.82-4.95-5.08-1.9-4.62 1.91-8.67 3.48-12.67 1.56-3.99 1.93-8.96.69-13.08-.87-2.9-1.84-5.21-4.22-7.23-2.34-1.98-5.57-1.37-8.25-.38-.67.25-1.36.54-1.79 1.11s-.49 1.48.06 1.93c.29.24.68.3 1.06.3 2.12 0 3.99-2.1 3.74-4.2-.29-2.46-4.92-2.15-6.62-1.83-1.94.36-3.6 1.28-5.43 1.95-3.49 1.27-6.06 3.7-8.57 6.38-1.23 1.32-2.18 2.58-2.89 4.24s-.81 3.12-.82 4.87c0 4.15.07 8.11.93 12.21.26 1.25.72 2.51 2.11 2.76.32.06.7-.1.78-.41.04-.13.01-.27 0-.41-.05-.77.6-1.19.6-1.86 0-.13-.06-.24-.11-.36-.29-.6-.56-1.1-.96-1.63-.16-.21-1.09-1.26-.19-1.13.91.13 1.76.63 2.67.84.22.05 2.84.31 2.81.18-.23-.77-1.49-.36-2.15-.83-.64-.45-.45-1.52-1-2.08-.54-.55-1.3-.69-1.11-1.67.08-.43.33-.81.58-1.18l3.23-4.79c.83-1.23 1.32-2.8.18-4.04-1.88-2.05-5.3-.23-6.58 1.57-.99 1.39-1.46 3.08-1.88 4.74 1.14-3.2 3.37-5.9 5.73-8.34 1.75-1.81 3.67-3.57 6.05-4.4s5.31-.52 6.99 1.35c.74.83 1.19 1.92 1.24 3.04.06 1.18-.31 2.33-.47 3.5-.62 4.56 1.93 8.95 2.19 13.54.22 3.86-1.19 7.62-2.76 11.15-.41-3.11.62-6.18.64-9.31 0-.31 0-.64-.14-.92s-.42-.51-.73-.48c-.21.02-.39.15-.56.28-.99.74-1.99 1.47-2.98 2.21-.72.53-1.45 1.07-2.26 1.45-1.44.67-3.09.79-4.66.54s-3.06-.83-4.49-1.53c.73 1.1 1.39 2.29 1.54 3.59s-.35 2.76-1.49 3.42c-.56.32-1.25.45-1.67.94-.31.36-.42.85-.46 1.33-.04.55.03 1.14.36 1.58.37.5 1.02.73 1.65.74s1.23-.17 1.83-.34c4.68-1.39 9.63-2.86 14.37-1.67a10.02 10.02 0 0 1-.19-3.97c-.45 1.6-.34 3.35.29 4.88.29.71.69 1.37.95 2.09.31.86.4 1.78.61 2.68.25 1.07.65 2.09 1.08 3.1.64 1.5 1.47 3.1 2.98 3.68.15-.84.12-1.71-.07-2.54.16.68-.01 1.58.04 2.28s.21 1.36.14 2.04c-.15 1.58-.64 3.19-1.04 4.72-.82 3.13-1.84 6.19-2.86 9.26-1.23 3.7-2.5 7.46-4.71 10.68-1.11 1.61-2.45 3.09-3.27 4.87-.31.67-.5 1.55.02 2.08.22.23.54.34.85.42 2.32.59 4.71 1.55 7.09 1.55h8.65c5.26 0 10.02-.01 15.29 0 10.53.02 20.04-.02 30.57 0l408.27-.02" style="fill:none;stroke:#fff;stroke-linecap:round;stroke-linejoin:round" data-name="Layer 1"/></svg>