<svg width="328" height="37" viewBox="0 0 328 37" fill="none" xmlns="http://www.w3.org/2000/svg"><path d="m259.987 21.171.004-.002c-.017-.28-.015-.563-.02-.845-.006-.32-.01-.325-.358-.324l-8.204.035c-3.908.016-7.816.032-11.725.05-.66.003-1.319.025-1.979.035-.359.005-.718 0-1.094 0 .162-.324.183-.448.042-.551-.403-.296-.804-.617-1.384-.409a.631.631 0 0 1-.204.041c-.054 0-.107-.033-.16-.05.022-.048.032-.126.069-.14.201-.07.2-.22.186-.375-.016-.18-.031-.36-.06-.537-.193-1.19-.371-2.383-.591-3.57-.149-.806-.274-1.625-.693-2.369a3.181 3.181 0 0 1-.28-.659c-.101-.339-.129-.7-.257-1.027-.291-.746-.649-1.463-1.207-2.084-.11-.122-.136-.332-.144-.505-.016-.337.02-.676.007-1.014-.004-.085-.093-.2-.177-.242-.445-.219-.523-.409-.314-.838.256-.524.137-.772-.469-.921.218-.462-.04-.75-.435-.985-.098-.058-.193-.121-.289-.181-.098-.061-.196-.123-.33-.205.633-.08.972.093 1.166.58.096.241.248.41.52.483.187.05.293.175.282.352a9.364 9.364 0 0 1-.095.834c-.022.142-.09.276-.118.417-.055.283.168.466.463.384a.908.908 0 0 0 .252-.11c.575-.38.947-.884 1.085-1.532.021-.098-.002-.214.046-.296.187-.315.053-.578-.145-.82-.855-1.045-2.035-1.298-3.365-1.157-.506.053-.663.301-.486.854.031.097.036.237-.017.315-.248.363-.51.72-.79 1.062-.126.154-.197.29-.153.491.046.21.034.43.064.644.037.263.066.532.145.785.152.489.32.6.868.631.136.008.191.054.202.182.017.207.057.413.078.62.004.047-.019.126-.054.141-.203.086-.206.247-.216.418-.008.14.003.309-.075.412a40.567 40.567 0 0 1-1.465 1.844c-.366.427-.782.818-1.181 1.219-.12.12-.272.122-.429.05-.243-.111-.489-.219-.732-.332-.554-.26-1.106-.526-1.663-.78-.223-.103-.457-.166-.607.017-.133-.098-.275-.179-.385-.288-.28-.276-.543-.567-.819-.848a1.21 1.21 0 0 0-.276-.225c-.062-.034-.184-.043-.23-.01-.045.034-.046.143-.032.212.019.088.072.168.133.303-.183-.091-.311-.17-.45-.221-.19-.07-.295-.17-.309-.376a2.199 2.199 0 0 0-.138-.634c-.052-.138-.15-.292-.277-.37-.706-.432-1.427-.845-2.146-1.26a.472.472 0 0 0-.259-.07c-.135.015-.166-.037-.169-.14-.005-.159-.002-.318-.02-.475-.012-.11.02-.16.142-.17.378-.035.603-.252.722-.566.312-.82.35-1.666.217-2.517-.059-.379-.132-.777-.545-.998-.276-.147-.543-.315-.836-.423-.487-.18-.98-.14-1.433.114-.193.108-.361.255-.559.398.026-.075.047-.127.065-.18.101-.324-.037-.535-.393-.603a.868.868 0 0 0-.897.415c-.196.356-.174.734.081 1.024.318.362.401.717.236 1.143-.028.073-.028.156-.037.235-.093.824-.179 1.65-.059 2.478.017.117.059.255.143.331.07.063.22.047.352.068-.094.057-.18.118-.274.164-.517.25-1.029.505-1.554.74-.336.15-.487.388-.543.721-.236 1.403-.494 2.803-.727 4.205-.089.536-.137 1.073.147 1.588.219.397.401.813.607 1.216.254.494.517.984.776 1.475-.226.011-.463-.012-.678.042-.574.143-1.162.265-1.652.608.004.15-.006.3.016.446.059.41.021.807-.177 1.18-.138.26-.516.361-.779.213-.057-.033-.087-.107-.161-.204l.225.012c.362.016.609-.275.475-.587a.492.492 0 0 0-.271-.261c-.076-.022-.199.103-.296.16 0-.206-.001-.442 0-.678.002-.168.087-.24.276-.24.23 0 .46-.027.69-.043.044-.126.084-.254.135-.378.044-.103.136-.199.146-.302.043-.466.073-.934.091-1.402.067-1.767-.159-3.513-.513-5.243-.211-1.026-.493-2.038-.746-3.057-.101-.406-.366-.7-.765-.877-.707-.314-1.422-.613-2.137-.911-.214-.09-.406-.169-.58-.35-.219-.228-.113-.442-.13-.664-.003-.031.061-.085.104-.098.529-.16.75-.548.763-1.012.021-.776-.022-1.553-.033-2.33-.001-.117-.007-.246.041-.35.262-.557.074-.976-.551-1.175-.75-.24-1.502-.21-2.239.038-.625.21-1.037.602-1.092 1.248-.059.706.098 1.38.404 2.021.081.17.261.295.382.45.057.073.118.166.12.252.013.445.008.892.006 1.338 0 .063.004.14-.032.185-.183.225-.282.551-.695.513-.042-.004-.09.023-.13.044-.456.233-.909.468-1.365.699-.079.04-.169.088-.253.087-.41-.005-.706.18-.961.454-.369.396-.523.88-.656 1.37-.365 1.338-.626 2.693-.725 4.069-.034.47.006.952.084 1.418.063.385.334.677.777.741.453.066.809-.145 1.116-.43.036-.034.058-.116.038-.153-.019-.034-.104-.059-.156-.054-.161.016-.322.048-.483.072-.534.078-.73-.063-.722-.566.007-.425.044-.849.082-1.272.121-1.323.331-2.632.613-3.934.129-.594.444-1.05.968-1.397.196-.13.359-.106.438.107.076.203.15.419.153.63.014 1.094.006 2.189.003 3.283 0 .198-.088.345-.268.473-.351.249-.681.524-1.01.798-.064.054-.083.154-.123.232.094.009.2.047.28.02a11.9 11.9 0 0 0 .814-.315c.271-.113.424-.304.432-.589.005-.176.096-.303.256-.41.403-.268.793-.555 1.191-.833.072-.05.152-.09.178-.107.334.218.625.416.927.6.146.09.199.186.129.343-.28.62-.666 1.18-1.193 1.637a8.777 8.777 0 0 1-2.259 1.398c-.356.155-.515.379-.563.722-.13.923-.201 1.846-.143 2.779.028.452.189.807.6 1.061.06.037.121.121.122.184.015.785.02 1.57.026 2.356.017 1.975.03 3.95.049 5.926.015 1.528.031 3.057.059 4.585.012.677.06 1.353.085 2.03.006.19.086.307.299.31.513.005 1.026.006 1.538 0 .062-.001.123-.063.184-.096-.055-.044-.104-.107-.168-.128-.248-.085-.501-.157-.752-.235-.55-.17-.547-.17-.538-.71.02-1.24.036-2.48.056-3.72.004-.317.019-.633.024-.95.021-1.47.051-2.941.057-4.412.004-1.03-.02-2.061-.038-3.092-.008-.432-.032-.864-.051-1.296-.014-.33-.075-.636-.492-.738-.013-.003-.021-.03-.052-.076.623-.037 1.218-.102 1.813-.104 1.591-.003 3.182.023 4.772.035.233.002.361.099.382.317.045.452.135.904.133 1.355a291.28 291.28 0 0 1-.078 5.686c-.038 1.483-.12 2.966-.187 4.448-.046 1.015-.098 2.03-.15 3.044-.013.252-.036.504-.051.755-.011.178-.084.272-.303.262-.317-.014-.637.004-.955.005-.703 0-.707 0-.77-.647a154.03 154.03 0 0 1-.242-2.627 184.18 184.18 0 0 1-.221-3.061c-.059-.892-.1-1.784-.153-2.676-.073-1.216-.149-2.43-.228-3.646a19.072 19.072 0 0 0-.096-1.011c-.007-.058-.074-.11-.113-.165-.042.054-.103.102-.123.162-.031.088-.037.184-.047.277-.037.359-.076.717-.109 1.076-.089 1.012-.18 2.023-.262 3.036-.072.884-.133 1.768-.201 2.651-.072.949-.148 1.896-.219 2.845-.068.898-.132 1.796-.2 2.694-.022.288-.039.576-.085.86-.032.2-.239.253-.418.132a.37.37 0 0 0-.186-.073c-.326-.005-.653-.01-.977.013a.396.396 0 0 0-.274.157c-.194.326-.359.666-.54.999-.251.46-.22.662.165 1.021.005.005.005.015.003.018.115.1.219.143.37.158.227-.089.464-.284.956-.699.36-.304.612-.627.545-1.1-.021-.154.045-.24.223-.267.219-.032.328-.161.342-.375.042-.618.095-1.236.143-1.854.074-.955.149-1.91.22-2.866.054-.718.099-1.438.154-2.156.071-.927.147-1.853.223-2.78.064-.783.131-1.565.199-2.348.017-.187.041-.374.061-.561l.063.004c0 .164-.008.33.001.493.074 1.23.151 2.46.226 3.689.035.575.062 1.15.102 1.726.085 1.243.167 2.488.269 3.73.077.933.172 1.865.28 2.796.055.482.152.546.669.553.438.005.877.001 1.314.001-.166.032-.334.03-.502.032-.17.002-.343-.003-.512.014-.709.069-.718.08-.686.747.017.352.07.422.442.453 1.146.095 2.294.138 3.443.05.306-.024.412-.224.217-.447a1.353 1.353 0 0 0-.453-.328c-.459-.21-.931-.398-1.401-.586-.134-.054-.194-.123-.181-.261.032-.315.06-.631.077-.948.081-1.468.165-2.935.234-4.403.047-1.007.072-2.016.105-3.024.018-.57.044-1.138.046-1.708a388.86 388.86 0 0 0-.011-4.582 4.237 4.237 0 0 0-.108-.814c-.064-.314-.157-.386-.494-.42a8.955 8.955 0 0 0-.813-.052c-.83-.008-1.66-.014-2.49-.006a79.75 79.75 0 0 0-2.469.054c-.362.015-.721.086-1.083.125a.31.31 0 0 1-.191-.036c-.237-.17-.404-.386-.406-.674-.006-.662-.014-1.325.008-1.987.011-.337.085-.671.13-1.008.03-.222.125-.387.371-.475.202-.072.389-.182.576-.284.827-.45 1.644-.912 2.237-1.635.4-.487.782-.986.887-1.59.194-.08.401-.125.554-.235.374-.27.722-.569 1.081-.856.216-.173.388-.36.272-.654-.01-.027.027-.066.025-.099-.005-.088.008-.189-.035-.26-.05-.085-.085-.135-.037-.243.067-.149-.147-.305-.321-.243-.092.033-.172.093-.257.14-.218-.248-.296-.252-.55-.021-.161.146-.318.296-.478.444-.087.08-.178.158-.302.267.012-.134.037-.216.02-.29-.016-.068-.063-.15-.124-.183-.035-.018-.141.04-.184.088-.073.082-.121.183-.181.276-.276.423-.489.874-1.012 1.131-.413.203-.763.517-1.142.78-.045.032-.097.055-.19.107 0-.128-.002-.212 0-.296.015-.807.06-1.614.034-2.42-.017-.565.021-1.161-.418-1.637.27-.234 1.156-.68 1.474-.755.131-.03.203.003.255.118.065.146.137.291.221.429.285.47.681.66 1.189.578.697-.11 1.129-.457 1.229-.987.019-.096.034-.194.051-.292.043 0 .067-.006.087 0 .911.314 1.826.623 2.636 1.134a.993.993 0 0 1 .386.466c.179.49.335.99.453 1.497.53 2.28.951 4.573.873 6.918-.016.48-.049.96-.071 1.384-.128-.055-.243-.136-.367-.153-.198-.027-.403-.014-.605-.014-.594 0-.589-.022-.568-.571.021-.545.019-1.096-.041-1.638a74.636 74.636 0 0 0-.437-3.26c-.118-.755-.283-1.504-.441-2.254-.017-.077-.127-.137-.194-.204-.036.08-.106.162-.102.241.02.41.038.821.094 1.228.249 1.794.508 3.587.767 5.379.041.278.108.553.14.832.009.078-.062.23-.108.234-.237.021-.29.16-.313.338-.013.103-.035.204-.063.363-.478-.513-.928-.98-1.358-1.462-.351-.394-.679-.806-1.017-1.21-.192-.229-.336-.219-.488.038a1.337 1.337 0 0 0-.111.238c-.107.309-.197.623-.315.928-.122.31-.259.616-.409.915-.077.153-.235.178-.369.062-.213-.187-.437-.373-.606-.593-.468-.61-.906-1.241-1.367-1.856-.064-.086-.198-.192-.282-.18-.084.013-.185.152-.209.25-.065.266-.125.54-.128.81-.004.495.025.992.058 1.487.016.247.174.409.439.473.218.052.431.134.651.163 1.237.164 2.474.333 3.715.466.647.07 1.302.064 1.953.103.252.015.377-.084.415-.306.027-.162.06-.325.094-.506.412.241.87.03 1.334.108-.156.191-.331.122-.479.121-.617-.006-.478-.01-.541.458-.035.255-.01.518.012.776.005.067.086.156.155.183.039.015.133-.07.189-.123.046-.043.071-.106.113-.171.148.12.156.252.075.377-.087.133-.227.117-.373.074-.08-.023-.219-.04-.251 0-.118.14.004.49.184.564.365.148.889.121 1.098-.35.182-.41.259-.836.146-1.27-.058-.22.001-.348.225-.417.487-.15.973-.299 1.46-.445.053-.016.115-.008.193-.012a6.406 6.406 0 0 1-.041.148c-.145.493-.336.98-.425 1.481a14.3 14.3 0 0 0-.231 2.08c-.019.639.074 1.28.114 1.92.051.834.097 1.668.148 2.502.074 1.201.146 2.402.227 3.603.041.625.091 1.25.15 1.874.03.32.106.37.456.397.167.012.334.035.477.05.041.715.1 1.404.111 2.093.005.29-.011.628-.163.863-.222.344-.164.66-.086.99.074.309.326.485.645.568.181.047.366.027.49-.119.228-.268.367-.573.321-.92-.057-.436-.168-.867-.193-1.303-.034-.597-.004-1.197-.014-1.795-.004-.178.058-.253.252-.284.396-.061.421-.098.492-.463a.58.58 0 0 1 .021-.077l.511.23c-.022.118-.066.24-.063.363.015.54.046 1.079.066 1.619.002.049-.029.101-.053.149-.05.101-.141.196-.153.3-.045.394-.066.789-.094 1.184-.003.035.004.071.01.107.029.172.172.219.324.222.175.004.179-.128.182-.247.002-.05.002-.101 0-.152-.005-.13.061-.187.2-.171.216.024.425.05.586.22.48.511 1.117.502 1.762.427.222-.025.264-.136.116-.299-.175-.192-.387-.353-.567-.541-.281-.295-.749-.354-.989-.71-.094-.14-.181-.254-.178-.424.007-.498.002-.995.004-1.492.002-.305-.037-.341.347-.355.47-.018.587-.125.641-.546.121-.93.239-1.86.348-2.791a492.374 492.374 0 0 0 .65-6.086c.053-.524.15-1.048.137-1.57-.016-.676-.113-1.35-.192-2.023-.026-.221-.058-.417.183-.569.102-.064.175-.185.23-.294.507-.988 1.013-1.977 1.503-2.973.092-.185.157-.4.157-.602 0-.482-.037-.964-.076-1.445-.027-.335-.083-.667-.133-1.04.232.072.431.125.621.2.043.017.086.109.075.157-.037.174.045.29.171.4.383.337.745.698 1.149 1.012.63.49 1.263.983 1.943 1.408.563.353 1.182.683 1.927.262-.088.516-.183.99-.248 1.466-.082.6-.156 1.201-.202 1.805-.026.349.078.42.443.426 1.002.014 2.004.023 3.006.047.41.01.82.056 1.23.087.042.003.083.026.125.04a1.35 1.35 0 0 1-.404.037c-1.179-.044-2.358-.081-3.536-.14-.321-.016-.537.095-.705.325-.314.43-.648.848-.932 1.294-.869 1.357-1.739 2.714-2.569 4.092a16.392 16.392 0 0 0-1.086 2.126c-.297.71-.51 1.453-.719 2.193-.506 1.8-.992 3.604-1.478 5.409-.098.363-.056.416.32.545.143.049.241.102.244.268.003.165-.07.25-.227.307-.672.247-1.342.498-2.011.75-.108.04-.244.066-.31.141-.088.102-.122.245-.179.37.106.04.213.113.318.11a72.58 72.58 0 0 0 2.629-.099c.305-.019.647.026.9-.219.033-.031.118-.024.179-.023.652.023 1.303.056 1.955.07.365.007.73-.008 1.093-.036.081-.006.207-.098.222-.168.066-.294.111-.596.134-.897.009-.103-.067-.212-.108-.332.48-.011.687-.322.804-.719.006-.02.016-.04.021-.062.294-1.105.586-2.21.878-3.317.224-.847.372-1.719.685-2.536.677-1.77 1.627-3.43 2.593-5.076.448-.764.943-1.503 1.427-2.266.029.295.272.271.501.275l3.379.046c.068.001.136.01.227.017-.013.094-.02.171-.036.247-.405 1.88-.822 3.759-1.215 5.641-.615 2.945-1.05 4.9-1.654 7.846-.074.361-.139.724-.191 1.088-.014.105.018.304.056.31.223.036.459.055.679.018.078-.014.154-.196.178-.31.617-3.038 1.055-5.089 1.678-8.127.319-1.558.672-3.11 1.003-4.666.041-.193.142-.254.35-.253 4.367.017 8.733.022 13.1.045 1.468.008 2.935.062 4.402.083.254.004.354.086.395.314.534 2.906 1.073 5.812 1.619 8.716.278 1.475.567 2.95.858 4.423h.195a90.056 90.056 0 0 1-.429-2.119c-.605-3.253-1.201-6.508-1.802-9.762-.088-.476-.194-.95-.276-1.427-.037-.22-.167-.307-.39-.317-.225-.011-.449-.04-.674-.043-1.211-.021-2.423-.047-3.635-.052-4.467-.017-8.935-.028-13.403-.04-.386 0-.402-.002-.48.354-.368 1.674-.743 3.346-1.087 5.025-.587 2.853-.988 4.72-1.563 7.575l-.054.255c-.047.216-.229.216-.401.198-.201-.021-.129-.167-.109-.27.364-1.858.551-2.728.935-4.582.569-2.747 1.16-5.49 1.743-8.234.116-.544.235-1.088.354-1.632.047-.213.188-.32.425-.32h.303v.046c2.121 0 4.242-.004 6.363 0 3.553.008 7.106.02 10.659.03l.879.002h.073c.264-.008.491-.017.536-.017l.282-.007c.088-.007.2-.01.343-.012 1.133-.023 2.281.035 3.395-.115l.242-.03c.057-.046.118-.09.166-.146l.003-.004c-.003-.103-.019-.206-.02-.273l-.001.008ZM201.088 9.122c-.28 1.39-.497 2.785-.58 4.198-.017.293-.039.59-.01.882.034.362.239.515.634.522.154.002.307-.02.466-.03-.297.326-.854.311-1.129-.021-.215-.26-.261-.566-.272-.878-.039-1.094.126-2.171.353-3.24.156-.733.352-1.461.554-2.186.095-.345.288-.656.584-.894.119-.095.263-.164.396-.246.023.022.045.044.069.065-.746.423-.921 1.117-1.065 1.83v-.002Zm.835 3.513.888-.68c.033.334-.31.587-.888.68Zm2.247 22.82c-.013.12-.031.27-.112.346-.344.321-.716.617-1.072.928-.144.126-.274.084-.339-.048-.063-.129-.107-.292-.079-.425.036-.163.156-.31.239-.465.117-.218.245-.432.346-.656.058-.13.124-.205.284-.201.255.007.51.002.738.002 0 .184.014.354-.005.52Zm5.843-.05c.346.146.689.296 1.024.463.115.058.199.172.297.261l-.049.077c-.113.016-.226.047-.34.047-.72 0-1.441-.002-2.161-.014-.325-.006-.649-.042-.974-.058-.197-.01-.288-.086-.295-.28-.017-.54-.02-.547.569-.571.34-.015.704.044 1.015-.05.358-.108.626.003.914.125Zm-7.475-16.01c.234.038.354.129.366.33.018.324.066.647.072.97.022 1.225.044 2.45.044 3.674-.002 1.391-.026 2.782-.044 4.173-.011.886-.026 1.772-.046 2.658-.021.864-.049 1.728-.079 2.591-.005.164.052.28.223.339.237.08.473.162.702.272-.3 0-.6.009-.899-.008-.058-.003-.145-.1-.156-.163a4.49 4.49 0 0 1-.049-.602c-.02-.77-.041-1.542-.052-2.312-.021-1.355-.039-2.71-.052-4.064-.019-2.047-.031-4.093-.048-6.14-.004-.49-.011-.98-.013-1.469 0-.076.018-.154.031-.249Zm2.547-8.998c.212-.34.442-.672.688-1.037-.028.137-.06.242-.064.347-.002.063.04.127.063.19.061-.022.138-.03.18-.07.278-.26.548-.53.822-.794.061-.059.133-.108.2-.161l.045.044c-.204.191-.413.377-.606.576-.079.082-.121.196-.179.295.112-.04.242-.06.334-.125.269-.193.523-.406.786-.609.07-.054.148-.1.222-.15l.045.048c-.26.199-.528.391-.78.6-.106.089-.18.21-.269.318.197.105.294-.07.424-.137.182-.093.35-.214.526-.318.061-.037.129-.061.194-.092l.034.053-.335.199c-.138.08-.287.147-.412.243-.091.07-.231.228-.209.256.113.147.246.018.362-.03.183-.076.357-.169.535-.254l.051.04c-.063.078-.114.169-.192.232-.336.277-.678.55-1.022.818-.284.222-.422.23-.744.058-.208-.112-.42-.22-.618-.346-.054-.033-.106-.154-.082-.193l.001-.001Zm2.512-6.337c-.027.3-.154.56-.444.722-.059.033-.154.057-.213.036-.403-.137-.829-.226-1.181-.48-.062-.045-.178-.023-.269-.032.026.082.029.183.083.244.237.265.554.416.915.478.174.03.243.108.227.264-.002.029 0 .058-.001.086-.003.35-.005.338-.375.42-.165.037-.317.128-.473.195-.014.006-.029.025-.037.022-.248-.082-.504-.147-.734-.26-.07-.035-.083-.2-.088-.307-.012-.274-.001-.548-.006-.822-.006-.276.005-.542.197-.781.116-.145.092-.311-.029-.462a3.455 3.455 0 0 1-.297-.412c-.121-.21-.04-.362.206-.348.298.016.425-.097.508-.35.103-.312.369-.514.708-.562.38-.053.769-.05 1.154-.05.049 0 .134.127.141.2.035.38.051.76.072 1.129-.021.367-.033.719-.064 1.07Zm-1.648 2.147c.102.126.193.215.254.32.05.085.121.242.085.275a1.275 1.275 0 0 1-.452.267c-.116.037-.289-.269-.22-.378.097-.153.204-.3.333-.484ZM204.3 2.901c-.182-.631-.301-1.232-.083-1.84.131-.365.469-.547.83-.677a3.412 3.412 0 0 1 2.054-.082c.11.029.218.076.317.132.333.187.398.435.206.78-.613-.202-1.222-.115-1.811.084-.199.068-.359.235-.542.347-.111.068-.228.152-.352.167-.335.043-.462.107-.539.412-.053.206-.052.424-.08.677Zm.39.323c-.195-.287-.211-.598-.143-.916.04-.183.144-.312.379-.31.223.003.373-.107.527-.264.143-.145.359-.272.563-.31.405-.074.824-.085 1.238-.111.07-.005.142.047.213.073l-.012.074c-.132 0-.266-.009-.397.002-.292.021-.591.021-.872.087-.389.09-.666.331-.794.696-.044.126-.119.179-.267.19-.493.036-.636.3-.382.69.076.117.176.22.247.339.048.079.063.174.093.262l-.063.015c-.11-.172-.215-.348-.33-.517Zm.224 3.676c-.025-.037-.046-.075-.068-.113-.233-.409-.228-.442.135-.759.033-.028.101-.05.141-.04.169.05.381.073.488.18.167.168-.118.269-.154.414-.029.114-.049.26.002.356.089.169.177.382.459.342-.423.108-.742-.012-1.003-.38Zm2.032-.569c-.049.525-.416.877-1.019.947.131-.075.267-.144.391-.228.248-.168.274-.316.104-.552-.103-.142-.215-.278-.376-.485.25-.022.446-.072.629-.045.185.026.291.155.271.363Zm2.808 11.455c-.026.794-.027.822-.871.776-1.845-.1-3.686-.242-5.49-.647-.438-.098-.492-.178-.543-.588a6.214 6.214 0 0 1 .051-1.851 2.06 2.06 0 0 1 .045-.19c.008-.026.025-.049.054-.104.085.1.159.179.221.265.372.514.734 1.036 1.117 1.544.177.235.381.456.594.664.359.351.702.314.916-.121.183-.372.305-.77.45-1.157.081-.218.149-.44.231-.658.029-.077.08-.147.139-.25.282.334.527.646.796.941a115.96 115.96 0 0 0 1.678 1.795c.063.066.177.091.267.136.037-.091.083-.18.106-.274.027-.111.023-.23.055-.34.011-.038.087-.06.133-.089l.054.127c.002.007-.003.014-.003.021Zm-.018-1.818-.765-5.633.073-.016c.321 1.872.614 3.748.777 5.64-.028.002-.057.006-.085.01Zm1.397 1.86c-.182.028-.367.042-.511.057-.157-.009-.278 0-.386-.03-.055-.015-.088-.099-.131-.152.054-.028.109-.08.165-.08.284-.006.569-.004.854.009.05.002.095.067.143.103-.045.032-.085.084-.134.092Zm23.812 1.57c.13-.018.264-.034.385-.075.485-.162.813.117 1.152.35.042.03.022.139.03.211-.068-.004-.158.017-.2-.017-.288-.227-.601-.219-.937-.117-.162.048-.333.066-.498.106-.185.045-.285.005-.313-.191-.029-.21-.109-.416.086-.666.026.12.04.174.048.229.022.133.112.187.247.17Zm-1.426-7.383c.278.438.441.898.551 1.374.393 1.707.68 3.43.886 5.164.009.08-.007.161-.012.242l-.055.012c-.031-.044-.056-.092-.093-.13-.048-.052-.111-.14-.155-.135a.284.284 0 0 0-.184.134c-.058.108-.106.237-.258.182a.445.445 0 0 1-.229-.224c-.231-.543-.378-1.128-.684-1.629-.266-.435-.208-.837-.163-1.273.126-1.219.246-2.437.369-3.656.002-.012.011-.025.027-.06Zm.756 7.387-.114-.305.081-.036c.189.063.03.224.033.34Zm-.446-.583-.079.06c-.055-.06-.142-.111-.161-.178a6.702 6.702 0 0 1-.202-.998l.442 1.116Zm-.678-8.017-.955-1.891c.438.578.777 1.2.955 1.89Zm-3.152-7.98c1.363-.175 2.542.157 3.276 1.15.066.089.104.197.165.313-.236.039-.497-.016-.52.266-.017.213.151.257.411.26-.099.247-.158.477-.277.676-.209.349-.478.66-.87.85-.071.034-.202.05-.251.012-.05-.038-.056-.155-.043-.232.06-.369.164-.733.195-1.103.03-.377-.103-.493-.471-.657a.722.722 0 0 1-.332-.327c-.306-.651-.845-.888-1.565-.66-.142-.319-.059-.505.283-.549l-.001.002Zm-.16 4.373c-.191.147-.658.04-.742-.18a6.214 6.214 0 0 1-.267-.995 3.996 3.996 0 0 1-.059-.708c-.001-.106.014-.25.085-.312.398-.34.639-.774.884-1.207.021-.037.053-.068.108-.137.301.203.605.39.879.607.081.064.099.216.111.33.01.097-.033.198-.047.298-.02.145.051.214.211.214.324-.002.453.189.331.482-.061.147-.137.292-.173.445-.071.303.052.547.353.678.185.08.26.188.237.37a.548.548 0 0 0 .001.15c.036.23-.05.33-.314.392-.371.088-.723.253-1.077.4-.189.078-.295.07-.292-.15 0-.03-.01-.057-.014-.086-.051-.36-.018-.394.375-.416.139-.008.278-.026.414-.055.049-.01.086-.065.129-.1-.038-.032-.072-.09-.113-.093-.343-.03-.688-.182-1.02.073Zm1.763.64-.823.27-.025-.061.815-.293.033.084Zm-1.399.614c.435-.131.871-.258 1.306-.39.124-.037.213-.032.246.105.03.119.092.243-.095.304-.563.185-1.125.371-1.689.555-.02.007-.044-.001-.081-.003-.097-.397-.063-.457.313-.57Zm-6.578 2.914c.052-.057.223-.074.308-.04.439.181.869.381 1.3.581.347.16.684.343 1.035.494.479.205.625.2.963-.165.639-.686 1.244-1.398 1.858-2.104.178-.204.336-.424.503-.638l.048.03c-.207.284-.398.576-.623.847-.564.677-1.142 1.345-1.716 2.015-.21.244-.467.316-.783.177-.715-.315-1.438-.613-2.145-.941-.416-.193-.407-.215-.748.06-.196.157-.387.321-.58.481a2.173 2.173 0 0 0-.05-.038c.208-.255.404-.52.63-.76Zm-4.303-3.198c.285.157.57.312.854.47.073.04.143.085.218.124.398.208.58.57.505 1.028-.18 0-.365-.008-.548.002-.356.02-.5.153-.533.481-.008.072 0 .145-.008.217-.04.317.074.548.413.663.063.022.117.066.223.129-.3.006-.304.178-.306.346-.015.82-.026 1.641-.041 2.463-.002.1.007.206-.026.299-.018.052-.114.117-.172.115a37.818 37.818 0 0 1-1.415-.094c-.348-.03-.414-.09-.424-.418-.012-.425-.014-.85.005-1.275a.941.941 0 0 1 .138-.405c.413-.717.834-1.43 1.256-2.143.182-.308.201-.627.101-.961-.098-.332-.186-.666-.279-.999l.04-.041h-.001Zm-.636 6.447v.019h-.342c-.463-.002-.485-.017-.512-.44a4.977 4.977 0 0 1 .011-.622c.013.177.013.355.039.53.052.35.108.4.487.47.104.02.211.029.317.043Zm-.394-7.019c.351.188.695.287.788.672.097.407.236.805.332 1.213a.631.631 0 0 1-.043.418c-.446.798-.912 1.587-1.373 2.378-.01.016-.033.024-.103.074l.399-4.755Zm.726-4c.024.453.051.907.027 1.358a3.885 3.885 0 0 1-.185.91c-.05.166-.158.33-.283.46-.167.173-.357.128-.581.03a8.577 8.577 0 0 0-1.109-.365c-.075-.02-.183.063-.275.099.055.08.091.2.169.23.298.119.603.227.916.301.17.04.24.105.241.257.001.166.008.331.009.497a.256.256 0 0 1-.027.125c-.311.558-1.23.663-1.682.192a.2.2 0 0 1-.051-.133c.009-.193.035-.386.042-.579.008-.194.002-.389.002-.583h.003c0-.281-.011-.563.004-.843a.511.511 0 0 0-.242-.483c-.208-.146-.235-.298-.082-.502.04-.054.171-.097.237-.078.321.092.376.07.437-.235.01-.05.016-.1.026-.149.092-.473.325-.66.838-.67.465-.008.931-.022 1.396-.014.06.001.167.112.17.176Zm-1.277 2.803-.02.06-.774-.226.024-.07.77.236Zm.186 1.331c0 .307-.159.523-.426.526a4.846 4.846 0 0 1-.559-.03c.344-.016.662-.228.985-.496Zm-1.272.461c-.077-.01-.154-.02-.23-.032-.089-.012-.163-.112-.228-.22.158.13.31.21.458.252Zm-.632-1.119v.384l-.204-.166.204-.218Zm-.417-2.177c-.1-.17-.079-.36.08-.537a2.73 2.73 0 0 1 .315-.288c.196-.159.4-.31.6-.465l-.265.725c-.483-.135-.598-.044-.73.565Zm1.003-1.3c.154-.191.293-.395.47-.565.086-.084.256-.157.371-.139.402.062.795.166 1.191.257.032.007.058.039.081.108h-.333c-.263-.001-.527.006-.789-.006-.389-.019-.731.06-.991.345Zm-1.693-1.383a.634.634 0 0 1 .34-.159c.141-.01.333.013.418.096.066.064.033.256-.015.369-.073.171-.199.323-.298.486-.095.156-.186.314-.287.484-.444-.389-.52-.96-.158-1.276Zm.264 5.134c-.05-.005-.116-.072-.133-.122a1.23 1.23 0 0 1-.064-.34c-.031-.871.009-1.74.169-2.602.036-.19.097-.358.236-.523.189-.223.303-.5.461-.748.508-.798 1.371-1.02 2.256-.576.298.149.593.31.751.544-.445-.091-.9-.21-1.363-.27-.325-.042-.59.142-.764.383a3.873 3.873 0 0 1-.952.927c-.573.4-.568.92-.065 1.383a.42.42 0 0 1 .135.255c.015.38.013.76.005 1.14-.005.228-.432.574-.672.549Zm.05.582c.041-.082.228-.102.347-.15.024.074.059.147.069.223.057.472.123.943.16 1.416.045.588.068 1.177.093 1.766.011.258.002.515.002.771-.431-.741-.87-1.485-1.294-2.237a.426.426 0 0 1-.015-.33c.197-.492.405-.981.638-1.46Zm-1.779 8.75a21.066 21.066 0 0 1-.983-2.029c-.117-.287-.128-.642-.08-.953.238-1.51.516-3.016.77-4.525a.695.695 0 0 1 .422-.55c.454-.218.9-.45 1.408-.708-.192.456-.349.846-.519 1.232-.124.283-.127.534.046.819.457.753.883 1.523 1.308 2.292.074.135.106.3.117.453.028.388.026.778.048 1.166.01.183-.046.28-.261.297-.255.02-.508.065-.758.114-.073.014-.134.078-.2.12.062.042.124.122.187.122.403.004.806-.003 1.208-.02.152-.006.201-.107.187-.245-.083-.86-.172-1.72-.24-2.582-.037-.46-.021-.922-.058-1.38-.056-.704-.143-1.405-.204-2.108-.013-.16.03-.325.051-.524.071.053.092.06.092.07.004.422.126.58.569.652.288.046.589.075.878.053.195-.015.38-.133.598-.217-.019.256-.035.53-.058.802-.071.855-.149 1.709-.214 2.563-.052.675-.098 1.35-.126 2.026-.013.301.018.604.037.906.013.217.196.27.379.277.318.011.636.005.954-.01.293-.016.585-.054.933-.087l-.379.668c-.09-.154-.162-.313-.272-.446-.046-.057-.17-.064-.262-.079-.05-.008-.108.013-.158.03-.691.227-1.401.203-2.118.156-.557-.037-1.117-.029-1.675-.053a.294.294 0 0 1-.207-.117c-.415-.69-.662-1.418-.646-2.221.008-.394-.049-.79-.093-1.184-.01-.085-.092-.164-.141-.245-.047.08-.136.16-.136.24.007.741-.007 1.486.064 2.223.033.339.216.674.375.992.495.995 1.005 1.983 1.524 2.967.112.213.122.369-.093.522-.245.175-.476.369-.718.548-.162.121-.299.092-.4-.079-.387-.649-.797-1.287-1.157-1.949l.001.001Zm5.035 3.716c.252.11.512.208.775.294.381.125.396.122.296.48-.247.885-.495 1.77-.766 2.647-.097.313-.179.334-.497.235-1.503-.468-2.975-1.007-4.383-1.689-.519-.252-.546-.298-.369-.81.249-.719.521-1.432.786-2.146.035-.093.091-.179.139-.27l.501.306c.165.533.435 1.049.814 1.51.209.253.717.207.991-.064.047-.047.088-.097.13-.143.026.01.045.013.052.023.262.332.3.346.606.046.288-.281.549-.586.809-.89.173-.203.195-.443.177-.697a.672.672 0 0 1 .094-.38c.145-.236.324-.453.506-.7.119.068.265.146.402.234.032.02.057.072.057.11-.006.646-.016 1.292-.027 1.939 0 .026-.017.052-.035.105-.177-.08-.339-.159-.507-.226a3.002 3.002 0 0 0-.458-.154c-.069-.015-.152.03-.229.047.043.066.071.166.134.193h.002Zm-2.185-.682c.135.218.267.44.376.67.109.232.043.362-.197.475-.298.14-.476.127-.605-.083-.227-.368-.431-.749-.643-1.125-.061-.109-.029-.187.087-.25.215-.117.42-.247.639-.356.054-.027.164-.013.215.023.093.066.161.163.263.271-.289.083-.23.218-.133.375h-.002Zm.248.025.487-.211-.259.596c-.096-.163-.17-.285-.228-.385Zm-.573-1.091a.48.48 0 0 0-.26.06c-.217.123-.426.26-.636.394-.192.124-.231.118-.394-.102.598-.086.907-.542 1.364-.844.047.098.093.178.125.263.078.207.034.248-.199.229Zm2.828-.338a.832.832 0 0 1-.152.216c-.224.242-.383.488-.3.84.032.133-.038.325-.132.442-.284.354-.603.685-.909 1.025a6.296 6.296 0 0 1-.096-.037c-.16-.275-.325-.55-.141-.88.018-.033.033-.066.05-.098.226-.428.22-.438-.319-.482.564-.456 1.204-.822 1.44-1.555.214.139.388.242.548.363.032.024.032.118.011.166Zm-.715-1.002c-.044.057-.087.16-.06.211.086.165-.001.286-.061.428-.232.542-.751.826-1.202 1.172-.137.104-.245.02-.337-.079-.08-.085-.209-.139-.092-.303.062-.087.046-.243.02-.36-.044-.189-.205-.355-.095-.574.025-.048-.028-.137-.059-.202-.34-.703-.682-1.404-1.023-2.106-.037-.076-.07-.154-.131-.294.152.025.232.04.313.05.714.089 1.426.22 2.141.248.446.017.902-.11 1.347-.198.189-.038.266-.032.277.17.01.176.082.347.108.523.009.06-.02.14-.063.186-.255.27-.521.533-.781.799-.104.107-.214.212-.302.329Zm-1.767-2.073h1.81c-.616.144-1.228.099-1.81 0Zm-.821 20.12a.964.964 0 0 1-.278.794c-.142.144-.333.08-.493-.006-.306-.167-.432-.52-.328-.886.313-.016.628-.039.942-.04.055 0 .153.087.157.139Zm-.899-3.043c.004-.097.046-.262.101-.275.166-.037.35-.024.524-.004.03.003.059.136.06.21.006.482-.006.965.009 1.447.01.329.056.658.087.987.007.07.018.138.032.241-.263 0-.502.008-.738-.007-.042-.002-.119-.108-.108-.148.228-.816-.006-1.635.033-2.45Zm1.669-8.513a82.01 82.01 0 0 0-.183 2.758 55.367 55.367 0 0 0-.043 2.376c-.001.569.036 1.137.04 1.706.002.288-.03.575-.056.862-.021.235-.301.367-.532.273a1.259 1.259 0 0 0-.393-.092c-.394-.02-.79-.024-1.186-.032-.194-.004-.275-.1-.289-.27-.046-.574-.102-1.148-.141-1.723-.081-1.214-.155-2.429-.229-3.643-.053-.884-.096-1.768-.15-2.652-.037-.59-.119-1.178-.115-1.767.005-.58.039-1.17.157-1.739.138-.676.378-1.334.573-2 .018-.06.024-.126.035-.189l.725 1.133c-.071.09-.16.163-.195.254-.338.89-.677 1.778-.993 2.673-.121.34-.077.46.261.628.663.33 1.345.625 2.02.93.154.07.311.138.474.18.195.053.235.15.22.333Zm.062 3.281h-.02v-2.043h.02v2.043Zm3.071 8.315a.174.174 0 0 1 .037.054c.006.012.001.027.001.078-.504-.008-1.021.084-1.43-.307-.248-.237-.536-.38-.902-.377-.278.003-.324.035-.331.294-.002.075-.009.15-.016.254-.151-.17-.126-.932.025-1.374.243.423.7.488 1.112.525.673.06 1.089.44 1.504.853Zm-1.372-1.143-.067.053c-.289-.134-.581-.264-.865-.407-.057-.03-.115-.11-.119-.168a52.08 52.08 0 0 1-.081-1.722c-.002-.046.099-.098.157-.141.014-.011.046-.004.069-.003.689.02.584-.075.589.532.004.41 0 .82-.001 1.23 0 .247-.034.506.318.626Zm1.821-13.414c-.05.54-.096 1.08-.151 1.618-.099.976-.202 1.95-.307 2.924-.116 1.075-.231 2.15-.355 3.224-.106.917-.227 1.832-.338 2.748-.017.14-.057.275-.225.286a2.978 2.978 0 0 1-.577-.03c-.107-.014-.205-.088-.312-.1-.262-.028-.526-.028-.788-.054-.245-.025-.409-.154-.424-.389-.025-.38-.051-.762-.037-1.142.031-.85.098-1.697.128-2.547.042-1.188.065-2.376.097-3.564 0-.035.008-.07.016-.133.554.184 1.078.362 1.605.53.48.154.619.12.777-.328.256-.724.457-1.465.671-2.202.08-.277.131-.562.218-.84h.002Zm1.86-6.375c-.035.347-.201.694-.365 1.016a75.705 75.705 0 0 1-1.362 2.55c-.155.277-.212.28-.489.106-.295-.185-.57-.397-.86-.59-.103-.069-.222-.117-.357-.185.333-.34.689-.68 1.013-1.047.124-.14.17-.34.258-.51.107-.207.204-.42.336-.614.3-.439.44-.9.419-1.429-.028-.682.014-1.367.028-2.05.001-.062.017-.123.032-.234.369.124.71.232 1.043.359.052.02.089.115.101.18.142.81.285 1.627.203 2.447Zm.717-2.485-1.44-.577.04-.087 1.45.546-.05.118Zm-1.134-.758c-.228-.089-.461-.17-.685-.268-.23-.099-.432-.23-.488-.485-.044-.2.014-.29.234-.312.389-.037.774-.04 1.116.188.106.071.223.134.345.175.068.023.175.018.228-.02.04-.028.038-.129.027-.193-.012-.076-.054-.148-.107-.282.091.071.138.1.173.137.306.321.601.652.919.964.126.124.151.217.03.347-.111.118-.212.244-.289.333l-1.503-.584Zm.845 24.445c-.035.3-.068.602-.141.895-.02.075-.173.157-.276.173a7.427 7.427 0 0 1-.833.076c-.773.035-1.546.06-2.32.09l-.037-.09c.098-.058.189-.131.294-.171.625-.238 1.254-.467 1.881-.7.043-.016.086-.035.13-.049.301-.094.51-.25.419-.64.304.092.56.162.808.251.043.015.082.111.075.165Zm-.053-.361a3.987 3.987 0 0 1-.677-.234c.25.056.498.117.749.167.381.075.463.04.603-.294.368-.88.733-1.762 1.09-2.645.341-.844.67-1.691 1.01-2.535.067-.167.162-.323.292-.47-.05.22-.104.439-.15.658-.363 1.726-.722 3.453-1.087 5.178-.039.183.017.278.225.286.051.002.1.023.15.036l.014.072-1.964.567v-.47c0-.163-.077-.27-.255-.316Zm3.507.449a5.579 5.579 0 0 1-.039.364c-.071.486-.072.5-.605.49-.844-.014-1.687-.05-2.53-.077-.043-.002-.086-.02-.128-.03a3.132 3.132 0 0 1-.041-.081c.128-.075.247-.177.386-.221.463-.146.932-.268 1.399-.403.189-.055.397-.079.507-.272.019-.034.107-.05.161-.047.232.017.462.05.693.066.15.01.207.083.197.211Zm6.159-14.2c-.176.357-.46.667-.66 1.015-.715 1.24-1.444 2.472-2.109 3.735-.459.872-.884 1.769-1.209 2.69-.308.873-.458 1.794-.693 2.69a91.156 91.156 0 0 1-.794 2.891c-.163.548-.303.62-.926.61-.248-.004-.495-.034-.743-.046-.074-.003-.15.02-.226.03l-.235.029c-.005-.069-.026-.14-.013-.206.145-.737.287-1.475.446-2.211.251-1.166.532-2.328.765-3.497.132-.659.51-1.2.849-1.765.877-1.469 1.751-2.94 2.62-4.413.107-.183.187-.381.256-.579.026-.075-.016-.17-.028-.255-.078.044-.189.07-.232.134-.289.435-.585.869-.839 1.322-.695 1.233-1.369 2.476-2.055 3.714-.344.621-.728 1.226-1.037 1.861-.328.676-.594 1.378-.879 2.07a512.76 512.76 0 0 0-1.424 3.5c-.074.183-.178.25-.386.192a8.917 8.917 0 0 0-.814-.188c-.092-.016-.197.043-.296.045a.74.74 0 0 1-.311-.04c-.051-.023-.094-.132-.083-.193.065-.326.134-.652.225-.972.592-2.07 1.19-4.137 1.786-6.205.27-.937.755-1.787 1.272-2.616 1.008-1.615 2.049-3.212 3.078-4.816.072-.111.165-.21.237-.32.202-.308.43-.56.877-.426 1.235.039 2.468.079 3.701.115.134.004.2.045.202.176.01.66-.02 1.32-.322 1.928v.002Zm-4.13 3.177.618-1.085.054.026c-.208.36-.415.722-.624 1.082l-.048-.024Zm4.523-5.607c-.217-.105-.488-.147-.738-.156-1.241-.042-2.483-.065-3.724-.093-.343-.008-.38-.015-.345-.331.081-.752.187-1.502.292-2.252.046-.328.107-.655.173-.981a.493.493 0 0 1 .126-.247c.811-.79 1.414-1.715 1.993-2.654.343-.556.651-1.132.965-1.703.066-.12.094-.258.14-.387a8.983 8.983 0 0 0-.097-.046c-.064.055-.142.102-.19.168-.956 1.314-1.912 2.627-2.856 3.948-.103.144-.152.328-.199.5-.069.248-.369.487-.7.47a2.194 2.194 0 0 1-.715-.162c-.84-.35-1.533-.9-2.211-1.462-.468-.39-.912-.804-1.362-1.212-.163-.148-.147-.236.044-.382.008.01.023.02.023.029.005.105.007.21.009.316.107-.042.232-.065.318-.131a9.02 9.02 0 0 0 .635-.54c.162-.15.309-.158.516-.06.649.311 1.299.619 1.967.89.714.29.914.247 1.4-.323.688-.807 1.348-1.635 2.008-2.463.112-.14.156-.325.241-.484.031-.059.079-.132.138-.153a65.45 65.45 0 0 1 1.732-.576c.048-.016.163.036.186.083.422.85.829 1.707 1.254 2.556.118.237.165.463.136.728-.098.902-.144 1.81-.256 2.71-.177 1.425-.389 2.845-.594 4.265-.043.297-.045.262-.311.133l.002.002Zm-4.214-4.37c.089-.327 1.779-2.767 2.316-3.344-.044.424-1.863 3.05-2.316 3.343Zm4.347 4.835c.003-.05.042-.128.082-.139.227-.061.255-.235.283-.406.098-.605.191-1.21.287-1.816.013-.083.03-.165.053-.286.137.605.271 1.168.39 1.732.046.217.146.347.399.379.083.01.18.103.221.18.099.187.159.391.254.58.089.178 0 .25-.168.259-.216.011-.434-.004-.65-.005-.371-.002-.742 0-1.155 0 0-.164-.007-.323.004-.478Zm3.867 1.92c-.043.012-.093.007-.139.006-1.157-.015-2.313-.032-3.469-.043-.187-.002-.283-.063-.259-.241.038-.286.07-.573.134-.854.014-.064.148-.147.227-.147.395 0 .79.038 1.185.032.187-.002.373-.071.559-.11.484-.099.965-.219 1.454-.281.142-.018.308.13.464.203l-.026.1c-.41 0-.82-.004-1.231.002-.391.005-.695.228-.8.573-.086.28.029.494.339.522.43.04.867.028 1.301.04.092.003.187.002.277.022.036.008.059.07.089.107-.035.023-.066.057-.105.068Zm23.652-.131h-.046a.077.077 0 0 1-.005.013c.021.01.022.026-.017.05a2.64 2.64 0 0 1-.124.006 1.265 1.265 0 0 1-.245.049l-.016.002c-.083.02-.167.034-.255.039a8.58 8.58 0 0 1-.134.006c-.061.016-.113.028-.138.04-.104.043-.319.007-.436.009l-.615.003h-1.333c-.083 0-.881-.01-1.273-.013a.76.76 0 0 1-.113.012c-.536.005-1.071.005-1.608.005-3.285-.002-6.572.002-9.857-.006-1.949-.005-3.899-.026-5.848-.043-.349-.003-.698-.023-1.047-.033-.12-.003-.203-.012-.201-.166 0-.063-.117-.172-.192-.181-.268-.032-.541-.033-.812-.04-.264-.007-.529.003-.792-.016-.255-.018-.334-.154-.242-.376.107-.259.281-.376.582-.38 2.173-.032 4.347-.072 6.521-.091 1.685-.015 3.37-.003 5.055-.003v-.044c1.469 0 2.937.004 4.405 0 2.804-.01 5.608-.023 8.411-.034.348-.002.348 0 .355.32.004.143.01.286.016.43a.008.008 0 0 1 .004.003c.018.145-.016.292 0 .439Z" fill="#fff"/><path d="M327.5 37h-70M203 37H0" stroke="#fff" stroke-width=".3" stroke-miterlimit="10"/></svg>