<svg data-name="Layer 2" xmlns="http://www.w3.org/2000/svg" viewBox="0 0 1129 156"><path d="M1128.5 131.39H642.22c0-.17-1.23.06-1.23-.1-2.94-.5-5.22-1.41-7.25-3.59-1.69-1.82-2.7-4.33-4.84-5.6.79 2.19 2.69 3.94 4.94 4.54.27-.83-.25-1.69-.74-2.41-.7-1.02-1.4-2.03-2.1-3.05 1.83 1.48 4.38 2.3 6.7 2.68 4.14.68 6.7-2.23 7.67-5.99.5-1.92.55-3.92.49-5.9-.01-.46 0-.99.34-1.3a16.52 16.52 0 0 1 5.48 6.36c.47.97.86 2.01.87 3.09s-.4 2.2-1.27 2.85-2.21.66-2.96-.12c.87 0 1.58.8 1.76 1.66.4 1.89-1.16 3.75-2.75 4.55-2.06 1.04-4.53 1.35-6.77.77-2.95-.76-5.47-3.08-6.37-5.99-.15-.49.15-.97.59-1.25s.97-.34 1.45-.54c1.04-.42 1.73-1.42 2.29-2.39s1.09-2.02 2-2.68c1.04-.75 2.39-.87 3.67-.95.18-.01.37-.03.51-.13.35-.24.24-.79.06-1.17-.78-1.61-2.31-2.85-2.73-4.59.37.62.83 1.02 1.47 1.36.31.16.72.28 1 .07.3-.22.3-.66.22-1.01-.22-.95-.83-1.79-1.66-2.29s-1.87-.64-2.81-.38c-.39.11-.82.35-.88.75.08.15.34.03.35-.13s-.12-.31-.25-.42c-.92-.78-2.18-1.04-3.38-1.2-2.48-.34-5-.41-7.49-.22-.71.06-1.48.16-1.99.65-.64.61-.68 1.61-.58 2.49.18 1.63.81 3.08 1.36 4.61.8 2.26 1.6 4.42 2.17 6.75-.06-.23-.79-.67-.98-.84-.39-.34-.76-.69-1.13-1.05-.71-.69-1.35-1.44-2.05-2.14-1.42-1.43-2.65-3.1-3.93-4.66a40.401 40.401 0 0 1-6.04-12.06c-.53-1.72-.94-3.5-1.85-5.05-.15 1.58.57 3.1 1.33 4.48.62 1.14 1.3 2.26 2.18 3.22s1.97 1.76 3.22 2.11c1.93.55 3.98 0 5.97-.32 2.09-.34 4.22-.43 6.33-.26.68-.15 1.6-.08 2.28.06 3.37.72 6.57 2.42 10.01 2.78.1 0 .2.01.28-.04.13-.1.1-.3.05-.46-.7-2.21-2.17-4.07-3.61-5.88-.28-.36-.62-.75-1.08-.79-.39-.03-.74.19-1.06.41-.79.53-1.58 1.07-2.37 1.6-.48.32-.99.66-1.57.68-.22 0-.49-.08-.52-.3-.02-.1.03-.21.08-.3.48-1.01.95-2.02 1.43-3.03-3.76.42-7.62.67-11.34 0-2.59-.47-5.1-1.48-7.23-3.03s-3.87-3.65-4.9-6.08c-.12-.27-.24-.58-.52-.48-.16.06-.22.26-.26.43-.75 3.78-.56 7.75.55 11.44.57 1.88 1.37 3.69 2.09 5.52 1.34 3.44 2.38 6.99 3.11 10.6.07.33.39.52.73.59s.68-.02 1.01-.08c.95-.19 1.92-.25 2.88-.2.21.01.46.06.54.25.08.2-.08.41-.22.57-.35.38-.71.76-1.06 1.14-.13.14-.27.33-.2.51.06.15.22.21.37.25 1.55.48 3.11.96 4.66 1.43.29.09.65.17.89-.02.34-.27.09-.9-.34-.96s-.82.32-.89.75c-.21 1.25 1.44 2.41 2.19 3.2l2.02 1.22c-.9.84-2.02 1.57-3.21 1.92-3.9 1.16-8.19.34-11.82-1.51-3.63-1.84-6.68-4.63-9.52-7.56a103.877 103.877 0 0 1-14.02-18.11c-1.63-2.67-2.71-5.69-3.74-8.65-.26-.75-.49-1.64-.04-2.29.19-.28.48-.46.77-.64.59-.36 1.19-.71 1.8-1.03.83-.43 1.76-.92 2.04-1.81.23-.71-.03-1.47-.29-2.17-.49-1.33-.97-2.65-1.46-3.98-.23-.05-.42.17-.55.37-.46.75-.74 1.6-.81 2.47-.05.62.05 1.33.57 1.66-.3-1.86-1.07-3.64-2.22-5.13-.41 1.4-.54 2.88-.38 4.32.02.21.18.49.36.39.11-.06.12-.21.11-.34a6.307 6.307 0 0 0-1.58-3.62c-.67 1.3-.65 2.93.05 4.2.12.21.37.44.56.29.12-.1.1-.29.07-.44a5.824 5.824 0 0 0-1.47-2.7c-.2-.21-.55-.41-.76-.2-.09.1-.11.25-.11.38-.08 1.98.02 4.7 1.21 6.39.34.49.88.88 1.48.9.4.01.79-.15 1.16-.31.62-.28 1.22-.6 1.8-.95.75-.46 1.51-.99 2.39-1.01.86-.02 1.66.46 2.3 1.03.83.74 1.49 1.66 2.11 2.59 2.55 3.87 4.47 8.16 7.39 11.75 2.56 3.15 6.3 5.39 8.66 8.7.96 1.34 1.82 2.87 1.8 4.53 0 .07 0 .15-.06.2-.07.06-.18.03-.26-.02-.4-.22-.6-.67-.79-1.08-.79-1.78-1.57-3.56-2.36-5.35-1.2-2.73-2.64-5.11-2.94-8.17-.24-2.45.02-4.93.42-7.36.22-1.33.85-2.36 1.2-3.67.06-.21.19-.47.41-.42.1 1.63.11 3.27.04 4.9-.02.47-.06.97-.35 1.34-.25-.51-.21-1.11-.17-1.68.16-1.98.34-4.03 1.31-5.75 5.78 2.49 12.28 4.7 18.51 5.56-10.65-4.88-22.66-6.03-32.76-11.97-.28-.16-.39-.47-.42-.79-.01-.15.03-.29.08-.43.14-.44.3-.87.47-1.3.32-.8.68-1.62.57-2.47-.03-.25-.18-.33-.41-.46-2.01-1.1-4.23-1.81-6.51-2.06-.44-.05-.88-.08-1.31.02-.09.02-.19.05-.23.13-.04.08-.02.19.03.27.18.35.56.54.92.69.73.31 1.47.57 2.23.79-1.25-.7-2.49-1.32-3.91-1.14-.21.03-.45.11-.49.32-.02.1.03.2.08.29.23.39.65.62 1.07.79.73.31 1.51.49 2.29.56-.85-.51-1.98-.62-2.97-.61-.2 0-.46.07-.46.27 0 .08.04.16.1.23.26.32.66.49 1.05.63 1.14.42 2.32.75 3.52.97-.62-.15-1.34-.38-1.96-.53-.28-.07-.61-.12-.81.07-.2.19-.16.53 0 .75s.42.34.67.46c1.49.69 2.98 1.38 4.57 1.8.15.04.3.07.45.04.41-.08.55-.59.63-1 .2-1.03.52-2.03.94-2.99.12-.27.27-.56.54-.7.2-.1.42-.09.64-.09 1.38.04 2.75.17 4.11.39 11.08 1.73 22.24 3.87 32.51 8.36 1.63.71 3.24 1.48 4.68 2.52 2.66 1.93 4.6 4.75 5.68 7.86 1.07 3.1 1.29 6.46.86 9.72-.1.06-.25-.05-.36 0-.87-1.66-1.12-3.56-1.51-5.39-.58-2.77-1.47-5.48-2.76-7.99-.18-.34-.4-.71-.77-.81-.21-.06-.43-.02-.64.05-.76.23-1.38.74-1.98 1.24-.34.28-1.31 1.44-1.77 1.15-.23-.14-.32-.44-.29-.71s.15-.52.26-.77c.44-.98.74-2.02.9-3.07.03-.23.06-.48-.07-.68-.16-.25-.49-.3-.78-.33-3.22-.32-6.48.2-9.7-.14-.62-.07-1.76-.11-2.27-.51-.64-.5-.1-1.14.47-1.45.93-.51 1.86-1.02 2.79-1.52-2.76-.77-5.52-1.55-8.29-2.32-1.65-.46-3.3-.93-4.97-1.35-1.59-.4-3.19-.77-4.79-1.09-2.7-.55-5.55-1.04-7.69-2.78 1.33-.29 2.7 0 4.04.26 4.04.81 8.26 1.39 12.24.33 3.38-.9 7.09-1.4 10.44-2.41 2.76-.83 5.49-1.87 7.88-3.48s4.43-3.85 5.43-6.55c.13-.36.24-.78.03-1.1-.33-.51-1.1-.33-1.66-.11-2.13.82-4.37 1.47-6.65 1.44-3.5-.05-6.93-1.81-9.03-4.61 1.53.62 3.24.16 4.89.01.94-.09 1.89-.17 2.81-.42 2.41-.66 4.36-2.36 6.45-3.72.95-.62 2.18-1.18 3.16-.61.16.09.32.23.35.42.06.38-.45.6-.83.56-.8-.08-1.48-.65-1.89-1.34s-.6-1.48-.78-2.26c-.22-.97-.45-1.93-.67-2.9-.17-.74-.35-1.48-.71-2.15-.87-1.57-2.73-2.4-4.52-2.45-1.79-.05-3.54.56-5.18 1.29-1.41.62-2.78 1.34-3.97 2.32s-2.18 2.23-2.68 3.68c-.25.72-.36 1.55 0 2.23.39.75 1.22 1.13 2 1.46.85.36 1.74.75 2.65.86 2.21.28 4.42.56 6.65.56 3.18 0 6.39-.56 9.54-.08.27.04.59.13.69.38.06.14.02.31-.02.45-.3.9-1.19 1.43-1.82 2.14-.36.41-.64 1.04-.32 1.48.31.43.96.39 1.48.26 2.51-.61 5.56-2.19 6.37-4.82.49-1.59.62-3.28.4-4.92-.06-.46-.15-.92-.1-1.38.11-.93.8-1.7 1.01-2.62.17-.75 0-1.54-.2-2.28-.47-1.72-1.18-3.47-2.6-4.55-.54-.41-1.15-.71-1.79-.94-2.12-.78-4.44-.88-6.68-.62s-4.43.89-6.59 1.54c-3.35 1-6.29 2.75-9.07 4.88-.3.23-1.24 1.09-.68 1.51.17.13.42.06.63-.02 1.38-.52 2.77-1.05 4.04-1.8s2.43-1.74 3.18-3.01c.24-.4.43-.84.46-1.31.11-1.53-1.47-2.75-2.66-3.42-2.9-1.63-6.27-2.62-9.58-2.18-2.75.37-5.3 1.7-7.5 3.39-1.03.79-1.93 1.56-2.84 2.49-4.14 4.23-8.31 8.49-11.7 13.35-1.92 2.76-3.59 5.7-5.77 8.25-.51.59-.52 1.61.07 2.13.31.27.73.38 1.05.64.69.56.62 1.77-.06 2.35s-1.75.55-2.49.05c-.43-.29-.78-.76-.8-1.29s.38-1.07.9-1.1c.71-.04 1.2.78 1.9.91.57.11 1.11-.25 1.58-.59l20.65-14.95c.69-.5 1.45-1.11 1.5-1.96-.87.31-1.57.95-2.23 1.59-1.1 1.06-2.18 2.16-2.99 3.45s-1.35 2.8-1.27 4.33c.07 1.23.67 2.55 1.84 2.94 1.39.46 2.8-.58 3.85-1.61 1.68-1.66 3.21-3.46 4.74-5.27.72-.85 1.49-1.83 1.42-2.95a19.102 19.102 0 0 0-4.8 6.27c-.53 1.12-.7 1.99.36 2.74.95.67 2.19.76 3.32.77 1.21 0 2.42-.05 3.63-.15.54-.05 1.16-.15 1.46-.6-1.21-.42-2.53-.29-3.81-.15-2.32.26-4.7.58-6.77 1.68-.49.26-.99.59-1.22 1.1-.41.88.12 1.92.8 2.61.74.76 1.75 1.51 2.78 1.78s2.1.28 3.16.29l6.47.06c.92 0 1.98-.05 2.53-.78-4.2-1.21-8.71-.69-12.98.26-1.72.38-3.44.84-5.2.92-3.95.19-7.82-1.5-11.76-1.23-.76.05-1.53.19-2.2.56-1.58.88-2.15 3.19-1.16 4.71.09-1.32.03-2.64-.18-3.94-.09-.55-.32-1.22-.88-1.28-.27-.03-.52.1-.76.23-.72.39-1.45.78-2.17 1.18-.62.34-1.32.78-1.4 1.48.93-.03 1.85-.18 2.74-.45-.73.22-1.44.55-2.08.96-.24.16-.5.47-.31.69.07.08.18.11.29.14.8.18 1.63.24 2.46.18-1.7.32-3.49-.28-4.39-1.76-.47-.77-.61-1.68-.75-2.57-.15-.99-.31-1.99-.25-2.99.03-.61.23-1.32.81-1.51.4-.13.84.05 1.2.26.2.12.43.3.39.53-.06.35-.57.32-.9.19-.81-.31-1.64-.62-2.34-1.14s-1.26-1.28-1.34-2.15c-.06-.66.16-1.31.4-1.92.51-1.28 1.14-2.51 1.89-3.67 1.04.27 1.96 1.05 2.76 1.77.57.52 1.17 1.07 1.46 1.79.06.15.1.32.03.46-.13.24-.48.19-.73.11-.89-.31-1.77-.82-2.22-1.65-.58-1.08.16-2.82.39-3.96l.9-4.66s-.06.06-.01.07.08-.05.09-.1c1.25-3.85 2.5-7.7 3.75-11.54.56-1.73 1.13-3.47 1.89-5.12.19-.41.61-.79.74-1.2s-.06-.89-.14-1.28l-.66-3.49c-.02-.1.02-.22-.06-.29s-.17.13-.07.1c.07-.57-.32-1.12-.81-1.4s-1.09-.35-1.66-.38c-.19 0-.24-.3-.11-.44s.34-.16.53-.17l2.25-.12c.17 0 .26-.22.22-.38s-.18-.28-.31-.39c-1.85-1.59-3.7-3.17-5.56-4.76-.25-.22-.6-.44-.89-.28-.15.08-.22.25-.29.4-1.05 2.45-.99 5.21-1.09 7.87-.14 3.62-.6 7.22-1.36 10.75-.29.05-12.55-3.26-12.85-3.27s-.64.07-.76.34c-.08.18-.04.38.01.56.37 1.21 1.42 2.08 2.51 2.73 2.06 1.23 4.42 1.9 6.8 2.21 2.38.3 4.79.24 7.19.07.89-.06 1.98-.04 2.43.73-1.02-.08-2.02-.4-3.04-.52-1.24-.14-2.49.05-3.74 0-2.93-.1-5.66-1.46-8.22-2.9-1.36-.77-2.73-1.6-3.74-2.79-.19-.22-.37-.52-.26-.79.22-.54 1.16-.22 1.53-.68-.96-.76-2.23-1.12-3.14-1.91-.79-.68-1.48-1.51-2.29-2.2-.19-.16-.4-.38-.33-.62.06-.23.34-.32.58-.35.92-.11 1.85.14 2.73.43.98.32 1.94.69 2.9 1.06 2.86 1.1 5.8 2.26 8.03 4.37.94.9 1.73 1.95 2.68 2.85s2.11 1.65 3.41 1.76c.75.06 1.74.02 2.35-.42s1.05-1.08 1.42-1.74c.56-1.01.98-2.09 1.37-3.18.68-1.92 1.19-3.9 1.84-5.83.56-1.69.42-2.62.39-4.4.04.05-.3-1.17-.36-1.2s-.08-.09-.1-.15c-1.13-3.46-3.75-6.41-7.05-7.95-.63-.29-1.2-.72-1.79-1.09a.668.668 0 0 1-.2-.17c-.11-.18.02-.43.22-.52.73-.34 1.83-.05 2.54.19 2.43.82 4.79 1.87 7.05 3.07 2.54 1.35 5.04 2.69 6.88 4.94.68.83 1.32 1.7 1.73 2.69s.58 2.1.31 3.13c-.06.21-.13.43-.29.58-.24.23-.62.25-.93.14s-.57-.32-.83-.53l-2.25-1.86c-.1-.08-.21-.17-.34-.17-.35 0-.4.5-.31.84.7 2.54 2.7 4.25 3.76 6.59.13.29.25.61.16.92-.07.22-.23.39-.4.54-1.16 1.04-2.71 1.54-3.87 2.57-.25.23-.5.53-.45.86.08.54.79.67 1.34.67s1.27.13 1.33.68c.04.37-.27.68-.55.92a54.168 54.168 0 0 0-5.06 4.99c-.2.22-.34.66-.06.74.13.04.26-.05.37-.13.85-.65 1.69-1.45 2.75-1.53.11 0 .23 0 .32.06.2.14.12.46.01.68-.99 2.09-2.29 4.02-3.36 6.08a71.428 71.428 0 0 0-3.1 6.85c-.24.63-.48 1.33-.25 1.96 1.46-1.39 2.39-3.23 3.29-5.03 2.07-4.13 4.04-8.3 6.08-12.45.43-.87.91-1.62 1.27-2.53.4-1.03.77-2.07 1.1-3.12.67-2.1 1.2-4.24 1.62-6.41l.12-.65c.32-1.75.56-3.54.37-5.31s-.87-3.54-2.16-4.76c-3.8-3.62-9.04-5.3-14.26-5.76-1.49-.13-3.16-.15-4.21-1.2-1.38-1.38-.91-3.68-1.32-5.59-.45-2.13-2.09-3.88-4.04-4.84-1.95-.96-4.19-1.21-6.36-1.14-1.95.06-3.92.39-5.66 1.28s-3.21 2.4-3.75 4.28c-.12.4-.19.85-.04 1.24s.58.71.98.6c-.58-.81-1.83-.93-2.68-.4s-1.3 1.53-1.38 2.52.16 1.98.44 2.93c.83 2.85 1.98 5.6 3.43 8.18-.05.19.47.49.65.4s.25-.32.21-.52-.15-.37-.25-.55c-.72-1.32-.52-2.93-.29-4.42s.46-3.09-.23-4.43c.17.33.03 1.04.2 1.46.18.45.49 1 .88 1.3.65.48 1.68.87 2.45 1.09 1.99.59 4.27.29 5.98-.92 1.42-1 2.4-2.49 3.57-3.78.15-.16.31-.33.52-.4.49-.16.96.26 1.27.67.66.88 1.27 1.98 2.35 2.18.18.03.37.03.53-.06.14-.08.23-.23.3-.38.53-1.08.5-2.43-.08-3.48.21 3.16.28 6.32.2 9.48-.03 1.25-.08 2.5-.06 3.75.03 1.69.21 3.37.38 5.05.25 2.49.51 4.97.76 7.46.14.16.17.04.32.21.36-.61.35-1.36.32-2.07-.21-5.34-.6-10.67-1.19-15.98l-3.84 7.26c-.58 1.09-1.16 2.19-2 3.1s-1.95 1.62-3.19 1.7c-1.09.07-2.16-.35-3.11-.89-2.66-1.5-4.75-3.95-5.81-6.81-.23-.63-.37-1.45.14-1.89.76 1.06 1.5 2.13 2.24 3.21.93 1.37 1.87 2.84 1.98 4.5.02.27-.01.6-.25.74-.15.1-.34.08-.52.06-.69-.1-1.35-.37-2.03-.47s-1.47-.03-1.96.46c-.14.14-.25.31-.29.51-.13.58.39 1.09.86 1.46 1.8 1.34 3.55 2.32 4.51 4.35.65 1.37.83 2.91 1 4.42l.27 2.39c.06.51.07 1.13-.35 1.42-.45.31-1.06.01-1.52-.28.83-.09 1.57.5 2.13 1.11.84.92 1.52 1.98 2.18 3.03 2.13 3.35 4.27 6.73 5.77 10.41.15.37.5.46.67.82.05.1.1.21.1.33 0 .17-.09.33-.19.47-.65.89-1.71 1.37-2.72 1.81a8.423 8.423 0 0 1 3.44-1.39c.22-.04.45-.06.66 0 .46.14.71.63.88 1.08.24.61.44 1.23.62 1.86.03.09.05.2 0 .27-.08.12-.26.08-.39.02-.62-.27-1.19-.64-1.7-1.09-.06-.05-.13-.11-.21-.09s-.08.17 0 .15c.32 1.38.55 2.58.87 3.96-.7-.75-1.28-1.6-1.73-2.52.37.74.6 1.55.67 2.38 0 .08 0 .17-.05.23-.11.11-.29-.03-.38-.16-.58-.83-1.08-1.72-1.5-2.64.21.55.28 1.15.21 1.73 0 .08-.03.17-.1.2-.1.05-.2-.04-.27-.13-.49-.62-.77-1.41-.78-2.2 0 .35-.05.71-.14 1.05-.03.13-.11.29-.24.27-.07 0-.12-.07-.17-.13-.28-.38-.5-.81-.63-1.27-.79-2.76-2.77-5.06-4.52-7.33-.79-1.03-1.63-2.02-2.44-3.04-1.27-1.59-2.39-3.27-3.57-4.93-1.1-1.54-2.14-3.05-2.82-4.84-.71-1.89-1.03-3.9-1.35-5.89l-1.77-11.1c-.25-1.56-.17-3.34-.23-4.92-.03-.75.06-1.67.74-2 .33.8.22 1.73-.05 2.55s-.7 1.59-1.02 2.4c-1.06 2.69-.84 5.72-.29 8.56.83 4.26 1.46 8.72 3.6 12.55 1.68 3.01 3.89 5.61 6.01 8.31s4.14 5.67 5.89 8.72c.51.89 1.01 1.8 1.38 2.75.18.47.32 1.04.01 1.43-.31.4-.91.4-1.36.64-.47.25-.75.73-1.11 1.12s-.93.71-1.4.47c-.12.1-.18-.08-.31-.17s-.22-.23-.31-.35c-.32-.43-.76-.77-1.25-.99-.14-.06-.35-.09-.41.05.15.49.73.67 1.21.84s1.03.54.94 1.04c-.52.1-1.05-.08-1.56-.21s-1.11-.18-1.53.15c.36.26.72.52 1.13.66s.89.16 1.27-.06.6-.72.43-1.12c-.1-.22-.3-.47-.16-.67.17.01.34.03.52.04.07 0 .15.01.21-.02.15-.06.19-.27.12-.42s-.21-.24-.34-.34c-.8-.56-1.61-1.11-2.41-1.67-.39-.27-.84-.56-1.31-.47-.63.11-.95.81-1.09 1.43-.28 1.23-.25 2.53.08 3.75.14-.07.14-.27.13-.42-.11-1.2-.29-2.39-.56-3.56-.23-.99-.28-1.66-1.45-1.86-1.84-.31-3.46.22-5.26.34-1.64.11-3.28.37-4.92.53-.78.08-1.56.14-2.34.1-2.39-.12-4.61-1.35-6.86-2.1-3.49-1.16-7.27-.9-10.94-.62-.55.04-1.26.24-1.27.79 4.01.28 8.03.33 12.04.17.92-.04 1.68-.33 2.41-.88s1.27-1.45 1.16-2.36c-.13-1.08-1.08-1.86-2.02-2.41-1.46-.86-3.06-1.49-4.72-1.84-1.37-.29-2.86-.38-4.13.2 1.45.25 2.9.44 4.37.55.73.06 1.47.04 2.2.11.5.05 1.07.26 1.53-.07.56-.4.43-1.26.21-1.91-.85-2.49-2.14-4.84-3.78-6.9-.14-.18-.31-.37-.54-.4-.25.37-.1.87.09 1.28.78 1.73 1.94 3.14 3.18 4.55s2.29 2.76 3.86 3.8c.46.3.95.58 1.49.63.95.08 1.84-.59 2.32-1.41.53-.9.68-2 .57-3.04s-.49-2.04-.95-2.98c-.95-1.92-2.34-3.7-4.24-4.69.22.95.94 1.7 1.66 2.36.95.87 1.97 1.67 3.03 2.4 2.72 1.86 4.96 4.16 7.36 6.36 2.53 2.3 5.34 4.26 8.15 6.21.68.48 1.52.97 2.3.67.25-.1.46-.27.71-.34.6-.17 1.19.25 1.67.64.1.08.2.17.23.29.03.1 0 .21-.05.31-.33.8-1.19 1.34-2.05 1.29s-1.66-.69-1.89-1.52c-.07-.26-.09-.54.03-.78.32-.61 1.27-.47 1.79-.9.37-.31.45-.85.34-1.31s-.4-.86-.67-1.25c-1-1.41-1.96-2.72-2.7-4.26-.63-1.32-1.55-2.47-2.44-3.62s-1.52-2.49-2.42-3.66c-2.43-3.15-4.87-6.31-7.61-9.21-1.61-1.7-3.32-3.3-5.16-4.73-1.83-1.42-3.56-2.88-5.89-3.28-2.9-.5-5.95-.11-8.63 1.11-.87.4-1.71.88-2.37 1.58s-1.11 1.61-1.11 2.56c0 1.06.58 2.06 1.35 2.79s1.71 1.26 2.64 1.77c.96.53 1.92 1.05 2.88 1.58.34.19.92.29 1-.1-1.99-2.17-4.55-3.74-7.08-5.23-2.6-1.54-5.29-3.05-8.26-3.63-3.95-.77-8.73.42-11 3.98-1.21 1.88-1.5 4.39-.52 6.4-1.24 1.52-1.55 3.68-1.02 5.56.94 3.32 4.21 5.94 7.64 6.24.28.02.61 0 .76-.23.17-.27-.02-.62-.23-.85-.51-.55-1.18-.95-1.64-1.54-.26-.33-.45-.79-.25-1.15.22-.4.77-.44 1.23-.44.33 0 .65 0 .98.01 2.19-.17 4.39.1 6.59.22 2.38.13 4.77.25 7.15.38 1.24.07 2.51.13 3.69-.25s2.27-1.31 2.47-2.54c.14-.89-.43-1.8-.8-2.58-.45-.93-.97-1.82-1.68-2.58-.46-.5-.99-.93-1.52-1.34-.86-.67-1.74-1.32-2.72-1.81-1.16-.59-2.42-.95-3.68-1.22-.98-.21-1.98-.36-2.97-.23s-1.98.57-2.58 1.36c-1.03 1.35-.73 3.25-.98 4.93-.12.83-.39 1.64-.79 2.37-.62 1.16-1.77 2.22-3.08 2.09-.28-.03-.57-.12-.76-.33s-.22-.57-.02-.77c.11-.11.26-.15.42-.18.83-.15 1.69.08 2.44.47s1.4.93 2.07 1.44c2.01 1.52 4.26 2.81 6.74 3.3 1.75.34 3.56.27 5.34.19.19-.12.2-.13.39 0 .16.1.18.35.09.52s-.26.29-.43.39c-2.9 1.87-6.16 3.55-9.61 3.41-2.1-.08-4.13-.84-6.01-1.78-.4-.2-.97-.37-1.22 0-.11.16-.1.37-.07.56.12.84.52 1.61.92 2.36.45.85.91 1.7 1.46 2.49 2.08 2.96 5.76 5.28 9.16 6.43 1.87.63 3.64 1.56 5.53 2.18 2.01.67 4.08 1.14 6.18 1.41.84.11 1.68.18 2.53.22 3.49.17 6.98-.22 10.47-.49 6.32-.48 12.66-.54 18.99-.6.4 0 .85.01 1.13.3.29.3.27.78.21 1.2-.12.84-.35 1.67-.66 2.46-.2.51-.45 1.03-.49 1.58s.19 1.17.69 1.4c.46.21 1.03.02 1.39-.34s.55-.85.68-1.35c.37-1.4.35-2.9-.05-4.29-.04-.16-.11-.33-.26-.39-.29-.13-.54.25-.65.55-.99 2.91-2.58 5.72-5.73 6.51-3.53.89-7.21.77-10.82 1.04-4.82.37-9.56 1.45-14.34 2.18-.6.09-1.23.18-1.82.02.36-.41.95-.51 1.5-.57 1.61-.16 3.23-.17 4.84-.02 2.94-.12 6.13.14 9.03.62.54.09 1.08.19 1.56.46.11.06.23.14.28.26.13.3-.17.6-.44.78l-8.65 5.83c-2.11 1.42-4.31 2.89-6.83 3.3-.06-.34.27-.61.57-.79 1.47-.9 3-1.7 4.59-2.37.78-.33 1.54-.12 2.35.13s1.55.79 1.92 1.55c.55 1.13.19 2.47-.18 3.67l-.99 3.24c.24-.77.82-1.36 1.27-2.02.6-.87 1.24-1.71 1.9-2.54 1.29-1.62 2.65-3.18 4.02-4.74.9-1.03 1.86-2.1 3.15-2.56-1.46 3.52-4.18 6.5-5.1 10.21-.07.3-.11.67.13.86 1.65-1.42 3.29-2.83 4.81-4.38.83-.85 1.65-1.8 1.85-2.96.15-.88-.07-1.77-.28-2.63-.49-1.94-1-3.93-2.17-5.56-.13-.18-.3-.37-.52-.36-.06 1.89.4 3.8 1.33 5.44.31.56.82 1.15 1.45 1.05.33-.06.59-.3.83-.53.9-.86 1.8-1.71 2.69-2.57 1.21-1.15 2.55-1.68 3.91-2.64.43-.31.87-.62 1.2-1.03s.53-.96.42-1.48c-.21.06-.35.24-.47.41-5.05 7.08-8.64 14.85-12.6 22.54a56.04 56.04 0 0 1-6.28 9.6c-1.23 1.52-2.63 3.02-4.47 3.67-3.09 1.08-6.44-.53-9.71-.56-.82 0-1.68.1-2.39.5s-1.27 1.17-1.25 2c0 .1.02.21.07.3.26.4.84-.06 1.07-.47 1.07-1.91 2.49-3.63 4.16-5.04 1.81-1.53 3.95-2.47 5.93-3.76.78-.51 1.57-1.08 2.07-1.87.42-.65.62-1.41.75-2.17.39-2.44-.08-5.01-1.3-7.16-.27-.47-1.16-1.99-1.92-1.29-.29.27-.33.71-.37 1.11-.36 4.25-2.11 8.37-4.94 11.56-1.3 1.47-2.9 2.79-4.8 3.29-1.92.5-3.95.12-5.92-.09-1.98-.21-4.13-.19-5.75.97-.25.18-.49.55-.25.74.12.09.29.07.43.02.46-.15.86-.47 1.1-.89 1.17-2.07.67-4.47.96-6.83.26-2.12 1.02-4.19 2.31-5.88 1.41-1.84 3.41-3.17 5.54-4.07 2.14-.9 4.42-1.39 6.7-1.79.21-.04.43-.08.58-.22.3-.29.16-.79-.04-1.15-.79-1.37-2.3-2.22-3.85-2.54s-3.16-.15-4.72.09c-1.29.2-2.61.47-3.72 1.17-1.32.83-2.21 2.18-3.07 3.49l-3.39 5.22c-1.86 2.87-3.79 5.95-3.79 9.36 0 1.08.2 2.18.78 3.09s1.55 1.61 2.62 1.67c.15-.07.09-.33-.07-.39s-.33.03-.46.13c-.5.42-.59 1.17-.38 1.79s.67 1.1 1.13 1.55c1.25 1.2 3.2 2.82 5.07 2.73s3.63-1.08 4.97-2.21c2.7-2.27 4.75-5.43 6.34-8.54 1.41-2.76 2.49-5.85 2.02-8.91-.19-1.27-.73-2.6-1.86-3.22-1.12-.62-2.51-.37-3.74 0-1.94.56-3.81 1.35-5.67 2.13-1.71.72-3.49 1.49-4.7 2.9-.31.36-.59.87-.37 1.29.35-.02.59-.39.59-.74s-.17-.67-.33-.97c-1.32-2.49-2.31-5.12-2.74-7.9-.61-3.93.15-8.1 2.29-11.46 1.37-2.15 3.3-3.94 5.55-5.14 2.42-1.29 5.07-2.55 7.74-3.25 3.66-.96 7.51-.79 11.28-.61-.05 1.01.02 2.06-.02 3.07 1.62-1.78 3.43-3.67 5.81-4.02 1-.15 2.24.14 2.57 1.1.21.59 0 1.25-.28 1.81-.12.25-.25.53-.17.79.1.3.45.45.76.42s.59-.2.86-.36c1.63-1.01 3.26-2.04 4.87-3.08.57-.37 1.16-.75 1.83-.81.11-.01.23 0 .3.08.06.07.05.18.04.28-.09.6-.31 1.18-.63 1.69-.19.31-.39.78-.08.96.21.12.47-.02.67-.16 1.42-1.01 2.79-2.16 4.46-2.65.31-.09.66-.15.94.02.22.13.34.38.4.63.3 1.23-.59 2.58-.1 3.75.43.99 1.65 1.35 2.39 2.14.86.91.98 2.32.64 3.52s-1.09 2.23-1.82 3.24c-.34.47-.71.97-1.23 1.23-.33-.45-.06-1.09.24-1.56 1.04-1.63 2.39-3.07 3.22-4.82 1.19-2.51 1.19-5.4 1.25-8.18 0-.46-.18-2.29.53-2.37.32-.03.51.34.6.64.53 1.84.79 3.76.76 5.67.15-1.95.36-4.11.62-6.05.08-.61.19-1.26.6-1.71.29.21.29.63.27.98-.12 2.03-.23 4.07-.35 6.1.11-1.46.23-2.93.34-4.39.03-.38.08-.81.37-1.05.1-.08.23-.14.36-.12.29.04.39.41.42.7.19 1.96 0 3.95-.56 5.84-.3-.81.27-1.66.8-2.34l1.17-1.5c.2-.26.5-.55.81-.44.15.34.04.73-.08 1.08-.57 1.69-1.35 3.32-2.31 4.82.19-.49.46-1.04.97-1.15.47-.1.9.23 1.26.54.2.17.4.36.47.6.12.4-.12.83-.46 1.08s-.75.36-1.13.52c-2.16.88-2.7 2.68-2.81 4.84 0 .18-.05.41-.23.45-.09.02-.19-.02-.28-.06-1.1-.54-2.2-1.07-3.31-1.61 1.3.14 2.55.57 3.78 1 .2.07.44.17.49.38.02.1 0 .2-.03.3-.34 1.34-.68 2.67-1.03 4.01-.03.12-.07.25-.16.33-.1.09-.25.1-.39.1-2.05 0-4.05-1-6.07-.71 1.05.38 2.16.6 3.28.65.43.02.87.02 1.27.17s.76.52.75.95c0 .25-.13.48-.25.71l-1.98 3.63c-1.76 3.22-3.51 6.1-5.26 9.33-.93 1.71-1.8 3.48-2.2 5.38-.79 3.72.3 7.61-.24 11.37-.07.52-.2 1.07-.58 1.43.21-4.22-.87-8.51.04-12.63.13-.59.32-1.19.76-1.6.96-.88 2.55-.38 3.73-.93 1.81-.85 4.11-.39 6.11-.52.67-.04 1.47-.18 1.72-.8-.07-.21-.33-.28-.55-.31-2.53-.34-5.13-.12-7.56.63-.21.06-.42.14-.55.31-.15.2-.14.48-.12.73.1 1.01.33 1.99.51 2.99.52 2.88.58 5.96-.6 8.64-1.71 3.87-5.24 6.56-9.03 8.17 1.31.4 2.6.84 3.88 1.32-1.22.38-2.43.77-3.65 1.15-.91.29-1.7.92-1.62 1.98.05.61.33 1.18.56 1.75.51 1.24.8 2.62 1.67 3.64.17.21.38.4.64.48.69.22 1.41-.46 1.79-.95 3.58-4.63 6.22-10.02 7.4-15.75.52-2.52.75-5.09.98-7.65.09-.95.17-1.9.26-2.85.06-.63-.14-1.82.49-2.2-.1.06 1.17 3.61 1.28 3.96.37 1.16.88 2.29 1.24 3.44.83 2.64 1.34 5.28 2.47 7.84.3.67.63 1.36 1.18 1.85 1.09.96 2.7.9 4.14 1.05.21.02.46.08.53.28.07.21-.11.42-.28.57-.87.78-1.74 1.57-2.61 2.35-.22.2-.45.58-.2.76.09.07.22.06.34.05 1.18-.1 2.35-.35 3.53-.26.61.05 1.35.33 1.39.95.02.24-.09.47-.19.68a22.932 22.932 0 0 1-4.45 6.33c.08-.08-1.49-2.97-1.63-3.28-.52-1.15-1-2.32-1.43-3.51-.89-2.43-1.8-4.87-2.64-7.34-.37-1.08-.73-2.16-1.05-3.25-.41-1.43-.73-2.9-.94-4.37-.36-2.41-.39-5.07 1.07-7.02.91-1.22 2.31-2 3.74-2.53 1.29-.48 2.66-.78 4.04-.83.86-.03 3.01-.18 3.43.83.15.35.11.75.07 1.13-.12 1.13-.24 2.27-.42 3.39-.23 1.39-.58 2.78-.58 4.19-.01 2.92 1.43 5.65 3.17 7.99.55.75 1.15 1.48 1.54 2.32.07.16.13.37 0 .49-.11.11-.31.07-.45 0-1.04-.51-1.33-1.83-1.46-2.98-.67-6.05-.21-12.22-1.29-18.22-.64-3.57-2.01-6.72-2.96-10.22-.23-.84-.39-1.83.17-2.5.65-.79 1.73-.88 2.64-1.11 1.25-.31 2.4-.94 3.68-1.2-.3.06 1.61 4.57 1.76 4.95.31.76.37 1.64.58 2.45.24.92.53 1.83.81 2.74 1.2 3.8 2.39 7.61 3.13 11.53 1.05 5.53.61 11.04.37 16.62-.03.7-.06 1.42-.29 2.09-.6 1.79-2.41 2.85-4.06 3.78-1.38.78-2.75 1.58-4.11 2.4-2.41 1.46-4.97 3.05-7.78 2.93-.22 0-.46-.04-.6-.21s-.06-.5.16-.5c.54.19.65.9.66 1.47.03 1.51-.04 3.02-.2 4.53-.15 1.41-.33 2.64-1 3.89-1.2 2.24-3 4.19-5.22 5.42s-4.87 1.75-7.37 1.29c-.93-.17-1.91-.53-2.41-1.33-.25-.4-.36-.87-.43-1.33-.1-.61-.15-1.22-.16-1.84 0-.79.74-.3.52.32s-.84.49-1.24.14c-.66-.6-1.28-1.26-1.7-2.04-.82-1.49-.9-3.3-.52-4.96s1.18-3.18 2.07-4.64c-.05-.24.65-.31.88-.21s.35.35.4.59c.17.8-.11 1.77.45 2.37.47.5 1.34.49 1.76 1.03.29.37.28.89.16 1.35-.18.73-.59 1.41-1.15 1.91.17-1.09 1.06-1.91 1.94-2.58 1.3-.99 2.71-1.87 4.28-2.31 1.57-.44 3.32-.41 4.77.35.65.34 1.22.81 1.91 1.05.07.02.15.05.22.03.09-.03.15-.11.2-.2.34-.56.69-1.12 1.03-1.68.08 1.32-.29 2.67-1.04 3.76-.11.16-.27.34-.47.31-.25-.04-.32-.35-.34-.6-.12-1.81-.06-3.63.16-5.43.19-1.51.49-3.04.26-4.54-.16-.99-.54-1.93-.92-2.85-.36-.88-.73-1.76-1.29-2.52s-1.37-1.38-2.31-1.54c-1.41-.23-2.76.63-3.8 1.59-1.69 1.56-2.99 3.5-4.13 5.5-.72 1.26-1.39 2.63-1.36 4.09.03 1.09 1.32 1.05 1.06.12s-1.82-.79-2.51-.64c-.8.17-1.65.42-2.42.13-.84-.31-1.33-1.16-1.72-1.96-1.72-3.56-2.62-7.45-3.13-11.36-.45-3.44-.23-6.88-.33-10.37-.05-2.02.02-3.95.89-5.81 1.53-3.24 3.26-6.37 5.1-9.44.96-1.59 1.86-3.59 3.13-4.95 1.18-1.27 2.16-2.63 3.17-4.07.52-.44.81-1.23 1.48-1.37.46-.1.91.16 1.29.41.68.45 1.35.92 2.03 1.36s.61.77.3 1.56c-.61 1.58-1.65 2.94-2.55 4.37-1.34 2.14-2.67 4.27-4.01 6.41-.53.84-1.06 1.7-1.78 2.39 1.48-2.98 2.72-6.08 3.7-9.26.25-.82.49-1.66.49-2.51-1.36 1.69-2.93 3.35-4.13 5.14s-2.22 3.92-3.33 5.85c-2.23 3.89-4.49 7.77-6.84 11.59-2.33 3.78-7.12 14.15-7.85 14.68s-550.76.02-551 0" style="fill:none;stroke:#000;stroke-linecap:round;stroke-linejoin:round" data-name="Layer 1"/></svg>