<svg width="1440" height="1600" viewBox="0 0 1440 1600" fill="none" xmlns="http://www.w3.org/2000/svg"><g clip-path="url(#a)"><path opacity=".7" d="M111.737-204h-338.398c-34.883 65.121-88.358 772.152-17.442 886.114C-28.443 1028.67 316.9 570.403 556.274 196.937c16.048-25.038 54.802-12.852 53.324 16.851-23.956 481.603-88.735 710.345-59.455 941.622 32.998 260.64 164.683 454.4 350.608 441.89C1245.54 1574.09 1555.24 746.074 1720-204h-381.42c-89.85 445.008-185.88 752.236-325.02 1113.085-28.851 74.832-133.748 48.458-124.411-31.199C946.776 386.233 991.591 46.803 917.613-204H435.018C309.538-23.527 226.296 101.148 99.054 298.04c-16.294 25.214-56.726 10.414-53.513-19.433 4.736-43.989 8.896-90.174 15.61-159.326L111.738-204Z" fill="#F6F6F6"/></g><defs><clipPath id="a"><path fill="#fff" transform="translate(-560)" d="M0 0h2560v1600H0z"/></clipPath></defs></svg>