<svg width="430" height="126" viewBox="0 0 430 126" fill="none" xmlns="http://www.w3.org/2000/svg"><path d="M301.109 93.7c6.897-.999 13.686-.335 20.456-.436 15.289-.227 30.582-.362 45.874-.563 1.42-.019 2.836-.298 4.256-.332 1.14-.03 1.565-.582 1.722-1.619.621-4.028 1.402-8.034 1.91-12.077 1.617-12.913 3.205-25.83 4.681-38.762.972-8.508 1.741-17.038 2.571-25.56.157-1.623.026-1.847-1.622-2.007-2.234-.213-4.498-.437-6.729-.284-9.045.612-18.084 1.343-27.122 2.07-4.595.37-9.18.817-13.772 1.22-.411.037-.852.1-1.229-.011-.351-.108-.635-.437-.949-.668.258-.298.475-.805.777-.869 2.279-.451 4.562-.888 6.864-1.194a9864.17 9864.17 0 0 1 39.011-5.08c2.675-.343 5.365-.56 8.055-.783 1.502-.123 2.062.246 2.152 1.75.157 2.57.288 5.162.12 7.724-1.08 16.546-3.378 32.958-5.687 49.362-1.498 10.664-3.116 21.313-4.652 31.976-.048.329.225.705.352 1.06.22-.325.59-.627.638-.978.83-5.736 1.622-11.48 2.414-17.22 1.775-12.895 3.565-25.785 5.313-38.68 1.637-12.044 3.228-24.091 4.842-36.139.12-.888.243-1.78.359-2.667.202-1.578.049-1.787-1.577-1.626-2.72.265-5.466.44-8.145.944-17.56 3.315-35.106 6.706-52.659 10.074-6.143 1.179-12.285 2.38-18.435 3.525-.859.16-1.207.451-1.162 1.361.075 1.548.019 3.1.019 4.651l.381.157c.463-.265.956-.481 1.378-.798 3.344-2.5 6.946-4.491 11.127-5.095 4.943-.716 9.348.335 12.513 4.55 1.674 2.227 2.589 4.812 3.123 7.509 1.663 8.373 1.226 16.691-1.109 24.874-2.104 7.386-8.485 12.488-16.178 13.051-6.203.456-12.42.705-18.626 1.112-8.078.53-16.148 1.164-24.226 1.67-5.421.34-10.854.538-16.279.792-.411.018-.867.078-1.222-.067-.362-.15-.631-.53-.938-.81.258-.28.471-.738.777-.81 3.77-.88 5.743-3.73 7.544-6.765.553-.933 1.39-1.947 1.353-2.895-.034-.813-1.121-1.592-1.76-2.368-4.573-5.562-3.643-13.88 2.036-18.053a6.709 6.709 0 0 1 1.147-.697c1.599-.743 3.06-.273 3.471 1.424.411 1.675.583 3.477.478 5.2-.254 4.285-1.348 8.418-2.94 12.394-.445 1.108-.164 1.585.818 2.082 3.161 1.592 6.584 2.055 10.025 2.26 10.424.615 20.755-.138 30.903-2.667 2.159-.537 4.229-1.477 6.288-2.353 1.259-.538 1.819-1.537 1.819-3.033 0-3.174.202-6.348.385-9.519.041-.694.262-1.406.542-2.047.579-1.34 1.659-1.552 2.802-.642.934.742 1.827 1.567 2.851 2.167 1.465.858 2.324.34 2.275-1.358-.022-.831-.269-1.715-.631-2.473-2.264-4.725-5.421-8.765-9.528-12.05-1.277-1.023-2.682-1.556-4.371-1.4-1.263.116-2.552.12-3.811 0-.751-.07-1.637-.298-2.167-.775-.781-.71-1.439-.62-2.32-.373-15.043 4.23-30.122 8.321-45.456 11.383-1.614.321-3.236.6-4.91.91 1.839 2.85 1.386 5.965 1.155 9.02-.52 6.77-1.697 13.43-3.591 19.95-.968 3.324-1.741 3.816-5.212 3.302-2.888-.43-5.746-1.056-8.631-1.518-.743-.12-1.535.07-2.305.09-1.293.025-2.597.103-3.878-.012-.348-.03-.905-.69-.886-1.037.019-.336.628-.87 1.02-.914 1.031-.112 2.096-.074 3.131.037 1.782.19 2.944-.294 3.501-2.025.564-1.764 1.016-3.618 1.143-5.457.419-6.083-.089-12.096-1.647-18.019-.695-2.633-2.067-4.603-4.622-5.684-4.103-1.739-8.201-3.492-12.308-5.226-1.236-.522-2.492-1.015-4.072-1.656.351.582.586.888.732 1.23.546 1.303 1.267 2.574 1.543 3.936.437 2.145-.183 3.088-2.626 4.79.538.13.945.234 1.352.32 3.344.716 6.658 1.544 9.651 3.256a12.272 12.272 0 0 1 2.888 2.275c2.193 2.38 1.551 5.547-1.322 7.028-.363.186-.729.358-1.222.6.669.489 1.311.862 1.831 1.361.721.698 1.483 1.41 1.984 2.257 1.106 1.865.47 3.95-1.461 4.96-.845.44-1.794.69-2.702 1.03 0 .049-.018.138.012.19 1.584 2.5 1.188 4.577-1.469 5.931-1.662.847-3.572 1.209-5.358 1.783.366.414.934.944 1.372 1.57.911 1.302.541 2.641-.998 2.973-2.518.537-5.081.888-7.641 1.182-1.236.142-2.126-.38-2.623-1.749-.452-1.246-1.363-2.32-2.159-3.614 0 1.816.078 3.338-.023 4.845-.108 1.645-.642 3.16-1.991 4.245-1.371 1.104-2.772.775-3.236-.907-.941-3.413-.508-6.747 1.017-9.925.212-.444.694-.761 1.072-1.153-1.043-2.984-4.54-3.931-6.983-1.868-.568.48-.385.831-.086 1.327 1.345 2.22 2.197 4.603 2.103 7.225-.089 2.53-1.083 4.58-3.486 5.71-1.909.9-3.519.236-4.207-1.763-.9-2.626-.403-5.204.606-7.662.631-1.54 1.569-2.954 2.409-4.502-1.042-1.764-2.858-2.219-4.606-1-2.268 1.59-4.095 3.604-5.635 5.894-.452.675-.411 1.09.303 1.537a6.847 6.847 0 0 1 1.606 1.38c.83.992.482 1.95-.743 2.305-2.406.69-3.949-.57-3.598-3.021.108-.75-.306-.892-.785-1.12-4.132-1.972-8.522-3.05-13.028-3.722-.665-.1-1.342-.157-2.007-.268-1.218-.206-2.208-.306-3.284.835-.758.802-2.301 1.093-3.527 1.186-3.766.287-7.551.396-11.328.504-.849.022-1.428.157-1.708 1.04-.321 1.011-1.237 1.261-2.137 1.392-2.668.388-5.335.82-8.018 1.07-13.103 1.235-26.236 1.992-39.399 2.014-3.102.004-6.206-.313-9.304-.567-.863-.07-1.969-.197-2.062-1.346-.097-1.149.982-1.492 1.812-1.671 3.067-.664 6.142-1.399 9.255-1.75 11.108-1.256 22.268-1.712 33.44-1.86 4.864-.064 9.733.163 14.601.331 1.054.038 1.528-.28 1.835-1.287 2.585-8.451 4.808-16.986 6.015-25.758.392-2.854.377-2.954-2.406-3.484a3104.342 3104.342 0 0 0-26.748-4.939c-6.195-1.122-12.401-2.181-18.6-3.263-.362-.064-.728-.097-1.259-.168 0 .455.075.832-.022 1.156-.086.28-.329.63-.576.709-.239.075-.601-.112-.859-.269-.176-.104-.321-.339-.374-.544-.358-1.44-1.434-1.72-2.735-1.988a919.573 919.573 0 0 1-18.775-4.08c-2.996-.683-5.402.133-7.334 2.435-2.156 2.57-3.217 5.65-3.83 8.873-1.845 9.732-.971 19.213 2.806 28.396 2.209 5.36 6.427 8.516 11.71 10.44 6.266 2.28 12.789 2.772 19.384 2.533 2.802-.1 5.601-.444 8.395-.705.677-.064 1.08.164 1.278.798 1.48 4.707 2.997 9.407 4.428 14.13.437 1.442.138 1.935-1.39 2.181-3.105.504-6.217 1.03-9.348 1.26-14.464 1.056-28.934 2.026-43.405 2.996-3.59.239-7.193.298-10.776.57-1.737.135-2.981-.455-3.665-1.965-1.524-3.368-3.165-6.707-4.375-10.19-5.477-15.74-9.655-31.858-13.496-48.056-2.036-8.587-3.71-17.255-5.526-25.89-.19-.91-.272-1.854-.317-2.782-.075-1.586.37-2.067 1.969-1.936 1.939.16 3.893.332 5.795.723 13.536 2.802 27.077 5.584 40.583 8.527 7.245 1.578 14.423 3.476 21.638 5.203 2.23.534 4.3 1.313 5.951 3.126-.515-1.477-.978-2.98-1.595-4.416-.138-.321-.792-.493-1.237-.597-7.88-1.846-15.756-3.704-23.65-5.49C61.44 9.646 44.44 5.838 27.439 2.027c-1.117-.25-2.249-.422-3.631-.675.302 1.693.456 3.177.833 4.599 3.27 12.29 6.426 24.61 9.909 36.836 5.421 19.03 11.074 37.993 16.622 56.99.74 2.536.725 2.629 3.404 2.331 11.321-1.257 22.642-2.492 33.948-3.887 10.82-1.335 21.604-2.976 32.435-4.21 3.079-.351 6.281.13 9.404.432 9.102.876 18.192 1.842 27.287 2.797 7.715.81 15.423 1.653 23.135 2.477.586.063 1.124.145 1.154.932.008.161.292.347.482.452.882.492.998 1.234.15 1.831-.729.511-1.543.955-2.384 1.235-4.584 1.522-9.154 3.114-13.798 4.435-13.014 3.696-26.124 7.019-39.396 9.697-2.884.582-5.675.049-8.492-.208-8.134-.75-16.261-1.589-24.391-2.384-9.733-.951-19.466-1.902-29.203-2.842-4.102-.395-8.201-.985-12.311-1.104-3.998-.116-8.01.239-12.016.418-5.952.268-11.904.567-17.856.857-6.811.332-13.626.672-20.437 1.008-.374.018-.77.119-1.118.029-.41-.108-.78-.38-1.169-.581.389-.25.755-.653 1.177-.72.956-.153 1.94-.15 2.914-.194 8.724-.407 17.445-.81 26.17-1.22 7.039-.332 14.074-.768 21.113-.959 2.754-.074 5.526.362 8.284.627 9.064.862 18.128 1.738 27.189 2.622 8.802.858 17.601 1.735 26.4 2.6 3.318.328 6.636.888 9.958.895 2.623.008 5.283-.507 7.865-1.07 15.016-3.275 29.916-6.994 44.566-11.664 1.386-.444 2.75-.962 4.054-1.667-1.281.384-2.559.776-3.845 1.149-1.905.552-3.792 1.227-5.735 1.596-1.67.317-3.411.272-5.119.403-1.035.078-2.099.052-3.101.291a6021.432 6021.432 0 0 0-36.044 8.75c-2.836.698-5.664.5-8.496.269-13.257-1.086-26.52-2.111-39.762-3.383-7.267-.698-14.49-1.85-21.738-2.775-.848-.108-1.718-.06-2.578-.09-1.038-.033-1.961-.123-2.895-.876-.852-.687-2.16-.772-3.221-1.231-1.255-.545-1.55-1.183-1.312-2.391.288-1.455 1.547-2.193 2.754-1.354 1.065.739 1.947 1.816 2.698 2.894.422.608.818.933 1.513 1.131 2.772.798 5.515.149 8.26-.082a120.2 120.2 0 0 0 7.369-.873c11.702-1.72 23.4-3.436 35.091-5.226 6.445-.985 12.861-2.148 19.302-3.144 1.431-.22 2.918-.138 4.379-.108 5.657.119 11.313.272 16.966.429.479.014.994.085 1.424.283.329.15.781.552.758.806-.029.343-.403.839-.732.94-1.464.447-2.951.884-4.461 1.134-16.298 2.707-32.588 5.456-48.916 7.982-2.398.369-4.98-.299-7.461-.623-3.822-.496-7.633-1.108-11.448-1.671-.026.104-.049.212-.075.317 1.622.395 3.22.966 4.865 1.16 6.247.742 12.494 1.54 18.767 1.984 6.128.433 12.285.66 18.424.597 4.405-.045 8.803-.716 13.2-1.123 1.177-.108 2.347-.283 3.782-.462-.512-.414-.796-.638-1.077-.873-1.729-1.451-1.539-3.551.58-4.346 1.8-.675 3.743-1.16 5.656-1.301 4.181-.314 8.388-.571 12.573-.433 3.008.097 6.008.806 8.99 1.358 2.693.5 5.294.514 7.958-.332 3.03-.963 6.154-1.638 9.236-2.443.28-.075.553-.172.807-.418-4.087-.44-8.175-.888-12.266-1.32-8.31-.88-16.616-1.772-24.929-2.623-4.995-.51-9.987-1.167-14.997-1.361-3.341-.127-6.722.31-10.058.739-13.38 1.708-26.741 3.576-40.125 5.255-6.762.847-13.559 1.451-20.344 2.1-3.426.328-3.404.239-4.36-3.04-5.384-18.46-10.888-36.881-16.156-55.37-3.61-12.66-6.92-25.405-10.32-38.124-.433-1.619-.676-3.301-.848-4.968-.187-1.824.258-2.186 2.052-1.813 5.283 1.093 10.573 2.156 15.834 3.357 20.822 4.744 41.634 9.545 62.456 14.3.942.217 1.498.623 1.786 1.574.665 2.182 1.45 4.327 2.137 6.502.217.69.564 1.01 1.308 1.141 13.877 2.44 27.749 4.897 41.615 7.385 2.245.403 4.472.936 6.688 1.492 1.487.373 1.857.768 1.737 2.298-.187 2.417-.385 4.867-.938 7.217-1.655 6.983-3.486 13.924-5.249 20.884-.071.28-.131.56-.247 1.06 5.048-.083 9.999.23 14.777-1.291l.023-.38c-.662-.154-1.371-.206-1.962-.497-.512-.253-1.203-.75-1.244-1.19-.045-.48.452-1.268.919-1.48.781-.358 1.723-.496 2.593-.493.882.008 1.166-.31 1.293-1.123 1.024-6.672 1.364-13.39 1.289-20.134-.008-.772-.348-.995-1.039-1.152a155.074 155.074 0 0 1-6.314-1.596 6.044 6.044 0 0 1-1.734-.776c-.852-.564-.788-1.481.109-1.966.388-.209.84-.388 1.274-.41 2.051-.101 4.113-.273 6.161-.164 1.965.104 2.414.578 2.597 2.543.112 1.201.62 1.436 1.696 1.444 3.725.026 6.819-1.216 9.445-3.931a127.382 127.382 0 0 1 8.34-7.84c3.59-3.093 7.797-4.547 12.591-3.947 2.671.336 5.35.645 8.011 1.063.84.13 2.043.272 2.014 1.41-.034 1.216-1.278 1.033-2.112 1.167-3.4.541-6.822.97-10.215 1.57-2.895.512-5.376 1.85-7.169 4.264-1.917 2.577-3.871 5.132-5.665 7.795-.598.892-.807 2.067-1.068 3.145-.168.694.228 1.22.934 1.462.691.235 1.21.1 1.629-.556.377-.597.878-1.119 1.293-1.693 2.664-3.678 6.392-5.248 10.812-5.543.957-.063 1.925-.287 2.84-.585 2.204-.717 4.446-.53 6.692-.388 1.42.09 2.843.406 4.252.343a18.941 18.941 0 0 0 4.494-.754c1.387-.41 1.861-1.238 1.708-2.663-.101-.944-.351-1.932-.785-2.771-1.087-2.108-2.466-4.014-4.491-5.364-.306-.205-.669-.447-.799-.76-.131-.303-.097-.769.059-1.052.079-.142.729-.172.912-.015 3.871 3.379 8.881 4.393 13.384 6.445 2.794 1.276 5.608 2.503 8.395 3.782 2.204 1.015 3.609 2.727 4.289 5.054 2.182 7.43 2.832 14.983 1.652 22.637-.254 1.645-1.088 3.2-1.697 4.927.542.12 1.349.336 2.175.463 2.365.373 4.734.73 7.106 1.055 1.035.142 1.73-.306 1.977-1.369.923-3.968 2.07-7.896 2.72-11.906.684-4.196.908-8.463 1.293-12.704.063-.697-.03-1.425-.153-2.118-.322-1.79-1.559-2.622-3.363-2.462-1.79.157-3.598.347-5.38.242-1.233-.07-2.466-.552-3.64-1-.362-.137-.728-.786-.724-1.193 0-.268.672-.76 1.038-.757 1.977.03 4.062-.175 5.904.373 3.482 1.033 6.796.485 10.181-.186 15.674-3.104 31.075-7.292 46.454-11.578.758-.213.971-.53.922-1.328-.115-1.902-.086-3.812-.127-5.718-.015-.645.281-.895.92-1.01 5.97-1.075 11.944-2.142 17.9-3.29 17.4-3.354 34.793-6.767 52.196-10.097 2.866-.549 5.784-.832 8.687-1.179 1.076-.127 2.171-.123 3.255-.093 1.602.045 2.006.51 1.808 2.092a2111.47 2111.47 0 0 1-2.066 15.908 14325.205 14325.205 0 0 1-4.177 30.683c-1.547 11.301-3.109 22.6-4.663 33.9-.714 5.19-1.424 10.374-2.13 15.562-.239 1.746-.228 1.776-1.928 1.861-.613.03-.953.273-.927.854.098 2.003-1.038 2.66-2.824 3.137-20.703 5.535-41.384 11.16-62.079 16.729-2.275.612-4.618.985-6.908 1.548-2.324.571-4.603.474-6.879-.187-3.561-1.037-7.162-1.954-10.675-3.129a71.394 71.394 0 0 0-11.668-2.816c-.721-.112-1.681-.011-1.577-1.268.012-.149-.564-.403-.9-.519-3.864-1.331-7.663-2.905-11.616-3.864-2.605-.63-4.865-1.969-7.402-2.678-2.522-.701-4.954-1.719-7.461-2.488-1.715-.526-3.486-.869-5.235-1.272-.261-.059-.549-.007-.885.183.631.287 1.247.619 1.901.854 8.344 3.033 16.646 6.196 25.056 9.041 9.901 3.35 19.903 6.394 29.842 9.639 1.909.622 3.684.57 5.597.052 13.092-3.54 26.176-7.121 39.317-10.489 10.521-2.696 21.11-5.143 31.68-7.65 4.248-1.007 8.586-.529 12.887-.496 11.13.086 22.264.261 33.395.41 2.623.034 5.245.064 7.865.172.452.019.885.425 1.326.653-.452.224-.904.645-1.353.641-7.644-.074-15.289-.22-22.933-.317-8.321-.108-16.641-.145-24.962-.283-4.715-.079-9.24 1.033-13.724 2.182-19.234 4.934-38.435 9.992-57.651 15.005-2.391.623-4.771 1.317-7.188 1.824-.983.205-2.119.231-3.068-.052-6.639-1.988-13.294-3.946-19.858-6.166-11.392-3.853-22.732-7.862-34.072-11.864-1.935-.683-3.807-1.582-5.642-2.507-.497-.25-1.132-1.041-1.05-1.455.187-.932.135-2.051 1.813-2.182 12.64-.977 25.276-1.98 37.889-3.234 4.492-.443 8.912-1.596 13.365-2.431 2.063-.388 4.11-.87 6.188-1.145 1.147-.153 1.393-.68 1.539-1.72a792.675 792.675 0 0 1 2.537-16.732c.194-1.205.639-2.388 1.121-3.518.175-.414.792-.638 1.21-.947.314.421.893.843.89 1.264-.015 1.712-.023 3.462-.374 5.129-1.069 5.08-2.298 10.127-3.464 15.188-.041.175-.071.35-.115.586l.011-.011ZM104.482 26.298c-.362-.6-.549-.947-.773-1.268-1.274-1.843-3.247-2.413-5.272-2.924-18.42-4.651-36.937-8.87-55.582-12.525-3.71-.728-7.465-1.231-11.205-1.79-1.27-.19-1.408-.045-1.259 1.223.194 1.67.426 3.342.759 4.987 4.629 23.121 10.364 45.967 17.68 68.395 1.259 3.864 2.955 7.59 4.532 11.347.523 1.242 1.233 2.271 2.993 2.16 6.318-.407 12.655-.59 18.973-.997 10.32-.664 20.635-1.383 30.947-2.19 4.219-.327 8.411-.954 12.618-1.428.945-.104 1.304-.44.975-1.454a1079.013 1079.013 0 0 1-3.949-12.402c-.198-.63-.531-.728-1.17-.672-2.835.243-5.675.5-8.518.579-6.333.171-12.588-.37-18.61-2.51-5.95-2.116-10.582-5.7-12.966-11.75-3.598-9.142-4.54-18.545-2.78-28.206.643-3.528 1.753-6.9 4.028-9.757 2.331-2.924 5.328-3.946 8.997-3.062 4.005.966 8.018 1.906 12.038 2.79 2.403.53 4.828.932 7.548 1.45l-.004.004Zm95.866 36.822c.28-.201.523-.37.762-.54 2.989-2.145 6.161-1.62 8.329 1.376.519.72.904 1.61 1.58 2.13 1.924 1.48 3.329 3.33 4.323 5.5.314.68.702 1.06 1.431.956 2.294-.321 4.592-.634 6.875-1.019.952-.16.908-.775.336-1.36-1.241-1.27-2.563-2.392-4.435-2.653-.919-.127-1.853-.343-2.709-.69-.366-.15-.549-.738-.818-1.13.4-.187.833-.578 1.195-.526.953.142 1.899.414 2.806.742 3.09 1.115 6.072.78 8.852-.824 2.126-1.227 2.058-3.193-.023-4.498-.299-.187-.687-.276-1.046-.317-.855-.101-1.733-.056-2.57-.232a102.594 102.594 0 0 1-6.427-1.547c-.403-.112-.657-.75-.982-1.146.459-.29.904-.608 1.382-.858.179-.093.445-.03.665-.014 2.675.186 5.298.675 7.704 1.876 1.697.846 3.288.548 4.865-.112 1.79-.746 2.279-2.38.975-3.782-1.095-1.179-2.518-2.074-3.871-2.98-.444-.299-1.124-.273-1.703-.325-2.153-.19-4.316-.302-6.461-.556-.736-.086-1.722-.298-1.64-1.343.09-1.126 1.188-1.16 1.917-1.078 1.995.217 4.039.43 5.926 1.052 1.7.56 3.086.24 4.476-.567 1.543-.891 2.077-2.592 1.042-4.02-.781-1.082-1.868-2.07-3.034-2.72-4.225-2.353-8.914-3.386-13.652-3.808-3.748-.332-7.555.056-11.332.023-1.79-.015-3.277.626-4.682 1.603-1.782 1.239-3.512 2.567-5.354 3.708-1.58.977-3.303 1.73-4.936 2.622-.523.287-1.124.612-1.427 1.086-1.169 1.827-2.257 3.707-3.325 5.594-1.79 3.156-3.539 6.334-5.313 9.497-.837 1.488-2.175 2.182-3.83 2.089-1.939-.109-3.867-.407-5.806-.556-.475-.038-.964.171-1.45.265.456.216.893.56 1.368.622 4.431.579 8.814 1.358 13.006 2.966 1.251.48 2.477 1.03 3.676 1.533.124-.075.209-.097.247-.153.19-.276.37-.563.557-.843 1.629-2.462 3.601-4.588 6.049-6.259 1.774-1.212 3.34-1.186 5.081.075.478.347.919.746 1.405 1.145l-.004-.004Zm70.769 38.94c.236.183.311.28.404.306 1.083.302 2.156.645 3.254.877 16.257 3.405 32.697 5.695 49.118 8.116.612.09 1.278.022 1.887-.108 11.425-2.473 22.847-4.968 34.269-7.452 1.61-.351 3.221-.717 4.842-1.008.269-.048.605.265.908.411-.19.279-.329.615-.583.817-.216.171-.56.19-.848.268-4.016 1.086-8.025 2.182-12.046 3.249a20990.122 20990.122 0 0 1-48.254 12.726c-.878.232-1.857.273-2.757.161-2.403-.295-4.787-.724-7.178-1.097 1.939.72 3.905 1.354 5.918 1.697 1.409.239 2.922.299 4.32.052a103.435 103.435 0 0 0 9.217-2.014c20.187-5.434 40.36-10.921 60.536-16.396 1.782-.485 1.8-.534 1.756-2.578-.314-.022-.639-.067-.964-.071-12.181-.145-24.365-.186-36.541-.458-11.239-.25-22.474-.717-33.706-1.164-1.793-.071-3.687-.019-5.156-1.09-.668.228-1.248.56-1.845.609-3.471.294-6.946.589-10.428.757-4.899.235-9.674 1.067-14.307 2.674-.579.202-1.143.452-1.819.724l.003-.008Zm-7.155-33.703c1.895-.09 3.793-.153 5.687-.276 7.555-.489 15.106-1.015 22.661-1.492 8.9-.563 17.796-1.224 26.707-1.608 8.874-.384 15.251-5.311 17.333-13.871.493-2.03.859-4.107 1.091-6.18.687-6.207.743-12.388-.987-18.479-2.002-7.057-7.263-10.317-14.452-8.843-4.244.869-7.753 3.185-11.257 5.863.556.16 1.005.392 1.461.407 1.345.044 2.693.067 4.035-.02 1.573-.1 2.996.277 4.233 1.198 4.872 3.64 8.567 8.243 10.917 13.85.423 1.003.445 2.282.296 3.386-.217 1.615-1.573 2.402-3.079 1.78-1.218-.504-2.287-1.373-3.408-2.104-.358-.235-.665-.552-1.184-.992-.239.76-.534 1.301-.568 1.857-.187 3.282-.418 6.568-.415 9.85 0 1.862-.739 3.175-2.286 3.902-2.089.985-4.241 1.925-6.46 2.533-6.972 1.902-14.131 2.66-21.338 2.928-5.362.201-10.738.253-16.014-.892-2.092-.455-4.091-1.331-6.244-2.055-1.673 3.309-3.504 6.703-6.736 9.262l.007-.004Zm86.922-56.247c.03.067.056.134.086.201 5.937-.462 11.87-1.044 17.814-1.35 3.995-.205 8.019-.202 12.005.048 3.053.19 3.426.88 3.127 3.88-.96 9.526-1.845 19.06-2.948 28.567-1.531 13.185-3.213 26.356-4.89 39.522-.374 2.928-1.02 5.819-1.502 8.732-.206 1.23-.912 1.813-2.111 1.917-1.009.086-2.01.254-3.019.287-6.33.217-12.659.537-18.988.582-13.869.097-27.739.026-41.608.093-2.458.012-4.92.321-7.375.549-.314.03-.594.406-.889.623.302.313.575.66.915.928.153.12.433.093.658.108 2.765.22 5.522.534 8.29.63 8.239.296 16.481.59 24.724.736 13.23.235 26.46.339 39.687.53.997.014 1.46-.232 1.614-1.299 1.621-11.29 3.437-22.555 4.905-33.864 1.854-14.274 3.494-28.578 5.082-42.886.407-3.667.314-7.393.359-11.093.018-1.485-.135-1.57-1.555-1.41-11.459 1.31-22.918 2.64-34.378 3.965l-.003.004Zm-71.166 102.584c.004.093.012.19.015.283 1.252.373 2.481.862 3.755 1.097a888.142 888.142 0 0 0 15.282 2.633c1.827.298 3.62.694 5.548.175 9.801-2.64 19.635-5.177 29.454-7.75.231-.06.452-.168.68-.254-1.286.149-2.526.429-3.77.697-3.173.687-6.315 1.709-9.618.765-.392-.112-.81-.134-1.218-.201-13.865-2.261-27.734-4.484-41.589-6.811-2.649-.444-5.238-1.253-7.835-1.977-.411-.116-.975-.679-.975-1.03 0-.44.441-.981.837-1.29.508-.392 1.162-.597 1.756-.88a17.213 17.213 0 0 0-.056-.228l-28.743 2.462c.351.239.407.295.471.317 5.597 1.913 11.186 3.842 16.802 5.703.433.145 1.128-.019 1.517-.295 1.091-.783 2.088-1.701 3.123-2.566.74-.623 1.558-.832 2.511-.556 1.943.556 3.938.97 5.836 1.649 2.817 1.007 5.627 2.066 8.325 3.342 2.028.959 1.965 2.372.033 3.566-.687.425-1.427.768-2.141 1.149ZM209.857 25.23c-.362-.1-.564-.186-.773-.208a999.58 999.58 0 0 0-8.161-.75c-3.4-.295-6.448.802-8.97 2.917-3.49 2.928-6.767 6.113-10.081 9.246-2.066 1.955-4.465 3.122-7.282 3.413-1.214.127-2.44.164-3.422.224-.482 7.422-.957 14.744-1.443 22.197 1.162.186 2.541.335 3.886.634 3.146.693 5.152-.444 6.58-3.353 1.89-3.857 4.11-7.557 6.195-11.32.34-.612.721-1.198 1.083-1.799-2.585-1.436-2.982-2.584-1.894-5.348.231-.59.471-1.201.833-1.712a538.454 538.454 0 0 1 5.623-7.688c2.104-2.827 5.025-4.315 8.422-4.93 3.056-.553 6.127-1 9.404-1.526v.003Zm-66.996 74.36-.067-.54c-5.769 0-11.534-.008-17.303.007-1.009 0-2.032 0-3.022.16-13.029 2.052-26.05 4.133-39.075 6.207-1.543.246-3.09.485-4.636.723a96.616 96.616 0 0 0 9.572 1.645c1.513.187 3.094.332 4.58.097 14.247-2.241 28.486-4.554 42.718-6.878 2.425-.395 4.82-.943 7.23-1.42h.003Zm-81.29 8.773.022.16c.105.034.205.09.314.101 10.574 1.141 21.14 2.361 31.728 3.39 7.417.72 14.856 1.235 22.295 1.735 3.011.201 6.038.709 9.064-.026 11.176-2.708 22.355-5.39 33.53-8.087.22-.052.426-.175.885-.369-3.235-.526-6.179-1.339-9.139-1.414-4.517-.115-9.056.209-13.574.504-1.464.097-2.94.567-4.33 1.085-1.199.448-1.263 1.369-.209 2.108.818.57 1.793.914 2.66 1.425.37.216.635.604.949.913-.396.217-.773.545-1.196.631-.952.19-1.927.268-2.895.369-4.693.507-9.378 1.369-14.075 1.436-11.765.168-23.524-.295-35.215-1.809-4.05-.526-8.092-1.156-11.817-3.003-.28-.138-.662-.152-.983-.115-2.671.306-5.343.641-8.014.966Zm30.196-36.635c.019.134.038.268.056.406.247.064.49.164.74.18 2.616.156 5.231.417 7.846.432 12.82.06 25.605-.701 38.365-1.828 3.239-.287 6.464-.794 9.684-1.26.437-.064.826-.456 1.237-.698-.056-.112-.112-.224-.164-.336-3.845-.171-7.693-.522-11.534-.473-6.741.086-13.485.276-20.21.686-6.908.421-13.806 1.115-20.695 1.79-1.794.176-3.554.724-5.328 1.104l.003-.003Zm178.487-15.062c.34-.906.658-1.585.852-2.297.665-2.447 1.461-4.875 1.876-7.367.366-2.186.489-4.46.359-6.673-.135-2.294-1.192-2.67-2.982-1.246-3.591 2.854-4.842 6.621-4.058 11.06.456 2.57 1.734 4.714 3.953 6.527v-.004Zm-7.36 52.555c.743.268 1.233.447 1.726.615 3.759 1.276 7.517 2.552 11.272 3.823 1.659.564 4.794-.473 5.979-2.066-.468-.295-.901-.63-1.387-.865-4.136-1.988-8.504-3.316-12.95-4.383-.452-.108-1.098-.019-1.464.242-1.054.758-2.007 1.645-3.176 2.634Zm-62.677-43.972c-1.894 2.279-2.91 4.662-3.116 7.333-.082 1.093.049 2.245.329 3.305.295 1.122 1.229 1.536 2.186.91.923-.605 1.958-1.44 2.331-2.406 1.252-3.253.067-6.17-1.73-9.142Zm9.412 1.753c-.269.075-.389.082-.474.138-.12.082-.258.183-.318.306-1.341 2.83-1.607 5.785-.908 8.817.146.63.639.701 1.113.295.307-.261.621-.57.793-.925 1.404-2.913.84-5.76-.21-8.631h.004Zm-47.806-30.783c-.007.123-.011.242-.019.365 2.459.627 4.914 1.257 7.417 1.895.134-1.727-.041-2.234-.863-2.394-2.186-.422-4.372-.332-6.535.13v.004Zm37.389 2.734c-3.788.097-6.277 2.245-8.302 5.091l.247.37 8.055-5.461ZM303.896 75.1l-.609-.075c-.814 4.55-1.625 9.1-2.44 13.655.153.03.31.056.464.086.859-4.554 1.722-9.109 2.581-13.666h.004ZM49.797 106.394l.217-.329c-.542-.541-1.039-1.137-1.644-1.596-.228-.175-.698-.041-1.057-.049.142.403.168.989.452 1.168.605.38 1.345.552 2.032.806Zm248.674-10.31-.075-.41c-1.696.317-3.396.637-5.092.955 1.733-.12 3.594.455 5.167-.545ZM188.003 71.295c-.13.067-.261.138-.388.205.116.407.112 1.026.373 1.175.449.257 1.069.22 1.614.306.038-.13.075-.261.109-.388L188 71.295h.003Zm-20.355-8.03c-.983.089-1.786.16-2.589.234.011.105.018.21.03.314 1.621.641 2.14.59 2.559-.549Z" fill="#fff"/></svg>