<svg width="22" height="18" viewBox="0 0 22 18" fill="none" xmlns="http://www.w3.org/2000/svg"><path fill-rule="evenodd" clip-rule="evenodd" d="M12.133 1c1.178.004 1.49.016 2.165.047.852.04 1.433.174 1.942.372.526.205.973.478 1.417.923.445.445.719.89.923 1.417.198.509.333 1.09.372 1.942C18.991 6.554 19 6.827 19 9v.262c0 1.934-.01 2.218-.048 3.036-.039.852-.174 1.433-.372 1.942a3.922 3.922 0 0 1-.923 1.417 3.924 3.924 0 0 1-1.417.923c-.509.198-1.09.333-1.942.372-.853.039-1.126.048-3.298.048h-.262c-1.935 0-2.22-.01-3.037-.048-.852-.039-1.433-.174-1.942-.372a3.924 3.924 0 0 1-1.417-.923 3.922 3.922 0 0 1-.923-1.417c-.198-.509-.333-1.09-.372-1.942a39.99 39.99 0 0 1-.046-2.165V7.867c.003-1.179.015-1.49.046-2.166.04-.852.174-1.433.372-1.942.205-.526.478-.972.923-1.417a3.922 3.922 0 0 1 1.417-.923c.509-.198 1.09-.333 1.942-.372.676-.03.987-.043 2.166-.047h2.266Zm-.637 1.44h-.993c-1.686.002-1.963.012-2.736.047-.78.036-1.204.166-1.486.276-.373.145-.64.318-.92.598-.28.28-.453.547-.598.92-.11.282-.24.706-.276 1.486-.035.773-.045 1.05-.046 2.736v.993c.001 1.686.011 1.963.046 2.736.036.78.166 1.204.276 1.486.145.374.318.64.598.92.28.28.547.453.92.598.282.11.706.24 1.486.276.738.034 1.024.044 2.515.046h1.435c1.492-.002 1.777-.012 2.516-.046.78-.036 1.203-.166 1.485-.276.374-.145.64-.318.92-.598.28-.28.453-.546.598-.92.11-.282.24-.705.276-1.486.034-.738.044-1.024.046-2.515V8.282c-.002-1.491-.012-1.777-.046-2.515-.036-.78-.166-1.204-.276-1.486a2.479 2.479 0 0 0-.598-.92 2.48 2.48 0 0 0-.92-.598c-.282-.11-.705-.24-1.485-.276-.774-.035-1.05-.045-2.737-.046ZM11 4.892a4.108 4.108 0 1 1 0 8.217 4.108 4.108 0 0 1 0-8.217Zm0 1.442a2.667 2.667 0 1 0 0 5.333 2.667 2.667 0 0 0 0-5.333Zm4.27-2.564a.96.96 0 1 1 0 1.92.96.96 0 0 1 0-1.92Z" fill="#fff"/></svg>