<svg width="330" height="129" viewBox="0 0 330 129" fill="none" xmlns="http://www.w3.org/2000/svg"><g clip-path="url(#a)" fill="#fff"><path d="M84.07 0h5.73l6.5 1.9c.3.087.45.287.45.6v6.24c0 .493-.21.613-.63.36-2.94-1.75-11.17-5.01-13.4-.99a2.639 2.639 0 0 0 1.38 3.76c5.06 1.91 13.07 3.07 14.11 10.05 1.93 12.95-13.18 13.58-21.74 9.76-.313-.14-.47-.383-.47-.73v-6.16c0-.46.2-.573.6-.34 3.02 1.76 8.83 3.95 12.23 2.63 4.12-1.62 2.05-5.88-1.43-6.67-6.01-1.35-13.28-4.22-12.29-11.71.64-4.853 3.627-7.753 8.96-8.7ZM228.33 0h5.71l6.6 1.88c.407.12.61.393.61.82v6.05c0 .493-.217.617-.65.37-2.68-1.58-11.7-5.14-13.54-1.09-.85 1.87.34 3.44 2.19 4.13 5.07 1.89 11.9 2.85 13.31 9.27 2.94 13.39-13.88 13.98-21.79 10.18a.941.941 0 0 1-.52-.84v-6.01a.443.443 0 0 1 .226-.394.451.451 0 0 1 .454.004c3.213 1.88 6.483 2.927 9.81 3.14 4.86.3 7.05-5.08 1.54-6.81-6.33-1.98-13.51-3.91-12.74-11.84.467-4.813 3.397-7.767 8.79-8.86ZM0 .86V.38L7.2.31a.696.696 0 0 1 .43.137.714.714 0 0 1 .26.373l6.01 20.63c.26.887.527.887.8 0L21.01.78c.107-.353.343-.53.71-.53h4.27c.353 0 .58.17.68.51l6.5 21.23a.259.259 0 0 0 .242.176.232.232 0 0 0 .228-.176L39.96.79a.774.774 0 0 1 .278-.391.756.756 0 0 1 .452-.149h6.05a.58.58 0 0 1 .55.75l-9.77 31.75c-.153.5-.49.75-1.01.75h-6.47c-.287 0-.47-.137-.55-.41l-5.64-18.4c-.127-.42-.253-.42-.38 0l-5.54 18.18a.9.9 0 0 1-.86.63h-6.54c-.287 0-.473-.137-.56-.41L0 .86ZM58 19.8v6.65a.55.55 0 0 0 .55.55H71.2a.55.55 0 0 1 .55.55v5.4a.55.55 0 0 1-.55.55H51.3a.55.55 0 0 1-.55-.55V.8a.55.55 0 0 1 .55-.55h19.4a.55.55 0 0 1 .55.55v5.4a.55.55 0 0 1-.55.55H58.55a.55.55 0 0 0-.55.55v5.31a.55.55 0 0 0 .56.55l10.2-.22a.549.549 0 0 1 .56.56l-.1 5.21a.55.55 0 0 1-.55.54H58.55a.55.55 0 0 0-.55.55ZM117.75 7.1v25.84a.35.35 0 0 1-.35.35l-6.56-.03a.35.35 0 0 1-.35-.35l.01-25.81a.349.349 0 0 0-.35-.35H100.1a.35.35 0 0 1-.35-.35V.6a.35.35 0 0 1 .35-.35h28.05a.349.349 0 0 1 .35.35v5.8a.349.349 0 0 1-.35.35H118.1a.349.349 0 0 0-.35.35ZM157.85 12.61l-8.83 12.75c-.233.333-.467.333-.7 0l-8.83-12.68a.27.27 0 0 0-.49.16v19.9c0 .32-.163.483-.49.49l-5.98.07c-.353.007-.53-.167-.53-.52V.65c0-.267.133-.4.4-.4h6.11c.161 0 .32.039.464.113.144.075.27.184.366.317l9.16 13.05c.227.327.453.327.68 0L158.3.76c.24-.34.567-.51.98-.51h5.47c.5 0 .75.25.75.75v31.72c0 .32-.16.483-.48.49l-6.22.13c-.367.007-.55-.173-.55-.54V12.73c0-.467-.133-.507-.4-.12ZM178.37.27h-6.46a.41.41 0 0 0-.41.41v32.16c0 .226.184.41.41.41h6.46a.41.41 0 0 0 .41-.41V.68a.41.41 0 0 0-.41-.41ZM208.08.25h6.34a.329.329 0 0 1 .33.33v32.34a.33.33 0 0 1-.33.33h-6.5a.332.332 0 0 1-.27-.13l-15.3-20.71a.33.33 0 0 0-.6.19v20.44a.334.334 0 0 1-.1.237.327.327 0 0 1-.24.093l-6.34-.18a.33.33 0 0 1-.32-.33V.58a.33.33 0 0 1 .33-.33h6.47a.332.332 0 0 1 .27.13l15.33 20.84a.33.33 0 0 0 .6-.2V.58a.332.332 0 0 1 .33-.33ZM254.46 6.75h-9.59a.573.573 0 0 1-.57-.56l-.14-5.36a.577.577 0 0 1 .163-.41.57.57 0 0 1 .407-.17h27.45a.57.57 0 0 1 .57.57v5.36a.57.57 0 0 1-.57.57h-9.36a.57.57 0 0 0-.57.57v25.64a.575.575 0 0 1-.17.407.565.565 0 0 1-.41.163l-6.2-.09a.572.572 0 0 1-.56-.57l.12-25.55a.57.57 0 0 0-.57-.57ZM284.36 27h12.53a.608.608 0 0 1 .61.61v5.28a.608.608 0 0 1-.61.61h-19.78a.61.61 0 0 1-.61-.61V.86a.612.612 0 0 1 .61-.61h19.27a.608.608 0 0 1 .61.61v5.28a.608.608 0 0 1-.61.61h-12.02a.608.608 0 0 0-.61.61v5.11a.615.615 0 0 0 .182.435.614.614 0 0 0 .438.175l10.17-.11a.607.607 0 0 1 .57.367.602.602 0 0 1 .05.233l.1 5.06a.604.604 0 0 1-.61.62h-10.29a.61.61 0 0 0-.61.61v6.53a.612.612 0 0 0 .61.61ZM309.23 21.54l.07 11.36c0 .34-.17.51-.51.51l-6.17.07a.625.625 0 0 1-.438-.179.602.602 0 0 1-.182-.43V1.01c0-.36.18-.554.54-.58 6.853-.5 12.413-.308 16.68.58 9.36 1.95 10.18 14.78 1.37 18.17-.38.14-.457.38-.23.72l8.57 12.87a.47.47 0 0 1-.39.73h-7.03a.946.946 0 0 1-.8-.44l-8.02-12.54a1.882 1.882 0 0 0-3.086-.107c-.243.325-.374.72-.374 1.126Zm.08-14.42-.02 7.3a.33.33 0 0 0 .33.33l4.96.01a6.185 6.185 0 0 0 1.796-.258 5.06 5.06 0 0 0 1.524-.745c.436-.32.783-.699 1.02-1.117.236-.418.359-.867.36-1.32v-1.06c.002-.915-.489-1.793-1.367-2.442-.878-.649-2.069-1.015-3.313-1.018l-4.96-.01a.329.329 0 0 0-.33.33ZM57.28 59.31C52.09 68 61.07 78.42 70.35 74.58a.664.664 0 0 0 .29-.241.648.648 0 0 0 .11-.359v-3.23a1 1 0 0 0-1-1h-4c-.5 0-.75-.25-.75-.75v-5c0-.333.167-.5.5-.5h11.75c.333 0 .5.167.5.5v14.48c0 .32-.143.547-.43.68-12.75 6.15-29.01.73-28.88-15.16.12-14.37 16.39-19.36 27.73-14.18.173.077.32.203.422.363.103.16.158.346.158.537v6.26a.37.37 0 0 1-.58.31c-5.83-4-14.86-4.74-18.89 2.02ZM205.94 48.28c-2.11 12.02-2.28 23.88-2.18 36.02a.192.192 0 0 1-.138.18.189.189 0 0 1-.212-.08l-22.15-36.17c-.193-.32-.103-.48.27-.48h23.96c.36 0 .51.177.45.53ZM236.29 48l-15.61 23.11a.903.903 0 0 1-.83.39c-.947-.093-1.363-.847-1.25-2.26.567-7.08 1.543-14.1 2.93-21.06.06-.287.237-.43.53-.43h14.09c.207 0 .253.083.14.25ZM260.19 65.69c.387-5.693-.183-11.54-1.71-17.54-.073-.267.03-.4.31-.4h18.19a.5.5 0 0 1 .49.6 362.026 362.026 0 0 1-10.26 38.89c-1.587 4.9-3.37 9.09-5.35 12.57-.173.307-.427.52-.76.64-2.81 1.04-4.18-.85-3.87-3.49 1.373-12.033 2.36-22.457 2.96-31.27ZM2.72 48.45a.36.36 0 0 1 .36-.36l11.85-.03a18.876 18.876 0 0 1 6.612 1.176 17.496 17.496 0 0 1 5.61 3.374 15.606 15.606 0 0 1 3.753 5.058 14.318 14.318 0 0 1 1.325 5.972v1.88c.007 4.14-1.805 8.113-5.038 11.046-3.233 2.933-7.622 4.585-12.202 4.594l-11.85.03a.36.36 0 0 1-.36-.36l-.06-32.38Zm7.3 6.39-.06 19.54a.32.32 0 0 0 .31.32l4.21.02a10.956 10.956 0 0 0 4.01-.74 10.524 10.524 0 0 0 3.406-2.142 9.922 9.922 0 0 0 2.282-3.217 9.507 9.507 0 0 0 .812-3.8v-.3c.01-2.637-1.083-5.17-3.039-7.04-1.956-1.872-4.614-2.93-7.391-2.94l-4.21-.02a.32.32 0 0 0-.33.32ZM43.4 48h-6.3a.6.6 0 0 0-.6.6v32.06a.6.6 0 0 0 .6.6h6.3a.6.6 0 0 0 .6-.6V48.6a.6.6 0 0 0-.6-.6ZM90.24 48H84a.51.51 0 0 0-.51.51v32.22c0 .282.228.51.51.51h6.24a.51.51 0 0 0 .51-.51V48.51a.51.51 0 0 0-.51-.51ZM104.9 54.5H94.88a.41.41 0 0 1-.41-.41l-.04-5.68a.41.41 0 0 1 .41-.41h27.75a.41.41 0 0 1 .41.41v5.68a.41.41 0 0 1-.41.41h-9.91a.41.41 0 0 0-.41.41l.04 25.93a.41.41 0 0 1-.41.41h-6.37a.41.41 0 0 1-.41-.41l.19-25.93a.41.41 0 0 0-.41-.41ZM130.52 74.53l-2.46 6.44a.427.427 0 0 1-.41.28h-6.62a.431.431 0 0 1-.4-.59l13.16-32.39a.426.426 0 0 1 .4-.27h6.41a.428.428 0 0 1 .4.27l13.15 32.39a.426.426 0 0 1-.043.401.437.437 0 0 1-.357.189h-6.9a.427.427 0 0 1-.41-.28l-2.46-6.44a.427.427 0 0 0-.41-.28h-12.64a.427.427 0 0 0-.41.28Zm2.57-6.48a.346.346 0 0 0 .042.303.342.342 0 0 0 .268.147l7.77-.01a.343.343 0 0 0 .281-.146.348.348 0 0 0 .039-.314l-3.9-10.51a.343.343 0 0 0-.32-.225.343.343 0 0 0-.32.225l-3.86 10.53ZM165.26 74.75h13.48a.512.512 0 0 1 .51.51v5.48a.503.503 0 0 1-.149.36.517.517 0 0 1-.361.15h-20.73a.51.51 0 0 1-.51-.51V48.51a.512.512 0 0 1 .51-.51h6.23a.512.512 0 0 1 .51.51v25.73a.512.512 0 0 0 .51.51ZM330 87.37v2.43c-1.2 21.61-16.25 38.25-38.32 39.2h-29.39c3.633-2.613 6.487-5.417 8.56-8.41 4.29-6.21 7.44-12.34 10.22-19.76 6.393-17.047 10.993-34.483 13.8-52.31.08-.487.363-.69.85-.61 20.3 3.33 33.42 18.94 34.28 39.46ZM251.56 129h-2.87c-17-2.92-31.64-22.88-40.27-36.4a.154.154 0 0 1-.022-.103.16.16 0 0 1 .045-.094.162.162 0 0 1 .197-.023c11.71 8.22 28.18-18.39 33.11-26.27a1.352 1.352 0 0 1 2.262-.065c.171.247.255.544.238.845a438.023 438.023 0 0 1-2.51 30.19c-1.29 11.03-.24 25.37 9.82 31.92Z"/></g><defs><clipPath id="a"><path fill="#fff" d="M0 0h330v129H0z"/></clipPath></defs></svg>