<svg width="330" height="129" viewBox="0 0 330 129" fill="none" xmlns="http://www.w3.org/2000/svg"><g clip-path="url(#a)"><mask id="b" style="mask-type:alpha" maskUnits="userSpaceOnUse" x="0" y="0" width="330" height="129"><path fill-rule="evenodd" clip-rule="evenodd" d="M84.07 0h5.73l6.5 1.9c.3.087.45.287.45.6v6.24c0 .493-.21.613-.63.36-2.94-1.75-11.17-5.01-13.4-.99a2.639 2.639 0 0 0 1.38 3.76c.88.332 1.848.641 2.853.962 4.78 1.527 10.398 3.32 11.257 9.088 1.93 12.95-13.18 13.58-21.74 9.76-.313-.14-.47-.383-.47-.73v-6.16c0-.46.2-.573.6-.34 3.02 1.76 8.83 3.95 12.23 2.63 4.12-1.62 2.05-5.88-1.43-6.67-6.01-1.35-13.28-4.22-12.29-11.71.64-4.853 3.627-7.753 8.96-8.7Zm144.26 0h5.71l6.6 1.88c.407.12.61.393.61.82v6.05c0 .493-.217.617-.65.37-2.68-1.58-11.7-5.14-13.54-1.09-.85 1.87.34 3.44 2.19 4.13.872.325 1.796.623 2.736.925 4.523 1.457 9.406 3.03 10.574 8.345 2.94 13.39-13.88 13.98-21.79 10.18a.935.935 0 0 1-.52-.84v-6.01a.443.443 0 0 1 .226-.394.45.45 0 0 1 .454.004c3.213 1.88 6.483 2.927 9.81 3.14 4.86.3 7.05-5.08 1.54-6.81l-.682-.213c-6.152-1.913-12.801-3.98-12.058-11.627.467-4.813 3.397-7.767 8.79-8.86ZM0 .38v.48l9.97 32.23c.087.273.273.41.56.41h6.54a.9.9 0 0 0 .86-.63l5.54-18.18c.127-.42.253-.42.38 0l5.64 18.4c.08.273.263.41.55.41h6.47c.52 0 .857-.25 1.01-.75L47.29 1a.58.58 0 0 0-.55-.75h-6.05a.756.756 0 0 0-.452.149.774.774 0 0 0-.278.391l-6.32 21.2a.232.232 0 0 1-.228.176.259.259 0 0 1-.242-.176L26.67.76c-.1-.34-.327-.51-.68-.51h-4.27c-.367 0-.603.177-.71.53L14.7 21.45c-.273.887-.54.887-.8 0L7.89.82a.714.714 0 0 0-.26-.373A.696.696 0 0 0 7.2.31L0 .38ZM58 19.8v6.65a.55.55 0 0 0 .55.55H71.2a.55.55 0 0 1 .55.55v5.4a.55.55 0 0 1-.55.55H51.3a.55.55 0 0 1-.55-.55V.8a.55.55 0 0 1 .55-.55h19.4a.55.55 0 0 1 .55.55v5.4a.55.55 0 0 1-.55.55H58.55a.55.55 0 0 0-.55.55v5.31a.55.55 0 0 0 .56.55l10.2-.22a.549.549 0 0 1 .56.56l-.1 5.21a.55.55 0 0 1-.55.54H58.55a.55.55 0 0 0-.55.55Zm59.75 13.14V7.1a.349.349 0 0 1 .35-.35h10.05a.349.349 0 0 0 .35-.35V.6a.349.349 0 0 0-.35-.35H100.1a.35.35 0 0 0-.35.35v5.8a.35.35 0 0 0 .35.35h10.05a.349.349 0 0 1 .35.35l-.01 25.81a.35.35 0 0 0 .35.35l6.56.03a.35.35 0 0 0 .35-.35Zm40.1-20.33-8.83 12.75c-.233.333-.467.333-.7 0l-8.83-12.68a.27.27 0 0 0-.49.16v19.9c0 .32-.163.483-.49.49l-5.98.07c-.353.007-.53-.167-.53-.52V.65c0-.267.133-.4.4-.4h6.11c.161 0 .32.039.464.113.144.075.27.184.366.317l9.16 13.05c.227.327.453.327.68 0L158.3.76c.24-.34.567-.51.98-.51h5.47c.5 0 .75.25.75.75v31.72c0 .32-.16.483-.48.49l-6.22.13c-.367.007-.55-.173-.55-.54V12.73c0-.467-.133-.507-.4-.12ZM171.91.27h6.46a.41.41 0 0 1 .41.41v32.16a.41.41 0 0 1-.41.41h-6.46a.41.41 0 0 1-.41-.41V.68a.41.41 0 0 1 .41-.41Zm36.17-.02h6.34a.329.329 0 0 1 .33.33v32.34a.33.33 0 0 1-.33.33h-6.5a.332.332 0 0 1-.27-.13l-15.3-20.71a.33.33 0 0 0-.6.19v20.44a.334.334 0 0 1-.1.237.327.327 0 0 1-.24.093l-6.34-.18a.33.33 0 0 1-.32-.33V.58a.33.33 0 0 1 .33-.33h6.47a.332.332 0 0 1 .27.13l15.33 20.84a.33.33 0 0 0 .6-.2V.58a.332.332 0 0 1 .33-.33Zm36.79 6.5h9.59a.57.57 0 0 1 .57.57l-.12 25.55a.57.57 0 0 0 .56.57l6.2.09a.567.567 0 0 0 .536-.35.575.575 0 0 0 .044-.22V7.32a.57.57 0 0 1 .57-.57h9.36a.57.57 0 0 0 .57-.57V.82a.57.57 0 0 0-.57-.57h-27.45a.571.571 0 0 0-.57.58l.14 5.36a.57.57 0 0 0 .57.56ZM284.36 27h12.53a.608.608 0 0 1 .61.61v5.28a.608.608 0 0 1-.61.61h-19.78a.61.61 0 0 1-.61-.61V.86a.612.612 0 0 1 .61-.61h19.27a.608.608 0 0 1 .61.61v5.28a.608.608 0 0 1-.61.61h-12.02a.608.608 0 0 0-.61.61v5.11a.615.615 0 0 0 .182.435.614.614 0 0 0 .438.175l10.17-.11a.607.607 0 0 1 .57.367.602.602 0 0 1 .05.233l.1 5.06a.604.604 0 0 1-.61.62h-10.29a.61.61 0 0 0-.61.61v6.53a.612.612 0 0 0 .61.61Zm24.94 5.9-.07-11.36a1.882 1.882 0 0 1 2.535-1.763c.38.141.705.402.925.743l8.02 12.54a.952.952 0 0 0 .8.44h7.03a.471.471 0 0 0 .39-.73l-8.57-12.87c-.227-.34-.15-.58.23-.72 8.81-3.39 7.99-16.22-1.37-18.17-4.267-.887-9.827-1.08-16.68-.58-.36.027-.54.22-.54.58v31.86c0 .162.065.317.182.431a.625.625 0 0 0 .438.18l6.17-.07c.34 0 .51-.17.51-.51Zm-.01-18.48.02-7.3a.33.33 0 0 1 .33-.33l4.96.01c1.244.003 2.435.37 3.313 1.018.877.649 1.369 1.527 1.367 2.442v1.06a2.688 2.688 0 0 1-.36 1.32 3.61 3.61 0 0 1-1.02 1.117c-.437.32-.955.572-1.524.745-.57.172-1.18.26-1.796.258l-4.96-.01a.329.329 0 0 1-.33-.33ZM57.28 59.31C52.09 68 61.07 78.42 70.35 74.58a.663.663 0 0 0 .291-.241.647.647 0 0 0 .11-.359v-3.23a1 1 0 0 0-1-1h-4c-.5 0-.75-.25-.75-.75v-5c0-.333.166-.5.5-.5h11.75c.333 0 .5.167.5.5v14.48c0 .32-.144.547-.43.68-12.75 6.15-29.01.73-28.88-15.16.12-14.37 16.39-19.36 27.73-14.18a.993.993 0 0 1 .58.9v6.26a.37.37 0 0 1-.58.31c-5.83-4-14.86-4.74-18.89 2.02ZM203.76 84.3c-.1-12.14.07-24 2.18-36.02.06-.353-.09-.53-.45-.53h-23.96c-.373 0-.463.16-.27.48l22.15 36.17a.192.192 0 0 0 .212.08.188.188 0 0 0 .138-.18ZM236.29 48l-15.61 23.11a.894.894 0 0 1-.83.39c-.946-.093-1.363-.847-1.25-2.26.567-7.08 1.544-14.1 2.93-21.06.06-.287.237-.43.53-.43h14.09c.207 0 .254.083.14.25Zm22.19.15c1.527 6 2.097 11.847 1.71 17.54-.6 8.813-1.587 19.237-2.96 31.27-.31 2.64 1.06 4.53 3.87 3.49.333-.12.587-.333.76-.64 1.98-3.48 3.763-7.67 5.35-12.57a362.026 362.026 0 0 0 10.26-38.89.504.504 0 0 0-.49-.6h-18.19c-.28 0-.383.133-.31.4Zm-255.76.3a.36.36 0 0 1 .36-.36l11.85-.03a18.875 18.875 0 0 1 6.612 1.176 17.496 17.496 0 0 1 5.61 3.374 15.608 15.608 0 0 1 3.753 5.058 14.318 14.318 0 0 1 1.325 5.972v1.88c.007 4.14-1.805 8.113-5.038 11.046-3.233 2.933-7.622 4.585-12.202 4.594l-11.85.03a.36.36 0 0 1-.36-.36l-.06-32.38Zm7.3 6.39-.06 19.54a.32.32 0 0 0 .31.32l4.21.02a10.956 10.956 0 0 0 4.01-.74 10.526 10.526 0 0 0 3.406-2.142 9.923 9.923 0 0 0 2.282-3.217 9.505 9.505 0 0 0 .812-3.8v-.3c.01-2.637-1.083-5.17-3.039-7.04-1.956-1.872-4.614-2.93-7.39-2.94l-4.21-.02a.32.32 0 0 0-.33.32ZM37.1 48h6.3a.6.6 0 0 1 .6.6v32.06a.6.6 0 0 1-.6.6h-6.3a.6.6 0 0 1-.6-.6V48.6a.6.6 0 0 1 .6-.6Zm53.14 0H84a.51.51 0 0 0-.51.51v32.22c0 .282.229.51.51.51h6.24a.51.51 0 0 0 .51-.51V48.51a.51.51 0 0 0-.51-.51Zm4.64 6.5h10.02a.41.41 0 0 1 .41.41l-.19 25.93a.41.41 0 0 0 .41.41h6.37a.41.41 0 0 0 .41-.41l-.04-25.93a.41.41 0 0 1 .41-.41h9.91a.41.41 0 0 0 .41-.41v-5.68a.41.41 0 0 0-.41-.41H94.84a.41.41 0 0 0-.41.41l.04 5.68a.41.41 0 0 0 .41.41Zm35.64 20.03-2.46 6.44a.427.427 0 0 1-.41.28h-6.62a.431.431 0 0 1-.4-.59l13.16-32.39a.426.426 0 0 1 .4-.27h6.41a.428.428 0 0 1 .4.27l13.15 32.39a.426.426 0 0 1-.043.401.436.436 0 0 1-.357.189h-6.9a.427.427 0 0 1-.41-.28l-2.46-6.44a.427.427 0 0 0-.41-.28h-12.64a.427.427 0 0 0-.41.28Zm2.57-6.48a.346.346 0 0 0 .042.303.342.342 0 0 0 .268.147l7.77-.01a.343.343 0 0 0 .281-.146.336.336 0 0 0 .039-.314l-3.9-10.51a.343.343 0 0 0-.32-.225.343.343 0 0 0-.32.225l-3.86 10.53Zm45.65 6.7h-13.48a.512.512 0 0 1-.51-.51V48.51a.512.512 0 0 0-.51-.51h-6.23a.512.512 0 0 0-.51.51v32.23a.503.503 0 0 0 .149.36.517.517 0 0 0 .361.15h20.73a.51.51 0 0 0 .51-.51v-5.48a.512.512 0 0 0-.51-.51ZM330 87.37v2.43c-1.2 21.61-16.25 38.25-38.32 39.2h-29.39c3.633-2.613 6.487-5.417 8.56-8.41 4.29-6.21 7.44-12.34 10.22-19.76 6.393-17.047 10.993-34.483 13.8-52.31.08-.487.363-.69.85-.61 20.3 3.33 33.42 18.94 34.28 39.46ZM248.69 129h2.87c-10.06-6.55-11.11-20.89-9.82-31.92a438.023 438.023 0 0 0 2.51-30.19 1.352 1.352 0 0 0-.946-1.365 1.347 1.347 0 0 0-1.554.585l-.153.245c-5.11 8.17-21.365 34.162-32.957 26.025a.16.16 0 0 0-.242.117.154.154 0 0 0 .022.103c8.63 13.52 23.27 33.48 40.27 36.4Z" fill="#04021A"/></mask><g clip-path="url(#c)" mask="url(#b)"><path transform="translate(-12 -72)" fill="url(#d)" d="M0 0h506.092v235.263H0z"/><g filter="url(#e)"><circle cx="-11.5" cy="-49.5" r="95.5" fill="#231BA1"/></g><g filter="url(#f)"><path d="M212 197.749c0 48.475-43.389 32.85-91.849 32.85s-85.692-1.827-85.692-50.302C34.459 131.821 21.918 53 70.377 53 118.837 53 212 149.273 212 197.749Z" fill="url(#g)"/></g></g></g><defs><linearGradient id="d" x1="-10" y1="126" x2="280" y2="42" gradientUnits="userSpaceOnUse"><stop stop-color="#3522A3"/><stop offset="1" stop-color="#000017"/></linearGradient><linearGradient id="g" x1="129.9" y1="172.084" x2="44.683" y2="47.893" gradientUnits="userSpaceOnUse"><stop stop-color="#FF75D8"/><stop offset="1" stop-color="#6E3CD0"/></linearGradient><clipPath id="a"><path fill="#fff" d="M0 0h330v129H0z"/></clipPath><clipPath id="c"><path fill="#fff" transform="translate(-12 -72)" d="M0 0h506.092v235.263H0z"/></clipPath><filter id="e" x="-207" y="-245" width="391" height="391" filterUnits="userSpaceOnUse" color-interpolation-filters="sRGB"><feFlood flood-opacity="0" result="BackgroundImageFix"/><feBlend in="SourceGraphic" in2="BackgroundImageFix" result="shape"/><feGaussianBlur stdDeviation="50" result="effect1_foregroundBlur_710_128"/></filter><filter id="f" x="-57" y="-37" width="359" height="360" filterUnits="userSpaceOnUse" color-interpolation-filters="sRGB"><feFlood flood-opacity="0" result="BackgroundImageFix"/><feBlend in="SourceGraphic" in2="BackgroundImageFix" result="shape"/><feGaussianBlur stdDeviation="45" result="effect1_foregroundBlur_710_128"/></filter></defs></svg>