<svg width="128" height="112" viewBox="0 0 128 112" fill="none" xmlns="http://www.w3.org/2000/svg"><path d="M116 56H96V40c0-8.825 7.175-16 16-16h2c3.325 0 6-2.675 6-6V6c0-3.325-2.675-6-6-6h-2C89.9 0 72 17.9 72 40v60c0 6.625 5.375 12 12 12h32c6.625 0 12-5.375 12-12V68c0-6.625-5.375-12-12-12Zm-72 0H24V40c0-8.825 7.175-16 16-16h2c3.325 0 6-2.675 6-6V6c0-3.325-2.675-6-6-6h-2C17.9 0 0 17.9 0 40v60c0 6.625 5.375 12 12 12h32c6.625 0 12-5.375 12-12V68c0-6.625-5.375-12-12-12Z" fill="#fff" fill-opacity=".12"/></svg>