<svg data-name="Layer 2" xmlns="http://www.w3.org/2000/svg" viewBox="0 0 1128 131"><path d="m0 130.44 752.22-.47s7.3-.42 7.47-14.1c.17-13.68 0-67.31 0-67.31s-1.09-5.04 7.47-5.2c8.56-.17 19.09-3.02 19.09-3.02s4.91-.5 11.08-7.93c4.42-5.32 12.16-3.82 15.56-2.97.76.19.82 1.25.1 1.54l-7.91 2.04s-.67.12-.9.48c-.49.73.52 2.16 2 2.61.69.21 1.04.11 2.37.03 7.47-.42 16.53-2.18 16.53-2.18l9.73-2.32c.62-.15.95-.85.64-1.41a10.727 10.727 0 0 0-3.51-3.77c-.4-.26-.88-.34-1.34-.24-4.49.96-8.99 1.91-13.48 2.87 0 0-1.34.76 1.76.34 2.5-.34 8.89-1.5 11.29-1.94.58-.11 1.17.09 1.58.53l1.38 1.49c.36.39.2 1.03-.31 1.2l-12.56 4.09 5.31-.72c.41-.06.68.42.41.74-2.07 2.43-8.53 9.02-18.17 9.64-7.65.49-11.15.62-12.68.64-.7.01-1.37.3-1.86.81l-.8.81c-.58.6-1.58.48-2.01-.23l-4.39-7.27 4.95 11.29-23.5 12.88s-1.01 22.79 2.14 23.04c3.15.25 20.14-11.46 20.14-11.46s9.44 2.81 7.76 10.7c-1.34 6.31-16.12 17.14-21.97 21.21-.55.38-1.23-.27-.86-.83 3.16-4.89 11.03-15.88 21.23-21.39 8.11-4.38 11.08-5.3 12.16-5.34 1.54-.06 3.03-.58 4.35-1.38 2.6-1.58 5.94-4.47 7.96-9.55 0 0-11.75 3.52-13.11-1.51 0 0-1.82-1.34 11-8.22 0 0 4.18 9.23 10.1 7.22 5.91-2.01 4.9-7.22 4.9-7.22l-8.06-10.41s-.84-.76-3.19.67c-2.35 1.43-4.87 2.85-4.87 2.85s-.67.92 0 1.76 1.01 2.18 2.43 1.26S836 43.04 836 43.04s4.95-3.02 7.55.25c2.6 3.27 1.68 4.87 1.68 4.87l-18.8 13.26-6.63 3.94s-10.74 6.13-11.33-4.45c0 0-7.97 2.94-11.33 10.07-3.36 7.13-6.55 7.1-6.55 7.1s8.6 4.81 4.41 9.97c-4.2 5.16-24.59 21.65-24.59 21.65s-13.63 12.62 10.07 14.98c15.98 1.59 22.69-10.7 22.69-10.7l8.37-14.23s16.34 1.17 15.95 4.2-5.48 22.32-7.72 23.67c-1.88 1.13 4.81-19.43 7.03-26.13.48-1.46.03-3.08-1.17-4.03-2.1-1.66-5.91-3.21-11.12.62 0 0 4.09 1.17 5.91-7.22 1.81-8.39 8.18-9.4 8.18-9.4s-1.5 6.71 2.53 6.21c2.56-.32 4.79-2.07 6.07-3.3l-8.2-5.88a.784.784 0 0 1-.21-1.04l4.38-7.13c.27-.44.84-.6 1.3-.36l11.23 5.84-5.35 3.68 4.42-5.77c.36-.47.74-.91 1.14-1.35 1.76-1.91 7.06-8.51-.51-11.22-7.37-2.64-8.93 3.23-9.25 5.33-.06.43.14.84.51 1.07l6.57 4.01-7.55-2.98c5.04 5.2 6.38 7.93 2.35 12.04-1.53 1.56.34 2.52.34 2.52s2.1 12.34-4.53 14.77c-6.63 2.43-5.71.5-11.08 10.91s-6.58 22.93-20.88 21.15c-8.09-1.01 41.36 0 41.36 0s1.6-41.54 7.39-56.4c5.79-14.85 17.95-16.87 17.95-16.87s3.3-.5 4.13-6.8 4.6 67.64-.94 76.71c0 0 4.21-32.06 1.76-34.91-1.98-2.31-10.64-8.19-13.57-10.04-.57-.36-.65-1.16-.17-1.63l5.5-5.38c.89-.87.69-2.35-.4-2.95l-3.14-1.73a1.69 1.69 0 0 1-.55-2.49l11.93-16.38s-9.39 18.11 5.63 19.45c11.42 1.02 16.48.59 18.25.32.47-.07.83-.45.88-.93.34-3.04 1.38-14.15-.93-17.19-2.69-3.52-2.53 13.76-2.53 13.76s-.15 6.71-11.23.17l6.21-.34-14.51-9.4s3.6-5.54 3.09-7.89 1.33 4.53-11.84 6.04c-6.27.72-9.04 2.28-10.22 3.71-.86 1.05.49 2.47 1.6 1.7 2.4-1.67 5.94-5.08 6.7-10.95 1.17-9.06-.81-28.37-.81-28.37S860.95-2.5 891.17.78c0 0 3.27 1.51.25 3.02 0 0 5.16-2.39 8.69 3.02 3.52 5.41 7.8 11.96 5.04 26.44-2.77 14.48 4.15 23.92 4.15 23.92s-15.23-.5-14.73-14.98l3.4-12.97s2.24-3.52-3.54-10.07-2.67-8.06-2.67-8.06 5.37.34-6.21 4.7-14.27 8.39-14.27 8.39-5.04 11.41 6.88 21.65c0 0 5.87 7.89 14.6-2.18 0 0 1.34 6.86 4.99 9.44 0 0-4.74 61.14 4.32 71.88 0 0-5.84-15.42-3.86-31.41.43-3.48 1.89-6.75 4.18-9.4l9.59-11.08a.927.927 0 0 0-.29-1.42l-8.51-4.32a.404.404 0 0 1 0-.72l4.23-2.23c.55-.29.66-1.04.21-1.48l-9.41-9.19c-.05-.05 0-.14.07-.1 1.7.9 8.59 4.45 12.93 5.15 6.21 1.01 14.27 10.74 17.62 44.98l2.85 23.33s-20.31 3.38-19.13-1.17c1.18-4.56-.34-19.13-.34-19.13 4.2-21.32 2.01-28.65 2.01-28.65s-.84.45-1.85 9.68c-1.01 9.23 4.53 35.25 4.53 35.25-3.86 2.69-37.6 3.02-44.22 1.85-6.62-1.17-13.86 0-13.86 0s8.4-16.28 3.14-24.41c-5.26-8.13-5.99-31.48-4.43-29.97 1.56 1.51.46 50.52-1.21 53.71-1.66 3.19-9.58 1.68-9.58 1.68 12.25 6.38 96.51 4.2 96.51 4.2 1.17-4.53-.17-6.72-3.19-18.63-1.79-7.04-1.87-11.16-1.64-13.34.13-1.21 1.02-2.19 2.2-2.51 7.21-1.95 7.5-5.48 6.99-12.35-.4-5.47-5.27-8.08-7.77-9.07-.21-.08-.37.2-.19.33 1.49 1.15 3.32 3.35-.26 5.55-4.47 2.74-9.43-5.04-10.74-7.29a.678.678 0 0 1 .26-.93l7.19-4.01c.5-.28.65-.94.31-1.4l-4.23-5.84-14.5 7.88c5.09 7.4 6.89 6.34 6.8 5.03-.05-.81-.38-1.58-.88-2.22l-5.32-6.89c-1.5-1.94-2.3-4.38-2-6.82.27-2.21 1.43-4.56 4.82-5.72 7.39-2.52 9.4 8.22 9.4 8.22l-8.06 5.2 3.52 7.22c-2.85 13.93 12.17 17.12 12.17 17.12l.06 2.8c0 .34.41.51.66.27.63-.59 1.89-1.38 4.4-2.07 4.87-1.34 5.54.67 5.54.67s2.35 7.22 9.9 19.13c7.55 11.92 4.36 12.25 4.36 12.25l-4.7 2.85c9.57-1.01 10.24-8.73 10.24-8.73 3.86-22.49 0-25.85 0-25.85s-7.22-7.22-13.26-10.57c-6.04-3.36-3.69-7.05-3.69-7.05l3.11-6.93c.1-.23.12-.49.04-.73-.33-1.02-1.36-4.11-2.99-8.45-2.01-5.37-10.57-4.36-10.57-4.36l4.53 5.04-9.01-7.22-5.68 7.11s1.77-2.58 4.45-6.1c2.69-3.52-4.53-7.72-4.53-7.72l-5.04 7.55s-7.89-3.86-11.58-7.22c-2.91-2.65-1.23-4.98-.39-5.85.21-.22.55-.27.82-.12l15.52 8.82s-2.18 7.72 0 10.07c2.18 2.35 12.92 2.69 12.92 2.69h-6.88c-6.46 0 2.1 5.92 2.1 5.92l6.46 4.59c6.63 4.97 10.24-4.97 10.24-4.97s5.54 4.53 18.8 10.57c13.26 6.04 5.04 5.37 1.85 4.2s4.33-.9 4.33-.9c8.56.17 7.47 5.2 7.47 5.2s-.17 18.13 0 31.81 7.47 14.1 7.47 14.1h132.94" style="fill:none;stroke:#fff;stroke-linejoin:round" data-name="Layer 1"/></svg>