<svg data-name="Layer 2" xmlns="http://www.w3.org/2000/svg" viewBox="0 0 1128 208"><path d="M1128 207.05H855.29s-1.15-5.87-3.03-8.68c-1.88-2.81-1.75-6.64-1.75-6.64h-33.32s-4.34 8.17 2.3 7.66c6.64-.51 15.9 0 15.9 0s1.46-.34 1.29-3.49c-.17-3.15.26-3.4-1.02-3.4s-1.28 1.96-1.28 1.96-.85 4.94 2.81 4.94c4.6 0 13.36-.6 13.36-.6l1.11-7.06s11.12-1.34 8.61-27.23c-.06-.66-.94-.88-1.28-.3-1.03 1.75-1.84 5.91 2.49 8.04 3.37 2.89 14.69-19.32 11.88-25.32 0 0-7.06 12.55-7.75 3.19-.66-9.03-.68-13.31-8-29-2.52-5.3-17.87-6.68-10.71-14.83-4.47 10.94 11.44 5.82 3.69.87 0 0 1.47-1.08 2.62 1.72 1.5 3.66-4.83.08-4.13-.81.43-.54 1.41.64 2.13 1.66 1.14 2.85-5.02 1.28-3.76.02.32-.32.78-.41 1.1-.1 1.11 1.09 3.17 3.42.23 3.06-8.19-.68 1.93-13.95 4.85-9.19l4.6 9c6.35 8.03 27.31 25.06 10.28 39.13-2.36.21 2.17-15.59-5.11-11.45 0 0-3.66 11.92-17.41 13.32-13.75 1.4-10.68-2.26-10.68-2.26s1.15-1.92-4.53-6.26-2.94-8.94-2.94-8.94l8.83-13.48c3.86-6.32 18.76 4.54 10.77 8.82 3.32.51-.21 4.66-.21 4.66 9.72-6.78 12.54 2.4 5.53 4.51 0 0-5.7-.6-4.26 3.83s5.79 1.62 5.79 1.62c11.83-10.04 5.36-18.73 5.36-18.73s-9.19-9.19-15.76-9.19-2.79 1.7-2.79 1.7c20.22 7.23 5.76 11.42 10.43 21.24 2.94 7.28-1.05 8.3-1.05 8.3s-14.65 9.42-31.57-4.31c-.72-.58-1.83 0-1.66.9.61 3.36.88 16.81-5.72 7.03.96.91-10.81-9.83-14-15.24-5.12-8.42-4.63-19.71-11.87-24.66l-4.92-2.52c-1.88-1.55.14-3.4 2.51-2.96.78.08 1.51.39 2.14.85 3 2.3-5.68-.03-4.63-2.79.8-1.5 3.05-1.22 5.69-.02 3.11 1.75-4.58 1.35-5.32-1.62-.8-3.2 3.59-1.87 5.42-1.2 1.19 2.06-3.01 1.62-4.85-.96-.69-1.67 1.03-2.23 3.06-1.61 0 0 2.29-.33 3.7-1.86l14.7-88.22s.64-2.17 5.11 0c21.65 11.47 86.82 27.54 107.5 35.49 0 0 15.83 5.11 27.07-1.53 0 0 8.68-1.53 13.53 2.3 0 0 3.06 0 9.96-2.3 6.89-2.3 5.62 5.36 5.62 5.36s2.3 39.58-3.32 41.88c-14.06 2.63-14.33-2.07-26.05-2.55-32.48 3.4-16.15-22.22-63.84-16.85-37.94 4.27-34.79-20.51-77.88-18.13l4.34-45.96s1.53-16.6-3.83 0-8.43 47.75-8.43 47.75c-3.17 21.75-10.61 52.75-11.36 76.86.74 4.22 5.06-24.23 7-34.74-5.66-10.67 25.61-.19 10.88-39.82 0 0 32.3-3.57 42.77 7.92 38.12 20.54 37.15-7.19 72.9 17.24 5.56 3.8 11.99 6.13 18.71 6.67 10.46.84 25.44 1.57 31.47-.42 0 0 2.55-1.79 1.4 6.64s-6.38 34.22-6.38 34.22c-.03 8.64-8.83 5.73-12.77 5.74-9.95 1.35-10.31-23.73-37.03-15.19-49.57 7.45-22.42-2.24-77.75-12.25-26.94-4.98-45.49-9.15-45.49-9.15 1.36-.45.21-2.77 2.21-2.43.89.11 1.36 2.13 1.32 3.4-.31 2.46 3.09 13.36 5.19 18.39 2.9 6.96 9.34 17.17 16.56 22.43 5.62 3.46 10.29 15.73-.15 14.02 8.76 21.42 4.34 10.7 11.21 3.49.19.1-.39 1.51-.39 1.51-6.22 10.64-2.2 7.83-3.99 17.02-2.21 11.38-7.66 29.88-7.66 29.88-270.28 0-541.3.45-811.57.45" style="fill:none;stroke:#fff;stroke-linejoin:round" data-name="Layer 1"/></svg>