<svg data-name="Layer 2" xmlns="http://www.w3.org/2000/svg" viewBox="0 0 1128 155"><path d="M1128 153.54h-108.16c-15.04 0-13.56-10.57-13.56-10.57s-.33-22.88 0-37.8c.3-13.43-11.86-12.03-11.86-12.03h-97.15c-.43 0-.71-.46-.5-.84 4.31-7.63 5.52-22.31 4.02-27.04-.11-.36-.45-1.41-1.05-1.49-.66-.08-1.3 1.03-1.54 1.44-1.89 3.28-3.96 19.11 2.04 23.42 1.74 1.25 4.22.82 5.61-.8 6.63-7.75 4.76-23.88 3.66-28.88-.12-.55-.41-1.83-1.01-1.91-.66-.08-1.34 1.34-1.59 1.86-2.01 4.19-2.06 21.29 3.64 28.78 1.07 1.4 3.21 1.5 4.34.16 7.28-8.65 5.7-32.19 4.93-34.2-.1-.25-.37-.97-.77-.98-.4-.02-.73.66-.85.9-1.04 2.14-5.16 26.34 1.45 33.61 1.95 2.15 5.44 1.85 7.15-.5 3.83-5.23 3.67-15.19 2.31-18.75-.15-.39-.54-1.42-1.04-1.41-.5 0-.87 1.07-1 1.47-.77 2.25-3.22 15.3 1.77 19.31 1.65 1.32 4.1 1.05 5.53-.51 1.81-1.98 3.04-4.05 3.85-6.1 0 0 3.26-9.12.17-14.51-.11-.19-.41-.72-.78-.7-.37.02-.62.61-.71.82-.66 1.58-2.4 15.78 2.59 20.93 1.07 1.1 2.88 1 3.86-.18 3.69-4.47 5.46-8.92 6.14-12.97 0 0 1.63-9.15-1.6-14.06-.16-.24-.61-.93-1.13-.88-.54.04-.88.84-1 1.14-.91 2.14-3.07 19.45 2.17 26.06 1.13 1.43 3.38 1.27 4.38-.25 3.54-5.4 5.37-10.72 6.2-15.51 0 0 1.88-9.58-.62-16.15-.12-.31-.46-1.21-.89-1.2-.42.01-.71.89-.82 1.23-4.91 14.77-.28 28.18-.28 28.18 4.36 14.07 5.11-5.61 5.11-5.61l.95-32.7 2.92 3.64a.8.8 0 0 0 1.37-.23l3.95-11.15a.686.686 0 0 0-.63-.92l-11.25-.28c-.6-.02-.99.64-.69 1.16l2.91 5.08c.28.49.17 1.1-.26 1.46-4.99 4.16-33.58 27.18-33.16 9.56.38-16.07-5.59-12.05-5.59-12.05s-31.2 23.81-31.19-4.07c0-22.01 2.16-18.85 2.56-13.52.31 4.06.37 8.13.23 12.19l-1.77 49.46c.42 9.32-5.08 8.47-5.08 8.47-30.93-1.27-33.9 2.37-33.9 2.37-18.98 14.24-26.95 14.75-34.92 18.81-7.97 4.07-10.68-15.76-6.1-29.15 4.58-13.39-3.73-15.42-3.73-15.42s-12.03-6.02-14.41-12.2c-2.37-6.18-18.71-6.1-21.63-7.37-2.92-1.27 2.61-6.23 5.28-7.5 2.67-1.27 3.64-.04 2.29 1.99s-2.2.68-2.2.68c-10.99-22.75-5.42-33.22-5.42-33.22 9.4-16.62 22.3-11.34 27.01-8.63 1.47.85 2.97 1.64 4.51 2.35 3.9 1.8 10.26 5.21 6.62 6.79-3.45 1.49-11.09-.75-15.67-2.35-2.36-.83-5.01-.16-6.64 1.73-.03.04-.06.07-.09.11-3.07 3.59-4.97 8.04-5.59 12.72-.25 1.88-.47 4.02-.53 6.06-.05 1.74-1.69 4.45-3.24 5.26-1.61.84-3.38.75-3.84-5.04-1.02-12.8 7.12-2.54 7.12-2.54.36 10.98 9.27 18.97 13.56 18.64 6.61-.51 5.59-4.92 5.59-4.92-6.44-4.92-1.86-5.93-1.86-5.93 5.08-.34 3.05-5.25 3.05-5.25 4.41-1.86 1.53-4.75 1.53-4.75-4.5-8.15 1.36-10.68 1.36-10.68 6.95 4.41 2.2 35.08-2.54 34.41s-5.76 1.36-7.12 6.27c-1.36 4.92 2.2 9.83 2.2 9.83s9.66 13.39 14.07 22.71c3.33 7.05 3.18 14.4 2.9 17.56a1.26 1.26 0 0 1-1.64 1.09c-14.07-4.63-22.19 1.74-24.17 3.59-.1.09 0 .26.13.22 1.87-.58 7.41-1.52 10.3-1.99 1.02-.17 1.75-1.09 1.64-2.12-2.6-24.8-17.53-45.66-30-39.02-15.59 8.31-4.83 21.32-4.83 21.32s22.63 27.66 29.92 35.8c7.29 8.14 12.54 2.2 12.54 2.2l24.92-16.44s4.07-5.25 13.05-4.12 10.34-3.17 10.34-3.17-.51-2.2 5.76-3.22 4.24-3.05 4.24-3.05c-13.05 0-11.53-3.73-11.53-3.73-.34-6.1-6.95-1.86-6.95-1.86l-7.29 7.63s-2.03 2.2-17.8 8.31c-15.76 6.1-15.76-.9-15.76-.9l-8.98-21.81c-8.85-22.82-20.57-25.32-27.05-24.66-3.04.31-5.82 1.76-7.93 3.97-4.58 4.8-12 16.36-6.38 37.58 7.8 29.43 5.49 51.48 5.49 51.48-251.58-1.66-510.36 2.19-761.94.53" style="fill:none;stroke:#fff;stroke-linejoin:round" data-name="Layer 1"/></svg>