<svg data-name="Layer 2" xmlns="http://www.w3.org/2000/svg" viewBox="0 0 328.5 104.42"><path d="M327.96 103.92s1.23-.37-9.95-.37c-10.13 0-9.13-7.12-9.13-7.12s-.22-15.41 0-25.45c.2-9.05-7.99-8.1-7.99-8.1h-65.42c-.29 0-.48-.31-.34-.56 2.9-5.14 3.72-15.02 2.71-18.21-.08-.24-.3-.95-.71-1-.44-.06-.88.69-1.03.97-1.27 2.21-2.67 12.87 1.38 15.77 1.17.84 2.84.55 3.78-.54 4.47-5.22 3.2-16.08 2.47-19.45-.08-.37-.28-1.23-.68-1.29-.44-.06-.9.9-1.07 1.25-1.35 2.82-1.39 14.34 2.45 19.38.72.95 2.16 1.01 2.92.1 4.9-5.83 3.84-21.68 3.32-23.03-.06-.17-.25-.65-.52-.66-.27-.01-.49.45-.57.61-.7 1.44-3.47 17.74.98 22.63 1.31 1.45 3.66 1.24 4.81-.33 2.58-3.52 2.47-10.23 1.56-12.63-.1-.26-.36-.95-.7-.95-.34 0-.58.72-.67.99-.52 1.52-2.17 10.31 1.19 13 1.11.89 2.76.71 3.72-.34 1.22-1.34 2.05-2.73 2.59-4.11 0 0 2.19-6.14.11-9.77-.07-.13-.28-.48-.52-.47-.25.01-.42.41-.48.56-.45 1.07-1.62 10.62 1.74 14.1.72.74 1.94.67 2.6-.12 2.48-3.01 3.68-6 4.13-8.73 0 0 1.1-6.16-1.08-9.47-.11-.16-.41-.62-.76-.59-.36.03-.59.56-.68.77-.61 1.44-2.07 13.1 1.46 17.55.76.96 2.28.85 2.95-.17 2.39-3.63 3.62-7.22 4.17-10.44 0 0 1.27-6.45-.42-10.87-.08-.21-.31-.81-.6-.81-.28 0-.48.6-.56.83-3.3 9.95-.19 18.98-.19 18.98 2.94 9.47 3.44-3.78 3.44-3.78l.64-22.02 1.97 2.45c.26.33.78.24.92-.16l2.66-7.51c.11-.3-.11-.61-.43-.62l-7.57-.19a.523.523 0 0 0-.47.78l1.96 3.42c.19.33.12.74-.17.98-3.36 2.8-22.61 18.3-22.33 6.44.26-10.82-3.77-8.11-3.77-8.11s-21.01 16.04-21-2.74c0-14.82 1.45-12.69 1.72-9.1.21 2.73.25 5.47.15 8.21l-1.19 33.31c.29 6.28-3.42 5.71-3.42 5.71-20.83-.86-22.83 1.6-22.83 1.6-12.78 9.59-18.15 9.93-23.51 12.67-5.36 2.74-7.19-10.61-4.11-19.63s-2.51-10.39-2.51-10.39-8.1-4.05-9.7-8.22c-1.6-4.16-12.6-4.11-14.57-4.96-1.97-.86 1.75-4.19 3.55-5.05 1.8-.86 2.45-.03 1.54 1.34s-1.48.46-1.48.46c-7.4-15.32-3.65-22.37-3.65-22.37 6.33-11.19 15.02-7.64 18.18-5.81.99.57 2 1.1 3.04 1.58 2.63 1.22 6.91 3.51 4.46 4.57-2.32 1.01-7.47-.5-10.55-1.58-1.59-.56-3.37-.11-4.47 1.17-.02.02-.04.05-.06.07-2.07 2.41-3.34 5.41-3.77 8.56-.17 1.26-.32 2.71-.35 4.08-.03 1.17-1.14 3-2.18 3.54-1.09.57-2.28.51-2.59-3.4-.68-8.62 4.79-1.71 4.79-1.71.25 7.39 6.24 12.78 9.13 12.55 4.45-.34 3.77-3.31 3.77-3.31-4.34-3.31-1.26-3.99-1.26-3.99 3.42-.23 2.05-3.54 2.05-3.54 2.97-1.26 1.03-3.2 1.03-3.2-3.03-5.49.91-7.19.91-7.19 4.68 2.97 1.48 23.63-1.71 23.17s-3.88.91-4.79 4.22c-.91 3.31 1.48 6.62 1.48 6.62s6.51 9.02 9.47 15.29c2.25 4.75 2.14 9.7 1.95 11.82a.85.85 0 0 1-1.11.73c-9.47-3.11-14.94 1.17-16.27 2.42-.07.06 0 .17.08.15 1.26-.39 4.99-1.02 6.94-1.34.69-.11 1.18-.74 1.1-1.43-1.75-16.7-11.8-30.75-20.2-26.27-10.5 5.59-3.26 14.36-3.26 14.36s15.24 18.63 20.15 24.11c4.91 5.48 8.45 1.48 8.45 1.48L191.96 75s2.74-3.54 8.79-2.78c6.05.76 6.96-2.13 6.96-2.13s-.34-1.48 3.88-2.17c4.22-.68 2.85-2.05 2.85-2.05-8.79 0-7.76-2.51-7.76-2.51-.23-4.11-4.68-1.26-4.68-1.26l-4.91 5.14s-1.37 1.48-11.98 5.59c-10.61 4.11-10.61-.61-10.61-.61l-6.05-14.69c-5.96-15.36-13.85-17.05-18.21-16.6-2.05.21-3.92 1.18-5.34 2.67-3.08 3.23-8.08 11.01-4.29 25.3 5.25 19.82 3.69 34.67 3.69 34.67L0 103.92" style="fill:none;stroke:#fff;stroke-linejoin:round" data-name="Layer 1"/></svg>