<svg width="64" height="64" viewBox="0 0 64 64" fill="none" xmlns="http://www.w3.org/2000/svg"><path d="M33.34 24.04a7.22 7.22 0 1 0 0-14.44 7.22 7.22 0 0 0 0 14.44ZM15.01 24.07a5.43 5.43 0 1 0 0-10.86 5.43 5.43 0 0 0 0 10.86ZM36.862 27.832l-25.52-.044a3.67 3.67 0 0 0-3.676 3.663l-.032 18.34a3.67 3.67 0 0 0 3.664 3.677l25.52.044a3.67 3.67 0 0 0 3.676-3.663l.032-18.34a3.67 3.67 0 0 0-3.664-3.677ZM44.46 45.24l-.09-9.02a1.9 1.9 0 0 1 .88-1.63l7.3-4.64a1.9 1.9 0 0 1 2.92 1.63l-.24 18.09a1.9 1.9 0 0 1-2.91 1.58l-6.98-4.43a1.9 1.9 0 0 1-.88-1.58Z" fill="#000"/></svg>