<svg width="64" height="64" viewBox="0 0 64 64" fill="none" xmlns="http://www.w3.org/2000/svg"><path d="M49.04 17.71c-3.97 2.41-6.04 4.19-7.48 8.37a1.536 1.536 0 0 1-.57.76c-3.3 2.27-4.68.6-6.88-2.04-5.08-6.12-13.87-3.58-17.44 2.89-4.13 7.48-11.92-5.07-3.84-5.9 4.04-.42 7.05-1.67 9.1-5.27 1.64-2.9 4.56-4.81 6.95-1.46 2.867 4.033 6.357 5.487 10.47 4.36 2.34-.64 4.49-3.19 6.57-4.7a1.113 1.113 0 0 0 .44-.77c.23-2.31 1.27-4.23 3.75-4.56 5.42-.71 6.75 8.08-.17 8.06-.32 0-.62.087-.9.26ZM53.25 25.84h-5.24a1.5 1.5 0 0 0-1.5 1.5v25.98a1.5 1.5 0 0 0 1.5 1.5h5.24a1.5 1.5 0 0 0 1.5-1.5V27.34a1.5 1.5 0 0 0-1.5-1.5Z" fill="#000"/><path d="M22.08 54.77a.55.55 0 0 1-.55-.55l-.04-21.08a3.903 3.903 0 0 1 .22-1.309c.147-.415.362-.792.635-1.11.272-.317.595-.57.951-.741.357-.172.738-.26 1.124-.26h2.46c.775 0 1.52.359 2.068.996.55.637.86 1.502.862 2.404l.04 21.08a.55.55 0 0 1-.55.55l-7.22.02ZM40.952 34.22l-5.44-.039a1.37 1.37 0 0 0-1.38 1.36l-.124 17.86a1.37 1.37 0 0 0 1.36 1.38l5.44.038a1.37 1.37 0 0 0 1.38-1.36l.124-17.86a1.37 1.37 0 0 0-1.36-1.38ZM16.24 38.34H10.5a1.24 1.24 0 0 0-1.24 1.24v13.98c0 .685.555 1.24 1.24 1.24h5.74a1.24 1.24 0 0 0 1.24-1.24V39.58a1.24 1.24 0 0 0-1.24-1.24Z" fill="#000"/><circle cx="13" cy="26" r="5" fill="#000"/><circle cx="26" cy="17" r="5" fill="#000"/><circle cx="38" cy="23" r="5" fill="#000"/></svg>