<svg width="64" height="64" viewBox="0 0 64 64" fill="none" xmlns="http://www.w3.org/2000/svg"><path d="M17.11 44.01c-7.307-5.94-9.303-12.93-5.99-20.97 5.04-12.22 21.79-15.4 32.27-10.35 15.21 7.34 16.52 25.75.75 33.76-5.9 2.99-11.29 2.7-18.18 2.24a1.128 1.128 0 0 0-.92.37c-2.94 3.22-6.593 5.05-10.96 5.49a.91.91 0 0 1-.54-1.7c3.02-1.7 4.38-4.323 4.08-7.87a1.41 1.41 0 0 0-.51-.97Zm18.85-14.25a3.48 3.48 0 1 0-6.96 0 3.48 3.48 0 0 0 6.96 0Zm10.61-.05a3.47 3.47 0 1 0-6.94 0 3.47 3.47 0 0 0 6.94 0Zm-21.21.04a3.45 3.45 0 1 0-6.9 0 3.45 3.45 0 0 0 6.9 0Z" fill="#000"/></svg>