<svg width="387" height="201" viewBox="0 0 387 201" fill="none" xmlns="http://www.w3.org/2000/svg"><path d="M114.763 184.818c2.721 0 5.31.026 7.9-.006 6.878-.084 13.759-.201 20.638-.276.666-.009 1.347.119 1.996.285 1.03.265 1.233 1.021.398 1.663-.765.588-1.673.989-2.519 1.475-.137.078-.268.163-.667.404.841.07 1.391.157 1.944.157 19.296 0 38.593.058 57.889-.052 6.911-.041 13.818-.48 20.722-.762 1.036-.044 2.066-.227 3.099-.346l.044-.323c-1.921-.413-3.829-.896-5.767-1.224-2.06-.349-4.143-.553-6.215-.826-.265-.035-.559-.053-.783-.178-.27-.151-.678-.41-.675-.622 0-.291.274-.762.527-.841 1.175-.366 2.386-.866 3.585-.875 4.553-.035 9.107.108 13.657.169.742.009 1.484-.082 2.223-.064 1.094.026 1.539-.276 2.054-1.492 1.473-3.49 1.275-7.166 1.723-10.751.742-5.947 1.239-11.929 1.778-17.9.36-3.993.654-7.991.89-11.993.052-.875-.172-1.809-.454-2.655-.529-1.576-.541-1.733.809-2.812.18-.145.416-.224.628-.332-.16-.055-.317-.113-.477-.168-.157-.919-.404-1.835-.462-2.76-.411-6.66-.809-13.319-1.161-19.979-.268-5.048-.477-10.097-.672-15.148-.03-.78-.21-1.262-.926-1.704-.611-.378-.966-1.146-1.501-1.672-1.065-1.044-.917-2.295-1.007-3.644-.096-1.454-.89-2.87-1.443-4.281-1.082-2.76-2.211-5.502-3.311-8.256-2.144-5.363-2.601-10.876-1.731-16.58 1.228-8.034 2.723-16.008 4.827-23.863.422-1.58.934-3.12 2.176-4.258.352-.323.911-.424 1.373-.628.137.48.449.983.387 1.434-.401 2.963.387 5.83.635 8.736.329 3.859.806 7.706 1.222 11.557.026.23.087.456.218.689.588-2.103 1.455-4.133.995-6.418a786.565 786.565 0 0 1-2.424-12.709c-.631-3.434-.436-3.894 2.73-5.455 1.961-.969 3.997-1.798 6.04-2.583 2.892-1.108 4.897-3.021 5.874-5.982.245-.736.076-1.247-.419-1.902-2.639-3.48-4.073-7.36-2.714-11.714.957-3.068 3.645-4.365 6.482-5.28 2.089-.675 4.237-.74 6.425-.193.346-1.256 1.271-1.384 2.26-1.215 4.446.762 7.9 3.679 6.652 9.347-.044.194-.067.482-.198.558-1.071.63-.489 1.492-.343 2.28.491 2.667-.076 5.243-.786 7.773a22.371 22.371 0 0 1-1.658 4.217c-.908 1.753-2.005 2.181-3.949 1.832a15.354 15.354 0 0 1-1.763-.445c-.541-.163-1.065-.378-1.606-.576-.326 1.6.017 2.455 1.592 3.246 2.164 1.09 4.358 2.152 6.622 3.013 1.449.552 2.403 1.419 2.988 2.788 2.351 5.52 4.699 11.04 7.044 16.562.786 1.853 1.56 3.71 2.427 5.779.465-1.361.829-2.504 1.248-3.624a212.36 212.36 0 0 1 2.234-5.746c.245-.596.169-.92-.445-1.166-.465-.187-.902-.463-1.318-.745-2.354-1.605-2.79-3.278-1.469-5.933-.253-.066-.512-.226-.693-.165-.922.32-1.539-.093-2.144-.719-.515-.532-1.12-.974-1.65-1.489-1.134-1.105-1.14-1.462-.064-2.628-1.236-.707-2.525-1.431-2.834-2.935-.145-.715-.087-1.573.172-2.254.768-2.03 3.189-3.137 5.554-2.675 1.938.378 2.631 1.532 2.817 4.854.547-.28 1.039-.535 1.533-.786 1.237-.625 1.292-.61 1.982.538.521.867 1.018 1.748 1.565 2.6.495.768.352 1.228-.538 1.495-.248.073-.442.332-.661.503.248.18.498.52.739.515 3.023-.064 4.208 1.94 5.081 4.368.154.43.474.942.855 1.12 1.6.747 2.066.357 2.415-1.804-1.6-.91-3.195-1.78-4.74-2.73-.247-.152-.369-.675-.366-1.027.005-.497.305-1.003.256-1.483-.14-1.405-.396-2.8-.597-4.2-.038-.264-.125-.572-.035-.796.198-.494.495-.948.748-1.416.46.27 1.036.448 1.356.834.489.588.771 1.34 1.199 1.986.165.254.468.515.742.556.151.023.509-.393.532-.634.14-1.492.262-2.992.288-4.49.018-.971-.212-1.949-.183-2.92.014-.471.369-.93.57-1.396.434.247 1.007.39 1.28.756 2.014 2.7 2.761 5.779 2.238 9.074-.338 2.117-1.024 4.173-1.499 6.27-.259 1.145-.349 2.332-.617 3.475-.11.477-.404.98-.762 1.317-.858.811-1.018 2.132-.224 3.007 2.127 2.347 4.251 4.697 6.413 7.009.521.555 1.187.977 1.909 1.556.244-.469.468-.823.622-1.207 2.374-5.84 4.737-11.682 7.108-17.522a11.8 11.8 0 0 1 .544-1.195c.547-.989 1.025-1.041 1.752-.34.544-.268 1.024-.576 1.545-.742.931-.296 1.885-.512 2.834-.756 1.792-.456 3.361-1.23 4.233-2.986.498-1.004 1.569-.66 2.363-.949.116-.043.55.512.69.85.637 1.518 1.222 3.056 1.952 4.906.428-.556.826-.87.957-1.271.882-2.693.25-4.258-2.246-5.622-1.237-.674-2.424-1.282-3.992-.759-1.417.471-2.805-.07-3.634-1.352-.853-1.32-1.667-2.704-2.229-4.164-1.3-3.38-2.042-6.913-2.421-10.513-.081-.78.091-1.582.155-2.527.067.043-.009-.024-.099-.064-1.967-.87-2.235-1.937-.731-3.51 2.61-2.731 5.968-4.1 9.567-4.944 2.089-.489 4.21-.605 6.326-.192 1.533.3 2.909.881 3.645 2.42.093.197.283.398.478.488 1.6.744 2.385 2.14 2.935 3.696.937 2.647 1.228 5.386.966 8.172-.198 2.1-1.012 3.993-2.319 5.633-1.14 1.434-1.158 2.867-.331 4.415.267.505.483 1.038.724 1.558.055.122.102.346.172.352 1.35.143 1.114 1.707 2.019 2.23.934.539 1.888 1.045 2.819 1.588a96.056 96.056 0 0 1 3.291 1.987c2.756 1.76 4.894 4.086 6.477 6.956a141.076 141.076 0 0 1 9.692 21.773c1.108 3.193 1.024 6.433.733 9.696-.585 6.514-1.495 12.984-2.918 19.376-.248 1.117-.675 2.039-1.513 2.958-.978 1.073-1.528 2.594-2.063 3.996-.722 1.896-1.286 3.882-2.735 5.356-.698.71-1.656 1.274-2.601 1.603-1.083.378-1.81-.454-1.409-1.542.393-1.07.969-2.07 1.455-3.108.338-.719.661-1.446.891-1.952-.315.239-.722.698-1.231.89-.509.195-1.275.355-1.638.108-.355-.242-.562-1.073-.445-1.55.177-.724.648-1.393 1.064-2.042.905-1.398 1.86-2.765 2.779-4.155.099-.152.169-.39.122-.553-.736-2.626-.183-5.226.187-7.82.5-3.536 1.094-7.055 1.623-10.588.343-2.292.087-4.435-1.152-6.509-2.022-3.382-3.864-6.874-5.784-10.32-.062-.111-.14-.21-.364-.538 0 1.78-.07 3.315.012 4.841.337 6.224.73 12.444 1.088 18.668.116 2.018.198 4.039.282 6.057.012.3.023.631-.087.899-.117.279-.338.613-.591.707-.18.066-.553-.175-.733-.376-.288-.322-.504-.715-.725-1.093-2.54-4.333-5.065-8.675-7.614-13.002-.469-.797-1.027-1.542-1.545-2.31l-.25.111c.11.468.157.963.343 1.399 1.272 2.972 2.581 5.93 3.858 8.899.492 1.143 1.027 2.283 1.362 3.475.163.576.122 1.451-.221 1.847-.271.314-1.193.259-1.749.099-2.659-.757-5.29-1.609-7.934-2.42-.315-.096-.641-.151-1.065-.026.573.358 1.134.739 1.725 1.064 1.269.701 2.581 1.326 3.82 2.077.428.258.693.785 1.033 1.189-.468.177-.931.486-1.408.509-1.472.067-2.95.023-4.425.023-.006.128-.015.253-.021.381.783.12 1.56.303 2.345.346 3.719.21 7.414-.035 11.092-.602.099-.014.198-.05.296-.055.466-.017.931-.026 1.397-.038-.163.396-.343.788-.483 1.192-.207.597-.582 1.254.46 1.478.748.16.774.747.745 1.346-.149 3.164-.291 6.328-.454 9.492-.233 4.441-.568 8.879-.704 13.325a509.072 509.072 0 0 0-.242 17.388c.006 1.506.393 3.077.914 4.502 4.774 13.008 9.404 26.056 12.715 39.532.224.914.366 1.85.515 2.784.224 1.41.474 2.841-1.03 3.873l.113.282c.835.134 1.667.375 2.502.384 7.961.093 15.922.148 23.882.212.777.006 1.56-.052 2.325.038.384.047.733.361 1.1.553-.361.166-.719.471-1.082.474-3.509.029-7.018.029-10.527 0-5.162-.044-10.321-.111-15.482-.181-.704-.008-1.409-.09-2.212-.145.032.262.018.524.096.753.62 1.818.021 3.199-1.425 4.357-2.395 1.919-5.066 3.35-7.914 4.429-1.377.52-2.826.942-4.28 1.128-2.151.276-3.053-1.006-1.973-2.902 1.076-1.888 2.456-3.612 3.765-5.363.8-1.073 1.714-2.059 2.662-3.187-2.84-1.483-3.843-4.179-4.812-6.77-4.164-11.141-8.217-22.326-12.302-33.496-.323-.887-.559-1.806-.911-2.681-2.348-5.851-3.165-12.022-3.977-18.214-.841-6.409-1.851-12.798-2.837-19.19-.163-1.056-.311-2.21-1.507-3.01.448 1.189.846 2.207 1.216 3.237.989 2.757.666 5.604.477 8.416-.454 6.688-1.085 13.365-1.492 20.057-.318 5.243-.347 10.504-.606 15.753-.41 8.245-.896 16.486-1.382 24.725-.171 2.891-.433 5.778-.66 8.666-.029.369-.044.753-.16 1.096-.093.274-.335.501-.509.748-.23-.279-.643-.55-.661-.841-.067-1.073 0-2.152.009-3.231.078-11.359.174-22.718.209-34.077.006-1.78-.27-3.556-.407-5.336-.079-1.012-.582-1.501-1.629-1.489-.806.009-1.618-.073-2.424-.157-1.402-.148-1.871-.98-1.272-2.263.184-.392.376-.866.705-1.09.843-.573.823-1.37.823-2.225-.017-7.753.029-15.506-.049-23.259-.03-2.757-.297-5.517-.556-8.265-.082-.846-.39-1.716-.78-2.48-1.624-3.173-2.619-6.474-2.555-10.08.012-.715-.422-1.44-.651-2.16l-.405.072c-.058.652-.142 1.303-.171 1.954-.437 9.594-.9 19.188-1.289 28.782-.251 6.127-.638 12.263-.518 18.385.11 5.717.779 11.423 1.262 17.132.469 5.572 1.028 11.138 1.519 16.707.364 4.126.629 8.265 1.039 12.385.18 1.824-.375 3.225-1.766 4.36-.23.186-.413.427-.748.779 2.051 1.134 4.12 1.739 6.349 1.437 1.117-.152 2.188-.631 3.285-.94.302-.084.739-.227.913-.087.189.151.242.614.189.91-.285 1.626-.643 3.237-.933 4.863-.193 1.07-.818 1.692-1.848 1.872-3.25.568-6.494 1.228-9.768 1.609-2.432.285-4.908.229-7.364.247-.823.006-1.824-.044-2.156-.986-.332-.936.408-1.623 1.036-2.143 2.392-1.972 4.842-3.874 7.271-5.802.471-.375.943-.747 1.504-1.195-8.01-.381-15.883-.753-23.972-1.137.579.331 1.042.541 1.44.834.702.515 1.458 1.001 2.023 1.649.922 1.056.663 2.103-.673 2.504-1.309.396-2.694.678-4.058.742-4.79.221-9.579.174-14.339-.515-1.472-.212-1.725-.413-1.909-1.879-.139-1.099-.16-2.219-.157-3.329.003-.919-.302-1.295-1.289-1.318-1.952-.043-3.904-.212-5.854-.384-.346-.032-.672-.325-1.007-.5.207-.299.373-.643.629-.887.233-.224.567-.343.858-.509l-.209-.445c-.466-.096-.931-.276-1.397-.276a649.48 649.48 0 0 0-8.49.087c-1.213.018-2.427.111-3.64.108-1.321 0-1.583-.332-1.257-1.597 1.44-5.612 2.857-11.234 4.367-16.829 1.86-6.898 3.824-13.767 5.706-20.659 1.208-4.42 1.496-8.975 1.653-13.517.192-5.488.166-10.984.233-16.477 0-.204-.038-.41 0-.605.416-2.146.672-4.293.227-6.477-.065-.311.122-.741.32-1.026 1.021-1.466 2.051-2.929 3.154-4.328.256-.325.82-.407 1.242-.602.035.46.23.98.079 1.364-.879 2.225-1.828 4.424-2.785 6.616-.367.838-.442 1.641-.215 2.545 1.961 7.846 3.954 15.683 5.784 23.561.512 2.211.631 4.537.719 6.817.288 7.375.477 14.753.71 22.131.177 5.624.372 11.248.52 16.876.024.93.39 1.538 1.19 1.928 1.962.953 3.972 1.713 6.218 1.334 1.769-.296 2.197-.709 2.27-2.501.171-4.106.366-8.215.404-12.324.082-8.934.055-17.868.096-26.798.021-4.851.291-9.71.087-14.55-.363-8.648-.997-17.285-1.536-25.928-.09-1.431-.262-2.856-.407-4.42-.274.18-.387.238-.483.32-2.558 2.172-5.153 2.36-7.649.145-1.822-1.617-3.303-3.62-4.923-5.459-.262-.296-.472-.642-.801-1.102-.244.471-.404.826-.605 1.157-.995 1.638-1.865 3.37-3.029 4.88-1.906 2.472-4.518 3.339-7.477 2.24-2.124-.792-4.115-1.946-6.073-2.894-.023-.082.024.081.067.247.259 1-.134 1.629-1.181 1.611-1.097-.017-2.194-.227-3.436-.37 0 .3-.015.62 0 .94.375 7.369.75 14.738 1.137 22.108.227 4.341.454 8.68.719 13.019.029.498.221 1.033.483 1.463.538.89.535 1.48-.372 2.059-.888.561-.99 1.108-.611 2.076a6.9 6.9 0 0 1 .445 2.859c-.309 4.74-.67 9.478-1.097 14.206-.53 5.837-1.126 11.67-1.734 17.498-.285 2.713-.655 5.418-1.013 8.123-.241 1.817.838 3.091 2.7 3.126 1.234.023 2.18-.602 3.055-1.382 1.036-.921 1.173-.857 1.734.367.888 1.928 1.889 3.804 2.75 5.743.434.978.739 2.027.966 3.074.271 1.257-.128 2.027-1.269 2.559-2.351 1.094-4.763 1.161-7.163.166-1.245-.515-2.162-1.439-2.467-2.771-.515-2.228-.972-4.47-1.365-6.721-.125-.715-.236-.997-1.088-.992-5.767.038-11.531-.014-17.298-.02-.602 0-1.204.119-1.807.183.006.099.012.198.021.3 1.719.232 3.453.381 5.153.721 2.275.457 4.533 1.024 6.773 1.634.428.117.742.649 1.106.986-.399.306-.768.817-1.202.881-2.231.323-4.478.69-6.724.751-10.282.285-20.568.538-30.853.677-8.904.122-17.81.102-26.716.096-6.139-.003-12.279-.078-18.418-.154-.937-.012-1.885-.145-2.802-.337-.317-.067-.71-.448-.783-.756-.052-.224.297-.675.574-.826 1.085-.588 2.214-1.097 3.299-1.879-.477-.064-.954-.192-1.429-.186-6.846.087-13.689.189-20.535.294-2.43.037-4.86.058-7.286.157-.466.02-.931.352-1.376.578-1.182.6-2.351 1.222-3.666 1.667.061.017.128.058.186.052 4.774-.643 8.778 1.457 12.779 3.571.145.079.314.178.393.311.337.588.968 1.257.869 1.777-.098.506-.896 1.059-1.492 1.248a13.025 13.025 0 0 1-3.276.57c-4.321.218-8.636.113-12.896-.736-2.93-.584-4.041-2.254-3.011-5.045.64-1.739.407-3.034-.25-4.732-.931-2.408-1.365-5.078-1.595-7.672-.8-9.058-1.402-18.137-2.118-27.205-.346-4.365-.582-8.753-1.242-13.072-.428-2.803-1.53-5.505-2.331-8.25-1.574-5.403-3.145-10.807-4.722-16.21a1.375 1.375 0 0 0-.43-.698c-.426 2.405-.85 4.813-1.278 7.218-1.624 9.123-3.093 18.275-4.95 27.351-.805 3.934-2.257 7.767-3.686 11.542-3.457 9.14-7.041 18.231-10.652 27.31-.628 1.579-1.661 2.998-2.447 4.519-.14.268-.093.762.07 1.033 1.091 1.82 2.246 3.603 3.36 5.412.955 1.55.67 2.666-.986 3.46-2.43 1.167-4.946 1.236-7.463.277-1.123-.428-1.903-1.242-2.371-2.359a11.12 11.12 0 0 1-.844-5.339c.023-.262.038-.524.067-.971H1.789c-.404 0-.82.037-1.21-.044-.215-.044-.387-.291-.579-.448.198-.189.37-.483.6-.541.38-.096.802-.046 1.207-.046h56.676c1.557 0 1.394-.027 1.632-1.571.608-3.923 1.184-7.869 2.115-11.722 2.384-9.859 5.069-19.645 7.388-29.515.818-3.484 1.14-7.122 1.318-10.707.425-8.684.652-17.376.92-26.066.15-4.85.241-9.704.31-14.555.007-.468-.357-.936-.523-1.413-.28-.803-.788-1.62-.765-2.417.122-3.972.352-7.942.614-11.909.337-5.144.75-10.283 1.114-15.424.323-4.537.666-9.074.914-13.613.081-1.504-.087-3.027-.186-4.537-.172-2.614.043-5.156.867-7.677.73-2.234 2.208-3.557 4.358-4.263.672-.221 1.374-.37 2.022-.64.774-.32 1.569-.654 1.606-1.728.006-.2.376-.39.58-.584.209.218.47.407.622.66.3.503.428 1.149.818 1.553 3.104 3.225 6.71 5.723 10.934 7.279.253.093.515.163.777.227 1.51.355 2.336-.192 2.572-1.722.055-.36.05-.733.061-.916-.62.46-1.248 1.256-1.993 1.39-.812.148-1.784-.2-2.601-.538-2.578-1.064-4.912-2.533-6.896-4.516-1.109-1.108-1.597-2.312-1.338-3.996.261-1.698-.027-3.478-.01-5.22.015-1.346-1.099-1.736-1.928-2.21-3.416-1.951-4.769-5.086-5.267-8.748-.145-1.064-.235-2.152-.195-3.222.076-1.974.315-3.89 2.16-5.194.64-.45 1-1.276 1.594-1.814C85.757 1.92 89.9.333 94.894 1.91c.503.16 1.143-.146 1.725-.192.436-.035 1.06-.184 1.286.037 1.318 1.28 2.642 2.58 3.765 4.028.728.94.562 2.059.125 3.257-.282.777.186 1.835.37 2.757.017.087.413.128.634.14 1.344.07 2.689.104 4.03.192.687.043 1.428-.035 1.877.73.09.157.488.171.75.186 1.886.101 3.771.192 5.656.273.19.009.501-.017.553-.125.597-1.192 1.766-.945 2.689-.94 5.831.05 11.664.172 17.492.344.917.026 1.857.349 2.718.698.975.392 1.391 1.233 1.26 2.297-.201 1.62-.489 2.106-1.787 2.32-1.69.283-3.407.542-5.118.562-5.598.07-11.196.03-16.794.032h-1.141l-.034.343c.288.076.57.2.861.218 2.287.137 4.577.26 6.866.375 3.905.201 7.871.053 11.691.725 2.214.39 4.405.575 6.617.73.608.043 1.291-.015 1.841-.253 1.316-.58 2.57-1.295 3.85-1.955.148-.075.311-.2.457-.186 2.735.27 5.47.547 8.199.85 1.106.121 1.545.974 1.667 1.901.221 1.699.437 3.42.402 5.124-.044 2.22-.283 4.438-.533 6.645-.215 1.885-.669 2.487-2.572 2.655-2.162.19-4.359.073-6.535-.046-.954-.052-1.821-.515-2.069-1.634-.035-.163-.238-.387-.39-.413-1.175-.19-2.173-.99-3.575-.483-.952.343-2.186-.044-3.288-.166-1.304-.145-1.327-.16-1.499 1.16-.125.969-.259 1.937-.358 2.909-.104 1.014-.654 1.64-1.646 1.75-2.075.23-4.152.48-6.233.564-2.767.114-2.749.056-3.419 2.702-1.536 6.08-3.119 12.15-5.857 17.833-.538 1.116-1.242 2.157-1.937 3.19-1.059 1.573-2.584 2.14-4.408 1.707-1.406-.335-2.77-.835-4.167-1.213-.34-.093-.826-.136-1.085.038-.888.593-1.615 1.536-2.569 1.887-.894.326-2.002.07-2.954.07 0 1.83-.052 3.842.012 5.854.113 3.536.317 7.07.445 10.606.064 1.748-.428 2.132-2.048 1.466-2.866-1.181-5.686-2.478-8.534-3.711-.733-.317-1.493-.579-2.24-.867l-.158.213c.55.55 1.042 1.172 1.659 1.631 1.32.986 2.735 1.85 4.053 2.838.492.367.826.94 1.234 1.42-.574.27-1.132.738-1.72.779-2.488.171-4.987.218-7.48.305-.23.009-.46 0-.713.221 1.216.169 2.426.373 3.645.498 3.67.38 7.332.2 10.987-.239 1.111-.134 1.173-.038 1.245 1.097.038.59.236 1.171.376 1.75 3.389 13.913 6.89 27.802 10.099 41.755.899 3.911 1.079 8.009 1.359 12.036.747 10.798 1.062 21.614.835 32.435-.058 2.757-.358 5.51-.547 8.264-.021.297-.038.597-.061.934h.008Zm228.142-66.413c-.049.399-.122.794-.143 1.193-.151 3.298-.308 6.592-.433 9.89-.084 2.234-1.123 3.906-2.918 5.159-.239.166-.478.338-.952.672.777-.105 1.263-.195 1.755-.233 1.053-.084 1.489.466 1.047 1.417-.279.599-.727 1.125-1.12 1.669-.221.302-.486.57-.803.936.291.053.39.09.486.085.201-.012.401-.038.602-.073 1.708-.297 2.531.009 3.39 1.489.535.925.98 1.928 1.312 2.946 2.889 8.803 5.79 17.603 8.583 26.437 1.083 3.423 2.386 6.82 2.462 10.493.006.279.145.555.235.875.888-.311.85-.994.766-1.608-.181-1.335-.355-2.678-.678-3.981-3.306-13.404-7.911-26.388-12.674-39.327-.524-1.424-.888-2.992-.923-4.501-.107-4.511-.014-9.027 0-13.54.05-.434.122-.864.143-1.297.201-4.072.387-8.143.59-12.212.21-4.17.437-8.343.643-12.513.018-.381-.081-.765-.125-1.149l-.477.026c-.637 9.036-.753 18.095-.759 27.156l-.009-.009Zm-14.382-81.316c-.623.148-1.254.37-1.74-.314-.076-.105-.314-.178-.448-.146-1.115.277-1.635-.444-2.037-1.253-.43-.872-.768-1.791-1.138-2.696-.142-.349-.261-.706-.389-1.058-.105.011-.21.02-.318.032-1.056 2.283-1.475 4.685-1.318 7.386.553-.192.937-.29 1.289-.456.972-.466 1.918-.99 2.904-1.422.239-.105.591.052.89.087-.084.264-.087.642-.27.773-.634.463-.419.92-.192 1.492.253.637.57 1.361.489 1.998-1.24 9.518-2.479 19.034-3.867 28.532-.335 2.291-.128 4.324 1.076 6.278.48.782.908 1.597 1.537 2.708 1.114-1.763 2.054-3.225 2.959-4.709.131-.212.142-.52.139-.785-.014-2.02-.02-4.045-.075-6.063-.242-8.655-.498-17.31-.757-25.96-.023-.818.114-1.516.841-2.045.215-.157.297-.57.34-.879.067-.497.053-1.006.073-1.512.41.143.896.192 1.214.448.669.541 1.248 1.195 1.964 1.9 1.489-2.883 2.764-5.727 3.261-8.88-2.165 2.208-4.297 4.377-6.427 6.547v-.003Zm-58.218 23.314c-.064-.011-.128-.02-.192-.032.151 2.245.052 4.543.497 6.73 1.496 7.29 3.201 14.534 4.784 21.808.189.866.372 1.864.128 2.67-.518 1.703-.48 3.36-.222 5.068.111.733.158 1.474.213 2.213.384 5.24.847 10.478 1.12 15.724.306 5.886.591 11.784.611 17.676.032 8.829-.172 17.655-.282 26.484-.076 5.964-.087 11.932-.288 17.891-.067 1.995.358 4.231-1.723 5.92 2.479.352 4.725.841 6.989.963 8.583.462 17.173.817 25.759 1.189 1.49.064 2.621-1.067 2.578-2.564a91.299 91.299 0 0 0-.297-5.043c-.498-5.773-1.024-11.542-1.539-17.312-.509-5.703-1.001-11.409-1.528-17.111-.48-5.174-.663-10.356-.43-15.55.456-10.132.905-20.261 1.364-30.393.189-4.173.39-8.346.629-12.516.02-.375.346-.73.532-1.097.087-.171.227-.331.256-.508.803-4.75 1.633-9.493 2.369-14.25.299-1.94.39-3.915.576-5.872-.099-.026-.195-.052-.294-.075-.457.686-.893 1.384-1.371 2.056-1.102 1.547-2.313 2.99-4.041 3.888-1.58.823-3.07.727-4.382-.518-.951-.904-1.952-1.788-2.735-2.83-2.287-3.041-4.478-6.156-6.701-9.247-.366-.51-.701-1.041-1.166-1.733-.216.52-.35.852-.489 1.177-1.723 3.99-3.375 8.01-5.208 11.947-.687 1.474-1.74 2.794-2.727 4.109-.8 1.067-2.028 1.387-3.273 1.102-.995-.227-2.008-.62-2.857-1.175-1.673-1.093-2.788-2.733-3.669-4.496-1.039-2.076-1.996-4.193-2.986-6.293h-.005ZM113.047 186.121c-1.17-.303-1.071-1.123-1.123-1.841-.239-3.292-.454-6.587-.684-9.879-.809-11.525-1.621-23.05-2.433-34.574-.052-.759-.133-1.518-.206-2.315-.483.023-.905.163-1.199.026-.486-.224-.995-.556-1.28-.983-.125-.186.174-.89.462-1.076 1.828-1.175 1.918-2.896 1.767-4.807-.431-5.467-1.481-10.83-3.035-16.062-2.034-6.854-3.454-13.781-3.614-20.944-.023-1.015-.125-2.027-.201-3.175-.468.279-.75.456-1.041.616-5.051 2.827-10.42 4.182-16.227 3.472-3.311-.404-6.425-1.503-9.491-2.75-.416-.17-.856-.286-1.347-.449-.041.306-.073.469-.082.632-.145 3.09 0 3.271 3.116 3.291 1.38.01 2.759-.136 4.14-.148.297 0 .594.265.891.407-.198.268-.343.631-.608.785-.55.32-1.17.518-1.749.791-1.888.9-3.119 2.202-3.256 4.462-.386 6.386-.96 12.76-1.297 19.149-.373 7.032-.573 14.07-.815 21.107-.014.393.207.879.477 1.178.626.687.608 1.239-.276 1.51-.8.244-1.138.756-1.321 1.483-.1.392-.25.77-.346 1.163-2.017 8.21-4.094 16.408-6.02 24.64-1.182 5.049-2.145 10.15-3.183 15.233-.326 1.588-.12 1.8 1.513 1.565 1.027-.149 1.937-.073 2.627 1.02.43-.674.797-1.157 1.068-1.686.657-1.292 1.367-2.565 1.891-3.912 3.544-9.105 7.105-18.202 10.527-27.353 1.318-3.528 2.624-7.12 3.349-10.795 2.002-10.179 3.71-20.415 5.505-30.634.579-3.292 1.39-6.541.378-9.961-.518-1.747.445-3.428 1.568-4.836.221-.279.74-.326 1.12-.477.137.41.431.838.385 1.225-.207 1.669-.434 3.347-.803 4.987-.428 1.89-.353 3.687.209 5.552 1.74 5.772 3.404 11.571 5.06 17.37.884 3.103 2.13 6.185 2.45 9.352.916 9.111 1.396 18.269 2.147 27.397.439 5.334.981 10.667 1.667 15.975.207 1.585 1.024 3.1 1.647 4.609.143.343.62.742.975.774 2.231.206 4.443.151 6.701-1.117l-.003.003Zm198.92-99.73c2.581 3.09 5.627 5.315 9.861 5.283 1.35-.012 2.706.064 4.047-.05 5.342-.444 10.675-.953 16.015-1.427.931-.082 1.056-.637.942-1.451-1.536.154-3.034.366-4.539.448-3.162.168-6.34.447-9.444-.472-.643-.189-1.595-.293-1.49-1.212.102-.887 1.039-.832 1.717-.902 1.257-.13 2.522-.189 4.032-.294-.52-.293-.835-.462-1.14-.642-1.368-.8-2.753-1.57-4.085-2.42-.591-.375-1.513-.78-1.1-1.669.399-.864 1.327-.489 1.999-.297 2.886.812 5.755 1.69 8.633 2.542.407.12.817.233 1.577.448-.338-1.047-.518-1.847-.844-2.582-1.269-2.865-2.636-5.689-3.861-8.574-.562-1.326-.955-2.736-1.272-4.144-.11-.494.236-1.093.373-1.646.503.248 1.134.378 1.484.768.692.774 1.289 1.649 1.818 2.545 2.374 3.998 4.711 8.02 7.062 12.033.241.41.491.818.739 1.225.043-2.853-.143-5.607-.288-8.361-.317-5.988-.6-11.976-.923-17.964-.157-2.884-.392-5.766-.544-8.654-.023-.422.146-1.17.373-1.23.797-.218.57.593.747.997.064.149.067.329.085.498.241 2.384 1.024 4.568 2.234 6.645 1.851 3.172 3.536 6.441 5.404 9.605 1.14 1.931 1.463 3.95 1.242 6.116-.082.803-.163 1.608-.285 2.408-.605 3.996-1.298 7.983-1.795 11.99-.178 1.437.061 2.937.197 4.4.067.727.501 1.041 1.286.686.993-.445 1.909-.177 2.741.471.198.154.411.288.722.504.189-.698.404-1.266.495-1.853.957-6.29 1.972-12.575 2.804-18.88.443-3.347.373-6.688-.806-9.977-2.473-6.901-5.406-13.587-8.888-20.031-1.173-2.17-2.343-4.418-4.414-5.846-2.741-1.884-5.639-3.539-8.473-5.286-.041-.027-.122.02-.236.043-.038.137-.096.291-.122.45-.547 3.374-1.923 6.445-3.48 9.446-.512.99-.794 1.018-1.562.242-.419-.422-.812-.873-1.214-1.306-.302.48-.436.936-.736 1.117-.628.378-.75.887-.713 1.535.03.503-.002 1.012.012 1.515.265 8.96.387 17.926.873 26.874.198 3.624-.847 6.511-3.169 9.108-.067.076-.125.16-.189.239-.721.87-1.28.942-1.809-.012-1.06-1.904-1.988-3.888-2.913-5.862-.172-.367-.145-.867-.09-1.289 1.335-10.05 2.662-20.1 4.065-30.142.174-1.242-.262-2.13-.879-3.106-.826.334-1.592.68-2.38.957-1.059.369-1.627.052-1.793-1.056a8.263 8.263 0 0 1-.032-2.013c.111-1.058.315-2.108.486-3.219l-5.569 1.632c1.304 1.628 1.324 3.425 1.281 5.22-.062 2.355-.076 4.72-.271 7.066-.323 3.897-.765 7.785-2.377 11.426-.172.384-.175.85-.221 1.283-.469 4.214-.861 8.436-1.417 12.639-.387 2.937-1.001 5.842-1.502 8.762-.154.904-.151 1.791.367 2.454.631-.035 1.167-.206 1.597-.064 2.366.785 4.717 1.626 7.047 2.51.268.102.39.584.579.893-.311.09-.643.3-.928.25-2.383-.419-4.757-.884-7.137-1.338l-.006-.003Zm42.768 93.245c.117.035.233.07.35.102-.155-.917-.213-1.862-.478-2.749-1.716-5.781-3.404-11.574-5.24-17.317-1.827-5.712-3.776-11.386-5.752-17.048-.829-2.379-1.199-2.477-3.672-2.384-.561.02-1.33-.224-1.667-.629-.506-.607.148-1.157.556-1.643l1.434-1.698c-1.155.055-2.025.16-2.886.111-.37-.021-.719-.367-1.077-.568.233-.325.419-.703.71-.965.294-.262.698-.398 1.048-.602 1.961-1.143 3.162-2.702 3.22-5.113.108-4.513.382-9.02.524-13.531.236-7.41.422-14.82.626-22.23.017-.66 0-1.32 0-2.146-1.478.134-2.91.28-4.341.387-5.209.39-10.414.808-15.628 1.131-3.832.236-7.029-1.29-9.794-3.844-.25-.23-.517-.442-.907-.77-.105 2.91.413 5.464 1.713 7.807 1.298 2.338 1.836 4.854 1.868 7.468.114 9.908.178 19.813.216 29.721 0 .442-.419.902-.696 1.321-.352.532-.756 1.026-1.14 1.538l.166.308c.887.076 1.774.163 2.665.224 2.153.149 2.744.547 2.842 2.722.257 5.651.387 11.307.515 16.96.064 2.862.012 5.729.012 8.594.343-6.087.649-12.177.908-18.269.209-4.947.262-9.902.567-14.843.419-6.79.972-13.575 1.548-20.354.364-4.26.038-8.346-2.29-12.08-.264-.425-.515-.89-.634-1.37-.081-.334.073-.727.125-1.093.367.087.838.055 1.08.276 1.783 1.623 3.372 3.338 3.727 5.924.945 6.907 2.045 13.793 2.973 20.7.705 5.217 1.519 10.379 3.373 15.355 1.844 4.955 3.354 10.038 5.19 14.997 2.948 7.959 6.029 15.872 9.102 23.785.41 1.053 1.041 2.042 1.69 2.978.669.965 1.647 1.634 2.86 1.207 1.016-.358 1.932-.989 2.892-1.498.565-.296 1.129-.59 1.694-.884l.008.012ZM245.233 28.059c-2.235 1.111-4.426 2.187-6.602 3.286-.835.422-1.059 1.103-.879 2.027a974.26 974.26 0 0 1 2.232 11.918c.393 2.175.96 4.336.163 6.575-.495 1.393-.827 2.85-1.123 4.301-.207 1.01-.425 2.077-.312 3.08.556 4.923.378 9.84-.256 14.72-.375 2.883.472 5.337 1.694 7.91.337-.31.596-.566.872-.802 2.706-2.277 5.392-4.577 8.142-6.805.616-.5 1.443-1.163 2.284-.52.814.625.311 1.518.04 2.242-.832 2.242-1.754 4.45-2.601 6.685-.288.765-.457 1.574-.678 2.365.082.075.166.151.247.227.481-.18.996-.303 1.435-.553 2.054-1.16 4.059-2.41 6.148-3.504.547-.285 1.559-.402 1.944-.087.439.357.602 1.3.547 1.96-.102 1.23-.449 2.44-.693 3.655.335-.372.518-.817.815-1.169.457-.544.989-1.027 1.489-1.533.466.527 1.051.986 1.377 1.588 1.044 1.937 2.098 3.848 3.779 5.33 2.174 1.914 4.676 2.03 6.861.228.794-.655 1.516-.943 2.581.098-.169-.956-.253-1.579-.39-2.192-1.615-7.3-3.334-14.579-4.824-21.901-.966-4.755.201-9.713-1.123-14.47-.079-.283.337-.699.524-1.054.296.309.785.58.852.931.207 1.088.105 2.242.387 3.304 1.149 4.353 2.715 8.561 5.333 12.263.754 1.064 1.833 2 2.954 2.684 1.754 1.07 3.267.64 4.486-1.012.559-.756 1.141-1.532 1.519-2.384 2.06-4.648 4.065-9.32 6.061-13.997.125-.297.131-.768-.024-1.035a104.368 104.368 0 0 0-2.79-4.575c-.483-.744-2.264-.718-2.534.03a579.635 579.635 0 0 0-3.617 10.18c-.154.448.006.992-.064 1.48-.049.338-.241.655-.366.984-.262-.242-.641-.437-.763-.733-.331-.806-.491-1.681-.829-2.484-2.782-6.653-5.586-13.298-8.388-19.944-.108-.253-.256-.488-.466-.89-.096.486-.166.777-.209 1.074-.277 1.794-.53 3.594-.844 5.383-.041.232-.399.41-.608.613-.152-.22-.352-.424-.437-.669-.072-.21-.023-.468-.003-.7.213-2.586.451-5.168.62-7.754.023-.351-.198-.936-.465-1.055-1.892-.84-3.827-1.585-5.936-2.44 1.141 1.765 2.185 3.365 3.209 4.979.556.878.445 1.157-.541 1.422-.829.22-1.667.415-2.691.668.459.402.727.701 1.056.91 1.079.684 1.196 1.51.85 2.743a670.665 670.665 0 0 0-4.414 16.5c-.431 1.687-.862 3.441-.847 5.157.026 2.856.419 5.706.643 8.561.108 1.376.201 2.757.236 4.136.005.25-.306.508-.472.761-.25-.215-.593-.386-.727-.66-.172-.349-.195-.779-.25-1.18-.413-2.97-.908-5.93-1.199-8.91-.317-3.243-1.307-6.143-3.413-8.684-1.807-2.178-3.48-4.467-5.194-6.721-1.571-2.068-3.162-4.118-4.655-6.24-1.292-1.839-1.17-2.217.649-3.488.401-.279.785-.578 1.367-1.009-1.414-.398-2.61-.703-3.785-1.073-1.606-.503-1.865-.881-1.208-2.422 1.158-2.714 2.462-5.366 3.827-8.309h-.003ZM74.404 43.507c0 1.134-.02 2.268.006 3.403.04 1.782.239 3.568.148 5.342-.22 4.374-.561 8.742-.87 13.11-.369 5.208-.78 10.413-1.126 15.622-.256 3.833-.439 7.669-.64 11.502-.017.354.056.712.085 1.067.233-.765.21-1.504.238-2.24.041-.968.44-1.282 1.38-1.017.744.21 1.463.514 2.179.805 5.077 2.062 10.259 3.321 15.784 2.164 3.367-.704 6.562-1.797 9.407-3.792.565-.396.774-.928.495-1.463-.12-.227-.742-.262-1.138-.262-3.398.018-6.803.192-10.195.052-1.862-.075-3.71-.63-5.546-1.046-.303-.067-.512-.53-.768-.809.294-.238.567-.503.885-.7.157-.097.392-.082.593-.09 2.828-.126 5.66-.248 8.487-.373.367-.017.73-.055 1.094-.081-.806-.762-1.687-1.213-2.42-1.835a54.06 54.06 0 0 1-3.748-3.508c-.25-.258-.352-.983-.166-1.253.183-.27.838-.393 1.237-.314.785.154 1.56.436 2.298.756 2.66 1.157 5.299 2.358 7.952 3.525.44.194.917.305 1.464.482.046-.413.11-.674.102-.936-.198-5.42-.39-10.841-.64-16.262-.018-.402-.39-.942-.751-1.146-7.021-3.96-13.42-8.794-19.538-14.008-2.296-1.958-4.722-3.842-6.288-6.7v.005Zm182.81 67.25c-.029.009-.107.018-.113.044-.023.096-.026.2-.029.299-.128 6.637-.181 13.276-.41 19.906-.134 3.871-.643 7.707-1.671 11.476-3.264 11.961-6.459 23.939-9.677 35.912-.099.372-.145.756-.221 1.163 1.274 0 2.412.009 3.55 0 2.997-.032 5.996-.145 8.99-.084 2.034.043 2.424.628 2.069 2.675 1.475.108 2.939.23 4.405.314 1.47.082 1.47.064 1.737-1.387-1.047-1.026-1.114-1.128-1.158-2.547-.206-6.837-.387-13.674-.602-20.511a2475.43 2475.43 0 0 0-.634-18.487c-.076-1.916-.044-3.885-.483-5.732-1.83-7.701-3.821-15.363-5.753-23.041ZM101.728 51.789c.495.797 1.016 1.332.207 1.736-.672.338-1.315.143-1.772-.494-.055-.078-.047-.206-.108-.279-.122-.148-.25-.332-.416-.401-2.647-1.088-4.623-3.11-6.788-4.868-3.29-2.679-6.538-5.418-9.922-7.972-1.143-.863-2.607-1.442-4.012-1.788-2.112-.52-3.954 1.434-3.683 3.6.244 1.946 1.198 3.478 2.58 4.79 6.722 6.392 14.106 11.906 22.064 16.66.302.18.637.303 1.073.51.027-.565.038-.963.067-1.362.137-1.89.856-2.416 2.639-1.812 1.147.39 2.261.885 3.346 1.42.655.322 1.042.218 1.414-.384 1.848-2.975 3.85-5.863 5.535-8.928 1.865-3.388 3.462-6.927 5.138-10.417.445-.925.215-1.68-.57-1.937-.984-.32-2.011-.584-3.035-.677-.474-.044-1.114.241-1.472.59-2.343 2.28-4.609 4.638-6.937 6.933-1.751 1.724-3.558 3.39-5.342 5.083l-.006-.003Zm-12.75-40.672c-.605.759-1.239 1.387-1.658 2.137-.314.564-.532 1.3-.477 1.934.13 1.538.468 3.06.672 4.595.038.296-.166.625-.259.94-.291-.152-.643-.245-.864-.466-.399-.405-.681-.922-1.082-1.326-.617-.626-.999-.515-1.304.328-.352.969-.137 1.8.692 2.426.565.424 1.173.794 1.743 1.21.588.43.861.907.317 1.613-.18.236-.189.68-.128 1.007.393 2.134.681 4.286.187 6.418-.277 1.192.093 2.038.86 2.824 2.16 2.21 4.758 3.745 7.633 4.815 1.19.445 1.911.059 2.144-1.215.21-1.149.172-2.338.27-3.51.08-.951-.101-1.66-1.16-2.013-.51-.168-.937-.651-1.33-1.058-.166-.172-.288-.605-.186-.774.352-.584-.018-.826-.416-1.015-.483-.23-.998-.395-1.507-.558-1.251-.401-2.517-.753-3.75-1.201-.23-.084-.33-.532-.49-.812.283-.095.597-.322.844-.264 1.048.247 2.06.648 3.113.86 1.537.312 3.09.672 4.644.71 2.139.053 3.212-.718 3.631-2.792.428-2.122.477-4.327.646-6.5.018-.24-.195-.563-.395-.744-1.394-1.253-1.851-3.37-.78-5.007.849-1.303.201-2.324-.067-3.52-3.882 1.37-7.72 1.766-11.537.963l-.005-.005ZM234.867 33.22c-.469 1.044-.969 1.87-1.225 2.769a167.245 167.245 0 0 0-5.025 24.721c-.358 2.818-.509 5.72-.274 8.544.326 3.918 1.865 7.567 3.338 11.19 1.172 2.892 2.377 5.77 3.567 8.655 1.929-.328 1.932-.346 2.281-2.088.038-.192.361-.494.498-.465.232.047.43.306.631.486.253.227.55.704.727.66.533-.13 1.187-.375 1.027-1.131-.183-.864-.477-1.702-.721-2.55l-.413-.184c-.565.666-1.103 1.355-1.711 1.98-.195.201-.57.227-.864.332-.096-.302-.294-.617-.268-.91.186-2.283.448-4.557.608-6.84a5.798 5.798 0 0 0-.241-2.056c-.67-2.187-1.464-4.34-2.11-6.532-.209-.71-.299-1.567-.11-2.265.779-2.856 1.713-5.671 2.528-8.518.21-.727.32-1.533.25-2.283-.395-4.188-.858-8.372-1.306-12.557-.378-3.536-.765-7.07-1.184-10.96l-.003.002Zm-116.957-2.55c.547-.902.963-1.632 1.422-2.33.833-1.265 1.665-2.533 2.552-3.76.387-.535.856-.785 1.653-.465.628.253 1.263.456 1.897.739 1.321.587 2.214 1.677 2.022 3.187-.466 3.635-1.423 7.072-4.044 9.823-.061.064-.07.175-.14.358.375.02.704.087 1.018.044a79.782 79.782 0 0 0 3.893-.652c.251-.05.55-.314.652-.552.565-1.347 1.021-2.737 1.627-4.063.227-.494.678-1.02 1.158-1.233.622-.276.808-.61.756-1.218-.169-1.911-.262-3.83-.506-5.732-.317-2.495-.591-2.72-3.079-3.228-.066-.015-.133-.024-.2-.035-6.876-1.094-13.795-.608-20.699-.547-.789.006-1.577.358-1.752 1.268a399.31 399.31 0 0 0-1.329 7.45c-.239 1.388.145 2.9-.885 4.069 2.22 2.1 4.769 3.414 7.702 3.932 1.135.2 2.383.724 3.288-.588.09-.133.34-.154.503-.22-.134-1.065-.37-2.065-.364-3.066.009-2.111.102-4.225.271-6.33.029-.367.605-.69.928-1.033.326.334.812.62.943 1.018.314.95.459 1.96.721 3.167l-.008-.003Zm176.123 16.233c-.645 1.809-1.256 3.341-1.716 4.92-.146.5-.076 1.236.203 1.664 1.726 2.655 3.457 5.316 5.345 7.852 1.423 1.91 3.012 3.72 4.673 5.43 1.353 1.392 2.433 1.366 4.065.278.39-.261.797-.532 1.106-.878 2.49-2.792 4.751-5.709 4.937-9.681.023-.503.09-1.006.157-1.506.783-5.825 1.368-11.647.122-17.487-.093-.44-.151-.884-.276-1.62-.268.585-.416.879-.538 1.18-2.345 5.776-4.696 11.546-7.021 17.33-.25.626-.233 1.367-.518 1.97-.233.49-.73.854-1.111 1.276-.195-.364-.39-.724-.579-1.088-.158-.302-.242-.674-.469-.907-1.941-1.957-3.925-3.874-5.857-5.84-.838-.855-1.58-1.806-2.523-2.893Zm-44.391-21.081c.948 1.704 1.801 3.303 2.723 4.86a44.692 44.692 0 0 0 2.334 3.541c.174.239.893.422 1.038.288 1.403-1.317 2.863-2.719 3.105-4.693.189-1.536-.14-3.138-.245-4.709-.069-1.03.19-1.192 1.158-.805 1.124.448 2.244.945 3.411 1.233 1.856.456 2.572.107 3.404-1.643 1.484-3.118 2.342-6.427 2.153-9.876-.093-1.693-.745-3.356-1.109-4.894-1.527.508-2.767 1.099-4.064 1.308-1.653.268-3.358.306-5.04.294-1.219-.009-2.016.457-2.453 1.541-.442 1.09-.803 2.213-1.248 3.304-.11.267-.413.456-.628.683-.192-.244-.451-.46-.565-.735-.192-.472-.294-.98-.433-1.472-.14.02-.277.04-.416.058.101 1.547.203 3.094.308 4.639.017.264.128.55.055.785-.721 2.361-1.489 4.705-3.491 6.293h.003Zm82.807-10.606c-.14-.032-.282-.061-.422-.093-.151.544-.262 1.105-.468 1.626-.094.238-.37.555-.571.558-.209.006-.486-.282-.631-.506a1.415 1.415 0 0 1-.207-.774c.088-2.102-1.111-3.268-2.877-4.053-.399-.178-.76-.437-1.147-.643-1.126-.602-1.981-1.344-1.396-2.882l-.879.07c-2.485.209-4.964.453-7.451.61-1.397.088-1.909.518-1.772 1.934.131 1.373.323 2.745.596 4.095.658 3.24 1.414 6.462 3.113 9.352 1.208 2.056 2.206 2.42 4.47 1.73.506-.154.989-.418 1.44-.7 1.341-.84 2.65-1.736 4.003-2.556.21-.128.582.008.879.02-.064.28-.061.608-.212.826-.187.267-.489.46-.763.654-.977.692-1.967 1.373-3.101 2.16 2.694 1.272 4.873 2.833 4.481 6.448.625-.596 1-.968 1.393-1.32 1.068-.954 2.11-1.91 1.944-3.545-.018-.183.055-.468.189-.559 1.152-.773.425-1.582.044-2.35-.885-1.79-.899-3.474.404-5.097.454-.564.791-1.219 1.318-2.045-.722.483-1.175.896-1.711 1.111-.419.169-.937.088-1.408.12.006-.445-.061-.905.029-1.33.198-.962.471-1.907.716-2.861h-.003Zm-72.417 70.147c-.221.366-.413.712-.631 1.038-.652.977-1.278 1.977-1.999 2.905-.192.247-.681.265-1.036.39-.105-.358-.323-.725-.285-1.068.055-.526.308-1.03.436-1.55.343-1.404.704-2.806.981-4.222.171-.887-.114-1.12-.911-.727-1.114.55-2.162 1.236-3.25 1.838-1.353.75-2.68 1.573-4.097 2.184-1.385.599-2.296-.207-1.984-1.69.206-.983.547-1.943.905-2.885.73-1.92 1.516-3.818 2.263-5.729.123-.314.163-.66.306-1.274-.716.44-1.208.666-1.609 1-2.351 1.967-4.632 4.023-7.038 5.913-1.345 1.056-1.601 2.068-.958 3.67.873 2.17.661 2.422-1.347 3.632-.073.044-.105.157-.256.39.291.07.588.241.707.157.821-.573 1.394-.084 1.967.404.87.742 1.752 1.478 2.587 2.26.71.669 1.326 1.407.456 2.434 1.659 1.1 3.341 1.93 5.232 2.254 1.743.296 3.369-.076 4.524-1.422 1.153-1.344 2.124-2.847 3.096-4.333.515-.783.829-1.696 1.298-2.51.445-.774.931-.809 1.501-.114.556.675 1.033 1.417 1.56 2.115 1.399 1.86 2.825 3.707 4.833 4.972 2.144 1.353 4.573.835 6.072-1.195.617-.837.48-1.593.044-2.393-.126.014-.204 0-.254.035-.195.13-.387.267-.57.413-1.879 1.486-3.98 1.762-6.061.683a10.635 10.635 0 0 1-3.255-2.629c-1.205-1.468-2.104-3.187-3.23-4.947h.003ZM107.155 136.29c.404.114.497.169.587.163 1.714-.113 1.959.114 2.04 1.864.061 1.312.119 2.626.212 3.935.51 7.157 1.028 14.314 1.543 21.468.488 6.787.971 13.572 1.466 20.359.017.256.131.506.198.762l.288-.011c.081-.303.206-.602.233-.911.2-2.416.494-4.83.553-7.25.264-11.19-.062-22.375-.827-33.539-.27-3.961-.486-7.977-1.33-11.836-2.237-10.233-4.795-20.394-7.241-30.581-.597-2.478-1.26-4.938-1.895-7.407-.157.136-.18.258-.177.378.201 5.81.916 11.539 2.584 17.137 1.914 6.436 3.465 12.95 4.026 19.668.187 2.239.14 4.347-2.257 5.804l-.003-.003ZM78.582 36.446c3.576.718 6.259 2.888 8.916 5.063 2.816 2.306 5.507 4.764 8.335 7.055 1.298 1.05 2.765 1.902 4.211 2.748.267.157.942-.011 1.196-.264 3.762-3.723 7.483-7.486 11.21-11.243.195-.198.352-.433.559-.692-3.393-.807-6.636-2.267-9.73-4.383-1.324-.904-2.828-1.12-4.495-1.125.116.503.244.887.294 1.277.195 1.6.52 3.202.515 4.8-.012 2.842-1.793 4.174-4.414 3.136a39.52 39.52 0 0 1-6.884-3.55c-2.017-1.307-3.768-3.02-5.59-4.514-1.291.529-2.668 1.093-4.123 1.692Zm168.327-8.195c-.28.378-.62.724-.833 1.137a701.917 701.917 0 0 0-3.703 7.387c-.286.576.014.867.57 1.015 1.303.349 2.616.669 3.896 1.084 1.079.352 1.196 1.024.329 1.766-.588.503-1.24.93-1.883 1.36-.562.373-.672.795-.282 1.353.425.608.803 1.248 1.254 1.838 2.927 3.83 5.903 7.622 8.793 11.481 1.303 1.742 2.711 3.46 3.145 5.93.145-.748.221-1.28.352-1.797 1.519-5.907 2.927-11.842 4.635-17.693.608-2.083.483-3.49-1.437-4.601-.288-.166-.402-.625-.597-.951.306-.177.594-.422.923-.518.913-.27 1.847-.48 2.915-.747l-3.515-5.441c-.154 1.966-.23 3.783-.451 5.58-.678 5.514-1.42 11.022-2.115 16.536-.186 1.469-.268 2.952-.454 4.423-.035.274-.297.69-.503.721-.23.035-.577-.244-.766-.473-.206-.25-.308-.597-.427-.91-1.441-3.709-2.977-7.379-4.283-11.133-1.964-5.639-4.609-11.074-5.561-17.347h-.002Zm-138.02 34.205c1.46.428 2.793.855 4.146 1.207 1.624.422 2.977-.058 3.806-1.53 1.024-1.811 2.194-3.603 2.837-5.557 1.774-5.397 3.311-10.873 4.931-16.32.073-.244.059-.515.091-.835-1.566-.099-3.07-.346-4.021.48-.361 1.248-.515 2.175-.885 3.004-2.907 6.535-6.209 12.851-10.387 18.682-.149.21-.265.442-.518.866v.003ZM146.6 34c.664.294 1.004.57 1.35.58 2.139.043 4.28.066 6.419.017.899-.02 1.359-.631 1.431-1.527.187-2.344.472-4.685.541-7.035.044-1.5-.2-3.013-.36-4.513-.076-.707-.486-1.123-1.257-1.207-1.237-.134-2.465-.343-3.698-.512-2.261-.311-2.226-.241-2.153 2.05.098 3.086.049 6.18-.024 9.271-.032 1.274-.378 2.484-2.246 2.88L146.6 34Zm171.867 154.133c-.36 0-.468-.026-.555.003-3.338 1.163-6.498.704-9.544-.98-.212-.116-.66-.064-.864.09a520.53 520.53 0 0 0-7.58 5.892c-.506.401-.902.942-1.533 1.617.693.134 1.103.285 1.51.276 2.322-.049 4.661.009 6.96-.25 3.107-.352 6.189-.933 9.27-1.48.477-.084 1.172-.413 1.289-.779.445-1.393.695-2.85 1.044-4.392l.003.003Zm-40.763 1.617c.003-.07.009-.139.011-.212 1.281 0 2.567.073 3.838-.021a28.435 28.435 0 0 0 3.887-.561c.882-.186.996-.663.312-1.25a11.284 11.284 0 0 0-2.249-1.518c-2.177-1.097-4.417-1.879-6.94-1.896-2.892-.024-5.781-.317-8.667-.541-.908-.07-1.22.261-1.153 1.14.073.939.067 1.884.102 2.823.029.768.317 1.242 1.193 1.303 3.221.218 6.442.486 9.66.733h.006ZM251.328 17.305c0-.634-.011-1.268 0-1.902.032-1.37.076-2.736.117-4.106.026-.806-.015-1.62.101-2.41.175-1.187.87-1.79 2.081-1.77.937.015 1.879.143 2.802.32 3.069.588 5.932.437 8.478-1.724 1.231-1.044 2.057-.823 3.082.474.462.588.841 1.245 1.318 1.963.294-3.527-3.527-7.165-6.561-6.185.616.488 1.192.88 1.675 1.364.184.183.152.578.216.875-.3-.006-.64.079-.893-.03-.795-.34-1.525-.874-2.343-1.119-3.189-.954-6.2-.372-9.025 1.289-1.496.878-2.709 2.056-3.122 3.8-.798 3.36.337 6.337 2.068 9.161h.006Zm-134.804.064c.334.023.657.067.98.067 5.092 0 10.184.023 15.273-.035 1.51-.017 3.017-.273 4.53-.398.992-.082 1.405-.663 1.466-1.588.061-.916-.582-1.227-1.289-1.434-.547-.16-1.117-.311-1.681-.326-5.831-.136-11.659-.25-17.49-.346-.477-.008-.957.146-1.437.224.096.064.192.125.285.19-.207 1.177-.413 2.358-.637 3.643v.003ZM352.67 183.227a.477.477 0 0 0-.006-.067c-.605 0-1.219-.058-1.816.021-.41.052-.931.183-1.167.471-2.036 2.504-4.058 5.022-5.99 7.605-.422.564-.469 1.404-.687 2.117.774.032 1.591.241 2.31.064 3.605-.893 6.881-2.525 9.855-4.735 2.107-1.567 2.348-2.952.957-5.191-.163-.264-.625-.477-.951-.48-.835-.005-1.673.12-2.508.192l.003.003Zm-229.169 10.911c.035-.171.073-.346.107-.517-.593-.457-1.14-.998-1.789-1.355-2.706-1.495-5.645-2.356-8.644-3.019-.387-.084-.821-.11-1.202-.026-2.191.491-4.329.608-6.375-.829-.262.654-.503 1.166-.672 1.701-.771 2.431-.186 3.478 2.287 3.967 4.19.826 8.429.916 12.674.678 1.213-.07 2.409-.393 3.614-.6ZM101.167 8.066c-.128-.579-.09-1.283-.41-1.716-.853-1.154-1.854-2.198-2.808-3.271-.387-.437-.803-.37-1.359-.198-.602.189-1.39.302-1.938.067-4.018-1.73-9.814.503-12.433 3.69-.55.669-1.236 1.227-1.748 1.92-.413.56-.66 1.244-.98 1.872 4.92-3.39 16.16-4.659 21.673-2.364h.003Zm135.218 175.516c.189 2.902.64 5.45 1.623 7.861.25.616.92 1.204 1.542 1.503 2.057.998 4.175.867 6.265.006.651-.268.939-.777.803-1.454-.62-3.083-2.302-5.688-3.713-8.521-2.031 1.652-4.076 2.234-6.52.608v-.003ZM82.51 19.932c1.447-2.985 1.545-3.031 3.69-1.883-.163-.965-.26-1.86-.469-2.73-.256-1.053.03-1.925.69-2.72.302-.36.64-.691.934-1.058.323-.401.34-.741-.151-1.096-.23-.163-.291-.561-.428-.852.305-.038.657-.19.913-.09 3.699 1.436 7.403 1.05 11.112.081.364-.096.701-.288 1.05-.436 0-.114.004-.224.007-.338-.754-.206-1.499-.567-2.258-.593-2.281-.075-4.598-.253-6.844.038-2.784.36-5.557 1.01-8.254 1.797-2.116.62-2.823 1.928-2.25 4.069.516 1.916 1.432 3.725 2.261 5.807l-.003.003ZM61.515 190.936c-.908 2.236-.66 4.469.302 6.621.283.631.838 1.297 1.444 1.594 2.321 1.14 4.699.966 7.006-.125.762-.361.995-.963.503-1.742-1.219-1.937-2.418-3.885-3.657-5.807-.157-.242-.495-.509-.76-.518-1.57-.05-3.142-.023-4.838-.023ZM335.503 15.871c.87-2.701.02-8.36-1.632-10.539-.384-.506-1.036-.805-1.56-1.207-.253-.194-.646-.357-.719-.61-.41-1.425-1.527-2.024-2.793-2.143-1.728-.163-3.515-.271-5.22-.015-3.663.553-7.012 1.954-9.718 4.58-.366.355-.436 1.018-.643 1.536.728.084 1.455.192 2.185.235.158.009.326-.22.495-.331 2.383-1.597 4.981-2.693 7.792-3.243 4.12-.808 7.594.512 9.628 3.723 1.527 2.41 2.313 5.065 2.188 8.011l-.003.003ZM125.241 27.097 125.02 27c-.437.866-.835 1.753-1.327 2.585-.192.326-.597.526-.905.785-.067-.416-.279-.872-.175-1.239.245-.843.641-1.643.975-2.46-.588.605-.937 1.338-1.417 1.969-.227.3-.707.41-1.071.605.006-.36-.061-.742.038-1.076.134-.454.393-.873.6-1.306-1.161 1.512-2.13 3.123-3.154 4.7-.192.296-.693.689-.902.616-.326-.116-.655-.555-.757-.919-.265-.94-.407-1.91-.596-2.87-.469 2.504-.358 4.978.049 7.447.207 1.26 1.199 2.019 2.214 2.254 1.123.262 2.442.585 3.533-.45 2.804-2.662 3.817-6.064 4.187-9.751-.46.96-.815 1.965-1.284 2.916-.151.309-.643.707-.896.655-.698-.143-.419-.721-.25-1.143.434-1.082.905-2.15 1.359-3.225v.003Zm207.748-8.963c1.03-.742 1.353-1.544 1.4-2.475.142-2.867-.696-5.453-2.369-7.759-1.094-1.506-2.601-2.443-4.437-2.75-3.855-.646-7.143.918-10.358 2.773 1.711-.005 3.398-.136 5.086-.305 1.172-.116 2.336-.323 3.509-.41.343-.026.704.23 1.059.358-.148.308-.285.622-.454.919-.061.107-.201.174-.308.259-.608.48-.591.945.064 1.352.628.39 1.28.744 1.917 1.12 1.295.759 2.659 1.454 2.939 2.969.509-.221 1.097-.693 1.391-.553.419.2.776.82.881 1.318.128.599-.023 1.259-.081 1.893-.032.343-.123.68-.239 1.29ZM77.774 96.487l-4.633-.358c0 1.934.038 3.813-.005 5.692-.213 8.994-.405 17.989-.693 26.981-.137 4.275-.44 8.544-.742 12.81-.142 1.992-.468 3.97-.678 5.694l1.525-3.769c.105-.584.081-1.265.11-1.942.245-6.227.46-12.456.76-18.682.305-6.325.62-12.65 1.091-18.964.207-2.774.131-5.825 3.27-7.462h-.005Zm217.536-71.85c.049.75.163 1.503.137 2.25-.056 1.6-.091 3.208-.315 4.79-.11.788-.634 1.538-1.594 1.6-.92.057-1.344-.638-1.74-1.327-.297-.517-.605-1.023-.911-1.535-.105.04-.209.084-.317.125.239 1.623.591 3.237.675 4.868.055 1.041.439 1.71 1.269 2.201.794.472 1.594.946 2.432 1.332.151.07.637-.218.727-.439 1.173-2.87 1.816-5.857 1.607-8.965-.12-1.783-.684-3.461-1.97-4.9Zm-192.194 8.482c.239-2.26.364-4.615.771-6.921.408-2.312 1.097-4.574 1.676-6.904-.611 0-1.117.05-1.612-.011-.867-.102-1.038.276-1.094 1.087-.131 1.94-.247 3.909-.669 5.799-.544 2.443-2.066 3.522-4.57 3.667-.397.023-.795.038-1.18.058-.142 1.652.225 2.158 1.822 2.443 1.58.282 3.172.515 4.856.782Zm42.166-.683.457-11.807c-.885.372-1.723.803-2.613 1.073-.87.265-1.222.809-1.373 1.649-.469 2.58-.105 5.092.553 7.581.066.26.279.588.506.678.797.323 1.629.556 2.47.829v-.003Zm105.328-2.594-.277.081c.282 1.876.509 3.763.861 5.628.507 2.68.643 2.719 3.053 1.471 1.161-.602 1.405-.465 1.443.838.081 2.96.096 5.923.273 8.875.061 1.02.524 2.018.803 3.028.195-.024.39-.044.585-.067.05-1.42.23-2.847.117-4.255-.193-2.376-.579-4.734-.868-7.105-.096-.788.117-1.509.818-1.936 1.187-.724.794-1.873.94-2.888-.634.55-1.147 1.172-1.734 1.71-1.03.94-1.79.898-2.651-.18-.669-.84-1.26-1.748-1.842-2.65-.535-.831-1.012-1.698-1.516-2.55h-.005Zm27.522-2.024c-.722.232-1.514.352-2.157.721-2.083 1.201-2.048 3.618.009 4.845 1.147.683 2.238-.04 3.329-.172 1.405-.168 1.597-1.314 1.591-2.52-.011-1.816-.896-2.726-2.772-2.874Zm-171.661-7.96h7.492c-.244-.846-.425-1.477-.608-2.105.661-.166 1.321-.332 1.973-.494.046-.562.052-1.199.163-1.818.128-.739-.131-1.088-.873-1.108-1.248-.035-2.494-.084-3.742-.114-.687-.014-1.373 0-2.034 0 .125 1.202.245 2.318.37 3.516.977-.06 2.013-.15 3.049-.177.236-.006.477.212.713.329-.169.241-.294.55-.524.71-.201.136-.515.121-.782.148-1.339.13-2.686.209-4.013.407-.398.058-.751.442-1.184.712v-.006Zm147.886-6.45c.143-.32.32-.675.457-1.044.736-1.995 2.133-2.914 4.283-2.771 1.106.072 2.229.038 3.331-.064 1.691-.16 3.373-.448 4.525-1.888.163-.203.203-.767.058-.898-.271-.247-.713-.372-1.094-.402-.212-.017-.468.242-.672.413-2.284 1.902-4.906 2.394-7.783 1.905-1.161-.198-2.331-.337-3.501-.474-.858-.102-1.39.297-1.414 1.17-.026.939.024 1.88.091 2.817.011.163.235.343.401.457.378.253.783.468 1.315.782l.003-.003Zm92.45 84.513c.084.06.166.122.25.183.279-.236.596-.44.826-.715.344-.413.576-.928.952-1.303.25-.253.724-.535.986-.451.277.09.597.605.582.919-.038.759-.148 1.553-.431 2.25-.468 1.152-1.105 2.234-1.646 3.357-.178.366-.277.768-.507 1.419.643-.256 1.077-.317 1.35-.561.574-.509 1.199-1.039 1.56-1.693.675-1.233 1.199-2.553 1.74-3.856.495-1.192.934-2.405 1.402-3.626-1.271-.125-2.473-.26-3.677-.344-.224-.014-.545.117-.681.288a69.228 69.228 0 0 0-2.287 3.083c-.21.3-.28.698-.416 1.05h-.003ZM141.171 30.944c-.652-2.73-1.016-5.467-.361-8.335-.873.157-1.577.227-2.249.416-.739.21-1.42.628-1.426 1.492-.011 1.914.041 3.827.137 5.74.012.242.445.638.707.658 1.024.076 2.057.032 3.192.032v-.003Zm110.006 8.163c1.976 5.258 4.033 10.725 6.09 16.193l.285-.053c.151-1.393.305-2.786.451-4.123l-.829 1.02c-.3-.366-.655-.698-.891-1.102-1.228-2.097-1.658-4.374-1.486-6.788.052-.735 0-1.483-.032-2.221-.056-1.257-.137-2.513-.204-3.737l-3.381.814-.003-.003Zm-13.931 35.17c.425-4.277 1.056-8.57.428-12.897-.341.928-.466 1.934-.9 2.783-1.725 3.37-1.102 6.61.344 9.844.041.09.087.18.131.27h-.003ZM106.238 12.993h-2.915c-.696 0-.96.346-.873 1.03.142 1.134.23 2.277.404 3.405.041.265.317.66.536.698 1.126.195 2.231.05 3.384-.422-.923-1.46-1.138-2.908-.539-4.71h.003Zm-40.6 177.095c0-.127.003-.253.005-.381-.293 0-.593-.026-.884.003-2.767.288-3.285-.203-2.732-2.882 1.37-6.624 2.79-13.237 4.213-19.85.483-2.248 1.03-4.485 1.55-6.724-.186.085-.255.201-.284.329-1.638 6.598-3.326 13.185-4.88 19.804-.628 2.681-.974 5.429-1.423 8.149-.075.447-.171 1.023.512 1.116 1.304.175 2.616.294 3.926.439l-.003-.003Zm82.074-170.33-.332-.062c-.125.393-.306.78-.37 1.184-.145.928-.305 1.864-.331 2.8-.073 2.752-.09 5.503-.096 8.257 0 .235.244.47.375.71.201-.19.454-.347.591-.577.131-.22.183-.511.192-.773.072-2.213.171-4.43.174-6.642 0-1.632-.131-3.263-.203-4.895v-.002Zm140.676 27.048c1.184-.832 2.386-1.454 2.697-2.873.084-.381.082-.983-.145-1.196-.798-.744-1.711-1.363-2.849-2.236-.041.814-.128 1.382-.081 1.937.043.547.189 1.035-.661.989-.131-.006-.454.465-.401.581.43.93.928 1.827 1.443 2.8l-.003-.002ZM260.22 30.773l-.306-.053c-.194 1.518-.421 3.033-.576 4.557-.075.748-.276 1.306-.957 1.76-.366.244-.704.886-.669 1.317.177 2.216.48 4.42.739 6.627l.3-.008c.279-4.755 1.809-9.376 1.466-14.2h.003ZM106.951 62.706c-.212-.119-.352-.212-.503-.279-.859-.384-1.708-.794-2.587-1.134-1.516-.587-1.752-.413-1.784 1.207-.029 1.486.085 1.637 1.513 1.995 1.263.314 2.375-.259 3.358-1.789h.003ZM291.257 51.54c.666-1.916 1.242-3.49 1.74-5.086.084-.273-.091-.739-.309-.948-.128-.125-.66-.026-.861.148-.835.721-1.624 1.498-2.403 2.28-.096.1-.114.396-.038.527.55.95 1.135 1.881 1.868 3.08h.003Zm-9.459-10.777c-.146.183-.358.352-.437.57-.329.916-.291 1.832.44 2.527.625.593 1.355 1.085 2.086 1.547.264.169.919.239.96.154.209-.453.547-1.178.352-1.434-.853-1.104-1.868-2.082-2.84-3.094-.108-.113-.297-.145-.561-.267v-.003Zm-152.286-2.888c.05.151.102.302.151.454 1.688-.204 3.381-.37 5.057-.649.312-.052.716-.538.783-.878.221-1.12.3-2.265.442-3.403.064-.517-.151-.759-.672-.75-.419.009-.841 0-1.466 0 .334.686.576 1.152.788 1.632.652 1.462.082 2.55-1.51 2.791-.695.105-1.426-.005-2.112.131-.512.102-.978.44-1.464.672h.003Zm149.504-3.114 1.766 3.35c.78-.611 1.467-1.088 2.072-1.655.166-.154.209-.631.099-.858-1.158-2.382-1.633-2.49-3.937-.837Zm-37.161 60.689.209-.442c-.401-.477-.841-.928-1.187-1.443-.198-.293-.404-.738-.32-1.03.265-.895-.471-1.136-.943-1.38-.169-.088-.931.511-1.047.907-.192.654-.114 1.399-.076 2.102.012.219.215.562.396.611.977.265 1.975.457 2.968.672v.003Zm72.408-44.256c.163-.006.326-.008.489-.014.125-4.124.273-8.245.366-12.369.027-1.102-.314-2.12-1.248-2.864.818 5.075 1.356 10.135.396 15.247h-.003Zm-31.287-13.392c-.53.448-.905.765-1.301 1.097 1.56 1.326 2.997 2.55 4.432 3.769.806-1.379.553-2.112-.931-2.475-1.164-.285-1.874-.989-2.2-2.394v.003ZM136.158 26.355l-.227-.087c-.379.954-.734 1.92-1.144 2.858-.169.384-.384.864-.713 1.033-.416.21-.782.38-.538.829.105.189.608.189.937.22.265.027.535-.037.803-.052.62-.034.893-.357.887-.977-.011-1.273-.002-2.547-.002-3.821l-.003-.003Zm149.867 8.137-1.603-2.664c-.538.27-1.001.463-1.42.727-.163.102-.34.37-.32.538.21 1.66 1.691 2.338 3.343 1.402v-.003ZM134.083 21.054c-1.143-.093-2.328-.186-3.512-.282 2.485.695 2.028 2.966 2.578 4.763.317-1.515.605-2.908.934-4.481Zm115.808 13.848-.908-7.858-.3.038c-.811 2.757.289 5.278 1.208 7.82ZM134.4 27.021c.425-.867.815-1.75 1.283-2.594.504-.904.093-1.617-.413-2.382-.937 1.542-.812 3.28-.87 4.976Zm155.757 13.74c-.588-2.259-1.379-3.09-3.593-2.788.192.73.273 1.489 1.39 1.236.251-.055.614.186.862.375.471.36.896.782 1.341 1.18v-.002Zm-10.739-2.04.293-.26-1.673-3.248-1.498.937 2.875 2.57h.003Zm-41.762 45.32c1.792-1.123 1.845-1.786.364-4.052-.125 1.402-.242 2.676-.364 4.051Zm88.109-48.496.32-.16c-.638-1.57-1.272-3.141-1.909-4.711l-.375.15c.384 1.682.806 3.345 1.964 4.718v.003ZM241.063 90.19c-.096.125-.195.247-.291.372 1.03 1.033 1.883 2.295 3.372 2.743l.251-.312c-1.112-.933-2.223-1.87-3.335-2.803h.003Zm-3.64-.523c-.585.18-1.111.284-1.577.514-.177.087-.305.477-.279.713.02.198.271.491.46.526.829.151 1.574-.71 1.396-1.754ZM130.801 35.623c1.263-.366 1.755-1.6 1.298-2.946-1.062.701-.832 1.867-1.298 2.946Zm-23.297-21.636c-.821 1.221-.489 2.521.687 2.97l-.687-2.97Zm129.509 80.118.291-.16v-1.838c-.486.309-.847.535-1.205.765.306.41.609.823.914 1.233ZM81.896 21.58l.353-.183c-.716-1.393-1.435-2.786-2.15-4.18l-.289.146 2.087 4.217Zm269.47 70.929h2.965c-1.248-1.297-2.392.259-2.965 0Zm-93.945 13.176 1.525-3.536c-.699 1.027-1.967 1.797-1.525 3.536ZM91.804 102.21c-.681 1.067-1.15 2.181-.585 3.443l.585-3.443Zm193.619-62.931.451-.48c-.384-.34-.759-.692-1.167-1-.035-.027-.297.244-.451.375l1.167 1.105Zm69.857 142.666-.99-1.047-1.207 1.018c.035.067.07.133.107.2l2.09-.171Zm-61.3-138.409c-.652 0-1.117-.008-1.577.02-.026 0-.096.396-.041.428.384.227.798.407 1.257.628.099-.296.181-.535.364-1.076h-.003ZM101.496 14.958l-.364.026.253 2.403c.111-.012.221-.024.335-.038-.076-.797-.149-1.594-.224-2.39Zm31.246 20.974c1.164-.152 1.295-.51.555-1.51l-.555 1.51Z" fill="#fff"/></svg>