<svg data-name="Layer 2" xmlns="http://www.w3.org/2000/svg" viewBox="0 0 2139 199"><path d="M.5 189.3c3.86 0 588.25 1.42 592 .63 6.14-1.29 5.21-9.2 4.83-13.36-1.51-5.54-.09-25.22-6.42-26.42-3.89-.52-7.52 2.19-11.48.94-6.25-3.07 1.18-8.97 5.91-8.65 8.18-1.33 17.84 5.44 21.61-4.87 2.99-8.26 21.42-25.31 28.45-12.63 1.27 3.13 2.16 14.48 7.47 14.37 4.5-.78 6.83-5.35 10.59-7.42 4.06-2.38 8.96-3.23 13.59-4.17 3.31-.32 7.88 1.37 8.95-2.88.74-4.71-2.2-9.2 4.39-11.11 1.29-1.03.13-2.77 0-3.98 1.72-10.98 1.06-26.85-13.06-30.46-13.48-4.22-30.88 3.05-28.23 17.78 1.54 9.33-2.23 17.39 12.13 15.7 3.25-.61-1.45-8.75-2.38-10.55-.62-.8-1.66-1.53-2.67-1.23-3.22.96-.96 6.58-1.32 8.54-1.77 5.73-11.38 6.43-7.41 14.05 3.36 7.53 2.12 17.61 12.18 7.35 1.04-.72 2.27-1.22 1.83-2.74-1.2-3.32-11.59-10.15-3.72-11.85 7.84 2.03 14.31 7.91 21.55 11.43 5.83 3.38 10.03 6.79 12.18 12.89 4.4 10.2 3.99 22.81 14.77 29.48 4.86 6.56-14.07 3.39-17.38 3.62-7.3.46-7.9-6.59-7.19-11.58.59-4.7.06-10.56 2.75-14.58 2.11 6.29.8 21.49-7.15 24.09-5.74-2.12-1.13-17.89-2.28-23.01.18-10.92-9.71-7.68-10.59-15.2.93-2.02 5.98-3.85 8.28-3.23 2.32 2.24 2.16 7.12-.79 8.91-1.88 1.1-5.26 1.05-6.45 2.77-2.01 5.21-.2 11.2-.88 16.67-.87 3.43.24 7.51-1.81 10.47-5.21 2.61-12.32-2.51-17.82-3.32-7.28-2.02-2.12-21.17-9.25-27.96-4.87-7.12-14.59-4.68-18.32 2.19-9.55 11.9.37 25.78 5.45 37.55 1.78 4.49 5.05 8.51 10.58 8.53 4.85-.08 11.71 3.15 15.64-.1 12.94-19.83 19.49-13.06 39.44-11.93 13.55-.18 32.68-2.28 39.76 10.81 3.09 1.23 22.6 1.97 20.77 5.55-.51 1-1.93 1.2-3.13 1.28l-26.85 1.62c-15.85 1.49-31.74.56-46.81-4.39.84 3.61-4.2 4.63-7.23 4.2-19.95-1.28-40.61 2.16-60.23-.95-1.53-1.19-.43-3.04 1.5-2.65 21.57.7 43.1-1.61 64.54-3.91 22.77-2.37 47.84-6.12 69.56 1.94-.96 2.78-51.65 5.76-39.12.11 10.98-1.17 22.07-2.34 33.08-1.33 6.2 1.23 17.2.39 16.14-7.41-2.11-8.05-3.84-16.07-2.71-24.28-13.35 17.84-37.17.33-50.3-9.07-3.2-4.8 10.96-25.92 12.21-33.85 5.98-17.34 15.87-33.08 21.89-50.42 1.61-4.63 4.2-8.55 8.03-11.92 10.41-10.41 27.91-1.85 33.04 9.05 1.88 8.78.36 18.06 1.99 26.98.99 9.64-4.2 19.09-9.03 27.7-10.09 19.5-19.98-9.34-32.85-6-14.56 1.53.61 26.88-9.37 33.22-6.83 1.26-7.96-8.7-9.05-13.1-.39-6.57-2.24-13.36-.77-19.85 5.24-8.73 9.04-18.48 14.91-26.92 6.75-10.67 10.11-24.65 23.4-30.36 3.58-1.79 4.2 3.66 3.92 5.68-.04 8.87-9.79 14.65-10.64 23.06.35 6.36 7.82 11.77 14.61 12.01 4.58.13 6.84-3.37 7.71-6.97 2.17-3.38 5.12-9.61 10.27-8.86 5.33 8.86-2.81 17.28-3.52 26.23-1.39 7.76-4.58 15.24-9.3 21.79-20.26-37.64 18.28-22.96 4.45-59.64-1.37-3.32-2.82-6.62-6.58-8.09-3.54 1.91-2.35 8.19-5.58 10.79-3.58 5.08-12.36 6.25-12.89 12.92 1.38 10.3 10.78 19.49 7.04 30.46-.37 2.57-3.31 2.49-4.86.73-7.89-6.23-9.13-16.33-13.35-24.34-4.59-.89.91 9.03.97 11.11.89 1.64-.47 4.35-2.54 2.81-1.33-1.02-1.29-3.89-3.25-3.96-15.25 7.01 11.6 34.16 20.01 39.39 8.64 5.23 18.6 8.61 28.88 9.78 5.36.89 11.02-2.29 15.43 2.01 2.41 1.46 6.22 5.95 8.98 3.13 2.7-3.55 3.52-9.83 0-13.1-3.2-2.33-7.76-1.73-11.37-2.75-.43-.43-.22-1.1-.05-1.66.67-2.2-.4-7.16-3.19-8.09-4.89-.72-3.92 5.43-3.7 8.21 1.7 15.21-12 28.55-8.24 43.49 5.66 8.89-2.19 11.9-11.15 10.21-7.22-.42-13.15-5.9-9.59-12.56 6.82-15.88 6.17-35.64 20.08-48.21 6.42-5.77 18.78-1.54 15.61 7.32-3.95 12.3-9.4 24.1-11.39 36.95-1.65 4.59.31 9.4 6.09 9.14 3.67.01 8.02.97 11.34-.72 5.35-5.79-15.53-3.48-16.63-.37-6.12 7.85 16.06 6.59 17.12 1.8 3.28-13.08 7.58-26.12 7.2-39.65-.15-5.41-8.46-3.98-12.52-5.12-11.26-.93-24.43-.72-32.42-9.28-1.24-1.58-3.37-2.72-4.93-.96-5.14 4.71-4.69 11.97-4.52 18.15 1.39 10.51-5.19 36.14 7.36 40.72 5.92 1.95 12.3.91 18.43 1.15 8.78.4 17.15 4.14 25.8 5.48 17.34 1.28 34.86.7 52.25.58 6.41-.4 13.46.56 19.44-1.92 5.92-4.94 4.54-13.93 6.93-20.57 1.82-10.09 4.92-20.1 6.01-30.24-1.76-7.18-12.99-2.89-18.63-3.53-15.25.3-30.52 1.41-45.77 1.14-4.89-.33-10.68-1.17-14.66 2.08-10.3 13.62 1.1 21.72-19.92 6.05 4.88-6.2 7.12-17.94-2.65-20.93 4.9-1.27 9.95-3.15 14.9-4.51 4.61-1.4 9.03-1.81 10.66-6.49 1.36-4.7 5.96-16.64-2.42-16.99-3.16 2.38-2.07 7.49-.3 10.43 3.78 4.31 3.67 6.67.29 11.06-2.59 7.02 5.13 15.98 13 16.36 8.99 1.1 15.92-3.37 21.39-9.31 8.16 2.14 9.52 12.89 20.97 9.9 3.46-13.73-1.3-28.57.49-42.65 2.52-13.2-23.33-19.13-33.12-25.71-3.02 17.04 2.61 11.11-13.65 16.58-6.64 3.05-6.15 9.62-4.6 15.28.58 5.63-2.51 11.17-2 16.8.94 7.24 7.59 15.26 15.67 16.69 11.9-.88 13.2-15.35 20.13-22.06 7.01-4.62 19.6-1.05 21.63 6.92 2.17 6.41-5.27 14.45-12.25 10.13-2.55-1.41-5.17-3.1-7.59-4.81-1.3-.92-2.54-1.99-3.89-2.84-.78-.49-2.8-1.01-2.7-2.1 3.88-5.93 7.36-12.58 6.65-19.63-.6-10.54-9.48-16-19.73-17.48-.45-19.78 11.67-34.58 34.76-31.07-4.08 10.59-3.55 24.34 4.12 33.3 4.68-4.51 7.8-10.66 12.39-15.41 4.21-4.73 9.24-9 15.37-11.39 3.9-2.06 1.45-7.38.48-10.53-.51-5.42 4.64-9.56 4.49-15.05.77-6.42-.85-14.27-7.95-17.17-6.38-2.16-16.85-2.59-20.2 4.05-15.57 22.77-4.37 10.47-8.66 29.4.91 24.98 34.48 7.15 31.95-10.47 2.79-10.27-12.78-13.11-20.24-8.94-4.16 2.84-9.03 6.76-10.11 11.56 2.05-6.88 17-10.01 23.79-8.64 15.45 7.63-7.51 21.57 13.62 30.45 18.74 6.36 11.55 15.85 13.37 29.55 4.14 9.23 12.41 16.46 16.07 26.05 5.52 9.96 5.46 16.45-6.52 21.63-2.83 2.46-6.57 4.06-10.5 2.84-16.77-4.59-12.67-20.98-20.67-31.22-3.53-4.04-8.86-2.41-8.71 2.78-.41 7.8 1.06 16.78 7.03 22.69 3.82 3.02 9.19 2.82 13.92 2.59 11.14.91 23.7-.24 21.82-13.52-.37-11.55-8.26-20.64-14.7-29.93-7.18-8.97-20.98-4.41-27.63 2.86-6.37 6.97-7.09 16.09-4.67 24.61 1.75 8.51 8.41 14.58 14.6 20.67 5.77 6.58 8.68 15.24 14.4 21.77 2.69-6.92 2.05-25.27 14.48-15.95 1.09.58 2.29.07 2.84-.92 2.93-18.98 28.21-12.93 36.49-.56 6.24 10.01 12.69 23.11 9.14 34.59-1.48 5.12-7.01 6.69-12.29 5.89-9.54-2.13-43.43 4.51-46.2-4.16.03-11.14 35.93-2.91 45.36-7.37 6.17-1.95 2.77-7.04-1.04-9.44-5.56-6.07-6.91-15.06-12.27-21.08 3.87 22.26 15.64 31.81-18.32 28.78-5.64-.4-12.59-.07-15.42 5.28-6.52 8.2-18.79 5.29-20.77-4.7-1.3-2.15-3.62-11.43-5.87-7.5-1.57 7.04-2.29 15.06-8.14 20.24-.28.55-.02 1.21.68 1.23 28.58 8.07 300.8 2.01 336.68 3.78 3.32.38 6.34-.91 4.43-3.96-6.13-16.68-35.26-61.5-22.25-75.64 25.16-16.18 40.54 54.21 40.68 68.6-.48 1.72-4.66 2.78-4.17.37.69-1.09 4.93-.5 6.02-.49 14.27.87 28.67.48 42.88 2.16 17.06 1.94 8.68 11.54-3.83 10.27-3.14-.73-1.01-3.85 1.23-4.21 6.15-2.19 12.72-1.55 19.13-2.73 2.6.25-1.28 2.7-2.19 3.18-8.06 7.85 15.73 5.68 16.56-.35 2.87-6.72 1.14-14.27-5.08-18.82-9.77-6.1-23.54-8.45-35.09-6.26-9.49.59-27.95 22.27-34.38 10.18-11.01-21.64.59-45.23 3.52-67.37 6.56-15.02 35.81-12 41.52-27.96.05-.38.37-5.37-.61-5.07-2.01.46-3.24 9.38-5.96 5.05-.76-1.02.25-3.1-.81-3.65-3.04 2.05-2.45 5.68-4.36 8.4-9.43 12.6-35.35 4.95-31.69 27.71-5.45-7.94-.38-15.45 5.98-21.17 7.02-8.92 4.53-24.68 16.96-29.79 9.75-3.46 24.46 1.92 23.63 12.99-.21 2.41-1.6 4.57-2.55 6.83-2.33 4.87-1.79 11.43-6.36 15.12-5.85 1.34-5.37-8.52-10.56 4.2-1.34-1.37-3.55-2.62-5.41-3.3 4.47 3.14 29.04 27.66 24.24 31.67-5.46-.74-1.33-5.32 1.68-6.27 17.8-7.52 20.43-11.74 23.3-28.78 10.88-1.38 22.28-.82 33.33-1.26 6.04-1.58 1.25 23.66 2.13 27.82-1.67 3.65-7.82 6.14-11.09 8.89-8.35 2.86-18.86.98-27.66.14 10.08-1.54 30.56 1.57 35.28-8.04-11.56.08-23.58-.11-35.12-.57 5.5-5.42 11.51-12.92 10.21-20.38-.49-.27-1.08.12-1.48.49-4.28 4.26-11.22 9.72-6.66 15.92-1.77-3.62-8.02-2.77-9.47.65.68 2.29 2.24 4.39 3.24 6.61 1.21-1.03 2.42-2.05 3.63-3.08-11.61 12.54-23.91 22.64-38.89 7.52-4.16-3.51-10.15-6.84-10.97-12.26-1.38 12.75.1 14.97 13.88 18.06.51.12.38 1.02.34 1.5.66 3.2-11.16 19.15-14.24 13.85 0-1.02 1.41-1.43 2.51-1.53 11.87-3.42 7.48 8.66 13.41 13.56.96-5.37-7.25-10.36 2.59-10.06 4.56-2.37 7.24-8.44 10.45-12.25-5.31 2.95-9.96 6.9-13.55 11.54 3.36.04 6.73 0 10.08-.16l139.19-3.13c.55-1.53 1.17-7.1-1.84-6.25-3.16 1.63-6.45 2.77-10.06 1.6l-33.08-6.72c5.75-5.13 13.6-7.55 20.52-11.04 3.49-1.62 7.64-.77 11.36-.53 15.25 1.84 19.34.66 31.86-7.65-11.64.68-23.2 1.85-34.85 2.57-.37-.68-1.87-1.02-2.55-1.45-18.29.88-37.31 1.33-55.62 1.21 4.03-4.29 3.13-10.7 2.45-15.97-1.47-10.45-.99-21.01-1.95-31.51-2.54-10.88.03-54.82-9.39-58.21-10.22-1.43-5.01 11.53 3.81 2.26-22.37-1.07-45.31 3.29-67.92 3.22-.56 7.14 4.26 4.81 9.46 4.16 16.63-1.39 33.29-2.51 49.96-3.35 1.01-.05 2.38.15 2.48 1.08-69.71 7.73-62.2-8.88-58.71 36.95 1.11-.87 1.22-2.39 1.23-3.73.1-7.41.21-14.82.31-22.23-.39-2.86 2.01-4.45 4.99-4.39 15.96-1.17 31.96-2.03 47.96-2.57 7.91.28 11.11-.89 11.46-8.62 3.03 10.49 8.03 20.97 7.28 32.2 2.5-24.47 19.48-6.28 11.54-38.58.13-4.36 2.77-6.39 7.07-4.41 9.59-8.55 18.23 8.22 11.56 15.18-.55-4.89-.09-14.58-8.47-12.12-4.5 1.59-6.42 5.71-6.92 9.91-1.06 7.45 6.12 14.54 12.84 7.32-.41 6.13 9.18 5.41 13.62 6.23 10.19 8.42.49 23.51 1.74 34.35.07 6.48 3.1 12.74 2.98 19.22-.99 4.21-11.44 3.66-14.73 2.39-6.1-2.93-10.35-27.53-13.03-2.39.49-18.87-8.13-38.44-2.57-56.87 1.64 1.45 4.45 7.3 6.96 5.69 1.6-1.26 3.03-2.69 4.27-4.25.27-.34.12-.45.5-.21 1.09.95.57 2.58.37 3.79-1.26 6.1-2.64 12.24-3.88 18.3 2.51-4.62 5.02-9.23 7.53-13.85-3.72-2.12 1.05-3.98 1.14-6.18 7.94 2.54 12.75 5.02 8.73 13.52-3.13 5.24-6.88 20.07-13.86 20.49-8.9-1.36-17.14-5.75-25.73-8.32-1.42-2.35-.7-5.91 2.02-6.9-4.3-.01-13.09-7-15.25-5.75.57 2.15 3.41 2.95 4.14 4.83-.14 1.57-2.99 3.22-.66 4.68 20.68 7.73 9.62-.51 16.94-2.34 1.4-.4 2.68-.36 3.72.59-.5-6.43-6.87-12.48-5.22-18.83 2.84 2.97 7.43 4.45 11.68 3.75.58 5.25.88 10.53.92 15.81 3.02.71.53-8.06 1.02-9.92-1.4-5.73 5.79-7.62 6.78-12.71 2.16 1.37 4.45 2.57 6.84 3.57-3.62 9.46-10.44 15.42-8.77 26.15-.44-5.81-3.67-7.69-9.93-7.19-5.33-1.54 3.18 25.53 1.17 30.61-.21-6.6-3.8-12.37-6.45-18.22.03-1.05.7-2.88-.87-3.22-3.26 1.02-1.17 19.23-2.1 23.4 5.22 4.04 18.42-2.84 21.46 3.41-34.21.74-29.69-3.24-17 25.09 2.91 4.65 27.98 1.74 35.09 2.88 3.5.27 1.47-3.53.33-4.94-4.11-5.14-5.85-12.19-8.52-18.07-1.17-4.75-6.33-3.75-10.27-4.9 5-.4 16.6 3.62 17.13-3.27.25-1.93.26-4.34-1.61-5.26 2.22 11.83 4.99 23.58 8.32 35.19-6.11-3.31-5.16-2.36-11.96-1.75-5.77-3.03 14.81-10.53 18.32-8.58 1.39 1.17 1.55 3.06.82 4.66-3.03.75-9.74 3.18-5.99 6.67 3.92.9 8.32-2.18 12.54-.78-3.31-.53-2.54-6.17-6.39-5.71 6.7 4.55 50.81 2.28 52.99-6-3.94.94-8.12 1.03-12.11.27 10.39-6.23-8.18-22.18 3.61-40.33 1.09-2.3 2.36-4.66 2.21-7.16-2.05-12.35-17.19-13.74-26-6.18-1.3 7.83-6.1 29.89 9.88 24.08-2.56 8.96-8.44 17.16-13 25.42 1.53-7.74 4.24-15.29 8.01-22.37-3.79 2.24-7.54 1.85-9.99 6.47-2.36 4.23-8.15 8.3-7.45 13.32-5.08-3.57-4.57-14.89-10.87-14.9-2.45 1.28-5.35-.02-3.45-2.65 5.3-3.04 7.91 4.1 6.77-9.39-.84 1.2-1.79 2.34-2.85 3.39-2.21-2.5-2.99-7.84-6.54-8.63 1.4 7.98 1.92 39.08 12.57 39.5 4.38-.7 1.44 4.26 3.22 6.1 1.61-3.46-.34-5.89 5.52-6.18 7.48-1.25 15.24-4.93 22.41-7.29 5.88-1.51-2.77-13.2 1.2-18.1-4.75 6.51-7.39 15-14 20.08 2.11-5.17 3.86-12.81 9.67-15.28-.31-1.59-2.95-4.17-.63-5.22 2.71-1.85 9.48-4.58 7.86-8.25-1.73-.96-3.96-1.64-4.46-3.73-.6-3.25-2.09-2.83-4.68-1.48-5.11-.01-1.91-6.25-2.44-8.94-.64-2.43-4.34-3.63-6.5-2.1 13.05-10.77 24.03-.42 24.69 12.88 14.76-12.1 30.09 2.51 33.27 16.71 2.68 5.94 6.12 12.98 1.96 19.03-5.58 7.62-16.4 9.87-25.95 7.91-10.57-2.3-15.44 7.18-25.06 8.7-10.52 3.12-23.83 6.49-25.38 18.28 1.95-.96 3.67-2.33 4.99-3.96-4.65 4.82-2.39 5.83 2.36 1.94-.19 8.08 12.13-6.5 2.06-10.42 6.76-2.77 11.44 6.73 4.71 9.55 8.44-7.34 15.6-16.05 25.23-22.1 13.77-8.54 22.39 7.43 13.98 17.39-9.02 9.2-25.52 23.03-39.6 15.23-2.48-1.83-1.84-5.56-4.17-7.34-1.57 3.28 5.23 9.2.58 11.13-1.54.31-147.24 2.78-148.81 2.68-9.98 6.07 26.53 2.58 29.19 2.83 37.11-.62 74.22-1.21 111.32-2.03 4.43-.1 12.31-1.97 12.67 3.64.5 14.48 2.32 29.55.98 43.8-.94.58-1.76-.9-1.71-1.93.69-16.75 19.76-22.97 35.39-23 7.6 1.1 9.87-6.36 8.33-12.01-1.98-7.75-2.21-17.95-8.99-23.5-1.05.55-.81 1.98-.42 3.03 5.94 14.66 11.6 29.33 15.36 44.62-.26-1.19 2.04 3.99 2.89 4.26 5.78 4.18 16.61 2.31 15.6-5.81-1.06-5.91-.97-11.88-2.01-17.65-2.31-5.02-18.67-2.81-11.09-10.51 1.73-2.91 14.13-9.78 6.15-11.45-3.11-.77-6.29 1.07-9.27.45-1.21-.47-1.63-2.37-.39-2.75 8-12.21 23.06-24.44 18.26-39.96.06-.59.25-1.23.77-1.59 5.9-.77 9.05 15.77 11.76 19.94.61 2.24 3.21 2.21 5.3 1.46 20.51-6.96 31.85-8.56 26.42 15.74-1.96 16.4-4.82 33.01-7.65 49.3 5.1-13.42 7.28-27.99 10.4-42.01 1.08-9.66 5.79-19.81 2.97-29.38-8.47-11.39-34.38-3.62-39.45 7.85-3.41 9.51-5.24 19.33-6.23 29.34-1.8 10.19 2.94 27.48-5.91 34.7 1.77 9.13 32.49 7.65 33.05 1.38-8.09-.93-8.62 7.49-.24 8.05 15.4-11.68 586.79-5.42 618.1-6.73" style="fill:none;stroke:#fff;stroke-linecap:round;stroke-linejoin:round" data-name="Layer 1"/></svg>