<svg data-name="Layer 2" xmlns="http://www.w3.org/2000/svg" viewBox="0 0 2139 199"><path d="M.5 190.94s749.48.96 753.76.43c3.69-.66 2.19-6.66 3.06-9.51.68-22.28-1.76-12.25 22.1-9.52.03 6.16-.12 12.47-1.92 18.36-6.45.57-13.42 1.06-19.89.8-1.73-5.98 1.56-19.04-.77-25.54-3.34-5.65 5.94-2.54 8.49-1.71 5.7.87 11.5.47 17.25.63-3.18-.74-13.24.23-12.02-4.81 4.25-2.2 7.51 3.28 13.31-1.07 5.2-2.71 14.65-2.2 13.59 5.66-.12 1.39-.67 2.9-1.95 3.46-4.92.75-10.2-.76-15.06.75-3.16 1.35-6.27.85-9.18-.89-5.09-3.19-11.49-.77-16.54-3.05-.79-1.23-1.28-2.31-2.99-1.76-42.79 4.77-27.4 14.04-36.37-42.62-1.17-1.18-10.69-5.54-6.1-6.84-4.38-.58 5.75 12.7 6.57 14.16-.27-2.49-.45-4.99-.55-7.49 1.55.67 6.72 3.07 5.8-.44-2.88-3.32-7.77-4.03-11.31-6.37-1.8-1.63-.8-4.86 1.61-5.19 2.79-.55 13.34 6.45 10.31 9.32-3.36-1.13-17.13-5.88-9.44-9.98-6.99-10 1.74-6.24 6.23-1.13 1.84 1.16 3.25 5.58-.3 4.49-2.52-.92-8.51-5.91-6.7-8.86.46-.49 1.34-.56 1.77-.06-.49-3.97 4.87-3.25 6.54-.9 1.34 1.42 2.98 2.89 3.51 4.82.29 2.44-2.77 2.43-4.11 1.15-8.82-3.83-5.96-11.5 1.64-4.21 1.02-.64 1.85-.94 2.79-1.7-1.93-3.11 2.13-8.31 3.31-3.02 14.83-8.01 29.48-16.5 44.04-24.95 1.48 1.33 2.99 2.6 4.14 4.22-16.22 9.66-32.4 19.39-48.84 28.67-1.08.61-.35 2.64.55 3.49-2.14 1.15-5.34 1.13-7.53 2.16 2.85 5.02 8.95 6.03 13.29 2.57 1.04-1.36 1.98-2.81 3.07-4.12 2.32-.52 4.76-.61 7.12-.75-.08.37-2.7 4.76-2.84 5.16 1.49 0 3.26-.25 4.73-.51.99-1.82 2.15-4.39 3.14-6.21 2.64-.31 5.33-.63 7.98-.85-1.16 1.72-2.69 4.19-3.69 6.01 1.15-.25 2.77-.64 3.94-.58 3.34-5.88 3.22-6.47 10.7-6.82-.74 1.38-2.62 5.51-2.85 5.93 1.15-.3 2.47-.54 3.66-.63 1.03-1.73 1.96-3.92 2.98-5.65-.06.09-.12.18-.17.27 2.13-1.12 5.77-.67 8.22-1.29-1.16 1.88-2.18 3.8-3.34 5.68 2.61-.15 5.11-.42 7.71-.72-.12-2.06-.07-4.23-.18-6.3 0 .13-14.87 2.33-22.22 2.67-.26-5.46-.51-11.37-.03-16.99.06-.92-1.32-.97-1.99-.97.77-.81 1.48-1.26 2.39-1.87-1.24-1.04-2.87-1.75-4.37-2.42.97-.53 1.7-1.07 2.71-1.53.93.7 1.75.4 3.26 1.78l1.41.19c2.59-1.39 5.13-2.72 7.63-4.27-1.79-.6-3.55-1.31-5.41-1.66 2.08-.58 3.66-2.24 5.66-3.05-.15-.23-.32-.65-.46-.88-16.26 9.93-32.82 19.57-49.61 28.58-.02 1.92 5.45-2.96 6.53-3.33 1.81-.59 3.39 1.97 5.06 2.5 2.49-.44 4.55-2.71 6.79-3.9l-4.6-2.84c1.18-.58 2.14-1.47 3.37-1.94 1.86.51 3.59 1.51 5.26 2.48 2.19-.99 4.16-2.16 6.14-3.53-1.27-.73-2.63-1.48-3.91-2.21 0-.04.08 0 .05.04-.25.01-.47-.23-.71-.32 1.51-.5 2.71-1.28 4.06-2.11 1.43.9 2.87 1.61 4.42 2.29 1.83-.43 3.78-2.82 5.72-1.45-11.32 5.42-10.59 7.85-13.65 19.09 6.75-.71 11.79-1.32 20.2-2.13.02.45-.02.52 0 .97-13.26 1.26-26.5 2.59-39.74 3.99-.84-.78-1.66-1.49-2.5-2.27.12.17-.29-.14-.43-.29 2.12-1.26 4.26-2.34 6.52-3.34 1.04 1.54 1.68 3.34 2.31 5.09-4.34.93-9.19.93-13.28 2.31 1.46 1.56 2.65 3.36 3.53 5.3 20.09-2.53 40.2-5.27 60.29-7.8 1.76 15.62 3.35 31.43 6.32 46.86.06.22-3.64-29.32-3.62-29.09 1.75-6.9 4.93-21.2 7.45-39.33 1.69-10.39-7.34-15.75-16.41-16.91.72-1.35 2.27-2.13 3.35-3.21-29.76 6.3-12.68 8.31-25.84 15.27 3.03-14.62 27.38-13.83 37.85-25.57.47-2.7 1.02-5.43 1.49-8.13-.21.42-.09-.73.03-.89-5.46-13.25-3.08-35.99 14.29-37.83 21.41-4.12 16.35 12.69 13.93 26.82-.49 11.81-21.22 25.29-27.04 10.04-4.39-9.18-4.1-19.18-4.19-29.05.92-8.45 9.05-14.56 16.46-17.46 4.47-1.78 26.05 5.59 14.55 10.25 10.2-4.22 9.45 11.67 5.01 16.67-3.91 2.58-8.13 19.87-.32 10.01 1.28-1.69 2.55-13.3-1.26-8.04-3.96 10.35-5.88 21.33-8.28 32.11-1.61 7.39-4.97 20.87-14.57 19.9-16.75-3.6-11.57-10.23-10.52-23.65-2.94 4.4-10.47 4.94-13.67 9.27 2.96 0 12.9-9.13 13.5-6.81-4.6 16.34.63 20.9 16.56 22.25 4.18-.69-2.01 29.59.41 36.84 1.39 11.36 1.5 23.09 4.32 34.03 7.09-1.81 14.7-4.2 21.42-7.28 6.49-8.65 5.35-21.01 5.68-31.34-3.38-15.54 9.79-35.31.42-40.18-7.78-4-17.42-6.85-21.61-15.31-1.96 7.98-4.82 15.34-9.67 21.92 3.32-4.58 8.15-13.13 14.22-6.97-2.16-2.17-2.57-11.72 2.58-7.69 8.65 6.33 22.06 7.41 26.14 18.64 1.75 12.55 5.52 25.1 8.01 37.24-6.64-.97-12.97 2.03-19.26 3.12-1.71 6.65.96 16.06-5.42 20.55-10.97 6.56-23.75 8.86-35.95 12.03-2.86 1.47-.67 6.51-.87 9.22 5.14-3.67 11.82-2.12 17.67-1.68 9.2.64 18.17-2.06 27.05-4.09 17.14-2.19 10.57-24.93 12.34-37.06l.12.37c3.08-2.18 1.42 20.59 1.39 23.15-.32 4.79-1.12 10.92-5.98 13.18-10.61 3.9-21.61 6.29-32.73 7.67-4.48.69 0 11.14-.29 14.49.61 1.74-.03 5.8 2.35 5.87 25.53-2.87 25.04 7.24 23.7-22.57-.81.4-.93 1.47-.94 2.37-.12 7.3-.23 14.59-.35 21.89 61.84-.02 123.69.07 185.53.09 23.68.01 137.62.03 161.29.04h26.66c3.54.81 5.9-1.86 7.95-4.37 12.84-12.96 27.87 6.51 43.09 5.09 28.05-3.26 56.22-4.32 84.4-.68 3.24.42 3.11-8.57 1.07-9.86-2.48-.87-6.73-2-8.94-.23-1.07 1.32-.25 3.7-1.61 4.71-3.68 2.67-28.88-.06-33.38.47-.45.17-1.1-.29-1.34-.7-1.13-15.71-1.41-32.74.72-48.14 1.54-.94 3.75.23 4.73-1.21 6.91-10.14 20.35-13.17 29.81-5.36 8.82 7.28 10.48 7.54 10.88 5.77.15-2.34-3.01-2.11-4.62-2.07-2.24-.73-49.87 4-37.28-1.82 7.57-.78 15.24.23 22.84.28.51.02 4.78.43 4.03-.56-7.28-2.09-15.45-.18-22.93-1.22-2.11-.62-2.55-4.11-2.78-5.91-1.03-3.7 17.18-.74 20.22-1.46 5.95-1.29 5.48 1.95 8.21 5.75 13.41 1.18 27.35.46 40.92.68 2.37.11 3.57-2.96 3.03-4.91-11.53-2.74-24.59.88-36.22-1.62 11.58-1.26 23.49-.59 35.17-.53.86-9.2 1.52-18.42 1.99-27.65.12-2.79-2.51-4.15-5-4.02-13.4-.84-26.82-1.03-40.24-.95-2.65-.08-1.24 3.65-2.05 5.25-.86 2.18-3.96.5-5.51 1.55-2.82 5.58-.55 13.32-1.01 19.57.8 1.82 4.12 1.45 5.85 1.25-1.9-1.02-5.4.48-5.32-2.75.24-5.41-4.26-19.5 5.05-17.96.69-.03 1.22.39 1.15 1.09.66 31.93-6.3 21.13 37.54 22.75 2.07.21 3.63-1.06 3.27-3.2-.18-6.79.28-16.17.1-22.96 0-.38.28-.86 2.97-.68 2.58.17 3.89.05 3.07-.27-6.16-19.78-4.8-25.9 2.72-1.6 5.38 1.73 11.21 2.47 14.51 1.45 1.11-.34 0-23.99 1.49-21.69.92 1.42.22 16.44-.28 21.12-.24 2.28 3.52 2.05 3.9.24.67-3.18-.06-28.8 1.15-20.8 1.23 8.57-2.24 18.92 3.07 26.42 6.03 5.83 16.56-10.25 19.99-14.55 3.27-3.63-14.54-23.63-18.09-20.61-3.14 1.02-3.93 6.9-7.29 6.56-1.26-.4-2.78.14-3.82.67-4.49-1.12-13.3-1.88-17.31.8-3.26 4.17-6.18 4.83-11.28 4.31-6.33.29-13.16-1.33-19.28.09-6.28 10.45-19.42 6.14-29.64 6.84-7.33-1.22-20.59 2.8-25.15-3.66-3.24-4.29-3.84-10.88-.57-15.22 5.6-1.01 44.96-.68 50.59-1.54 5.03 2.21 2.78 13.1 9.77 11.68 6.16-1.34-5.99-6.56-2.77-18.96-22.74-1.66-46.14-.52-69.1-1-14.56-1.82-6.27 5.74-10.44 13.52 1.43-3.16.76-6.67.23-9.96.05-3.12-2.72-4.16-5.41-4.27.72 18.58-2.25 21.81-1.59 0-7.38.28-16.48-2.14-22.79 2.46-1.09 3.8-2.04 9.26-.02 12.82 2.82 2.73 29.9 2.1 30.41-2.72 2.27 3.82 8.4 1.57 12.17 2.28 3.49 2.82.48-10.49 1.98-12.78 3.59-.17 7.12-.23 10.71-.15 1.3 5.21-5.79 2.07-8.33 3.07-.76 3.85-.06 8.29-2.34 11.67.56 6.76 1.13 16.63 10.42 14.8 12.97.19 25.94.16 38.91.1 6.55.76 10.79-1.43 15.46-5.68 3.34-.99 21.77-1.7 23.31 1.07.88 2.51 2.26 7.2-1.39 8.17-7.31 1.38-14.93-.1-22.34.02-42.7-.51-26.62-6.49-31.43 30.7-1.49-2.89.39-37.33-5.35-29.02-1.15 9.67.05 19.78-1.01 29.47-.08.26-.31.57-.55.44-.74-10.29.71-21.6-1.43-31.9-7.35-.66-15.01-1.45-22.25-.2-.67 2.49-.4 5.23-.27 7.8.57 8.91.52 17.86-.14 26.76-.39 2.42-2.92.9-4.06 0-1.71-1.2.37-1.23 1.01-1.94.32-1.3-1.83-.92-2.3-1.69-.36-.57.15-1.32.75-1.65.75-.42 2.17-.64 2.07-1.73-.25-.99-2.38-.33-2.49-1.35-.06-.52.57-.83 1.08-.94 1.69-.18 1.43-1.81-.2-1.86-.64-.08-1.48-.44-1.34-1.08.69-1.09 2.9-.6 3.48-2.12-.96-.47-4.5-.62-2.79-2.21.71-.41 2.17-.21 2.28-1.29.01-.59-.67-.91-1.2-1.16-2.4-1.38.99-2.19 2.09-2.81-9-3.16 2.99-2.77-2.17-5.04-1.98-.95.01-1.47 1.02-1.8 1.01-.56.52-1.8-.56-1.83-1.15.31-2.95-1.35-1.1-1.65.77.06 2.18-.19 1.84-1.24-.35-.71-1.78-.33-1.97-1.1-.15-.58.64-.92 1.23-.96 1.78.12 1.83-1.81 0-1.64-1.71.19-4.54.43-4.82 2.55-.25 10.56-.97 21.14-.31 31.7.12 1.97.42 4.08-2.19 4.14-2.16-.13-4.74.64-6.65-.57-1.5-1.48 1.73-1.44 2-2.68-5.92-1.14 5.27-4.17.02-5.95-.69-.18-1.52-.43-1.67-1.12 5.51-1.24 3.56-2.65-.7-3.28.49-1.11 2-1.01 2.62-1.83.21-1.49-4.12-1.44-1.12-3.28.57-.24 1.25-.41 1.55-.94 1.25-2.1-4.22-2.28-1.3-3.74 1.32-.06 2.13-1.35.7-2.04-.82-.26-2.56-.83-1.78-1.95.82-.61 2.55.1 2.85-1.22.11-.76-.86-1.17-1.62-1.32-2.14-.25-1.89-2.42.23-2.16.71 0 1.64-.36 1.53-1.06-.11-1.03-3.03-.78-2.22-2.16 5.94-1.53-1.16-5.13-3.44-2.72-2.05 13.28-.64 27.53-2.1 41.02-.83 2.66-3.38 2.2-5.69 2.2-2.41 0-4.99.74-7.11-.4-1.22-.97.56-3.06.37-4.47.46-1.93-1.73-1.86-2.38-.46-.37.86-1.78.28-1.57-.75-1.14-12.57-.08-25.37-1.08-37.91-5.98-2.84-14.85-1.73-21.79-1.95-2.6-.29-2.85 2.17-2.48 4.12-.05 12.37.22 24.76-.33 37.13-.24 4.75 21.78 1.5 25.99 2.16 2.5-1.11 1.02-5.54 1.27-7.86-.08-2.8.16-29.64.08-32.44 5.53-.54 11.14-.72 16.68-.32 2.02 12.53-1.54 26.15 1.17 38.3 1.34.29 6.62 1.24 6.72-.67.38-12.19.16-24.42-.3-36.61 1.54 0 2.94-.05 4.48-.04 1.13 12.55.19 25.41.59 38.06 4.23 1.54 10.09-3.22 10.53 4.13 3.88 1.13 35.02-.13 39.62.03.8-.03.66 1.47 1.32 1.92 4.24.64 8.81-.58 13.08.14 4.62 1.86-1.85 11.68.69 16.1 7.32 2.97 3.77 15.56-4.02 15.11-10.61-1.45-6.97-22.33 9.61-12.11 3.34 13.64-16.66 23.62-18.4 6.47 13.04 40.54-45.05 29.31-28.92 4.7 3.94 2.18 4.35 8.67 8.89 10.57 5.95 3.7 14.32-6.01 8.18-9.83 1.34 4.22-4.25 10.51-8.19 7.22-1.12-1.36-1.16-3.28-1.85-4.9-1.08-3.56-7.16-5.4-6.32-9.47 5.76-3.48 12.75 6.47 18.79 7.08 1.41.33 2.94.45 4.11 1.3 2.63 1.92 1.9 6.14 3.75 8.82 5.68 6.06 15.6.63 22.71 3.58.66.27 1.25.74 1.54 1.4 1.26 2.83-5.02 2.81-7.03 1.95-3.3-1.75-12.14 1.67-11.62-4.01 5.73-6.65 38.04-13.62 44.79-6.82 0 0 6.85 6.07 5.48 15.97 1.06 19.71 17.66 6.7 27.24 10.47 5.36 2.11 12.43 2.36 31.11-8.09 6.69-3.74 10.12 6.77 15.11 8.91 6.21 2.66 14.68 3.09 20.13-.91 4.98-3.66 1.67-5.68-3.22-7.85-9.71-4.38-19.42-8.75-29.14-13.12-.74-.33-1.59-.11-2.12.5-2.92 2.69-3.42 10.89-8.86 8.07-21.89-9.66-26.44-12.72-47.31-24.51-16.29-10.76-21.1-8.8-39.22-8.57-1.16-2.37-2.79-5.45-2.93-7.97 8.09-.54 16.39-1.26 24.48-.22 22.32 6.54 36.56 15.84 57.56 25.5 4.89 3.2 16.12 6.59 16.27 11.07-.34 2.65-2.04 5.05-2.33 7.61 2.76 2.98 7.73 5.76 11.95 8.24a25.03 25.03 0 0 0 9.23 3.21c10.48 1.47 22.19.87 29.15-2.78 3.7-1.94 12.4-3.26 16.58-3.26 65.13.05 618.63.08 619.78-.12" style="fill:none;stroke:#fff;stroke-linecap:round;stroke-linejoin:round" data-name="Layer 1"/></svg>