<svg data-name="Layer 2" xmlns="http://www.w3.org/2000/svg" viewBox="0 0 2138 201"><path d="M0 193.91h697.92s18.07 1.16 25.4-8.15c7.34-9.3 8.41-18.96 8.41-18.96l.31-14.27c.42-16.22-.04-33.05.4-50 .19-5.8.38-15.81.26-21.11-.07-3.35 1.29-7.4 4.16-9.12 2.34-1.4 6.09-1.67 10.96-1.74 12.17-.18 38.55.81 38.55.81s7.47-.45 7.69 11.45c.29 15.38-1.07 96.97-1.07 96.97s-1.4 9.83-13.69 9.57c-9.1-.19-28.83-.53-37.28-.97-3.52-.18-6.88-2.12-8.28-5.35-1.1-2.54-3.62-3.88-2.23-9.96.03-.12.53-4.2.37-3.94-1.02 1.73-.58 3.94-.36 7.65.27 4.46.95 6.35 5.99 10.32 2.39 1.89 4.38 1.98 17.91 1.74s7.11.61 13.7.16c0 0 11.85-.82 18.34-6.6.38-.34.61-.75.61-.75.22-.29.34-.65.34-1.02.1-7.34 1.25-93.01 1.25-99.69s-5.37-6.62-5.37-6.62l-19.19-.76s-3.59.29-4.03 2.55c-.44 2.26.94 2.01.94 2.01s2.28.81 2.42-1.61c.13-2.42-3.76-2.82-3.76-2.82s-9.39-.28-17.58-.13c-7.34.13-7.07 8.54-7.07 8.54l-.13 92.18s-.37 9.59 11.63 10.11c34.99 1.84 35.92-2.29 40.78-3.17-4.74 8.11-27.85 8.94-42.66 9.21-29.32 1.54-5.9 2.21-5.9 2.21s21.54-.34 34.68-.67c13.15-.34 6.31 1.07 6.31 1.07l-28.85 2.42 37.41-1.63s6.26 1.97 15.39-3.94c8.05-5.21 30.85-18.11 36.09-21.06a2.13 2.13 0 0 0 1.08-1.85V42.82s-1.74-7.16 12.75-6.98c14.49.18 198.4 0 198.4 0s10.38-1.79 10.56 10.74c.18 12.52 0 122.77 0 122.77H844.81c-2.12 0-4.21.51-6.1 1.48l-34.84 17.97s-9.53 4.83 1.07 4.7c10.6-.13 288.48 0 288.48 0s17.58-.27 5.1-5.1c-11.7-4.53-39.11-20.27-44.01-25.53-.54-.58-1.29-.9-2.07-.9l-199.46.27s-2.68.27-2.42-4.56.27-108.42.27-108.42-.81-4.29 4.56-4.56c5.37-.27 91.17.81 91.17.81 5.8.03 11.17-5 6.47-5.07-3.8-.05-3.46 5.07 5.4 5.07s90.17-.81 90.17-.81 5.9-1.07 5.64 5.37c-.25 6.1-.15 100.03-.14 109.92 0 .54-.32 1.02-.81 1.24-3.1 1.34-8.69 4.02-38.95 1.82-71.82-5.22-142.76-1.78-161.27-1.39-1.68.04-3.3.64-4.59 1.72l-5.38 4.48c-.72.6-.89 1.63-.4 2.43 1.15 1.87 3.39 4.97 5.81 5.47 3.49.72 4.47-3.07 1.97-3.04-1.22.02-1.93.83-1.62 1.55.39.88 1.33 1.4 2.3 1.36l12.83-.49 42.67.54 65.21.27s62.83-1.38 79.16-.27c14.62 1 11.44 2.3 7.52 3.08-2.33.46-4.71.67-7.09.67h-8.76l-63.87 1.88-41.06-.27-91.24-2.06s-12.7-1.61-13.06 3.4c-.36 5.01 8.95 3.94 8.95 3.94l215.08-3.16c4.51-.07 8.98 1.2 12.65 3.82 2.1 1.5 4.01 3.47 4.84 5.96 2.33 6.98 7.29 7.34 7.29 7.34s10.87 2.42 13.46-7.69c-.25-14.67-.51-29.33-.76-44-.07-4.29.08-8.58.45-12.85 1.51-17.25 3.02-34.49 4.54-51.74 0 0 .81-29.69 0-49.38V8.56s-1.88-8.05 12.88-8.05H1320.83s10.02-.61 9.79 10.47c-.27 13.16.03 132.57.03 132.57v12.34s-.43 5.9-11.17 5.9h-133.37s-.18 16.73-2.15 19.41-8.41 4.65-8.41 4.65-9.3 4.48 4.65 8.23c13.95 3.75 64.76 4.47 72.99-3.04 8.23-7.51-5.05-8.51-5.05-8.51s-5.53 1.98-3.74-20.74l-126.63-.45-13.42-.18s-4.65.28-4.38-9.03c-.12-9.81.03-12.28.03-12.28l.03-44.42-.97 41.97c-.02 1.2.94 2.18 2.14 2.19 76.4.44 219.47 1.45 225.79.33.47-.08 2.09-.37 2.3-1.22 0 0 .28-1.17-8.74-6.68 0 0-202.88.25-207.71.25-3.31.01-3.66-5.37-3.66-5.37s.44-110.03.04-113.78c-.4-3.76 2.42-3.35 2.42-3.35l97.28.27s7.77-.7 8.5-2.4c.63-1.48-1.7-2.01-1.7-2.01s-2.77-.58-2.24 2.01c1.61 2.33 6.44 2.37 6.44 2.37s93.39-.37 97.32-.37c3.22.01 3.22 1.79 3.22 1.79l.22 120.63 8.71 6.74c.9.69 1.24 1.89.85 2.95-1.29 3.51-4.53 10.84-8.82 10.33 0 0-2.42.2-2.62-1.54-.2-1.74 1.74-1.68 1.74-1.68s1.41 0 1.07 1.41-.63 2.86-8.36 1.65c0 0-1.83-.36-1.65-1.52.18-1.16 1.65-1.21 1.65-1.21s2.22-.27 1.92 1.34c-.29 1.62-5.55 2.55-5.55 2.55s-11.09-1.57-16.82.76c-5.72 2.33-13.95 7.6-21.02 7.69-7.07.09-81 2.15-81 2.15s-10.87.94 4.43 1.88c15.3.94 39.45-.81 39.45-.81s9.26-1.21 8.99 4.16c-.27 5.37-1.07 13.02 7.25 14.49 8.32 1.48-1.07 7.38-1.07 7.38s-3.09 2.3-36.5 3.23c-33.41.93-39.18-6.45-39.18-6.45s-12.21 11.18 65.08 10.29c59.64-.69 83-3.72 90.56-5.07 2.33-.42 4.54-1.35 6.44-2.76 2.2-1.64 4.93-4.32 6.81-7.37 0 0 10.36-12.51 10.36-57.6 0-40.28.04-58.35.05-61.75 0-.72.12-1.45.41-2.11.65-1.53 2.31-3.68 6.55-3.68h27.85c1.84 0 3.68-.29 5.41-.94 1.11-.42 2.2-.99 2.83-1.76.84-1.03-.66-2.4-1.62-1.48-.66.64-.74 1.55 1.07 2.67 1.45.9 3.15 1.33 4.86 1.33h33.47s5.17 0 5.17 4.83v114.47c0 1.08-.26 2.17-.83 3.09-.86 1.38-2.6 2.85-6.12 2.85h-73.52s-5.21-.18-5.21-5.68l-.4-47.02c-2.48 7.98.47 28.51 1.39 38.14.27 2.83.29 5.67.07 8.5-.17 2.21-.07 4.92 1.27 6.06 1.79 1.52 12.73.79 18.3.31 1.88-.16 3.75-.25 5.64-.24 3.5.02 11.32-.21 26.3-1.73 12-1.22 18.89.31 22.33 1.6 1.62.61 3.02 1.67 4.06 3.05l1.61 2.13c.28.36.61.69 1.01.91.79.43 1.74.52 2.61.22 2.41-.82 5.98-2.5 6.22-8.77V56.91c.36-7.69-7.87-8.59-7.87-8.59h-79.39s-8.23.89-7.87 8.59v123.14c-.36 7.69 7.87 8.59 7.87 8.59l74.07-.89c22.36-.54 5.01 2.5 5.01 2.5s-27.91 1.61-55.82 1.97c-20.44.26-15.55 1.1-11.47 1.53 1.65.17 3.31.26 4.98.26l104.53-.1h659.73" style="fill:none;stroke:#fff;stroke-linejoin:round" data-name="Layer 1"/></svg>