<svg width="1533" height="144" viewBox="0 0 1533 144" fill="none" xmlns="http://www.w3.org/2000/svg"><path d="M877.725 116.23a21.338 21.338 0 0 0 .199 10.654c.25 1.023 1.622 1.897 2.645 2.495 1.122.47 2.272.87 3.443 1.198 2.496 1.073 2.745 3.319.524 4.691a25.603 25.603 0 0 1-5.788 2.495c-2.096.649-4.292 1.048-6.987 1.672.568.132 1.143.232 1.722.299 11.053-.299 22.132-.349 33.186-.998 10.28-.574 20.535-1.771 30.79-2.744a8.968 8.968 0 0 0 7.136-4.991c2.321-4.242 4.192-8.733 6.138-13.174a7.49 7.49 0 0 0 .3-3.019V41.2c0-4.74 1.996-6.537 6.786-6.512l38.9.175h16.091a5.536 5.536 0 0 1 4.21 1.65 5.56 5.56 0 0 1 1.56 4.238v83.788c.2 1.443.11 2.914-.27 4.321a10.788 10.788 0 0 1-1.95 3.863c-.35.374-.33 1.123-.55 2.021-.81.307-1.65.525-2.5.649-7.86.399-15.718.748-23.577 1.098-4.267.199-8.534.349-12.801.823 7.062 0 14.123.175 21.184 0 8.454-.274 16.944-.973 25.404-1.297 3.14-.121 14.48.483 18.48.983l-9.9.264c-1.58 0-3.37.24-4.6.236-7.49.299-14.04.313-21.52.538-8.937.299-17.886.499-26.852.598-4.267 0-8.558-.199-12.825-.374a24.272 24.272 0 0 1-4.017-.549c-.524-.124-.948-.649-1.423-.998l.15-.748c1.397-.15 2.82-.4 4.242-.425a4186.23 4186.23 0 0 1 32.312-.274v-.749H957.77a5.98 5.98 0 0 1-6.338-4.02 5.99 5.99 0 0 1-.275-2.667 19.297 19.297 0 0 0-.449-4.84c-.249.524-.499 1.073-.798 1.597a65.771 65.771 0 0 1-3.593 6.337 16.314 16.314 0 0 1-12.476 6.912 569.98 569.98 0 0 1-72.959 3.094 216.21 216.21 0 0 1-19.712-.898 26.981 26.981 0 0 1-12.725-3.768c-.898-.599-1.996-2.121-1.771-2.819a4.262 4.262 0 0 1 2.794-2.046c3.967-.974 5.614-2.496 6.088-6.538.325-2.944.499-5.913.774-9.182h-55.567c-4.142 0-5.839-1.597-5.864-5.739 0-11.103 0-22.232-.15-33.335.054-.831.054-1.665 0-2.495-3.244 9.506-4.067 42.692-1.597 58.436 3.843 3.469 3.843 3.469 3.843 4.766l-4.117 1.248c-1.971 5.489-8.958 6.437-14.971-.3h-3.044c-35.382 0-70.771-.05-106.17-.15-27.147 0-54.319-.299-81.467-.474a21.071 21.071 0 0 1-3.443-.524 137.234 137.234 0 0 1-33.809 1.797v-.948l14.971-.474a2.32 2.32 0 0 0 0-.425h-11.902c-3.469 0-6.937.175-10.38 0a10.365 10.365 0 0 1-3.094-1.222v-.774l3.044-1.222c-4.741-1.547-6.238-5.14-7.086-9.981a21.86 21.86 0 0 1-8.139 9.657C503.784 135.87 499.5 138 495 137c2.5 0 4-.5 6-1 3.5-1 7.679-3.413 10.223-6.502a18.39 18.39 0 0 0 4.179-10.923c.449-12.051.649-24.103.673-36.155 0-4.416-1.122-8.857-1.122-13.299a80.776 80.776 0 0 1 1.347-12.476 8.31 8.31 0 0 1 8.334-5.988c8.933-.1 17.882-.1 26.848 0 4.566 0 7.236 2.994 7.311 8.034.124 7.486 0 15.171 0 22.781-.1 14.971-.225 29.942-.375 44.913a6.293 6.293 0 0 1-1.243 4.653 6.297 6.297 0 0 1-4.171 2.409 132.112 132.112 0 0 1-13.249 1.746c-2.221.2-4.492 0-6.712.449h20.21c-.399.849-.623 1.323-.823 1.797a23.807 23.807 0 0 0 14.522-3.743c5.414-3.094 10.829-6.188 16.293-9.207 3.069-1.697 6.213-3.219 9.557-4.99V41.824c0-3.718.174-7.485.324-11.178a4.148 4.148 0 0 1 1.218-3.354 4.138 4.138 0 0 1 3.373-1.163c8.758 0 17.466.3 26.224.325 7.211 0 14.398-.275 21.584-.25 15.819 0 31.638.35 47.408.35 17.042 0 34.084-.3 51.126-.424 4.416 0 5.788 1.047 5.863 5.34.2 11.643.283 23.238.25 34.782 0 17.69-.25 35.381-.399 53.072v1.148a102.3 102.3 0 0 0 21.533 11.428c-.3-4.192-.599-8.01-.849-11.803-.894-11.7-.626-23.46.799-35.107a301.649 301.649 0 0 0 3.443-43.465c-.149-11.403.375-22.781.25-34.16 0-4.865 2.495-6.287 6.313-6.337 6.562-.125 13.149.2 19.736.3 8.808 0 17.641.25 26.474.299 14.971.125 30.142.3 45.212.25 18.14 0 36.255-.4 54.395-.6h6.113c3.044.175 4.317 1.273 4.716 4.292.275 2.218.4 4.452.374 6.687v66.496c0 10.23-.249 20.46-.374 30.691 0 3.868-1.871 5.539-6.188 5.539h-20.161c-8.883 0-17.79.25-26.673.424-2.495 0-4.841.35-7.486.524m52.399-22.706V9.363h-8.085l-51.325-.45h-11.403c-1.198 0-2.495-.498-3.593-.448-4.317.2-8.633.798-12.95.773-19.213 0-38.426-.174-57.638-.274a21.23 21.23 0 0 0-2.495.25v84.36l147.489-.348ZM600.013 33.34v81.243h141.9V34.089c-.499 0-.973-.175-1.422-.175-20.835 0-41.695 0-62.529-.25h-14.697c-18.539.2-37.078 0-55.617-.199h-7.635m354.862 94.567c.607.154 1.224.263 1.847.324l33.784-.623a63.896 63.896 0 0 1 16.594.923c2.27.241 4.56.241 6.84 0V42.523h-4.55c-7.46-.1-14.95-.233-22.452-.4-1.248 0-2.495-.399-3.743-.324-1.821 0-3.618.674-5.414.699-6.712.15-13.424.15-20.161.2-.849 0-1.697.15-2.82.249l.075 85.085ZM535.862 53.676h-11.078c-4.567.125-6.238 1.996-6.263 6.612v34.758c0 2.17-.175 4.317-.175 6.487v12.476c0 3.019-.374 6.088-.15 9.108a7.334 7.334 0 0 0 6.737 7.211c1.654.252 3.32.418 4.991.499 7.231.72 14.524.527 21.708-.574 2.694-.449 3.618-1.173 3.767-3.643.449-7.186 1.048-14.347 1.198-21.509.2-10.355.15-20.734 0-31.09 0-5.264-.275-10.529-.499-15.794a4.017 4.017 0 0 0-3.743-4.142c-4.316-.174-8.633 0-12.65 0-.774 1.123-1.348 1.922-1.897 2.745h-.773c-.349-.823-.674-1.647-1.223-2.92m240.185 46.311v10.48c0 2.744.973 3.618 3.718 3.618h114.029c3.874.097 7.713-.76 11.178-2.496a23.855 23.855 0 0 1 14.372-3.543c1.404.088 2.813.088 4.217 0a4.122 4.122 0 0 0-.2-.499l2.371-2.495 2.844 2.495 1.422-2.495 2.82 1.597a8.58 8.58 0 0 0 3.568-6.787l-160.339.125Zm82.59-92.82v.574h72.534v85.434l5.564 3.968c0-.774.175-1.298.175-1.797.15-28.545.291-57.081.424-85.61 0-1.421-.274-2.819-.374-4.241a2.697 2.697 0 0 0-1.904-2.678 2.695 2.695 0 0 0-1.165-.092h-10.18l-83.713.125h-35.656c-7.486 0-14.971-.35-22.457-.374-4.441 0-5.439 1.098-5.389 5.44 0 8.408.399 16.817.349 25.2 0 7.486-.649 14.971-.723 22.332-.125 13.225 0 26.449 0 39.673 0 .55.124 1.098.199 1.922l4.991-3.668v-4.99c0-10.83.324-21.684.299-32.438 0-12.925-.225-25.875-.275-38.825 0-3.069.375-6.138.574-9.406h3.119c20.511 0 41.021.066 61.531.2 2.895 0 5.789-.275 8.683-.425 0-.174-.124-.374-.199-.549l2.37-2.744 1.397 3.193M748.974 118.301V32.342c0-4.017-.748-4.59-4.741-4.54-13.973.124-27.971.373-41.943.399h-75.779c-1.272 0-2.495-.15-3.867-.175-8.259 0-16.518-.225-24.777-.15-2.495 0-3.344.973-3.543 3.518-.2 2.545-.2 4.99-.225 7.311l-.249 78.548c.052.423.144.841.274 1.247a25.027 25.027 0 0 1 2.745-2.12 4.065 4.065 0 0 0 2.096-4.392c-.2-3.842-.175-7.71-.15-11.577 0-7.486.3-14.971.3-22.457 0-13.224 0-26.424-.175-39.623 0-1.897.299-3.768.499-5.964 23.554.225 46.984.5 70.413 0l-.224-.898 2.495-1.622 1.772 2.72h69.415v82.34l5.589 3.244m-155.374 3.144c-9.132 2.919-16.468 8.883-25.126 13.15 1.896 1.073 185.241 1.372 187.711.524a21.132 21.132 0 0 0-2.121-1.947 15.144 15.144 0 0 0-9.207-1.871c-28.045.424-56.091.923-84.137 1.248-15.819.174-31.638 0-47.408.149-6.313 0-12.625.574-18.938.649a12.82 12.82 0 0 1-5.215-1.273 3.085 3.085 0 0 1-1.447-2.495 3.458 3.458 0 0 1 2.021-2.17 11.886 11.886 0 0 1 4.217-.549c14.522.324 29.043.873 43.565.998 26.432.266 52.848.382 79.247.349 9.157 0 18.289-.898 27.447-1.422a6.745 6.745 0 0 0 1.671-.474v-.549h-26.448c-30.067 0-60.159-.225-90.251-.275-9.98 0-19.811.25-29.717.175a8.353 8.353 0 0 1-3.892-1.797 10.118 10.118 0 0 1-1.797-2.32m7.91 3.144c2.32-.125 4.666-.35 7.036-.325 4.99 0 9.981.3 14.971.3H745.032c1.247 0 2.495.199 2.819 2.245a20.639 20.639 0 0 1-3.892 1.223c-4.442.399-8.908.824-13.374.898-16.568.225-33.136.425-49.704.45-13.449 0-26.898-.2-40.322-.4-16.094-.224-32.187-.599-48.256-.848a15.925 15.925 0 0 0-3.369.599c0 .274-.199.549-.274.823.624.649 1.123 1.672 1.871 1.872 1.559.437 3.172.655 4.791.648 7.485 0 15.195-.399 22.806-.474 28.445-.299 56.889-.499 85.334-.798 14.123-.15 28.246-.474 42.418-.724 4.99 0 9.357.873 12.052 5.465h13.998l.374-.849a12.372 12.372 0 0 0-1.971-1.647c-6.338-3.493-12.676-6.986-19.088-10.379a7.94 7.94 0 0 0-3.568-1.024H683.9c-28.711 0-57.43-.116-86.158-.349-.823 0-1.647 0-3.019.175l2.795 2.944 2.495-1.672 1.672 1.897m227.06 8.583a5.161 5.161 0 0 0 4.616 2.919l12.925 1.248c10.207.992 20.503.555 30.59-1.297a9.84 9.84 0 0 0 6.887-3.718c-1.173-.499-2.121-.973-3.094-1.323a5.412 5.412 0 0 1-4.117-5.364c-.125-2.496-.624-4.991-.998-7.735h-38.276c-.15 1.696-.399 3.443-.449 5.165-.175 5.264-2.495 9.107-7.486 9.706-.174 0-.324.199-.648.399m106.743-34.333c-1.622-1.922-3.069-4.117-5.889-4.117H783.358c-2.995 0-4.567 2.096-6.513 3.643 0 .224.125.424.175.648l158.418-.174Zm74.702 31.489-.4.673c1.03.599 2.12 1.772 3.05 1.622a5.149 5.149 0 0 0 3.49-2.146c.75-1.652 1.1-3.454 1.02-5.265.1-24.086.16-48.148.18-72.185V41.026c0-3.319-1.27-4.666-4.59-4.99h-54.971c-4.641 0-5.739 1.097-5.764 5.738l-.149 66.696c.046.4.138.793.274 1.173.499-4.791.799-9.507.873-14.248.325-16.518.549-33.06.849-49.579 0-1.272.274-2.495.424-3.842.998 0 1.747-.225 2.495-.225 7.261 0 14.522 0 21.783-.224a35.358 35.358 0 0 0 4.441-.574c.424-2.944.899-3.269 2.495-1.996 0 .549.001 1.147-.149 2.046 1.462.248 2.936.415 4.416.499h21.613c3.59 0 3.81.224 3.81 3.792 0 21.093-.04 42.177-.12 63.253 0 5.215 0 10.43-.13 15.644-.12 5.215-.32 5.141-4.99 6.188m-261.989-10.629a8.405 8.405 0 0 0-6.413-3.593h-65.772c-24.952 0-49.904-.083-74.855-.249-2.495 0-3.918 1.821-5.515 3.393 50.927 1.871 101.753 0 152.655.474m260.989 13.249c0-.324 0-.648.18-.973a4.327 4.327 0 0 0-4.22-1.996l-44.187-.15c-2.071 0-4.167-.199-6.537-.324a18.234 18.234 0 0 1-.474-2.795c0-4.216 0-8.408-.125-12.475v-2.745a37.96 37.96 0 0 0-2.071 15.62c0 4.167 1.996 5.988 6.138 5.988h51.296M903.425 113.86v.573H924.484c2.645 0 5.29.15 7.935 0 1.796 0 3.792-.474 4.117-2.495a43.291 43.291 0 0 0 0-6.737 8.511 8.511 0 0 1-9.507 3.743 2.216 2.216 0 0 0-.399 0 61.18 61.18 0 0 1-9.482.724c-5.339-.35-9.431 2.495-13.948 4.216m-146.84 23.305c-42.119-.524-84.237-1.497-126.33 0h126.33Zm-199.239-38.2h.524V58.017a5.598 5.598 0 0 0-1.677-4.16 5.615 5.615 0 0 0-4.187-1.604c-7.635-.225-15.295-.4-22.955-.474-2.009.089-4.01.314-5.989.673v.524h8.634c6.637 0 13.299 0 19.961.125a5.566 5.566 0 0 1 5.639 5.939c0 5.764.175 11.502.2 17.266v22.731m-39.923 14.971h-.524c0 4.167-.225 8.359 0 12.476a7.49 7.49 0 0 0 2.006 4.487 7.49 7.49 0 0 0 4.357 2.275 133.715 133.715 0 0 0 15.145 1.173 55.63 55.63 0 0 0 9.357-1.473v-.548H528.227a10.728 10.728 0 0 1-8.808-3.419c-2.495-3.019-2.495-6.612-2.296-10.205 0-1.547.175-3.069.25-4.591m253.658 24.951h-11.153a8.834 8.834 0 0 0 8.359 3.144 3.267 3.267 0 0 0 2.794-3.144Zm-213.686-26.773c-.224 2.995-.773 7.286-.748 11.578.025 4.292-1.123 7.485-5.24 9.032 0 0-.125.225-.175.325a5.417 5.417 0 0 0 6.089-4.641c.224-5.839 0-11.703 0-16.294m303.162 4.991v-.424h-17.566v.424h17.566Zm-101.304 19.961v.399h12.002a2.046 2.046 0 0 0 0-.399h-12.002Zm75.853.749-.149.623 14.572 1.223v-.599l-14.472-1.247" fill="#fff"/><path d="M877.725 116.23a21.338 21.338 0 0 0 .199 10.654c.25 1.023 1.622 1.897 2.645 2.495 1.122.47 2.272.87 3.443 1.198 2.496 1.073 2.745 3.319.524 4.691a25.603 25.603 0 0 1-5.788 2.495c-2.096.649-4.292 1.048-6.987 1.672.568.132 1.143.232 1.722.299 11.053-.299 22.132-.349 33.186-.998 10.28-.574 20.535-1.771 30.79-2.744a8.968 8.968 0 0 0 7.136-4.991c2.321-4.242 4.192-8.733 6.138-13.174a7.49 7.49 0 0 0 .3-3.019V41.2c0-4.74 1.996-6.537 6.786-6.512l38.9.175h16.091a5.536 5.536 0 0 1 4.21 1.65 5.56 5.56 0 0 1 1.56 4.238v83.788c.2 1.443.11 2.914-.27 4.321a10.796 10.796 0 0 1-1.95 3.863c-.35.374-.33 1.123-.55 2.021-.81.307-1.65.525-2.5.649-7.86.399-15.718.748-23.577 1.098-4.267.199-8.534.349-12.801.823 7.062 0 14.123.175 21.184 0 8.454-.274 16.944-.973 25.404-1.297 2.87.022 5.73.205 8.58.548v.699c-1.6 0-5.87.24-7.1.236-7.49.299-11.54.313-19.02.538-8.937.299-17.886.499-26.852.598-4.267 0-8.558-.199-12.825-.374a24.272 24.272 0 0 1-4.017-.549c-.524-.124-.948-.648-1.423-.998l.15-.748c1.398-.15 2.82-.4 4.242-.425a4186.23 4186.23 0 0 1 32.312-.274v-.749H957.77a5.98 5.98 0 0 1-6.338-4.02 5.99 5.99 0 0 1-.275-2.667 19.297 19.297 0 0 0-.449-4.84c-.249.524-.499 1.073-.798 1.597a65.771 65.771 0 0 1-3.593 6.337 16.314 16.314 0 0 1-12.476 6.912 569.98 569.98 0 0 1-72.959 3.094 216.21 216.21 0 0 1-19.712-.898 26.981 26.981 0 0 1-12.725-3.768c-.898-.599-1.996-2.121-1.771-2.819a4.262 4.262 0 0 1 2.794-2.046c3.967-.974 5.614-2.496 6.088-6.538.325-2.944.499-5.913.774-9.182h-55.567c-4.142 0-5.839-1.597-5.864-5.739 0-11.103 0-22.232-.15-33.335.054-.831.054-1.665 0-2.495-3.244 9.506-4.067 42.692-1.597 58.436 3.843 3.469 3.843 3.469 3.843 4.766l-4.117 1.248c-1.971 5.489-8.958 6.437-14.971-.3h-3.044c-35.382 0-70.771-.05-106.17-.15-27.147 0-54.319-.299-81.467-.474a21.071 21.071 0 0 1-3.443-.524 137.234 137.234 0 0 1-33.809 1.797v-.948l14.971-.474a2.32 2.32 0 0 0 0-.425h-11.902c-3.469 0-6.937.175-10.38 0a10.365 10.365 0 0 1-3.094-1.222v-.774l3.044-1.222c-4.741-1.547-6.238-5.14-7.086-9.981a21.86 21.86 0 0 1-8.139 9.657C503.784 135.87 500 138 495.5 137c4 0 7.781-1.891 9-2.5 1-.5 4.179-1.913 6.723-5.002a18.39 18.39 0 0 0 4.179-10.923c.449-12.051.649-24.103.673-36.155 0-4.416-1.122-8.857-1.122-13.299a80.776 80.776 0 0 1 1.347-12.476 8.31 8.31 0 0 1 8.334-5.988c8.933-.1 17.882-.1 26.848 0 4.566 0 7.236 2.994 7.311 8.034.124 7.486 0 15.171 0 22.781-.1 14.971-.225 29.942-.375 44.913a6.293 6.293 0 0 1-1.243 4.653 6.297 6.297 0 0 1-4.171 2.409 132.112 132.112 0 0 1-13.249 1.746c-2.221.2-4.492 0-6.712.449h20.21c-.399.849-.623 1.323-.823 1.797a23.807 23.807 0 0 0 14.522-3.743c5.414-3.094 10.829-6.188 16.293-9.207 3.069-1.697 6.213-3.219 9.557-4.99V41.824c0-3.718.174-7.485.324-11.178a4.148 4.148 0 0 1 1.218-3.354 4.138 4.138 0 0 1 3.373-1.163c8.758 0 17.466.3 26.224.325 7.211 0 14.398-.275 21.584-.25 15.819 0 31.638.35 47.408.35 17.042 0 34.084-.3 51.126-.424 4.416 0 5.788 1.047 5.863 5.34.2 11.643.283 23.238.25 34.782 0 17.69-.25 35.381-.399 53.072v1.148a102.3 102.3 0 0 0 21.533 11.428c-.3-4.192-.599-8.01-.849-11.803-.894-11.7-.626-23.46.799-35.107a301.649 301.649 0 0 0 3.443-43.465c-.149-11.403.375-22.781.25-34.16 0-4.865 2.495-6.287 6.313-6.337 6.562-.125 13.149.2 19.736.3 8.808 0 17.641.25 26.474.299 14.971.125 30.142.3 45.212.25 18.14 0 36.255-.4 54.395-.6h6.113c3.044.175 4.317 1.273 4.716 4.292.275 2.218.4 4.452.374 6.687v66.496c0 10.23-.249 20.46-.374 30.691 0 3.868-1.871 5.539-6.188 5.539h-20.161c-8.883 0-17.79.25-26.673.424-2.146.375-4.566.649-7.161.824Zm52.398-22.706V9.362h-8.084l-51.326-.45H859.31c-1.197 0-2.495-.498-3.593-.448-4.316.2-8.633.798-12.95.773-19.212 0-38.425-.174-57.638-.274a21.23 21.23 0 0 0-2.495.25v84.36l147.489-.05ZM600.337 33.64v81.242h141.9V34.089c-.499 0-.973-.175-1.422-.175-20.835 0-41.694 0-62.529-.25H663.59c-18.539.2-37.079 0-55.618-.199l-7.635.175Zm354.538 94.392c.607.154 1.224.263 1.847.324l33.784-.623a63.896 63.896 0 0 1 16.594.923c2.27.241 4.56.241 6.84 0V42.523h-4.55c-7.46-.1-14.95-.233-22.452-.4-1.248 0-2.495-.399-3.743-.324-1.821 0-3.618.674-5.414.699-6.712.15-13.424.15-20.161.2-.849 0-1.697.15-2.82.249l.075 85.085ZM535.862 53.676h-11.078c-4.567.125-6.238 1.996-6.263 6.612v34.758c0 2.17-.175 4.317-.175 6.487v12.476c0 3.019-.374 6.088-.15 9.108a7.334 7.334 0 0 0 6.737 7.211c1.654.252 3.32.418 4.991.499 7.231.72 14.524.527 21.708-.574 2.694-.449 3.618-1.173 3.767-3.643.449-7.186 1.048-14.347 1.198-21.509.2-10.355.15-20.734 0-31.09 0-5.264-.275-10.529-.499-15.794a4.017 4.017 0 0 0-3.743-4.142c-4.316-.174-8.633 0-12.65 0-.774 1.123-1.348 1.922-1.897 2.745h-.773c-.3-1.148-.574-1.871-1.173-3.144Zm240.135 46.535v10.48c0 2.744.973 3.618 3.718 3.618h114.029c3.874.097 7.713-.76 11.178-2.496a23.855 23.855 0 0 1 14.372-3.543c1.404.088 2.813.088 4.217 0a4.122 4.122 0 0 0-.2-.499l2.371-2.495 2.844 2.495 1.422-2.495 2.82 1.597a8.58 8.58 0 0 0 3.568-6.787l-160.339.125Zm82.59-92.82v.574h72.534v85.434l5.564 3.968c0-.774.175-1.298.175-1.797.15-28.545.291-57.081.424-85.61 0-1.421-.274-2.819-.374-4.241a2.697 2.697 0 0 0-1.904-2.678 2.695 2.695 0 0 0-1.165-.092h-10.18l-83.713.125h-35.656c-7.486 0-14.971-.35-22.457-.374-4.441 0-5.439 1.098-5.389 5.44 0 8.408.399 16.817.349 25.2 0 7.486-.649 14.971-.723 22.332-.125 13.225 0 26.449 0 39.673 0 .55.124 1.098.199 1.922l4.991-3.668v-4.99c0-10.83.324-21.684.299-32.438 0-12.925-.225-25.875-.275-38.825 0-3.069.375-6.138.574-9.406h3.119c20.511 0 41.021.066 61.531.2 2.895 0 5.789-.275 8.683-.425 0-.174-.124-.374-.199-.549l2.37-2.744 1.223 2.969ZM748.799 118.076V32.118c0-4.017-.748-4.591-4.74-4.541-13.973.124-27.971.374-41.944.399h-75.778c-1.273 0-2.495-.15-3.868-.175-8.259 0-16.518-.224-24.777-.15-2.495 0-3.343.974-3.543 3.519-.199 2.545-.199 4.99-.224 7.31l-.075 78.773c.052.423.144.841.274 1.247a25.027 25.027 0 0 1 2.745-2.12 4.065 4.065 0 0 0 2.096-4.392c-.2-3.842-.175-7.71-.15-11.577 0-7.486.3-14.972.3-22.457 0-13.224 0-26.424-.175-39.623 0-1.897.299-3.768.499-5.964 23.554.225 46.984.5 70.413 0l-.224-.898 2.495-1.622 1.772 2.72h69.415v82.34l5.489 3.169Zm-155.373 3.144c-9.133 2.92-16.469 8.883-25.127 13.15 1.897 1.073 185.241 1.372 187.711.524a21.23 21.23 0 0 0-2.12-1.947 15.148 15.148 0 0 0-9.208-1.871c-28.045.424-56.091.923-84.136 1.248-15.82.174-31.639 0-47.409.149-6.312 0-12.625.574-18.938.649a12.818 12.818 0 0 1-5.215-1.272 3.088 3.088 0 0 1-1.447-2.496 3.458 3.458 0 0 1 2.021-2.17 11.886 11.886 0 0 1 4.217-.549c14.522.324 29.044.873 43.565.998 26.433.266 52.848.382 79.247.349 9.157 0 18.289-.898 27.447-1.422a6.702 6.702 0 0 0 1.671-.474v-.549h-26.448c-30.067 0-60.159-.225-90.25-.275-9.981 0-19.812.25-29.718.175a8.356 8.356 0 0 1-3.892-1.796 10.152 10.152 0 0 1-1.847-2.421h-.124Zm7.909 3.144c2.321-.125 4.666-.349 7.037-.324 4.99 0 9.98.299 14.971.299H744.757c1.248 0 2.495.2 2.82 2.246a20.646 20.646 0 0 1-3.893 1.222c-4.441.4-8.907.824-13.374.899-16.568.224-33.136.424-49.703.449-13.449 0-26.898-.2-40.322-.399-16.094-.225-32.188-.599-48.257-.849-1.141.078-2.27.279-3.368.599 0 .275-.2.549-.275.824.624.648 1.123 1.671 1.872 1.871 1.559.437 3.171.655 4.79.649 7.486 0 15.196-.4 22.806-.474 28.445-.3 56.89-.499 85.335-.799 14.123-.15 28.245-.474 42.418-.724 4.99 0 9.357.874 12.051 5.465h13.998l.374-.848a12.233 12.233 0 0 0-1.971-1.647c-6.337-3.493-12.675-6.987-19.088-10.38a7.932 7.932 0 0 0-3.568-1.023h-63.776c-28.711 0-57.431-.117-86.158-.349-.824 0-1.647 0-3.019.174l2.794 2.944 2.495-1.671 1.597 1.846Zm227.06 8.583a5.164 5.164 0 0 0 4.616 2.92l12.925 1.247c10.208.992 20.504.556 30.591-1.297a9.834 9.834 0 0 0 6.887-3.718c-1.173-.499-2.121-.973-3.094-1.322a5.415 5.415 0 0 1-4.117-5.365c-.125-2.495-.624-4.99-.998-7.735h-37.927c-.15 1.697-.399 3.443-.449 5.165-.175 5.265-2.495 9.107-7.486 9.706-.249.025-.399.2-.723.474l-.225-.075Zm107.043-34.108c-1.622-1.922-3.069-4.117-5.889-4.117H783.358c-2.995 0-4.567 2.096-6.513 3.643 0 .224.125.424.175.648l158.418-.174Zm74.702 31.489-.4.673c1.03.599 2.12 1.772 3.05 1.622a5.149 5.149 0 0 0 3.49-2.146c.75-1.652 1.1-3.454 1.02-5.265.1-24.086.16-48.148.18-72.185V41.026c0-3.319-1.27-4.666-4.59-4.99h-54.971c-4.641 0-5.739 1.097-5.764 5.738l-.149 66.696c.046.4.138.793.274 1.173.499-4.791.799-9.507.873-14.248.325-16.518.549-33.06.849-49.579 0-1.272.274-2.495.424-3.842.998 0 1.747-.225 2.495-.225 7.261 0 14.522 0 21.783-.224a35.358 35.358 0 0 0 4.441-.574c.424-2.944.899-3.269 2.495-1.996 0 .549 0 1.147-.149 2.046 1.462.248 2.936.415 4.416.499h21.613c3.59 0 3.81.224 3.81 3.792 0 21.093-.04 42.177-.12 63.253 0 5.215 0 10.43-.13 15.644-.12 5.215-.32 5.091-4.94 6.139Zm-261.989-10.63a8.405 8.405 0 0 0-6.413-3.593h-65.772c-24.952 0-49.904-.083-74.855-.249-2.495 0-3.918 1.821-5.515 3.393 50.777 1.846 101.603-.05 152.505.449h.05Zm261.039 13.324c0-.324 0-.648.18-.973a4.327 4.327 0 0 0-4.22-1.996l-44.187-.15c-2.071 0-4.167-.199-6.537-.324a18.234 18.234 0 0 1-.474-2.795c0-4.216 0-8.408-.125-12.475v-2.745a37.96 37.96 0 0 0-2.071 15.62c0 4.167 1.996 5.988 6.138 5.988h51.296v-.15ZM903.425 113.71v.574H924.484c2.645 0 5.29.149 7.935 0 1.796 0 3.792-.474 4.117-2.495a43.291 43.291 0 0 0 0-6.737 8.511 8.511 0 0 1-9.507 3.742 2.216 2.216 0 0 0-.399 0 61.18 61.18 0 0 1-9.482.724c-5.115-.424-9.207 2.395-13.723 4.142v.05Zm-146.841 23.305c-42.118-.524-84.236-1.497-126.33 0h126.33ZM557.345 98.814h.524V57.843a5.61 5.61 0 0 0-5.863-5.764c-7.635-.224-15.296-.399-22.956-.474a44.442 44.442 0 0 0-5.988.674v.524h8.409c6.637 0 13.299 0 19.961.125a5.564 5.564 0 0 1 5.639 5.938c0 5.764.175 11.503.2 17.267.124 7.485.074 15.045.074 22.63v.05Zm-39.922 14.971h-.524c0 4.167-.225 8.358 0 12.475a7.485 7.485 0 0 0 6.363 6.762c5.022.678 10.078 1.07 15.145 1.173a55.629 55.629 0 0 0 9.357-1.472v-.549H528.302a10.741 10.741 0 0 1-4.801-.687 10.743 10.743 0 0 1-4.007-2.731c-2.495-3.02-2.495-6.613-2.296-10.206.05-1.846.15-3.368.225-4.89v.125Zm253.658 24.951h-11.153a8.828 8.828 0 0 0 8.359 3.144 3.264 3.264 0 0 0 2.719-3.268l.075.124Zm-213.686-26.773c-.224 2.994-.773 7.286-.748 11.578.025 4.291-1.123 7.485-5.24 9.032 0 0-.125.225-.175.325a5.417 5.417 0 0 0 6.089-4.641c.224-5.964.074-11.828.074-16.419v.125Zm303.163 4.99v-.424h-17.691v.424h17.691Zm-101.304 19.962v.399h12.002a2.046 2.046 0 0 0 0-.399h-12.002Zm75.853.748-.149.624 14.571 1.223v-.599l-14.422-1.248Z" stroke="#fff" stroke-width=".25" stroke-miterlimit="10"/><path d="M498 137.05H0" stroke="#fff" stroke-width=".65" stroke-miterlimit="10"/><path d="m1533 138.05-501-1" stroke="#fff" stroke-width=".67" stroke-miterlimit="10"/></svg>