<svg width="2138" height="200" viewBox="0 0 2138 200" fill="none" xmlns="http://www.w3.org/2000/svg"><path d="M694.394 190.703H0" stroke="#fff" stroke-width=".906" stroke-miterlimit="10"/><path d="M1223.87 161.673a29.671 29.671 0 0 0 .28 14.856c.35 1.426 2.26 2.644 3.69 3.479 1.56.655 3.16 1.213 4.8 1.67 3.48 1.496 3.82 4.627.73 6.541a35.905 35.905 0 0 1-8.07 3.479c-2.93.904-5.99 1.461-9.75 2.331.8.184 1.6.323 2.41.417 15.41-.417 30.86-.487 46.27-1.391 14.33-.8 28.63-2.47 42.93-3.827 2.11-.218 4.14-.971 5.88-2.189a12.494 12.494 0 0 0 4.07-4.77c3.24-5.914 5.85-12.177 8.56-18.37.43-1.36.57-2.792.42-4.209V57.054c0-6.61 2.78-9.116 9.46-9.08l54.24.243h22.44a7.683 7.683 0 0 1 5.86 2.302 7.607 7.607 0 0 1 1.72 2.721c.38 1.019.53 2.105.46 3.188V173.258c.29 2.013.16 4.064-.37 6.026a14.838 14.838 0 0 1-2.73 5.386c-.48.522-.45 1.566-.76 2.818-1.13.428-2.29.732-3.48.905-10.96.556-21.92 1.043-32.88 1.531-5.95.278-11.9.487-17.85 1.148 9.85 0 19.69.243 29.54 0 11.79-.383 23.62-1.357 35.42-1.81 4.38-.167 20.19.675 25.77 1.372l-13.8.368c-2.2 0-4.71.335-6.42.329-10.44.417-19.57.436-30.01.75-12.46.417-24.93.695-37.44.835-5.95 0-11.93-.279-17.88-.522a33.914 33.914 0 0 1-5.6-.766c-.73-.174-1.32-.904-1.98-1.391l.2-1.044c1.95-.209 3.94-.557 5.92-.592 15.01-.185 30.02-.313 45.05-.382v-1.044h-55.49a8.344 8.344 0 0 1-6.87-2.427 8.358 8.358 0 0 1-1.97-3.179 8.522 8.522 0 0 1-.38-3.718c.08-2.267-.13-4.535-.62-6.75-.35.731-.7 1.496-1.12 2.227a90.994 90.994 0 0 1-5.01 8.837 22.696 22.696 0 0 1-7.59 6.82 22.708 22.708 0 0 1-9.8 2.817 794.849 794.849 0 0 1-101.73 4.314c-9.19 0-18.37-.417-27.49-1.252a37.575 37.575 0 0 1-17.74-5.254c-1.26-.835-2.79-2.957-2.47-3.931.41-.722.97-1.348 1.64-1.84a5.968 5.968 0 0 1 2.25-1.013c5.53-1.357 7.83-3.479 8.49-9.115.45-4.106.7-8.246 1.08-12.804h-77.48c-5.78 0-8.14-2.226-8.18-8.002 0-15.482 0-30.999-.21-46.482.08-1.158.08-2.32 0-3.479-4.52 13.256-5.67 59.529-2.22 81.482 5.36 4.836 5.36 4.837 5.36 6.646l-5.75 1.739c-2.74 7.654-12.49 8.977-20.87-.417h-4.24c-49.34 0-98.686-.07-148.044-.209-37.853 0-75.741-.417-113.595-.661a29.508 29.508 0 0 1-4.801-.731 191.343 191.343 0 0 1-47.143 2.505v-1.322l20.875-.661a3.071 3.071 0 0 0 0-.591h-16.595c-4.836 0-9.672.243-14.474 0a14.474 14.474 0 0 1-4.314-1.705v-1.079l4.245-1.704c-6.611-2.157-8.698-7.167-9.881-13.917a30.479 30.479 0 0 1-11.349 13.465c-5.025 3.274-10.998 6.244-17.273 4.85 3.486 0 5.578-.697 8.367-1.395 4.88-1.394 10.707-4.759 14.254-9.066a25.639 25.639 0 0 0 5.827-15.23c.626-16.804.904-33.609.939-50.413 0-6.158-1.565-12.351-1.565-18.544.174-5.839.802-11.655 1.878-17.396a11.59 11.59 0 0 1 11.621-8.35c12.455-.14 24.934-.14 37.436 0 6.367 0 10.089 4.175 10.194 11.203.174 10.438 0 21.153 0 31.765-.14 20.875-.313 41.75-.522 62.625a8.776 8.776 0 0 1-4.308 8.746 8.766 8.766 0 0 1-3.242 1.1 183.728 183.728 0 0 1-18.474 2.435c-3.097.279-6.263 0-9.359.627h28.181c-.557 1.183-.87 1.844-1.148 2.505a33.195 33.195 0 0 0 20.249-5.219c7.549-4.314 15.099-8.628 22.719-12.838 4.279-2.366 8.663-4.488 13.325-6.959V57.924c0-5.184.243-10.438.452-15.587a5.777 5.777 0 0 1 6.402-6.297c12.212 0 24.354.417 36.566.452 10.055 0 20.075-.383 30.095-.348 22.058 0 44.116.487 66.104.487 23.763 0 47.528-.417 71.288-.591 6.16 0 8.07 1.461 8.18 7.445.27 16.236.39 32.403.34 48.5 0 24.667-.34 49.334-.55 74.002v1.6a142.835 142.835 0 0 0 30.02 15.935c-.41-5.845-.83-11.168-1.18-16.457a247.966 247.966 0 0 1 1.11-48.952 419.742 419.742 0 0 0 4.8-60.607c-.2-15.9.53-31.765.35-47.63 0-6.784 3.48-8.767 8.8-8.837 9.15-.174 18.34.279 27.52.418 12.29 0 24.6.348 36.92.417 20.87.174 42.03.418 63.04.348 25.3 0 50.55-.557 75.85-.835h8.52c4.25.244 6.02 1.775 6.58 5.984.38 3.093.56 6.208.52 9.324v92.72c0 14.265-.35 28.53-.52 42.794 0 5.393-2.61 7.724-8.63 7.724h-28.11c-12.39 0-24.81.348-37.2.592-3.47 0-6.74.487-10.43.73m73.06-31.66V12.66h-11.27l-71.57-.627h-15.9c-1.67 0-3.48-.695-5.01-.626-6.02.278-12.04 1.114-18.06 1.079-26.79 0-53.58-.244-80.36-.383-1.17.047-2.33.164-3.48.348v117.631l205.65-.487Zm-459.842-83.5v113.281H1034.5V47.138c-.7 0-1.36-.243-1.98-.243-29.06 0-58.142 0-87.193-.348h-20.492c-25.851.278-51.701 0-77.551-.278h-10.646m494.812 131.86c.84.215 1.7.366 2.57.452l47.11-.869c7.73-.58 15.51-.147 23.13 1.287 3.17.336 6.37.336 9.54 0V58.898h-6.33a3552.4 3552.4 0 0 1-31.32-.557c-1.74 0-3.48-.556-5.22-.452-2.54 0-5.04.94-7.55.974-9.35.209-18.71.209-28.11.278-1.18 0-2.36.21-3.93.348l.11 118.64ZM747.188 74.449h-15.447c-6.367.175-8.698 2.784-8.733 9.22v48.465c0 3.027-.244 6.019-.244 9.046v17.396c0 4.21-.522 8.489-.209 12.699a10.23 10.23 0 0 0 9.394 10.055c2.306.352 4.629.584 6.959.696a120.796 120.796 0 0 0 30.268-.8c3.758-.627 5.045-1.636 5.254-5.08.626-10.02 1.461-20.005 1.67-29.99.278-14.439.209-28.912 0-43.351 0-7.341-.383-14.682-.696-22.023a5.601 5.601 0 0 0-5.219-5.775c-6.019-.244-12.038 0-17.639 0-1.079 1.565-1.879 2.678-2.644 3.827h-1.079c-.487-1.149-.939-2.297-1.704-4.071m334.901 64.573v14.613c0 3.827 1.36 5.045 5.19 5.045h159c5.4.136 10.75-1.059 15.58-3.479a33.269 33.269 0 0 1 20.04-4.941c1.96.122 3.92.122 5.88 0-.08-.238-.17-.47-.28-.696l3.31-3.479 3.97 3.479 1.98-3.479 3.93 2.227a11.889 11.889 0 0 0 3.6-4.145 11.907 11.907 0 0 0 1.38-5.319l-223.58.174ZM1197.18 9.911v.8h101.14v119.127l7.76 5.532c0-1.078.25-1.809.25-2.505.2-39.802.4-79.592.59-119.37 0-1.983-.39-3.932-.52-5.915.02-.55-.08-1.096-.3-1.603-.21-.506-.53-.96-.94-1.328a3.748 3.748 0 0 0-1.42-.803 3.736 3.736 0 0 0-1.62-.128h-14.2l-116.73.174h-49.71c-10.44 0-20.88-.487-31.32-.522-6.19 0-7.58 1.531-7.51 7.585 0 11.725.56 23.45.49 35.14 0 10.437-.91 20.875-1.01 31.138-.18 18.44 0 36.879 0 55.319 0 .765.17 1.531.28 2.679l6.95-5.114v-6.959c0-15.099.46-30.234.42-45.229 0-18.022-.31-36.08-.38-54.136 0-4.28.52-8.559.8-13.116h4.35c28.6 0 57.2.092 85.8.278 4.03 0 8.07-.383 12.1-.592 0-.243-.17-.521-.28-.765l3.31-3.827 1.95 4.453M1044.34 164.56V44.703c0-5.602-1.04-6.402-6.61-6.332-19.48.174-38.998.522-58.481.556H873.586c-1.774 0-3.479-.208-5.392-.243-11.516 0-23.032-.313-34.548-.209-3.48 0-4.663 1.357-4.941 4.906-.278 3.548-.278 6.958-.313 10.194l-.348 109.524c.073.591.201 1.173.383 1.74a34.667 34.667 0 0 1 3.827-2.958 5.674 5.674 0 0 0 2.922-6.123c-.278-5.358-.243-10.751-.208-16.143 0-10.438.417-20.875.417-31.313 0-18.44 0-36.844-.243-55.25 0-2.643.417-5.253.695-8.314 32.844.313 65.513.696 98.183 0l-.313-1.253 3.479-2.261 2.47 3.792h96.794v114.813l7.79 4.523m-216.648 4.383c-12.734 4.071-22.963 12.386-35.035 18.336 2.644 1.496 258.293 1.913 261.733.73-.92-.97-1.91-1.877-2.95-2.713a21.128 21.128 0 0 0-12.84-2.61c-39.107.592-78.213 1.287-117.319 1.74-22.057.243-44.115 0-66.104.208-8.802 0-17.604.801-26.407.905-2.522-.072-5-.677-7.271-1.774a4.312 4.312 0 0 1-2.018-3.48 4.84 4.84 0 0 1 2.818-3.026 16.595 16.595 0 0 1 5.88-.766c20.249.452 40.497 1.218 60.746 1.392 36.856.371 73.689.533 110.499.487 12.766 0 25.506-1.253 38.266-1.983a9.436 9.436 0 0 0 2.34-.661v-.766h-36.88c-41.928 0-83.886-.313-125.845-.382-13.917 0-27.625.348-41.437.243a11.656 11.656 0 0 1-5.428-2.505 14.156 14.156 0 0 1-2.505-3.235m11.029 4.383c3.236-.174 6.506-.487 9.812-.452 6.958 0 13.916.418 20.875.418H1038.85c1.74 0 3.48.278 3.93 3.131a28.9 28.9 0 0 1-5.43 1.705c-6.19.556-12.42 1.148-18.65 1.252-23.099.313-46.201.592-69.302.626-18.753 0-37.506-.278-56.224-.556-22.44-.313-44.881-.835-67.287-1.183a22.164 22.164 0 0 0-4.697.835c0 .382-.278.765-.383 1.148.87.904 1.566 2.331 2.61 2.609 2.174.61 4.422.914 6.68.905 10.437 0 21.188-.557 31.799-.661 39.663-.418 79.326-.696 118.988-1.114 19.696-.208 39.386-.661 59.146-1.009 6.96 0 13.05 1.218 16.8 7.62h19.52l.52-1.183a17.09 17.09 0 0 0-2.74-2.296c-8.84-4.871-17.68-9.742-26.62-14.474a11.059 11.059 0 0 0-4.97-1.426h-88.933c-40.033 0-80.079-.162-120.135-.487-1.149 0-2.297 0-4.21.243l3.896 4.106 3.48-2.331 2.331 2.644m316.601 11.968a7.234 7.234 0 0 0 2.64 2.956 7.2 7.2 0 0 0 3.8 1.115l18.02 1.739c14.24 1.384 28.59.775 42.66-1.809 1.87-.16 3.68-.703 5.34-1.595a13.71 13.71 0 0 0 4.26-3.589c-1.64-.696-2.96-1.357-4.31-1.844a7.571 7.571 0 0 1-4.19-2.733 7.598 7.598 0 0 1-1.56-4.747c-.17-3.479-.87-6.958-1.39-10.785h-53.37c-.21 2.366-.55 4.801-.62 7.202-.25 7.341-3.48 12.699-10.44 13.534-.25 0-.45.278-.91.556m148.84-47.873c-2.26-2.679-4.28-5.741-8.21-5.741H1092.29c-4.18 0-6.37 2.923-9.08 5.08 0 .313.17.591.24.904l220.89-.243Zm104.17 43.907-.56.939c1.43.835 2.96 2.471 4.25 2.262a7.224 7.224 0 0 0 4.87-2.992 16.133 16.133 0 0 0 1.42-7.341c.14-33.586.22-67.137.25-100.653V56.81c0-4.627-1.78-6.506-6.4-6.958H1335.69c-6.47 0-8 1.53-8.04 8.002l-.21 92.998c.07.558.2 1.107.39 1.636.69-6.68 1.11-13.256 1.22-19.866.45-23.033.76-46.1 1.18-69.132 0-1.774.38-3.479.59-5.358 1.39 0 2.43-.313 3.48-.313 10.12 0 20.25 0 30.37-.313 2.08-.135 4.15-.403 6.19-.8.6-4.105 1.26-4.558 3.48-2.783 0 .765 0 1.6-.2 2.853 2.03.346 4.09.578 6.15.695h30.13c5.01 0 5.33.314 5.33 5.289 0 29.41-.06 58.809-.18 88.197 0 7.271 0 14.543-.17 21.814-.18 7.272-.45 7.167-6.96 8.629m-365.31-14.822a11.788 11.788 0 0 0-3.9-3.533 11.714 11.714 0 0 0-5.04-1.477h-91.716c-34.792 0-69.583-.116-104.375-.348-3.479 0-5.462 2.54-7.689 4.732 71.01 2.609 141.881 0 212.86.661m363.92 18.475c0-.453 0-.905.24-1.357a6.028 6.028 0 0 0-2.53-2.255 6.032 6.032 0 0 0-3.35-.529l-61.62-.208c-2.88 0-5.81-.279-9.11-.453-.32-1.28-.54-2.582-.66-3.896 0-5.88 0-11.725-.18-17.396v-3.827a53.03 53.03 0 0 0-2.88 21.779c0 5.81 2.78 8.35 8.56 8.35h71.53m-147.48-26.929v.801h29.36c3.69 0 7.38.208 11.06 0 2.51 0 5.29-.661 5.74-3.48.25-3.126.25-6.267 0-9.393a11.817 11.817 0 0 1-5.75 4.82 11.869 11.869 0 0 1-7.5.398 3.08 3.08 0 0 0-.56 0 84.98 84.98 0 0 1-13.22 1.009c-7.44-.487-13.15 3.48-19.45 5.88m-204.75 32.496c-58.726-.731-117.454-2.088-176.148 0h176.148Zm-277.809-53.266h.73V80.504a7.827 7.827 0 0 0-8.176-8.037c-10.646-.313-21.327-.557-32.008-.661a61.967 61.967 0 0 0-8.35.939v.73h12.038c9.254 0 18.544 0 27.833.175a7.755 7.755 0 0 1 7.421 5.126 7.764 7.764 0 0 1 .442 3.154c0 8.037.244 16.039.278 24.076v31.695m-55.666 20.875h-.731c0 5.81-.313 11.655 0 17.396a10.437 10.437 0 0 0 8.872 9.429 186.313 186.313 0 0 0 21.118 1.635c4.4-.312 8.765-.999 13.047-2.053v-.765h-27.137a14.973 14.973 0 0 1-12.282-4.767c-3.479-4.21-3.479-9.22-3.201-14.23 0-2.157.244-4.279.348-6.401m353.693 34.791h-15.55a12.312 12.312 0 0 0 11.65 4.384 4.533 4.533 0 0 0 2.75-1.482 4.572 4.572 0 0 0 1.15-2.902ZM777.144 156.28c-.313 4.175-1.079 10.159-1.044 16.143.035 5.984-1.566 10.438-7.306 12.595 0 0-.174.313-.244.452a7.55 7.55 0 0 0 8.489-6.471c.313-8.141 0-16.317 0-22.719m422.721 6.958v-.591h-24.49v.591h24.49Zm-141.26 27.834v.556h16.74c.02-.185.02-.371 0-.556h-16.74Zm105.77 1.043-.21.87 20.32 1.705v-.835l-20.18-1.74" fill="#fff"/><path d="M1223.87 161.673a29.671 29.671 0 0 0 .28 14.856c.35 1.426 2.26 2.644 3.69 3.479 1.56.655 3.16 1.213 4.8 1.67 3.48 1.496 3.82 4.627.73 6.541a35.905 35.905 0 0 1-8.07 3.479c-2.93.904-5.99 1.461-9.75 2.331.8.184 1.6.323 2.41.417 15.41-.417 30.86-.487 46.27-1.391 14.33-.8 28.63-2.47 42.93-3.827 2.11-.218 4.14-.971 5.88-2.189a12.494 12.494 0 0 0 4.07-4.77c3.24-5.914 5.85-12.177 8.56-18.37.43-1.36.57-2.792.42-4.209V57.054c0-6.61 2.78-9.116 9.46-9.08l54.24.243h22.44a7.683 7.683 0 0 1 5.86 2.302 7.607 7.607 0 0 1 1.72 2.721c.38 1.019.53 2.105.46 3.188V173.258c.29 2.013.16 4.064-.37 6.026a14.838 14.838 0 0 1-2.73 5.386c-.48.522-.45 1.566-.76 2.818-1.13.428-2.29.732-3.48.905-10.96.556-21.92 1.043-32.88 1.531-5.95.278-11.9.487-17.85 1.148 9.85 0 19.69.243 29.54 0 11.79-.383 23.62-1.357 35.42-1.81 4 .031 7.99.287 11.97.766v.974c-2.24 0-8.2.335-9.9.329-10.44.417-16.09.436-26.53.75-12.46.417-24.93.695-37.44.835-5.95 0-11.93-.279-17.88-.522a33.914 33.914 0 0 1-5.6-.766c-.73-.174-1.32-.904-1.98-1.391l.2-1.044c1.95-.209 3.94-.557 5.92-.592 15.01-.185 30.02-.313 45.05-.382v-1.044h-55.49a8.344 8.344 0 0 1-6.87-2.427 8.358 8.358 0 0 1-1.97-3.179 8.522 8.522 0 0 1-.38-3.718c.08-2.267-.13-4.535-.62-6.75-.35.731-.7 1.496-1.12 2.227a90.994 90.994 0 0 1-5.01 8.837 22.696 22.696 0 0 1-7.59 6.82 22.708 22.708 0 0 1-9.8 2.817 794.849 794.849 0 0 1-101.73 4.314c-9.19 0-18.37-.417-27.49-1.252a37.575 37.575 0 0 1-17.74-5.254c-1.26-.835-2.79-2.957-2.47-3.931.41-.722.97-1.348 1.64-1.84a5.968 5.968 0 0 1 2.25-1.013c5.53-1.357 7.83-3.479 8.49-9.115.45-4.106.7-8.246 1.08-12.804h-77.48c-5.78 0-8.14-2.226-8.18-8.002 0-15.482 0-30.999-.21-46.482.08-1.158.08-2.32 0-3.479-4.52 13.256-5.67 59.529-2.22 81.482 5.36 4.836 5.36 4.837 5.36 6.646l-5.75 1.739c-2.74 7.654-12.49 8.977-20.87-.417h-4.24c-49.34 0-98.686-.07-148.044-.209-37.853 0-75.741-.417-113.595-.661a29.508 29.508 0 0 1-4.801-.731 191.343 191.343 0 0 1-47.143 2.505v-1.322l20.875-.661a3.071 3.071 0 0 0 0-.591h-16.595c-4.836 0-9.672.243-14.474 0a14.474 14.474 0 0 1-4.314-1.705v-1.079l4.245-1.704c-6.611-2.157-8.698-7.167-9.881-13.917a30.479 30.479 0 0 1-11.349 13.465c-5.025 3.274-10.301 6.244-16.575 4.85 5.577 0 10.849-2.636 12.549-3.486 1.394-.697 5.827-2.668 9.374-6.975a25.639 25.639 0 0 0 5.827-15.23c.626-16.804.904-33.609.939-50.413 0-6.158-1.565-12.351-1.565-18.544.174-5.839.802-11.655 1.878-17.396a11.59 11.59 0 0 1 11.621-8.35c12.455-.14 24.934-.14 37.436 0 6.367 0 10.089 4.175 10.194 11.203.174 10.438 0 21.153 0 31.765-.139 20.875-.313 41.75-.522 62.625a8.776 8.776 0 0 1-4.308 8.746 8.766 8.766 0 0 1-3.242 1.1 183.728 183.728 0 0 1-18.474 2.435c-3.097.279-6.263 0-9.359.627h28.181c-.557 1.183-.87 1.844-1.148 2.505a33.195 33.195 0 0 0 20.249-5.219c7.549-4.314 15.099-8.628 22.719-12.838 4.279-2.366 8.663-4.488 13.325-6.959V57.924c0-5.184.243-10.438.452-15.587a5.777 5.777 0 0 1 6.402-6.297c12.212 0 24.354.417 36.566.452 10.055 0 20.075-.383 30.095-.348 22.058 0 44.116.487 66.104.487 23.763 0 47.528-.417 71.288-.591 6.16 0 8.07 1.461 8.18 7.445.27 16.236.39 32.403.34 48.5 0 24.667-.34 49.334-.55 74.002v1.6a142.835 142.835 0 0 0 30.02 15.935c-.41-5.845-.83-11.168-1.18-16.457a247.966 247.966 0 0 1 1.11-48.952 419.742 419.742 0 0 0 4.8-60.607c-.2-15.9.53-31.765.35-47.63 0-6.784 3.48-8.767 8.8-8.837 9.15-.174 18.34.279 27.53.418 12.28 0 24.59.348 36.91.417 20.87.174 42.03.418 63.04.348 25.3 0 50.55-.557 75.85-.835h8.52c4.25.244 6.02 1.775 6.58 5.984.38 3.093.56 6.208.52 9.324v92.72c0 14.265-.35 28.53-.52 42.794 0 5.393-2.61 7.724-8.63 7.724h-28.11c-12.39 0-24.81.348-37.2.592-2.99.521-6.36.904-9.98 1.148Zm73.06-31.661V12.66h-11.27l-71.57-.627h-15.9c-1.67 0-3.48-.695-5.01-.626-6.02.278-12.03 1.114-18.05 1.079-26.79 0-53.58-.244-80.37-.383-1.17.047-2.33.164-3.48.348v117.631l205.65-.07Zm-459.84-83.5v113.282h197.86V47.138c-.7 0-1.36-.243-1.98-.243-29.05 0-58.14 0-87.191-.348h-20.492c-25.85.278-51.701 0-77.551-.278l-10.646.243Zm494.36 131.617c.84.215 1.7.366 2.57.452l47.11-.869c7.73-.58 15.51-.147 23.13 1.287 3.17.336 6.37.336 9.54 0V58.898h-6.33a3552.4 3552.4 0 0 1-31.32-.557c-1.74 0-3.48-.556-5.22-.452-2.54 0-5.04.94-7.55.974-9.35.209-18.71.209-28.11.278-1.18 0-2.36.21-3.93.348l.11 118.64ZM747.188 74.449h-15.447c-6.367.175-8.698 2.784-8.733 9.22v48.465c0 3.027-.244 6.019-.244 9.046v17.396c0 4.21-.522 8.489-.208 12.699a10.224 10.224 0 0 0 9.393 10.055c2.306.352 4.629.584 6.959.696a120.796 120.796 0 0 0 30.268-.8c3.758-.627 5.045-1.636 5.254-5.08.626-10.02 1.461-20.005 1.67-29.99.278-14.439.209-28.912 0-43.351 0-7.341-.383-14.682-.696-22.023a5.601 5.601 0 0 0-5.219-5.775c-6.019-.244-12.038 0-17.639 0-1.079 1.565-1.879 2.678-2.644 3.827h-1.079c-.417-1.6-.8-2.61-1.635-4.384Zm334.832 64.887v14.613c0 3.827 1.36 5.045 5.19 5.045h159c5.4.136 10.75-1.059 15.58-3.479a33.269 33.269 0 0 1 20.04-4.941c1.96.122 3.92.122 5.88 0-.08-.238-.17-.47-.28-.696l3.31-3.479 3.97 3.479 1.98-3.479 3.93 2.227a11.889 11.889 0 0 0 3.6-4.145 11.907 11.907 0 0 0 1.38-5.319l-223.58.174ZM1197.18 9.911v.8h101.14v119.127l7.76 5.532c0-1.078.25-1.809.25-2.505.2-39.802.4-79.592.59-119.37 0-1.983-.39-3.932-.52-5.915.02-.55-.08-1.096-.3-1.603-.21-.506-.53-.96-.94-1.328a3.748 3.748 0 0 0-1.42-.803 3.736 3.736 0 0 0-1.62-.128h-14.2l-116.73.174h-49.71c-10.44 0-20.88-.487-31.32-.522-6.19 0-7.58 1.531-7.51 7.585 0 11.725.56 23.45.49 35.14 0 10.437-.91 20.875-1.01 31.138-.18 18.44 0 36.879 0 55.319 0 .765.17 1.531.28 2.679l6.95-5.114v-6.959c0-15.099.46-30.234.42-45.229 0-18.022-.31-36.08-.38-54.136 0-4.28.52-8.559.8-13.116h4.35c28.6 0 57.2.092 85.8.278 4.03 0 8.07-.383 12.1-.592 0-.243-.17-.521-.28-.765l3.31-3.827 1.7 4.14ZM1044.1 164.247V44.39c0-5.602-1.04-6.402-6.61-6.332-19.48.174-39.001.522-58.485.556H873.343c-1.774 0-3.479-.208-5.393-.243-11.516 0-23.032-.313-34.548-.209-3.479 0-4.662 1.357-4.94 4.906-.279 3.548-.279 6.958-.314 10.194l-.104 109.837c.073.591.201 1.173.383 1.74a34.667 34.667 0 0 1 3.827-2.958 5.674 5.674 0 0 0 2.922-6.123c-.278-5.358-.243-10.751-.208-16.143 0-10.438.417-20.875.417-31.313 0-18.44 0-36.844-.243-55.25 0-2.643.417-5.253.695-8.314 32.844.313 65.513.696 98.183 0l-.313-1.253 3.479-2.261 2.47 3.792h96.794v114.813l7.65 4.418Zm-216.647 4.384c-12.734 4.071-22.963 12.386-35.036 18.335 2.644 1.496 258.293 1.914 261.743.731a31.087 31.087 0 0 0-2.96-2.714 21.127 21.127 0 0 0-12.84-2.609c-39.106.591-78.212 1.287-117.318 1.739-22.058.244-44.116 0-66.104.209-8.802 0-17.605.8-26.407.905-2.522-.072-5-.677-7.271-1.775a4.315 4.315 0 0 1-2.018-3.479 4.84 4.84 0 0 1 2.818-3.027 16.595 16.595 0 0 1 5.88-.765c20.248.452 40.497 1.218 60.746 1.391 36.856.372 73.689.534 110.499.488 12.765 0 25.505-1.253 38.275-1.984.8-.118 1.58-.34 2.33-.661v-.765h-36.88c-41.927 0-83.886-.313-125.844-.383-13.917 0-27.625.348-41.437.244a11.661 11.661 0 0 1-5.428-2.505 14.13 14.13 0 0 1-2.574-3.375h-.174Zm11.029 4.384c3.235-.174 6.506-.487 9.811-.453 6.958 0 13.917.418 20.875.418h169.292c1.74 0 3.48.278 3.94 3.131a28.9 28.9 0 0 1-5.43 1.705c-6.19.557-12.42 1.148-18.65 1.253-23.102.313-46.203.591-69.305.626-18.753 0-37.506-.279-56.224-.557-22.44-.313-44.881-.835-67.287-1.183a22.227 22.227 0 0 0-4.697.835c0 .383-.278.766-.382 1.148.869.905 1.565 2.331 2.609 2.61 2.174.609 4.422.914 6.68.904 10.438 0 21.188-.556 31.8-.661 39.662-.417 79.325-.696 118.987-1.113 19.689-.209 39.389-.661 59.149-1.009 6.96 0 13.04 1.218 16.8 7.619h19.52l.52-1.183a16.787 16.787 0 0 0-2.75-2.296c-8.83-4.871-17.67-9.742-26.61-14.473a11.077 11.077 0 0 0-4.98-1.427h-88.925c-40.034 0-80.079-.162-120.136-.487-1.148 0-2.296 0-4.21.244l3.897 4.105 3.479-2.331 2.227 2.575Zm316.608 11.968a7.14 7.14 0 0 0 2.63 2.956 7.226 7.226 0 0 0 3.8 1.115l18.02 1.739c14.24 1.383 28.59.775 42.66-1.809a13.689 13.689 0 0 0 9.6-5.184c-1.63-.696-2.96-1.357-4.31-1.844a7.509 7.509 0 0 1-4.18-2.734 7.474 7.474 0 0 1-1.56-4.746c-.18-3.479-.87-6.958-1.39-10.785h-52.89c-.21 2.365-.55 4.801-.62 7.201-.25 7.342-3.48 12.699-10.44 13.534-.35.035-.56.279-1.01.662l-.31-.105Zm149.25-47.56c-2.26-2.679-4.28-5.741-8.21-5.741H1092.29c-4.18 0-6.37 2.923-9.08 5.08 0 .313.17.591.24.904l220.89-.243Zm104.17 43.907-.56.939c1.43.835 2.96 2.471 4.25 2.262a7.224 7.224 0 0 0 4.87-2.992 16.133 16.133 0 0 0 1.42-7.341c.14-33.586.22-67.137.25-100.653V56.81c0-4.627-1.78-6.506-6.4-6.958H1335.69c-6.47 0-8 1.53-8.04 8.002l-.21 92.998c.07.558.2 1.107.39 1.636.69-6.68 1.11-13.256 1.22-19.866.45-23.033.76-46.1 1.18-69.132 0-1.774.38-3.479.59-5.358 1.39 0 2.43-.313 3.48-.313 10.12 0 20.25 0 30.37-.313 2.08-.135 4.15-.403 6.19-.8.6-4.105 1.26-4.558 3.48-2.783 0 .765 0 1.6-.2 2.853 2.03.346 4.09.578 6.15.695h30.13c5.01 0 5.33.314 5.33 5.289 0 29.41-.06 58.809-.18 88.197 0 7.271 0 14.543-.17 21.814-.18 7.272-.45 7.098-6.89 8.559Zm-365.31-14.821a11.79 11.79 0 0 0-3.9-3.534 11.7 11.7 0 0 0-5.05-1.476h-91.706c-34.792 0-69.584-.116-104.376-.348-3.479 0-5.462 2.54-7.689 4.731 70.802 2.575 141.672-.069 212.651.627h.07Zm363.99 18.579c0-.453 0-.905.24-1.357a6.028 6.028 0 0 0-2.53-2.255 6.032 6.032 0 0 0-3.35-.529l-61.62-.208c-2.88 0-5.81-.279-9.11-.453-.32-1.28-.54-2.582-.66-3.896 0-5.88 0-11.725-.18-17.396v-3.827a53.03 53.03 0 0 0-2.88 21.779c0 5.81 2.78 8.35 8.56 8.35h71.53v-.208Zm-147.48-26.929v.8h29.36c3.69 0 7.38.209 11.06 0 2.51 0 5.29-.661 5.74-3.479.25-3.127.25-6.268 0-9.394a11.817 11.817 0 0 1-5.75 4.82 11.876 11.876 0 0 1-7.5.399 2.91 2.91 0 0 0-.56 0 85.226 85.226 0 0 1-13.22 1.009c-7.13-.592-12.84 3.34-19.13 5.775v.07Zm-204.75 32.495c-58.733-.73-117.461-2.087-176.155 0h176.155Zm-277.816-53.266h.73V80.26a7.827 7.827 0 0 0-8.176-8.037c-10.646-.313-21.327-.557-32.008-.66a61.969 61.969 0 0 0-8.35.938v.731h11.725c9.254 0 18.544 0 27.833.174a7.756 7.756 0 0 1 7.421 5.126 7.764 7.764 0 0 1 .442 3.154c0 8.037.244 16.04.278 24.076.174 10.438.105 20.98.105 31.556v.07Zm-55.667 20.875h-.731c0 5.81-.313 11.655 0 17.396a10.438 10.438 0 0 0 8.872 9.429 186.313 186.313 0 0 0 21.119 1.635 77.565 77.565 0 0 0 13.047-2.053v-.765h-27.138a14.966 14.966 0 0 1-12.281-4.767c-3.479-4.21-3.479-9.22-3.201-14.23.069-2.574.209-4.697.313-6.819v.174Zm353.693 34.792h-15.55a12.31 12.31 0 0 0 11.65 4.384 4.57 4.57 0 0 0 3.8-4.558l.1.174Zm-297.957-37.332c-.313 4.175-1.078 10.159-1.043 16.144.034 5.984-1.566 10.437-7.307 12.594 0 0-.174.313-.243.453a7.548 7.548 0 0 0 8.489-6.472c.313-8.315.104-16.491.104-22.893v.174Zm422.717 6.959v-.592h-24.66v.592h24.66Zm-141.25 27.833v.557h16.73c.02-.185.02-.372 0-.557h-16.73Zm105.77 1.044-.21.87 20.31 1.704v-.835l-20.1-1.739Z" stroke="#fff" stroke-width=".348" stroke-miterlimit="10"/><path d="m2137.56 192.097-698.57-1.394" stroke="#fff" stroke-width=".934" stroke-miterlimit="10"/></svg>