<svg width="2138" height="200" viewBox="0 0 2138 200" fill="none" xmlns="http://www.w3.org/2000/svg"><path d="M0 191.816h688.7s17.83 1.14 25.06-8.04c7.24-9.18 8.3-18.71 8.3-18.71m0 0c.012-.566-.18 4.601-.19 6.18-.37 6.254 1.12 7.33 2.2 9.83 1.38 3.19 4.7 5.1 8.17 5.28 8.33.43 27.8.76 36.78.95 12.12.26 13.5-9.44 13.5-9.44s1.35-80.49 1.06-95.67c-.22-11.74-7.59-11.3-7.59-11.3s-26.04-.97-38.04-.79c-4.8.07-8.51.34-10.81 1.72-2.83 1.7-4.18 5.7-4.11 9 .589 28.006-.354 56.243-.97 84.24Zm0 0c-.02 2.164-.19 6.18-.18 9.85.27 4.4.94 6.26 5.91 10.18 2.36 1.86 4.32 1.95 17.67 1.71 0 0 7.01.6 13.52.15 0 0 11.69-.81 18.09-6.51.38-.34.61-.74.61-.74.22-.29.33-.64.34-1 .1-7.24 1.23-91.76 1.23-98.35 0-6.59-5.3-6.53-5.3-6.53l-18.93-.75s-3.54.28-3.97 2.52c-.43 2.23.93 1.99.93 1.99s2.25.79 2.38-1.59c.13-2.38-3.71-2.78-3.71-2.78s-9.27-.28-17.34-.13c-7.24.13-6.97 8.43-6.97 8.43l-.13 90.95s-.36 9.47 11.47 9.97c34.52 1.82 35.44-2.25 40.23-3.13-4.67 8-27.48 8.82-42.08 9.09-28.93 1.52-5.82 2.18-5.82 2.18s21.25-.33 34.22-.66c12.97-.33 6.22 1.06 6.22 1.06l-28.46 2.38 36.91-1.61s6.18 1.94 15.18-3.88c7.95-5.14 30.44-17.87 35.6-20.78.66-.37 1.07-1.07 1.07-1.83V42.746s-1.72-7.06 12.58-6.88c14.3.18 195.75 0 195.75 0s10.24-1.76 10.41 10.59c.18 12.36 0 121.13 0 121.13H833.67c-2.09 0-4.16.5-6.01 1.46l-34.37 17.73s-9.4 4.77 1.06 4.63c10.46-.13 284.62 0 284.62 0s17.34-.26 5.03-5.03c-11.55-4.47-38.58-20-43.42-25.19-.53-.57-1.27-.89-2.05-.89l-196.79.26s-2.65.26-2.38-4.5.26-106.96.26-106.96-.79-4.24 4.5-4.5c5.3-.26 89.95.79 89.95.79 5.73.03 11.02-4.93 6.39-5-3.75-.05-3.41 5 5.33 5s88.96-.79 88.96-.79 5.82-1.06 5.56 5.3c-.25 6.02-.15 98.7-.13 108.45 0 .53-.31 1.01-.8 1.22-3.06 1.32-8.57 3.97-38.42 1.79-70.86-5.15-140.84-1.76-159.11-1.37-1.66.04-3.26.63-4.53 1.7l-5.31 4.42c-.71.59-.88 1.61-.4 2.4 1.14 1.84 3.35 4.91 5.73 5.39 3.44.71 4.41-3.03 1.94-3-1.2.02-1.91.82-1.6 1.53.39.87 1.31 1.38 2.27 1.34l12.65-.48 42.1.53 64.34.26s61.99-1.36 78.1-.26c14.42.98 11.28 2.27 7.42 3.04-2.3.46-4.64.66-6.99.66h-8.64l-63.01 1.85-40.51-.26-90.02-2.03s-12.53-1.59-12.89 3.35c-.35 4.94 8.83 3.88 8.83 3.88l212.2-3.11c4.45-.07 8.86 1.18 12.48 3.77 2.08 1.48 3.95 3.42 4.77 5.88 2.29 6.88 7.19 7.24 7.19 7.24s10.72 2.38 13.28-7.59l-.75-43.41c-.07-4.23.08-8.47.45-12.68 4.84-55.316 4.48-51.28 4.51 2.094-.02 1.18 1.36 1.976 2.54 1.986 75.37.43 215.18 1.17 221.42.07.47-.08 2.06-.36 2.26-1.2 0 0 .28-1.16-8.62-6.59 0 0-200.16.25-204.93.25-3.27.01-3.61-5.3-3.61-5.3s.44-108.55.04-112.26c-.4-3.71 2.38-3.31 2.38-3.31l95.98.26s7.67-.69 8.38-2.37c.62-1.46-1.68-1.99-1.68-1.99s-2.74-.57-2.21 1.99c1.59 2.29 6.35 2.34 6.35 2.34s92.14-.36 96.02-.36c3.18.01 3.18 1.77 3.18 1.77l.22 119.01 8.6 6.65c.89.68 1.23 1.86.84 2.91-1.28 3.46-4.47 10.69-8.71 10.19 0 0-2.38.2-2.58-1.52-.2-1.72 1.72-1.65 1.72-1.65s1.39 0 1.06 1.39c-.33 1.39-.62 2.82-8.25 1.63 0 0-1.81-.35-1.63-1.5.18-1.15 1.63-1.19 1.63-1.19s2.19-.27 1.9 1.32c-.29 1.59-5.47 2.52-5.47 2.52s-10.94-1.54-16.59.75-13.77 7.5-20.74 7.59c-6.97.09-79.91 2.12-79.91 2.12s-10.72.93 4.37 1.85c15.09.93 38.92-.79 38.92-.79s9.13-1.19 8.87 4.1c-.26 5.3-1.06 12.84 7.15 14.3 8.21 1.46-1.06 7.28-1.06 7.28s-3.04 2.27-36.01 3.19c-32.96.92-38.66-6.37-38.66-6.37s-12.05 11.03 64.2 10.15c58.84-.68 81.89-3.67 89.35-5.01 5.56-.992 10.19-5.317 13.07-10 0 0 10.22-12.34 10.22-56.82 0-39.74.04-57.57.05-60.92 0-.71.12-1.43.4-2.09.64-1.51 2.28-3.63 6.46-3.63h27.47c1.82 0 3.63-.29 5.34-.92 1.1-.41 2.17-.98 2.79-1.74.83-1.01-.65-2.37-1.59-1.46-.65.63-.73 1.53 1.06 2.64 1.43.89 3.11 1.31 4.8 1.31h33.02s5.1 0 5.1 4.77v112.94c0 1.07-.26 2.14-.82 3.05-.85 1.37-2.56 2.81-6.04 2.81h-72.53s-5.14-.18-5.14-5.6l-.4-46.39c-2.45 7.88.47 28.12 1.37 37.63.27 2.79.28 5.59.07 8.39-.17 2.18-.07 4.86 1.25 5.98 1.76 1.5 12.56.78 18.06.31 1.85-.16 3.7-.24 5.56-.23 3.46.02 11.17-.2 25.95-1.7 11.84-1.2 18.64.31 22.03 1.58a9 9 0 0 1 4.01 3.01l1.58 2.1c.27.36.6.68 1 .9.78.42 1.71.51 2.58.22 2.38-.81 5.9-2.47 6.13-8.65V56.646c.35-7.59-7.77-8.47-7.77-8.47h-78.33s-8.12.88-7.77 8.47v121.49c-.35 7.59 7.77 8.47 7.77 8.47l73.07-.88c22.06-.53 4.94 2.47 4.94 2.47s-27.54 1.59-55.07 1.94c-20.16.26-15.34 1.08-11.31 1.51 1.63.17 3.27.26 4.91.26l271.53-.031m510.5-.059-482.5.055M1085.43 8.946s-1.85-7.94 12.71-7.94h205.19s9.88-.6 9.66 10.33c-.26 12.99.03 130.79.03 130.79v12.18s-.43 5.82-11.02 5.82h-131.59s-.18 16.5-2.12 19.15c-1.94 2.65-8.3 4.59-8.3 4.59s-9.18 4.42 4.59 8.12c13.77 3.7 63.9 4.41 72.02-3 8.12-7.41-4.99-8.39-4.99-8.39s-5.46 1.95-3.69-20.47l-124.93-.44-13.24-.18s-4.59.28-4.32-8.91c-.12-9.68.03-12.11.03-12.11-.02-43.185-.03-86.359-.03-129.54Z" stroke="#fff" stroke-width="1.5" stroke-linejoin="round"/></svg>