<svg width="924" height="87" viewBox="0 0 924 87" fill="none" xmlns="http://www.w3.org/2000/svg"><path d="M529.04 70.454a12.852 12.852 0 0 0 .12 6.421c.15.617.977 1.143 1.594 1.504.676.284 1.369.525 2.075.722 1.504.647 1.655 2 .316 2.828a15.434 15.434 0 0 1-3.489 1.504c-1.263.39-2.587.631-4.211 1.007.342.08.689.14 1.038.18 6.662-.18 13.34-.21 20.002-.6 6.196-.347 12.378-1.069 18.559-1.655a5.396 5.396 0 0 0 4.301-3.008c1.399-2.557 2.527-5.264 3.7-7.94a4.52 4.52 0 0 0 .18-1.82V25.23c0-2.857 1.203-3.94 4.091-3.925l23.446.105h9.701a3.326 3.326 0 0 1 3.474 3.55v50.502a6.44 6.44 0 0 1-1.339 4.933c-.21.225-.195.676-.331 1.218a7.08 7.08 0 0 1-1.504.39c-4.737.242-9.474.452-14.212.663-2.572.12-5.143.21-7.715.496 4.256 0 8.512.105 12.768 0 5.099-.166 10.212-.587 15.31-.782 1.894-.073 8.73.291 11.141.593l-5.967.159c-.951 0-2.034.145-2.773.142-4.512.18-8.461.189-12.973.324-5.384.18-10.778.3-16.183.361-2.571 0-5.158-.12-7.73-.226a14.635 14.635 0 0 1-2.421-.33c-.316-.076-.572-.392-.857-.602l.09-.451c.842-.09 1.699-.24 2.557-.256 6.487-.08 12.979-.135 19.476-.165v-.451h-23.988a3.612 3.612 0 0 1-3.82-2.424 3.609 3.609 0 0 1-.166-1.607c.033-.98-.058-1.96-.27-2.918-.151.316-.301.647-.482.963a39.45 39.45 0 0 1-2.165 3.82 9.84 9.84 0 0 1-7.52 4.166 343.586 343.586 0 0 1-43.975 1.865c-3.97 0-7.941-.18-11.881-.542a16.255 16.255 0 0 1-7.67-2.27c-.542-.362-1.203-1.28-1.068-1.7a2.572 2.572 0 0 1 1.684-1.233c2.392-.587 3.384-1.504 3.67-3.94.196-1.775.301-3.565.466-5.535h-33.492c-2.497 0-3.52-.963-3.535-3.46 0-6.692 0-13.4-.09-20.092.033-.5.033-1.003 0-1.504-1.955 5.73-2.451 25.732-.962 35.222 2.316 2.09 2.316 2.09 2.316 2.873l-2.482.752c-1.188 3.308-5.399 3.88-9.023-.18h-1.835c-21.326 0-42.657-.03-63.993-.09-16.362 0-32.74-.181-49.103-.287a12.774 12.774 0 0 1-2.076-.315 82.711 82.711 0 0 1-20.378 1.082v-.571l9.024-.286c.008-.085.008-.17 0-.255h-7.174c-2.09 0-4.181.105-6.256 0a6.25 6.25 0 0 1-1.865-.737v-.467l1.835-.737c-2.858-.932-3.76-3.098-4.272-6.015a13.176 13.176 0 0 1-4.905 5.82c-2.173 1.415-4.754 2.7-7.467 2.097 1.507 0 2.411-.302 3.617-.603 2.109-.603 4.628-2.057 6.162-3.92a11.088 11.088 0 0 0 2.518-6.583c.271-7.264.391-14.528.406-21.792 0-2.662-.677-5.339-.677-8.016.076-2.523.347-5.038.813-7.52a5.01 5.01 0 0 1 5.023-3.609c5.384-.06 10.778-.06 16.182 0 2.752 0 4.361 1.805 4.407 4.843.075 4.512 0 9.144 0 13.73-.061 9.024-.136 18.048-.226 27.072.066.493.033.995-.096 1.477a3.78 3.78 0 0 1-1.766 2.303c-.431.25-.908.41-1.402.476a79.433 79.433 0 0 1-7.985 1.052c-1.339.12-2.708 0-4.046.271h12.182c-.241.512-.376.797-.496 1.083 3.084.21 6.154-.58 8.752-2.256 3.264-1.865 6.528-3.73 9.821-5.55 1.85-1.022 3.745-1.94 5.76-3.007V25.606c0-2.24.106-4.512.196-6.737a2.497 2.497 0 0 1 2.767-2.722c5.279 0 10.528.18 15.806.195 4.347 0 8.678-.165 13.009-.15 9.535 0 19.07.21 28.575.21 10.272 0 20.544-.18 30.816-.255 2.662 0 3.489.631 3.534 3.218.12 7.018.17 14.007.15 20.965 0 10.663-.15 21.326-.24 31.989v.691a61.64 61.64 0 0 0 12.979 6.888c-.181-2.526-.361-4.827-.512-7.113-.539-7.052-.377-14.14.482-21.16a181.951 181.951 0 0 0 2.075-26.2c-.09-6.872.226-13.73.15-20.588 0-2.933 1.504-3.79 3.805-3.82 3.956-.075 7.926.12 11.897.18 5.308 0 10.632.15 15.956.18 9.024.076 18.168.181 27.252.151 10.933 0 21.852-.24 32.785-.36h3.685c1.835.105 2.602.766 2.842 2.586.166 1.337.242 2.684.226 4.03v40.08c0 6.167-.15 12.333-.226 18.499 0 2.331-1.127 3.339-3.729 3.339h-12.152c-5.354 0-10.723.15-16.077.255-1.504 0-2.918.21-4.512.316m31.583-13.686V6.04h-4.873l-30.936-.27h-6.873c-.722 0-1.504-.301-2.166-.271-2.601.12-5.203.481-7.805.466-11.58 0-23.161-.105-34.741-.166-.504.02-1.006.071-1.504.15v50.849l88.898-.21ZM361.652 20.493V69.46h85.528V20.944c-.3 0-.586-.105-.857-.105-12.558 0-25.131 0-37.688-.15h-8.859c-11.174.12-22.348 0-33.522-.12h-4.602m213.889 56.998c.366.093.738.159 1.113.196l20.363-.376a38.54 38.54 0 0 1 10.002.556c1.369.145 2.751.145 4.12 0V26.027h-2.737c-4.502-.06-9.013-.14-13.535-.24-.752 0-1.504-.24-2.256-.196-1.098 0-2.181.406-3.264.421-4.045.09-8.091.09-12.151.12-.512 0-1.023.09-1.7.151l.045 51.284ZM322.985 32.75h-6.677c-2.752.075-3.76 1.203-3.775 3.985v20.95c0 1.309-.105 2.602-.105 3.91v7.52c0 1.82-.226 3.67-.09 5.49a4.42 4.42 0 0 0 4.06 4.346c.997.152 2.001.252 3.008.3 4.359.435 8.755.319 13.084-.345 1.625-.271 2.181-.707 2.271-2.196.271-4.331.632-8.648.722-12.964.12-6.241.09-12.498 0-18.739 0-3.173-.165-6.346-.301-9.52a2.42 2.42 0 0 0-2.256-2.496c-2.601-.106-5.203 0-7.625 0-.466.676-.812 1.158-1.143 1.654h-.466c-.21-.496-.406-.993-.737-1.76m144.769 27.913v6.317c0 1.654.587 2.18 2.241 2.18h68.73a14.24 14.24 0 0 0 6.737-1.503 14.38 14.38 0 0 1 8.663-2.136c.846.053 1.695.053 2.542 0a2.505 2.505 0 0 0-.121-.3l1.429-1.505 1.715 1.504.857-1.504 1.699.963a5.173 5.173 0 0 0 2.151-4.09l-96.643.074Zm49.78-55.946v.346h43.72v51.495l3.354 2.39c0-.465.105-.781.105-1.082.09-17.205.175-34.405.256-51.6 0-.857-.166-1.7-.226-2.557a1.615 1.615 0 0 0-.535-1.266 1.624 1.624 0 0 0-1.315-.403h-6.136l-50.457.075h-21.491c-4.512 0-9.024-.21-13.536-.225-2.677 0-3.278.661-3.248 3.278 0 5.068.24 10.137.21 15.19 0 4.512-.391 9.024-.436 13.46-.075 7.971 0 15.942 0 23.913 0 .33.075.661.121 1.158l3.007-2.211v-3.008c0-6.527.196-13.07.181-19.551 0-7.79-.135-15.596-.166-23.401 0-1.85.226-3.7.346-5.67h1.88c12.363 0 24.725.04 37.087.12 1.745 0 3.489-.165 5.234-.255 0-.106-.075-.226-.12-.331l1.428-1.655.843 1.925m-66.173 66.715V19.89c0-2.421-.452-2.767-2.858-2.737-8.422.075-16.859.226-25.281.24h-45.675c-.767 0-1.504-.09-2.331-.104-4.978 0-9.956-.136-14.934-.09-1.504 0-2.015.586-2.135 2.12-.121 1.534-.121 3.008-.136 4.406l-.15 47.344c.031.256.087.507.165.752a14.975 14.975 0 0 1 1.655-1.278 2.457 2.457 0 0 0 1.263-2.647c-.12-2.316-.105-4.647-.09-6.978 0-4.512.18-9.024.18-13.536 0-7.97 0-15.926-.105-23.882 0-1.143.18-2.271.301-3.595 14.197.136 28.319.301 42.441 0l-.136-.541 1.504-.978 1.068 1.64h41.84v49.63l3.368 1.955m-93.65 1.895c-5.504 1.76-9.926 5.354-15.144 7.925 1.143.647 111.652.828 113.141.316-.399-.42-.826-.811-1.279-1.173a9.126 9.126 0 0 0-5.549-1.128c-16.904.256-33.809.557-50.713.752-9.535.105-19.07 0-28.575.09-3.805 0-7.609.346-11.414.391a7.731 7.731 0 0 1-3.144-.767 1.87 1.87 0 0 1-.872-1.504 2.096 2.096 0 0 1 1.218-1.308 7.179 7.179 0 0 1 2.542-.33c8.753.195 17.506.525 26.259.6 15.931.161 31.853.231 47.765.211 5.519 0 11.023-.541 16.543-.857a4.059 4.059 0 0 0 1.008-.286v-.33h-15.942c-18.123 0-36.26-.136-54.398-.166-6.015 0-11.941.15-17.911.105a5.043 5.043 0 0 1-2.347-1.083 6.122 6.122 0 0 1-1.082-1.398m4.767 1.895c1.399-.075 2.812-.21 4.241-.196 3.008 0 6.016.18 9.024.18h73.181c.752 0 1.504.121 1.7 1.354-.756.323-1.542.57-2.346.737-2.677.24-5.369.496-8.062.542-9.986.135-19.972.255-29.958.27-8.106 0-16.212-.12-24.303-.24-9.701-.136-19.401-.361-29.087-.512a9.607 9.607 0 0 0-2.03.361c0 .166-.12.331-.165.497.376.39.676 1.007 1.128 1.127.939.264 1.911.396 2.887.392 4.512 0 9.159-.241 13.746-.286 17.145-.18 34.29-.301 51.435-.481 8.512-.09 17.024-.286 25.567-.437 3.007 0 5.639.527 7.264 3.294h8.437l.225-.511a7.388 7.388 0 0 0-1.188-.993c-3.82-2.105-7.64-4.21-11.505-6.256a4.782 4.782 0 0 0-2.151-.617h-38.44c-17.305 0-34.616-.07-51.931-.21-.496 0-.993 0-1.82.105l1.685 1.775 1.504-1.008 1.007 1.143m136.858 5.173a3.113 3.113 0 0 0 2.783 1.76l7.79.752a66.472 66.472 0 0 0 18.438-.782 5.922 5.922 0 0 0 4.151-2.241c-.707-.3-1.278-.587-1.865-.797a3.263 3.263 0 0 1-2.481-3.233c-.076-1.504-.376-3.008-.602-4.663h-23.07c-.09 1.023-.241 2.076-.271 3.113-.105 3.174-1.504 5.49-4.512 5.85-.105 0-.195.121-.391.241m64.339-20.694c-.978-1.158-1.85-2.481-3.55-2.481h-88.115c-1.805 0-2.752 1.263-3.926 2.195 0 .136.076.256.106.392l95.485-.106Zm45.027 18.98-.24.406c.616.36 1.278 1.068 1.835.978a3.113 3.113 0 0 0 2.105-1.294c.449-.995.66-2.082.617-3.173.06-14.518.095-29.021.105-43.509v-7.234c0-2-.767-2.812-2.767-3.008h-33.132c-2.797 0-3.459.662-3.474 3.46l-.09 40.2c.028.24.083.478.165.706a97.31 97.31 0 0 0 .526-8.587c.196-9.956.331-19.927.512-29.883 0-.767.165-1.504.256-2.317.601 0 1.052-.135 1.503-.135 4.377 0 8.753 0 13.13-.135a21.29 21.29 0 0 0 2.677-.346c.255-1.775.541-1.97 1.504-1.203 0 .33 0 .692-.09 1.233.881.15 1.769.25 2.661.3h13.025c2.165 0 2.301.136 2.301 2.287 0 12.713-.026 25.421-.076 38.125 0 3.143 0 6.286-.075 9.43-.075 3.142-.195 3.097-3.008 3.729M450.91 72.574a5.07 5.07 0 0 0-3.865-2.165h-39.644c-15.039 0-30.078-.05-45.118-.15-1.504 0-2.361 1.097-3.323 2.044 30.695 1.128 61.33 0 92.01.286m157.312 7.986c0-.195 0-.39.105-.586a2.605 2.605 0 0 0-2.542-1.204l-26.634-.09c-1.248 0-2.512-.12-3.94-.195a10.92 10.92 0 0 1-.286-1.685c0-2.541 0-5.068-.075-7.52v-1.654a22.863 22.863 0 0 0-1.249 9.415c0 2.511 1.203 3.61 3.7 3.61h30.921M544.53 69.024v.346H557.223c1.594 0 3.189.09 4.783 0 1.083 0 2.286-.286 2.481-1.504.106-1.352.106-2.71 0-4.06a5.128 5.128 0 0 1-5.73 2.255 1.283 1.283 0 0 0-.24 0c-1.891.294-3.802.44-5.715.436-3.219-.21-5.685 1.504-8.407 2.542m-88.507 14.047c-25.386-.316-50.773-.903-76.144 0h76.144ZM335.799 60.06h.316V35.367a3.38 3.38 0 0 0-2.172-3.254 3.38 3.38 0 0 0-1.362-.22c-4.603-.136-9.22-.24-13.837-.286-1.211.053-2.417.19-3.609.406v.316h5.204c4 0 8.015 0 12.031.075a3.355 3.355 0 0 1 3.399 3.58c0 3.474.105 6.933.12 10.407v13.7m-24.063 9.024h-.316c0 2.512-.135 5.038 0 7.52a4.517 4.517 0 0 0 3.835 4.075 80.56 80.56 0 0 0 9.129.707 33.532 33.532 0 0 0 5.64-.887v-.33h-11.731a6.466 6.466 0 0 1-5.309-2.061c-1.503-1.82-1.503-3.986-1.383-6.151 0-.933.105-1.85.15-2.768m152.89 15.04h-6.722a5.318 5.318 0 0 0 5.038 1.895 1.968 1.968 0 0 0 1.684-1.895ZM335.934 68.122c-.135 1.805-.466 4.392-.451 6.979.015 2.587-.677 4.512-3.158 5.444 0 0-.075.135-.105.195a3.265 3.265 0 0 0 3.669-2.797c.136-3.519 0-7.053 0-9.82m182.728 3.007v-.255H508.03v.255h10.587Zm-61.059 12.032v.24h7.233c.008-.08.008-.16 0-.24h-7.233Zm45.719.451-.09.376 8.783.737v-.361l-8.723-.752" fill="#fff"/><path d="M529.039 70.454a12.864 12.864 0 0 0 .121 6.421c.15.617.977 1.143 1.594 1.504.676.284 1.369.525 2.075.722 1.504.647 1.655 2 .316 2.828a15.473 15.473 0 0 1-3.489 1.504c-1.263.39-2.587.631-4.211 1.007.342.08.689.14 1.038.18 6.662-.18 13.34-.21 20.002-.6 6.196-.347 12.377-1.069 18.559-1.655a5.396 5.396 0 0 0 4.301-3.008c1.399-2.557 2.526-5.264 3.7-7.94a4.52 4.52 0 0 0 .18-1.82V25.23c0-2.857 1.203-3.94 4.091-3.925l23.446.105h9.7a3.327 3.327 0 0 1 3.278 2.172c.162.44.229.91.197 1.378v50.502c.124.87.07 1.756-.16 2.604a6.471 6.471 0 0 1-1.179 2.329c-.211.225-.195.676-.331 1.218a7.08 7.08 0 0 1-1.504.39c-4.737.242-9.475.452-14.212.663-2.572.12-5.143.21-7.715.496 4.256 0 8.512.105 12.768 0 5.099-.166 10.212-.587 15.31-.782 1.73.013 3.457.124 5.174.33v.422c-.965 0-3.541.145-4.28.142-4.512.18-6.954.189-11.466.324-5.384.18-10.779.3-16.183.361-2.571 0-5.158-.12-7.73-.226a14.635 14.635 0 0 1-2.421-.33c-.316-.076-.572-.392-.857-.602l.09-.451c.842-.09 1.699-.24 2.556-.256 6.487-.08 12.979-.135 19.476-.165v-.451H577.286a3.612 3.612 0 0 1-3.82-2.424 3.609 3.609 0 0 1-.166-1.607c.033-.98-.058-1.96-.271-2.918-.15.316-.3.647-.481.963a39.45 39.45 0 0 1-2.165 3.82 9.841 9.841 0 0 1-7.52 4.166 343.586 343.586 0 0 1-43.975 1.865c-3.971 0-7.941-.18-11.881-.542a16.255 16.255 0 0 1-7.67-2.27c-.542-.362-1.203-1.28-1.068-1.7a2.572 2.572 0 0 1 1.684-1.233c2.392-.587 3.384-1.504 3.67-3.94.195-1.775.301-3.565.466-5.535h-33.492c-2.497 0-3.52-.963-3.535-3.46 0-6.692 0-13.4-.09-20.092.033-.5.033-1.003 0-1.504-1.955 5.73-2.451 25.732-.962 35.222 2.316 2.09 2.316 2.09 2.316 2.873l-2.482.752c-1.188 3.308-5.399 3.88-9.024-.18h-1.834c-21.326 0-42.657-.03-63.993-.09-16.363 0-32.74-.181-49.103-.287-.7-.048-1.394-.153-2.076-.315a82.714 82.714 0 0 1-20.378 1.082v-.571l9.024-.286c.008-.085.008-.17 0-.255h-7.174c-2.091 0-4.181.105-6.256 0a6.25 6.25 0 0 1-1.865-.737v-.467l1.834-.737c-2.857-.932-3.759-3.098-4.271-6.015a13.176 13.176 0 0 1-4.905 5.82c-2.173 1.415-4.453 2.7-7.166 2.097 2.411 0 4.691-1.14 5.425-1.507.603-.302 2.519-1.153 4.052-3.015a11.082 11.082 0 0 0 2.519-6.584c.271-7.264.391-14.528.406-21.792 0-2.662-.677-5.339-.677-8.016.076-2.523.347-5.038.812-7.52a5.011 5.011 0 0 1 5.024-3.609c5.384-.06 10.778-.06 16.182 0 2.752 0 4.361 1.805 4.406 4.843.076 4.512 0 9.144 0 13.73-.06 9.024-.135 18.048-.225 27.072a3.793 3.793 0 0 1-3.264 4.256 79.415 79.415 0 0 1-7.986 1.052c-1.338.12-2.707 0-4.045.271h12.182c-.241.512-.376.797-.497 1.083 3.085.21 6.155-.58 8.753-2.256 3.264-1.865 6.527-3.73 9.821-5.55 1.85-1.022 3.745-1.94 5.76-3.007V25.606c0-2.24.105-4.512.196-6.737a2.497 2.497 0 0 1 2.767-2.722c5.279 0 10.527.18 15.806.195 4.347 0 8.678-.165 13.009-.15 9.535 0 19.07.21 28.575.21 10.272 0 20.544-.18 30.816-.255 2.662 0 3.489.631 3.534 3.218.12 7.018.17 14.007.15 20.965 0 10.663-.15 21.326-.24 31.989v.691a61.64 61.64 0 0 0 12.979 6.888c-.181-2.526-.361-4.827-.512-7.113-.539-7.052-.378-14.14.482-21.16a181.951 181.951 0 0 0 2.075-26.2c-.09-6.872.226-13.73.15-20.588 0-2.933 1.504-3.79 3.805-3.82 3.956-.075 7.926.12 11.896.18 5.309 0 10.633.15 15.957.18 9.024.076 18.168.181 27.251.151 10.934 0 21.853-.24 32.786-.36h3.685c1.835.105 2.602.766 2.842 2.586.166 1.337.242 2.684.226 4.03v40.08c0 6.167-.15 12.333-.226 18.499 0 2.331-1.128 3.339-3.729 3.339h-12.152c-5.354 0-10.723.15-16.077.255a41.752 41.752 0 0 1-4.317.497Zm31.583-13.686V6.04h-4.873l-30.936-.27h-6.873c-.721 0-1.504-.301-2.165-.271-2.602.12-5.204.481-7.806.466-11.58 0-23.16-.105-34.741-.166-.503.02-1.006.071-1.504.15v50.849l88.898-.03ZM361.847 20.673v48.968h85.529V20.944c-.301 0-.587-.105-.857-.105-12.558 0-25.131 0-37.689-.15h-8.858c-11.174.12-22.349 0-33.523-.12l-4.602.104Zm213.694 56.894c.366.093.738.159 1.113.196l20.363-.376a38.53 38.53 0 0 1 10.001.556c1.37.145 2.751.145 4.121 0V26.027h-2.737c-4.502-.06-9.013-.14-13.535-.24-.752 0-1.504-.24-2.256-.196-1.098 0-2.181.406-3.264.421-4.045.09-8.091.09-12.152.12-.511 0-1.022.09-1.699.151l.045 51.284ZM322.985 32.75h-6.677c-2.752.075-3.76 1.203-3.775 3.985v20.95c0 1.309-.105 2.602-.105 3.91v7.52c0 1.82-.226 3.67-.091 5.49a4.421 4.421 0 0 0 4.061 4.346c.997.152 2.001.252 3.008.3 4.359.435 8.755.319 13.084-.345 1.624-.271 2.181-.707 2.271-2.196.271-4.331.632-8.648.722-12.964.12-6.241.09-12.498 0-18.739 0-3.173-.165-6.346-.301-9.52a2.42 2.42 0 0 0-2.256-2.496c-2.601-.106-5.203 0-7.625 0-.466.676-.812 1.158-1.143 1.654h-.466c-.18-.692-.346-1.128-.707-1.895Zm144.739 28.048v6.317c0 1.654.587 2.18 2.241 2.18h68.73a14.24 14.24 0 0 0 6.737-1.503 14.378 14.378 0 0 1 8.663-2.136c.846.053 1.695.053 2.542 0a2.505 2.505 0 0 0-.121-.3l1.429-1.505 1.715 1.504.857-1.504 1.699.963a5.183 5.183 0 0 0 2.151-4.09l-96.643.074Zm49.78-55.946v.346h43.72v51.495l3.353 2.39c0-.465.106-.781.106-1.082.09-17.205.175-34.405.255-51.6 0-.857-.165-1.7-.225-2.557a1.63 1.63 0 0 0-.535-1.266 1.631 1.631 0 0 0-1.315-.403h-6.136l-50.457.075h-21.491c-4.512 0-9.024-.21-13.536-.225-2.677 0-3.278.661-3.248 3.278 0 5.068.24 10.137.21 15.19 0 4.512-.391 9.024-.436 13.46-.075 7.971 0 15.942 0 23.913 0 .33.075.661.12 1.158l3.008-2.211v-3.008c0-6.527.196-13.07.181-19.551 0-7.79-.136-15.596-.166-23.401 0-1.85.226-3.7.346-5.67h1.88c12.363 0 24.725.04 37.087.12 1.745 0 3.489-.165 5.234-.255 0-.106-.075-.226-.12-.331l1.428-1.655.737 1.79Zm-66.173 66.715V19.756c0-2.421-.451-2.767-2.857-2.737-8.422.075-16.859.225-25.281.24h-45.675c-.767 0-1.504-.09-2.331-.105-4.978 0-9.956-.135-14.934-.09-1.504 0-2.015.587-2.136 2.12-.12 1.534-.12 3.008-.135 4.407l-.045 47.48c.031.255.087.506.165.751a14.975 14.975 0 0 1 1.655-1.278 2.457 2.457 0 0 0 1.263-2.647c-.12-2.316-.105-4.647-.09-6.978 0-4.512.18-9.024.18-13.536 0-7.97 0-15.926-.105-23.882 0-1.143.18-2.271.301-3.595 14.197.136 28.319.301 42.441 0l-.136-.541 1.504-.978 1.068 1.64h41.839v49.63l3.309 1.91Zm-93.65 1.895c-5.504 1.76-9.926 5.353-15.145 7.925 1.143.647 111.653.827 113.141.316-.399-.42-.826-.811-1.278-1.173a9.128 9.128 0 0 0-5.549-1.128c-16.905.256-33.809.556-50.713.752-9.535.105-19.07 0-28.575.09-3.805 0-7.61.346-11.415.391a7.73 7.73 0 0 1-3.143-.767 1.862 1.862 0 0 1-.872-1.504 2.077 2.077 0 0 1 1.218-1.308 7.173 7.173 0 0 1 2.542-.331c8.753.196 17.505.526 26.258.602 15.932.16 31.854.23 47.765.21 5.52 0 11.024-.541 16.544-.857a4.051 4.051 0 0 0 1.007-.286v-.33h-15.941c-18.123 0-36.26-.136-54.398-.166-6.016 0-11.941.15-17.912.105a5.04 5.04 0 0 1-2.346-1.083 6.13 6.13 0 0 1-1.113-1.459h-.075Zm4.768 1.894c1.398-.075 2.812-.21 4.241-.195 3.008 0 6.015.18 9.023.18h73.182c.752 0 1.504.12 1.699 1.354-.756.322-1.542.57-2.346.737-2.677.24-5.369.496-8.061.541-9.986.136-19.972.256-29.958.271-8.107 0-16.213-.12-24.304-.24-9.7-.136-19.401-.362-29.086-.512a9.585 9.585 0 0 0-2.03.361c0 .165-.121.33-.166.496.376.391.677 1.008 1.128 1.128.94.264 1.912.395 2.888.391 4.511 0 9.159-.24 13.746-.285 17.144-.181 34.289-.301 51.434-.482 8.512-.09 17.025-.285 25.567-.436 3.008 0 5.64.526 7.264 3.294h8.437l.226-.512a7.482 7.482 0 0 0-1.188-.992c-3.82-2.106-7.64-4.211-11.505-6.257a4.786 4.786 0 0 0-2.151-.616h-38.441c-17.305 0-34.615-.07-51.931-.21-.496 0-.992 0-1.819.105l1.684 1.774 1.504-1.008.963 1.114Zm136.858 5.174a3.11 3.11 0 0 0 2.782 1.76l7.79.752a66.48 66.48 0 0 0 18.439-.782 5.928 5.928 0 0 0 4.15-2.241c-.706-.301-1.278-.587-1.864-.797a3.262 3.262 0 0 1-2.482-3.234c-.075-1.504-.376-3.008-.602-4.662h-22.859c-.091 1.023-.241 2.075-.271 3.113-.105 3.173-1.504 5.49-4.512 5.85-.15.015-.241.12-.436.286l-.135-.045Zm64.518-20.559c-.977-1.158-1.849-2.481-3.549-2.481h-88.115c-1.805 0-2.753 1.263-3.926 2.195 0 .136.076.256.106.392l95.484-.106Zm45.028 18.98-.24.406c.616.36 1.278 1.068 1.834.978a3.112 3.112 0 0 0 2.106-1.294c.449-.995.66-2.082.617-3.173.06-14.518.095-29.021.105-43.509v-7.234c0-2-.767-2.812-2.767-3.008h-33.132c-2.797 0-3.459.662-3.474 3.46l-.09 40.2c.028.24.083.478.165.706a97.31 97.31 0 0 0 .526-8.587c.196-9.956.331-19.927.512-29.883 0-.767.165-1.504.255-2.317.602 0 1.053-.135 1.504-.135 4.377 0 8.753 0 13.13-.135a21.314 21.314 0 0 0 2.677-.346c.255-1.775.541-1.97 1.504-1.203 0 .33 0 .692-.091 1.233.881.15 1.77.25 2.662.3h13.024c2.166 0 2.301.136 2.301 2.287 0 12.713-.025 25.421-.075 38.125 0 3.143 0 6.286-.075 9.43-.075 3.142-.195 3.067-2.978 3.699ZM450.94 72.544a5.069 5.069 0 0 0-3.865-2.166h-39.644c-15.039 0-30.078-.05-45.118-.15-1.504 0-2.361 1.098-3.323 2.045 30.605 1.113 61.24-.03 91.92.271h.03Zm157.342 8.031c0-.195 0-.39.105-.586a2.605 2.605 0 0 0-2.542-1.204l-26.634-.09c-1.249 0-2.512-.12-3.941-.195a10.918 10.918 0 0 1-.285-1.685c0-2.541 0-5.068-.076-7.52v-1.654a22.879 22.879 0 0 0-1.248 9.415c0 2.511 1.203 3.61 3.7 3.61h30.921v-.09Zm-63.752-11.64v.346H557.223c1.594 0 3.189.09 4.783 0 1.083 0 2.286-.286 2.481-1.504.106-1.352.106-2.71 0-4.061a5.125 5.125 0 0 1-5.73 2.256 1.283 1.283 0 0 0-.24 0c-1.891.293-3.802.44-5.715.436-3.083-.256-5.55 1.444-8.272 2.497v.03ZM456.023 82.98c-25.386-.315-50.772-.902-76.144 0h76.144ZM335.934 59.956h.316V35.262a3.379 3.379 0 0 0-2.172-3.254 3.381 3.381 0 0 0-1.362-.22c-4.602-.136-9.219-.241-13.836-.286a26.79 26.79 0 0 0-3.61.406v.316h5.068c4.001 0 8.016 0 12.032.075a3.355 3.355 0 0 1 3.399 3.58c0 3.473.105 6.932.12 10.406.075 4.512.045 9.07.045 13.641v.03Zm-24.063 9.024h-.316c0 2.511-.135 5.038 0 7.52a4.517 4.517 0 0 0 3.835 4.075c3.028.409 6.075.645 9.129.707a33.542 33.542 0 0 0 5.64-.887v-.331h-11.731a6.466 6.466 0 0 1-5.308-2.06c-1.504-1.82-1.504-3.986-1.384-6.152.03-1.113.09-2.03.135-2.947v.075Zm152.89 15.04h-6.722a5.317 5.317 0 0 0 5.038 1.894 1.973 1.973 0 0 0 1.639-1.97l.045.075ZM335.964 67.881c-.135 1.805-.466 4.391-.451 6.978.015 2.587-.677 4.512-3.158 5.444 0 0-.075.136-.105.196a3.265 3.265 0 0 0 3.669-2.797c.136-3.595.045-7.13.045-9.896v.075Zm182.728 3.008v-.256h-10.663v.256h10.663ZM457.633 82.92v.24h7.234c.007-.08.007-.16 0-.24h-7.234Zm45.719.451-.09.376 8.783.737v-.36l-8.693-.753Z" stroke="#fff" stroke-width=".15" stroke-miterlimit="10"/><path d="M300.164 83.002H0" stroke="#fff" stroke-width=".392" stroke-miterlimit="10"/><path d="m924 83.605-301.973-.603" stroke="#fff" stroke-width=".404" stroke-miterlimit="10"/></svg>