<svg width="1440" height="1772" viewBox="0 0 1440 1772" fill="none" xmlns="http://www.w3.org/2000/svg"><path opacity=".7" d="M158.933-32h-338.568c-34.9 65.198-88.402 773.063-17.45 887.16 209.846 337.45 542.418-87.269 780.826-454.794 21.682-33.425 73.578-17.2 71.376 22.58-25.311 457.275-86.101 680.464-57.56 906.064 33.015 260.96 164.766 454.94 350.784 442.42C1293.31 1748.19 1603.16 919.195 1768-32h-381.62c-77.34 383.33-159.26 664.546-269.29 965.697-36.87 100.913-174.284 66.433-161.848-40.282C1002.85 484.877 1031.04 191.34 965.212-32H482.375c-117.567 169.207-198.074 289.422-312.38 465.905-21.862 33.754-76.78 13.826-72.834-26.195 3.194-32.395 6.585-68.886 11.161-116.048L158.933-32Z" fill="#F6F6F6"/></svg>