<svg width="420" height="259" viewBox="0 0 420 259" fill="none" xmlns="http://www.w3.org/2000/svg"><path d="M145.979 152.608c-3.049-2.382-3.004-5.455-2.56-8.604.985-6.992 3.679-13.425 6.663-19.743.578-1.226.553-1.904-.708-2.492-.696-.325-1.274-.901-1.97-1.238-3.912-1.924-4.506-5.426-4.376-9.208.057-1.632.448-3.141-1.074-4.509-.647-.58-.721-1.972-.77-3.007-.211-4.497.639-8.876 1.803-13.186.517-1.911 1.979-3.21 3.615-4.216 3.15-1.944 6.585-3.113 10.309-3.21 1.368-.037 2.243-.625 2.719-1.782.509-1.23-.049-2.264-.928-3.137-1.103-1.1-2.218-2.18-3.439-3.376-3.342 1.25-6.744-.979-7.139-4.935a7.704 7.704 0 0 0-.668-2.468c-1.273-2.695-.83-5.219.749-7.573 4.783-7.13 14.083-8.554 20.546-2.905 1.563 1.363 2.878 3.668 3.151 5.698.488 3.644.321 7.422.012 11.111-.24 2.873-1.567 5.316-4.347 5.686 2.271.276 5.035.617 7.798.925.363.04.778-.032 1.116-.174 4.196-1.733 8.498-1.672 12.873-.86 3.244.6 6.513.462 9.178-1.64 4.217-3.332 8.267-6.88 12.313-10.422.728-.637 1.18-1.644 1.624-2.549 1.2-2.435 2.845-4.362 5.466-5.348.374-.142.781-.463.96-.808a9614.86 9614.86 0 0 0 13.607-26.81c.13-.255.191-.547.293-.819.382-1.047.065-1.826-.961-2.24-1.664-.674-3.35-1.29-5.022-1.94-.497-.19-1.018-.353-1.474-.617-1.314-.763-1.392-1.74-.11-2.532 2.394-1.477 4.799-2.95 7.286-4.257 12.202-6.408 24.445-12.747 36.651-19.147 1.47-.771 1.535.227 1.726 1.132 1.885 8.806 3.806 17.605 5.609 26.427a126.12 126.12 0 0 1 1.717 10.6c.31 2.65-.354 3.11-3.003 2.428-1.738-.447-3.444-1.019-5.133-1.632-.956-.349-1.367-.11-1.705.84-5.226 14.744-10.432 29.496-15.752 44.207-6.703 18.539-13.427 37.065-20.289 55.542-4.266 11.485-8.775 22.881-13.232 34.293-.863 2.207-1.893 4.358-3.016 6.444-.358.67-1.209 1.331-1.946 1.494-2.031.446-4.11.698-6.186.884-1.299.118-1.974.605-2.312 1.916-1.189 4.594-2.515 9.151-3.728 13.737-.175.654-.025 1.4.016 2.102.02.333.256.694.183.987-.553 2.199.631 3.595 2.068 5.016 1.302 1.29 1.811 2.966 1.384 4.817-.501 2.167-2.255 2.93-4.062 1.635-1.531-1.099-2.915-2.402-4.339-3.644-1.355-1.181-2.662-2.338-4.628-2.532-.541-.053-1.286-1.031-1.424-1.689-.473-2.26 1.392-5.868 3.04-6.805.48-4.887.936-9.521 1.408-14.282-1.701.175-3.443.256-5.136.585-.533.101-1.046.795-1.392 1.335a2581.596 2581.596 0 0 0-9.691 15.198 362.91 362.91 0 0 0-3.977 6.4c-.891 1.482-.765 2.411.42 3.657.598.633 1.257 1.213 1.843 1.863 1.348 1.485 1.478 3.108.428 4.788-.916 1.465-2.259 2.005-4.197 1.315-4.302-1.53-7.68-4.273-10.073-8.173-.721-1.177-.672-2.403.008-3.592 1.27-2.228 2.987-4.038 5.124-5.466.94-.629 1.759-.617 2.597.231a14.729 14.729 0 0 0 2.129 1.757c.419.288.972.39 1.465.577l.256-.459c-.952-.686-1.827-1.542-2.877-2.017-1.449-.653-1.588-1.449-1.063-2.841 1.433-3.807 2.731-7.662 4.075-11.505.171-.483.293-.982.504-1.709-2.096.203-3.964.362-5.828.569-6.463.73-12.919 1.517-19.386 2.187-1.616.166-2.552.958-3.224 2.309-2.368 4.773-4.851 9.488-7.11 14.314-4.579 9.78-9.06 19.609-13.537 29.439-3.053 6.7-6.045 13.424-9.052 20.145-.171.381-.261.803-.46 1.449 1.929.117 3.691.3 5.454.32 5.539.069 11.075.057 16.614.106 9.227.085 18.454.243 27.681.284 22.829.097 45.659.162 68.488.195 2.759 0 5.523-.292 8.283-.434 1.062-.053 1.562-.548 1.579-1.64.167-11.615.382-23.23.517-34.84.04-3.58-.143-7.159-.188-10.743-.13-10.409-.228-20.815-.366-31.224a744.59 744.59 0 0 0-.33-15.097c-.036-1.165.326-1.546 1.458-1.546 10.057.02 20.11.024 30.167 0 1.225 0 1.681.381 1.681 1.692-.016 30.457.025 60.919 0 91.376 0 1.397.415 1.693 1.714 1.685 7.578-.053 15.157-.025 22.735-.025 1.612 0 2.419-.795 2.422-2.386V125.121c0-1.989 1.015-2.983 3.045-2.983 8.742 0 17.489-.008 26.232 0 3.964.004 3.634-.414 3.638 3.551V255.567c.012 1.891.082 1.972 1.966 1.972 5.975.004 11.95 0 17.925 0 1.462 0 2.195-.716 2.198-2.147V74.81c0-.483.032-.97-.004-1.453-.086-1.112.378-1.64 1.518-1.546.387.033.777 0 1.164 0h28.564c1.777 0 2.666.91 2.666 2.731v179.271c0 3.044-.244 2.833 2.829 2.837h20.257c.386 0 .802-.081 1.16.021.529.154 1.017.438 1.526.665-.492.191-.977.54-1.473.552-2.817.053-5.633.024-8.454.028-5.149.004-10.297-.028-15.446.041-1.29.016-1.779-.414-1.677-1.668.061-.771.012-1.55.012-2.325V75.707c0-.34-.032-.682.004-1.014.126-1.161-.305-1.636-1.546-1.632-9.423.037-18.849.037-28.275 0-1.234-.004-1.677.467-1.568 1.632.045.478.009.965.009 1.452v179.71c0 .483-.037.97.004 1.453.106 1.278-.517 1.696-1.734 1.692-7.143-.028-14.282-.024-21.425 0-1.156 0-1.738-.418-1.661-1.615.033-.532 0-1.064 0-1.599V126.342c0-.531-.028-1.067 0-1.599.061-1.002-.395-1.436-1.388-1.347-.142.012-.293 0-.435 0H309.15c-2.279 0-2.393.122-2.393 2.37v129.59c0 1.715-.859 2.57-2.576 2.564h-24.922c-2.234 0-2.238-.004-2.238-2.284v-89.782c0-.483-.021-.97 0-1.453.028-.864-.383-1.25-1.238-1.197-.195.012-.386 0-.582 0-8.986 0-17.973.024-26.96-.024-1.372-.009-1.852.365-1.819 1.797.179 8.178.264 16.359.382 24.541.09 6.1.212 12.195.265 18.295.097 11.521.211 23.043.199 34.564-.004 4.399-.305 8.799-.529 13.194-.106 2.098-.48 2.516-2.605 2.731-2.267.227-4.55.373-6.83.394-12.092.121-24.184.267-36.277.263-12.434 0-24.864-.158-37.298-.272-7.721-.069-15.442-.178-23.163-.28-7.139-.093-14.274-.186-21.413-.304-1.201-.02-2.397-.166-3.838-.268.72-1.696 1.343-3.25 2.035-4.772 7.033-15.479 14.021-30.977 21.14-46.415 2.556-5.54 5.438-10.925 8.152-16.391.774-1.555 1.922-2.411 3.712-2.606 6.37-.686 12.728-1.469 19.089-2.2 2.023-.231 4.074-.316 6.073-.665.59-.106 1.294-.795 1.538-1.388 2.353-5.682 4.539-11.436 6.936-17.098 1.579-3.737 3.427-7.361 5.202-11.136-.232-.016-.452-.069-.664-.04-2.694.329-5.389.945-8.083.945-4.608.009-9.048.897-13.546 1.668-4.346.747-8.771 1.141-13.191.455-2.617-.406-4.929-1.4-6.622-3.579-.256-.333-.899-.573-1.335-.528-8.307.82-16.61 1.672-24.913 2.549-7.53.795-15.051 1.672-22.585 2.418-1.75.175-2.898.804-3.83 2.342-8.784 14.504-17.673 28.944-26.448 43.448-9.381 15.507-18.67 31.066-27.998 46.601-1.046 1.745-2.109 3.482-3.122 5.244-.48.832-1.074 1.246-2.092 1.246-11.124-.029-22.251-.017-33.375-.021-.29 0-.61.037-.863-.069-.224-.093-.525-.357-.525-.548 0-.19.297-.515.509-.555.517-.098 1.062-.086 1.595-.086 10.298 0 20.6-.04 30.897.033 1.7.012 2.702-.463 3.602-1.973 10.187-17.113 20.407-34.207 30.709-51.248 8.722-14.431 17.59-28.773 26.33-43.192 1-1.652 2.275-2.265 4.098-2.455 11.392-1.189 22.772-2.46 34.16-3.681 4.246-.455 8.499-.84 12.748-1.266.358-.037.712-.147 1.315-.272l.016.008Zm60.506 29.313c2.707-.394 5.104-.682 7.465-1.132.497-.094 1.038-.715 1.282-1.226 1.111-2.313 2.247-4.627 3.159-7.021 6.504-17.057 13.073-34.094 19.394-51.22 6.96-18.85 13.696-37.786 20.505-56.694 3.085-8.567 6.097-17.159 9.162-25.73.639-1.79.667-1.733 2.515-1.083 1.877.657 3.785 1.217 5.678 1.818 1.062.337 1.469-.11 1.347-1.14-.146-1.25-.244-2.508-.496-3.738a10547.215 10547.215 0 0 0-6.533-31.72c-.089-.442-.293-.86-.513-1.497-14.689 7.71-29.41 14.894-43.497 23.323 2.08 1.023 4.094 1.708 6.04 2.552 2.54 1.1 2.759 1.68 1.913 4.262-.179.552-.35 1.116-.611 1.631-4.257 8.372-8.531 16.736-12.8 25.105-.253.495-.493.998-.725 1.473.554.353.989.572 1.356.872 2.137 1.77 2.12 1.77.378 4.018-.313.406-.785.946-.72 1.352.366 2.244-1.119 3.096-2.731 3.928-1.026.532-2.271.913-2.98 1.737-2.466 2.857-5.042 5.69-7.021 8.88-4.188 6.748-8.03 13.708-12.006 20.587-.611 1.059-1.189 2.135-1.913 3.446.997 0 1.672-.008 2.344 0 6.264.085 12.524.154 18.788.272 2.189.04 2.653.592 2.413 2.763-.907 8.259-3.077 16.254-5.124 24.273-.269 1.047-.956 1.473-2.019 1.514-2.279.089-4.558.243-7.184.389.957.211 1.584.309 2.182.487 3.989 1.189 7.481 3.016 8.372 7.528a12.79 12.79 0 0 1 .021 4.757c-1.645 8.697-3.387 17.377-5.169 26.05-.603 2.93-1.433 5.815-2.272 9.176v.008Zm-31.616-63.281c.146-1.766.362-3.202.366-4.639.029-10.259 0-20.519.033-30.778 0-1.16-.473-1.77-1.535-1.87a86.108 86.108 0 0 0-5.511-.334c-.476-.016-.96.244-1.55.406.35.56.675.897.793 1.295.517 1.737 1.197 3.466 1.392 5.247.163 1.498-.956 2.508-2.344 2.346-3.46-.402-6.472-1.765-8.393-4.813-.533-.844-1.058-1.242-1.962-.999-2.381.634-4.819 1.137-7.098 2.03-3.085 1.209-5.063 3.47-5.482 6.915-.306 2.496-.851 4.963-1.071 7.463-.134 1.518.082 3.08.277 4.606.045.357.655.938.977.922 2.002-.11 3.997-.443 5.999-.548 2.1-.11 2.454-.406 2.316-2.5-.118-1.786-.326-3.572-.326-5.353 0-.958.005-2.334 1.344-2.37 1.314-.037 1.465 1.31 1.497 2.28.082 2.22.106 4.457-.085 6.668-.09 1.031-.741 2.009-1.119 3.02-.094.251-.245.564-.171.787.61 1.883 1.042 3.872 1.953 5.605 1.559 2.966 3.757 4.963 7.599 4.683 3.948-.288 7.933-.065 12.105-.065l-.004-.004Zm-12.951 11.067c-.603-.552-1.099-1.157-1.726-1.55-1.929-1.214-3.899-2.362-5.877-3.491-.452-.255-.998-.349-1.506-.503-.774-.231-1.299.02-1.628.779-.582 1.331-1.25 2.626-1.807 3.965-2.19 5.235-4.294 10.515-4.771 16.233-.39 4.708.664 5.913 4.245 7.374 1.38.565 2.858 1.064 4.331 1.218 5.446.572 10.916.909 16.358 1.489 3.293.353 5.609-1.104 7.562-3.453 3.562-4.286 7.098-8.588 10.631-12.894.228-.275.35-.633.595-1.075-.607-.191-1.051-.357-1.51-.475-2.634-.669-5.377-1.067-7.872-2.074-2.039-.823-4.017-.888-6.093-.88-3.35.012-6.704.073-10.053-.016-.79-.021-1.791-.341-2.3-.885-1.314-1.412-.867-2.533 1.417-3.754l.004-.008Zm14.257 25.246c.362 0 .827.033 1.286-.004 3.236-.276 6.472-.568 9.704-.852 2.014-.178 3.663-.844 4.859-2.678 1.054-1.616 2.483-1.96 4.054-1.36.444.171 1.022.601 1.087.986.065.39-.322 1.064-.704 1.283-1.172.665-2.393 1.294-3.676 1.704-1.107.353-1.815.93-2.372 1.932-4.119 7.435-7.184 15.336-10.294 23.213-.671 1.697-1.294 3.413-1.986 5.244.472.052.749.126 1.018.101 2.946-.276 5.897-.503 8.824-.905.63-.085 1.4-.698 1.725-1.278a822.515 822.515 0 0 0 8.535-15.69c.79-1.489 1.657-3.06 1.901-4.679.619-4.058 1.119-8.157 1.221-12.252.045-1.757-.684-3.754-1.644-5.271-2.096-3.324-5.686-4.688-9.223-5.958-.305-.11-.94.211-1.197.519-4.375 5.276-8.714 10.584-13.114 15.945h-.004Zm.778-70.249c-.135.017-.265.037-.399.053 0 5.126-.016 10.247.008 15.373.012 2.658.22 5.32.106 7.97-.269 6.12-.692 12.232-1.018 18.348-.036.661.029 1.392.285 1.984.159.37.761.743 1.189.768 1.436.089 1.79-.999 2.104-2.123 1.656-5.966 3.256-11.948 5.035-17.881 1.274-4.245 1.388-4.289 5.763-4.229 1.774.025 2.825-.56 3.7-2.122 3.077-5.487 6.292-10.897 9.45-16.343.481-.828.928-1.676 1.392-2.512-6.027 4.444-11.762 6.23-15.714 4.748-.354 2.654-.452 2.809-3.122 3.356-1.897.39-3.818.703-5.739.942-2.08.26-2.658-.357-2.719-2.475-.057-1.957-.211-3.909-.321-5.865v.008Zm33.712 21.546v.223c.965 0 1.938-.089 2.886.033.623.077 1.205.458 1.807.702-.358.414-.724.823-1.074 1.246-.464.555-.953 1.095-1.368 1.688-.887 1.27-1.668 2.617-2.609 3.847-2.385 3.121-5.421 5.365-10.208 3.746-2.421-.82-3.854.049-4.725 2.496-.472 1.323-.794 2.698-1.311 4.001-.899 2.273-2.267 2.756-4.497 1.721-.35-.162-.7-.353-1.066-.459-1.075-.312-1.82 0-2.035 1.181-.159.857-.289 1.717-.464 2.569-.237 1.161-.933 1.697-2.162 1.705-1.453.008-2.902.138-4.351.259-2.373.195-4.766 1.153-7.098-.247-.212-.126-.57-.02-.863-.008-2.279.077-4.554.162-6.834.239-.777.024-1.571-.057-2.324.077-.427.077-.789.503-1.18.771.395.353.745.792 1.201 1.031.305.162.761.053 1.148.049 4.562-.069 9.125-.134 13.683-.219 10.725-.199 21.45-.431 32.175-.585 1.388-.02 1.986-.539 2.279-1.834 1.201-5.337 2.515-10.645 3.679-15.99.485-2.216.717-4.484 1.018-6.737.106-.787-.09-1.493-1.103-1.505-1.535-.016-3.069-.004-4.604-.004v.004Zm-13.687 76.04c.366.11.59.248.806.231 2.222-.174 4.452-.332 6.662-.612.371-.049.859-.633.961-1.051 2.926-11.688 6.04-23.34 7.391-35.352.395-3.503-.513-6.51-3.809-8.275-4.807-2.569-10.001-2.869-15.296-2.24-.407.048-.781.389-1.404.718.692.321 1.091.475 1.461.686 2.304 1.327 4.75 2.463 6.862 4.042 3.899 2.918 5.641 6.903 4.425 11.749-.766 3.039-1.946 5.969-2.902 8.964a51.276 51.276 0 0 0-1.132 4.034c-1.193 5.134-2.348 10.28-3.529 15.418-.126.548-.317 1.079-.5 1.692l.004-.004Zm16.036-74.206c-.09-.142-.183-.28-.273-.422-.513 0-1.025.024-1.538 0-2.662-.146-5.324-.288-7.982-.467-4.782-.316-9.565-.612-14.339-1.01-1.738-.146-2.552.596-2.991 2.179-1.714 6.144-3.488 12.277-5.239 18.413-.268.941-.545 1.883-.842 2.901h1.485c.436 0 .871-.016 1.311-.02 1.34-.008 2.126-.69 2.357-2.045.651-3.848 1.542-4.326 5.157-2.78.089.036.179.073.268.113 1.103.548 1.893.22 2.316-.896.48-1.267.936-2.541 1.331-3.836.871-2.836 2.873-5.007 6.927-3.607 2.276.787 4.665.552 6.35-1.311 2.055-2.269 3.817-4.797 5.71-7.212h-.008Zm-41.69-39.629c-.269-2.175-.464-4.338-.847-6.469-.085-.47-.879-1.217-1.262-1.169-3.264.398-6.516.917-9.764 1.47-2.002.34-2.234.702-2.186 2.702.029 1.226.395 2.561-1.098 3.32-.184.093-.269.495-.294.767-.329 3.283.631 6.01 3.395 8.027 1.97 1.437 2.332 3.389 1.184 5.491-.171.317-.374.739-.293 1.043.472 1.818 2.231 3.06 4.148 3.064.997 0 1.441-.308 1.172-1.396-.297-1.218-.582-2.46-.659-3.701-.11-1.847.631-2.979 2.336-3.356 2.027-.45 2.959-1.806 3.313-3.604.399-2.033.578-4.107.859-6.18l-.004-.009Zm20.879 19.492c6.871-.78 12.06-4.407 15.784-9.975 2.768-4.132 4.994-8.628 7.404-12.99.244-.44.118-1.08.163-1.628-.464.3-.953.568-1.376.917-.208.17-.256.515-.423.755-1.014 1.453-1.824 3.133-3.102 4.302a171.279 171.279 0 0 1-10.44 8.802c-1.412 1.096-3.186 1.814-4.892 2.427-1.367.49-3.374.097-4.2.953-.863.897-.684 2.813-.916 4.29-.33 2.102-.191 2.236 1.99 2.147h.008ZM176.562 203.34c3.858-6.01 7.697-11.996 11.669-18.185-.668-.097-.9-.174-1.123-.154-2.894.276-5.792.532-8.674.901-.443.057-1.025.584-1.188 1.027a579.024 579.024 0 0 0-4.514 12.71c-.122.353-.008 1.023.248 1.23 1.05.832 2.202 1.542 3.586 2.48l-.004-.009Zm-1.893 3.081c-1.404-1.112-2.495-2.074-3.691-2.87-.411-.275-1.36-.401-1.616-.15-1.535 1.514-3.069 3.064-4.319 4.805-.423.589-.354 1.989.07 2.646 2.084 3.251 5.006 5.625 8.588 7.11 1.131.467 2.385.735 3.235-.612.859-1.364.782-2.37-.59-3.596-2.369-2.122-4.094-4.314-1.677-7.329v-.004Zm-23.053-97.83c-1.949-.113-3.781-.202-5.608-.336-1.034-.077-1.567.3-1.551 1.375.02 1.498-.061 3.004.036 4.497.131 2.021.859 3.721 2.776 4.793 1.82 1.018 3.476 2.337 5.336 3.255 2.442 1.201 5.088.763 7.884.69-2.23-1.871-4.156-3.653-6.252-5.195-2.58-1.899-3.288-4.391-2.873-7.382.077-.572.171-1.141.252-1.697Zm35.87-28.16c-.431-.06-1.152-.3-1.848-.235-2.588.23-5.173.531-7.745.905-.293.04-.802.848-.7 1.05 1.274 2.618 1.412 5.402 1.355 8.223-.02.937.436 1.376 1.331 1.266 1.921-.235 3.834-.523 5.747-.795 1.372-.195 1.954-.905 1.893-2.366-.11-2.59-.033-5.187-.033-8.044v-.004Zm17.152 102.894c-2.105.162-4.022.365-5.943.438-1.078.041-1.612.524-1.746 1.53-.399 2.967-.895 5.925-1.148 8.908-.289 3.433-.179 3.405 3.151 4.505 1.07.353 1.559.203 1.86-.946 1.148-4.346 2.385-8.672 3.577-13.007.11-.397.147-.815.253-1.428h-.004ZM164.734 56c-.35-.174-.537-.292-.741-.37-6.39-2.377-12.1.756-15.055 5.557-1.14 1.854-1.229 3.806-.281 5.827.395.844.635 1.802.737 2.732.216 1.972 1.188 3.352 2.975 4.139.407.178.916.126 1.193.158-.623-1.765-1.303-3.356-1.718-5.012-.252-1.002.012-2.216 1.176-2.52 1.242-.329 1.262-1.043 1.25-2.037-.065-4.355 2.12-7.127 6.414-8.056 1.254-.272 2.565-.276 4.054-.422l-.004.004Zm36.082 146.622c-2.072-.836-3.867-1.485-5.593-2.285-.785-.365-1.306-.385-1.615.447-.452 1.217-.904 2.447-1.201 3.705-.081.353.33 1.169.594 1.205 2.613.374 4.245 2.2 6.04 3.823.969.877 1.954 1.757 3.037 2.476 1.306.864 2.063.446 2.291-1.116.24-1.66-.562-2.918-1.689-3.981-1.351-1.279-2.658-2.529-1.868-4.278l.004.004Zm-26.68-75.058c-1.897-2.098-13.696-4.046-17.245-3.137 1.909 1.351 3.826 2.715 5.755 4.058.183.126.456.175.684.171 2.698-.057 5.401-.073 8.095-.24.863-.053 1.702-.519 2.711-.852Zm25.19 40.806-.33-.085a10111.78 10111.78 0 0 0-7.936 14.427c-.061.11-.033.272-.061.536 1.095-.065 2.177.012 3.174-.244.586-.15 1.343-.742 1.502-1.286 1.286-4.428 2.45-8.892 3.655-13.344l-.004-.004ZM168.792 59.717c-2.357-2.755-7.522-3.003-10.729-.827-2.348 1.59-3.358 5.154-2.092 7.434 0-.442.025-.872 0-1.302-.167-2.57.48-3.474 2.963-3.929 1.425-.26 2.874-.398 4.315-.596 1.758-.244 3.512-.491 5.551-.78h-.008Zm5.438 60.733-.041-.41c-.411-.122-.818-.353-1.229-.353-4.681-.024-9.365-.016-14.046-.016l-.195.474c1.685.853 3.357 2.37 5.063 2.411 2.947.069 5.922-.743 8.873-1.262.557-.097 1.05-.552 1.571-.84l.004-.004Zm27.998 36.265c.098.02.195.04.297.065.46-1.806.961-3.604 1.364-5.422.59-2.646.057-5.122-1.535-7.293-2.751-3.758-6.707-5.726-11.022-7.11-.032-.008-.105.118-.236.268 1.038.446 2.068.844 3.057 1.323 6.109 2.958 9.5 6.834 8.38 14.054-.211 1.355-.207 2.747-.305 4.119v-.004Zm-36.2-.004-17.782-2.415c5.592 4.411 11.746 2.605 17.782 2.415Zm55.33-93.528-.297-.333c-4.518 1.34-6.024 5.26-7.823 8.705 2.059-1.343 4.212-2.751 6.365-4.16l-.264-.36c-.761.495-1.494 1.047-2.3 1.452-.313.159-.793-.016-1.196-.04.085-.43.02-1.04.281-1.258.728-.613 1.636-1.007 2.397-1.587.985-.755 1.896-1.611 2.837-2.423v.004Zm-53.567 60.635 6.569 1.55c.069-1.026.138-2.106.212-3.185-2.442.588-4.734 1.14-6.781 1.635Zm-4.681-35.806c2.308 1.084 4.017 1.323 4.135.629.216-1.246-.073-2.577-.171-3.872-.012-.162-.162-.312-.317-.588-.028 3.697-.317 4.014-3.647 3.83Zm-9.149-15.917.557-.089c0-1.213.033-2.43-.028-3.644-.013-.232-.399-.443-.611-.662-.224.268-.671.564-.639.791.175 1.21.468 2.403.725 3.604h-.004Zm-1.262 39.467c-.285 2.009.13 3.527 2.019 4.59-.692-1.579-1.311-2.983-2.019-4.59Zm34.942 22.654c1.38.178 2.743 1.769 4.444 0h-4.444Zm-4.97.349c-.024.109-.053.223-.077.332 2.259.568 4.518 1.141 6.777 1.709.036-.15.073-.304.105-.455-2.267-.527-4.538-1.059-6.805-1.586Zm6.012-49.126c.093-.012.183-.02.277-.032.199-1.254.402-2.509.602-3.758-.224-.02-.452-.041-.676-.066-.069 1.287-.134 2.57-.203 3.856Zm6.658 66.219-.293-.633-2.258 1.096.231.503c.774-.321 1.547-.645 2.32-.966Zm4.225 49.219c.057-.195.118-.39.175-.584-.879-.28-1.758-.556-2.637-.836-.049.142-.094.284-.143.426.867.333 1.734.665 2.605.994Zm-29.891-70.984v-.174h-5.026v.174h5.026Z" fill="#000"/></svg>