<svg width="67" height="32" viewBox="0 0 67 32" fill="none" xmlns="http://www.w3.org/2000/svg"><g clip-path="url(#a)"><path d="M27.74 0C24.8-.043 22.193 2.332 22.193 5.77v15.478c.003.557-.413 1.051-1.019 1.051h-4.838c-10.47.013-9.534-13.384-.623-13.397 3.962-.006 5.347 0 5.347 0V5.148h-5.537c-3.469.005-6.095 1.326-7.862 3.296-1.767 1.97-2.671 4.593-2.67 7.2.002 2.51.858 5.114 2.645 7.088 1.788 1.974 4.507 3.324 8.264 3.324h9.133a.988.988 0 0 0 .975-.969V6.177c-.006-.989.507-1.784 1.332-2.047.8-.255 1.679.077 2.208.83l.003.004.002.003c1.283 2.103 4.49 7.262 7.386 11.912a10974.326 10974.326 0 0 0 5.053 8.104l.472.756c.213.302.482.416.706.345a.506.506 0 0 0 .303-.276c.074-.148.119-.352.119-.598V6.18c-.004-.986.506-1.783 1.334-2.044.795-.255 1.676.076 2.2.83l.002.003.002.003c1.287 2.102 4.495 7.26 7.392 11.911 2.895 4.648 5.484 8.794 5.525 8.859.21.3.495.42.734.345a.528.528 0 0 0 .31-.28 1.3 1.3 0 0 0 .123-.594V.117h-3.787V14.77s-2.345-3.977-6.343-10.84C47.172-2.795 39.79-.016 39.787 5.77v8.997s-2.289-3.98-6.284-10.843C31.914 1.195 29.75.03 27.74 0ZM16.208.118c-21.763-.003-21.557 31.002.293 31.016h8.537c3.674.003 6.033-2.176 6.03-6.192v-7.854s4.789 7.939 6.668 11.046c3.197 5.284 10.932 4.245 10.913-2.355v-8.685s4.788 7.935 6.67 11.047c3.197 5.282 10.933 4.242 10.913-2.36V.118h-3.781v25.095c.003 1.187-.662 1.85-1.296 2.05-.773.246-1.613-.083-2.136-.832l-.002-.003-.001-.002c-.108-.173-10.356-16.583-12.918-20.776-.213-.302-.524-.426-.8-.338-.287.092-.47.395-.47.868v19.028c.003 1.19-.65 1.852-1.28 2.055h-.001c-.762.24-1.59-.09-2.108-.838l-.002-.002v-.001c-.022-.033-.187-.297-.483-.77a5821.242 5821.242 0 0 1-5.06-8.114c-2.897-4.65-6.097-9.797-7.377-11.893-.212-.302-.526-.424-.803-.336-.29.092-.474.396-.471.865v18.914a2.212 2.212 0 0 1-2.21 2.203H15.9c-4.155 0-7.197-1.508-9.193-3.72-1.996-2.213-2.947-5.123-2.95-7.926-.003-2.909 1.004-5.837 2.982-8.042 1.977-2.205 4.926-3.683 8.781-3.689h5.54V.117h-4.852Z" fill="#EC1C2E"/></g><defs><clipPath id="a"><path fill="#fff" d="M0 0h66.233v31.508H0z"/></clipPath></defs></svg>