<svg width="2210" height="1992" viewBox="0 0 2210 1992" fill="none" xmlns="http://www.w3.org/2000/svg"><path opacity=".7" d="M431.966 0H57.862C19.298 71.993-39.82 853.626 38.579 979.613c238.416 383.127 620.198-123.498 884.829-536.371 17.742-27.68 60.585-14.208 58.951 18.629-26.484 532.42-98.098 785.299-65.729 1040.969 36.481 288.15 182.06 502.36 387.6 488.53 381.18-25.66 723.56-941.05 905.7-1991.37h-421.67c-99.33 491.963-205.5 831.609-359.31 1230.53-31.9 82.73-147.86 53.57-137.54-34.49C1355.12 652.512 1404.66 277.267 1322.87 0H789.358c-138.72 199.515-230.745 337.346-371.414 555.014-18.013 27.873-62.711 11.512-59.159-21.485 5.236-48.63 9.835-99.688 17.258-176.137L431.966 0Z" fill="#F6F6F6"/></svg>