<svg width="264" height="132" viewBox="0 0 264 132" fill="none" xmlns="http://www.w3.org/2000/svg"><g clip-path="url(#a)"><path d="M63.974 78.304c1.367-.895 2.687-1.933 2.687-4.007V61.286l-2.075-2.169-.8.802 1.79 1.885V74.25c0 1.744-.612 3.017-1.697 3.866l.095.188Zm-7.967-27.531v.141c.612.236 1.32.849 1.32 2.027V72.13l-.755.754 2.876 2.451.849-.707-2.31-1.885.424-.378V53.13c0-1.509-1.367-2.263-2.404-2.357Zm1.744 28.851c3.677-.282 7.307-1.508 7.307-5.421V61.946l-1.65-1.65-1.839 1.791v9.193l1.509 1.367-3.489 3.112h-.33l-3.394-2.923.943-.896V53.177c0-1.414-1.179-2.168-1.933-2.31v-.33c.33-.188.849-.283 1.509-.283 1.178 0 2.263.708 2.593 1.462h.094c.707-1.037 1.838-1.462 2.923-1.509.33 0 .707.047 1.084.142v.377c-.613.188-1.509.943-1.509 2.781v7.779l4.526-4.337h.33c.33.33 2.31 2.121 2.687 2.357.189.094.425.188.613.188.377 0 .613-.141.943-.282v.47c-.377.33-.802.944-.802 1.698v10.607c0 4.715-5.138 7.543-12.115 8.062v-.425Zm20.884-20.46-.896.66a181.567 181.567 0 0 0 3.725 4.29l.942-.66c-1.367-1.461-2.687-3.064-3.77-4.29Zm-1.084 7.543 3.394-2.31c-1.178-1.367-2.404-2.734-3.394-3.866v6.176Zm2.215 7.826c-2.027-.943-3.865-1.65-5.515-2.546.094-.613.141-1.32.141-3.3v-7.684l-1.084.566v7.165c0 1.98-.047 3.253-.189 3.819 1.603.896 3.866 1.838 5.94 2.734l.707-.754Zm-7.024-13.294c2.027-.99 5.044-2.782 7.072-4.243h.377c1.32 1.367 3.253 3.583 4.903 5.044v.377L77.55 67.32v3.017c.801.472 2.97 1.603 4.29 2.027l3.017-2.922.377.377-6.081 5.892h-.377c-2.028-.895-4.715-2.027-6.412-2.97.189-.612.377-2.215.377-4.148v-7.354Zm154.393 17.018c1.367-.895 2.687-1.933 2.687-4.007V61.239l-2.074-2.169-.802.801 1.792 1.886v12.446c0 1.744-.66 3.017-1.697 3.866 0 .047.094.188.094.188Zm-7.92-27.531-.047.141c.613.236 1.367.849 1.367 2.027v19.14l-.754.755 2.875 2.451.849-.707-2.31-1.886.424-.377V53.083c-.047-1.509-1.414-2.263-2.404-2.357Zm1.697 28.851c3.677-.283 7.307-1.508 7.307-5.421V61.899l-1.65-1.697-1.838 1.79v9.194l1.508 1.367-3.488 3.111h-.33l-3.442-2.922.943-.896V53.13c0-1.414-1.178-2.169-1.933-2.31v-.33c.33-.189.849-.283 1.509-.283 1.178 0 2.263.707 2.593 1.462h.094c.707-1.037 1.839-1.462 2.923-1.509.33 0 .707.047 1.084.142v.377c-.613.188-1.461.942-1.461 2.781v7.826l4.525-4.337h.33c.33.33 2.31 2.121 2.688 2.357.188.094.424.188.66.188.377 0 .66-.141.942-.282v.66c-.377.33-.801.942-.801 1.697v10.465c0 4.715-5.139 7.543-12.116 8.062l-.047-.519Zm-97.633-20.413-.895.66a181.297 181.297 0 0 0 3.724 4.29l.943-.66c-1.32-1.461-2.687-3.111-3.772-4.29Zm-.99 7.496 3.395-2.31c-1.179-1.367-2.405-2.734-3.395-3.866v6.176Zm2.169 7.826c-2.027-.943-3.866-1.65-5.516-2.546.094-.613.142-1.32.142-3.3v-7.684l-1.085.566v7.165c0 1.98-.047 3.253-.188 3.819 1.603.895 3.865 1.838 5.94 2.734l.707-.754Zm-6.977-13.295c2.027-.99 5.044-2.781 7.071-4.242h.377c1.32 1.367 3.253 3.583 4.903 5.044v.377l-7.543 4.903v3.017c.755.471 2.97 1.603 4.29 2.027l3.017-2.923.378.377-6.082 5.893h-.377c-2.074-.895-4.714-2.027-6.411-2.97.188-.612.377-2.168.377-4.148V61.19Zm18.668 13.248c-1.367-.377-2.734-1.273-2.734-3.159V54.12l-1.509-1.556-.801.802 1.226 1.273v17.065c0 1.933 1.555 3.159 3.017 3.536l.801-.801Zm.472-21.78v18.15c0 .754.754 1.508 1.461 1.65l1.084-1.085.33.377-3.865 3.96h-.189c-1.461-.33-3.583-1.65-3.583-3.912V54.92l-1.084-1.084-1.131 1.132-.33-.377 4.337-4.385h.283l2.687 2.452Zm10.418 6.505-.895.66a181.297 181.297 0 0 0 3.724 4.29l.943-.66c-1.32-1.508-2.687-3.111-3.772-4.29Zm-1.037 7.496 3.394-2.31c-1.178-1.367-2.404-2.734-3.394-3.866v6.176Zm2.169 7.826c-2.027-.943-3.866-1.65-5.516-2.546.094-.613.141-1.32.141-3.3v-7.684l-1.084.566v7.165c0 1.98-.047 3.253-.188 3.819 1.602.895 3.865 1.838 5.94 2.734l.707-.754Zm-6.977-13.295c2.027-.99 5.044-2.781 7.071-4.242h.377c1.32 1.367 3.253 3.583 4.903 5.044v.377l-7.496 4.903v3.017c.755.471 2.97 1.603 4.29 2.027l3.017-2.923.378.377-6.129 5.893h-.377c-2.027-.895-4.714-2.027-6.412-2.97.189-.612.378-2.168.378-4.148V61.19Zm38.138-.848c.613.566 1.462 1.367 2.169 1.98l.707-.801c-.66-.613-1.697-1.462-2.169-1.98-.047-.048-.707.8-.707.8Zm-1.838 14.096c-1.415-.377-2.735-1.273-2.735-3.159V60.909l-1.461-1.509-.849.802 1.226 1.272v10.277c0 1.933 1.556 3.159 3.017 3.536l.802-.848Zm.424-12.493v8.91c0 .801.707 1.461 1.461 1.603l1.085-1.038.33.378-3.866 3.96h-.236c-1.461-.33-3.536-1.65-3.536-3.913V61.663l-1.084-1.084-1.131 1.131-.377-.377 4.337-4.384h.33l2.734 2.687v1.461l3.489-4.148h.33c.707.707 1.791 1.744 2.734 2.451v.047l-2.923 3.489h-.047c-.802-.707-1.886-1.697-2.499-2.31-.094.047-1.131 1.32-1.131 1.32Zm14.991 9.57V66c-1.084-.283-2.215-.754-3.3-1.273v6.836l1.933 1.178 1.367-1.225Zm4.385 2.97c-1.32-.472-2.735-1.462-2.735-3.3v-9.57l-5.233-2.64c-.141.094-.754.518-.942.66l5.044 2.64v9.287c0 1.791 1.65 3.159 3.017 3.677l.849-.754Zm-4.385-9.052V62.56l-4.95-2.593c-.377.283-1.697 1.084-2.121 1.32 1.178 1.556 4.243 3.441 7.071 4.148Zm-2.97 8.957-3.488-2.31v-5.138l-1.037.801v4.998l3.724 2.498c0-.047.801-.849.801-.849Zm-.895 1.32-4.196-2.781v-5.469c1.037-.754 3.253-2.262 4.29-3.017-1.65-.895-3.064-1.98-3.913-3.017v-.377c2.499-1.414 4.29-2.734 5.799-4.101h.33s5.138 2.451 5.421 2.545c.283.142.471.236.754.236.377 0 .66-.094 1.037-.283v.566a1.962 1.962 0 0 0-.801 1.603v9.193c0 .942.849 1.603 1.461 1.744l1.085-1.084.33.377-3.866 3.96h-.236c-1.508-.424-3.205-1.886-3.488-3.583l-3.725 3.63c-.047-.094-.282-.094-.282-.141Zm-25.458-4.195v-9.523l-3.488-1.509v10.843l2.168 1.462 1.32-1.273Zm1.65-10.607-5.138-2.169v1.131l4.007 1.745v10.466c0 2.262.99 4.714 2.499 6.6l.801-.802c-1.32-1.744-2.216-3.677-2.216-5.94l.047-11.031Zm-5.515 14.284.848-.754-3.677-2.357v-11.22l-1.037.754V72.6l3.866 2.593Zm-1.462 4.431c-1.367 0-2.545.613-3.253 1.556v.189c.802-.472 1.745-.755 3.253-.755 1.792 0 4.102.519 5.422 1.226l.707-.849c-1.556-.754-3.771-1.367-6.129-1.367Zm-2.97-6.788v-11.55l6.129-4.29h.377c1.179.518 5.139 2.168 5.61 2.404.189.047.424.142.66.142.377 0 .754-.142 1.179-.33v.66c-.378.33-.849 1.037-.849 1.602v9.806c0 2.31.472 3.63 1.414 4.573v.377c-1.367 1.367-4.478 4.573-5.845 6.27h-.236c-1.32-.754-3.583-1.32-5.422-1.32-1.367 0-2.875.377-4.054 1.273l-.283-.236c1.037-2.451 3.3-4.95 6.176-4.95 1.791 0 4.149.755 6.129 1.839-1.368-1.556-2.593-4.432-2.64-6.836l-3.63 3.489h-.283l-4.432-2.923Zm54.78-12.823 1.886 1.839V71.94l1.084-.613V61.286l-2.121-2.122-.849.849Zm.755 15.51c.188-.283.565-.66.754-.896l-3.724-.801v1.037l2.97.66Zm.565-3.583v-9.947l-1.65-1.697-1.838 1.744v9.193c.801.188 3.064.613 3.488.707Zm-7.731 6.836-.754.707 2.781 2.404.849-.754-2.169-1.839.377-.377V61.003l-1.556-1.556-.754.755 1.226 1.272v17.302Zm4.196-17.49 4.525-4.29h.33c.33.33 2.405 2.168 2.735 2.404.188.094.424.142.612.142.378 0 .66-.142.943-.283v.612c-.377.283-.801.943-.801 1.698v11.078c-1.933.472-3.489 1.509-5.139 3.442h-.141l-3.017-.613v2.451l1.555 1.414-3.677 3.065h-.188l-3.442-2.923.943-.99V74.39c-.377-.094-1.084-.188-1.414-.282v-.519c.424-.189 1.508-1.226 1.508-2.121V61.71l-1.084-1.084-1.131 1.131-.377-.377 4.337-4.384h.33l2.734 2.687-.141 1.603ZM42.146 66.66l-.047-4.808-1.084.754v4.478c0 .472-.094.896-.236 1.226h.142c.66-.424 1.226-1.084 1.226-1.65Zm-5.562-7.543c-1.556 1.556-3.018 3.725-3.018 6.459 0 6.506 4.385 9.806 9.948 9.806 3.441 0 5.892-1.886 7.307-3.3l-.094-.142c-1.603 1.32-3.82 2.357-7.213 2.357-4.479 0-8.816-2.734-8.816-8.768 0-2.357.896-4.715 2.027-6.317l-.141-.095Zm11.927-2.545c-4.149 0-7.92-2.028-10.937-2.028-1.933 0-4.196.802-4.997 3.065l.14.047c.897-1.556 3.018-2.075 4.857-2.075 3.017 0 6.788 2.075 10.937 2.075 3.347 0 5.28-1.132 5.61-3.819l-.189-.047c-.471 2.027-2.074 2.782-5.421 2.782ZM33 65.576c0-4.432 3.347-7.496 6.458-8.863l.236.283c-1.131 1.32-1.933 2.593-1.933 5.28 0 3.064.802 5.185 2.075 6.6.424-.472.66-1.226.66-1.886v-4.573l5.61-4.007.235.33c-.471.707-.754 1.367-.754 2.451v2.923c0 2.027-3.347 4.243-5.422 5.092 1.368 1.32 3.3 1.885 5.422 1.885.754 0 1.461-.047 2.074-.141V58.08c-1.838-.094-3.583-.613-5.185-1.037-1.698-.519-3.442-.943-4.903-.943-2.263 0-4.997.754-5.045 4.054 0 .283.047.613.095.943l-.425.142c-.377-1.037-.612-2.027-.612-3.017-.048-3.96 2.875-7.45 7.59-7.45 1.98 0 3.865.472 5.468.944 1.744.518 3.489.943 5.28.943.896 0 1.414-.472 1.414-1.32 0-.849-.471-1.226-1.131-1.415l.094-.424c2.027.377 4.243 1.556 4.243 4.102 0 3.064-2.216 4.525-5.987 4.525h-.377v12.729c2.451-.472 4.101-1.603 5.327-3.583l.377.236c-1.367 4.337-4.573 8.485-10.324 8.485C37.762 75.947 33 72.553 33 65.576Zm70.62 1.084-.047-4.808-1.085.754v4.478c0 .472-.094.896-.235 1.226h.141c.707-.424 1.226-1.084 1.226-1.65Zm-5.516-7.543c-1.556 1.556-3.017 3.725-3.017 6.459 0 6.553 4.384 9.806 9.947 9.806 3.441 0 5.893-1.886 7.26-3.3l-.094-.142c-1.603 1.32-3.819 2.357-7.166 2.357-4.479 0-8.816-2.734-8.816-8.768 0-2.405.849-4.762 1.98-6.365l-.094-.047Zm11.927-2.545c-4.148 0-7.92-2.028-10.937-2.028-1.933 0-4.196.802-4.997 3.065l.141.047c.896-1.556 3.017-2.075 4.856-2.075 3.017 0 6.789 2.075 10.937 2.075 3.347 0 5.28-1.132 5.61-3.819l-.188-.047c-.472 2.027-2.075 2.782-5.422 2.782Zm-15.51 9.004c0-4.432 3.347-7.496 6.459-8.863l.188.283c-1.131 1.32-1.932 2.593-1.932 5.28 0 3.064.801 5.185 2.074 6.6.424-.472.66-1.226.66-1.886v-4.573l5.61-4.007.235.33c-.518.707-.754 1.367-.754 2.451v2.923c0 2.027-3.347 4.243-5.421 5.092 1.367 1.32 3.3 1.885 5.421 1.885.754 0 1.462-.047 2.074-.141V58.08c-1.838-.094-3.582-.613-5.138-1.037-1.697-.519-3.442-.943-4.903-.943-2.263 0-4.997.754-5.044 4.054 0 .283.047.613.047.943l-.424.142c-.378-1.037-.613-2.027-.613-3.017-.047-4.008 2.875-7.496 7.59-7.496 1.98 0 3.865.471 5.468.943 1.745.471 3.489.943 5.28.943.896 0 1.415-.472 1.415-1.32 0-.85-.425-1.273-1.085-1.462l.047-.424c2.028.377 4.243 1.556 4.243 4.101 0 3.065-2.215 4.526-5.94 4.526h-.377V70.76c2.452-.471 4.102-1.602 5.327-3.582l.377.235c-1.367 4.337-4.572 8.486-10.324 8.486-5.798.047-10.56-3.347-10.56-10.324Z" fill="#000"/></g><defs><clipPath id="a"><path fill="#fff" transform="translate(31.352 49.5)" d="M0 0h202.714v33H0z"/></clipPath></defs></svg>