<svg width="264" height="132" viewBox="0 0 264 132" fill="none" xmlns="http://www.w3.org/2000/svg"><g clip-path="url(#a)"><path fill-rule="evenodd" clip-rule="evenodd" d="M108.652 33.367c1.493-.139 2.987-.287 4.486-.373-.098 3.396-.022 6.796-.048 10.193.015.334-.052.7.122 1.003.254.208.593.273.865.458l-.077.246c-.921.162-1.85.272-2.773.414-.435.054-.873.18-1.312.091-.022-.367-.021-.738-.027-1.106-.508.437-1.052.87-1.711 1.049-1.144.325-2.505.023-3.277-.916-.742-.892-.92-2.11-.88-3.234.02-1.407.527-2.906 1.7-3.762 1.176-.845 2.748-1.1 4.146-.769-.015-.678.038-1.36-.029-2.036-.071-.697-1.192-.554-1.185-1.258Zm-.837 4.291c-.361.59-.44 1.3-.496 1.974-.059.968-.063 1.947.11 2.905.1.502.297 1.057.775 1.315.521.27 1.13.145 1.663-.018l.001-5.752c.045-.39-.25-.733-.584-.891-.518-.223-1.182-.025-1.469.467Zm-33.614-3.633c2.037-.019 4.074.001 6.112-.01l.024.386c-.355.099-.747.116-1.065.314-.217.232-.173.585-.197.878-.002 2.741-.003 5.483 0 8.224.004.305.032.714.377.827.511.125 1.05.095 1.569.028.344-.045.593-.316.768-.596.668-1.041 1.123-2.198 1.583-3.34.11 0 .328-.001.437-.003-.102 1.515-.216 3.028-.324 4.542-3.096-.005-6.192.012-9.288-.009l.031-.39c.454-.108 1.157-.19 1.111-.818.05-2.777.008-5.555.022-8.332-.024-.326.036-.713-.192-.983-.277-.2-.631-.234-.95-.33l-.018-.388Zm14.09 2.527c1.388-.145 2.89.188 3.941 1.147 1.37 1.25 1.599 3.355 1.04 5.047-.4 1.241-1.49 2.177-2.738 2.505-1.655.448-3.6.23-4.913-.944-.91-.806-1.328-2.042-1.33-3.232-.011-1.12.287-2.296 1.056-3.14.744-.836 1.847-1.273 2.944-1.383Zm.243.598c-.362.099-.549.468-.65.8-.207.689-.232 1.414-.266 2.127-.013 1.162-.024 2.33.14 3.484.069.373.148.773.407 1.065.291.296.755.278 1.135.225.479-.074.66-.594.746-1.007.23-1.242.189-2.512.171-3.768-.06-.822-.057-1.683-.407-2.446-.204-.486-.81-.624-1.276-.48Zm11.611-.558c.719-.148 1.549-.106 2.137.381.508.418.695 1.099.692 1.734.006 1.785-.006 3.57.003 5.355.017.2.003.47.219.573.245.12.516.178.777.26l-.021.382c-1.676-.01-3.352.01-5.029-.011l.025-.38c.233-.073.482-.118.693-.247.138-.206.112-.466.124-.699-.003-1.539.002-3.078-.002-4.616.005-.398-.08-.91-.513-1.057-.491-.134-1.01-.05-1.503.03.007 1.88.001 3.759.003 5.64.007.227-.007.47.098.68.221.147.485.202.733.289-.002.092-.01.278-.014.37-1.666-.005-3.334.004-5.003-.004.01-.133.018-.264.03-.396.287-.087.605-.133.846-.328.112-.226.093-.486.102-.731-.003-1.706-.003-3.41 0-5.115-.011-.244.012-.508-.102-.733-.277-.394-.84-.516-1.013-.992a56.333 56.333 0 0 1 4.245-.435c.014.441.008.884.012 1.326.742-.554 1.535-1.097 2.461-1.276Zm17.851-.034c1.365-.157 2.837.152 3.9 1.058 1.307 1.097 1.623 2.977 1.285 4.578-.189.906-.672 1.764-1.415 2.328-1.043.799-2.419 1.037-3.703.912-1.192-.115-2.384-.644-3.131-1.603-.721-.912-.953-2.121-.866-3.258.063-1.002.42-2.017 1.132-2.742.732-.757 1.764-1.161 2.798-1.273Zm.253.606c-.473.177-.614.733-.709 1.178-.223 1.277-.176 2.584-.143 3.876.047.752.044 1.55.396 2.237.251.47.871.476 1.328.381.484-.13.62-.69.707-1.118.208-1.324.16-2.673.124-4.009-.052-.712-.084-1.458-.404-2.11-.221-.48-.839-.595-1.299-.435Zm11.602-.572c.719-.148 1.549-.105 2.138.381.507.418.693 1.099.69 1.734.003 1.743-.002 3.485.001 5.23.02.236-.031.566.222.698.245.12.515.178.776.26l-.021.382c-1.676-.01-3.352.01-5.028-.01l.025-.383c.234-.07.481-.116.693-.244.14-.205.113-.467.125-.701-.003-1.54.001-3.078-.001-4.615.005-.398-.081-.91-.514-1.055-.491-.136-1.011-.051-1.504.028.009 1.88.001 3.76.003 5.64.007.228-.006.47.098.68.221.146.485.202.735.289-.004.092-.012.278-.014.37-1.668-.004-3.335.004-5.003-.004.007-.133.018-.264.027-.396.288-.087.607-.133.847-.328.109-.226.094-.486.103-.731-.004-1.706-.004-3.41-.001-5.115-.011-.244.012-.508-.102-.733-.279-.393-.837-.516-1.012-.99a56.507 56.507 0 0 1 4.245-.438c.013.442.007.885.011 1.327.742-.554 1.535-1.097 2.461-1.276Zm10.507 3.894c1.277-.225 2.714.052 3.66.987 1.402 1.352 1.28 3.945-.297 5.115-1.47 1.08-3.684 1.06-5.123-.069-1.409-1.115-1.593-3.397-.466-4.77.55-.683 1.371-1.11 2.226-1.263Zm-89.252 2.363c6.933-.012 13.866-.005 20.8-.004.097 2.822.23 5.64.324 8.462-.247-.053-.64.13-.773-.158-.81-1.857-1.66-3.717-2.828-5.38-.584-.848-1.507-1.458-2.54-1.567-1.273-.13-2.575-.117-3.834.127-.011 3.45-.006 6.898-.002 10.347 1-.013 2.014.054 3.001-.141.463-.082.91-.327 1.139-.751.645-1.13 1.025-2.388 1.355-3.64.227 0 .455 0 .682.002v10.457c-.226 0-.451.002-.677.003-.314-1.273-.694-2.541-1.308-3.706a1.605 1.605 0 0 0-1.123-.854c-1.009-.216-2.049-.155-3.072-.166.001 3.144-.008 6.29.004 9.435.02.606.053 1.372.644 1.717.638.344 1.393.313 2.098.335.963-.013 1.98.007 2.866-.433.613-.313 1.045-.874 1.42-1.434 1.385-2.106 2.43-4.414 3.337-6.76.25-.003.502-.004.754-.006-.169 3.304-.344 6.608-.518 9.912-7.25-.003-14.502.009-21.752-.005l.012-.641c.675-.195 1.396-.289 2.022-.624.648-.458.558-1.359.608-2.059.013-6.218.002-12.437.006-18.656-.017-.663.015-1.344-.187-1.984-.098-.327-.367-.574-.682-.69-.574-.219-1.18-.335-1.773-.498 0-.214-.002-.427-.003-.64Zm134.421 6.833c1.12-1.089 2.516-2.058 4.127-2.14.903-.065 1.95.218 2.422 1.058.42.799.403 1.855-.114 2.607-.506.699-1.476.786-2.256.62-.49-.098-.838-.508-1.013-.955-.194-.429-.32-1.003-.83-1.157-.619-.177-1.205.21-1.709.517.874.672 1.756 1.395 2.262 2.4.742 1.365.563 3.052-.036 4.435-.799 1.806-2.575 2.986-4.426 3.515-2.672.757-5.566.576-8.185-.3-.305.498-.571 1.064-.521 1.663.024.28.185.55.445.673.473.242 1.023.208 1.54.212 2.486.001 4.972-.008 7.458.005 1.532.03 3.156.239 4.446 1.135.906.612 1.487 1.622 1.686 2.686.337 1.83-.004 3.803-1.045 5.358-.945 1.43-2.388 2.469-3.948 3.139-2.234.96-4.701 1.245-7.114 1.185-1.622-.04-3.262-.15-4.828-.599-.878-.26-1.762-.651-2.375-1.355-.839-.953-.891-2.482-.15-3.508 1.009-1.407 2.804-1.87 4.427-2.117-.969-.318-1.988-.65-2.721-1.398-1.063-1.038-1.249-2.704-.832-4.075.444-1.461 1.58-2.588 2.835-3.399-1.237-.653-2.369-1.661-2.802-3.03-.532-1.692-.288-3.642.718-5.115.974-1.431 2.567-2.32 4.21-2.76 2.747-.715 5.745-.49 8.329.7Zm-5.755.041c-.561.177-.8.783-.91 1.31-.241 1.221-.213 2.473-.232 3.71.02 1.276-.003 2.568.265 3.821.12.557.387 1.192.988 1.362.615.148 1.433.122 1.813-.468.389-.623.427-1.383.503-2.094.086-1.534.084-3.073.017-4.607-.047-.695-.106-1.398-.317-2.064-.134-.425-.409-.858-.861-.986a2.286 2.286 0 0 0-1.266.016Zm-3.241 19.344c-.515.752-.574 1.702-.61 2.584-.04.919.126 1.937.828 2.593.857.8 2.09.958 3.212 1.007 1.555.013 3.17-.086 4.604-.743.919-.41 1.718-1.204 1.907-2.22.176-.873.084-1.924-.617-2.552-.661-.563-1.572-.67-2.407-.71-1.534-.017-3.068-.002-4.601-.007-.772.032-1.557-.067-2.316.048ZM96.729 50.062c2.11-1.25 4.639-1.68 7.06-1.414 2.026.177 4.103.914 5.473 2.477 1.574 1.778 2.082 4.235 2.126 6.548-4.03-.005-8.06-.001-12.091-.001.066 1.756.193 3.577.977 5.183.467.97 1.279 1.78 2.286 2.18 1.171.475 2.462.533 3.71.5 1.515-.087 3.064-.418 4.342-1.274-.024.303.085.665-.149.91-1.989 2.538-5.224 3.976-8.428 3.922-2.388-.015-4.894-.548-6.773-2.107-1.754-1.43-2.709-3.627-3.021-5.829-.307-2.216-.239-4.55.621-6.642.748-1.86 2.138-3.443 3.867-4.453Zm3.887.157c-.514.563-.745 1.315-.92 2.04-.316 1.44-.369 2.92-.398 4.388 1.659-.114 3.318-.243 4.977-.367.004-1.546-.005-3.106-.284-4.633-.145-.682-.372-1.47-1.039-1.818-.753-.357-1.763-.25-2.336.39Zm25.035-1.412c1.64-.374 3.518-.379 4.947.62 1.269.873 1.805 2.463 1.822 3.948.02 4.226-.004 8.453.012 12.68.02.467 0 1.058.446 1.345.558.316 1.204.416 1.812.597.004.214.008.427.015.642-3.842.013-7.686.01-11.528.002l.015-.645c.515-.15 1.074-.212 1.533-.505.383-.314.322-.869.351-1.313.006-3.77.005-7.54.001-11.309-.012-.702-.111-1.496-.659-1.997-.547-.482-1.324-.462-2.006-.444a10.97 10.97 0 0 0-1.975.21c-.002 4.475-.01 8.95.005 13.424.038.49-.044 1.12.398 1.455.461.267 1.003.336 1.506.494-.005.211-.008.422-.009.635-3.824-.002-7.648.007-11.473-.005.003-.215.006-.43.011-.644.58-.172 1.191-.276 1.729-.563.48-.271.478-.891.494-1.372.003-4.186 0-8.374.002-12.56-.009-.542.038-1.101-.126-1.626-.124-.375-.445-.631-.746-.864-.502-.369-1.015-.722-1.513-1.094.001-.093.006-.278.008-.371 3.103-.327 6.204-.659 9.308-.966l.26.227c.005.959-.007 1.917.008 2.874 1.623-1.217 3.339-2.424 5.352-2.875Zm36.543.116c1.469-.409 3.093-.53 4.537.038 1.103.426 1.972 1.367 2.348 2.483.46 1.256.305 2.612.333 3.922.002 3.483-.001 6.966.002 10.448.029.547-.051 1.27.487 1.606.556.302 1.195.392 1.791.59-.005.212-.007.423-.007.636-3.839 0-7.677.004-11.515-.002.035-.212-.072-.482.081-.655.471-.161.987-.208 1.422-.467.387-.265.37-.792.396-1.21.007-3.815.003-7.632.003-11.45-.019-.69-.112-1.466-.638-1.968-.459-.43-1.126-.48-1.722-.472-.764.006-1.527.06-2.275.212-.002 4.515-.006 9.03.002 13.544.026.462-.024 1.065.416 1.354.453.249.974.327 1.467.464l.015.645c-3.826.012-7.653.002-11.479.005a44.767 44.767 0 0 0-.007-.634c.592-.2 1.233-.286 1.782-.6.455-.286.431-.888.453-1.36.009-4.269.001-8.537.004-12.805-.009-.44.01-.888-.104-1.315-.119-.419-.477-.7-.808-.95l-1.458-1.049c-.012-.125-.023-.25-.031-.375 3.014-.343 6.035-.633 9.052-.957.217-.068.384.087.553.196-.012.961-.015 1.923.002 2.884 1.5-1.126 3.069-2.242 4.898-2.758Zm-27.078.631c3.141-.336 6.287-.634 9.429-.955.2-.053.365.08.532.17-.206 3.148-.142 6.304-.152 9.456.004 2.614-.004 5.227.005 7.84.023.475.01 1.083.478 1.36.538.295 1.153.398 1.737.568.005.216.008.434.014.651-3.938.002-7.874.008-11.809-.003.002-.215.006-.43.011-.644.58-.172 1.193-.276 1.731-.564.439-.243.474-.8.491-1.243.008-4.354-.001-8.708.004-13.061-.004-.417-.008-.846-.141-1.247-.137-.399-.486-.667-.808-.912-.503-.367-1.015-.721-1.513-1.092-.001-.08-.007-.242-.009-.324Zm-62.287-.492c4.32-.01 8.64-.001 12.961-.004.004.21.009.42.016.63-.736.299-1.704.338-2.159 1.08-.348.811-.07 1.724.2 2.519 1.107 2.907 2.163 5.833 3.3 8.728.943-2.58 1.78-5.2 2.686-7.794.296-.882.614-1.776.67-2.712a1.19 1.19 0 0 0-.455-1.057c-.52-.406-1.184-.54-1.8-.741-.004-.217-.01-.433-.013-.649a1020.2 1020.2 0 0 1 6.569 0l-.005.642c-.58.212-1.195.435-1.61.92-.629.727-.974 1.642-1.338 2.52-2.01 5.166-4.014 10.333-6.018 15.5-1.133-.005-2.268.02-3.402-.01l-.085-.04c-2.303-5.368-4.574-10.75-6.875-16.12-.32-.691-.609-1.417-1.112-1.997-.39-.443-.981-.595-1.518-.768l-.012-.647Zm66.663 21.784c3.176-.271 6.351-.547 9.526-.82.248-.043.487.014.713.124-.191 3.024-.13 6.053-.138 9.08.002 5.095-.006 10.191.003 15.286.024.54-.023 1.213.457 1.584.51.345 1.124.486 1.69.717.001.165.003.332.007.5-2.906.422-5.813.841-8.718 1.268-.288.076-.592-.12-.73-.356-.043-.78.013-1.565-.029-2.345-.803.69-1.602 1.405-2.554 1.886-1.842.993-4.096 1.091-6.061.42-1.572-.533-2.892-1.707-3.668-3.168-1.039-1.929-1.282-4.178-1.199-6.336.093-2.27.626-4.593 1.944-6.479 1.1-1.597 2.754-2.771 4.58-3.396 1.644-.57 3.403-.764 5.137-.687.599.026 1.183.175 1.756.345-.001-1.361.004-2.722-.002-4.083-.012-.45-.006-.917-.19-1.337-.152-.332-.474-.53-.775-.708-.583-.332-1.178-.64-1.757-.976l.008-.52Zm-1.422 9.001c-.719.67-1.071 1.63-1.311 2.56-.42 1.723-.483 3.51-.489 5.276.015 1.63.073 3.289.549 4.86.286.95.816 1.91 1.734 2.375 1.141.58 2.503.422 3.653-.053.01-4.551-.004-9.103.006-13.654-.01-.187.016-.387-.08-.556-.333-.634-.872-1.216-1.593-1.383-.849-.193-1.82-.039-2.469.575Zm61.47-9 9.646-.83c.215-.051.41.06.597.154-.2 2.933-.131 5.874-.143 8.811.003 5.18-.004 10.357.004 15.537.021.538-.02 1.201.449 1.576.509.346 1.121.49 1.687.717.002.169.005.338.012.507-2.941.421-5.88.858-8.82 1.277-.24.043-.419-.16-.596-.281-.099-.804.004-1.623-.052-2.431-.721.606-1.419 1.252-2.247 1.715-2.221 1.328-5.142 1.356-7.411.125-1.698-.925-2.837-2.647-3.352-4.48-.606-2.158-.61-4.453-.255-6.654.356-2.1 1.252-4.161 2.805-5.654 1.671-1.645 3.98-2.497 6.281-2.74 1.37-.132 2.791-.179 4.111.273-.025-1.611.046-3.226-.042-4.834-.019-.55-.375-1.017-.857-1.254-.604-.35-1.224-.665-1.826-1.017.003-.173.005-.345.009-.517Zm-.27 8.409c-.76.148-1.383.694-1.762 1.352-.594 1.02-.827 2.197-.989 3.352-.228 1.81-.237 3.642-.153 5.463.089 1.301.241 2.63.77 3.838.346.797.963 1.516 1.804 1.807 1.076.397 2.268.225 3.31-.201.013-4.552-.003-9.104.008-13.655.067-.605-.399-1.085-.793-1.48-.587-.532-1.444-.618-2.195-.477ZM57.251 72.61c1.68-.587 3.477-.751 5.246-.67 1.975.09 3.983.341 5.813 1.13.122 2.365.25 4.729.37 7.093-.268 0-.534-.002-.8-.008-.765-1.691-1.459-3.45-2.62-4.918-.78-.953-1.775-1.827-3.011-2.09-1.173-.243-2.474-.194-3.525.428-1.858 1.094-2.026 4.108-.354 5.445 1.02.858 2.284 1.348 3.517 1.818 2.16.76 4.345 1.61 6.148 3.058 1.21.965 2.161 2.295 2.5 3.82.509 2.283.043 4.776-1.292 6.702-1.125 1.654-2.84 2.853-4.717 3.505-2.174.782-4.527.774-6.801.603-1.96-.144-3.91-.468-5.785-1.058-.183-2.658-.328-5.318-.494-7.978l.78-.006c.802 1.58 1.6 3.172 2.61 4.632.644.946 1.392 1.855 2.374 2.469 1.321.85 2.97 1.097 4.506.852.999-.164 2.01-.63 2.583-1.5.621-.935.604-2.139.37-3.197-.233-1.024-.978-1.855-1.882-2.356-1.711-.965-3.651-1.384-5.46-2.123-1.713-.701-3.426-1.64-4.544-3.162-.985-1.32-1.323-3.002-1.333-4.621-.05-1.661.426-3.343 1.398-4.697 1.067-1.507 2.67-2.575 4.403-3.171Zm20.854.785c.63-.02 1.258-.013 1.887-.006v5.2c1.586 0 3.173-.003 4.76.002-.096.668-.202 1.335-.294 2.004-1.488.012-2.977 0-4.466.006v12.051c.015.699-.021 1.447.318 2.082.246.457.777.644 1.264.699 1.092.125 2.195-.02 3.265-.243-.034.256.07.57-.133.773-.844.981-1.935 1.755-3.163 2.177-1.452.503-3.027.569-4.543.382-1.207-.151-2.454-.606-3.23-1.587-.9-1.131-1.093-2.636-1.124-4.035-.006-4.1-.002-8.199-.001-12.3-.646-.002-1.29 0-1.934 0-.002-.29-.002-.58 0-.868 3.072-1.18 5.968-3.298 7.394-6.337Zm12.779 5.02c1.878-.319 3.794-.362 5.692-.257 1.686.148 3.479.468 4.804 1.6 1.004.845 1.477 2.173 1.493 3.459.015 3.6-.007 7.203.011 10.804.026.596.022 1.313.525 1.733.559.43 1.295.5 1.974.572-.027.249.057.566-.193.727-1.329 1.178-3.167 1.576-4.901 1.562-1.23-.003-2.55-.249-3.485-1.104-.425-.368-.66-.885-.934-1.362-.542.589-1.102 1.178-1.8 1.587-1.354.826-3.008.998-4.557.814-1.238-.156-2.49-.65-3.312-1.621-.86-.992-1.124-2.38-.973-3.657.094-.862.441-1.705 1.04-2.34.858-.937 2.064-1.448 3.246-1.848 1.987-.624 4.014-1.114 6.02-1.676-.022-1.77.044-3.544-.051-5.315-.064-.79-.121-1.642-.585-2.315-.448-.61-1.316-.637-1.987-.464-.464.117-.668.613-.71 1.047-.133 1.188-.107 2.49-.813 3.515-.565.795-1.63.913-2.532.9-.943-.014-2.04-.235-2.58-1.093-.68-1.163-.323-2.755.671-3.63 1.08-.978 2.537-1.379 3.937-1.638Zm2.503 10.94c-.553.315-.812.948-.92 1.547a9.256 9.256 0 0 0-.022 2.935c.083.496.226 1.001.534 1.41.55.746 1.791.747 2.414.097.168-.142.133-.374.143-.568-.006-1.944-.004-3.889-.001-5.833-.721.088-1.5.034-2.148.413Zm11.599-10.288c3.031-.306 6.061-.632 9.092-.944.174-.032.322.093.476.156.025.972-.01 1.946.02 2.918 1.628-1.208 3.34-2.416 5.353-2.866 1.678-.378 3.616-.374 5.047.702 1.214.903 1.71 2.467 1.716 3.93.015 4.186-.004 8.37.009 12.556.02.5-.009 1.148.491 1.434.553.295 1.184.389 1.776.581-.001.208-.001.417.004.627-3.841.025-7.683.01-11.524.007l.009-.64c.505-.158 1.053-.217 1.513-.495.391-.289.353-.836.376-1.27.01-3.729.002-7.459.004-11.188-.002-.693-.053-1.452-.504-2.016-.393-.48-1.05-.615-1.64-.61a12.138 12.138 0 0 0-2.483.208c-.027 4.494-.005 8.99-.012 13.486.033.462-.027 1.042.368 1.374.459.291 1.017.355 1.53.508-.001.214-.001.428.002.645-3.824.006-7.647.003-11.47 0 .001-.216.002-.432.005-.645.596-.184 1.238-.277 1.782-.6.458-.305.413-.924.444-1.407.008-4.311.004-8.624.004-12.936-.019-.57.006-1.233-.436-1.663-.583-.57-1.32-.947-1.932-1.48a2.912 2.912 0 0 1-.02-.372Zm51.929-.534c1.938-.413 3.932-.47 5.907-.398 1.472.093 2.985.31 4.301 1.015.868.464 1.603 1.202 1.98 2.12.289.685.4 1.436.399 2.18.003 3.523-.009 7.046.006 10.57.026.597.026 1.313.526 1.734.558.432 1.294.496 1.972.571-.026.25.058.568-.193.73-1.331 1.177-3.169 1.574-4.904 1.56-1.228-.004-2.551-.25-3.484-1.107-.424-.368-.657-.885-.932-1.36-.542.59-1.103 1.18-1.8 1.588-1.354.826-3.01.997-4.56.814-1.235-.157-2.487-.651-3.309-1.622-.983-1.146-1.195-2.788-.871-4.225.22-.982.849-1.836 1.662-2.414 1.088-.776 2.382-1.184 3.654-1.55 1.628-.45 3.259-.89 4.891-1.33-.015-1.584.021-3.17-.024-4.751-.049-.894-.068-1.83-.468-2.65-.238-.507-.793-.786-1.338-.78-.457-.007-1.029.023-1.292.46-.289.499-.231 1.1-.301 1.652-.097.926-.217 1.932-.836 2.674-.533.618-1.399.745-2.17.762-.867.009-1.819-.099-2.497-.694-.62-.553-.764-1.46-.637-2.246.117-.808.603-1.525 1.244-2.014.892-.688 1.987-1.045 3.074-1.29Zm2.749 11.095c-.638.717-.656 1.743-.7 2.65.014 1.007.034 2.112.638 2.967.444.616 1.331.698 1.988.411.293-.141.622-.394.569-.76-.001-1.985-.003-3.97 0-5.954-.851.102-1.846.021-2.495.686Zm11.943-10.56c3.032-.307 6.061-.631 9.093-.945.174-.032.322.092.477.155.029 1.026-.014 2.054.025 3.082 1.106-1.254 2.391-2.448 4.019-2.963 1.157-.368 2.548-.416 3.564.344.937.707 1.176 1.994 1.036 3.1-.093.91-.531 1.82-1.317 2.326-.93.596-2.147.627-3.168.266-.756-.279-1.242-.975-1.56-1.68-.169-.347-.377-.807-.83-.8-.565-.013-1.185.127-1.602.524-.027 4.347-.007 8.695-.011 13.041.034.54 0 1.273.571 1.554.573.249 1.207.29 1.812.42-.004.225-.006.451-.005.679-3.983.003-7.966.003-11.949 0 0-.217.001-.432.003-.646.598-.184 1.238-.277 1.782-.599.461-.303.417-.924.448-1.408.007-4.313.003-8.626.003-12.94-.016-.57.01-1.24-.439-1.665-.585-.564-1.319-.942-1.929-1.475a3.857 3.857 0 0 1-.023-.37Z" fill="#141313"/></g><defs><clipPath id="a"><path fill="#fff" transform="translate(51.15 33)" d="M0 0h160.619v66H0z"/></clipPath></defs></svg>