<svg width="168" height="21" viewBox="0 0 168 21" fill="none" xmlns="http://www.w3.org/2000/svg"><path fill-rule="evenodd" clip-rule="evenodd" d="M10.933 18.019H3.115v-.183l2.199-1.039V4.032s-.672 0-1.222.183c-.305.122-.61.183-1.1.61-.427.428-2.748 2.81-2.748 2.81L0 7.513.366 3.36h13.132l.428 4.153-.244.122s-2.321-2.382-2.749-2.81c-.428-.427-.794-.488-1.1-.61-.61-.183-1.099-.122-1.099-.122v12.704l2.2 1.038v.184ZM112.201 18.019h-7.818v-.183l2.198-1.039V4.032s-.671 0-1.221.183c-.244.122-.611.183-1.038.61l-2.81 2.81-.244-.122.366-4.153h13.132l.428 4.153-.245.122s-2.321-2.382-2.748-2.81c-.428-.427-.794-.488-1.039-.61-.61-.183-1.099-.122-1.099-.122v12.704l2.199 1.038-.061.184ZM29.686 4.581l1.771-1.038v-.244h-6.963v.244l1.832.977v5.497l-6.718.061V4.581l1.832-1.038v-.244h-7.024v.244l1.832 1.038v12.216l-1.832.977v.245h7.024v-.245l-1.832-1.038v-5.864l6.718.061v5.864l-1.832.977v.245h6.963v-.245l-1.771-1.038V4.58ZM117.455 16.797l-1.771.977v.183h6.963v-.183l-1.772-1.038V4.58l1.772-1.038v-.244h-6.963v.244l1.771.977v12.277Z" fill="#100F0D"/><mask id="a" style="mask-type:luminance" maskUnits="userSpaceOnUse" x="47" y="0" width="56" height="20"><path d="M102.545 0H47.391v19.728h55.154V0Z" fill="#fff"/></mask><g mask="url(#a)"><path fill-rule="evenodd" clip-rule="evenodd" d="M47.88 15.026s1.283.733 1.65.916c.427.244 2.076.855 2.076.855l-1.1.366c-1.465-.672-.671-.305-1.343-.672l-.855-.427-.428-1.038Zm10.2-4.703c-.244-1.222-.794-1.466-1.282-1.65-.672-.244-2.382.123-2.627.184-.244 0 .123-.55-.366-.916-.183-.123-.672 0-.672 0s-.183-.184-.305-.245c-.061-.06-.184-.305-.672-.244-.122 0-.611.244-.733.244-.122.061-.855 0-1.038-.06-.123-.062-.306 0-.306 0s.122.427.183.488c.123.06.428.366.489.427.122 0 .61-.06.855-.06.183 0 .244.427.244.488 0 .06-.122.366-.183.488 0 .184.244.55.306.672.122.123.06.184-.245.245-.244 0-.244.305-.244.305s-.122-.122-.305-.183c-.184-.061-.306.06-.306.06v-.182c0-.245-.183-.489-.305-.55-.061-.061-.367-.305-.428-.489-.06-.183-.06-.244-.183-.183-.061.061-.061.305-.061.305l-.061.123h-.122l.06.244h-.121l.06.244h.062s0 .122.06.245c.062.122.062.244.184.427.061.183.061.367.122.428 0 .06 0 .244-.122.244-.183 0-.122-.183-.122-.367 0-.183-.244-.366-.244-.427s-.184-.122-.245-.122c-.06 0-.183-.183-.183-.183s-.061.183-.122.06a2.438 2.438 0 0 0-.244-.183s-.061.184-.184 0c-.122-.122-.244-.122-.244-.122v.184s-.122 0-.244-.062c-.122-.06-.489-.305-.489-.305s0 .183-.061.122c-.122-.122-.367-.183-.367-.183s0 .244.123.428c.122.183 0 .183.122.305.122.183.244.183.244.183v.122l.183.184s-.06.122 0 .244c.123.06.184.122.184.122s0 .244.122.305c.183.062.244 0 .244 0s-.061.184.061.184.367-.061.367-.061v.122h.183c.122 0 .305-.122.427-.183.123-.062.184-.062.306-.062s0 .245 0 .245c0 .06-.183.122-.183.122h-.245c-.06 0-.183.06-.305.06s-.183.062-.244.062c-.123 0-.245.061-.306.061h-.244c-.122 0-.122.061-.122.061h-.245c-.06 0 0 .122.061.122.062 0 .184.245.184.245s.06.183.122.183c.06 0 .244.061.305.061s0 .122 0 .122h.306c.06 0-.184.183-.061.183.122 0 .305.061.305.061l.061.123c.061.122.183.183.367.183.244-.061.55-.122.55-.122l-.123.183c-.122.122-.183.489-.061.489h.428s.183 0 .183.06c0 .123-.183.123-.367.123-.183 0-.366-.061-.366-.061l-.122.122s-.123-.122-.245-.061c-.06 0-.06.244-.122.244-.06 0-.183 0-.244.061s-.122.244-.122.244 0 .062.06.123a.19.19 0 0 1 .062.122s-.122 0-.122.06c0 .062.427.184.427.184v.183c0 .123.245.061.245.061s0 .062.122.062.244-.123.244-.123 0 .123.122.123a.268.268 0 0 0 .184-.062s.06.184.244.062c.122-.123.122-.245.244-.245s.428.061.55.061c.06 0 .183.122.244.245.061.122.305.06.305.06v.245c0 .183.245.305.367.305.061 0 .428-.122.61-.183.123 0 .245.183.062.183-.122 0-.794.245-.794.245l.244.672.916-.428-.122-.367s.367-.06.489-.122c.183-.06.244-.61.244-.61s2.932.183 3.97 0c1.1-.123 2.505-.611 2.993-.733.489-.123 4.276-1.405 4.52-1.466.244 0 .55.244 0 .427-.489.184-1.283.428-1.283.428l-.122.733s.55-.611.672-.733.122 0 .122.122-.183.733-.244.977c-.122.184-.306.184-.306.184v.122s.428-.123.672-.184c.183-.06.672-.244.672-.244v-.122s-.366.122-.305 0c0-.061.183-.794.183-.916s.122-.183.183-.183.245.183.245.244v.305l.305-.06v-.062h.183l.061.183s.184.122.306.122c.183 0 .427-.122.488-.244s.245-.122.245-.122.122.183.305.122c.183-.06.122-.06.244-.122.061-.061.123-.061.245-.061s.183.244.183.244h.183c.061 0 .061-.183.183-.183.061 0 .245.183.306.305.122.061.244.245.427.428.183.122 1.1 1.221 1.1 1.221l.122.55s-.672-.672-1.527-1.344c-.855-.671-2.749-.122-3.298.062-.55.183-5.864 2.015-7.818 2.137-1.955.122-5.437-.122-5.925-.183-.428 0-2.321-.183-2.749-.183-.427-.061-1.282-.244-1.282-.244l.305.855s5.314.55 7.635.488c2.32-.06 2.87.183 7.574-1.405 4.336-1.404 4.336-1.221 5.07-.977.488.183 1.038.733 1.282.977.244.245-.061.672-.367.367-.366-.367-1.16-1.1-2.26-.855-1.099.244-1.954.672-1.954.672l.244.427s1.527-.733 2.138-.61c.61.183 1.283.427 1.527.855.244.427.672.733 1.1.366.427-.305.488-.855.488-1.1 0-.183-.122-.855-.122-.855s.305.428.366.49c.123.121.367.305.367.305l-.122.06s-.183.062-.245.184c-.06.122.184.61.184.855v.427l.244.367s.427 0 .672.061c.244.061.672.244.977.061.367-.183.305-.366.305-.366l.184-.367s1.038.367 1.404.428c.367.06 1.405.183 1.65.122.244 0 .366-.183.427-.428.061-.183-.06-.366-.06-.366l.854-.55s.428.122.489.061c.06-.06.366-.366.427-.488.062-.123-.06-.489-.06-.489l.305-.244v.916c0 .305.06.488.244.61.183.123.855.428 1.222.184.305-.244 1.16-1.222 2.137-.977a8.85 8.85 0 0 1 1.527.55l.306-.55s-1.466-.794-2.138-.672c-.672.06-1.65.427-1.955.916-.183.183-.794 0-.427-.305.366-.306 1.588-1.283 2.565-1.16 1.1.243 5.13 1.587 5.62 1.71 1.77.488 5.069.854 6.23.915 2.626.245 6.901-.488 6.901-.488l.794-.977s-1.527.305-2.198.366c-.55.061-3.726.55-7.208.183-3.054-.366-6.169-1.221-8.184-1.954-1.955-.672-2.749-.428-3.726.122-.977.55-1.466 1.588-1.466 1.588v-.428c.061-.122.122-.305.244-.488.061-.184.428-.611.55-.855.122-.245.55-1.283.61-1.527.062-.183.245-.672.49-.855.244-.184 2.076-.062 2.504.06.427.062 3.909 1.161 5.802 1.589 1.833.488 3.97.61 4.093.55.122 0 .183.122.183.244-.061.122-.245.06-.245.06v.062s.367.122.428.122.305.794.366.916c.061.183-.244.183-.244.183v.123h1.1v-.061s-.245 0-.245-.123c0-.122-.122-.427-.122-.427s.244.183.428.305c.183.122.488.061.488.061v.122l-.244.184 1.16-.061-.305-.123-.122-.488.244-.306h.245l.183.245h.244l-.305-.672-.489-.061s-.061-.183 0-.183h.428c.122 0 .305.122.366.183l.489.488-.306.367.611.489.428-.49-.367-.366.122-.183-.244-.427s.794.06.855.06c.061 0 .061-.244.061-.244s.122.062.183.062.123-.062.123-.062l.183.062s.122-.062.183-.123c0-.06-.122-.427-.122-.427l.855.244-1.71 1.038.916.306 2.138-1.16.305-1.1s-.916.489-1.099.489c-.122.06-.367-.184-.367-.184s.489-.55.611-.671c.122-.184.244-.49.244-.49s-.672.245-.794.306c-.122 0-.488.122-.488.122s0-.305.061-.366c0-.061.122-.61.122-.61s-.183.06-.428.182c-.244.061-.977.428-.977.428v-.733s.305-.122.489-.122h.855c.305 0 .855.122.855.122s.061-.061-.061-.244c-.122-.184-.428-.184-.55-.245a5.119 5.119 0 0 0-.61-.122s.366-.244.488-.305.55-.183.733-.244c.183 0 .489-.245.244-.306-.244-.061-.488 0-.733 0-.244 0-.733.122-.733.122s.489-.183.733-.366c.245-.122.672-.245.855-.306.184-.06.428-.122.184-.244a5.352 5.352 0 0 0-.978-.122c-.244 0-.671.122-.671.122s.061-.428.122-.55c0-.122.244-.672.244-.672l-.305-.122-.672.672-.122-.55-.306.184-.244.733s-.183-.123-.305-.184c-.062-.06-.184-.305-.184-.305l-.244.061s.122.428.183.55v.366h-.244l-.061-.06c-.061-.062-.122-.062-.184-.184-.06-.061-.183 0-.244 0-.06 0-.183-.061-.183-.061s.183-.306.305-.428c.122-.183.306-.488.306-.488l-.245-.122-.366.183c-.122.06-.672.55-.794.672-.061.122-.183.122-.183.06V9.59c0-.184-.183-.367-.183-.367s-.123.244-.123.367c0 .122-.06.855-.06.916 0 .06-.062.244-.123.183s-.183-.122-.366-.305l-.428-.428-.366.122s0 .122.122.245c.06.183.122.671.122.855 0 .183-.061.61-.061.61s-.122.123-.245 0c-.06-.122-.183-.427-.244-.488-.06-.061-.122-.245-.122-.245s0-.122-.122-.183c-.061-.06-.183-.06-.183-.06s-.55-.367-.856-.367c-.244 0-.793.183-.916.244-.122.061-.488.183-.55.183-.06 0-.244-.122-.305-.122-.06 0-.488.122-.55.183-.122 0-.122 0-.122-.06 0-.062.184-.428.184-.428s-.061-.061-.123-.061c-.06 0-.06-.123-.06-.123l.427-1.221c.366-1.222-.305-2.81-.305-2.932-.245-.488-.917-1.344-.917-1.344s0-.06.061-.122c.062-.06.123-.183.184-.244.06 0 .671-.367.855-.428.183-.122.672.061.916.123.244 0 .305-.184.305-.367 0-.244.061-.305.123-.366.06-.061.55-.184.55-.184v-.06s-.612.121-.795.244c-.183.06-.183.305-.183.427s0 .183-.305.122c-.245-.06-.49-.122-.55-.122-.061 0-.733.306-.855.367-.061.06-.122 0-.122-.184 0-.183-.123-.427-.245-.55-.122-.121-.244-.427-.244-.549v-.428l-.366-.122s-.245.306-.306.367c-.061.06-.305.366-.427.427-.062.122-.062.55-.062.55l-.244-.244c-.06-.122.061-.367.061-.489 0-.183-.06-.427-.06-.55v-.305l-.306-.122s0 .122-.061.244-.245.306-.306.428a1.14 1.14 0 0 1-.183.244s-.366-.244-.489-.366c-.122-.062-.244-.062-.244-.062s-.122-.183-.244-.305a2.404 2.404 0 0 0-.367-.122s-.244-.244-.305-.367c-.061-.122-.367-.06-.367-.06-.122-.245-.122-.245-.183-.245-.06-.122-.244-.061-.244-.061s-.061-.061-.122-.183c-.122-.184-.367-.061-.367-.061s-.06-.123-.122-.184c-.061-.06-.183-.06-.305-.06 0 0-.061-.245-.183-.245-.062-.061-.184-.122-.184.061s0 .367.061.489.306.183.367.183c.06 0 .06.061.122.244.061.122.244.183.366.245.061 0 .061.06.184.244.06.183.244.122.366.183.183.061 0 .183.183.306.122.183.245.122.367.122s.122.183.244.305.183.183.245.183c.06 0 .183.122.244.245.122.122.366.183.366.183l-.122.122h-.489c-.122-.061-.244 0-.244 0l.122.244c.061.122.306.367.306.367h-.184c-.244 0-.55-.245-.55-.245s-.183 0-.121.184c.06.122.305.427.305.55.061.06-.061.122-.305.122-.184 0-.367-.123-.489-.184h-.428c-.122 0-.366.367-.427.367-.122.06-.244.183-.428.244-.183 0-.305 0-.61.122-.306.122.06.672 0 .794 0 .122-.245.245-.123.367.123.122.367.55.367.55s-.061.244-.428.427c-.427.183-.427.489-.427.733-.061.244.06.855.06.855l.306-.061s.122-.244.122-.366c0-.123.123-.245.672-.184.55.061.611-.183.733-.427.061-.245.245-.733.367-.855.122-.061.244-.123.427 0 .183.06.428 0 .611-.123.183-.183.305-.244.428-.183.122.061.366.306.366.306s0 .183.061.366c.122.183.428.244.428.244v.428l-.245.061s-.183.122-.244.244c-.061.123-.428.367-.428.367s-.122-.244-.183-.428c-.06-.122-.305-.427-.305-.427h-.489s-.06.55 0 .672c0 .183-.06.977-.06.977l.243.305s-.61.122-1.526-.122c-.428-.122-1.772-.672-1.772-.672s-.122-.488-.183-.61c0-.123-.244-.733-.244-.733l.55-.55c.06-.061.488-.55.488-.55h-.916s.244-.366.366-.489c.122-.183.428-.855.428-.855s-.428.123-.55.184c-.061.06-.427.244-.427.244s.06-.489.06-.61c0-.123.123-.55.123-.55s-.428.55-.55.671c-.122.122-.244.245-.244.122 0-.122-.122-1.282-.122-1.282l-.917 1.282-.671-.55s.06-.244 0-.305c-.061-.06-.123-.183-.123-.183l.367-.305s.244.122.366-.061c.123-.184-.122-.245-.122-.245l.122-.122s.367.183.428-.183c.061-.183-.244-.305-.244-.305l.06-.123s.428.061.428-.427c0-.306-.427-.122-.427-.122l-.061-.122s.305-.245 0-.49c-.245-.182-.55.062-.55.062l-.061-.061s.122-.306-.122-.428c-.306-.122-.428.245-.428.245 0-.061 0-.367-.244-.306-.306 0-.306.306-.306.306h-.06s0-.184-.245-.245c-.244 0-.244.122-.244.122l-.061-.06-.123-.306s-.122.122-.244.183c-.061.061-.488.428-.488.428V.672l-.306.061.061-.305-2.077-.061.062.366-.306-.06v1.16l-.61-.428-.367.489h-.122s0-.306-.428-.306c-.244 0-.244.306-.244.306h-.122s0-.428-.367-.367c-.366 0-.183.367-.183.367h-.061s-.183-.245-.428-.122c-.244.122-.06.427-.06.427h-.062s-.122-.244-.427 0c-.306.244.06.428.06.428l-.06.122s-.306-.061-.306.244c0 .428.428.367.428.367v.122s-.367 0-.245.305c.062.244.49.183.49.183s-.123.184 0 .306c.06.122.366.122.366.122l.305.366s0 .061-.122.245c-.061.122 0 .183 0 .183s-.305.183-.244.366c.06.184-.123.184-.306 0-.244-.122-.489-.55-.55-.671-.06-.123-.305-.367-.305-.367v1.343s-.55-.366-.672-.488a.894.894 0 0 0-.305-.183s.06.428.183.61c.122.184.305.734.305.734s-.366-.184-.427-.184-.672-.183-.672-.183.061.306.244.428c.184.183.611.794.611.794l-.672.122.794.855s-.06.428-.122.428c0 .06-.183.55-.244.61-.061.123-.672.428-.855.428-.183 0-.183-.061-.245-.244a2.852 2.852 0 0 0-.305-.611c-.122-.122-.55-.306-.61-.428-.062-.122-.062-.366-.123-.488-.061-.061-.183-.306-.305-.428-.123-.183 0-.366.244-.244.183.06.183.305.366.55.184.244.49.366.49.366s-.123-.183-.184-.366c-.061-.184.06-.428 0-.55-.061-.122-.428-.428-.428-.428l.183-.366s-.244-.122-.427-.183c-.183 0-.305-.184-.428-.306-.122-.122-.244-.183-.122-.183s.245.061.489.061.427-.122.427-.122l-.244-.122c-.183-.061-.366-.367-.366-.367s.122-.122.183-.244l.122-.244s-.122-.062-.244-.062c-.122-.06-.428-.122-.55-.244-.122-.06 0-.122 0-.122h.367c.183-.061.244-.55.244-.55l-.122-.06s-.245.121-.428.182c-.244.062-.427 0-.427 0s-.184-.122-.184-.183c0-.122.123-.244.123-.366s-.123-.245-.123-.245-.183.184-.366.245c-.183.06-.245 0-.428 0-.122 0-.122 0-.61-.061-.49 0-.245 0-.428.122-.122.06-.244.183-.244.183s-.123-.122-.061-.244c0-.122.06-.245.06-.367s-.427-.427-.427-.427.061-.183.061-.367c-.06-.183-.427-.122-.427-.122v-.122s.244-.305.06-.489c-.183-.183-.488 0-.488 0s0-.366-.244-.366c-.245 0-.245.305-.245.305l-.244.061s-.061-.183-.305-.06c-.245.06 0 .427 0 .427l-.122.122s-.184-.061-.306.122.061.367.061.367h-.183s-.061-.245-.122-.367a.632.632 0 0 0-.061-.244l-.061.06-.306.306-.244-.06.305-.673-1.343.672.61.245-.122.305s-.427-.122-.488 0c-.061.061.183.366.183.366h-.244s0-.244-.245-.122c-.244.061-.122.245-.122.245l-.183.122s-.061-.122-.122-.122-.122-.123-.367.183c-.244.305.245.366.245.366v.245s-.367.244-.245.366.367 0 .367 0l.183.122s-.061.244.122.244c.183.062.244-.122.244-.122l.123.061s-.062.184.06.184h.245s-.244.427-.367.672c-.183.244-.366.916-.427 1.038s0 .183.122.305.244.245.367.306c.122 0 0 .122-.062.244 0 .122.062.183.062.183s-.123.306-.123.489.428.488.55.55a.985.985 0 0 1 .428.244c.122.122.244.427.366.366.122-.06 0-.61 0-.61s.306-.184.367-.245c0-.06.122 0 .06.122-.06.184-.06.428-.06.55.06.122.305.367.427.367s-.183.244-.305.244c-.061.061-.489.061-.672.183-.244.183-.428.428-.672.428l-.977-.184s0 .062.183.184c.183.06.428.06.733-.061.305-.123.428-.245.672-.245.244 0 .366.122.244.184-.06 0-.366.183-.427.183s-.245.183-.306.183c-.06 0-.55.183-.672.244s-.366.184-.305.245c.061.06.733.366.733.366s-.061.183-.244.244c-.184.123-.611.062-.611.184 0 .06.122.244.122.244h-.306c-.183 0-.244-.366-.244-.366s.367-.367.184-1.466Zm-4.092 6.168s.183 0 .122.123c0 .122-.244.61-.366.733-.122.122-.428.183-.428.183s.916.122 1.039.122c.183 0 1.221.122 1.466-.305.183-.306.244-.611 0-.672-.184-.061-1.466-.184-1.71-.184-.184-.06-.123 0-.123 0Zm.855.123-.427.855s.305.06.488 0c.184 0 .367-.245.367-.367s.122-.427 0-.427-.428-.061-.428-.061Zm1.71.122c0 .122 0 .183-.122.427-.06.184-.06.245-.244.306-.183.06-.305.06-.305.06l-.061.123h1.221v-.122h-.244l.366-.855h.306v-.122h-1.16v.122c-.062-.061.243-.061.243.06Zm1.039-.245v.123s.244 0 .183.244c0 .183-.122.428-.183.55-.061.122-.367.183-.367.183v.061s1.039 0 1.405-.122c.367-.061.489-.122.489-.122l.122-.306h-.122s-.061.122-.183.184c-.245.183-.794.183-.794.183l.183-.428h.244a.456.456 0 0 1 .183.183l.245-.61s-.245.244-.306.244h-.305l.122-.305s.305-.184.489-.123c.183.061.183.184.183.184l.061-.367s-.794.122-.916.183c-.184.061-.733.061-.733.061Zm1.832-.305v.061h.245c.06 0 .06.122.06.306-.06.183-.122.794.795.55.916-.245.733-.856.733-.978 0-.061.06-.305.06-.305l.245-.123v-.122l-.855.245v.06s.244-.06.244 0c0 .062-.06.428-.122.673-.061.366-.61.61-.61.244 0-.306.121-.672.182-.733a.877.877 0 0 1 .184-.122v-.122s-.123.06-.367.183c-.244.183-.794.183-.794.183Zm2.504-.305-.366.366.244.367.306-.428-.184-.305Zm.306-.428s.305-.06.305.061c0 .184-.122.794-.244.916-.061.123-.306.184-.306.184v.122l1.772-.489.06-.427s-.243.366-.488.427c-.244.122-.366.061-.366.061l.06-.61h.245c.061 0 .122.183.122.183l.123-.611s-.062.122-.184.183-.244.061-.244.061l.122-.366s.244-.122.428-.122c.183 0 .122.183.122.183h.183l.122-.489s-.55.183-.855.306c-.305.122-.916.305-.916.305v.122h-.061ZM92.407 3.665c-.183.061-.122.366-.122.61 0 .245-.306.245-.55.245-.183-.061-.305 0-.489.061-.183.061-.733.733-.733.733l.122.244s.611-.305.794-.305h1.1c.183 0 .244-.061.244-.305 0-.245.306-.428.489-.428h.427s-.183-.244-.305-.244c-.183 0-.367.06-.55.122-.183.061-.305.489-.427.61-.122.062-.489 0-.672 0-.245 0-.733.184-.733.184s.305-.305.55-.428c.183-.122.55-.06.794-.183.244-.06.183-.61.183-.733 0-.183.55-.366.55-.366l-.061-.061-.611.244Zm-2.871.794c.061-.061.061-.366 0-.428 0-.122-.305-1.038-.305-1.099 0 0 0-.061.06-.183.062-.061 0-.244 0-.244s-.182.305-.182.366-.184.244-.123.366c0 .184-.06.733-.183.794-.061.123-.244.367-.244.428-.061.061-.061.183.183.305.183.123.428.245.55.123.122-.062.244-.428.244-.428ZM83.734.916c.06.123.183.062.183 0 0 0 0-.122.06-.122 0 0 .062.122.184.245.061.183.183.183.183.183l.123-.122s0 .122.06.305c.123.183.245.122.245.061v-.122s.061 0 .122.183c0 .122.122.306.244.428.061.06.245 0 .245 0s-.061-.122 0-.183c0 0 .122.06.122.244 0 .122.06.244.122.427 0 .123.305.123.305.123V2.32l.061.061c.062.061.245.489.245.55.06.061.183 0 .183-.061s-.061-.305-.061-.305.061 0 .122.122.305.55.367.672c.122.122.244.122.244.06v-.305c0-.06.061 0 .183.122.122.062.061.306.061.306s.245.06.306.06c.122 0 0-.121.122-.121s0 .183.183.244c.183.122.183-.183.122-.244-.06-.061-.366-.122-.366-.122s-.061-.184-.184-.245c-.122-.06-.244-.06-.244-.06l-.061-.062s-.244-.244-.366-.305c-.062-.061-.306-.122-.367-.122s-.244-.367-.366-.428c-.061-.061-.428 0-.428 0s-.183-.428-.244-.489c-.122-.06-.306 0-.306 0s-.122-.244-.183-.305-.305-.061-.305-.061-.061-.183-.184-.244c-.06-.061-.244 0-.244 0S84.1.794 84.04.733c-.061-.06-.183 0-.183 0s-.061-.122-.122-.183c-.061-.122-.061 0-.061.061 0 0 .06.244.06.305ZM87.826 2.2c-.061 0 0 .122-.061.183 0 .061-.122.245-.183.306 0 .06.06.183.122.244.06.122.122.122.183.122h.183c.122 0 0-.61 0-.672 0-.06-.122-.244-.122-.305.061.122-.061.122-.122.122ZM85.81 4.398c.122.061.489.061.672 0 .122 0 .977-.122 1.1-.122h.61s0-.061-.122-.122c-.06-.061-.183-.123-.183-.184l-.367-.183c-.183-.122-.61 0-.733 0-.122.061-.55.367-.671.428-.123 0-.428-.061-.55-.061 0 0 .183.244.244.244Zm1.405.733c0 .122.122.427.367.366.244-.06.183-.244.183-.305s-.183-.122-.183-.122v.183c0 .061-.123.122-.184.061-.06-.122-.183-.183-.183-.183Zm-2.932 0c-.06.061-.06.183-.06.244s.305 0 .427 0c.06 0 .244-.06.244-.122 0-.061-.061-.183-.122-.183s-.183 0-.244-.061c0 .06-.123.06-.245.122Zm2.2.855c0 .061-.062.428.243.489.306.122.794.122 1.039-.061.305-.184.305-.367.366-.428 0-.061-.183-.122-.183-.122-.061.06-.428.366-.55.427-.06 0-.366 0-.61-.06-.123-.062-.306-.245-.306-.245Zm0-.733c.06 0 .243-.122.366-.122.06 0 .06 0 .06.183 0 .122.306.306.428.367.183.06.489-.061.611-.061.061 0 .122.06.244.122a.664.664 0 0 0 .306.06h.488c.061-.06.245-.182 0-.121-.244 0-.61-.123-.855-.245-.244-.122-.244-.55-.244-.55h-.672c-.122 0-.366-.122-.366-.122l-.062.061a.131.131 0 0 0-.122.123c0 .06-.183 0-.244 0s-.122.183-.122.244.122.122.183.061Zm5.313.367s.55.06.672.06h.366c.122 0 .489-.244.611-.305.061-.06.672-.06.672-.06l-.061-.123h-.55c-.183 0-.672.366-.733.428-.122.06-.916-.123-.916-.123v.123h-.061Zm-.733 1.16h.244c.123 0 .367.122.55.183.244.061.672.428.855.428.183.06.55.06.672-.061.122-.122.55-.306.672-.428.06-.06.55 0 .55 0V6.72s-.245-.061-.367-.061h-.428s-.06 0-.122.183c-.06.183-.305.305-.55.305-.244 0-.366-.183-.488-.244-.183-.06-.489-.183-.55-.183-.122 0-.122-.061 0-.061.123-.061.855-.122.978-.183.122-.061.55-.55.672-.611.06-.061.732 0 .732 0l-.122-.367h-.427c-.061 0-.367.061-.428.061-.122 0-.672.55-.794.611-.122.061-.916.183-1.1.183-.121 0-.549.062-.549.062v.366Zm3.054 1.222c-.183 0-.428.122-.55.244-.122.061-.488.366-.488.366s-.245-.06-.306-.06c-.06 0-.488-.062-.61-.123-.123 0-.49-.183-.55-.183 0 0-.061-.183 0-.183h1.649c.122-.061.672-.733.733-.733.06-.061.733-.061.733-.061s0-.245-.061-.245h-.55c-.122 0-.244.122-.306.122-.06.062-.244.245-.305.306-.06.061-.366.122-.427.244s-.306.061-.489.061c-.183-.06-.305-.06-.55-.06-.183 0-.672.121-.794.121l.061.489s.367.122.489.183.244.122.305.122c.123.061.611.061.672.123.061.06.183.183.306.183h1.404v-.122s-.366-.184-.427-.184h-.977s.366-.183.427-.305c.061-.061.122-.183.305-.244h.55c.122 0 .367.122.367.122s0-.244-.061-.244c.122.122-.367.06-.55.06Zm0 1.16h-.489c-.122 0-.55.122-.672.183s-.183 0-.305-.06a2.624 2.624 0 0 0-.733-.123c-.244-.061-.61 0-.61 0s0 .305-.062.489l-.122.366s.061.061.183.061c.061 0 .367.184.428.245.06 0 .427.183.489.183.122 0 .244.122.366.06.122 0 .61-.243.672-.305.122-.06.672-.06.672-.06v-.245s-.367-.061-.428-.061c-.06 0-.183.122-.305.183-.061.061-.428.184-.489.245-.06.06-.183.06-.366 0a.554.554 0 0 1-.428-.184c-.122-.122-.366-.183-.427-.244-.123 0-.245-.061-.184-.122 0-.061 0-.061.184-.122.122-.061.61 0 .671 0 .123 0 .428.122.489.122s.794-.306.916-.367c.122-.06.367 0 .55 0h.489v-.244c0-.061-.428 0-.49 0ZM91.063 10.2s-.122.245 0 .367.794.122.794.122-.427-.244-.55-.305c-.122-.061-.244-.184-.244-.184Zm-6.78-5.375c-.06.123-.183.367-.244.428s-.55.061-.672.061-.244.061-.183.244a.46.46 0 0 0 .305.428.675.675 0 0 0 .489 0c.183-.061.305.061.427 0 .061-.061.184-.122.245-.183.06-.061.183.06.183.183v.244c0 .061 0 .184.122.122.122 0 .244-.366.244-.366v.428c-.06.122-.183.183-.183.244 0 .06.061.06.183.06.123 0 .184-.304.184-.427v-.855l.244-.06s.122.182.122.305v.427s.122-.122.245-.305c.122-.245.06-.306.06-.306l.184.061s-.061.672 0 .856c.06.122.488.488.977.488s.916-.06 1.1-.366c.244-.306.305-.489.305-.489l.244.122s-.305.55-.55.733c-.244.183-.977.306-1.221.306-.183 0-.061.183 0 .183s.733.122 1.1-.122c.305-.245.854-.855.854-.855l-.244.671s-.489.428-.855.489-.855.122-.855.122v.245s.672.122.916 0c.244-.062.855-.428.855-.428v.244s-.55.367-.733.428c-.183.06-.733.122-.733.122v.183s.367.061.489.061h.733v.245l-.245.06v.611l.672-.305.55.183s.061.55.061.611c0 0 .122.122.183 0 .062-.061.794-1.527.856-1.71 0-.183-.184-.244-.245-.122-.06.183-.427.977-.427.977l-.123-.428s.428-1.099.49-1.221c.06-.183-.123-.367-.184-.244-.061.06-.428.794-.428.794l-.06-.367.427-.855c0-.183-.122-.489-.245-.366-.122.122-.366.61-.366.61l-.183-.366s.366-.672.366-.855c0-.245-.122-.672-.305-.672-.244-.061-.428 0-.61 0-.184 0-.428-.122-.55-.244-.123-.184-.184-.367-.367-.367s-1.283 0-1.344.061l-.122.122s-.061-.06-.183-.06c-.061 0 0 .121-.183.182-.123.062-.123-.06-.123-.122 0-.06-.06-.244-.122-.06a1.332 1.332 0 0 1-.244.305h-.55a2.687 2.687 0 0 0-.61-.123h-.123Zm7.024 6.292-.855.244-.183-.183.244-.672-.244-.122-.794.183-.183-.122.183-.733-.305-.183-.733.427-.245-.061-.122-.977-.183-.061s-.244.183-.367.244c-.06.061-.427.244-.427.244l-.183-.122s0-.305.06-.427V8.49l-.244-.183-.488.489c-.061.122-.428.244-.428.183s-.61-.855-.61-.855v1.343l.183-.488.122.183v.489-.184c0-.06.06-.244.06-.244l.184.122v.306l.122-.122v-.184l.245-.06v.182c0-.06.366-.183.366-.183l.061.183s-.489.123-.61.49c-.062.243.183.304.183.304s0-.55.55-.488c.427.061.183.55.183.55s-.123.183 0 .122c.122 0 .305-.122.305-.245v-.366s.305 0 .305.122 0 .367.245.428c.183.06.733.305.916.488.183.184.794.611.794.611l.427-.305.062.122-.306.244.061.061s.183-.183.245-.183c.06 0 .244-.122.183 0 0 .061-.183.305-.183.305l.183.062.244-.184.183.061-.244.367.244.183.183-.244h.062s.06-.122.183-.245c.122-.122.366-.305.489-.488l-.123-.122Zm-9.467-1.71c0 .244.061 1.587.061 1.587l.245-.06V9.59l-.306-.184Zm.794.366v1.221h.367s.244-.855.244-.916c0-.06-.183-.183-.244-.183a2.404 2.404 0 0 0-.367-.122Zm.916.244-.244.855.489-.244s.244-.428.244-.489a.131.131 0 0 0-.122-.122h-.367Zm.855.061-.183.367h.306l.183-.367h-.306Zm1.405.367c-.06-.184-.244-.489-.61-.306-.428.184-.55.428-.49.611 0 .183.184.428.184.428l.122-.061s-.183-.367 0-.489c.183-.183.306-.244.428-.244.183 0 .366.122.366.06Zm-3.603 1.71c0-.061-.123-.244 0-.305.183-.123.671-.245.855-.245.122 0 .244.367.244.367h.122s-.122-.306-.244-.55c-.183-.183-.733-.122-.916 0-.184.061-.367.305-.367.428 0 .122.183.61.183.61l.123-.06c.06-.062 0-.184 0-.245Zm1.588-.489-.061-.183s0-.122.06-.183c.123-.061.306-.183.428-.183.122-.062.183-.062.183 0 0 .06.123.183.123.183l.244-.061s-.183-.245-.244-.367a.294.294 0 0 0-.367-.122c-.122 0-.366.061-.61.306-.245.244.121.671.121.671l.123-.06Zm1.893-.977-.122.122s.122.122.305.245c.245.122.55.06.672-.123.061-.183.183-.366.183-.61 0-.245-.244-.245-.305-.123-.061.184-.489.611-.489.611l-.244-.122Zm-2.993 1.405a.428.428 0 0 1-.366.427c-.245.061-.428.123-.489.123s-.122.427-.061.55c.061.182.367 0 .55-.123.244-.061.488-.244.488-.61-.06-.367-.122-.367-.122-.367Zm.245-.183c-.062 0-.062.794.244.794.305 0 .855-.123.977-.245a.474.474 0 0 0 .122-.61c-.122-.245-.305-.184-.305-.184s.06.123.06.184c0 .06.184.244-.304.427-.428.122-.611.061-.672 0 0-.183-.061-.427-.123-.366Zm1.343-.428c0 .061.122.428.306.489.122.06.122.183.55-.122.427-.245.61-.367.427-.672-.122-.245-.306-.245-.306-.245s0 .061.062.184c.06.06-.123.244-.306.305-.183.122-.427.244-.488.244-.062-.06-.245-.183-.245-.183Zm.245 1.283.183.06-.977.428.244.061.855-.366.122.061-.61.305.244.062.55-.306.06.122-.366.184.183.122.367-.184.06.123s-.183.183-.121.183c.06 0 3.481 1.1 3.725 1.1.245 0 .55-.062.55-.062.122 0 .306-.06.367-.06.06 0 .244.121.305.182.061 0 0 .122-.061.184-.061.06-.305.122-.305.122s0 .122.122.183.427.183.488.183.245-.06.245-.122c.06-.061.366-.183.488-.366.122-.123-.244-.672-.366-.855-.183-.184-.367-.245-.428-.245-.122 0-.366.122-.488.183-.123.062-.428 0-.672 0-.183 0-1.1-.366-1.16-.366-.062 0-.306-.122-.49-.244-.183-.184-.366-.367-.671-.428-.306-.061-.916.367-.916.367s-.184-.062-.184-.123l-.183-.183s.122 0 .305-.183c.184-.122.184-.244.184-.306 0-.06-.061-.244-.061-.244l.244-.122v.611h.122s0-.183.061-.245v-.244c0-.06-.06-.244-.06-.244l.243-.122v.122s.061.122.061.183c.062.122.062.428.062.428h.122s0-.123.06-.184v-.305c0-.061-.06-.305-.06-.305l.183-.122s.183.06.183.122c0 0 .061.183.061.305s-.06.489-.06.489h.182v-.123c0-.06.062-.488.062-.488s.06 0 .122.06l.183.184v.183c-.061.123-.122.306-.122.306l.122.122s.122-.244.183-.305c.061-.123.306-.55.367-.611 0-.061.122-.244.122-.244l-.122-.123-.123.123c0 .06-.122.183-.122.183l-.06-.061.121-.367-.122-.122-.183.367-.061-.062v-.183c0-.06.061-.427.061-.427l-.183-.062s-.061.123-.061.184c0 .06-.122.366-.122.366l-.062-.06V11.3c0-.061.062-.306.062-.306l-.184-.06s-.06.305-.122.366l-.061.183-.061-.061.061-.428h-.183v.428h-.183c-.062 0-.245.183-.245.183l-.672-.06v.427s-.244.122-.366.244c-.122.061-.672.367-.672.367l-.305-.123s-.061.184-.245.367c-.183.122-.916.427-1.038.427-.061.061-.305.184-.305.184h.305l1.222-.672Zm3.97-.489c-.061.183-.306.672-.306.672l.184.122s.244-.366.305-.489c.122-.183.305-.671.305-.671l-.183-.184a2.198 2.198 0 0 0-.305.55Zm.55.489c-.062.122-.306.55-.306.55l.305.122s.123-.306.184-.367c0-.061.244-.733.244-.733l-.183-.183c0 .061-.183.489-.245.61Zm.732-.061s-.122.366-.183.427c-.061.122-.183.428-.183.428l.183.06s.183-.366.183-.427c0-.06.123-.427.123-.427l-.123-.061Zm1.894-.367c.06 0 .06-.366-.183-.427-.245 0-.794.122-.794.55 0 .427.183.671.366.671.489.122.55-.122.55-.122s-.489-.061-.489-.428c0-.366.183-.366.367-.366.122 0 .183.122.183.122Zm-.245.367c0 .06.123 0 .123 0l.305-.123h.122c0 .062.428.794.428.856v.122l-.183.06.06.123s.123-.061.245-.061.183-.244.122-.367c-.061-.122-.183-.55-.305-.794-.123-.244-.306-.183-.428-.122a8.65 8.65 0 0 1-.427.184s-.123.06-.061.122Zm.428.671c-.122 0-.183.123-.305.245-.123.122 0 .366.122.733.122.366.244.427.366.427.122-.06.428-.183.489-.183s0-.122 0-.122-.061 0-.183-.061c-.123 0-.184-.061-.245-.183 0-.061-.183-.611-.183-.672v-.061c.061 0 .244-.123.244-.123v-.06l-.06-.062-.245.123Zm.55.795c0 .06.244 0 .244 0s.244.427.305.55c.061.121 0 .305-.183.427-.122.06 0 .183.122.122.123-.061.245-.183.367-.244.06-.061.06-.245 0-.428-.122-.244-.306-.672-.367-.672-.06 0-.122-.06-.244 0a2.87 2.87 0 0 1-.305.122l.06.123Zm1.1 1.343c0-.122-.245-.06-.184.061.061.123 0 .184.122.245.061.06.244.122.183-.061-.06-.123-.122-.245-.122-.245Zm-.856-.794c-.061.122-.244.245-.366.367-.123.183-.061.427 0 .55.122.183.183.122.244.122s.183-.123.122-.184c0-.06-.061-.183-.122-.305 0-.183.061-.305.122-.367.061-.06.122-.122.122-.183.122.122 0-.06-.122 0Zm-.916-2.931c0 .06 0 .122.183.06a3.39 3.39 0 0 0 .489-.244s.122.428.427.428c.245 0 .977-.061.977-.061v.183s-.488.244-.55.305c-.06.122-.182.367 0 .306.184-.061.55-.245.55-.245v.184s-.427.305-.427.366c-.061.061 0 .244.122.183.183-.06.489 0 .489 0l.06.245s-.305.183-.366.183c-.06.061 0 .244.123.244h.305l.061.367s-.244.122-.305.183c-.062.061-.062.183.06.244.184 0 .428.061.428.061l.061.245s-.122.06-.244.183c-.122.061-.122.183.061.183s.305 0 .367.061c.06.061.122.183 0 .183-.061 0-.184 0-.245.062-.06 0-.244.305.061.366.306.061.733-.122.733-.122l.061.183s-.305.183-.427.183c-.061.061-.122.245.122.489.305.305.672.61.855.672h.183s-.183-.428-.244-.55c-.061-.122-.183-.428-.183-.55 0-.122.122-.06.122 0 .061.061.488.733.672.794.122.061.183.061.122-.183s-.61-1.038-.672-1.221c-.061-.123-.122-.428-.122-.428s-.367-.244-.428-.428c-.06-.122-.733-1.465-.794-1.832-.122-.366-.305-1.649-.488-1.71-.183-.061-.672-.428-1.1-.306-.427.184-.794.428-.855.428-.06.061-.06.183-.183.183.061-.06-.061.123-.061.123Zm3.237-1.344c0 .06-.061.305 0 .427.061.061.183.855.183.978 0 .183-.122.305.061.305.184 0 .428-.061.489-.183.061-.061 0-.367-.061-.55-.061-.183-.244-.672-.367-.794-.122-.061-.122-.061-.183-.122-.06-.061-.122-.061-.122-.061ZM83.184 6.352c.06.123.183.306.244.428.061.061.122.244.306 0 .183-.183.427-.122.61-.122.184 0 .306 0 .306-.061s-.245-.183-.367-.245c-.122-.06-.244 0-.366 0-.122.062-.428.184-.489.123-.06-.061-.183-.306-.244-.306.06 0 0 .122 0 .183Zm.55.733c-.061.123-.061.367-.306.428-.244.122-.55.183-.61.244-.062.122-.184.184-.184.306-.06.122.061.06.183 0 .123-.061.489-.122.672-.122.183 0 .428 0 .55-.245.122-.183.061-.305.122-.427.061-.123.122-.306.122-.306l-.55.122Zm-3.299-2.687-.183.244.183 1.955.183-.245-.183-1.954Zm-.305.55-.244.183v.55l.183.122.06-.855Zm1.893.55-1.1.61v.122l.917-.427.183-.306Zm-1.1.916-.06.122.55-.122.244-.306-.733.306Zm-.366.366.123.183 1.099.122.183-.244-1.405-.061Zm.428.672.489-.061.183-.183h-.794l.122.244Zm17.407 3.481c0 .123.245.55.428.733.183.184.305.306.428.306.183 0 .733-.428.855-.489s.61-.244.488-.244c-.061 0-.916.06-.916.06s.183-.427.244-.671c0-.183.184-.794.184-.794s-.245.244-.367.489c-.06.183-.55.855-.55.855l-.855-.489c.061-.061.061.122.061.244Zm1.222 1.16s0 .428.122.428.489-.305.672-.366c.183 0 .733-.244.733-.244s-.489 0-.733.06c-.305 0-.794.123-.794.123Zm.183 2.994c-.244.183-.183.244-.06.244.06 0 1.282.61 1.343.672.122.061.305-.183.183-.244-.122-.062-.855-.55-.855-.55s.367-.306.489-.367c.122-.122.427-.427.427-.488-.061 0-1.221.61-1.527.733Zm-4.459-1.955-.06.428.06.183.245-.367.244.123-.244.366.305-.244h.428s0-.061.06-.183c.062-.062.184-.245.184-.245l.183.061s.184.061.123-.06c-.062-.184-.49-.428-.978-.55-.55-.062-.977.427-.977.427h.427v.061Zm1.222-2.382c-.122.061-.183.183-.183.367 0 .244 0 .427-.061.55-.061.183-.245.549-.245.549l.306.061s.244-.427.366-.61l.123-.245.122.061s-.123.306-.184.428c-.06.06-.183.366-.183.366h.183s.184-.183.245-.366c.06-.122.244-.428.244-.428l.183.061s-.183.306-.244.428a8.572 8.572 0 0 0-.183.427l.122.061s.305-.305.427-.488c.123-.183.184-.367.184-.367l.183.061s-.061.367-.183.428c-.123.122-.184.427-.184.427h.123l.366-.366c.061-.061.122-.244.122-.244l.245.122s-.123.183-.184.244l-.427.428.183.122s.305-.245.428-.306c.122-.06.244-.244.244-.244l.122.244s-.244.184-.305.245l-.245.244.245.061s.244-.305.427-.366c.245-.061.306-.306.183-.306-.122-.06.061-.183.061-.305s-.183-.183-.305-.183.061-.306-.122-.367c-.183-.06-.367 0-.428 0-.06 0 0-.244-.122-.366-.122-.061-.427 0-.427 0s0-.306-.184-.306c-.122 0-.427.122-.427.122s-.244-.366-.61-.244Zm.672 2.199c-.061.061-.367.672-.428.855-.06.183-.427.55-.427.55l-.183-.183c-.062-.123-.306-.245-.306-.245s.122.367.122.611c0 .305.184.794.184.794s.671-.122 1.099-.366c.428-.245.855-.733.855-.733s-.183-.061-.366-.061c-.184 0-.611.06-.611.06s.061-.244.061-.55v-.732Zm1.344.55s-.184.977-.245 1.343c-.06.367-.122.55-.122.55s.306.061.489.183c.244.123.672.367.672.367l-.122-.306-.49-.305s.673-.489.917-.794c.244-.305.367-.61.367-.61s-.917.366-1.039.488c-.122.06-.305.183-.305.183l-.122-1.1Zm-.55 1.466s-.367.244-.61.366l-.612.305s.55.428.733.55c.184.122.672.61.672.61l.061-.06s-.183-.367-.305-.489c-.122-.183-.428-.488-.428-.488s.611.244.794.244h.428l-.183-.183c-.184-.123-.794-.55-.794-.55l.244-.244v-.061Zm-5.741 2.015c.183.611.794.855 1.343.855.55 0 .672-.244.672-.427-.06-.122 0-.184-.183-.489-.244-.305-.855-.428-1.16-.428-.733-.06-.795.245-.672.49Zm.488-.244c.061.122.306.488.367.61.06.184.305.306.366.306.245 0 .245-.061.183-.244a2.86 2.86 0 0 0-.305-.611c-.122-.183-.183-.244-.367-.244 0 .06-.305.06-.244.183Zm-2.81-.733s.184.061.184.183c.06.122.244.855.305.916.061.122-.183 0-.183 0v.061l1.1.184v-.061s-.245-.062-.245-.123c0-.06-.122-.305-.122-.305s.244.122.428.244c.122.122.244.428.305.428.06 0 .794.122.794.122v-.061s-.122 0-.244-.122c-.123-.122-.184-.306-.245-.428a2.447 2.447 0 0 0-.244-.183s.305-.244.244-.305c0-.062 0-.184-.366-.306-.306-.06-1.833-.366-1.833-.366l.123.122Zm-2.015-.428s.244.061.244.184c0 .122.123.732.184.855 0 .122-.245 0-.245 0v.122s1.222.305 1.466.305.489-.183.489-.244-.061-.428-.061-.489c0 0-.245-.427-.55-.488-.244-.061-1.283-.306-1.466-.367h-.061v.122Zm2.932.672.122.428s.305.06.366.06c.062 0 .184-.121.123-.182-.061-.123-.123-.245-.245-.245-.183-.06-.366-.06-.366-.06Zm-3.36-.122.428.489.244-.367-.366-.427-.306.305Zm-2.137-1.466v.122s.244.184.244.245c0 .122.122.488.122.671 0 .245-.244.123-.244.123v.06l.855.245v-.122s-.183-.061-.183-.122c0-.122-.061-.672-.061-.672l.855 1.16.427.122s-.183-1.038-.183-1.099c0-.061.305.061.305.061v-.122l-.916-.305v.122l.245.244c0 .061.06.61.06.61l-.671-1.037-.855-.245v-.06Zm-.916.061c0 .122 0 .367.06.55 0 .183.062.305.245.366.122 0 .244 0 .183-.122 0-.122-.061-.488-.061-.61 0-.123-.122-.306-.244-.306-.122-.061-.184.061-.184.122Zm-.55.122c0 .123.305.917.916.917.61.06.672-.184.672-.306s0-.244-.122-.488c-.123-.245-.611-.49-.733-.49-.733-.182-.733.184-.733.367Zm-2.627-.366s.184 0 .245.061c.06.122.183.61.244.794.061.183-.305.244-.305.244v.123l.794-.245-.061-.06s-.184.06-.245-.062c-.06-.122-.183-.61-.183-.61l.733.732h.183l.306-.916s.122.489.122.672c0 .244-.184.122-.184.122l.062.122h.366c.122 0 .61.061.61.061l-.06-.06s-.245-.123-.306-.245a3.656 3.656 0 0 1-.122-.733c0-.122.306-.122.306-.122v-.122l-.856-.061-.305.671-.672-.55-.733.184h.061ZM74.877.916s.183-.06.244-.06c.123 0 .184.122.184.122l.488-.55-1.405-.122.49.61Zm-.672.55.611-.183V1.16l-.55-.428-.06.733Zm1.344-.122.55.244V.794l-.55.428v.122Zm-.367.183c.367 0 .245-.427-.06-.427-.306 0-.306.427.06.427Zm-.55.611h1.161c0-.428-.366-.489-.61-.489-.49-.06-.55.489-.55.489Zm1.65.122c-.367.55-.367 1.283-.367 1.283h.123s.305-.855.427-1.038c.183-.367.672-.733.672-.733s0 .06.061.122c.061.06.061 0 .061 0l-.122-.55c.061 0-.489.366-.855.916Zm1.222-.55c.06.184.305.123.305-.06-.061-.123-.305-.123-.305.06Zm.61-.183c0 .245.306.183.306 0s-.306-.183-.306 0Zm.733-.06c-.122.121 0 .366.184.182.183-.122-.123-.244-.184-.183Zm.55.427c-.122.06.061.366.244.244.122-.183-.122-.366-.244-.244Zm.305.733c0 .244.306.183.306 0 0-.184-.306-.122-.306 0Zm-2.81.122s.673-.306 1.222-.367c.55-.06.978.489.855.855-.183.428-.855.917-.855.917l.183.122s.734-.489.917-.733c.183-.183.55-.916-.061-1.466-.611-.489-1.65-.061-1.894.183a4.703 4.703 0 0 0-.366.428v.06Zm.612 1.16c.427.184.793-.122.793-.672s-.855-.61-.977-.427c-.183.183-.61.794-.61.794s.305.183.794.305Zm-1.833-.366c.061-.244.061-.55-.489-.55-.61 0-.366.55-.366.55s.55.06.855 0Zm-.916-1.222c-.122 0-.061.122 0 .245 0 .122.061.244.061.244h.244v-.122c0-.183.245-.122.245 0v.183h.244s.061-.061.122-.244c0-.184 0-.245-.183-.245-.183-.06-.733-.06-.733-.06Zm-1.405-.977s-.183.305-.183.428c-.061.122 0 .183.061.122s.122-.061.122-.061.245 0 .55.427c.122.245.61 1.283.61 1.283h.123s-.122-.916-.428-1.405a3.58 3.58 0 0 0-.855-.794Zm.428 2.382s-.489-1.1-1.1-.916c-.672.122-.672.61-.61.855.122.244.488.55.916.428.366-.245.794-.367.794-.367ZM73.289 2.2c-.427-.244-.55-.305-1.16-.305-.611 0-1.283.672-1.283 1.282.061.672 1.221 1.222 1.221 1.222l.123-.061s-.672-.428-.794-.794c-.123-.367-.123-.733.61-1.038.672-.306 1.772.366 1.772.366V2.81l-.489-.61Zm-.855-.733c-.061.244.183.306.244.122.123-.183-.183-.244-.244-.122Zm-.794.061c0 .245.366.183.305 0-.06-.244-.305-.183-.305 0Zm.183 3.176c-.183.061-.06.55.428.306.488-.245 1.343-.794 2.87-.855 2.077 0 3.054.794 3.054.794.123.06.428-.245.123-.428-.794-.489-1.955-.733-3.177-.794-1.893.061-3.176.916-3.298.977Zm-.733-2.87c.183.244.428.06.306-.123-.061-.122-.428-.122-.306.123Zm-.488.366c.244.244.427.061.305-.183-.122-.183-.489.061-.305.183Zm-.123.672c.184.061.245-.183 0-.244-.122 0-.244.244 0 .244Zm0 3.237.184-.183.06-.55-.183-.244-.06.977Zm-.427.122.183.061.122-1.282-.305-.428v1.65Zm-1.344.122 1.283.428.122-.183-1.527-.489.122.244Zm.306.428.733.244.122-.183-.978-.305.123.244Zm-.123.61.184.184.55-.122.06-.183-.794.122Zm-12.887 4.215s-.306-.244-.489-.366c-.366-.184-.672-.061-.977 0-.244 0-.61.427-.61.427v.55s.305-.489.732-.733c.306-.122 1.1.122 1.344.122Zm-.855.184c-.489-.184-.733.183-.978.61-.244.428.306.794.55.55.245-.183 1.222-.977 1.222-.977s-.306-.061-.794-.183Zm-1.283 1.649c.489.427 1.222.122 1.65-.245.488-.305 1.282-.61 1.282-.61l.06.183s-.671.427-.915.61c-.245.184-.855.734-.855.856-.062.122.488-.184.733-.367.244-.183 1.465-.733 1.465-.733l.123.183s-1.1.611-1.527.917c-.367.305-.855 1.282-.672 1.099.183-.244.855-.672 1.282-.916.428-.305 1.222-.61 1.222-.61l.122.182s-1.038.55-1.344.855c-.366.245-.732.855-.671.794.06-.06.794-.488 1.038-.671.244-.184 1.221-.428 1.221-.428v.183s-1.038.733-1.16.855c-.122.123-.061.245.244.123.367-.123 1.283-.611 1.283-.611l.061.122-.55.489s.794-.123 1.039-.184a78.411 78.411 0 0 0 1.465-.427s-.671-.367-1.16-.611c-.55-.244-1.283-1.527-1.527-2.321-.244-.794-1.038-.489-1.16-.428-.123.123-1.1 1.039-1.222 1.1-.061.06-.672.672-1.222.61-.55-.06-.427-1.038-.427-1.038s-.367.55.122 1.039ZM50.568 7.94c0 .122-.061.183.305.305.428.122.672.122.916.122.245 0 .428.183.367.428a4.21 4.21 0 0 0-.122.794c.06.122.244.427.244.427l.183-.06s-.305-.49-.244-.734.061-.733-.061-.855-.183-.183-.428-.122c-.244 0-.488 0-.794-.061-.183-.183-.366-.306-.366-.244Zm.855 0c.183 0 .855 0 1.038.183.184.244.184.488.122.916-.06.427.245 1.1.794.916.489-.122.917-.61 1.1-.672.183-.06 1.466-.305 2.015-.244.55.061.917.427 1.039.733.06.305.244.794.122 1.1-.122.244.244-.062.305-.306 0-.183-.122-1.344-.672-1.588-.427-.244-.977-.367-1.71-.244-.672.06-1.1.122-1.282.244-.184.183-.306.183-.306.122s-.06-.55-.183-.733a.627.627 0 0 0-.428-.366s.184.244.184.366.06.305.122.55c0 .183.06.366.06.366l-.243.061s-.123-.366-.245-.855c-.122-.488-.733-.733-.916-.733-.183-.06-.855.184-.916.184Zm2.32 3.053c.062.123-.06.184-.06.184l.305.122s.183-.122.306-.183c.122-.062.733-.184.916-.184.244 0 1.1.306 1.527.367.427 0 .672-.306.672-.733 0-.367-.245-.977-.855-1.1-.49-.122-1.833.306-1.955.306-.061 0-.244.489-.428.672-.183.244-.55.183-.55.183s.062.305.123.366Zm-5.985-.305c.122.183.306.305.306.305v.062c0 .06.183.122.183.122l-.061.122h.183c.122.06.244.06.244.06l-.244.184s.061.061.244.061h.428l-.183.184h.305c.183 0 .55-.184.55-.184s-.184-.244-.306-.305l-.366-.183s0-.062-.122-.123c-.061-.06-.245-.06-.367-.06-.06 0-.244-.123-.366-.245a1.877 1.877 0 0 0-.367-.366s-.122.183-.06.366Zm2.26-.366c0 .366.244.671.367.671.122 0 .183-.244.122-.488-.061-.245-.245-.916-.245-1.1 0 0-.183.55-.244.917Zm2.077 1.404c-.061.062.06.367.244.184.122-.122-.122-.367-.244-.184Zm.06.733c.184.061.306-.244.123-.305-.122-.061-.305.244-.122.305Zm-.732-.427c.183.06.366-.183.183-.244-.061-.123-.366.122-.183.244Zm0-.489c.122.061.122-.183.183-.427 0-.245-.122-.367-.305-.428-.184-.061-.367.244-.367.305 0 .062-.366.184-.55.306-.183.122-.183.489 0 .61.184.123.428-.121.428-.183 0-.06-.183-.06-.183-.06s.122-.123.244-.062.245.184.306.245c.122 0 .244-.123.183-.184-.061-.06-.245-.183-.245-.183s0-.122.062-.122c0 0 .183.122.244.183Zm.61-.427.123-.123v.49h.06s.062-.184.062-.245.061-.306.061-.306h.244s-.183.489-.244.55c-.061.122 0 .122.061 0 .061-.061.245-.489.245-.489l.183.062s0 .06-.061.183c0 .122-.306.366-.306.366s0 .061.122.061c.062-.06.428-.305.672-.427.245-.184.183-.245.122-.367-.06-.122-.305-.305-.427-.427-.122-.061-.428-.184-.733-.061-.306.06-.428.427-.428.55 0 .122 0 .61.061.61s.123-.06.123-.06l.06-.367Zm-.244.916c0 .244.245.244.245.06 0-.304-.245-.121-.245-.06Zm-.855-.061c-.183.06-.06.244.061.183.123-.061 0-.244-.06-.183Zm.245.06c-.062.123 0 .245.183.123.183-.061-.183-.183-.183-.122Zm.305.184c-.061.122.122.244.244.122.061-.183-.183-.244-.244-.122Zm-.794.367c.122 0 .122-.306 0-.306-.183 0-.122.306 0 .306Zm-.61-.367c-.062.061-.184.183-.123.244 0 .122.061.306 0 .367-.061.06-.367.427-.428.488 0 .123-.06.245.061.245.184 0 .55-.122.672-.122.123-.062.306-.184.306-.184v-.183l.122-.122s-.061-.061-.061-.183c0-.061.06-.122.06-.122s-.182-.062-.243-.245v-.305h-.367v.122Zm-1.589.55s-.061 0-.061.06c0 .062.55.184.55.184s-.183.061-.061.122.305 0 .305 0-.061.245 0 .245.428-.367.489-.428c.06-.061-.123-.183-.245-.183s-1.1-.061-1.1-.061l.123.06Zm2.443-.428c-.06.183.061.245.184.122.183-.122-.123-.183-.184-.122Zm.855.122c-.122.061 0 .367.122.306.184-.122.062-.428-.122-.306Zm-.427.184c.183 0 .183-.245 0-.245-.183.061-.122.245 0 .245Zm.06.244c0 .305.367.122.367 0-.06-.122-.366-.244-.366 0Zm-.121.122c-.245 0-.245.244-.061.244.183 0 .183-.305.06-.244Zm-.428.489c.306 0 .183-.428 0-.367-.122 0-.305.306 0 .367Zm.061-.794c-.122.122.061.366.245.183.122-.183-.184-.244-.245-.183Zm1.772-.733c.06 0 .427-.122.488-.122.122 0 0 .244-.06.244-.062 0-.673.122-.673.122v.183h.55c.061 0-.061.245-.061.245h-.672l-.183.244s.427.305.61.305c.123.061.062.122.306.122s.489-.855.672-1.16c.122-.305 0-.61-.061-.733-.122-.061-.428.244-.489.305-.122.062-.489.184-.489.184l-.122.183c0-.061.184-.122.184-.122Zm-.795.916-.122.183.184.428-.184.122s-.06-.245-.06-.367c0-.06-.184 0-.184.123 0 .06.061.427.061.427h-.244v-.244c0-.061-.183-.061-.183 0v.244l-.306.061.183-.305h-.244s-.427.427-.427.55c0 .06.06.122.244.122.183 0 .366-.122.61-.122h.672c.123-.062.184-.062.306-.123.183-.06.55-.183.61-.305a.267.267 0 0 0-.06-.183s0-.184-.123-.184c-.06-.06 0-.122-.06-.183-.123-.122-.245-.122-.245-.183-.244-.061-.428-.061-.428-.061Zm-2.26 2.626c0 .061 0 .245.123.184.183 0 .366-.123.366-.123s0 .123.122.123c.123 0 .245-.123.245-.123s-.061.184 0 .123c.122 0 .366-.306.366-.306s.122.122.183 0c.062-.122.062-.244.062-.244s.122.122.183 0c.06-.122 0-.367 0-.367s.183-.122.183-.183-.122-.122-.183-.122c-.061.061-.733.489-.855.55-.245.183-.794.488-.794.488Zm2.75-1.16c0-.061.121-.122.121 0v.427s.061 0 .123-.06c.06-.062.06-.306.06-.428 0-.061.184.06.184.122v.489h.366c.061 0 .061-.245 0-.306-.06-.122-.244-.55-.672-.55-.427 0-.427.306-.427.428.122 0 .244-.061.244-.122Zm1.465 1.038c0 .061.122.428.489.489.366.06.427-.122.305-.184-.122-.06-.55-.244-.61-.305-.062-.061-.184-.122-.184 0Zm-.244-.55v-.183c0-.06.06-.122.122-.06.061.121.061.182.061.182h.061v-.488c0-.061.183-.122.183-.061v.183c0 .06 0 .244.122.122.123-.061.245-.244.245-.367.06-.122-.245-.488-.733-.488-.55 0-.245 1.038-.183 1.16h.122Zm.366.367c.183.061.367.122.672 0 .306-.122.367-.489.306-.672-.062-.122-.428-.244-.49-.061-.06.183-.793.672-.793.672s.122 0 .305.06Zm-.61.244s0 .183-.062.428c-.06.183-.366.305-.244.61.061.306.366.123.55 0 .183-.183.244-.488.06-.671-.182-.123-.182-.428-.182-.428l-.123.061Zm-.856-.488c-.244-.123-.427-.306-.427-.367s-.428.183-.55.367c-.061.183.428.671.672.61.244-.06.855-.427.855-.427s-.305-.061-.55-.183Zm.672.488s0 .061-.305.122a.751.751 0 0 0-.672.428c-.122.244.122.427.305.427.123-.06.367-.244.55-.366.183-.183.244-.55.244-.672l-.122.061ZM59.546 2.2c-.183.061-.244.367-.122.61.122.245.306.245.55.123.244-.122.183-.366.061-.489-.061-.122-.305-.305-.489-.244Zm1.222-.183c-.061.061.061.244.061.244s-.122.122-.122.245c0 .183.122.244.122.244s.244-.55.489-.733c.244-.183.427-.306.61-.244.245.06.245.366.245.488l-.122.245s.244-.123.305-.184c.061 0 .366.122.366-.06 0-.123-.305-.062-.305-.123v-.122a.615.615 0 0 0-.061-.183s.244-.123.122-.245-.244.061-.244.061l-.245-.06s.184-.306 0-.306c-.244 0-.183.305-.183.305l-.366.122s-.122-.244-.183-.183c-.123.061.06.367.06.367l-.244.244c-.122-.122-.244-.244-.305-.122Zm-1.466 1.16c-.122 0-.366-.183-.672-.183-.305 0-.489 0-.794.55-.305.61.916.855.916.855s-.488-.305-.61-.428c-.123-.122-.062-.488.244-.61.244-.123.916.06.916.06v-.244Zm-.122.489c-.061-.061-.733-.366-.794 0-.061.366.244.55.427.489.184-.061.306-.245.245-.367-.122-.06.122-.122.122-.122Zm2.077-1.16c-.184.305-.061.366-.061.366s.122-.183.244-.244c.122 0 .183.244.183.244s.183-.122.244-.244.184-.55 0-.611c-.183 0-.427.183-.61.489Zm1.343 0c-.183 0-.244.183-.366.244-.061.122-.306.244-.367.244v.244s.061.245 0 .306c0 .06.184-.061.306-.122.06 0 .305-.245.366-.367 0-.183.244-.244.244-.122s-.122.367 0 .367c.123.06.367-.123.367-.245 0-.06-.367-.55-.55-.55Zm1.283 1.221v.367c0 .06-.183.244 0 .244s.489-.122.733-.183c.183 0 .427 0 .61-.061.184-.062.184-.184 0-.245-.183-.06-.244-.244-.488-.244-.244.061-.794 0-.855.122ZM63.7 4.764c0 .061.488 0 .855.123.366.122.672.244.916.244s.489 0 .733-.122c.244-.184.366-.184.244-.245-.06 0-.488-.06-.672-.122-.244-.122-.55-.305-.855-.244-.305.061-.855.122-1.038.244-.183.061-.183.061-.183.122Zm.488.55c0 .061.245.244.428.489.183.244.61.61.855.672.244.122.672.244.977.183.245 0 .428-.183.245-.244-.245 0-.367-.062-.55-.245-.244-.244-.244-.366-.55-.488-.366-.123-1.405-.489-1.405-.367Zm1.039 1.527c-.061.061 0 .672.183.794s.55.244.672.367c.183.122.305.305.427.427.061.183.061-.244 0-.427-.06-.184-.366-.55-.427-.611-.061-.122-.122-.122-.306-.183-.122-.062-.427-.428-.55-.367Zm.122 1.466c.06.183.427.428.489.61.06.123.366.55.55.795.243.244.305.244.243-.183-.122-.428-.305-.794-.55-.917-.182-.244-.732-.305-.732-.305Zm-1.1-.428.367.55c.122.244.244.244.305.489 0 .183.245.55.367.733.122.183.305.305.305.305s.061-.794 0-.916c-.06-.183-.305-.244-.366-.305-.061-.123.06-.184-.184-.306-.122-.244-.733-.61-.794-.55Zm-5.741-.305c0 .061-.183.305.183.61.367.245.611.245.672.123.061-.122.061-.428-.061-.489-.122-.122-.244-.122-.366-.183-.123 0-.367-.122-.428-.061Zm1.222-2.077v.184s.244.06.427.122h.428s0-.183.183-.367l.244-.244-.183-.244s-.428.244-.489.305l-.61.244Zm.977.733c.122 0 .183-.244 0-.244s-.122.244 0 .244Zm-.061.245c0 .122.183.06.244 0 0-.123-.244-.123-.244 0Zm-.061.305c-.061.183 0 .305.244.183.122-.183-.244-.305-.244-.183Zm-.184.428c-.06.06-.122.305.061.183.245-.183 0-.245-.06-.183Zm-.183-.123c.122.061.122-.244.061-.244-.122 0-.122.183-.06.244Zm.306-.55c-.123 0-.123.123 0 .123.06 0 .06-.122 0-.122.06 0-.062 0 0 0Zm-.489-.61c-.244-.061-.428-.122-.428-.122l.062-.489s.122-.061.244-.061c.06 0 .244-.061.244-.061l-.06-.183s-.123 0-.245.06c-.122.062-.367.062-.367.062l-.06.855s.366 0 .61.061c.183 0 .489.122.489.122l.06-.122c-.122.061-.305-.122-.549-.122Zm1.1-.244c-.062.06.122.305.244.488.06.183.427.489.427.916 0 .428-.244.733-.305.794-.061.062.244-.06.305-.122 0-.06.367-.733.122-1.1-.244-.427-.794-.976-.794-.976Zm-.306 3.603c-.061.122 0 .245-.122.306-.061.06-.428.244-.489.244-.06 0 .061.061.306.122.244.061.733-.061.794-.366l.06-.245-.549-.06Zm-1.283 1.833c.306 0 .428-.062.672-.123.244-.06.611-.61.611-.61s-.061 0-.244-.061c-.184 0-.306.122-.489.183-.244.06-.366.305-.61.305-.184 0-.428.122-.49.122 0 0 .245.184.55.184Zm-1.038 1.465c.061 0 .305-.244.183-.305-.06-.061-.244.306-.183.306Zm.122-.55c.183.123.977.245 1.344.123.428-.183.855-.672.916-.855v-.245s-.428.306-.672.367c-.244.061-.794.183-.916.305-.122.062-.244.184-.428.245-.06-.061-.427-.122-.244.06Zm2.932-2.809c-.366.367-.061.855 0 1.222.061.366-.061.55-.061.55s.366-.184.489-.367c.122-.183 0-.244 0-.489 0-.183 0-.427.122-.672.122-.183.244-.671.305-.794-.061 0-.489.123-.855.55Zm-.55-1.771-.244.244.244.367v-.611ZM59.12 3.787c0 .061.244.428.183.672-.061.183-.305.366-.244.428v.122s-.245.244-.428.366c-.122.183-.489.916-.489.916s.49-.183.672-.244c.123-.061.123.122 0 .183-.06.061-.183.306-.183.367 0 .122-.122.55-.122.55s.305-.367.489-.428c.244-.061.855-.183.916-.183.06 0-.183-.122-.244-.122h-.428V6.29s.244-.06.428-.06c.122 0 .61.121.61.183 0 .06-.06.366-.244.366-.183.061-.305.122-.366.244-.062.122-.245.428-.184.672.061.183.428.367.672.183.245-.183.855-.61.855-.794a1.042 1.042 0 0 0 0-.61c-.06-.245.245-.245.306-.123.06.062.366.672.366.856 0 .183-.183.61-.672.855-.55.305-.61.366-.672.366-.122 0-.183.306 0 .428.184.06.794 0 1.039-.245.244-.244.855-1.099.855-1.466 0-.366-.611-1.282-.733-1.404-.183-.122.122-.122.244 0 .183.06.672.733.733.916 0 .183.061.244.061.244s.061 0 .183-.06c.061 0 .367-.184.672 0 .306.182.733.61.917.671.183.061.427.061.427.061 0-.061-.122-.122-.183-.183-.061 0-.428-.428-.611-.672-.183-.244-.428-.55-.672-.61-.244 0-.427.06-.427.06l-.123-.244h.733c.184 0 .856.61 1.1.733.183.122.305.122.427.122.123-.061 0-.183 0-.183-.06 0-.488-.367-.733-.733-.183-.367-.55-.977-1.099-.855a2.252 2.252 0 0 0-.794.366l-.122-.244s.672-.367.794-.428c.183-.06.55-.427.61-.61v-.428c0-.122-.183-.244-.244-.183-.06.122-.183.427-.305.488-.183.061-.428.123-.61.245-.184.122-.612.488-.612.488l-.183-.183s.428-.305.61-.427c.184-.123.367-.123.428-.367s.123-.427 0-.427c-.06 0-.122.183-.183.244-.122.06-.427.06-.672.183-.183.122-.305.244-.427.305l-.122.245h-.184s.367-.428.428-.55c0-.122 0-.733-.061-.855-.122-.122-.183 0-.244.061 0 .122.06.428 0 .61-.061.123-.428.673-.428.673l-.122-.061s.183-.245.244-.428c0-.183.061-.672-.122-.794s-.367-.244-.367-.183c0 .06.184.305.123.55-.061.244-.061.305-.123.427 0 .061-.06.367-.06.367h-.184s.122-.306.061-.49a.46.46 0 0 0-.305-.427c-.183-.122-.367-.122-.428-.06 0 .06.184.366.245.488 0 .122.06.366 0 .427a.615.615 0 0 1-.061.184h-.123s0-.122-.122-.306c0-.06-.366-.122-.366-.122Zm3.481 3.36v.244s.428.122.611.244.55.55.61.794c.062.183.062.306.245.428.245.122.428.183.55.183.122 0-.122-.305-.244-.428-.123-.122-.306-.183-.367-.488-.061-.306-.305-.794-.488-.916-.245-.123-.367-.184-.49-.184-.182-.06-.427.122-.427.122Zm1.16 1.77c0 .123-.06.245 0 .367 0 .122.184.489.428.672.245.244.428.428.55.672.122.244.183.366.183.305 0-.122.061-.305 0-.427-.06-.061-.244-.55-.305-.733v-.367l-.367-.183c-.183-.122-.488-.305-.488-.305Zm3.238-.06c-.122 0-.061.488.061.733.122.244.305.427.428.61.122.123.183.184.366.245.183.06.306.06.367 0 0 0-.061-.184-.184-.306-.122-.122-.366-.61-.488-.794-.184-.183-.245-.427-.55-.488Zm1.344 1.221c0 .061 0 .184.122.184s.122-.245.122-.245.061-.06.061-.122c0-.122-.122-.122-.122-.122s-.061-.061-.183-.061c.06-.061 0 .244 0 .366Zm-.061.855c0 .123-.123.306-.062.428 0 .061.184.061.184.061s0-.061.06-.367c.062-.305.062-.305 0-.366 0 0-.182.183-.182.244ZM62.6 7.757l-.123.306s.367.427.244.55c-.06.183-.427.732-.244 1.038.183.305.428.366.794.427.367.061.61 0 .672 0 .061 0-.244-.122-.366-.305-.123-.183-.306-.489-.245-.733.061-.183.122-.489 0-.733-.183-.55-.733-.55-.733-.55Zm5.252 3.176c0 .061-.122.367-.183.489s.06.244.183.122c.061-.122.122-.305.183-.427.061-.123.061-.184 0-.245 0-.06-.183-.06-.183.061Zm-2.748-.671c.06.122.122.366.244.671.06.306.06.672.06.794 0 .062.184.123.245 0 0-.122.306-1.099.306-1.099s-.184-.183-.306-.183c-.183-.061-.61-.367-.61-.367s0 .122.06.184Zm1.832 1.527-.061.427.183.061.122-.305-.244-.183Zm-.794-1.65c0 .061 0 .184.06.428.062.244.245.977.245 1.038v.122h.184c0-.06.305-1.16.244-1.221-.122 0-.367-.183-.489-.245-.122-.183-.244-.122-.244-.122Zm-2.321.184c0 .06.183.427.244.55.061.183.367.61.489.793.122.245.244.306.305.245.061 0 .061-.611 0-.672-.06-.122-.183-.428-.55-.611-.366-.183-.488-.305-.488-.305Zm3.36.366a.604.604 0 0 0-.062.489c.061.244.183.488.244.55.061 0 .184-.062.123-.184 0-.122-.061-.366-.061-.489-.123-.06-.245-.366-.245-.366Zm-4.154-.366s0 .122-.061.244c0 .122-.122.244-.245.55-.122.305.061.794.123.916.06.122 0 .855.06.855.062 0 .55-1.1.611-1.283 0-.183-.06-.61-.122-.733-.06-.183-.122-.61-.122-.61l-.244.06Zm-1.771.977a.476.476 0 0 0-.245.244c-.122.122-.305.367-.427.489-.123.06-.306.244-.428.427-.122.122-.427.489-.305.489s.366-.061.61-.183c.245-.122.55-.489.672-.733.184-.244.306-.611.306-.733 0 0-.122-.061-.183 0Zm-2.077 1.16c-.122.061-.244.245-.306.367-.122.122.062.244.123.244.06-.061.305-.366.427-.427.061-.062.183-.123.183-.184-.06 0-.305-.06-.427 0Zm1.588.672c-.122-.06-.244.672-.244.672s.366-.61.244-.672Zm.305 1.222c0 .06-.06.183.061.183.062 0 .123-.122.123-.183s0-.122-.061-.122a.131.131 0 0 0-.123.122Zm-.427-.367c0 .061-.122.306-.184.367 0 .06-.06.183 0 .244.123 0 .123 0 .184-.122 0-.061.122-.306.183-.367 0-.06.122-.244 0-.244-.061-.122-.122 0-.183.122Zm-1.283-1.038c-.061.122-.244.489-.305.55 0 .06.06.183.122.06.122-.06.305-.549.366-.61.061-.061.061-.122 0-.183 0 .06-.122.122-.183.183Zm.244.428c-.06.06-.183.244-.183.366 0 .061.122.183.183.061.062-.061 0-.244.184-.244.183-.061.183-.245.06-.245-.06 0-.182 0-.244.062Zm.55.244c-.06.122-.244.305-.244.489 0 .183.183.06.244 0 0-.123.183-.367.245-.428a.186.186 0 0 0 0-.244c-.123-.062-.184.06-.245.183Zm2.138-3.115c-.061.122-.122.244-.244.305-.123.061-.367.428-.428.55 0 .122-.61 1.16-.672 1.283-.06.06 0 .366 0 .488s.122.183.183.122c.062 0 .245-.427.306-.488.06-.061.427-.306.733-.489.366-.244.366-.733.305-.916 0-.244 0-.489.061-.672.061-.183.061-.428-.06-.428 0 0-.184.123-.184.245Zm5.375 1.893c0 .122.672.489.733.611.06.122.122.305.183.367.061.06.305.06.244.06 0-.06-.122-.427-.122-.488 0-.122.061-.367.061-.428 0-.06-.122-.671-.122-.671l-.183-.184c-.061-.06-.061-.06-.183-.06-.062 0-.062.121-.184.244-.06.122-.183.244-.244.122-.061-.183-.122-.245-.183-.245-.061.062 0 .55 0 .672Zm-3.848-.488c0 .183-.306.427-.367.488-.06 0-.122.245-.244.367l-.183.366h-.245s0-.183-.06-.427c-.062-.245-.123-.367-.184-.428-.06 0-.183.244-.305.367-.122.122-.794.61-.916.671-.184.123-.184.245-.061.306.122.06.305.183.427.122.122 0 .794-.489.855-.55.122 0 .183 0 .122.061 0 0-.733.55-.855.672s-.244.306-.244.367c0 .06.244.122.428.06.183-.06.427-.243.55-.305.121-.06 1.038-.794 1.099-.855.06-.06.305-.183.244-.06-.122.121-.489.488-.672.61-.122.061-.366.367-.244.305.183-.06.244-.06.488-.183.245-.122.672-.427.856-.55.183-.122.671-.366.793-.366.062 0 .184.061.184.061s-.367.244-.489.367c-.122.06-.183.244.061.183.183-.061.55-.184.672-.306.183-.06.672-.06.672-.06s-.122.06-.183.244c-.061.183.122.122.122.183 0 .06.06.183.183.183.061 0 .061.061.061.183 0 .061-.122.306-.122.306l.122-.061c.061-.061.183-.061.183-.184 0-.06.123.062.123.184s-.123.305-.123.305h.062c.06 0 .183-.183.244-.244 0 0 .06 0 .06.183 0 .244-.06.427-.06.427s.122.062.183-.06c.061-.123.122-.428.122-.49 0-.06-.366-.671-.366-.732-.061-.061-.183-.183-.061-.183.06 0 .244.122.366.122.122.06.428.183.428.183v.122c0 .061-.123.245 0 .245.06 0 .122-.062.183-.123 0-.06.122 0 .061.123 0 .122-.122.305-.122.305s.06 0 .122-.061c0-.061.122-.183.122-.122 0 .06-.06.305-.06.366s0 .183.06.122c.061 0 .122-.183.245-.305.06-.122-.062-.55-.184-.61-.06-.123-.366-.428-.427-.428-.061-.062.06-.184.183-.123.122.061.305.184.305.245.061.06.183 0 .245.122 0 .06-.062.244 0 .244.06 0 .06 0 .183-.122.06-.061 0 .183 0 .244-.061.061-.183.245-.122.245.06 0 .122 0 .183-.122.061-.062.122 0 .122.122s-.061.183-.183.244c-.061.061 0 .244.06.122.123-.122.184-.122.245-.244.061-.183-.183-.672-.305-.855-.061-.245-1.038-.672-1.344-.733-.366-.061-2.32-.367-2.443-.428-.183-.06-.183-.61-.428-.61-.305-.306-.427 0-.427.183Zm8.429 6.413c0-.061-.184-.244-.306-.306-.183-.06-.305.062-.244.306s.244.855.244.855.489.061 1.039.061c.488 0 .672-.305.244-.55-.427-.244-.855.245-.855.245s-.122-.061-.183-.061c-.061-.061-.061-.123-.061-.123s.06-.366.122-.427Zm1.343-.916c.062.122.245-.061.367 0 .122.122-.061.183 0 .244s.122 0 .183 0c.061-.061.061-.244-.06-.366-.123-.062-.306-.123-.428-.062-.123.062-.062.123-.062.184Zm-1.588-1.1c.123.122.367 0 .184-.183-.061-.061-.245.061-.184.183Zm2.016-1.771c-.244.305-.428.855-.489.855 0 .061 0 .061.123 0 .06 0 .855-.733.977-.916.122-.183.06-.306-.122-.306-.245-.06-.306.062-.489.367Zm.061 1.16a.698.698 0 0 0 .428.184h.244l.244-.184H74.083Zm2.26.672c-.061 0-.305.122-.244.184.06.122.305.183.488.244.184.061.245-.061.123-.183-.062-.061-.367-.245-.367-.245Zm-4.58.855c.671.794 2.259 1.344 3.114 1.65a6.598 6.598 0 0 0 1.955.305c.06 0 .244-.183 0-.183-.184 0-.489-.122-.489-.122s.977-.489 1.038-.611c.123-.061 0-.245-.183-.122-.183.122-1.16.61-1.16.61l-.428-.06s.916-.49 1.038-.611c.123-.061-.06-.123-.183-.061l-1.1.55-.244-.123s.794-.428.978-.489c.183-.06-.061-.183-.184-.06l-.977.488-.366-.122s.977-.428 1.038-.55c.061-.061-.122-.122-.244-.061-.061.061-1.1.55-1.1.55l-.183-.122 1.283-.672s.672.244 1.282.366c.55.122 1.772.122 1.955.122.183 0 .428-.366.244-.305-.244.061-1.282 0-1.71-.061-.427-.061-1.038-.183-1.954-.672-.978-.428-2.26-1.65-2.322-1.71-.06-.061-.06-.061-.183.06-.122.123.061.49.061.49l-.183.122s-.122-.061-.244-.061c-.061 0-.245.06-.245.183 0 .06.245 0 .306.06.061.062 0 .184.183.184.122 0 .061-.183.061-.183l.306-.183.183.183s-.306.183-.367.244c-.06 0-.244.122-.305.122s-.55.306-.55.306l-.183-.122s.183-.123.183-.184c.061-.06-.06-.244-.122-.183 0 .061-.244.183-.244.183s-.122-.06-.183-.122c-.061-.06-.306-.122-.245 0 .061.244 0 .122.672.977Zm1.037-.794c-.06 0-.794.367-.794.367l.123.122 1.282-.61-.122-.123s-.427.183-.489.244Zm0 .367c-.122.061-.55.244-.55.244l.123.122s.427-.183.55-.244c.183-.061.794-.428.794-.428l-.184-.122c0 .061-.61.367-.733.428Zm1.039-.122s-.489.244-.672.305l-.61.306.182.122 1.283-.672-.183-.061Zm.488.244-.122-.061s-.427.244-.61.305c-.123.061-.672.306-.672.306l.122.122s.244-.122.305-.183c.122-.061.183.122.122.183-.06.061-.244.122-.244.122l.122.061s.183-.06.245-.122c.122 0 .244 0 .183.061s-.245.122-.245.122l.306.122 1.221-.671-.183-.062s-.366.123-.427.184c-.062 0-.123-.122-.062-.184.062-.06.245-.122.245-.122l-.183-.122s-.184.122-.245.183c-.06 0-.244-.06-.183-.122.183 0 .305-.122.305-.122Zm.794-.61s1.772-1.71 1.955-1.894c.183-.122 0-.428-.244-.367-.245 0-.489.306-.489.306H75.06l-.183.305H76.1l-.061.122h-1.283l-.122.184 1.221.06-.06.123H74.45l-.184.244 1.344.061c-.489.733-.489.855-.489.855Zm1.466-.367c.061.06.855 1.038.916 1.1.062.06.245 0 .245-.123 0-.061-.916-1.283-.916-1.283s-.245.245-.245.306Zm-6.413-4.031c-.061.06 0 .427 0 .61.061.245.061.367.183.489.061.122.367-.061.367-.183-.061-.122-.245-.428-.306-.611-.122-.122-.183-.305-.244-.305Zm-1.16.55c0 .06-.123.427-.061.488 0 .122.06.183.06.183s.245-.183.428-.305.61-.245.55-.367a.467.467 0 0 0-.122-.305c0-.061-.184-.061-.245 0-.122 0-.61.244-.61.305Zm1.526-.55v.183c0 .06.062.183.123.244 0 .061.122.061.244 0 .122 0 .672-.183.733-.183.061 0 .183.061.183.244v.55c0 .122.061.244.061.244s-.183.061-.122.184c.061.122.244.06.244.06s.184.306.245.428c.06.122.183.428.122.489-.061 0-.428.122-.489.122-.122 0-1.466.55-1.649.61-.183.123-.305.184-.244.367.06.122.183.367.672.245.488-.123 2.076-.733 2.137-1.1 0-.428-.06-.855-.183-.977-.122-.183-.427-.306-.427-.367 0-.06.183-1.16-.184-1.465-.366-.306-.55-.245-.794-.184-.244.184-.55.245-.672.306Zm-.06 1.282c-.367.184-.306-.244-.367-.183 0 0-.122.122-.122.244 0 .123.183.306.61.184.428-.123.367-.611.245-.611 0-.061.061.183-.367.366Zm-.978 1.527c.183.245.733.428.794.428.061-.061-.06-.245-.06-.245l1.404-.61s.366.122.427.06c0 0 0-.121-.122-.243-.06-.123-.366-.55-.427-.733a7.657 7.657 0 0 1-.122-.917c0-.06-.061-.06-.123.061-.06.123-.06.733-.06.733l-1.772.611s0-.06-.061-.183c0-.122-.122-.428-.122-.367-.122.611.061 1.16.244 1.405Zm.122-.61s.123.122.184.122c.06 0 1.527-.489 1.527-.489l-.061-.183s-1.1.427-1.283.427l-.367.123Zm.306.488c.06 0 .122.061.244.061.061 0 1.283-.55 1.283-.55l-.061-.122s-.611.184-.794.245c-.123.122-.672.366-.672.366Zm2.504-3.054v.122h.733c.183 0 .794 0 .977-.06.183 0 .244-.062.244-.062v-.06s-.366 0-.427.06h-1.527Zm1.954.183c-.06.062-.671.245-.855.306-.122 0-.671-.061-.733-.061-.122 0 0 .122 0 .122v.122c0 .061.794 1.588.794 1.588l.062-.061-.733-1.588h.183l.672 1.466v-.122l-.489-1.283h.183l.428 1.1.06-.184-.304-.916h.183l.244.733.122-.244-.183-.55h.183l.122.366.123-.244-.062-.244h.123s0 .183.06.06c0-.06.062-.243.062-.243s-.183-.184-.245-.123Zm-1.588.733c0 .061.245.611.367.855l.305.611.061-.06s-.06-.062-.122-.184c-.06-.122-.55-1.405-.55-1.405s-.06.122-.06.183Zm-.61-1.038c0 .061-.061.183.06.305.123.123.306.428.367.428s.061.244.061.366c0 .061.55 1.344.611 1.466.061.123.061.306.244.184.245-.061.672-.306.672-.367s.122-.244.122-.305.672-1.71.672-1.772c0-.122-.183-.183-.244-.06-.061.06-.061-.184-.061-.245s0-.183-.122-.183c-.184 0-.306.06-.306.06H72.19v.123Zm4.092 1.832c-.061 0-.122.061-.061.123 0 .06.122.183.122.183l-.122.06h-.489c-.122 0-.183.062-.183.123h.122s.122-.061.183-.061.184 0 .184.061-.123.183-.123.244v.123a.131.131 0 0 0 .123-.123l.183-.183h.305c.122 0 .122-.122.245-.122h.244c.122 0 .183.061.061.122-.061 0-.305 0-.305.061l-.061.061h.183c.06 0 .244.061.305 0 0-.06.061-.06.061-.122 0-.061 0-.061.061-.061h.122s-.06 0-.06.122c0 .061.183.061.183 0v-.244h-.061c-.062 0-.123.06-.184 0-.06 0-.06-.061 0-.061.061 0 .184 0 .122-.184 0-.122-.427-.122-.55-.122-.121 0-.06.123 0 .123.062 0 .306 0 .367.06.061 0 0 .062-.06.123-.062 0-.367.06-.428 0-.061 0 0-.245-.123-.306-.06-.06-.06 0-.122 0 0 .061-.06.061-.06 0-.123.061-.184 0-.184 0Zm.122-.794v.367c0 .06.061.122.122.183s.122.061.245.122c.06 0 .244-.183.305-.244v-.428c0-.06-.061-.06-.122-.06h-.428l-.122.06Zm.183-1.343h-1.282c-.123 0-.123.06-.123.122v2.26s0 .183.062.122c0 0 .794-.55.855-.611.06 0 .06-.061.06-.061v-.672c0-.061 0-.061.123-.061h.305v-.977c.061 0 .061-.122 0-.122Zm-.427.488v.306c0 .06-.183.122-.245.122-.06 0 0-.061.061-.183 0-.061.062-.061.062-.184v-.244c0-.061-.123 0-.184-.061-.06 0-.183 0-.305.061-.061.061-.061.428 0 .61 0 .123.183.245.183.306s-.06.061-.122.061c-.061 0 0 .122 0 .245.061.122 0 .244 0 .305s.244-.061.244-.122c0 0 .061-.245.061-.306 0-.06 0-.305.061-.366 0-.061.184-.122.184-.183v-.306c0-.06.183-.122.06-.183.062 0 0 .122-.06.122Zm.672-.366v.977h.366c.061 0 .122.061.122.122v.733c0 .061.489.489.55.489.122 0 .489-.733.61-.978.123-.244.245-1.282.245-1.343 0-.061-.122-.122-.244-.122h-1.527a.131.131 0 0 0-.122.122Zm-.428-.733c.122 0 .244-.245.244-.489s-.183-.55-.244-.55-.244.306-.244.55c0 .183.06.489.244.489Zm-.305.122c0 .061 0 .061.06.061h.49c.122 0 .122-.061 0-.061h-.49c-.06-.061-.06-.061-.06 0Zm.672-.122c.06 0 .183-.061.305 0 .122.06-.061.427 0 .427a.645.645 0 0 0 .305-.122c.061 0 .184-.244.061-.55-.06-.244-.427-.244-.61-.183-.184.061-.184.306-.184.306.062.06.062.122.123.122Zm-1.466-.367c-.061.55.183.794.244.794h.061c-.061 0-.061-.122-.061-.244 0-.061 0-.244.183-.305.122-.061.306.183.367.122.06-.061-.061-.306-.184-.489-.122-.183-.305-.183-.427-.183-.061 0-.183 0-.183.305Zm.794.855h.122v-.122h.122v.122h.183v-.122h.184v.122h.06v-.183h-.61l-.061.183Zm1.588-.55v.245h.122v-.183h.122v.183h.244v-.183h.123v.183h.122v-.244h-.733Zm-1.71-2.931c-.062.244.183.794.244.855.06.122.06.367.06.367h.184V8.49c0-.122.245-.61.245-.916 0-.305-.245-.672-.306-.672 0 0-.366.367-.427.611Zm.794 1.222s.183-.123.305-.062c.183.062.122.367.183.367s.245-.489.245-.489.183-.733-.306-.672c-.427 0-.61.794-.61.856h.183Zm-1.283-.856c-.122.062-.305.367-.244.611 0 .245.06.55.244.672.183.061.061-.427.122-.427.061-.062.244-.123.244-.062l.123.123h.183c0-.061-.061-1.16-.672-.917Zm.61.978c-.06 0-.121.06 0 .06h.673c.06 0 .06-.06 0-.06h-.672Zm-.06.183v.244h.122v-.183h.122v.183h.183v-.183h.122v.183h.184V9.04h-.733Zm1.649 1.038c-.061 0-.061.184 0 .184h.61c.123 0 .123-.184 0-.184h-.61Zm.06-.183s-.121-.794-.427-.733c-.305 0-.488.305-.427.489.06.183.244.305.305.305s-.061-.305.183-.305c.245 0 .184.305.184.305l.183-.061Zm.367 0h.061s-.06-.244.245-.244.122.427.122.427.61-.733 0-.855c-.61-.06-.428.672-.428.672Zm-.55-1.16c-.06.244 0 .366.123.55.06.182.183.732.183.732h.122v-.305c0-.122.122-.306.183-.428.062-.122.184-.366.123-.55 0-.183-.428-.488-.428-.488s-.183.244-.305.489Zm-4.03-.672c-.062 0-.245.06-.245.122 0 .06.122.183.183.244a.19.19 0 0 1 .061.122h-.244c-.122 0-.061-.122-.183-.122a.268.268 0 0 0-.183.061s0 .061.06.122c0 0-.06.061-.06.123 0 .06-.123.06-.184.06-.06 0-.06.062 0 .062h.184c.06 0 .122-.061.183-.061h.183s-.061.06 0 .122h.183c.061 0 0-.061 0-.122-.06-.061 0-.061 0-.061V8.55c0-.06-.06-.06-.122-.183 0-.244.183-.183.183-.305.061.06.061 0 0 0Zm-.856.366c-.733.672-.733 2.565-.733 2.565h3.115V7.146c-1.282.123-1.71.55-2.382 1.283Zm.306.733c.122.061.244.122.305.122s.061.061-.061.061c-.061 0-.244 0-.366-.06-.123-.062-.184-.123-.245-.123-.06 0-.122.061-.183.183-.061.061-.061.061-.061.122l.061.123c0 .06-.122.122-.061.183 0 .061.061 0 .122-.061.061 0 .122-.061.183 0 .061 0-.183.122-.183.183h.122c.122 0 .183-.061.245-.061.06 0 .122-.061.183-.122.06 0 .244-.061.183 0 0 .06-.305.122-.305.122h.488c.061-.061 0-.305 0-.367 0-.06 0-.06.061-.122.061-.06-.06-.06-.183-.06-.183-.123-.183-.123-.305-.123Zm-.184.794c0 .122.123.183.306.183s.183.061.06.061h-.304c-.123 0-.184 0-.306-.06h-.244c-.061 0-.061 0-.061.121-.061.062-.122.123 0 .245.122.06 0 .06-.061.122-.061 0 0 .061.06 0 .062 0 .245-.122.245-.061 0 0-.305.183-.244.244h.244c.183 0 .183-.122.244-.122.061-.061.184-.122.306-.061.122 0 0 0-.122.061-.061 0-.245.122-.184.122h.306c0-.06.244-.06.305-.06s0-.062 0-.123v-.244c0-.061 0-.123-.06-.123-.062-.06-.245 0-.367 0-.061-.183-.123-.244-.123-.305ZM73.84 7.88v.123c0 .06-.061.06-.061.183v1.038c0 .122.06.244.183.244.061 0 .061-.06.061-.183 0-.06-.122-.06-.122-.122 0-.061 0-.061.06-.061.062 0 .245.305.245.428 0 .122-.06.06-.183 0-.061 0-.183 0-.244.06-.061 0 .122.611.122.672 0 .062-.122.062-.183.123-.061.06.244.06.366 0 .183 0 0-.123-.061-.245a.521.521 0 0 1 0-.427c0-.061.061.122.183.305a.368.368 0 0 0 .306.245c.122 0 0 .122-.061.183-.062.06-.245.06-.367.06s0 .062 0 .123-.183 0-.244.061h.244c.183 0 .367 0 .489-.061.183-.122.06-.55.06-.672 0-.061-.121-.244-.121-.366 0-.061.122-.123.122-.184V8.368c0-.122.06-.183.06-.305 0-.061 0-.184-.06-.122-.061 0-.061 0-.122.122s0 .183 0 .244v.916c0 .122-.061-.305-.123-.427 0-.123-.06-.306-.06-.428s.06-.428.122-.489a.645.645 0 0 0 .122-.305v-.122s-.061 0-.122.061c-.062.061-.062.122-.062.122h-.183l-.06-.122-.062.061c-.061 0-.061.061-.061.183v.184c0 .06.061.06.122.122 0 0-.06.122-.06.183-.062.061-.062 0-.123-.061 0-.061-.122 0-.122-.122-.061-.061 0-.061.06-.122v-.184c.062.061 0 .061-.06.122Zm.183.49s-.061.182-.061.243c0 .123 0 .123.061.123s0-.245 0-.367Zm.183.366v.06c.061 0 .061-.183 0-.244.061 0 0 .122 0 .184Zm14.66 7.207.182.855v.061s.245.061.367.061c.183 0 .122-.305.061-.428-.061-.122-.183-.427-.305-.488-.184-.122-.306-.122-.306-.122v.06Zm6.596-.061.122-.122-.061-.123-.122.062.06.183Zm.244-.184.122-.06-.06-.123-.123.061.061.123ZM69.38 11.79c0 .122 0 .183.183.183.245 0 .367-.122.367-.122s0-.123.06-.184c.062 0 .306-.06.367-.06s.061.121.123.121c.06 0 .671-.183.793-.244.123-.061 0-.61 0-.733 0-1.1.428-3.115 2.26-3.848 1.772-.733 3.177-.427 3.848.122.672.55 1.955 1.71 1.955 3.726-.061 1.955-.428 2.993-1.222 3.726-.794.794-1.1.977-1.1.977l1.1 1.405.183-.061-.977-1.283.184-.122s1.038 1.405 1.099 1.405c.061 0 .122-.122.122-.122l-1.038-1.344.06-.061 1.161 1.344s1.16-.855 1.588-1.894c.428-1.038 1.588-3.054 0-7.146-.61-1.527-2.076-2.321-2.076-2.321 0 .061-.061.061-.183.061-.123 0-1.222-.855-2.871-.855-1.283 0-2.749.489-3.237.916-.245.245-.428 0-.428 0s-1.1 1.039-1.527 2.016c-.61 1.282-.794 2.199-.855 2.81-.061.61.061 1.588.061 1.588Zm8.124-.428c0 .122.06.183.122.244.06.061 0 .122-.123.061-.06-.06-.122-.122-.244-.06-.122 0-.183.06-.122.121.061 0 .183 0 .183.062 0 .06-.244.06-.305.06s-.183 0-.122.062c.06.06.06.06.183.06h.244s.245 0 .245.123v.794c0 .122.122.244.122.244s0-.183.06-.183c.123-.061.123 0 .184-.122 0-.122.244-.183.244-.367.062-.183 0-.305.123-.488.06-.122.183-.306.183-.367 0-.122-.061 0-.122.061-.061.123-.184.184-.245.306-.06.122-.06.366-.122.427 0 .061-.122.122-.122.122s.061-.366.061-.427 0-.183.122-.244c.122-.123.184-.123.122-.184-.06-.06-.06-.122-.06-.122l-.123-.122-.06.122h-.428v-.183Zm-2.688-5.68c0 .06.244.06.244-.061 0-.123-.244-.184-.244.06Zm3.115.488c-.061.061 0 .245.183.122.061-.122-.122-.244-.183-.122Zm2.077 3.665c.183 0 .183-.244 0-.183-.183 0-.122.183 0 .183Zm.183.794c.183 0 .061-.183-.061-.183-.122.06-.122.244.061.183Zm-10.383-.794v.489h.06s0-.123.062-.123h.244v.611h-.305l-.061-.183h-.062v.55h.062s.06-.184.122-.184h.733c.06 0 .122.123.122.123h.06v-.489h-.06s0 .183-.122.183h-.306v-.61s.306.06.367.06c.06 0 .122.062.122.123v.06h.122v-.427h-.061s0 .061-.061.061-.794-.06-.855-.06c-.061 0-.061-.184-.061-.184h-.122Zm5.619-4.703c0 .122-.061.305-.061.61 0 .367.366.184.366.184s-.122-.122 0-.183c.061 0 .122.06.122.06s.061-.244.061-.427c0-.244-.06-.427-.244-.427-.122-.061-.244.06-.244.183Zm-.122-.122c0 .122-.061.55-.061.733 0 .183.244.366.366.366h.244c0 .061.245.244.306.244a.632.632 0 0 0 .244-.06s-.122 0-.244-.062c-.122-.06-.245-.183-.245-.183l.123-.244c0-.122 0-.245.06-.55a.468.468 0 0 0-.427-.489c-.183-.06-.366.061-.366.245Zm-5.253 4.153c0 .122-.122.305.183.428.245.06.55 0 .61 0 .062 0 .123-.123.123-.245s0-.122-.244-.183c-.184-.061-.672-.122-.672 0Zm-.183 0c-.061.183-.123.428.305.61.428.123.794.123.916-.243.122-.367-.305-.55-.488-.55-.184-.061-.672-.061-.733.183Zm.366-.794c-.06 0-.183.244-.183.244s.061-.06.122-.06.794.244.855.305c.061 0 .061.122.061.122l.183-.428-.06-.06s0 .121-.062.121c-.06 0-.671-.244-.671-.244s.61-.122.732-.122h.245l.06-.183s-.854-.367-.915-.367v-.183h-.062s-.122.183-.183.244c0 .061-.122.245-.122.245h.061s.183-.123.244-.123c.062 0 .672.245.672.245s-.366 0-.488.06c-.061.123-.489.184-.489.184Zm6.658-3.298-.367-.183v.122l.122.06c0 .062-.122.428-.183.734-.06.244.061.427.245.488.122.061.366 0 .427-.06.061-.123.367-.673.367-.795 0-.06.183 0 .183 0l.06-.06s-.121 0-.182-.123c-.061-.061-.245-.122-.245-.122v.061s.061.061.122.061v.122c0 .061-.244.55-.244.55s-.061.122-.183.122c-.122.061-.305-.061-.305-.183s.244-.672.244-.733c-.122-.061-.122 0-.061-.061Zm.916.305c0 .061 0 .122.061.122v.123c0 .06-.367.671-.367.794 0 .06-.06.06-.122.06l-.122-.06v.06s.183.062.245.123a.879.879 0 0 0 .183.122v-.061s0-.061-.061-.122v-.122s.305-.672.366-.672c0-.061.061-.061.122-.061h.061V5.62l-.366-.245Zm.61.367c-.06.06 0 .183 0 .183v.122c0 .061-.366.61-.427.672 0 .061-.06.061-.122 0h-.061v.061l.244.244.061-.06V6.84c0-.061.367-.672.428-.733h.06l-.365 1.16 1.099-.305s-.55.428-.61.489c-.062.061-.123.061-.123 0l-.061-.061-.061.06.244.306.061-.06v-.123c.061 0 .672-.61.672-.61l.122.06h.061l-.183-.305-1.038.244.305-.916-.305-.305Zm.367 2.137.245.245h.06V7.94s0-.062.062-.062h.122l.06.062.123.244v.122s-.061.061-.122.061l-.061-.122h-.061l.122.427.061-.06V8.49c0-.06.855-.855.855-.855v-.061s-1.1.183-1.16.244c-.061 0-.184-.06-.184-.06l-.122.121Zm.55.062.122.305.428-.428-.55.123Zm1.038.55s.061.182 0 .182c-.06 0-.672.245-.794.306-.122 0-.183-.122-.183-.122l-.061.06s.122.306.122.367.061.367.061.367l.367-.061v-.061s-.306 0-.306-.062c0 0-.06-.122-.06-.183 0-.06 0-.06.06-.122 0 0 .733-.244.855-.305h.183l-.122-.428-.122.061Zm.367.854c-.061 0-.061.122-.123.184-.06.06-.244.305-.244.366a.131.131 0 0 1-.122.122c-.061 0-.427.061-.427.061-.062 0-.123-.122-.123-.122v.489h.061v-.122s0-.062.061-.062h.428s.428.306.489.367c.06 0 .06.183.06.183h.062v-.488h-.061v.06s0 .062-.122 0c-.062 0-.367-.244-.367-.244s.245-.427.305-.427c0-.061.123.06.123.06h.06l-.06-.427ZM79.702 11.3h.061s0-.122.061-.122h.306v.244c0 .061.061.244.183.244h.367c.122 0 .244-.244.244-.305v-.55h-.061s0 .122-.122.122h-.916c-.062 0-.062-.122-.062-.122h-.06v.489Zm.611-.122v.244c0 .061.061.061.122.061h.245c.06 0 .122-.122.122-.183v-.183h-.489v.06Zm-.61.671c0 .062-.123.55-.123.55l.367.122v-.06s-.184-.123-.245-.184c0-.061.061-.305.061-.305l.49.06v.184c0 .061-.123.061-.123.061v.061l.305.061v-.06l-.06-.062c0-.061.06-.244.06-.244l.428.06v.184c0 .061 0 .183-.061.183h-.122v.061l.244.061.122-.855h-.061s-.061.123-.122.123-.855-.123-.916-.123c-.061 0-.061-.183-.061-.183h-.184v.306Zm-.184.795-.122.244h.061s0-.122.122-.061c.061 0 .672.183.672.183l-1.038.367h-.061s.977.488 1.038.488c0 .061.061.245.061.245l.061.06.183-.427h-.06s0 .061-.123.061h-.122l-.733-.366 1.16-.367.123-.244h-.061s0 .122-.062.122c-.06 0-.916-.183-.977-.183-.06 0-.122-.122-.122-.122Zm-.366 1.099v.122s-.245.122-.245.183c0 .062-.122.306.061.428a.57.57 0 0 0 .55 0c.122-.061.367-.122.428 0 .06.122 0 .244-.061.305a.463.463 0 0 1-.245.122h-.244l.427.306.062-.061-.061-.122s.366-.245.427-.306c0-.06 0-.305-.183-.366-.122-.061-.306-.122-.428-.061-.122.06-.305.183-.366.183s-.306-.061-.183-.244c.122-.122.244-.184.366-.122.122.06.183.06.183.06v-.06l-.488-.367Zm-.489.61-.672.734.245.244h.06v-.244c0-.061.306-.245.306-.245l.244.245s-.06.122-.122.183c-.061.061-.244 0-.244 0l.305.244v-.183c0-.061.183-.183.183-.183l.367.244-.061.061c-.061.061-.245.245-.367.245-.06.06-.122 0-.122 0l-.06.06.243.245.733-.733h-.06s-.123.061-.245 0c-.061-.061-.672-.55-.733-.61-.061-.123 0-.306 0-.306Zm-7.33-7.084h.245l-.122-.245h-.245l.123.245Zm-.427-.245-.244.428h.06s.062-.061.123 0c.061 0 .672.427.733.427.061 0 .061.062.061.062l-.061.06h.061l.244-.427-.06-.061-.123.122h-.183s-.55-.366-.55-.427c-.061 0-.061-.123-.061-.123l.061-.06h-.061Zm.855-.977v.061s-.122 0-.244.061-.245.245-.245.367.184.244.428.244.489 0 .55.061c.06.061 0 .244-.184.244a.467.467 0 0 1-.305-.122v.061l.367.367v-.122s.122-.061.244-.061.183-.306.122-.428a.336.336 0 0 0-.305-.183c-.061 0-.55.06-.733-.061-.183-.122.244-.245.305-.245s.305.123.305.123v-.062l-.305-.305Zm.855-.427c-.122.122-.244.366 0 .61.183.245.428.306.55.245.061-.061.122-.245 0-.55-.305-.244-.428-.367-.55-.305Zm-.122-.123c-.122.123-.428.489-.122.855.305.367.61.428.794.306.244-.122.305-.61.061-.977-.244-.428-.61-.306-.733-.184Zm.733-.244h.122c0 .061.306.855.367.855 0 .061-.061.122-.061.122v.061l.305-.183v-.06h-.122c0-.062-.367-.795-.367-.856 0-.061.061-.122.061-.122v-.061l-.305.122v.122Zm.428-.183.122.305h.06s0-.244.062-.244c.06 0 .244-.061.244-.061s.183.733.183.794c.061.06 0 .122 0 .183l-.06.061v.061h.244c.06 0 .244-.06.244-.06v-.062s-.122 0-.122-.061c0-.122-.122-.794-.122-.855 0 0 .06-.061.122-.061.06 0 .183-.061.244 0 0 .06.061.183.061.183H75l-.06-.305s-.428.06-.612.06c-.244-.06-.671.062-.671.062Z" fill="#231F20"/></g><path fill-rule="evenodd" clip-rule="evenodd" d="M44.587 18.019h-12.46v-.183l1.832-1.039V4.581l-1.832-1.038V3.36H44.16l.244 3.848-.245.06s-1.954-2.015-2.382-2.381c-.427-.428-.733-.489-1.038-.611-.61-.183-1.221-.122-1.221-.122l-2.2-.061V10.2s2.322 0 2.566-.061c.366-.062.489-.062.977-.611C41.29 9.1 41.9 8.246 41.9 8.246h.244v4.886H41.9s-1.222-1.77-1.344-1.832c-.061-.061-.244-.366-.916-.366h-2.321v6.29s1.343 0 2.382-.06c1.038-.061 1.649-.123 2.32-.672.673-.611 2.505-2.688 2.505-2.688l.305.061-.244 4.154ZM156.24 13.865l-.305-.06s-1.833 2.137-2.505 2.687c-.671.61-1.282.61-2.321.671-1.099.123-2.382.061-2.382.061v-6.29s1.711.06 2.321 0c.672 0 .855.244.917.366.122.061 1.282 1.832 1.282 1.832h.245V8.246h-.245s-.611.794-1.038 1.283c-.489.55-.611.55-.977.61-.245 0-2.566.062-2.566.062V4.03l2.199.062s.672 0 1.222.122c.244.122.611.244 1.038.61l2.382 2.383.244-.061-.244-3.848h-12.032v.183l1.832 1.038v12.216l-1.832 1.038v.183h12.46l.305-4.092ZM133.519 13.377l4.458-10.078h4.887v.244l-1.772 1.038v12.155l1.772 1.038v.183h-6.963v-.183l1.832-.977V6.353l-5.253 11.421h-.672l-5.619-11.666v10.628l1.771 1.038v.183h-4.642v-.183l1.772-.977V4.52l-1.772-.977v-.244h5.253l4.948 10.078Z" fill="#100F0D"/><mask id="b" style="mask-type:luminance" maskUnits="userSpaceOnUse" x="157" y="2" width="11" height="17"><path d="M167.351 2.932h-10.078V18.63h10.078V2.932Z" fill="#fff"/></mask><g mask="url(#b)"><path fill-rule="evenodd" clip-rule="evenodd" d="m166.191 3.543.244 3.665h-.244s-2.504-2.688-2.81-2.932c-.183-.122-1.344-.977-2.626-.061 0 0-1.222.855-.428 2.382.794 1.527 3.115 2.626 3.726 2.993.611.366 3.604 1.832 3.237 4.764-.366 2.81-2.871 3.604-3.909 3.787-2.199.427-5.619-.55-5.619-.55l-.244-3.787.305-.06s2.504 2.992 3.481 3.358c.978.367 2.383.49 3.177-.55.794-1.037.122-2.503-.672-3.053-1.1-.733-2.81-1.65-3.97-2.382-1.283-.855-2.077-2.138-2.26-3.482a3.993 3.993 0 0 1 2.443-4.214c1.405-.55 2.504-.428 3.542-.367 1.039.123 2.627.489 2.627.489Z" fill="#100F0D"/></g></svg>