<svg width="126" height="23" viewBox="0 0 126 23" fill="none" xmlns="http://www.w3.org/2000/svg"><g clip-path="url(#a)"><path d="M3.497 9.504h.895c1.939 0 3.232-.21 3.878-.63.645-.423.969-1.168.969-2.233 0-1.147-.345-1.956-1.037-2.425-.69-.47-1.96-.704-3.81-.704h-.895v5.992Zm-.221 2.864v9.651H0V.513h5.288c1.567 0 2.719.087 3.46.259.74.17 1.383.452 1.931.843.675.5 1.203 1.173 1.586 2.02.382.848.572 1.782.572 2.8 0 1.017-.19 1.959-.572 2.819-.383.862-.91 1.537-1.586 2.027-.548.393-1.192.67-1.932.837-.74.168-1.892.25-3.459.25H3.276Zm30.236-1.058c0-1.087-.198-2.12-.593-3.099a8.033 8.033 0 0 0-1.712-2.614 7.565 7.565 0 0 0-2.52-1.74 7.643 7.643 0 0 0-3.018-.61 7.751 7.751 0 0 0-3.02.601 7.7 7.7 0 0 0-2.548 1.75 7.762 7.762 0 0 0-1.703 2.598 8.323 8.323 0 0 0-.587 3.114c0 1.088.196 2.116.587 3.085.391.97.97 1.854 1.703 2.601a7.723 7.723 0 0 0 2.542 1.747c.95.402 1.958.602 3.026.602a7.57 7.57 0 0 0 2.99-.602 7.924 7.924 0 0 0 2.548-1.747 8.074 8.074 0 0 0 1.712-2.607c.395-.976.593-2 .593-3.078m3.644 0a11.03 11.03 0 0 1-.86 4.333 10.996 10.996 0 0 1-2.504 3.644 11.773 11.773 0 0 1-3.745 2.452c-1.39.567-2.849.851-4.378.851-1.547 0-3.023-.286-4.428-.858a11.464 11.464 0 0 1-3.724-2.445 10.94 10.94 0 0 1-2.497-3.63c-.568-1.351-.852-2.8-.852-4.348 0-1.537.284-2.986.852-4.348.567-1.36 1.4-2.58 2.498-3.656a11.388 11.388 0 0 1 3.73-2.44 11.775 11.775 0 0 1 4.42-.837c1.548 0 3.014.28 4.4.837a11.405 11.405 0 0 1 6.228 6.12c.574 1.364.86 2.806.86 4.325Zm3.107 10.708V.515h3.495V18.89h7.815v3.129h-11.31ZM53.565.516h3.496v21.503h-3.496V.516ZM68.13 3.482V22.02h-3.497V3.482H58.92V.515h14.895v2.967H68.13ZM75.645.516h3.494v21.503h-3.494V.516Zm24.876 5.229c-.99-.844-2.035-1.474-3.137-1.897a9.658 9.658 0 0 0-3.474-.63c-2.35 0-4.261.754-5.735 2.262-1.474 1.507-2.21 3.46-2.21 5.86 0 2.321.717 4.235 2.15 5.744 1.435 1.508 3.245 2.26 5.428 2.26a9.884 9.884 0 0 0 3.635-.675c1.15-.45 2.256-1.13 3.314-2.041v3.95a10.332 10.332 0 0 1-3.07 1.515c-1.108.332-2.307.498-3.6.498-1.644 0-3.167-.27-4.56-.808a10.562 10.562 0 0 1-3.68-2.38 10.564 10.564 0 0 1-2.416-3.633 11.8 11.8 0 0 1-.846-4.46c0-1.577.282-3.057.846-4.443a10.677 10.677 0 0 1 2.445-3.65A10.777 10.777 0 0 1 89.282.815C90.664.271 92.157 0 93.763 0c1.264 0 2.469.183 3.614.551 1.146.368 2.257.923 3.335 1.667l-.191 3.527Zm21.836 5.565a8.19 8.19 0 0 0-.595-3.099 8.033 8.033 0 0 0-1.711-2.614 7.638 7.638 0 0 0-5.539-2.35 7.75 7.75 0 0 0-3.019.601 7.692 7.692 0 0 0-2.548 1.75 7.794 7.794 0 0 0-1.704 2.598 8.326 8.326 0 0 0-.586 3.114 8.006 8.006 0 0 0 2.29 5.686 7.712 7.712 0 0 0 2.542 1.747c.95.402 1.957.602 3.026.602 1.047 0 2.043-.2 2.989-.602a7.919 7.919 0 0 0 2.549-1.747 8.073 8.073 0 0 0 2.307-5.685m3.642 0a11.03 11.03 0 0 1-.86 4.333 11.003 11.003 0 0 1-2.504 3.644 11.781 11.781 0 0 1-3.745 2.452c-1.39.567-2.849.851-4.378.851-1.548 0-3.024-.286-4.428-.858a11.45 11.45 0 0 1-3.724-2.445 10.94 10.94 0 0 1-2.498-3.63c-.568-1.351-.851-2.8-.851-4.348 0-1.537.283-2.986.851-4.348a11.057 11.057 0 0 1 2.498-3.656 11.401 11.401 0 0 1 3.73-2.44 11.79 11.79 0 0 1 4.422-.837c1.548 0 3.014.28 4.399.837a11.406 11.406 0 0 1 3.724 2.44 11.26 11.26 0 0 1 2.504 3.68c.574 1.364.86 2.806.86 4.325" fill="#CF1C23"/></g><defs><clipPath id="a"><path fill="#fff" d="M0 0h126v22.591H0z"/></clipPath></defs></svg>