<svg width="264" height="132" viewBox="0 0 264 132" fill="none" xmlns="http://www.w3.org/2000/svg"><path fill-rule="evenodd" clip-rule="evenodd" d="M34.431 76.912H23.97v-.246l2.943-1.389V58.195s-.9 0-1.635.245c-.409.163-.817.245-1.471.817-.572.572-3.678 3.76-3.678 3.76l-.327-.163.49-5.558h17.573l.572 5.558-.327.163s-3.106-3.188-3.678-3.76c-.572-.572-1.062-.654-1.471-.817-.817-.245-1.471-.163-1.471-.163v17l2.942 1.39v.245ZM169.943 76.912h-10.462v-.246l2.942-1.389V58.195s-.899 0-1.634.245c-.327.163-.818.245-1.39.817l-3.76 3.76-.327-.163.491-5.558h17.573l.572 5.558-.327.163s-3.106-3.188-3.678-3.76c-.572-.572-1.063-.654-1.39-.817-.817-.245-1.471-.163-1.471-.163v17l2.943 1.39-.082.245ZM59.525 58.93l2.37-1.39v-.327h-9.317v.327l2.452 1.308v7.356l-8.99.082V58.93l2.451-1.39v-.327h-9.4v.327l2.453 1.39v16.346l-2.452 1.308v.327h9.4v-.327l-2.453-1.39v-7.846l8.99.082v7.846l-2.451 1.308v.327h9.317v-.327l-2.37-1.39V58.93ZM176.974 75.276l-2.37 1.308v.245h9.317v-.245l-2.37-1.39V58.93l2.37-1.39v-.327h-9.317v.327l2.37 1.308v16.428Z" fill="#100F0D"/><mask id="a" style="mask-type:luminance" maskUnits="userSpaceOnUse" x="83" y="52" width="75" height="28"><path d="M157.03 52.8H83.225v26.4h73.805V52.8Z" fill="#fff"/></mask><g mask="url(#a)"><path fill-rule="evenodd" clip-rule="evenodd" d="M83.88 72.906s1.716.98 2.207 1.226c.572.327 2.779 1.144 2.779 1.144l-1.472.49c-1.961-.898-.899-.408-1.798-.898l-1.144-.572-.572-1.39Zm13.65-6.293c-.328-1.635-1.063-1.962-1.717-2.207-.9-.327-3.188.163-3.515.245-.326 0 .164-.736-.49-1.226-.245-.163-.9 0-.9 0s-.244-.245-.408-.327c-.082-.082-.245-.409-.899-.327-.163 0-.817.327-.98.327-.164.082-1.145 0-1.39-.082-.163-.081-.409 0-.409 0s.164.572.245.654c.164.082.573.49.654.572.164 0 .818-.081 1.145-.081.245 0 .326.572.326.653 0 .082-.163.49-.245.654 0 .245.327.736.409.9.163.163.082.245-.327.326-.327 0-.327.409-.327.409s-.163-.163-.409-.245c-.245-.082-.408.081-.408.081v-.245c0-.327-.245-.654-.409-.735-.082-.082-.49-.409-.572-.654-.082-.245-.082-.327-.245-.245-.082.081-.082.408-.082.408l-.082.164h-.163l.082.327h-.164l.082.327h.082s0 .163.081.327c.082.163.082.326.245.572.082.245.082.49.164.572 0 .082 0 .327-.163.327-.246 0-.164-.245-.164-.49 0-.246-.327-.491-.327-.573 0-.082-.245-.163-.327-.163-.082 0-.245-.245-.245-.245s-.082.245-.163.081c-.082-.081-.327-.245-.327-.245s-.082.245-.246 0c-.163-.163-.327-.163-.327-.163v.245s-.163 0-.326-.082c-.164-.082-.654-.409-.654-.409s0 .246-.082.164c-.164-.164-.49-.245-.49-.245s0 .327.163.572c.163.245 0 .245.163.408.164.246.327.246.327.246v.163l.246.245s-.082.164 0 .327c.163.082.245.164.245.164s0 .327.163.409c.245.081.327 0 .327 0s-.082.245.082.245c.163 0 .49-.082.49-.082v.163h.245c.164 0 .41-.163.573-.245.163-.081.245-.081.408-.081.164 0 0 .326 0 .326 0 .082-.245.164-.245.164h-.327c-.082 0-.245.082-.409.082-.163 0-.245.081-.326.081-.164 0-.327.082-.41.082h-.326c-.163 0-.163.082-.163.082h-.327c-.082 0 0 .163.081.163.082 0 .245.327.245.327s.082.245.164.245.327.082.409.082c.081 0 0 .164 0 .164h.408c.082 0-.245.245-.081.245.163 0 .408.082.408.082l.082.163c.082.163.245.245.49.245.327-.081.736-.163.736-.163l-.163.245c-.164.163-.246.654-.082.654h.572s.245 0 .245.082c0 .163-.245.163-.49.163-.246 0-.49-.082-.49-.082l-.164.164s-.164-.164-.327-.082c-.082 0-.082.327-.164.327-.081 0-.245 0-.326.082-.082.081-.164.327-.164.327s0 .081.082.163c.081.082.081.164.081.164s-.163 0-.163.081c0 .082.572.246.572.246v.245c0 .163.327.081.327.081s0 .082.164.082c.163 0 .326-.163.326-.163s0 .163.164.163c.163 0 .245-.082.245-.082s.082.246.327.082c.164-.163.164-.327.327-.327s.572.082.736.082c.081 0 .245.163.327.327.081.163.408.082.408.082v.327c0 .245.327.408.49.408.082 0 .573-.163.818-.245.164 0 .327.245.082.245-.164 0-1.063.327-1.063.327l.327.9 1.226-.573-.163-.49s.49-.082.653-.164c.246-.081.328-.817.328-.817s3.923.245 5.312 0c1.471-.164 3.351-.817 4.005-.98.654-.164 5.721-1.88 6.048-1.962.327 0 .736.326 0 .572-.653.245-1.716.572-1.716.572l-.163.98s.735-.817.899-.98c.163-.164.163 0 .163.163 0 .164-.245.981-.327 1.308-.163.245-.409.245-.409.245v.164s.573-.164.9-.246c.245-.081.899-.326.899-.326v-.164s-.491.163-.409 0c0-.082.245-1.063.245-1.226 0-.163.164-.245.245-.245.082 0 .327.245.327.327v.408l.409-.081v-.082h.245l.082.245s.245.164.409.164c.245 0 .572-.164.653-.327.082-.164.327-.164.327-.164s.164.245.409.164c.245-.082.163-.082.327-.164.082-.081.163-.081.327-.081.163 0 .245.326.245.326h.245c.082 0 .082-.245.246-.245.081 0 .326.245.408.409.164.082.327.327.572.572.246.163 1.472 1.635 1.472 1.635l.163.735s-.899-.899-2.043-1.798c-1.145-.899-3.678-.163-4.414.082-.736.245-7.846 2.697-10.462 2.86-2.615.164-7.274-.163-7.928-.245-.572 0-3.106-.245-3.678-.245-.572-.082-1.716-.327-1.716-.327l.408 1.144s7.111.736 10.217.654c3.106-.081 3.841.246 10.135-1.88 5.803-1.88 5.803-1.634 6.784-1.307.654.245 1.389.98 1.716 1.308.327.326-.082.899-.49.49-.491-.49-1.553-1.471-3.024-1.144a12.63 12.63 0 0 0-2.616.899l.327.572s2.043-.981 2.861-.817c.817.245 1.716.572 2.043 1.144.327.572.899.98 1.471.49.572-.409.654-1.144.654-1.471 0-.245-.163-1.144-.163-1.144s.408.572.49.654c.164.163.491.408.491.408l-.164.082s-.245.082-.327.245c-.082.164.245.817.245 1.144v.573l.327.49s.572 0 .899.082c.327.081.899.327 1.308.081.49-.245.409-.49.409-.49l.245-.49s1.389.49 1.88.572c.49.082 1.88.245 2.207.163.327 0 .49-.245.572-.572.081-.245-.082-.49-.082-.49l1.144-.736s.572.164.654.082c.082-.082.491-.49.572-.654.082-.163-.081-.654-.081-.654l.408-.327v1.226c0 .409.082.654.327.817.245.164 1.144.573 1.635.246.409-.327 1.553-1.635 2.861-1.308 1.226.327 2.043.736 2.043.736l.409-.736s-1.962-1.063-2.861-.9c-.899.083-2.207.573-2.616 1.227-.245.245-1.062 0-.572-.409.491-.408 2.125-1.716 3.433-1.553 1.471.327 6.866 2.125 7.52 2.289 2.37.654 6.783 1.144 8.336 1.226 3.515.327 9.236-.654 9.236-.654l1.063-1.308s-2.043.409-2.943.49c-.735.082-4.985.736-9.644.246-4.087-.49-8.255-1.635-10.952-2.616-2.616-.899-3.678-.572-4.986.164-1.308.735-1.962 2.125-1.962 2.125v-.572c.082-.164.164-.409.327-.654.082-.245.572-.817.736-1.144.163-.327.735-1.717.817-2.044.082-.245.327-.899.654-1.144.327-.245 2.779-.082 3.351.082.572.082 5.231 1.553 7.765 2.125 2.452.654 5.312.817 5.476.735.163 0 .245.164.245.327-.082.164-.327.082-.327.082v.082s.491.163.572.163c.082 0 .409 1.063.491 1.226.081.246-.327.246-.327.246v.163h1.471v-.082s-.327 0-.327-.163c0-.164-.163-.572-.163-.572s.326.245.572.408c.245.164.654.082.654.082v.163l-.327.246 1.553-.082-.409-.163-.164-.654.327-.409h.327l.245.327h.327l-.408-.9-.654-.08s-.082-.246 0-.246h.572c.163 0 .409.163.49.245l.654.654-.408.49.817.654.572-.654-.49-.49.163-.245-.327-.572s1.063.081 1.144.081c.082 0 .082-.327.082-.327s.164.082.245.082c.082 0 .164-.082.164-.082l.245.082s.164-.082.245-.163c0-.082-.163-.572-.163-.572l1.144.327-2.288 1.389 1.226.409 2.86-1.553.409-1.471s-1.226.653-1.471.653c-.164.082-.491-.245-.491-.245s.654-.735.818-.899c.163-.245.327-.654.327-.654s-.899.327-1.063.409c-.163 0-.654.163-.654.163s0-.408.082-.49c0-.082.163-.817.163-.817s-.245.081-.572.245c-.327.082-1.308.572-1.308.572v-.98s.409-.164.654-.164h1.145c.408 0 1.144.163 1.144.163s.082-.082-.082-.327c-.163-.245-.572-.245-.735-.327-.246-.082-.818-.163-.818-.163s.491-.327.654-.409c.164-.082.736-.245.981-.327.245 0 .654-.327.327-.409-.327-.081-.654 0-.981 0-.327 0-.981.164-.981.164s.654-.245.981-.49c.327-.164.899-.327 1.144-.41.246-.08.572-.163.246-.326a7.16 7.16 0 0 0-1.308-.163c-.327 0-.899.163-.899.163s.081-.572.163-.736c0-.163.327-.899.327-.899l-.409-.163-.899.899-.163-.736-.409.245-.327.981s-.245-.163-.408-.245c-.082-.082-.246-.409-.246-.409l-.327.082s.164.572.246.736v.49h-.327l-.082-.082c-.082-.081-.163-.081-.245-.245-.082-.082-.245 0-.327 0-.082 0-.245-.082-.245-.082s.245-.408.408-.572c.164-.245.409-.654.409-.654l-.327-.163-.49.245c-.164.082-.899.736-1.063.9-.082.163-.245.163-.245.081v-1.144c0-.245-.245-.49-.245-.49s-.164.326-.164.49c0 .163-.081 1.144-.081 1.226 0 .081-.082.327-.164.245-.082-.082-.245-.163-.49-.409l-.572-.572-.491.164s0 .163.164.327c.081.245.163.899.163 1.144 0 .245-.082.817-.082.817s-.163.164-.327 0c-.081-.163-.245-.572-.327-.654-.081-.081-.163-.327-.163-.327s0-.163-.163-.245c-.082-.082-.246-.082-.246-.082s-.735-.49-1.144-.49c-.327 0-1.062.245-1.226.327-.163.082-.654.245-.736.245-.081 0-.326-.163-.408-.163-.082 0-.654.163-.736.245-.163 0-.163 0-.163-.082s.245-.572.245-.572-.082-.082-.164-.082c-.081 0-.081-.163-.081-.163l.572-1.635c.49-1.635-.409-3.76-.409-3.923-.327-.654-1.226-1.798-1.226-1.798s0-.082.082-.164c.082-.081.163-.245.245-.327.082 0 .899-.49 1.144-.572.246-.163.899.082 1.226.164.327 0 .409-.245.409-.49 0-.328.082-.41.164-.491.081-.082.735-.245.735-.245v-.082s-.817.163-1.062.327c-.246.082-.246.409-.246.572 0 .164 0 .245-.408.164-.327-.082-.654-.164-.736-.164-.082 0-.981.409-1.144.49-.082.082-.164 0-.164-.245s-.163-.572-.327-.735c-.163-.164-.326-.573-.326-.736v-.572l-.491-.163s-.327.408-.409.49c-.081.082-.408.49-.572.572-.081.163-.081.736-.081.736l-.327-.327c-.082-.164.081-.49.081-.654 0-.245-.081-.572-.081-.736v-.409l-.409-.163s0 .163-.082.327-.327.409-.408.572a1.526 1.526 0 0 1-.246.327s-.49-.327-.654-.49c-.163-.082-.326-.082-.326-.082s-.164-.245-.327-.409a3.227 3.227 0 0 0-.491-.163s-.327-.327-.408-.49c-.082-.164-.491-.082-.491-.082-.163-.327-.163-.327-.245-.327-.082-.164-.327-.082-.327-.082s-.082-.082-.163-.245c-.164-.245-.491-.082-.491-.082s-.082-.163-.163-.245c-.082-.082-.246-.082-.409-.082 0 0-.082-.327-.245-.327-.082-.082-.245-.163-.245.082s0 .49.081.654c.082.163.409.245.491.245.081 0 .081.082.163.327.082.163.327.245.491.327.081 0 .081.082.245.327.082.245.327.163.49.245.245.082 0 .245.245.409.164.245.327.163.491.163.163 0 .163.245.327.409.163.163.245.245.327.245.081 0 .245.163.327.327.163.163.49.245.49.245l-.163.164h-.654c-.164-.082-.327 0-.327 0l.163.327c.082.163.409.49.409.49h-.245c-.327 0-.736-.327-.736-.327s-.245 0-.163.245c.081.164.408.572.408.736.082.082-.081.163-.408.163-.246 0-.491-.163-.654-.245h-.572c-.164 0-.491.49-.573.49-.163.082-.326.246-.572.327-.245 0-.408 0-.817.164-.409.163.082.899 0 1.062 0 .164-.327.327-.163.49.163.164.49.736.49.736s-.082.327-.572.573c-.572.245-.572.653-.572.98-.082.327.081 1.145.081 1.145l.409-.082s.164-.327.164-.49c0-.164.163-.327.899-.246.735.082.817-.245.98-.572.082-.327.327-.98.491-1.144.163-.082.327-.164.572 0 .245.082.572 0 .817-.164.245-.245.409-.327.572-.245.164.082.491.409.491.409s0 .245.082.49c.163.245.572.327.572.327v.572l-.327.082s-.245.164-.327.327c-.082.163-.572.49-.572.49s-.164-.326-.246-.572c-.081-.163-.408-.572-.408-.572h-.654s-.082.736 0 .9c0 .244-.082 1.307-.082 1.307l.327.409s-.817.163-2.043-.164c-.572-.163-2.37-.899-2.37-.899s-.164-.654-.246-.817c0-.164-.327-.981-.327-.981l.736-.736c.082-.081.654-.735.654-.735h-1.226s.327-.49.49-.654c.164-.245.572-1.144.572-1.144s-.572.163-.735.245c-.082.082-.572.327-.572.327s.081-.654.081-.818c0-.163.164-.735.164-.735s-.572.735-.736.899c-.163.163-.327.327-.327.163 0-.163-.163-1.716-.163-1.716l-1.226 1.716-.899-.735s.082-.327 0-.409c-.082-.082-.164-.245-.164-.245l.491-.409s.327.164.49-.081c.164-.246-.163-.327-.163-.327l.163-.164s.491.245.572-.245c.082-.245-.327-.409-.327-.409l.082-.163s.572.082.572-.572c0-.41-.572-.164-.572-.164l-.082-.163s.409-.327 0-.654c-.327-.245-.735.081-.735.081l-.082-.081s.163-.409-.163-.572c-.409-.164-.573.327-.573.327 0-.082 0-.49-.327-.41-.408 0-.408.41-.408.41h-.082s0-.246-.327-.327c-.327 0-.327.163-.327.163l-.082-.082-.163-.408s-.164.163-.327.245c-.082.082-.654.572-.654.572V53.7l-.409.081.082-.408-2.779-.082.082.49-.409-.081v1.553l-.817-.573-.49.654h-.164s0-.408-.572-.408c-.327 0-.327.408-.327.408h-.163s0-.572-.491-.49c-.49 0-.245.49-.245.49h-.082s-.245-.327-.572-.163c-.327.163-.082.572-.082.572h-.081s-.164-.327-.572 0c-.409.327.081.572.081.572l-.081.164s-.409-.082-.409.326c0 .573.572.49.572.49v.164s-.49 0-.327.41c.082.326.654.244.654.244s-.164.245 0 .409c.082.163.49.163.49.163l.409.49s0 .083-.163.328c-.082.163 0 .245 0 .245s-.409.245-.327.49c.081.245-.164.245-.409 0-.327-.163-.654-.735-.736-.899-.081-.163-.408-.49-.408-.49v1.798s-.736-.49-.899-.654c-.164-.163-.409-.245-.409-.245s.082.572.245.817c.164.245.409.981.409.981s-.491-.245-.572-.245c-.082 0-.899-.245-.899-.245s.081.408.327.572c.245.245.817 1.062.817 1.062l-.899.164 1.062 1.144s-.081.572-.163.572c0 .082-.245.736-.327.818-.082.163-.899.572-1.144.572-.246 0-.246-.082-.327-.327a3.855 3.855 0 0 0-.409-.818c-.163-.163-.736-.408-.817-.572-.082-.163-.082-.49-.164-.654-.082-.081-.245-.408-.408-.572-.164-.245 0-.49.326-.327.246.082.246.409.491.736s.654.49.654.49-.164-.245-.245-.49c-.082-.245.081-.572 0-.736-.082-.163-.573-.572-.573-.572l.246-.49s-.327-.164-.573-.245c-.245 0-.408-.246-.572-.409-.163-.163-.327-.245-.163-.245.163 0 .327.081.654.081s.572-.163.572-.163l-.327-.163c-.245-.082-.49-.49-.49-.49s.163-.164.245-.328l.163-.327s-.163-.081-.327-.081c-.163-.082-.572-.164-.735-.327-.164-.082 0-.164 0-.164h.49c.245-.082.327-.735.327-.735l-.163-.082s-.327.163-.573.245c-.327.082-.572 0-.572 0s-.245-.163-.245-.245c0-.164.164-.327.164-.49 0-.164-.164-.328-.164-.328s-.245.246-.49.327c-.246.082-.327 0-.572 0-.164 0-.164 0-.818-.081-.654 0-.327 0-.572.163-.163.082-.327.245-.327.245s-.163-.163-.082-.327c0-.163.082-.326.082-.49 0-.164-.572-.572-.572-.572s.082-.245.082-.49c-.082-.246-.572-.164-.572-.164v-.163s.327-.41.081-.654c-.245-.245-.654 0-.654 0s0-.49-.326-.49c-.327 0-.327.408-.327.408l-.327.082s-.082-.245-.409-.082c-.327.082 0 .572 0 .572l-.163.163s-.246-.081-.409.164c-.164.245.082.49.082.49h-.246s-.081-.326-.163-.49c0-.163-.082-.327-.082-.327l-.082.082-.408.409-.327-.082.409-.9-1.799.9.818.327-.164.408s-.572-.163-.654 0c-.081.082.246.49.246.49h-.327s0-.326-.327-.163c-.327.082-.164.327-.164.327l-.245.164s-.082-.164-.163-.164c-.082 0-.164-.163-.49.245-.328.41.326.49.326.49v.328s-.49.327-.327.49c.164.164.49 0 .49 0l.246.164s-.082.327.163.327c.245.081.327-.164.327-.164l.164.082s-.082.245.081.245h.327s-.327.572-.49.9c-.245.326-.49 1.225-.572 1.389-.082.163 0 .245.163.408.164.164.327.327.49.409.164 0 0 .163-.081.327 0 .163.082.245.082.245s-.164.409-.164.654c0 .245.572.654.736.735.245.082.408.164.572.327.163.164.327.573.49.49.164-.08 0-.817 0-.817s.409-.245.491-.326c0-.082.163 0 .081.163-.081.245-.081.572-.081.736.081.163.408.49.572.49.163 0-.245.327-.409.327-.082.082-.654.082-.899.245-.327.245-.572.572-.899.572l-1.308-.245s0 .082.246.245c.245.082.572.082.98-.081.409-.164.572-.327.9-.327.326 0 .49.163.326.245-.081 0-.49.245-.572.245-.082 0-.327.245-.409.245-.081 0-.735.245-.899.327-.163.082-.49.245-.408.327.082.082.98.49.98.49s-.081.246-.326.328c-.246.163-.818.081-.818.245 0 .081.164.327.164.327h-.409c-.245 0-.327-.49-.327-.49s.49-.491.245-1.962Zm-5.477 8.255s.245 0 .164.163c0 .164-.327.817-.49.981-.164.163-.573.245-.573.245s1.226.164 1.39.164c.245 0 1.634.163 1.961-.409.245-.409.327-.817 0-.9-.245-.08-1.961-.244-2.288-.244-.245-.082-.164 0-.164 0Zm1.145.163-.573 1.144s.409.082.654 0c.245 0 .49-.326.49-.49 0-.163.164-.572 0-.572-.163 0-.572-.082-.572-.082Zm2.288.164c0 .163 0 .245-.163.572-.082.245-.082.327-.327.408-.246.082-.409.082-.409.082l-.082.164h1.635v-.164h-.327l.49-1.144h.409v-.164h-1.553v.164c-.082-.082.327-.082.327.082Zm1.39-.327v.163s.326 0 .245.327c0 .245-.164.572-.245.736-.082.163-.49.245-.49.245v.082s1.389 0 1.879-.164c.49-.082.654-.163.654-.163l.163-.409h-.163s-.082.163-.245.245c-.327.245-1.063.245-1.063.245l.245-.572h.327a.61.61 0 0 1 .245.246l.327-.818s-.327.327-.408.327h-.409l.163-.409s.41-.245.654-.163c.246.082.246.245.246.245l.081-.49s-1.062.163-1.226.245c-.245.082-.98.082-.98.082Zm2.451-.409v.082h.327c.082 0 .082.163.082.408-.082.246-.163 1.063 1.063.736 1.226-.327.981-1.144.981-1.308 0-.081.081-.408.081-.408l.327-.164v-.163l-1.144.327v.081s.327-.081.327 0c0 .082-.082.573-.164.9-.081.49-.817.817-.817.326 0-.408.164-.899.245-.98.082-.082.245-.164.245-.164v-.163l-.49.245c-.327.245-1.063.245-1.063.245Zm3.352-.409-.491.49.327.491.409-.572-.245-.409Zm.408-.572s.409-.081.409.082c0 .245-.164 1.063-.327 1.226-.082.163-.409.245-.409.245v.164l2.371-.654.081-.572s-.327.49-.654.572c-.326.163-.49.082-.49.082l.082-.818h.327c.081 0 .163.245.163.245l.164-.817s-.082.163-.246.245c-.163.082-.326.082-.326.082l.163-.49s.327-.164.572-.164c.245 0 .164.245.164.245h.245l.163-.654s-.735.246-1.144.41c-.409.163-1.226.408-1.226.408v.163h-.082Zm40.377-15.774c-.245.081-.164.49-.164.817 0 .327-.408.327-.735.327-.246-.082-.409 0-.654.082-.245.081-.981.98-.981.98l.163.327s.818-.408 1.063-.408h1.471c.245 0 .327-.082.327-.409 0-.327.409-.572.654-.572h.572s-.245-.327-.409-.327c-.245 0-.49.082-.735.163-.245.082-.409.654-.572.818-.164.081-.654 0-.899 0-.327 0-.981.245-.981.245s.409-.409.735-.572c.246-.164.736-.082 1.063-.245.327-.082.245-.818.245-.981 0-.245.736-.49.736-.49l-.082-.082-.817.327Zm-3.842 1.062c.082-.082.082-.49 0-.572 0-.163-.408-1.39-.408-1.471 0 0 0-.082.081-.245.082-.082 0-.327 0-.327s-.245.408-.245.49c0 .082-.245.327-.163.49 0 .246-.082.981-.246 1.063-.081.163-.327.49-.327.572-.081.082-.081.245.246.409.245.163.572.327.735.163.164-.081.327-.572.327-.572Zm-7.764-4.74c.081.163.245.081.245 0 0 0 0-.164.081-.164 0 0 .082.164.246.327.081.245.245.245.245.245l.163-.163s0 .163.082.408c.164.246.327.164.327.082v-.163s.082 0 .163.245c0 .163.164.409.327.572.082.082.327 0 .327 0s-.081-.163 0-.245c0 0 .164.082.164.327 0 .163.082.327.163.572 0 .163.409.163.409.163v-.326l.082.081c.081.082.327.654.327.736.081.081.245 0 .245-.082s-.082-.409-.082-.409.082 0 .164.164c.081.163.408.736.49.899.163.163.327.163.327.082v-.409c0-.082.082 0 .245.163.164.082.082.41.082.41s.327.08.408.08c.164 0 0-.163.164-.163.163 0 0 .246.245.327.245.164.245-.245.164-.327-.082-.081-.491-.163-.491-.163s-.082-.245-.245-.327c-.163-.082-.327-.082-.327-.082l-.082-.082s-.327-.326-.49-.408c-.082-.082-.409-.164-.49-.164-.082 0-.327-.49-.491-.572-.082-.081-.572 0-.572 0s-.245-.572-.327-.654c-.163-.081-.409 0-.409 0s-.163-.327-.245-.408c-.082-.082-.408-.082-.408-.082s-.082-.245-.246-.327c-.081-.082-.327 0-.327 0s-.163-.327-.245-.409c-.082-.081-.245 0-.245 0s-.082-.163-.163-.245c-.082-.163-.082 0-.082.082 0 0 .082.327.082.409Zm5.476 1.716c-.082 0 0 .164-.082.245 0 .082-.164.327-.245.409 0 .082.081.245.163.327.082.163.164.163.245.163h.246c.163 0 0-.817 0-.899 0-.081-.164-.327-.164-.409.082.164-.082.164-.163.164Zm-2.698 2.942c.164.082.654.082.9 0 .163 0 1.307-.163 1.471-.163h.817s0-.082-.163-.163c-.082-.082-.246-.164-.246-.246l-.49-.245c-.245-.163-.817 0-.981 0-.163.082-.735.49-.899.572-.163 0-.572-.081-.735-.081 0 0 .245.326.326.326Zm1.88.981c0 .164.164.572.491.49.327-.081.245-.326.245-.408 0-.082-.245-.163-.245-.163v.245c0 .081-.164.163-.245.081a.611.611 0 0 0-.246-.245Zm-3.923 0c-.082.082-.082.245-.082.327 0 .082.409 0 .573 0 .081 0 .326-.082.326-.163 0-.082-.081-.245-.163-.245s-.245 0-.327-.082c0 .081-.163.081-.327.163Zm2.943 1.145c0 .081-.082.572.326.653.409.164 1.063.164 1.39-.081.409-.246.409-.49.49-.572 0-.082-.245-.164-.245-.164-.082.082-.572.49-.735.572-.082 0-.491 0-.818-.082-.163-.081-.408-.327-.408-.327Zm0-.981c.081 0 .326-.164.49-.164.082 0 .082 0 .082.245 0 .164.408.41.572.49.245.083.654-.08.817-.08.082 0 .164.08.327.163.164.081.327.081.409.081h.654c.081-.081.327-.245 0-.163-.327 0-.818-.164-1.145-.327-.327-.164-.327-.736-.327-.736h-.899c-.163 0-.49-.163-.49-.163l-.082.082c-.082 0-.163.081-.163.163s-.245 0-.327 0c-.082 0-.164.245-.164.327 0 .082.164.163.246.082Zm7.11.49s.736.082.899.082h.491c.163 0 .654-.327.817-.409.082-.082.899-.082.899-.082l-.081-.163h-.736c-.245 0-.899.49-.981.572-.163.082-1.226-.163-1.226-.163v.163h-.082Zm-.98 1.553h.327c.163 0 .49.163.735.245.327.082.899.572 1.144.572.246.082.736.082.899-.081.164-.164.736-.409.9-.572.081-.082.735 0 .735 0v-.246s-.327-.081-.49-.081h-.572s-.082 0-.164.245-.409.408-.735.408c-.327 0-.491-.245-.654-.327-.246-.081-.654-.245-.736-.245-.163 0-.163-.081 0-.081.164-.082 1.144-.164 1.308-.246.163-.081.735-.735.899-.817.082-.082.981 0 .981 0l-.164-.49h-.572c-.082 0-.49.081-.572.081-.164 0-.899.736-1.063.818-.163.081-1.226.245-1.471.245-.163 0-.735.082-.735.082v.49Zm4.086 1.635c-.245 0-.572.163-.735.327-.164.081-.654.49-.654.49s-.327-.082-.409-.082c-.082 0-.654-.081-.817-.163-.164 0-.654-.245-.736-.245 0 0-.082-.246 0-.246h2.207c.163-.081.899-.98.981-.98.082-.082.981-.082.981-.082s0-.327-.082-.327h-.736c-.163 0-.327.163-.408.163l-.409.41c-.082.08-.49.163-.572.326-.082.163-.409.082-.654.082-.245-.082-.409-.082-.736-.082-.245 0-.899.163-1.062.163l.082.654s.49.164.653.246c.164.081.327.163.409.163.164.082.817.082.899.163.082.082.245.246.409.246h1.88v-.164s-.491-.245-.572-.245H144.363s.49-.245.572-.409c.082-.081.163-.245.409-.327h.735c.164 0 .491.164.491.164s0-.327-.082-.327c.163.163-.491.082-.736.082Zm0 1.553h-.654c-.163 0-.735.163-.899.245-.163.082-.245 0-.408-.082a3.52 3.52 0 0 0-.981-.163c-.327-.082-.817 0-.817 0s0 .408-.082.653l-.164.49s.082.083.246.083c.081 0 .49.245.572.327.081 0 .572.245.654.245.163 0 .326.163.49.081.163 0 .817-.326.899-.408.163-.082.899-.082.899-.082v-.327s-.49-.082-.572-.082c-.082 0-.245.164-.409.246-.081.081-.572.245-.654.327-.081.081-.245.081-.49 0a.742.742 0 0 1-.572-.246c-.164-.163-.491-.245-.572-.327-.164 0-.327-.081-.245-.163 0-.082 0-.082.245-.163.163-.082.817 0 .899 0 .163 0 .572.163.654.163.081 0 1.062-.409 1.226-.49.163-.082.49 0 .735 0h.654v-.327c0-.082-.572 0-.654 0Zm-4.086 1.39s-.164.326 0 .49c.163.163 1.062.163 1.062.163s-.572-.327-.735-.409c-.164-.081-.327-.245-.327-.245Zm-9.073-7.194c-.082.164-.245.49-.327.573-.082.081-.735.081-.899.081-.163 0-.327.082-.245.327 0 .245.163.49.409.572a.9.9 0 0 0 .653 0c.246-.081.409.082.573 0 .081-.081.245-.163.327-.245.081-.081.245.082.245.245v.327c0 .082 0 .246.163.164.164 0 .327-.49.327-.49v.572c-.082.163-.245.245-.245.327 0 .081.082.081.245.081.164 0 .245-.408.245-.572v-1.144l.327-.082s.164.245.164.409v.572s.163-.163.327-.409c.163-.327.081-.408.081-.408l.246.081s-.082.9 0 1.145c.081.163.653.654 1.307.654.654 0 1.226-.082 1.472-.49.327-.41.408-.655.408-.655l.327.164s-.408.735-.735.98c-.327.246-1.308.41-1.635.41-.245 0-.082.244 0 .244s.981.164 1.471-.163c.409-.327 1.144-1.144 1.144-1.144l-.327.899s-.653.572-1.144.654c-.49.081-1.144.163-1.144.163v.327s.899.163 1.226 0c.327-.082 1.144-.572 1.144-.572v.327s-.735.49-.981.572c-.245.082-.98.163-.98.163v.246s.49.081.653.081h.981v.327l-.327.082v.817l.899-.408.736.245s.082.735.082.817c0 0 .163.164.245 0 .082-.082 1.062-2.043 1.144-2.288 0-.246-.245-.327-.327-.164-.081.245-.572 1.308-.572 1.308l-.163-.572s.572-1.471.654-1.635c.081-.245-.164-.49-.246-.327-.081.082-.572 1.063-.572 1.063l-.082-.49.573-1.145c0-.245-.164-.654-.327-.49-.164.163-.491.817-.491.817l-.245-.49s.49-.9.49-1.145c0-.327-.163-.899-.408-.899-.327-.081-.572 0-.818 0-.245 0-.572-.163-.735-.327-.164-.245-.245-.49-.491-.49-.245 0-1.716 0-1.798.082l-.163.163s-.082-.082-.245-.082c-.082 0 0 .164-.246.245-.163.082-.163-.081-.163-.163s-.082-.327-.164-.082c-.081.164-.245.327-.326.409h-.736c-.245-.082-.654-.163-.817-.163h-.164Zm9.4 8.42-1.145.326-.245-.245.327-.9-.327-.163-1.062.245-.246-.163.246-.98-.409-.246-.981.572-.327-.082-.163-1.307-.246-.082s-.327.245-.49.327c-.082.082-.572.327-.572.327l-.245-.164s0-.408.081-.572v-.408l-.327-.246-.653.654c-.082.164-.573.327-.573.245 0-.081-.817-1.144-.817-1.144v1.798l.245-.654.164.246v.653-.245c0-.081.082-.327.082-.327l.245.164v.408l.163-.163v-.245l.327-.082v.245c0-.081.491-.245.491-.245l.081.245s-.654.164-.817.654c-.082.327.245.409.245.409s0-.736.736-.654c.572.082.245.736.245.736s-.164.245 0 .163c.163 0 .409-.163.409-.327v-.49s.408 0 .408.163c0 .164 0 .49.327.572.245.082.981.409 1.226.654.245.245 1.063.817 1.063.817l.572-.408.082.163-.409.327.082.082s.245-.245.327-.245c.081 0 .327-.164.245 0 0 .081-.245.409-.245.409l.245.081.327-.245.245.082-.327.49.327.245.245-.327h.082s.082-.163.245-.326c.164-.164.491-.41.654-.654l-.163-.164Zm-12.669-2.29c0 .328.082 2.126.082 2.126l.326-.082v-1.798l-.408-.245Zm1.062.491v1.635h.491s.327-1.145.327-1.226c0-.082-.246-.246-.327-.246-.164-.081-.491-.163-.491-.163Zm1.226.327-.327 1.144.654-.327s.327-.572.327-.654c0-.081-.082-.163-.163-.163h-.491Zm1.145.082-.246.49h.409l.245-.49h-.408Zm1.879.49c-.081-.245-.326-.654-.817-.409-.572.246-.735.572-.654.818 0 .245.245.572.245.572l.164-.082s-.245-.49 0-.654c.245-.245.409-.327.572-.327.245 0 .49.164.49.082Zm-4.822 2.289c0-.082-.163-.327 0-.41.245-.162.899-.326 1.144-.326.164 0 .327.49.327.49h.164s-.164-.408-.327-.735c-.245-.245-.981-.164-1.226 0-.245.081-.49.409-.49.572 0 .163.245.817.245.817l.163-.082c.082-.081 0-.245 0-.326Zm2.125-.654-.081-.246s0-.163.081-.245c.164-.081.409-.245.572-.245.164-.082.246-.082.246 0s.163.245.163.245l.327-.081s-.245-.327-.327-.49c-.082-.164-.327-.246-.49-.164-.164 0-.491.081-.818.408-.327.327.164.9.164.9l.163-.082Zm2.534-1.308-.163.163s.163.164.408.327c.327.164.736.082.899-.163.082-.245.245-.49.245-.817 0-.327-.326-.327-.408-.164-.082.245-.654.817-.654.817l-.327-.163Zm-4.005 1.88c0 .163-.082.49-.49.572-.327.082-.572.163-.654.163-.082 0-.164.573-.082.736.082.245.49 0 .736-.163.327-.082.654-.327.654-.818-.082-.49-.164-.49-.164-.49Zm.327-.245c-.082 0-.082 1.062.327 1.062.409 0 1.144-.163 1.308-.327.245-.163.327-.572.163-.817-.163-.327-.409-.245-.409-.245s.082.163.082.245c0 .082.245.327-.408.572-.573.163-.818.082-.9 0 0-.245-.081-.572-.163-.49Zm1.798-.573c0 .082.164.573.409.654.163.082.163.246.735-.163.573-.327.818-.49.573-.9-.164-.326-.409-.326-.409-.326s0 .082.082.245c.081.082-.164.327-.409.409-.245.163-.572.327-.654.327-.082-.082-.327-.246-.327-.246Zm.327 1.717.245.082-1.307.572.326.082 1.145-.49.163.08-.817.41.327.081.735-.408.082.163-.49.245.245.164.49-.245.082.163s-.245.245-.163.245c.081 0 4.658 1.471 4.985 1.471.327 0 .736-.081.736-.081.163 0 .409-.082.49-.082.082 0 .327.163.409.245.082 0 0 .164-.082.245-.081.082-.408.164-.408.164s0 .163.163.245c.164.082.572.245.654.245.082 0 .327-.081.327-.163.082-.082.49-.245.654-.49.163-.164-.327-.9-.491-1.145-.245-.245-.49-.327-.572-.327-.163 0-.49.164-.654.245-.163.082-.572 0-.899 0-.245 0-1.471-.49-1.553-.49-.081 0-.408-.163-.654-.327-.245-.245-.49-.49-.899-.572-.408-.082-1.226.49-1.226.49s-.245-.081-.245-.163a144.73 144.73 0 0 1-.245-.245s.163 0 .409-.246c.245-.163.245-.326.245-.408 0-.082-.082-.327-.082-.327l.327-.164v.818h.164s0-.245.081-.327v-.327c0-.082-.081-.327-.081-.327l.326-.164v.164s.082.163.082.245c.082.163.082.572.082.572h.163s0-.163.082-.245v-.409a3.53 3.53 0 0 0-.082-.408l.246-.164s.245.082.245.164c0 0 .082.245.082.408 0 .164-.082.654-.082.654h.245v-.163c0-.082.082-.654.082-.654s.081 0 .163.082l.245.245v.245c-.081.163-.163.409-.163.409l.163.163s.164-.327.246-.408c.081-.164.408-.736.49-.818 0-.082.163-.327.163-.327l-.163-.163-.163.163c0 .082-.164.245-.164.245l-.082-.081.164-.49-.164-.164-.245.49-.082-.081v-.246c0-.082.082-.572.082-.572l-.245-.082s-.082.164-.082.246c0 .081-.163.49-.163.49l-.082-.082v-.327c0-.081.082-.408.082-.408l-.245-.082s-.082.409-.164.49l-.082.245-.081-.081.081-.572h-.245v.572h-.245c-.082 0-.327.245-.327.245l-.899-.082v.572s-.327.164-.49.327c-.164.082-.9.49-.9.49l-.408-.163s-.082.246-.327.49c-.245.164-1.226.573-1.39.573-.081.082-.408.245-.408.245h.408l1.635-.9Zm5.313-.654c-.082.245-.409.9-.409.9l.245.163s.327-.49.409-.654c.163-.246.409-.9.409-.9l-.246-.244c-.081.081-.327.49-.408.735Zm.735.654c-.081.163-.408.736-.408.736l.408.163s.164-.409.246-.49c0-.082.327-.981.327-.981l-.246-.245c0 .081-.245.654-.327.817Zm.981-.082s-.163.49-.245.572c-.082.164-.245.573-.245.573l.245.081s.245-.49.245-.572c0-.082.164-.572.164-.572l-.164-.082Zm2.534-.49c.082 0 .082-.49-.245-.572-.327 0-1.063.163-1.063.735s.245.9.491.9c.653.163.735-.164.735-.164s-.654-.082-.654-.572c0-.49.246-.49.491-.49.163 0 .245.163.245.163Zm-.327.49c0 .082.163 0 .163 0l.409-.163h.164c0 .082.572 1.062.572 1.144v.163l-.245.082.081.164s.164-.082.327-.082c.164 0 .245-.327.164-.49-.082-.164-.246-.736-.409-1.063-.163-.327-.409-.245-.572-.164-.164.082-.572.246-.572.246s-.164.082-.082.163Zm.572.9c-.163 0-.245.163-.409.326-.163.164 0 .49.164.981.163.49.327.572.49.572.164-.082.572-.245.654-.245.082 0 0-.163 0-.163s-.082 0-.245-.082c-.163 0-.245-.082-.327-.245 0-.082-.245-.818-.245-.9v-.081c.082 0 .327-.164.327-.164v-.081l-.082-.082-.327.163Zm.736 1.062c0 .082.327 0 .327 0s.327.572.408.735c.082.164 0 .41-.245.573-.163.081 0 .245.164.163.163-.082.327-.245.49-.327.082-.082.082-.327 0-.572-.163-.327-.409-.9-.49-.9-.082 0-.164-.08-.327 0-.164.083-.409.164-.409.164l.082.164Zm1.471 1.798c0-.163-.327-.082-.245.082.081.163 0 .245.163.327.082.081.327.163.245-.082a85.493 85.493 0 0 0-.163-.327Zm-1.144-1.063c-.082.164-.327.327-.491.49-.163.246-.081.573 0 .736.164.246.245.164.327.164.082 0 .245-.164.164-.245 0-.082-.082-.245-.164-.409 0-.245.082-.409.164-.49.081-.082.163-.164.163-.246.164.164 0-.081-.163 0Zm-1.226-3.923c0 .082 0 .164.245.082s.654-.327.654-.327.163.572.572.572c.327 0 1.308-.082 1.308-.082v.246s-.654.326-.736.408c-.082.164-.245.49 0 .409.245-.082.736-.327.736-.327v.245s-.573.409-.573.49c-.081.082 0 .328.164.246.245-.082.654 0 .654 0l.082.327s-.409.245-.491.245c-.082.082 0 .327.164.327h.408l.082.49s-.327.164-.409.246c-.081.081-.081.245.082.326.245 0 .572.082.572.082l.082.327s-.164.082-.327.245c-.163.082-.163.246.082.246s.408 0 .49.081c.082.082.164.245 0 .245-.082 0-.245 0-.327.082-.082 0-.327.409.082.49.409.082.981-.163.981-.163l.081.245s-.408.246-.572.246c-.081.081-.163.326.164.653.408.409.899.818 1.144.9h.245s-.245-.573-.327-.736c-.081-.164-.245-.572-.245-.736 0-.163.164-.081.164 0 .081.082.653.981.899 1.063.163.082.245.082.163-.245-.082-.327-.817-1.39-.899-1.635-.082-.164-.163-.572-.163-.572s-.491-.327-.573-.572c-.081-.164-.98-1.962-1.062-2.452-.164-.49-.409-2.207-.654-2.289-.245-.082-.899-.572-1.471-.409-.572.246-1.063.572-1.144.572-.082.082-.082.246-.246.246.082-.082-.081.163-.081.163Zm4.332-1.798c0 .082-.082.409 0 .572.081.082.245 1.145.245 1.308 0 .245-.164.409.081.409.246 0 .573-.082.654-.246.082-.081 0-.49-.081-.735-.082-.245-.327-.9-.491-1.063-.163-.082-.163-.082-.245-.163-.082-.082-.163-.082-.163-.082ZM131.122 61.3c.082.163.245.409.327.572.082.082.163.327.409 0 .245-.245.572-.163.817-.163s.409 0 .409-.082-.327-.245-.491-.327c-.163-.082-.327 0-.49 0-.164.082-.572.245-.654.163-.082-.081-.245-.408-.327-.408.082 0 0 .163 0 .245Zm.736.98c-.082.164-.082.491-.409.573-.327.163-.736.245-.817.327-.082.163-.246.245-.246.408-.081.164.082.082.246 0 .163-.081.653-.163.899-.163.245 0 .572 0 .735-.327.164-.245.082-.409.164-.572.081-.164.163-.409.163-.409l-.735.164Zm-4.414-3.596-.245.327.245 2.616.245-.327-.245-2.616Zm-.409.736-.327.245v.736l.246.163.081-1.144Zm2.534.736-1.471.817v.163l1.226-.572.245-.408Zm-1.471 1.226-.082.163.736-.163.327-.409-.981.409Zm-.491.49.164.245 1.471.164.245-.327-1.88-.082Zm.573.9.653-.083.246-.245h-1.063l.164.327Zm23.294 4.658c0 .163.327.735.572.98.245.246.408.41.572.41.245 0 .981-.573 1.144-.654.164-.082.818-.327.654-.327-.082 0-1.226.081-1.226.081s.245-.572.327-.899c0-.245.245-1.062.245-1.062s-.327.327-.49.654c-.082.245-.736 1.144-.736 1.144l-1.144-.654c.082-.082.082.163.082.327Zm1.634 1.553s0 .572.164.572c.163 0 .654-.409.899-.49.245 0 .981-.327.981-.327s-.654 0-.981.081c-.409 0-1.063.164-1.063.164Zm.246 4.005c-.327.245-.246.327-.082.327.082 0 1.716.817 1.798.899.163.082.409-.245.245-.327-.163-.082-1.144-.736-1.144-.736s.49-.408.654-.49c.163-.164.572-.572.572-.654-.082 0-1.635.817-2.043.98Zm-5.967-2.616-.082.573.082.245.327-.49.327.163-.327.49.409-.327h.572s0-.081.081-.245c.082-.082.246-.327.246-.327l.245.082s.245.082.163-.082c-.081-.245-.654-.572-1.307-.735-.736-.082-1.308.572-1.308.572h.572v.081Zm1.635-3.187c-.164.081-.246.245-.246.49 0 .327 0 .572-.081.736-.082.245-.327.735-.327.735l.408.082s.327-.572.491-.817l.163-.327.164.081s-.164.41-.245.573c-.082.081-.246.49-.246.49h.246s.245-.245.326-.49c.082-.164.327-.573.327-.573l.246.082s-.246.409-.327.572c-.082.164-.246.572-.246.572l.164.082s.409-.408.572-.654c.164-.245.245-.49.245-.49l.245.082s-.081.49-.245.572c-.163.163-.245.572-.245.572h.164l.49-.49c.082-.082.163-.327.163-.327l.327.163s-.163.245-.245.327a970.3 970.3 0 0 0-.572.572l.245.164s.409-.327.572-.409c.164-.082.327-.327.327-.327l.164.327s-.327.245-.409.327l-.327.327.327.082s.327-.41.572-.49c.327-.082.409-.41.245-.41-.163-.081.082-.245.082-.408 0-.164-.245-.245-.409-.245-.163 0 .082-.409-.163-.49-.245-.083-.49 0-.572 0-.082 0 0-.328-.164-.491-.163-.082-.572 0-.572 0s0-.409-.245-.409c-.163 0-.572.164-.572.164s-.327-.49-.817-.327Zm.899 2.942c-.082.082-.491.9-.572 1.144-.082.246-.573.736-.573.736l-.245-.245c-.082-.164-.408-.327-.408-.327s.163.49.163.817c0 .409.245 1.063.245 1.063s.899-.164 1.471-.49c.573-.328 1.145-.981 1.145-.981s-.246-.082-.491-.082-.817.082-.817.082.082-.327.082-.736v-.98Zm1.798.736s-.245 1.308-.327 1.798c-.082.49-.164.736-.164.736s.409.081.654.245c.327.163.899.49.899.49l-.163-.409-.654-.408s.899-.654 1.226-1.063c.327-.408.49-.817.49-.817s-1.226.49-1.389.654a5.1 5.1 0 0 0-.409.245l-.163-1.471Zm-.736 1.961s-.49.327-.817.49l-.817.41s.735.572.98.735c.246.163.899.817.899.817l.082-.081s-.245-.49-.409-.654c-.163-.245-.572-.654-.572-.654s.818.327 1.063.327h.572l-.245-.245c-.245-.164-1.063-.736-1.063-.736l.327-.327v-.082Zm-7.683 2.698c.245.817 1.063 1.144 1.798 1.144.736 0 .899-.327.899-.572-.081-.164 0-.245-.245-.654-.327-.409-1.144-.572-1.553-.572-.98-.082-1.062.327-.899.654Zm.654-.327c.082.163.409.654.491.817.081.245.408.409.49.409.327 0 .327-.082.245-.327a3.807 3.807 0 0 0-.409-.818c-.163-.245-.245-.327-.49-.327 0 .082-.409.082-.327.246Zm-3.76-.981s.246.082.246.245c.081.163.327 1.144.408 1.226.082.163-.245 0-.245 0v.082l1.471.245v-.082s-.327-.082-.327-.163c0-.082-.163-.409-.163-.409s.327.164.572.327c.163.163.327.572.409.572.081 0 1.062.164 1.062.164v-.082s-.163 0-.327-.164c-.163-.163-.245-.408-.327-.572a3.179 3.179 0 0 0-.327-.245s.409-.327.327-.409c0-.081 0-.245-.49-.408l-2.452-.49.163.163Zm-2.697-.572s.327.081.327.245c0 .163.164.98.245 1.144 0 .164-.327 0-.327 0v.164s1.635.408 1.962.408c.327 0 .654-.245.654-.327 0-.081-.082-.572-.082-.653 0 0-.327-.573-.735-.654-.327-.082-1.717-.409-1.962-.49h-.082v.163Zm3.923.899.164.572s.409.082.49.082c.082 0 .245-.164.164-.246-.082-.163-.164-.326-.327-.326-.245-.082-.491-.082-.491-.082Zm-4.495-.164.572.654.327-.49-.49-.572-.409.408Zm-2.861-1.961v.163s.327.245.327.327c0 .163.164.654.164.9 0 .326-.327.163-.327.163v.081l1.144.327v-.163s-.245-.082-.245-.164c0-.163-.082-.899-.082-.899l1.144 1.553.573.164s-.246-1.39-.246-1.471c0-.082.409.081.409.081v-.163l-1.226-.409v.164l.327.327c0 .081.082.817.082.817l-.899-1.39-1.145-.327v-.081Zm-1.226.081c0 .164 0 .49.082.736 0 .245.082.409.327.49.163 0 .327 0 .245-.163 0-.163-.082-.654-.082-.817 0-.164-.163-.41-.326-.41-.164-.08-.246.083-.246.164Zm-.735.164c0 .163.408 1.226 1.226 1.226.817.082.899-.245.899-.409 0-.163 0-.327-.164-.654-.163-.327-.817-.653-.98-.653-.981-.246-.981.245-.981.49Zm-3.515-.49s.245 0 .327.081c.082.164.245.818.327 1.063.082.245-.409.327-.409.327v.163l1.063-.327-.082-.081s-.245.081-.327-.082c-.081-.164-.245-.818-.245-.818l.981.981h.245l.409-1.226s.163.654.163.9c0 .326-.245.163-.245.163l.082.163h.49c.164 0 .817.082.817.082l-.081-.082s-.327-.163-.409-.327a4.871 4.871 0 0 1-.163-.98c0-.164.408-.164.408-.164v-.163l-1.144-.082-.409.899-.899-.736-.981.246h.082Zm-8.582-18.145s.245-.082.327-.082c.164 0 .245.163.245.163l.654-.735-1.88-.164.654.818Zm-.899.735.817-.245v-.163l-.735-.573-.082.981Zm1.798-.163.736.327v-1.063l-.736.572v.164Zm-.49.245c.49 0 .327-.572-.082-.572-.409 0-.409.572.082.572Zm-.736.817h1.553c0-.572-.49-.654-.817-.654-.654-.081-.736.654-.736.654Zm2.207.164c-.49.735-.49 1.716-.49 1.716h.163s.409-1.144.572-1.39c.245-.49.899-.98.899-.98s0 .082.082.163c.082.082.082 0 .082 0l-.164-.735c.082 0-.654.49-1.144 1.226Zm1.635-.736c.081.245.408.164.408-.082-.081-.163-.408-.163-.408.082Zm.817-.245c0 .327.409.245.409 0s-.409-.245-.409 0Zm.981-.082c-.164.164 0 .49.245.245.245-.163-.163-.327-.245-.245Zm.735.572c-.163.082.082.49.327.327.164-.245-.163-.49-.327-.327Zm.409.981c0 .327.409.245.409 0s-.409-.163-.409 0Zm-3.76.164s.899-.41 1.635-.49c.736-.082 1.308.653 1.144 1.144-.245.572-1.144 1.226-1.144 1.226l.245.163s.981-.654 1.226-.98c.245-.246.736-1.227-.081-1.962-.818-.654-2.207-.082-2.534.245a6.37 6.37 0 0 0-.491.572v.082Zm.818 1.553c.572.245 1.062-.164 1.062-.9 0-.735-1.144-.817-1.308-.572-.245.245-.817 1.063-.817 1.063s.409.245 1.063.409Zm-2.452-.49c.081-.328.081-.736-.654-.736-.818 0-.491.735-.491.735s.736.082 1.145 0Zm-1.226-1.635c-.164 0-.082.163 0 .326 0 .164.081.327.081.327h.327v-.163c0-.245.327-.164.327 0v.245h.327s.082-.082.164-.327c0-.245 0-.327-.246-.327-.245-.081-.98-.081-.98-.081Zm-1.88-1.308s-.245.408-.245.572c-.082.163 0 .245.081.163.082-.081.164-.081.164-.081s.327 0 .735.572c.164.327.818 1.716.818 1.716h.163s-.163-1.226-.572-1.88a4.784 4.784 0 0 0-1.144-1.062Zm.572 3.187s-.654-1.47-1.471-1.226c-.899.164-.899.818-.818 1.145.164.327.654.735 1.226.572.491-.327 1.063-.49 1.063-.49Zm-.654-2.043c-.572-.327-.736-.409-1.553-.409s-1.716.9-1.716 1.717c.081.899 1.634 1.634 1.634 1.634l.164-.081s-.899-.572-1.063-1.063c-.163-.49-.163-.98.818-1.39.899-.408 2.37.491 2.37.491v-.082l-.654-.817Zm-1.144-.98c-.082.326.245.408.327.163.163-.245-.245-.327-.327-.164Zm-1.063.08c0 .328.491.246.409 0-.082-.326-.409-.244-.409 0Zm.245 4.251c-.245.082-.081.736.573.409.653-.327 1.798-1.063 3.841-1.145 2.779 0 4.087 1.063 4.087 1.063.163.082.572-.327.163-.572-1.062-.654-2.615-.98-4.25-1.063-2.534.082-4.25 1.226-4.414 1.308Zm-.98-3.841c.245.326.572.081.408-.164-.081-.163-.572-.163-.408.164Zm-.654.49c.327.327.572.082.408-.245-.163-.245-.653.081-.408.245Zm-.164.9c.246.08.327-.246 0-.328-.163 0-.327.327 0 .327Zm0 4.331.246-.245.081-.736-.245-.327-.082 1.308Zm-.572.163.245.082.164-1.716-.409-.572v2.206Zm-1.798.164 1.716.572.164-.245-2.043-.654.163.327Zm.409.572.981.327.163-.245-1.308-.409.164.327Zm-.164.817.245.246.736-.164.082-.245-1.063.163ZM94.75 68.33s-.408-.327-.653-.49c-.49-.246-.9-.082-1.308 0-.327 0-.817.572-.817.572v.735s.408-.653.98-.98c.409-.164 1.472.163 1.798.163Zm-1.144.245c-.654-.245-.98.245-1.308.817-.326.573.41 1.063.736.736.327-.245 1.635-1.308 1.635-1.308s-.409-.081-1.063-.245Zm-1.716 2.207c.654.572 1.634.163 2.207-.327.653-.409 1.716-.817 1.716-.817l.082.245s-.9.572-1.226.817c-.327.246-1.145.981-1.145 1.145-.081.163.654-.246.981-.49.327-.246 1.962-.982 1.962-.982l.163.246s-1.47.817-2.043 1.226c-.49.408-1.144 1.716-.9 1.47.246-.326 1.145-.898 1.717-1.225.572-.409 1.635-.818 1.635-.818l.163.246s-1.389.735-1.798 1.144c-.49.327-.98 1.144-.899 1.062.082-.081 1.063-.653 1.39-.899.327-.245 1.634-.572 1.634-.572v.245s-1.39.981-1.553 1.145c-.163.163-.081.327.327.163.49-.163 1.717-.817 1.717-.817l.082.163-.736.654s1.062-.163 1.39-.245c.326-.082 1.961-.572 1.961-.572s-.9-.49-1.553-.817c-.736-.328-1.716-2.044-2.043-3.106-.327-1.063-1.39-.654-1.553-.572-.164.163-1.471 1.389-1.635 1.47-.082.082-.899.9-1.635.818-.735-.082-.572-1.39-.572-1.39s-.49.736.164 1.39Zm-4.414-7.356c0 .163-.082.245.409.409.572.163.899.163 1.226.163.327 0 .572.245.49.572-.082.245-.163.9-.163 1.063.081.163.327.572.327.572l.245-.082s-.409-.654-.327-.98c.082-.328.082-.981-.082-1.145-.163-.163-.245-.245-.572-.163-.327 0-.654 0-1.063-.082-.245-.245-.49-.409-.49-.327Zm1.144 0c.246 0 1.145 0 1.39.245.245.327.245.654.163 1.226-.081.572.327 1.471 1.063 1.226.654-.163 1.226-.817 1.471-.899.245-.082 1.962-.409 2.697-.327.736.082 1.226.572 1.39.981.082.409.327 1.063.163 1.471-.163.327.327-.082.409-.409 0-.245-.164-1.798-.9-2.125-.571-.326-1.307-.49-2.288-.326-.899.081-1.47.163-1.716.326-.245.246-.409.246-.409.164 0-.082-.081-.736-.245-.98-.164-.41-.572-.491-.572-.491s.245.327.245.49c0 .164.082.409.163.736 0 .245.082.49.082.49l-.327.082s-.163-.49-.327-1.144c-.163-.654-.98-.981-1.226-.981-.245-.082-1.144.245-1.226.245Zm3.106 4.087c.082.163-.082.245-.082.245l.41.163s.244-.163.408-.245c.163-.082.98-.245 1.226-.245.327 0 1.471.409 2.043.49.572 0 .9-.408.9-.98 0-.49-.328-1.308-1.145-1.472-.654-.163-2.452.409-2.615.409-.082 0-.327.654-.573.899-.245.327-.735.245-.735.245s.081.409.163.49Zm-8.01-.409c.164.245.409.409.409.409v.081c0 .082.245.164.245.164l-.082.163h.246a.814.814 0 0 0 .327.082l-.327.245s.081.082.327.082h.572l-.245.245h.408c.245 0 .736-.245.736-.245s-.245-.327-.409-.409l-.49-.245s0-.082-.164-.163c-.081-.082-.327-.082-.49-.082-.082 0-.327-.164-.49-.327-.164-.245-.49-.49-.49-.49s-.164.245-.083.49Zm3.025-.49c0 .49.326.899.49.899.163 0 .245-.327.163-.654-.081-.327-.327-1.226-.327-1.471 0 0-.245.735-.326 1.226Zm2.778 1.88c-.081.081.082.49.327.245.164-.164-.163-.49-.327-.245Zm.082.98c.245.082.409-.327.164-.408-.164-.082-.409.326-.164.408Zm-.98-.572c.245.082.49-.245.245-.327-.082-.163-.49.164-.246.327Zm0-.654c.163.082.163-.245.245-.572 0-.327-.164-.49-.41-.572-.244-.082-.49.327-.49.409 0 .081-.49.245-.735.408-.245.164-.245.654 0 .818.245.163.572-.164.572-.245 0-.082-.245-.082-.245-.082s.163-.164.327-.082c.163.082.327.245.408.327.164 0 .327-.163.246-.245-.082-.082-.327-.246-.327-.246s0-.163.081-.163c0 0 .246.163.327.245Zm.817-.572.163-.163v.653h.082s.082-.245.082-.326c0-.082.081-.41.081-.41h.327s-.245.655-.327.736c-.081.164 0 .164.082 0 .082-.081.327-.653.327-.653l.245.081s0 .082-.082.246c0 .163-.408.49-.408.49s0 .082.163.082c.082-.082.573-.409.9-.572.326-.246.245-.327.163-.49-.082-.164-.409-.41-.572-.573-.164-.082-.572-.245-.981-.082-.409.082-.572.572-.572.736 0 .163 0 .817.081.817.082 0 .164-.082.164-.082l.082-.49Zm-.327 1.226c0 .327.327.327.327.082 0-.409-.327-.164-.327-.082Zm-1.145-.082c-.245.082-.081.327.082.246.164-.082 0-.327-.082-.246Zm.328.082c-.082.164 0 .327.245.164.245-.082-.246-.246-.246-.164Zm.408.245c-.082.164.164.327.327.164.082-.245-.245-.327-.327-.164Zm-1.062.49c.163 0 .163-.408 0-.408-.246 0-.164.409 0 .409Zm-.818-.49c-.082.082-.245.245-.163.327 0 .164.081.409 0 .49-.082.082-.49.573-.572.655 0 .163-.082.327.081.327.246 0 .736-.164.9-.164.163-.082.408-.245.408-.245v-.245l.164-.164s-.082-.082-.082-.245c0-.082.082-.163.082-.163s-.246-.082-.327-.328v-.408h-.49v.163Zm-2.125.736s-.082 0-.082.082c0 .081.736.245.736.245s-.245.082-.082.163c.164.082.409 0 .409 0s-.082.327 0 .327.572-.49.654-.572c.082-.082-.164-.245-.327-.245-.164 0-1.471-.082-1.471-.082l.163.082Zm3.27-.572c-.082.245.081.327.245.163.245-.163-.164-.245-.246-.163Zm1.144.163c-.164.082 0 .49.163.409.245-.163.082-.572-.163-.409Zm-.572.246c.245 0 .245-.328 0-.328-.246.082-.164.328 0 .328Zm.081.326c0 .41.49.164.49 0-.08-.163-.49-.326-.49 0Zm-.163.164c-.327 0-.327.327-.082.327s.245-.409.082-.327Zm-.572.654c.408 0 .245-.572 0-.49-.164 0-.409.408 0 .49Zm.081-1.063c-.163.164.082.49.328.245.163-.245-.246-.326-.328-.245Zm2.37-.98c.082 0 .573-.164.655-.164.163 0 0 .327-.082.327s-.9.163-.9.163v.245h.737c.081 0-.082.328-.082.328h-.9l-.245.326s.573.41.818.41c.163.08.081.163.409.163.326 0 .653-1.145.898-1.553.164-.41 0-.818-.081-.981-.164-.082-.572.327-.654.409-.163.081-.654.245-.654.245l-.163.245c0-.082.245-.164.245-.164Zm-1.062 1.225-.163.246.245.572-.245.163s-.082-.327-.082-.49c0-.082-.245 0-.245.163 0 .082.082.572.082.572h-.327v-.326c0-.082-.246-.082-.246 0v.326l-.408.082.245-.408h-.327s-.572.572-.572.735c0 .082.082.163.327.163s.49-.163.817-.163h.9c.163-.082.244-.082.408-.163.245-.082.735-.246.817-.41 0-.162-.082-.244-.082-.244s0-.245-.163-.245c-.082-.082 0-.164-.082-.246-.163-.163-.327-.163-.327-.245-.327-.082-.572-.082-.572-.082ZM86.25 73.56c0 .082 0 .327.164.245.245 0 .49-.163.49-.163s0 .163.163.163c.164 0 .327-.163.327-.163s-.081.245 0 .163c.164 0 .49-.409.49-.409s.164.164.246 0c.082-.163.082-.326.082-.326s.163.163.245 0c.082-.164 0-.49 0-.49s.245-.164.245-.246c0-.082-.163-.163-.245-.163-.082.081-.98.653-1.144.735-.327.245-1.063.654-1.063.654Zm3.678-1.553c0-.082.164-.163.164 0v.572s.081 0 .163-.082c.082-.081.082-.408.082-.572 0-.081.245.082.245.164v.654h.49c.082 0 .082-.327 0-.41-.081-.162-.326-.735-.899-.735-.572 0-.572.409-.572.573.164 0 .327-.082.327-.164Zm1.962 1.39c0 .081.163.572.654.653.49.082.572-.163.408-.245-.163-.082-.735-.327-.817-.409-.082-.081-.245-.163-.245 0Zm-.327-.736v-.245c0-.082.081-.164.163-.082.082.163.082.245.082.245h.082v-.654c0-.081.245-.163.245-.081v.245c0 .082 0 .327.163.163.164-.081.327-.327.327-.49.082-.164-.327-.654-.98-.654-.736 0-.327 1.39-.246 1.553h.164Zm.49.49c.245.082.49.164.9 0 .408-.163.49-.654.408-.899-.082-.163-.572-.327-.654-.081-.082.245-1.063.899-1.063.899s.164 0 .41.081Zm-.817.327s0 .245-.082.572c-.082.246-.49.409-.327.818.082.408.49.163.736 0 .245-.245.327-.654.081-.9-.245-.163-.245-.572-.245-.572l-.163.082Zm-1.144-.654c-.327-.163-.573-.408-.573-.49 0-.082-.572.245-.735.49-.082.246.572.9.899.818.327-.082 1.144-.572 1.144-.572s-.409-.082-.735-.246Zm.899.654s0 .082-.409.164c-.409 0-.736.245-.9.572-.163.327.164.572.41.572.163-.082.49-.327.735-.49.245-.246.327-.736.327-.9l-.163.082Zm8.5-17.736c-.245.082-.327.49-.163.817.163.327.408.327.735.164.327-.164.245-.49.082-.654-.082-.163-.409-.409-.654-.327Zm1.635-.245c-.082.081.081.327.081.327s-.163.163-.163.327c0 .245.163.327.163.327s.327-.736.654-.981.572-.409.818-.327c.327.082.327.49.327.654l-.164.327s.327-.164.409-.245c.081 0 .49.163.49-.082 0-.164-.409-.082-.409-.164v-.163c0-.082-.081-.245-.081-.245s.327-.164.163-.327c-.163-.164-.327.081-.327.081l-.327-.081s.246-.409 0-.409c-.327 0-.245.409-.245.409l-.49.163s-.164-.327-.245-.245c-.164.082.081.49.081.49l-.327.327c-.163-.163-.327-.327-.408-.163Zm-1.962 1.553c-.163 0-.49-.245-.899-.245-.409 0-.654 0-1.063.735-.408.818 1.226 1.144 1.226 1.144s-.653-.408-.817-.572c-.163-.163-.082-.654.327-.817.327-.163 1.226.082 1.226.082v-.327Zm-.163.654c-.082-.082-.981-.49-1.063 0-.082.49.327.735.572.654.245-.082.409-.327.327-.49-.163-.083.164-.164.164-.164Zm2.779-1.553c-.246.408-.082.49-.082.49s.163-.245.327-.327c.163 0 .245.327.245.327s.245-.163.327-.327c.082-.163.245-.736 0-.817-.245 0-.572.245-.817.654Zm1.798 0c-.246 0-.327.245-.491.327-.081.163-.408.326-.49.326v.328s.082.326 0 .408c0 .082.245-.082.409-.163.081 0 .408-.327.49-.49 0-.246.327-.328.327-.164 0 .163-.164.49 0 .49.163.082.49-.163.49-.327 0-.082-.49-.735-.735-.735Zm1.716 1.634v.49c0 .083-.245.328 0 .328s.654-.164.981-.245c.245 0 .572 0 .817-.082s.245-.245 0-.327c-.245-.082-.327-.327-.654-.327-.327.082-1.062 0-1.144.163Zm-.245 1.39c0 .082.654 0 1.144.163.491.164.899.327 1.226.327.327 0 .654 0 .981-.163.327-.245.49-.245.327-.327-.082 0-.654-.082-.899-.164-.327-.163-.736-.408-1.144-.327-.409.082-1.145.164-1.39.327-.245.082-.245.082-.245.164Zm.654.735c0 .082.327.327.572.654.245.327.817.818 1.144.9.327.163.899.326 1.308.245.327 0 .572-.246.327-.327-.327 0-.491-.082-.736-.327-.327-.327-.327-.49-.735-.654-.491-.164-1.88-.654-1.88-.49Zm1.389 2.044c-.082.081 0 .899.245 1.062.246.164.736.327.899.49.246.164.409.41.573.573.081.245.081-.327 0-.572-.082-.245-.491-.736-.573-.818-.081-.163-.163-.163-.408-.245-.164-.082-.572-.572-.736-.49Zm.164 1.961c.081.246.572.572.654.818.081.163.49.735.735 1.062.327.327.409.327.327-.245-.163-.572-.409-1.063-.736-1.226-.245-.327-.98-.409-.98-.409Zm-1.472-.572.491.736c.163.327.327.327.409.654 0 .245.326.735.49.98.163.246.409.41.409.41s.081-1.063 0-1.227c-.082-.245-.409-.327-.491-.409-.082-.163.082-.245-.245-.408-.163-.327-.981-.817-1.063-.736Zm-7.683-.408c0 .081-.245.408.246.817.49.327.817.327.899.163.082-.163.082-.572-.082-.654-.163-.163-.327-.163-.49-.245-.164 0-.49-.163-.573-.081Zm1.635-2.78v.246s.327.082.572.163h.572s0-.245.246-.49l.327-.327-.246-.327s-.572.327-.653.409l-.818.327Zm1.308.981c.163 0 .245-.327 0-.327s-.164.327 0 .327Zm-.082.327c0 .164.245.082.327 0 0-.163-.327-.163-.327 0Zm-.082.409c-.081.245 0 .409.327.245.164-.245-.327-.408-.327-.245Zm-.245.572c-.081.082-.163.409.082.245.327-.245 0-.327-.082-.245Zm-.245-.163c.164.081.164-.327.082-.327-.164 0-.164.245-.082.327Zm.409-.736c-.164 0-.164.164 0 .164.081 0 .081-.164 0-.164.081 0-.082 0 0 0Zm-.654-.817c-.327-.082-.572-.164-.572-.164l.081-.654s.164-.081.327-.081c.082 0 .327-.082.327-.082l-.081-.245s-.164 0-.327.081c-.164.082-.49.082-.49.082l-.082 1.145s.49 0 .817.081c.245 0 .654.164.654.164l.081-.164c-.163.082-.408-.163-.735-.163Zm1.471-.327c-.082.082.164.408.327.654.082.245.572.654.572 1.226s-.327.98-.409 1.062c-.081.082.327-.082.409-.163 0-.082.491-.981.164-1.471-.327-.573-1.063-1.308-1.063-1.308Zm-.409 4.822c-.081.164 0 .327-.163.409-.082.081-.572.327-.654.327-.082 0 .082.081.409.163.327.082.981-.082 1.062-.49l.082-.327-.736-.082Zm-1.716 2.452c.409 0 .572-.082.899-.163.327-.082.817-.818.817-.818s-.081 0-.327-.081c-.245 0-.408.163-.653.245-.327.081-.49.408-.818.408-.245 0-.572.164-.654.164 0 0 .327.245.736.245Zm-1.39 1.962c.082 0 .41-.327.246-.409-.082-.082-.327.409-.245.409Zm.164-.736c.245.164 1.308.327 1.798.164.572-.246 1.144-.9 1.226-1.145v-.327s-.572.41-.899.49c-.327.082-1.063.246-1.226.41-.163.081-.327.245-.572.326-.082-.081-.572-.163-.327.082Zm3.923-3.76c-.49.49-.082 1.145 0 1.635s-.082.736-.082.736.491-.246.654-.49c.164-.246 0-.328 0-.655 0-.245 0-.572.164-.899.163-.245.327-.899.408-1.062-.081 0-.653.163-1.144.735Zm-.735-2.37-.327.327.327.49v-.817Zm-2.534-4.904c0 .082.327.572.245.9-.082.244-.409.49-.327.571v.164s-.327.327-.572.49c-.163.245-.654 1.226-.654 1.226s.654-.245.9-.327c.163-.081.163.164 0 .245-.083.082-.246.41-.246.49 0 .164-.163.736-.163.736s.408-.49.653-.572c.327-.081 1.145-.245 1.226-.245.082 0-.245-.163-.327-.163h-.572v-.164s.327-.082.572-.082c.164 0 .818.164.818.246 0 .081-.082.49-.327.49-.245.082-.409.163-.49.327-.082.163-.328.572-.246.899.082.245.572.49.899.245.327-.245 1.145-.817 1.145-1.062a1.405 1.405 0 0 0 0-.818c-.082-.327.327-.327.408-.163.082.082.491.899.491 1.144 0 .245-.246.817-.899 1.144-.736.41-.818.49-.899.49-.164 0-.246.41 0 .573.245.082 1.062 0 1.389-.327.327-.327 1.144-1.471 1.144-1.962 0-.49-.817-1.716-.981-1.88-.245-.163.164-.163.327 0 .246.082.899.981.981 1.227 0 .245.082.326.082.326s.082 0 .245-.081c.082 0 .491-.245.899 0 .409.245.981.817 1.226.899.245.082.572.082.572.082 0-.082-.163-.164-.245-.246-.082 0-.572-.572-.817-.899-.245-.327-.572-.735-.899-.817-.327 0-.572.082-.572.082l-.164-.327h.981c.245 0 1.144.817 1.471.98.245.164.409.164.572.164.164-.082 0-.245 0-.245-.081 0-.654-.49-.981-.981-.245-.49-.735-1.308-1.471-1.144a3.006 3.006 0 0 0-1.062.49l-.164-.327s.899-.49 1.063-.572c.245-.082.735-.572.817-.817v-.572c0-.164-.245-.327-.327-.246-.082.164-.245.573-.408.654-.246.082-.573.164-.818.327-.245.164-.817.654-.817.654l-.245-.245s.572-.409.817-.572c.245-.164.49-.164.572-.49.082-.328.164-.573 0-.573-.082 0-.163.245-.245.327-.164.082-.572.082-.899.245-.245.164-.409.327-.572.409l-.164.327h-.245s.49-.572.572-.736c0-.163 0-.98-.082-1.144-.163-.163-.245 0-.326.082 0 .163.081.572 0 .817-.082.164-.573.9-.573.9l-.163-.082s.245-.327.327-.573c0-.245.082-.899-.164-1.062-.245-.164-.49-.327-.49-.245 0 .081.245.408.163.735-.081.327-.081.409-.163.572 0 .082-.082.49-.082.49h-.245s.164-.408.082-.653a.615.615 0 0 0-.409-.572c-.245-.164-.49-.164-.572-.082 0 .082.245.49.327.654 0 .163.082.49 0 .572 0 .082-.082.245-.082.245h-.163s0-.163-.164-.408c0-.082-.49-.164-.49-.164Zm4.659 4.495v.327s.572.164.817.327c.245.164.736.736.817 1.063.082.245.082.409.327.572.327.163.572.245.736.245.163 0-.164-.409-.327-.572-.164-.163-.409-.245-.49-.654-.082-.409-.409-1.062-.654-1.226-.327-.163-.491-.245-.654-.245-.245-.082-.572.163-.572.163Zm1.553 2.37c0 .164-.082.328 0 .491 0 .164.245.654.572.9.327.326.572.571.735.898.164.327.246.49.246.409 0-.164.081-.409 0-.572-.082-.082-.327-.736-.409-.981v-.49l-.491-.246c-.245-.163-.653-.408-.653-.408Zm4.331-.081c-.163 0-.081.654.082.98.164.328.409.573.572.818.164.164.246.245.491.327.245.082.408.082.49 0 0 0-.082-.245-.245-.409-.164-.163-.49-.817-.654-1.062-.245-.245-.327-.572-.736-.654Zm1.799 1.635c0 .081 0 .245.163.245.164 0 .164-.327.164-.327s.081-.082.081-.164c0-.163-.163-.163-.163-.163s-.082-.082-.245-.082c.081-.082 0 .327 0 .49Zm-.082 1.144c0 .163-.164.409-.082.572 0 .082.245.082.245.082s0-.082.082-.49c.082-.41.082-.41 0-.491 0 0-.245.245-.245.327Zm-7.601-4.25-.164.408s.491.573.327.736c-.082.245-.572.98-.327 1.39.245.408.572.49 1.063.572.49.081.817 0 .899 0 .082 0-.327-.164-.491-.409-.163-.245-.408-.654-.327-.98.082-.246.164-.655 0-.982-.245-.735-.98-.735-.98-.735Zm7.029 4.25c0 .082-.164.49-.245.654-.082.163.081.327.245.163.081-.163.163-.408.245-.572.082-.163.082-.245 0-.327 0-.082-.245-.082-.245.082Zm-3.678-.9c.081.164.163.491.327.9.081.409.081.899.081 1.063 0 .081.246.163.327 0 0-.164.409-1.472.409-1.472s-.245-.245-.409-.245c-.245-.082-.817-.49-.817-.49s0 .163.082.245Zm2.452 2.044-.082.572.245.082.164-.409-.327-.245Zm-1.063-2.207c0 .082 0 .246.082.572.082.328.327 1.308.327 1.39v.164h.245c0-.082.409-1.553.327-1.635-.163 0-.49-.245-.654-.327-.163-.245-.327-.164-.327-.164Zm-3.106.246c0 .081.246.572.327.735.082.245.491.817.654 1.063.164.327.327.408.409.327.082 0 .082-.818 0-.9-.082-.163-.245-.572-.736-.817-.49-.245-.654-.408-.654-.408Zm4.496.49c-.082.163-.164.327-.082.654s.245.654.327.736c.082 0 .245-.082.163-.246 0-.163-.081-.49-.081-.654-.164-.081-.327-.49-.327-.49Zm-5.558-.49s0 .163-.082.326c0 .164-.163.328-.327.736-.163.409.082 1.063.164 1.226.081.164 0 1.144.081 1.144.082 0 .736-1.47.818-1.716 0-.245-.082-.817-.164-.98-.082-.246-.163-.818-.163-.818l-.327.082Zm-2.37 1.307a.634.634 0 0 0-.327.327c-.164.164-.409.49-.573.654-.163.082-.408.327-.572.572-.163.164-.572.654-.408.654.163 0 .49-.082.817-.245.327-.163.736-.654.899-.98.245-.328.409-.818.409-.982 0 0-.164-.081-.245 0ZM99 69.473c-.163.082-.326.327-.408.49-.164.164.082.328.163.328.082-.082.409-.49.573-.572.081-.082.245-.164.245-.246-.082 0-.409-.082-.572 0Zm2.126.9c-.164-.082-.327.898-.327.898s.49-.817.327-.899Zm.408 1.634c0 .082-.081.245.082.245.082 0 .164-.163.164-.245 0-.082 0-.163-.082-.163s-.164.081-.164.163Zm-.572-.49c0 .081-.163.408-.245.49 0 .082-.082.245 0 .327.163 0 .163 0 .245-.163 0-.082.164-.41.245-.49 0-.083.164-.328 0-.328-.081-.163-.163 0-.245.164Zm-1.716-1.39c-.082.164-.327.654-.409.736 0 .082.082.245.164.082.163-.082.408-.736.49-.818.082-.082.082-.163 0-.245 0 .082-.163.163-.245.245Zm.327.572c-.082.082-.245.327-.245.49 0 .082.163.246.245.082.081-.081 0-.326.245-.326.245-.082.245-.327.082-.327-.082 0-.246 0-.327.081Zm.735.327c-.081.164-.327.409-.327.654 0 .245.246.082.327 0 0-.163.246-.49.327-.572a.248.248 0 0 0 0-.327c-.163-.082-.245.082-.327.245Zm2.861-4.168c-.082.163-.163.327-.327.408-.163.082-.49.573-.572.736 0 .163-.817 1.553-.899 1.717-.082.081 0 .49 0 .653 0 .164.163.246.245.164.082 0 .327-.572.409-.654.081-.082.572-.409.981-.654.49-.327.49-.98.408-1.226 0-.327 0-.654.082-.899s.082-.572-.082-.572c0 0-.245.163-.245.327Zm7.193 2.533c0 .164.899.654.98.818.082.163.164.409.246.49.081.082.408.082.327.082 0-.082-.164-.572-.164-.654 0-.163.082-.49.082-.572 0-.082-.164-.9-.164-.9l-.245-.244c-.082-.082-.082-.082-.245-.082-.082 0-.082.164-.245.327-.082.163-.246.327-.327.163-.082-.245-.164-.326-.245-.326-.082.081 0 .735 0 .898Zm-5.15-.653c0 .245-.408.572-.49.653-.082 0-.164.328-.327.49l-.245.491h-.327s0-.245-.082-.572c-.082-.327-.163-.49-.245-.572-.082 0-.245.327-.409.49-.163.164-1.062.818-1.226.9-.245.163-.245.327-.081.408.163.082.408.245.572.164.163 0 1.062-.654 1.144-.736.163 0 .245 0 .163.082 0 0-.98.735-1.144.899-.163.163-.327.409-.327.49 0 .082.327.164.572.082.246-.082.572-.327.736-.409.163-.081 1.389-1.062 1.471-1.144.082-.082.409-.245.327-.082-.163.164-.654.654-.899.818-.163.081-.49.49-.327.408.245-.081.327-.081.654-.245.327-.163.899-.572 1.144-.735.245-.164.899-.49 1.063-.49.081 0 .245.08.245.08s-.49.328-.654.491c-.163.082-.245.327.082.246.245-.082.735-.246.899-.41.245-.08.899-.08.899-.08s-.164.08-.245.326c-.082.245.163.163.163.245 0 .082.082.245.245.245.082 0 .082.082.082.246 0 .081-.163.408-.163.408l.163-.081c.082-.082.245-.082.245-.246 0-.081.164.082.164.246 0 .163-.164.408-.164.408h.082c.082 0 .245-.245.327-.327 0 0 .082 0 .082.246 0 .326-.082.572-.082.572s.163.081.245-.082c.082-.164.164-.572.164-.654 0-.082-.491-.9-.491-.98-.081-.082-.245-.246-.081-.246.081 0 .326.163.49.163.163.082.572.246.572.246v.163c0 .082-.163.327 0 .327.082 0 .164-.082.245-.163 0-.082.164 0 .082.163 0 .163-.163.409-.163.409s.081 0 .163-.082c0-.082.163-.245.163-.163 0 .081-.081.408-.081.49 0 .082 0 .245.081.163.082 0 .164-.245.327-.408.082-.164-.081-.736-.245-.818-.081-.163-.49-.572-.572-.572-.082-.081.082-.245.245-.163.164.082.409.245.409.327.082.082.245 0 .327.163 0 .082-.082.327 0 .327s.082 0 .245-.163c.082-.082 0 .245 0 .327-.082.081-.245.327-.163.327.081 0 .163 0 .245-.164.082-.082.163 0 .163.163 0 .164-.081.246-.245.328-.082.081 0 .326.082.163.163-.163.245-.163.327-.327.082-.245-.245-.9-.409-1.144-.082-.327-1.389-.9-1.798-.981-.49-.082-3.106-.49-3.269-.572-.246-.082-.246-.817-.573-.817-.408-.41-.572 0-.572.245Zm11.28 8.582c0-.082-.246-.327-.409-.409-.245-.082-.409.082-.327.409.082.327.327 1.144.327 1.144s.654.082 1.389.082c.654 0 .899-.409.327-.736-.572-.327-1.144.327-1.144.327s-.163-.082-.245-.082c-.082-.081-.082-.163-.082-.163s.082-.49.164-.572Zm1.798-1.226c.081.163.327-.082.49 0 .164.163-.082.245 0 .327.082.081.164 0 .245 0 .082-.082.082-.327-.081-.49-.164-.082-.409-.164-.573-.082-.163.081-.081.163-.081.245Zm-2.125-1.471c.163.163.49 0 .245-.246-.082-.081-.327.082-.245.246Zm2.697-2.37c-.327.408-.572 1.144-.654 1.144 0 .081 0 .081.163 0 .082 0 1.145-.981 1.308-1.227.164-.245.082-.408-.163-.408-.327-.082-.409.082-.654.49Zm.082 1.552c.081.082.327.245.572.245h.327l.327-.245h-1.226Zm3.024.9c-.082 0-.409.163-.327.244.082.164.408.246.654.327.245.082.327-.081.163-.245-.082-.082-.49-.327-.49-.327Zm-6.13 1.144c.899 1.062 3.024 1.798 4.168 2.206 1.226.409 2.452.409 2.616.409.081 0 .327-.245 0-.245-.246 0-.654-.164-.654-.164s1.307-.654 1.389-.817c.164-.082 0-.327-.245-.163-.245.163-1.553.817-1.553.817l-.572-.082s1.226-.654 1.389-.817c.164-.082-.081-.164-.245-.082l-1.471.736-.327-.164s1.063-.572 1.308-.654c.245-.081-.082-.245-.245-.081l-1.308.653-.491-.163s1.308-.572 1.39-.736c.082-.081-.164-.163-.327-.081-.082.081-1.471.735-1.471.735l-.245-.163 1.716-.9s.899.328 1.716.491c.736.164 2.371.164 2.616.164.245 0 .572-.49.327-.41-.327.083-1.717 0-2.289-.08-.572-.083-1.389-.246-2.615-.9-1.308-.572-3.024-2.207-3.106-2.288-.082-.082-.082-.082-.245.081-.164.164.081.654.081.654l-.245.164s-.163-.082-.327-.082c-.081 0-.327.082-.327.245 0 .082.327 0 .409.082.082.082 0 .245.245.245.164 0 .082-.245.082-.245l.409-.245.245.245s-.409.245-.491.327c-.081 0-.326.163-.408.163-.082 0-.736.409-.736.409l-.245-.164s.245-.163.245-.245c.082-.081-.082-.327-.163-.245 0 .082-.327.245-.327.245s-.164-.081-.245-.163c-.082-.082-.409-.164-.327 0 .081.327 0 .163.899 1.308Zm1.389-1.063c-.082 0-1.062.49-1.062.49l.163.164 1.717-.817-.164-.164s-.572.245-.654.327Zm0 .49c-.163.082-.735.327-.735.327l.163.164s.572-.245.736-.327c.245-.082 1.062-.572 1.062-.572l-.245-.164c0 .082-.817.49-.981.572Zm1.39-.163s-.654.327-.899.409l-.818.408.245.164 1.717-.9-.245-.081Zm.654.327-.164-.082s-.572.327-.817.409c-.164.082-.899.408-.899.408l.163.164s.327-.164.409-.245c.163-.082.245.163.163.245-.081.082-.327.163-.327.163l.164.082s.245-.082.327-.163c.163 0 .327 0 .245.081-.082.082-.327.164-.327.164l.409.163 1.634-.899-.245-.082s-.49.164-.572.246c-.082 0-.163-.164-.082-.245.082-.082.327-.164.327-.164l-.245-.163s-.245.163-.327.245c-.082 0-.327-.082-.245-.164.245 0 .409-.163.409-.163Zm1.062-.817s2.37-2.29 2.616-2.534c.245-.164 0-.572-.327-.49-.327 0-.654.408-.654.408h-1.717l-.245.409h1.635l-.082.163h-1.716l-.164.245 1.635.082-.082.164h-1.798l-.245.327 1.798.081c-.654.981-.654 1.145-.654 1.145Zm1.962-.49c.081.08 1.144 1.389 1.226 1.47.081.082.327 0 .327-.163 0-.082-1.226-1.717-1.226-1.717s-.327.327-.327.41Zm-8.582-5.395c-.082.081 0 .572 0 .817.081.327.081.49.245.654.082.163.49-.082.49-.245-.081-.164-.327-.573-.408-.818-.164-.163-.246-.408-.327-.408Zm-1.553.735c0 .082-.164.572-.082.654 0 .164.082.245.082.245s.327-.245.572-.408c.245-.164.817-.327.735-.49a.623.623 0 0 0-.163-.41c0-.081-.245-.081-.327 0-.163 0-.817.328-.817.41Zm2.043-.735v.245c0 .082.082.245.164.327 0 .081.163.081.326 0 .164 0 .9-.245.981-.245.082 0 .245.081.245.326v.736c0 .164.082.327.082.327s-.245.082-.163.245c.081.164.327.082.327.082s.245.409.327.572c.081.164.245.572.163.654-.082 0-.572.163-.654.163-.163 0-1.961.736-2.207.818-.245.163-.408.245-.327.49.082.164.246.49.9.327.653-.163 2.778-.98 2.86-1.471 0-.572-.082-1.144-.245-1.308-.163-.245-.572-.408-.572-.49 0-.082.245-1.553-.245-1.962-.491-.409-.736-.327-1.063-.245-.327.245-.735.327-.899.409Zm-.082 1.716c-.49.245-.408-.327-.49-.245 0 0-.164.163-.164.327 0 .163.246.409.818.245.572-.163.49-.817.327-.817 0-.082.081.245-.491.49Zm-1.307 2.043c.245.327.98.573 1.062.573.082-.082-.082-.327-.082-.327l1.88-.818s.491.164.572.082c0 0 0-.163-.163-.327-.082-.163-.49-.736-.572-.98-.082-.328-.164-1.145-.164-1.227 0-.082-.081-.082-.163.082-.082.163-.082.98-.082.98l-2.37.818s0-.082-.082-.245c0-.163-.163-.572-.163-.49-.164.817.081 1.553.327 1.88Zm.163-.817s.164.163.245.163c.082 0 2.044-.653 2.044-.653l-.082-.245s-1.471.572-1.717.572l-.49.163Zm.409.654c.081 0 .163.082.327.082.081 0 1.716-.736 1.716-.736l-.082-.163s-.817.245-1.062.327c-.164.163-.899.49-.899.49Zm3.351-4.087v.164h.981c.245 0 1.062 0 1.307-.082.246 0 .327-.082.327-.082v-.082s-.49 0-.572.082h-2.043Zm2.615.246c-.081.081-.899.326-1.144.408-.163 0-.899-.082-.981-.082-.163 0 0 .164 0 .164v.163c0 .082 1.063 2.125 1.063 2.125l.081-.081-.98-2.125h.245l.899 1.961v-.163l-.654-1.717h.245l.572 1.472.082-.246-.409-1.226h.246l.327.981.163-.327-.245-.735h.245l.164.49.163-.327-.082-.327h.164s0 .245.081.082c0-.082.082-.327.082-.327s-.245-.245-.327-.163Zm-2.125.98c0 .082.327.818.491 1.145l.408.817.082-.082s-.082-.082-.163-.245c-.082-.163-.736-1.88-.736-1.88s-.082.163-.082.245Zm-.817-1.39c0 .082-.082.246.082.41.163.163.408.572.49.572.082 0 .082.326.082.49 0 .082.735 1.798.817 1.962.082.163.082.408.327.245.327-.082.899-.409.899-.49 0-.082.164-.328.164-.41 0-.081.899-2.288.899-2.37 0-.163-.246-.245-.327-.081-.082.082-.082-.246-.082-.327 0-.082 0-.245-.164-.245a.988.988 0 0 0-.408.081h-2.779v.164Zm5.476 2.453c-.082 0-.163.082-.082.163 0 .082.164.246.164.246l-.164.081h-.654c-.163 0-.245.082-.245.164h.164s.163-.082.245-.082c.082 0 .245 0 .245.082 0 .081-.163.245-.163.327v.163c.081 0 .163-.082.163-.163l.245-.246h.409c.163 0 .163-.163.327-.163h.327c.163 0 .245.082.082.163-.082 0-.409 0-.409.082l-.082.082h.245c.082 0 .327.082.409 0 0-.082.082-.082.082-.164 0-.081 0-.081.081-.081h.164s-.082 0-.082.163c0 .082.245.082.245 0v-.327h-.081c-.082 0-.164.082-.246 0-.081 0-.081-.081 0-.081.082 0 .246 0 .164-.246 0-.163-.572-.163-.736-.163-.163 0-.081.163 0 .163.082 0 .409 0 .491.082.081 0 0 .082-.082.163-.082 0-.49.082-.572 0-.082 0 0-.326-.164-.408-.081-.082-.081 0-.163 0 0 .082-.082.082-.082 0-.163.082-.245 0-.245 0Zm.163-1.063v.49c0 .082.082.164.164.246.082.082.163.082.327.163.082 0 .327-.245.409-.327V69.473c0-.082-.082-.082-.164-.082h-.572l-.164.082Zm.246-1.798h-1.717c-.163 0-.163.082-.163.164v3.024s0 .245.082.163c0 0 1.062-.735 1.144-.817.082 0 .082-.082.082-.082v-.899c0-.082 0-.082.163-.082h.409V67.84c.081 0 .081-.164 0-.164Zm-.572.654v.409c0 .081-.246.163-.327.163-.082 0 0-.082.081-.245 0-.082.082-.082.082-.245v-.327c0-.082-.163 0-.245-.082-.082 0-.245 0-.409.082-.082.081-.082.572 0 .817 0 .164.245.327.245.409 0 .081-.081.081-.163.081s0 .164 0 .328c.082.163 0 .326 0 .408 0 .082.327-.082.327-.163 0 0 .082-.327.082-.409 0-.082 0-.409.081-.49 0-.082.246-.164.246-.246v-.408c0-.082.245-.164.081-.246.082 0 0 .164-.081.164Zm.899-.49v1.307h.49c.082 0 .163.082.163.164v.98c0 .082.654.654.736.654.164 0 .654-.98.817-1.307.164-.327.327-1.717.327-1.798 0-.082-.163-.164-.327-.164h-2.043c-.082 0-.163.082-.163.164Zm-.573-.981c.164 0 .327-.327.327-.654s-.245-.736-.327-.736c-.081 0-.326.409-.326.736 0 .245.081.654.326.654Zm-.408.163c0 .082 0 .082.082.082h.653c.164 0 .164-.082 0-.082h-.653c-.082-.082-.082-.082-.082 0Zm.899-.163c.082 0 .245-.082.409 0 .163.081-.082.572 0 .572.081 0 .326-.082.408-.164.082 0 .245-.327.082-.735-.082-.327-.572-.327-.817-.245-.246.081-.246.408-.246.408.082.082.082.164.164.164Zm-1.962-.49c-.081.735.245 1.062.327 1.062h.082c-.082 0-.082-.164-.082-.327 0-.082 0-.327.245-.409.164-.081.409.245.491.164.082-.082-.082-.409-.245-.654-.164-.245-.409-.245-.573-.245-.081 0-.245 0-.245.408Zm1.063 1.144h.163v-.164h.164v.164h.245v-.164h.245v.164h.082v-.246h-.817l-.082.246Zm2.125-.736v.327h.163v-.245h.164v.245h.327v-.245h.163v.245h.164v-.327h-.981Zm-2.289-3.923c-.081.327.246 1.062.327 1.144.082.164.082.49.082.49h.245v-.326c0-.164.327-.818.327-1.226 0-.41-.327-.9-.409-.9 0 0-.49.49-.572.818Zm1.063 1.634s.245-.163.409-.081c.245.081.163.49.245.49.081 0 .327-.654.327-.654s.245-.98-.409-.899c-.572 0-.817 1.063-.817 1.144h.245Zm-1.717-1.144c-.163.082-.408.49-.326.818 0 .326.081.735.326.899.246.081.082-.573.164-.573.082-.081.327-.163.327-.081l.163.163h.246c0-.082-.082-1.553-.9-1.226Zm.818 1.308c-.082 0-.164.082 0 .082h.899c.082 0 .082-.082 0-.082h-.899Zm-.082.245v.327h.164v-.245h.163v.245h.245v-.245h.164v.245h.245v-.327h-.981Zm2.207 1.39c-.082 0-.082.245 0 .245h.817c.164 0 .164-.245 0-.245h-.817Zm.082-.246s-.164-1.062-.573-.98c-.408 0-.653.408-.572.653.082.246.327.41.409.41.082 0-.082-.41.245-.41s.245.41.245.41l.246-.083Zm.49 0h.082s-.082-.327.327-.327c.408 0 .163.573.163.573s.818-.981 0-1.145c-.817-.081-.572.9-.572.9Zm-.736-1.553c-.081.327 0 .49.164.736.082.245.245.98.245.98h.164v-.408c0-.163.163-.408.245-.572.081-.163.245-.49.163-.736 0-.245-.572-.653-.572-.653s-.245.327-.409.653Zm-5.394-.899c-.082 0-.327.082-.327.164s.164.245.245.327c.082.082.082.163.082.163h-.327c-.163 0-.082-.163-.245-.163-.164 0-.245.082-.245.082s0 .081.081.163c0 0-.081.082-.081.163 0 .082-.164.082-.246.082-.081 0-.081.082 0 .082h.246c.081 0 .163-.082.245-.082h.245s-.082.082 0 .164h.245c.082 0 0-.082 0-.164-.081-.082 0-.082 0-.082v-.245c0-.081-.081-.081-.163-.245 0-.327.245-.245.245-.409.082.082.082 0 0 0Zm-1.144.49c-.981.9-.981 3.434-.981 3.434h4.168v-5.15c-1.716.164-2.288.736-3.187 1.717Zm.408.982c.164.081.327.163.409.163.082 0 .082.082-.082.082-.081 0-.327 0-.49-.082-.164-.082-.245-.163-.327-.163-.082 0-.163.081-.245.245-.082.082-.082.082-.082.163l.082.164c0 .081-.164.163-.082.245 0 .082.082 0 .164-.082.081 0 .163-.082.245 0 .081 0-.245.164-.245.245h.163c.163 0 .245-.081.327-.081.082 0 .163-.082.245-.164.082 0 .327-.082.245 0 0 .082-.408.164-.408.164H118.045c.081-.082 0-.409 0-.49 0-.082 0-.082.081-.164.082-.082-.081-.082-.245-.082-.245-.163-.245-.163-.409-.163Zm-.245 1.062c0 .164.164.245.409.245.245 0 .245.082.082.082h-.409c-.164 0-.245 0-.409-.082h-.327c-.081 0-.081 0-.081.164-.082.082-.164.163 0 .327.163.081 0 .081-.082.163-.082 0 0 .082.082 0 .081 0 .327-.163.327-.082 0 0-.409.246-.327.328h.327c.245 0 .245-.164.326-.164.082-.082.246-.163.409-.082.164 0 0 0-.163.082-.082 0-.327.163-.246.163h.409c0-.081.327-.081.409-.081.082 0 0-.082 0-.164v-.327c0-.081 0-.163-.082-.163-.082-.082-.327 0-.49 0-.082-.245-.164-.327-.164-.409Zm1.39-2.779v.164c0 .081-.082.081-.082.245v1.39c0 .163.082.326.245.326.082 0 .082-.081.082-.245 0-.082-.164-.082-.164-.163 0-.082 0-.082.082-.082s.327.409.327.572c0 .163-.082.082-.245 0-.082 0-.245 0-.327.082-.082 0 .163.817.163.899 0 .082-.163.082-.245.163-.082.082.327.082.491 0 .245 0 0-.163-.082-.327a.696.696 0 0 1 0-.572c0-.082.082.164.245.409a.494.494 0 0 0 .409.327c.163 0 0 .163-.082.245-.082.082-.327.082-.49.082-.164 0 0 .081 0 .163s-.246 0-.327.082h.327c.245 0 .49 0 .653-.082.246-.163.082-.735.082-.899 0-.082-.163-.327-.163-.49 0-.082.163-.164.163-.245v-1.39c0-.163.082-.245.082-.409 0-.081 0-.245-.082-.163-.082 0-.082 0-.163.163-.082.164 0 .246 0 .327v1.226c0 .164-.082-.408-.164-.572 0-.163-.081-.408-.081-.572 0-.163.081-.572.163-.654.082-.082.163-.327.163-.408v-.164s-.081 0-.163.082-.082.163-.082.163h-.245l-.082-.163-.081.082c-.082 0-.082.081-.082.245v.245c0 .082.082.082.163.163 0 0-.081.164-.081.246-.082.081-.082 0-.164-.082 0-.082-.163 0-.163-.164-.082-.081 0-.081.081-.163v-.245c.082.081 0 .081-.081.163Zm.245.654s-.082.245-.082.327c0 .163 0 .163.082.163s0-.326 0-.49Zm.245.49v.082c.082 0 .082-.245 0-.327.082 0 0 .164 0 .245Zm19.616 9.645.245 1.144v.082s.327.082.491.082c.245 0 .163-.409.082-.572-.082-.164-.246-.572-.409-.654-.245-.164-.409-.164-.409-.164v.082Zm8.827-.082.164-.163-.082-.164-.163.082.081.245Zm.327-.245.164-.082-.082-.163-.163.082.081.163Zm-35.227-5.23c0 .163 0 .244.245.244.327 0 .491-.163.491-.163s0-.163.081-.245c.082 0 .409-.082.491-.082.082 0 .082.164.163.164.082 0 .899-.246 1.063-.328.163-.081 0-.817 0-.98 0-1.472.572-4.169 3.024-5.15 2.37-.98 4.25-.572 5.149.164s2.616 2.288 2.616 4.986c-.082 2.615-.572 4.005-1.635 4.986-1.063 1.062-1.471 1.307-1.471 1.307l1.471 1.88.245-.082-1.308-1.716.246-.163s1.389 1.88 1.471 1.88c.082 0 .163-.164.163-.164l-1.389-1.798.082-.082 1.553 1.798s1.553-1.144 2.125-2.534c.572-1.39 2.125-4.086 0-9.562-.818-2.044-2.779-3.106-2.779-3.106 0 .081-.082.081-.245.081-.164 0-1.635-1.144-3.842-1.144-1.716 0-3.678.654-4.332 1.226-.327.327-.572 0-.572 0s-1.471 1.39-2.043 2.697c-.818 1.717-1.063 2.943-1.145 3.76-.081.817.082 2.125.082 2.125Zm10.871-.573c0 .163.081.245.163.327.082.082 0 .164-.163.082-.082-.082-.164-.164-.327-.082-.164 0-.245.082-.164.164.082 0 .245 0 .245.081 0 .082-.326.082-.408.082-.082 0-.245 0-.164.082.082.081.082.081.246.081h.326s.327 0 .327.164v1.062c0 .164.164.327.164.327s0-.245.082-.245c.163-.082.163 0 .245-.163 0-.164.327-.245.327-.49.081-.246 0-.41.163-.655.082-.163.245-.408.245-.49 0-.163-.081 0-.163.082-.082.163-.245.245-.327.408-.082.164-.082.49-.163.572 0 .082-.164.164-.164.164s.082-.49.082-.572c0-.082 0-.245.163-.327.164-.163.245-.163.164-.245-.082-.082-.082-.164-.082-.164l-.163-.163-.082.163h-.572v-.245Zm-3.597-7.601c0 .082.327.082.327-.082 0-.163-.327-.245-.327.082Zm4.169.654c-.082.081 0 .327.245.163.082-.163-.163-.327-.245-.163Zm2.779 4.904c.245 0 .245-.327 0-.246-.245 0-.164.246 0 .246Zm.245 1.062c.245 0 .082-.245-.082-.245-.163.082-.163.327.082.245Zm-13.895-1.062V66.613h.082s0-.164.082-.164h.327v.817h-.409l-.082-.245h-.081v.736h.081s.082-.245.164-.245h.981c.081 0 .163.163.163.163h.082v-.654h-.082s0 .245-.163.245h-.409v-.817s.409.082.49.082c.082 0 .164.082.164.163v.082h.163V66.204h-.082s0 .082-.081.082c-.082 0-1.063-.082-1.145-.082-.081 0-.081-.245-.081-.245h-.164Zm7.52-6.294c0 .164-.082.409-.082.818 0 .49.49.245.49.245s-.163-.164 0-.245c.082 0 .164.081.164.081s.082-.327.082-.572c0-.327-.082-.572-.327-.572-.164-.082-.327.082-.327.245Zm-.164-.163c0 .163-.081.735-.081.98 0 .246.326.491.49.491h.327c0 .082.327.327.409.327a.841.841 0 0 0 .326-.082s-.163 0-.326-.082c-.164-.081-.327-.245-.327-.245l.163-.327c0-.163 0-.327.082-.735a.627.627 0 0 0-.572-.654c-.246-.082-.491.082-.491.327Zm-7.029 5.558c0 .163-.163.408.245.572.327.081.736 0 .818 0 .081 0 .163-.164.163-.327 0-.164 0-.164-.327-.245-.245-.082-.899-.164-.899 0Zm-.245 0c-.082.245-.163.572.409.817.572.163 1.062.163 1.226-.327.163-.49-.409-.736-.654-.736-.245-.081-.899-.081-.981.246Zm.49-1.063c-.081 0-.245.327-.245.327s.082-.082.164-.082c.081 0 1.062.327 1.144.409.082 0 .082.163.082.163l.245-.572-.082-.081s0 .163-.082.163c-.081 0-.899-.327-.899-.327s.818-.163.981-.163h.327l.082-.246s-1.144-.49-1.226-.49v-.245h-.082s-.163.245-.245.327c0 .081-.164.327-.164.327h.082s.245-.164.327-.164c.082 0 .899.327.899.327s-.49 0-.654.082c-.081.163-.654.245-.654.245Zm8.909-4.413-.49-.246v.164l.163.081c0 .082-.163.573-.245.981-.082.327.082.572.327.654.164.082.491 0 .572-.082.082-.163.491-.899.491-1.062 0-.082.245 0 .245 0l.082-.082s-.164 0-.246-.163c-.081-.082-.327-.164-.327-.164v.082s.082.082.164.082v.163c0 .082-.327.736-.327.736s-.082.163-.245.163c-.164.082-.409-.081-.409-.245 0-.163.327-.9.327-.98-.163-.082-.163 0-.082-.082Zm1.226.408c0 .082 0 .164.082.164v.163c0 .082-.49.9-.49 1.063 0 .081-.082.081-.164.081l-.163-.081v.081s.245.082.327.164c.081.082.245.163.245.163v-.081s0-.082-.082-.164v-.163s.409-.9.491-.9c0-.081.081-.081.163-.081h.082v-.082l-.491-.327Zm.818.49c-.082.082 0 .246 0 .246v.163c0 .082-.491.818-.572.9 0 .081-.082.081-.164 0h-.082v.081l.327.327.082-.082v-.163c0-.082.49-.9.572-.981h.082l-.49 1.553 1.471-.409s-.736.572-.818.654c-.081.082-.163.082-.163 0l-.082-.082-.082.082.327.409.082-.082v-.163c.082 0 .899-.818.899-.818l.164.082h.081l-.245-.409-1.389.327.408-1.226-.408-.408Zm.49 2.861.327.327h.082v-.245s0-.082.082-.082h.163l.082.082.163.327v.163s-.082.082-.163.082l-.082-.163h-.082l.164.572.081-.082v-.163c0-.082 1.145-1.145 1.145-1.145v-.081s-1.471.245-1.553.326c-.082 0-.245-.081-.245-.081l-.164.163Zm.736.082.163.409.572-.573-.735.164Zm1.389.736s.082.245 0 .245-.899.327-1.062.408c-.164 0-.246-.163-.246-.163l-.081.082s.163.408.163.49c0 .082.082.49.082.49l.49-.081v-.082s-.408 0-.408-.082c0 0-.082-.163-.082-.245 0-.082 0-.082.082-.163 0 0 .98-.327 1.144-.409h.245l-.163-.572-.164.082Zm.491 1.144c-.082 0-.082.163-.164.245-.082.082-.327.409-.327.49 0 .082-.082.164-.163.164-.082 0-.572.082-.572.082-.082 0-.164-.164-.164-.164v.654h.082v-.163s0-.082.082-.082h.572s.572.408.654.49c.081 0 .081.245.081.245h.082v-.653h-.082v.081s0 .082-.163 0c-.082 0-.491-.327-.491-.327s.327-.572.409-.572c0-.082.164.082.164.082h.081l-.081-.572Zm-1.39 2.615h.082s0-.163.082-.163h.408v.327c0 .081.082.327.245.327h.491c.163 0 .327-.327.327-.409v-.736h-.082s0 .164-.163.164h-1.226c-.082 0-.082-.164-.082-.164h-.082v.654Zm.817-.163v.327c0 .081.082.081.164.081h.327c.082 0 .163-.163.163-.245v-.245h-.654v.082Zm-.817.899c0 .082-.163.735-.163.735l.49.164v-.082s-.245-.163-.327-.245c0-.082.082-.409.082-.409l.654.082v.245c0 .082-.164.082-.164.082v.082l.409.081v-.081l-.082-.082c0-.082.082-.327.082-.327l.572.082v.245c0 .082 0 .245-.082.245h-.163v.082l.327.082.163-1.144h-.081s-.082.163-.164.163-1.144-.163-1.226-.163c-.082 0-.082-.246-.082-.246h-.245v.409Zm-.245 1.063-.164.326h.082s0-.163.164-.081c.081 0 .899.245.899.245l-1.39.49h-.081s1.307.654 1.389.654c0 .082.082.327.082.327l.081.082.246-.572h-.082s0 .081-.164.081h-.163l-.981-.49 1.553-.49.164-.327h-.082s0 .163-.082.163-1.226-.245-1.308-.245c-.081 0-.163-.163-.163-.163Zm-.49 1.47v.164s-.327.164-.327.245c0 .082-.164.409.081.573a.765.765 0 0 0 .736 0c.163-.082.49-.164.572 0 .082.163 0 .326-.082.408-.081.082-.245.164-.327.164h-.327l.573.408.081-.081-.081-.164s.49-.327.572-.409c0-.081 0-.408-.245-.49-.164-.082-.409-.163-.573-.082-.163.082-.408.246-.49.246-.082 0-.409-.082-.245-.328.163-.163.327-.245.49-.163.164.082.245.082.245.082v-.082l-.653-.49Zm-.654.818-.899.98.327.328h.081v-.327c0-.082.409-.327.409-.327l.327.327s-.082.163-.164.245c-.081.082-.327 0-.327 0l.409.327v-.245c0-.082.245-.245.245-.245l.491.327-.082.081c-.082.082-.327.327-.49.327-.082.082-.164 0-.164 0l-.082.082.327.327.981-.981h-.082s-.163.082-.327 0c-.081-.082-.899-.736-.98-.817-.082-.164 0-.409 0-.409Zm-9.808-9.481h.327l-.164-.327h-.327l.164.327Zm-.573-.327-.326.572h.081s.082-.082.164 0c.081 0 .899.572.981.572.081 0 .081.082.081.082l-.081.082h.081l.327-.572-.082-.082-.163.163h-.245s-.736-.49-.736-.572c-.082 0-.082-.163-.082-.163l.082-.082h-.082Zm1.145-1.308v.082s-.164 0-.327.082c-.164.081-.327.327-.327.49 0 .164.245.327.572.327.327 0 .654 0 .736.082.081.081 0 .327-.246.327-.245 0-.408-.164-.408-.164v.082l.49.49v-.163s.164-.082.327-.082c.164 0 .245-.409.164-.572a.45.45 0 0 0-.409-.245c-.082 0-.736.082-.981-.082-.245-.163.327-.327.409-.327.081 0 .408.164.408.164V61.3l-.408-.409Zm1.144-.572c-.163.164-.327.49 0 .817.245.327.572.41.736.327.081-.081.163-.327 0-.735-.409-.327-.573-.49-.736-.409Zm-.163-.163c-.164.163-.573.654-.164 1.144.409.49.817.572 1.063.409.327-.164.408-.818.081-1.308-.327-.572-.817-.409-.98-.245Zm.98-.327h.164c0 .081.408 1.144.49 1.144 0 .082-.082.163-.082.163v.082l.409-.245v-.082h-.163c0-.081-.491-1.062-.491-1.144 0-.082.082-.163.082-.163v-.082l-.409.163v.164Zm.572-.245.164.408h.082s0-.327.081-.327c.082 0 .327-.081.327-.081s.246.98.246 1.062c.081.082 0 .163 0 .245l-.082.082v.082h.327c.081 0 .327-.082.327-.082v-.082s-.164 0-.164-.081c0-.164-.163-1.063-.163-1.145 0 0 .081-.081.163-.081s.245-.082.327 0c0 .081.082.245.082.245h.082l-.082-.409s-.572.082-.817.082c-.327-.082-.9.081-.9.081Z" fill="#231F20"/></g><path fill-rule="evenodd" clip-rule="evenodd" d="M79.465 76.912H62.79v-.246l2.452-1.389V58.93l-2.452-1.39v-.244h16.102l.326 5.149-.326.082s-2.616-2.698-3.188-3.188c-.572-.572-.98-.654-1.39-.817-.817-.245-1.634-.164-1.634-.164l-2.943-.081v8.173s3.106 0 3.433-.082c.49-.082.654-.082 1.308-.817.572-.572 1.39-1.717 1.39-1.717h.326v6.54h-.327s-1.634-2.371-1.798-2.453c-.081-.082-.327-.49-1.226-.49h-3.106v8.418s1.799 0 3.188-.082c1.39-.081 2.207-.163 3.106-.899.899-.817 3.351-3.596 3.351-3.596l.409.082-.327 5.558ZM228.875 71.353l-.408-.081s-2.452 2.86-3.351 3.596c-.9.817-1.717.817-3.106.899-1.472.163-3.188.082-3.188.082V67.43s2.289.082 3.106 0c.899 0 1.144.327 1.226.49.163.082 1.716 2.453 1.716 2.453h.327v-6.54h-.327s-.817 1.063-1.389 1.717c-.654.736-.817.736-1.308.818-.327 0-3.433.081-3.433.081v-8.255l2.943.082s.899 0 1.634.163c.327.164.818.327 1.39.818l3.188 3.187.326-.081-.326-5.15h-16.102v.246l2.452 1.39v16.346l-2.452 1.39v.245h16.674l.408-5.477ZM198.47 70.7l5.966-13.487h6.539v.327l-2.37 1.39v16.265l2.37 1.39v.245h-9.318v-.246l2.452-1.308V61.3l-7.029 15.284h-.899l-7.519-15.61v14.22l2.37 1.39v.245h-6.212v-.245l2.371-1.308V58.849l-2.371-1.308v-.327h7.029L198.47 70.7Z" fill="#100F0D"/><mask id="b" style="mask-type:luminance" maskUnits="userSpaceOnUse" x="230" y="56" width="14" height="22"><path d="M243.75 56.723h-13.486V77.73h13.486V56.723Z" fill="#fff"/></mask><g mask="url(#b)"><path fill-rule="evenodd" clip-rule="evenodd" d="m242.196 57.54.327 4.905h-.327s-3.351-3.597-3.76-3.923c-.245-.164-1.798-1.308-3.514-.082 0 0-1.635 1.144-.572 3.187 1.062 2.044 4.168 3.515 4.985 4.005.818.49 4.823 2.452 4.332 6.375-.49 3.76-3.841 4.823-5.231 5.068-2.942.572-7.519-.736-7.519-.736l-.327-5.067.409-.082s3.351 4.005 4.658 4.496c1.308.49 3.188.653 4.25-.736 1.063-1.39.164-3.351-.899-4.087-1.471-.98-3.759-2.207-5.312-3.187-1.717-1.145-2.779-2.861-3.024-4.66a5.344 5.344 0 0 1 3.269-5.639c1.88-.735 3.351-.572 4.74-.49 1.39.163 3.515.654 3.515.654Z" fill="#100F0D"/></g></svg>