<svg width="264" height="132" viewBox="0 0 264 132" fill="none" xmlns="http://www.w3.org/2000/svg"><g clip-path="url(#a)"><path d="M122.383 39.6c-4.923-.074-9.292 3.907-9.292 9.667v25.938c.005.933-.692 1.762-1.708 1.762h-8.108c-17.544.02-15.977-22.43-1.043-22.45 6.639-.01 8.96 0 8.96 0v-6.291h-9.278c-5.814.01-10.215 2.223-13.176 5.524-2.96 3.3-4.476 7.697-4.474 12.065.002 4.206 1.437 8.57 4.433 11.879 2.996 3.307 7.552 5.57 13.849 5.57h15.303c.885 0 1.635-.75 1.635-1.624V49.951c-.01-1.657.85-2.99 2.232-3.43 1.341-.427 2.813.129 3.7 1.391l.004.006.004.006c2.151 3.524 7.524 12.169 12.378 19.962 2.427 3.896 4.725 7.58 6.424 10.305l2.043 3.274.791 1.268c.358.506.809.696 1.184.578h.001c.213-.066.38-.216.506-.463.125-.247.199-.59.199-1.002v-31.89c-.005-1.652.849-2.987 2.236-3.426 1.332-.427 2.809.129 3.688 1.392l.003.005.003.005c2.156 3.522 7.532 12.167 12.387 19.96 4.852 7.789 9.191 14.737 9.259 14.845v.001c.351.503.83.703 1.23.577.217-.068.39-.221.519-.468.129-.247.206-.588.206-.996V39.795h-6.346v24.558s-3.93-6.664-10.63-18.167c-6.555-11.268-18.925-6.61-18.93 3.085v15.077s-3.836-6.669-10.531-18.171c-2.665-4.576-6.292-6.525-9.661-6.576Zm-19.323.195c-36.47-.004-36.123 51.954.492 51.977h14.306c6.157.005 10.111-3.647 10.106-10.377V68.234s8.024 13.304 11.173 18.511c5.357 8.854 18.321 7.113 18.288-3.947V68.243s8.024 13.299 11.177 18.514c5.357 8.851 18.322 7.108 18.289-3.954V39.795h-6.337V81.85c.005 1.988-1.109 3.099-2.171 3.435-1.295.413-2.704-.14-3.58-1.394l-.003-.005-.002-.004c-.182-.29-17.354-27.79-21.648-34.815-.356-.506-.878-.714-1.341-.568-.481.154-.786.663-.786 1.456V81.84c.005 1.996-1.09 3.103-2.147 3.444h-.002c-1.275.4-2.662-.15-3.532-1.404l-.002-.003-.002-.003a5185.37 5185.37 0 0 1-2.858-4.574c-1.703-2.73-4.003-6.416-6.431-10.313-4.854-7.791-10.216-16.418-12.36-19.93-.356-.506-.882-.71-1.346-.563-.486.154-.795.663-.79 1.45V81.64c0 2.034-1.668 3.692-3.704 3.692h-15.304c-6.962 0-12.061-2.528-15.406-6.235-3.345-3.708-4.938-8.584-4.943-13.282-.005-4.874 1.683-9.78 4.996-13.476 3.314-3.695 8.257-6.172 14.717-6.181h9.283v-6.363h-8.132Z" fill="#EC1C2E"/></g><defs><clipPath id="a"><path fill="#fff" transform="translate(75.898 39.6)" d="M0 0h110.993v52.8H0z"/></clipPath></defs></svg>