<svg width="60" height="38" viewBox="0 0 60 38" fill="none" xmlns="http://www.w3.org/2000/svg"><g clip-path="url(#a)"><path d="M.002 0v16.714h16.714V0H.002Zm11.654 11.787a2.79 2.79 0 0 1-1.213.928 4.987 4.987 0 0 1-1.895.323h-3.77v-9.38h3.524c1.042 0 1.838.208 2.407.625.568.417.853 1.023.853 1.8.018.417-.095.815-.304 1.156-.227.341-.53.606-.91.777.512.151.948.455 1.27.872.303.416.455.928.436 1.459a2.28 2.28 0 0 1-.398 1.44ZM9.27 7.2c.265-.227.416-.55.397-.91 0-.739-.511-1.118-1.516-1.118H6.71v2.331h1.44c.474.02.853-.095 1.119-.303Zm-.891 1.8H6.69v2.54H8.36c.568 0 1.004-.114 1.307-.323.304-.208.474-.55.455-.928 0-.872-.587-1.308-1.743-1.289ZM20.885 0v16.714h16.714V0H20.885Zm11.654 11.787a2.79 2.79 0 0 1-1.213.928 5.022 5.022 0 0 1-1.913.323H25.66v-9.38h3.525c1.042 0 1.838.208 2.426.625.568.417.852 1.023.852 1.8.02.417-.094.815-.303 1.156-.227.341-.53.606-.91.777.512.151.948.455 1.27.872.303.416.455.928.436 1.459a2.418 2.418 0 0 1-.417 1.44ZM30.151 7.2c.266-.227.417-.55.398-.91 0-.739-.511-1.118-1.516-1.118h-1.44v2.331h1.44c.474.02.853-.095 1.118-.303Zm-.89 1.8h-1.687v2.54h1.668c.568 0 1.004-.114 1.307-.323.304-.208.474-.55.455-.928 0-.872-.568-1.308-1.743-1.289Zm12.507 7.713h16.714V0H41.768v16.714Zm11.995-4.264a5.79 5.79 0 0 1-1.345.512c-.53.133-1.08.19-1.61.19a5.683 5.683 0 0 1-2.029-.323 4.437 4.437 0 0 1-1.535-.947c-.416-.436-.758-.948-.947-1.516a6.046 6.046 0 0 1-.341-2.009 5.329 5.329 0 0 1 .341-1.97c.227-.57.55-1.081.985-1.517a4.456 4.456 0 0 1 1.554-.966 6.156 6.156 0 0 1 2.028-.341c.493 0 .985.056 1.478.151.455.095.89.266 1.289.474v1.838a4.436 4.436 0 0 0-1.175-.55 4.617 4.617 0 0 0-1.346-.189 3.55 3.55 0 0 0-1.648.36 2.407 2.407 0 0 0-1.043 1.042 3.357 3.357 0 0 0-.36 1.668 3.402 3.402 0 0 0 .36 1.668c.228.454.588.814 1.024 1.042a3.473 3.473 0 0 0 1.63.36c.947 0 1.875-.265 2.69-.758v1.781Z" fill="#000"/><path d="M18.724 34.982h7.296v2.615H15.578v-14.63h10.063v2.616h-6.917v3.183h6.14v2.615h-6.14v3.6ZM43.834 22.968h3.374a262.454 262.454 0 0 1-1.82 7.39 314.166 314.166 0 0 1-2.008 7.239h-3.336c-.928-3.278-1.8-6.595-2.652-9.892a291.54 291.54 0 0 1-2.616 9.892h-3.335a314.166 314.166 0 0 1-2.008-7.239 233.62 233.62 0 0 1-1.82-7.39h3.43c.341 1.895.701 3.79 1.08 5.684.38 1.896.777 3.753 1.213 5.59.91-3.543 1.782-7.086 2.596-10.65h3.07a397.822 397.822 0 0 0 2.578 10.423c.416-1.819.814-3.657 1.193-5.476.38-1.857.72-3.714 1.061-5.572ZM59.202 33.295c0 .967-.246 1.8-.72 2.483-.474.682-1.175 1.213-2.066 1.573-.91.36-1.99.55-3.26.55-.795 0-1.61-.096-2.387-.266a8.48 8.48 0 0 1-2.255-.834v-2.824a8.75 8.75 0 0 0 4.643 1.327c.929 0 1.63-.152 2.122-.474a1.47 1.47 0 0 0 .72-1.307c0-.417-.113-.758-.36-.986a2.31 2.31 0 0 0-.947-.568 15.327 15.327 0 0 0-1.327-.398c-.72-.17-1.44-.38-2.122-.663a6.283 6.283 0 0 1-1.554-.872 3.35 3.35 0 0 1-.966-1.213 3.991 3.991 0 0 1-.322-1.686c0-.929.227-1.725.7-2.388a4.4 4.4 0 0 1 1.99-1.535c.853-.36 1.876-.55 3.07-.55.777 0 1.535.095 2.293.266a8.623 8.623 0 0 1 2.028.72v2.785a7.942 7.942 0 0 0-2.028-.852 8.431 8.431 0 0 0-2.274-.304c-.834 0-1.478.152-1.933.436-.435.247-.7.72-.682 1.232-.019.341.095.663.322.91.266.246.588.436.929.55.398.15.871.283 1.421.416.701.17 1.346.38 1.933.587.569.19 1.1.474 1.592.815a3.38 3.38 0 0 1 1.061 1.251c.246.474.379 1.08.379 1.82ZM12.68 22.968v14.629H9.495a759.485 759.485 0 0 0-3.222-5.117 448.353 448.353 0 0 0-3.221-4.983v10.1H.002v-14.63h3.184c1.099 1.65 2.179 3.298 3.259 4.965a454.986 454.986 0 0 1 3.203 5.041V22.968h3.032Z" fill="#EB0000"/></g><defs><clipPath id="a"><path fill="#fff" d="M0 0h59.2v37.9H0z"/></clipPath></defs></svg>