<svg width="126" height="30" viewBox="0 0 126 30" fill="none" xmlns="http://www.w3.org/2000/svg"><g clip-path="url(#a)"><path d="M1.986 0A1.987 1.987 0 0 0 .002 1.984v25.732c0 1.093.891 1.984 1.984 1.984h47.65V0H1.987Z" fill="#fff"/><path d="M1.986 29.7h47.971v-.617H1.986A1.366 1.366 0 0 1 .62 27.715V1.984C.62 1.236 1.226.63 1.986.63h47.971V0H1.986A1.987 1.987 0 0 0 .002 1.984v25.744c0 1.081.891 1.972 1.984 1.972Z" fill="#9D9D9C"/><path d="M49.957 0H1.986A1.987 1.987 0 0 0 .002 1.984V20.28c0-.689.226-1.306.618-1.805V1.984c0-.748.606-1.366 1.354-1.366h47.972V0" fill="#B2B2B2"/><path d="M123.991 0h-74.56v29.7h74.56a1.985 1.985 0 0 0 1.983-1.971V1.985A1.994 1.994 0 0 0 123.991 0Z" fill="#AB0000"/><path d="M33.417 26.422c.321.166.974.356 1.794.38 1.402.023 2.174-.511 2.745-1.77L45.523 8.15c-.309-.166-.998-.356-1.568-.368-.974-.024-2.281.178-3.113 2.174l-2.447 5.785-4.811-7.829a6.937 6.937 0 0 0-1.616-.225c-1.699 0-2.637.63-3.623 1.699l-4.67 5.108 3.755 5.916c.689 1.081 1.604 1.628 3.1 1.628.975 0 1.782-.226 2.163-.392l-4.538-6.843 3.207-3.398 5.263 8.257-3.208 6.76Zm-9.931-6.392c0 1.247-.488 1.96-2.923 1.96l-.867-.06V5.419c0-1.248.428-2.566 2.875-2.566l.903.095V20.03m-5.002-2.483c0 2.317-1.52 4.016-4.597 4.348-2.234.238-5.465-.047-6.998-.226l-.107-.807c0-2.032 1.093-2.495 2.127-2.495 1.07 0 2.756.178 4.003.178 1.379 0 1.794-.463 1.794-.915 0-.582-.558-.82-1.627-1.033l-2.923-.559c-2.435-.463-3.73-2.15-3.73-3.932 0-2.162 1.533-3.992 4.562-4.324 2.28-.25 5.06.024 6.593.225l.084.785c0 2.02-1.07 2.459-2.091 2.459-.784 0-2.02-.143-3.422-.143-1.425 0-2.02.392-2.02.88 0 .498.57.712 1.462.867l2.792.522c2.875.535 4.098 2.162 4.098 4.17Z" fill="#000"/><path d="M123.991 0h-74.56v15.41l76.543-3.114v-10.3a1.982 1.982 0 0 0-1.983-1.995Z" fill="#CB0002"/><path d="M108.109 21.123c-.143-1.152.225-1.758.843-1.758.642 0 2.257.749 4.538.749 2.424 0 3.351-.891 3.351-2.056 0-.784-.345-1.449-2.543-2.055l-2.483-.689c-2.661-.725-3.73-2.055-3.73-3.73 0-2.02 1.616-3.897 5.322-3.897 1.675 0 3.754.404 5.002.891.118 1.129-.226 1.735-.808 1.735-.582 0-2.115-.69-4.158-.69-2.257 0-3.089.809-3.089 1.878 0 .689.321 1.33 2.34 1.912l2.519.69c2.78.807 3.932 2.114 3.932 3.896 0 2.139-1.699 4.051-5.69 4.051-1.83 0-4.051-.404-5.346-.927ZM106.254 8.21l-3.695 12.675c-.225.784-.807.986-1.615.986-.464 0-.927-.083-1.33-.202L96.06 10.395l-3.35 10.49c-.261.808-.867.986-1.616.986-.463 0-.95-.083-1.354-.202L85.809 8.21c.32-.178.89-.344 1.413-.344.606 0 .95.202 1.129.808l2.827 10.632h.024L94.695 8.21c.38-.202.89-.344 1.414-.344.867 0 1.33.225 1.592 1.045l3.231 10.395h.035l2.745-10.632c.178-.606.487-.808 1.128-.808.523 0 1.105.166 1.414.344ZM84.37 15.777H73.62c.344 2.685 2.221 4.218 5.001 4.218 1.188 0 2.115-.261 2.982-.547.582-.201.89-.32 1.129-.32.582 0 1.01.546.867 1.794-1.212.546-3.09 1.128-5.05 1.128-4.3 0-7.258-2.922-7.258-7.223 0-4.134 3.089-7.14 6.879-7.14 4.253 0 6.332 3.374 6.332 6.677-.012.427-.048.89-.131 1.413ZM73.632 13.9h8.637c-.083-2.364-1.615-4.253-4.099-4.253-2.197 0-4.17 1.474-4.538 4.253ZM68.668 13.58v7.424c0 .547-.285.868-1.188.868-.38 0-.808-.06-1.046-.12v-7.887c0-2.828-1.413-4.194-3.469-4.194-1.651 0-3.41 1.152-4.134 2.483v8.838c0 .547-.285.868-1.188.868-.404 0-.843-.06-1.045-.12V8.009c.202-.06.641-.143 1.045-.143.891 0 1.188.345 1.188.867V9.92C59.841 8.71 61.373 7.7 63.452 7.7c2.852-.012 5.216 1.806 5.216 5.88ZM13.086 16.62c.369.07.666.142.915.237h.012a5.768 5.768 0 0 0-.927-.238Zm2.246-3.006c.012 0 .012 0 .023.012 0-.012-.011-.012-.023-.012Zm-.048-.024c.012 0 .024.012.024.012-.012 0-.024 0-.024-.012Zm-.071-.012c.012 0 .024.012.036.012 0 0-.024-.012-.036-.012Zm-.06-.024c.012 0 .036.012.048.012-.012 0-.036 0-.048-.012Zm-.13-.023a.422.422 0 0 0 .119.023c-.036-.011-.072-.023-.12-.023Zm-.119-.036c.024 0 .036.012.048.012-.012-.012-.024-.012-.048-.012Zm-.261-.06c.083.024.166.036.25.06a1.29 1.29 0 0 0-.25-.06Zm-.06-.011c.024 0 .036.012.06.012-.024-.012-.036-.012-.06-.012Zm-.06-.012c.013 0 .037.012.048.012-.011-.012-.035-.012-.047-.012Zm-.059-.024c.012 0 .036.012.048.012-.024 0-.036 0-.048-.012Zm-2.376-2.269c-1.378.012-1.948.404-1.948.88 0 .51.57.712 1.461.866l2.792.523c.024 0 .036.012.06.012-.024-.012-.048-.012-.06-.012l-2.792-.523c-.89-.154-1.449-.368-1.449-.867-.012-.487.558-.867 1.937-.879Z" fill="#fff"/><path d="M13.003 7.71c-.63 0-1.247.023-1.83.083-.059.012-.118.012-.178.023-3.029.321-4.561 2.139-4.561 4.313 0 1.782 1.295 3.469 3.73 3.932l2.922.558c.369.072.678.143.927.238l4.396-.178c-.274-1.366-1.236-2.483-3.042-3.053-.012 0-.012 0-.023-.012-.012 0-.024-.012-.024-.012-.012 0-.024-.012-.024-.012s-.024 0-.024-.012c-.012 0-.023-.012-.035-.012h-.012c-.024 0-.036-.012-.048-.012h-.012c-.035-.011-.07-.023-.118-.023h-.012c-.012 0-.036-.012-.048-.012h-.012c-.012-.012-.035-.012-.047-.012h-.012c-.083-.024-.166-.036-.25-.06h-.011c-.024 0-.036-.011-.06-.011h-.012c-.012 0-.035-.012-.047-.012h-.024c-.012 0-.036-.012-.048-.012h-.011c-.024-.012-.036-.012-.06-.012l-2.792-.523c-.89-.154-1.46-.368-1.46-.867 0-.475.581-.855 1.947-.88h.072c1.402 0 2.625.155 3.421.155 1.034 0 2.091-.44 2.091-2.459l-.083-.784c-.024 0-.036 0-.06-.012-1.092-.13-2.78-.309-4.478-.309h-.048" fill="#3C3A38"/><path d="M31.976 7.674c-1.699 0-2.637.63-3.624 1.699.975-1.07 1.925-1.7 3.624-1.7.558 0 1.307.132 1.627.227l4.812 7.829 2.447-5.786c.808-1.913 2.043-2.174 3.006-2.174-.963 0-2.198.25-3.006 2.174l-2.447 5.786-4.812-7.83c-.32-.083-1.08-.225-1.627-.225Z" fill="#fff"/><path d="M31.976 7.674c-1.699 0-2.637.63-3.624 1.699l-4.668 5.108 1.223 1.925 4.218-.179-.95-1.437 3.195-3.386 2.946 4.633 7.83-.32L45.53 8.16c-.309-.166-.998-.356-1.568-.368h-.107c-.962 0-2.198.25-3.006 2.174l-2.447 5.785-4.811-7.829c-.31-.107-1.07-.25-1.616-.25ZM22.578 2.863c-2.46 0-2.875 1.307-2.875 2.566v11.203l3.79-.155V2.957l-.915-.094Z" fill="#3C3A38"/></g><defs><clipPath id="a"><path fill="#fff" d="M0 0h125.976v29.7H0z"/></clipPath></defs></svg>