<svg width="264" height="132" viewBox="0 0 264 132" fill="none" xmlns="http://www.w3.org/2000/svg"><g clip-path="url(#a)"><path d="M56.872 47.85a2.43 2.43 0 0 0-2.425 2.425v31.45a2.43 2.43 0 0 0 2.425 2.425h58.24v-36.3h-58.24Z" fill="#fff"/><path d="M56.872 84.15h58.632v-.755H56.872a1.67 1.67 0 0 1-1.67-1.67v-31.45c0-.915.74-1.655 1.67-1.655h58.632v-.77H56.872a2.43 2.43 0 0 0-2.425 2.425V81.74a2.426 2.426 0 0 0 2.425 2.41Z" fill="#9D9D9C"/><path d="M115.504 47.85H56.872a2.43 2.43 0 0 0-2.425 2.425v22.36c0-.841.276-1.597.755-2.206V50.275c0-.915.74-1.67 1.656-1.67h58.631v-.755" fill="#B2B2B2"/><path d="M205.995 47.85h-91.128v36.3h91.128a2.426 2.426 0 0 0 2.425-2.41V50.275a2.439 2.439 0 0 0-2.425-2.425Z" fill="#AB0000"/><path d="M95.293 80.142c.392.203 1.19.436 2.192.465 1.714.029 2.658-.625 3.355-2.164l9.249-20.633c-.378-.203-1.22-.435-1.917-.45-1.19-.029-2.788.218-3.804 2.657l-2.991 7.072-5.88-9.569c-.378-.116-1.308-.276-1.975-.276-2.077 0-3.224.77-4.429 2.077l-5.706 6.243 4.588 7.231c.842 1.321 1.96 1.99 3.79 1.99 1.19 0 2.178-.277 2.642-.48l-5.546-8.363 3.92-4.153 6.432 10.091-3.92 8.262ZM83.154 72.33c0 1.525-.595 2.396-3.572 2.396l-1.06-.072V54.47c0-1.525.523-3.136 3.514-3.136l1.104.116v20.88m-6.113-3.035c0 2.831-1.859 4.907-5.62 5.314-2.73.29-6.679-.058-8.552-.276l-.13-.987c0-2.483 1.336-3.05 2.599-3.05 1.306 0 3.368.218 4.893.218 1.684 0 2.192-.566 2.192-1.118 0-.711-.682-1.002-1.989-1.263l-3.572-.682c-2.976-.567-4.559-2.628-4.559-4.806 0-2.643 1.873-4.88 5.576-5.286 2.788-.305 6.185.03 8.058.276l.102.958c0 2.469-1.307 3.006-2.556 3.006-.958 0-2.468-.174-4.181-.174-1.743 0-2.469.479-2.469 1.074 0 .61.697.872 1.786 1.06l3.412.64c3.514.653 5.01 2.642 5.01 5.096Z" fill="#000"/><path d="M205.995 47.85h-91.128v18.832l93.553-3.804V50.29a2.423 2.423 0 0 0-2.425-2.44Z" fill="#CB0002"/><path d="M186.582 73.666c-.174-1.408.276-2.148 1.031-2.148.784 0 2.759.914 5.547.914 2.962 0 4.095-1.089 4.095-2.512 0-.958-.422-1.771-3.108-2.512l-3.034-.842c-3.253-.886-4.56-2.512-4.56-4.56 0-2.468 1.975-4.762 6.505-4.762 2.048 0 4.589.494 6.113 1.09.145 1.379-.276 2.12-.987 2.12-.712 0-2.585-.843-5.082-.843-2.759 0-3.775.988-3.775 2.294 0 .843.392 1.627 2.86 2.338l3.078.842c3.398.988 4.806 2.585 4.806 4.763 0 2.613-2.076 4.951-6.955 4.951-2.236 0-4.951-.494-6.534-1.133ZM184.315 57.883l-4.516 15.493c-.276.958-.987 1.205-1.974 1.205a5.868 5.868 0 0 1-1.627-.247l-4.341-13.78-4.095 12.822c-.319.987-1.06 1.205-1.974 1.205a6.079 6.079 0 0 1-1.656-.247l-4.806-16.451c.392-.218 1.089-.421 1.728-.421.741 0 1.162.247 1.379.987l3.456 12.996h.029l4.269-13.562a3.797 3.797 0 0 1 1.728-.421c1.06 0 1.626.276 1.946 1.278l3.949 12.705h.044l3.354-12.996c.218-.74.595-.987 1.379-.987.639 0 1.351.203 1.728.421ZM157.569 67.132h-13.141c.421 3.282 2.715 5.155 6.113 5.155 1.452 0 2.584-.32 3.644-.668.712-.247 1.089-.392 1.38-.392.711 0 1.234.668 1.06 2.193-1.481.668-3.775 1.38-6.171 1.38-5.256 0-8.872-3.573-8.872-8.83 0-5.052 3.775-8.726 8.407-8.726 5.198 0 7.739 4.124 7.739 8.16a13.185 13.185 0 0 1-.159 1.728Zm-13.127-2.294h10.557c-.102-2.89-1.975-5.198-5.01-5.198-2.686 0-5.096 1.8-5.547 5.198ZM138.375 64.446v9.075c0 .668-.348 1.06-1.452 1.06a5.96 5.96 0 0 1-1.277-.145v-9.641c0-3.456-1.728-5.126-4.24-5.126-2.019 0-4.167 1.409-5.053 3.035v10.803c0 .668-.349 1.06-1.452 1.06-.494 0-1.031-.073-1.278-.145V57.635a5.188 5.188 0 0 1 1.278-.174c1.089 0 1.452.421 1.452 1.06v1.452c1.234-1.48 3.107-2.715 5.648-2.715 3.485-.015 6.374 2.207 6.374 7.187ZM70.44 68.163c.45.087.813.174 1.118.29h.014c-.305-.116-.682-.203-1.132-.29Zm2.744-3.674c.015 0 .015 0 .03.015 0-.015-.015-.015-.03-.015Zm-.058-.029c.014 0 .029.015.029.015-.014 0-.029 0-.029-.015Zm-.087-.014c.014 0 .029.014.043.014 0 0-.029-.014-.043-.014Zm-.073-.03c.015 0 .044.015.058.015-.014 0-.043 0-.058-.014Zm-.16-.028c.044.014.102.029.146.029-.044-.015-.087-.03-.145-.03Zm-.145-.044c.03 0 .044.015.058.015-.014-.015-.029-.015-.058-.015Zm-.32-.072c.103.029.204.043.306.072a1.562 1.562 0 0 0-.305-.072Zm-.072-.015c.03 0 .044.015.073.015-.03-.015-.044-.015-.073-.015Zm-.072-.014c.014 0 .043.014.058.014-.015-.014-.044-.014-.058-.014Zm-.073-.03c.015 0 .044.015.058.015-.029 0-.043 0-.058-.014ZM69.22 61.44c-1.684.015-2.381.494-2.381 1.075 0 .624.697.87 1.786 1.06l3.412.638c.029 0 .044.015.073.015-.03-.014-.058-.014-.073-.014l-3.412-.64c-1.09-.188-1.772-.45-1.772-1.06-.014-.595.683-1.06 2.367-1.074Z" fill="#fff"/><path d="M70.338 57.273c-.77 0-1.524.029-2.236.102-.073.014-.145.014-.218.029-3.702.392-5.575 2.613-5.575 5.27 0 2.178 1.582 4.24 4.559 4.807l3.572.682c.45.087.827.174 1.132.29l5.373-.218c-.334-1.67-1.51-3.034-3.717-3.731-.015 0-.015 0-.03-.015-.014 0-.028-.014-.028-.014-.015 0-.03-.015-.03-.015s-.028 0-.028-.014c-.015 0-.03-.015-.044-.015h-.015c-.029 0-.043-.014-.058-.014h-.014c-.044-.015-.087-.03-.145-.03h-.015c-.014 0-.043-.014-.058-.014h-.014c-.015-.014-.044-.014-.059-.014h-.014c-.102-.03-.203-.044-.305-.073h-.015c-.029 0-.043-.014-.072-.014h-.015c-.014 0-.043-.015-.058-.015h-.029c-.014 0-.043-.014-.058-.014h-.014c-.03-.015-.044-.015-.073-.015l-3.412-.639c-1.09-.189-1.786-.45-1.786-1.06 0-.58.711-1.045 2.381-1.074h.087c1.714 0 3.21.189 4.182.189 1.263 0 2.555-.538 2.555-3.006l-.101-.959c-.03 0-.044 0-.073-.014-1.336-.16-3.397-.377-5.474-.377h-.058" fill="#3C3A38"/><path d="M93.53 57.23c-2.077 0-3.224.77-4.43 2.076 1.192-1.307 2.353-2.076 4.43-2.076.682 0 1.597.16 1.989.275l5.88 9.57 2.991-7.072c.988-2.338 2.498-2.657 3.674-2.657-1.176 0-2.686.305-3.674 2.657l-2.991 7.071-5.88-9.569c-.392-.101-1.322-.276-1.99-.276Z" fill="#fff"/><path d="M93.53 57.23c-2.077 0-3.224.77-4.43 2.076l-5.706 6.243 1.496 2.353 5.155-.218-1.162-1.757 3.906-4.138 3.6 5.663 9.57-.392 4.138-9.235c-.378-.204-1.22-.436-1.917-.45h-.131c-1.176 0-2.686.305-3.673 2.657l-2.991 7.071-5.88-9.569c-.378-.13-1.308-.304-1.975-.304ZM82.04 51.349c-3.006 0-3.515 1.597-3.515 3.136v13.693l4.632-.19V51.466l-1.118-.116Z" fill="#3C3A38"/></g><defs><clipPath id="a"><path fill="#fff" transform="translate(54.451 47.85)" d="M0 0h153.97v36.3H0z"/></clipPath></defs></svg>