<svg width="264" height="132" viewBox="0 0 264 132" fill="none" xmlns="http://www.w3.org/2000/svg"><g clip-path="url(#a)"><path d="M68.992 26v35.693h35.694V26H68.992ZM93.88 51.17c-.647.89-1.578 1.579-2.59 1.983a10.656 10.656 0 0 1-4.046.688H79.19V33.81h7.528c2.225 0 3.925.445 5.139 1.336 1.214.89 1.821 2.185 1.821 3.844.04.89-.202 1.74-.647 2.469a4.555 4.555 0 0 1-1.943 1.659A5.31 5.31 0 0 1 93.8 44.98c.647.89.97 1.983.93 3.116.081 1.092-.243 2.185-.85 3.075Zm-5.099-9.793c.567-.486.89-1.174.85-1.943 0-1.578-1.092-2.387-3.237-2.387h-3.076v4.977h3.076c1.011.04 1.82-.202 2.387-.647Zm-1.902 3.844h-3.601v5.423h3.56c1.215 0 2.146-.243 2.793-.688a2.235 2.235 0 0 0 .972-1.983c0-1.861-1.255-2.792-3.724-2.752ZM113.59 26v35.693h35.693V26h-35.693Zm24.888 25.171c-.647.89-1.578 1.579-2.59 1.983a10.728 10.728 0 0 1-4.087.688h-8.013V33.81h7.527c2.226 0 3.926.445 5.18 1.336 1.214.89 1.821 2.185 1.821 3.844.041.89-.202 1.74-.647 2.469a4.556 4.556 0 0 1-1.943 1.659 5.31 5.31 0 0 1 2.712 1.862c.647.89.971 1.983.93 3.116a5.162 5.162 0 0 1-.89 3.075Zm-5.099-9.793c.567-.486.89-1.174.85-1.943 0-1.578-1.093-2.387-3.238-2.387h-3.075v4.977h3.075c1.012.04 1.821-.202 2.388-.647Zm-1.902 3.844h-3.602v5.423h3.561c1.215 0 2.145-.243 2.793-.688a2.234 2.234 0 0 0 .971-1.983c0-1.861-1.214-2.792-3.723-2.752Zm26.709 16.471h35.694V26h-35.694v35.693Zm25.617-9.105c-.89.485-1.902.85-2.873 1.092a14.266 14.266 0 0 1-3.44.405 12.14 12.14 0 0 1-4.33-.688 9.478 9.478 0 0 1-3.278-2.023c-.891-.931-1.619-2.024-2.024-3.238a12.927 12.927 0 0 1-.728-4.29c-.041-1.456.243-2.873.728-4.208.486-1.214 1.174-2.307 2.105-3.238a9.514 9.514 0 0 1 3.318-2.064 13.146 13.146 0 0 1 4.33-.728c1.052 0 2.105.121 3.157.324.971.202 1.902.566 2.752 1.011v3.926c-.769-.526-1.619-.89-2.509-1.174a9.863 9.863 0 0 0-2.874-.404c-1.214-.04-2.428.242-3.52.768-.972.486-1.741 1.295-2.226 2.226-.567 1.093-.81 2.307-.769 3.562-.041 1.213.202 2.468.769 3.56a5.048 5.048 0 0 0 2.185 2.227c1.093.526 2.266.809 3.48.768 2.024 0 4.007-.566 5.747-1.618v3.804Z" fill="#000"/><path d="M108.974 100.705h15.58v5.584h-22.298V75.047h21.489v5.585h-14.771v6.799h13.112v5.585h-13.112v7.689ZM162.6 75.047h7.204a559.94 559.94 0 0 1-3.885 15.783 672.607 672.607 0 0 1-4.29 15.459h-7.123c-1.982-7-3.844-14.083-5.665-21.124a622.538 622.538 0 0 1-5.585 21.124h-7.122a667.564 667.564 0 0 1-4.29-15.459 498.575 498.575 0 0 1-3.885-15.783h7.325a632.068 632.068 0 0 0 2.307 12.141 343.158 343.158 0 0 0 2.59 11.938 887.442 887.442 0 0 0 5.544-22.743h6.556a851.335 851.335 0 0 0 5.503 22.258c.891-3.885 1.741-7.81 2.55-11.696.809-3.966 1.538-7.932 2.266-11.898ZM195.417 97.103c0 2.064-.526 3.845-1.538 5.302-1.011 1.457-2.509 2.59-4.411 3.359-1.942.769-4.249 1.173-6.96 1.173-1.7 0-3.44-.202-5.099-.566a18.143 18.143 0 0 1-4.816-1.781v-6.03a18.683 18.683 0 0 0 9.915 2.833c1.983 0 3.48-.324 4.532-1.012a3.14 3.14 0 0 0 1.538-2.792c0-.89-.243-1.619-.769-2.104a4.929 4.929 0 0 0-2.023-1.215 32.787 32.787 0 0 0-2.833-.85c-1.538-.364-3.076-.809-4.533-1.416a13.43 13.43 0 0 1-3.318-1.861c-.89-.688-1.578-1.579-2.064-2.59a8.526 8.526 0 0 1-.688-3.602c0-1.983.486-3.683 1.497-5.099 1.093-1.497 2.55-2.63 4.25-3.278 1.821-.769 4.006-1.174 6.556-1.174 1.659 0 3.278.203 4.896.567 1.498.324 2.954.85 4.33 1.538v5.949c-1.335-.81-2.832-1.417-4.33-1.821a17.992 17.992 0 0 0-4.856-.648c-1.781 0-3.157.324-4.128.93a2.892 2.892 0 0 0-1.457 2.631c-.04.729.203 1.417.688 1.943.567.526 1.255.93 1.983 1.173.85.324 1.862.607 3.035.89 1.498.365 2.874.81 4.128 1.255 1.214.405 2.347 1.012 3.4 1.74a7.22 7.22 0 0 1 2.266 2.671c.526 1.012.809 2.307.809 3.885ZM96.066 75.047v31.242h-6.799a1622.516 1622.516 0 0 0-6.88-10.926 956.04 956.04 0 0 0-6.88-10.644v21.57h-6.515V75.047h6.799a956.655 956.655 0 0 1 6.96 10.603c2.307 3.561 4.573 7.163 6.84 10.765V75.047h6.475Z" fill="#EB0000"/></g><defs><clipPath id="a"><path fill="#fff" transform="translate(69 26)" d="M0 0h126.424v80.938H0z"/></clipPath></defs></svg>