<svg width="160" height="26" viewBox="0 0 160 26" fill="none" xmlns="http://www.w3.org/2000/svg"><g clip-path="url(#a)"><path d="M25.705 22.694c1.077-.705 2.117-1.522 2.117-3.157V9.286l-1.634-1.709-.631.632 1.41 1.485V19.5c0 1.374-.482 2.377-1.336 3.046l.074.148ZM19.428 1.003v.111c.483.186 1.04.669 1.04 1.597V17.83l-.594.594 2.265 1.931.669-.557-1.82-1.486.334-.297V2.86c0-1.188-1.077-1.783-1.894-1.857Zm1.374 22.731c2.897-.223 5.757-1.188 5.757-4.271V9.806l-1.3-1.3-1.448 1.411v7.243l1.188 1.077-2.748 2.452h-.26l-2.674-2.303.742-.706V2.897c0-1.114-.928-1.708-1.523-1.82v-.26c.26-.148.67-.223 1.19-.223.928 0 1.782.557 2.042 1.152h.074C22.4.929 23.291.594 24.145.557c.26 0 .557.037.854.112v.297c-.482.148-1.188.743-1.188 2.191v6.129l3.566-3.417h.26c.26.26 1.82 1.671 2.117 1.857.148.074.334.148.482.148.298 0 .483-.111.743-.222v.37c-.297.26-.631.744-.631 1.338v8.357c0 3.715-4.049 5.943-9.546 6.352v-.335Zm16.455-16.12-.706.52c.817.966 1.894 2.229 2.934 3.38l.743-.52c-1.077-1.151-2.117-2.414-2.971-3.38Zm-.855 5.943 2.675-1.82c-.93-1.077-1.895-2.154-2.675-3.046v4.866Zm1.746 6.166c-1.597-.743-3.046-1.3-4.346-2.006.075-.483.112-1.04.112-2.6V9.063l-.855.446v5.645c0 1.56-.037 2.563-.148 3.009 1.263.706 3.045 1.448 4.68 2.154l.557-.594ZM32.614 9.249c1.597-.78 3.974-2.192 5.571-3.343h.297c1.04 1.077 2.563 2.823 3.863 3.974v.297l-5.943 3.863v2.377c.632.372 2.34 1.263 3.38 1.597l2.377-2.303.297.298-4.79 4.642h-.298c-1.597-.705-3.714-1.597-5.052-2.34.15-.482.298-1.745.298-3.268V9.249Zm121.643 13.408c1.077-.706 2.117-1.523 2.117-3.157V9.25l-1.635-1.709-.631.631 1.411 1.486v9.806c0 1.374-.52 2.377-1.337 3.046 0 .037.075.148.075.148ZM148.017.966l-.038.111c.483.186 1.078.669 1.078 1.597v15.08l-.595.595 2.266 1.931.669-.557-1.82-1.486.334-.297V2.823c-.037-1.189-1.114-1.783-1.894-1.857Zm1.337 22.731c2.897-.223 5.757-1.188 5.757-4.271V9.769l-1.3-1.338-1.449 1.412v7.243l1.189 1.077-2.749 2.451h-.26l-2.711-2.303.743-.705V2.86c0-1.114-.929-1.708-1.523-1.82V.78c.26-.149.668-.223 1.188-.223.929 0 1.783.557 2.043 1.152h.075c.557-.818 1.448-1.152 2.302-1.189.26 0 .558.037.855.111V.93c-.483.148-1.152.742-1.152 2.191v6.166l3.566-3.417h.26c.26.26 1.82 1.671 2.117 1.857.149.074.334.148.52.148.297 0 .52-.111.743-.222v.52c-.297.26-.631.742-.631 1.337v8.245c0 3.715-4.049 5.943-9.546 6.352l-.037-.409ZM72.431 7.614l-.706.52c.817.966 1.894 2.229 2.934 3.38l.743-.52c-1.04-1.151-2.117-2.451-2.971-3.38Zm-.78 5.906 2.674-1.82c-.928-1.077-1.894-2.154-2.674-3.046v4.866Zm1.708 6.166c-1.597-.743-3.045-1.3-4.345-2.006.074-.483.111-1.04.111-2.6V9.026l-.854.446v5.645c0 1.56-.037 2.563-.149 3.009 1.263.705 3.046 1.448 4.68 2.154l.557-.594ZM67.862 9.21c1.597-.78 3.975-2.19 5.572-3.342h.297c1.04 1.077 2.563 2.822 3.863 3.974v.297l-5.943 3.863v2.377c.594.372 2.34 1.263 3.38 1.597l2.377-2.303.297.298-4.791 4.642h-.297c-1.635-.705-3.715-1.597-5.052-2.34.149-.483.297-1.708.297-3.268V9.21ZM82.571 19.65c-1.077-.297-2.154-1.003-2.154-2.489V3.64l-1.19-1.226-.63.632.965 1.003v13.445c0 1.523 1.226 2.489 2.377 2.786l.632-.631Zm.371-17.16v14.3c0 .594.595 1.188 1.152 1.3l.854-.855.26.297-3.046 3.12h-.148c-1.152-.26-2.823-1.3-2.823-3.082V4.272l-.855-.855-.89.892-.26-.298L80.601.557h.223l2.117 1.932Zm8.209 5.125-.706.52c.817.966 1.894 2.229 2.934 3.38l.743-.52c-1.04-1.188-2.117-2.451-2.971-3.38Zm-.817 5.906 2.674-1.82c-.929-1.077-1.894-2.154-2.674-3.046v4.866Zm1.708 6.166c-1.597-.743-3.046-1.3-4.346-2.006.075-.483.112-1.04.112-2.6V9.026l-.854.446v5.645c0 1.56-.037 2.563-.149 3.009 1.263.705 3.046 1.448 4.68 2.154l.557-.594ZM86.545 9.21c1.597-.78 3.974-2.19 5.572-3.342h.297c1.04 1.077 2.563 2.822 3.862 3.974v.297l-5.905 3.863v2.377c.594.372 2.34 1.263 3.38 1.597l2.377-2.303.297.298-4.828 4.642h-.298c-1.597-.705-3.714-1.597-5.051-2.34.148-.483.297-1.708.297-3.268V9.21Zm30.049-.668c.483.446 1.151 1.077 1.708 1.56l.557-.631c-.52-.483-1.337-1.152-1.708-1.56-.037-.038-.557.63-.557.63Zm-1.449 11.106c-1.114-.297-2.154-1.003-2.154-2.489V8.99L111.839 7.8l-.668.631.966 1.003v8.098c0 1.522 1.225 2.488 2.377 2.785l.631-.668Zm.334-9.843v7.02c0 .631.558 1.151 1.152 1.263l.854-.817.26.297-3.046 3.12h-.185c-1.152-.26-2.786-1.3-2.786-3.083V9.583l-.854-.854-.892.891-.297-.297 3.417-3.454h.26l2.155 2.117v1.151l2.748-3.268h.26c.557.557 1.412 1.374 2.154 1.931v.037l-2.302 2.749h-.038a52.078 52.078 0 0 1-1.968-1.82c-.074.037-.892 1.04-.892 1.04Zm11.812 7.54V13c-.854-.223-1.746-.594-2.6-1.003v5.386l1.523.928 1.077-.965Zm3.454 2.34c-1.04-.372-2.154-1.152-2.154-2.6v-7.54l-4.123-2.08c-.111.074-.594.408-.743.52l3.974 2.08v7.317c0 1.411 1.3 2.489 2.378 2.897l.668-.594Zm-3.454-7.132V10.29l-3.9-2.043c-.297.223-1.337.854-1.672 1.04.929 1.226 3.343 2.711 5.572 3.268Zm-2.34 7.057-2.749-1.82v-4.048l-.817.631v3.937l2.934 1.97c0-.038.632-.67.632-.67Zm-.706 1.04-3.306-2.19v-4.31c.818-.594 2.563-1.782 3.38-2.377-1.3-.705-2.414-1.56-3.082-2.377V9.1c1.968-1.114 3.38-2.154 4.568-3.231h.26s4.049 1.931 4.272 2.005c.222.112.371.186.594.186.297 0 .52-.074.817-.223v.446a1.546 1.546 0 0 0-.631 1.263v7.243c0 .742.668 1.262 1.151 1.374l.854-.854.26.297-3.045 3.12h-.186c-1.189-.334-2.526-1.486-2.749-2.823l-2.934 2.86c-.037-.074-.223-.074-.223-.112Zm-20.057-3.305V9.843l-2.749-1.189v8.543l1.709 1.152 1.04-1.003Zm1.3-8.357-4.049-1.709v.891l3.158 1.375v8.245c0 1.783.78 3.715 1.968 5.2l.632-.63c-1.04-1.375-1.746-2.898-1.746-4.68l.037-8.692Zm-4.346 11.254.669-.594-2.897-1.858v-8.84l-.817.595V18.2l3.045 2.043Zm-1.151 3.491c-1.077 0-2.006.483-2.563 1.226v.149c.631-.372 1.374-.595 2.563-.595 1.411 0 3.231.409 4.271.966l.557-.669c-1.225-.594-2.971-1.077-4.828-1.077Zm-2.34-5.348v-9.1l4.828-3.38h.298c.928.408 4.048 1.708 4.42 1.894.148.037.334.112.52.112.297 0 .594-.112.928-.26v.52c-.297.26-.668.817-.668 1.262v7.726c0 1.82.371 2.86 1.114 3.603v.297c-1.077 1.077-3.529 3.603-4.606 4.94h-.186c-1.04-.594-2.822-1.04-4.271-1.04-1.077 0-2.266.297-3.194 1.003l-.223-.186c.817-1.931 2.6-3.9 4.866-3.9 1.411 0 3.268.595 4.828 1.449-1.077-1.226-2.043-3.492-2.08-5.386l-2.86 2.749h-.223l-3.491-2.303Zm43.16-10.103 1.486 1.449v7.948l.854-.483V9.286l-1.672-1.672-.668.669Zm.594 12.22c.149-.223.446-.52.594-.706l-2.934-.631v.817l2.34.52Zm.446-2.823V9.843l-1.3-1.337-1.449 1.374v7.243c.632.148 2.415.483 2.749.557Zm-6.092 5.386-.594.557 2.192 1.894.668-.594-1.708-1.449.297-.297V9.063l-1.226-1.226-.594.595.965 1.002v13.632Zm3.306-13.78 3.566-3.38h.26c.26.26 1.894 1.708 2.154 1.894.149.074.334.112.483.112.297 0 .52-.112.743-.223v.482c-.297.223-.632.743-.632 1.338v8.728c-1.522.372-2.748 1.189-4.048 2.712h-.112l-2.377-.483v1.931l1.226 1.115-2.897 2.414h-.149l-2.711-2.303.743-.78V19.61c-.297-.074-.855-.148-1.115-.222v-.409c.335-.149 1.189-.966 1.189-1.671V9.62l-.854-.854-.892.891-.297-.297 3.417-3.454h.26l2.155 2.117-.112 1.263ZM8.508 13.52 8.47 9.732l-.854.594v3.528c0 .372-.075.706-.186.966h.111c.52-.334.966-.854.966-1.3ZM4.125 7.577C2.9 8.803 1.748 10.511 1.748 12.666c0 5.125 3.454 7.726 7.837 7.726 2.711 0 4.643-1.486 5.757-2.6l-.074-.112c-1.263 1.04-3.009 1.857-5.683 1.857-3.528 0-6.946-2.154-6.946-6.908 0-1.857.706-3.715 1.598-4.977l-.112-.075Zm9.397-2.005c-3.268 0-6.24-1.598-8.617-1.598-1.523 0-3.306.632-3.937 2.415l.111.037C1.785 5.2 3.457 4.79 4.905 4.79c2.377 0 5.349 1.635 8.617 1.635 2.637 0 4.16-.892 4.42-3.009l-.148-.037c-.372 1.597-1.635 2.192-4.272 2.192Zm-12.22 7.094c0-3.492 2.637-5.906 5.089-6.983l.186.223c-.892 1.04-1.523 2.043-1.523 4.16 0 2.414.631 4.085 1.634 5.2.334-.372.52-.966.52-1.486v-3.603l4.42-3.157.186.26c-.372.557-.595 1.077-.595 1.931v2.303c0 1.598-2.637 3.343-4.271 4.012 1.077 1.04 2.6 1.486 4.271 1.486.595 0 1.152-.038 1.635-.112V6.76c-1.449-.074-2.823-.483-4.086-.817C7.43 5.534 6.057 5.2 4.905 5.2 3.122 5.2.968 5.794.931 8.394c0 .223.037.483.074.743l-.334.112C.374 8.43.188 7.65.188 6.87c-.037-3.12 2.266-5.868 5.98-5.868 1.56 0 3.046.371 4.308.743 1.375.408 2.75.743 4.16.743.706 0 1.115-.372 1.115-1.04 0-.669-.372-.966-.892-1.115L14.934 0c1.597.297 3.342 1.226 3.342 3.232 0 2.414-1.745 3.565-4.717 3.565h-.297v10.029c1.932-.372 3.232-1.263 4.197-2.823l.297.186c-1.077 3.417-3.602 6.685-8.134 6.685-4.568-.037-8.32-2.711-8.32-8.208Zm55.64.854-.037-3.788-.854.594v3.528c0 .372-.075.706-.186.966h.111c.558-.334.966-.854.966-1.3Zm-4.346-5.943c-1.225 1.226-2.377 2.934-2.377 5.089 0 5.163 3.455 7.726 7.837 7.726 2.712 0 4.643-1.486 5.72-2.6l-.074-.112c-1.263 1.04-3.008 1.857-5.645 1.857-3.53 0-6.946-2.154-6.946-6.908 0-1.895.668-3.752 1.56-5.015l-.075-.037Zm9.398-2.005c-3.269 0-6.24-1.598-8.617-1.598-1.523 0-3.306.632-3.938 2.415l.112.037c.706-1.226 2.377-1.635 3.825-1.635 2.378 0 5.35 1.635 8.618 1.635 2.637 0 4.16-.892 4.42-3.009l-.149-.037c-.371 1.597-1.634 2.192-4.271 2.192Zm-12.22 7.094c0-3.492 2.637-5.906 5.088-6.983l.149.223c-.892 1.04-1.523 2.043-1.523 4.16 0 2.414.631 4.085 1.634 5.2.334-.372.52-.966.52-1.486v-3.603l4.42-3.157.186.26c-.409.557-.594 1.077-.594 1.931v2.303c0 1.598-2.638 3.343-4.272 4.012 1.077 1.04 2.6 1.486 4.272 1.486.594 0 1.151-.038 1.634-.112V6.76c-1.449-.074-2.823-.483-4.049-.817-1.337-.409-2.711-.743-3.862-.743-1.783 0-3.938.594-3.975 3.194 0 .223.037.483.037.743l-.334.112c-.297-.818-.483-1.598-.483-2.378-.037-3.157 2.266-5.905 5.98-5.905 1.56 0 3.046.371 4.309.743 1.374.371 2.748.742 4.16.742.706 0 1.114-.37 1.114-1.04 0-.668-.334-1.002-.854-1.15l.037-.335c1.597.297 3.343 1.226 3.343 3.231 0 2.415-1.746 3.566-4.68 3.566h-.297v10.029c1.931-.372 3.231-1.263 4.197-2.823l.297.185c-1.077 3.418-3.603 6.686-8.134 6.686-4.569.037-8.32-2.637-8.32-8.134Z" fill="#000"/></g><defs><clipPath id="a"><path fill="#fff" d="M0 0h159.714v26H0z"/></clipPath></defs></svg>