<svg width="93" height="38" viewBox="0 0 93 38" fill="none" xmlns="http://www.w3.org/2000/svg"><g clip-path="url(#a)"><path fill-rule="evenodd" clip-rule="evenodd" d="M33.108.212c.86-.08 1.72-.166 2.584-.215-.057 1.955-.013 3.912-.028 5.868.008.193-.03.403.07.578.147.12.341.157.498.264l-.044.141c-.53.094-1.065.156-1.597.239-.25.03-.502.104-.755.052-.013-.212-.012-.425-.016-.637-.292.252-.606.501-.985.604-.658.187-1.442.014-1.886-.527-.428-.514-.53-1.215-.507-1.862.011-.81.303-1.674.979-2.167.677-.486 1.581-.633 2.386-.442-.008-.39.023-.784-.016-1.172-.04-.402-.686-.32-.683-.724Zm-.481 2.47c-.208.34-.254.748-.286 1.136-.034.558-.036 1.122.063 1.673.058.289.171.609.447.757.3.155.65.084.957-.01V2.926c.027-.225-.143-.422-.335-.513a.688.688 0 0 0-.846.27ZM13.273.59c1.173-.01 2.346 0 3.519-.006l.014.223c-.204.057-.43.066-.613.18-.125.134-.1.337-.113.506-.002 1.578-.002 3.157 0 4.735.002.175.018.411.217.476.294.072.604.055.903.016.198-.026.341-.182.442-.343.384-.6.646-1.265.912-1.923.063 0 .188 0 .25-.002-.058.873-.123 1.744-.185 2.615-1.783-.002-3.566.008-5.348-.005.006-.075.011-.15.018-.224.261-.063.666-.11.64-.471.028-1.599.004-3.198.012-4.797-.014-.188.02-.41-.11-.566-.16-.116-.364-.135-.548-.19l-.01-.224Zm8.112 1.455c.8-.084 1.664.108 2.27.66.788.72.92 1.932.598 2.906-.23.715-.858 1.254-1.576 1.443-.953.257-2.073.132-2.829-.544-.523-.464-.764-1.175-.765-1.86-.007-.646.165-1.322.608-1.809.428-.48 1.063-.732 1.694-.796Zm.14.344c-.208.057-.315.27-.374.461-.119.397-.133.814-.153 1.225-.008.669-.014 1.341.08 2.006.04.214.086.445.235.613.168.17.435.16.654.13.275-.043.38-.343.429-.58.132-.715.109-1.447.099-2.17-.035-.473-.033-.969-.235-1.408-.117-.28-.466-.36-.734-.277Zm6.685-.321c.415-.085.892-.061 1.231.22.292.24.4.632.398.998.004 1.028-.003 2.055.002 3.083.01.115.002.27.126.33.141.07.297.103.448.15l-.013.22c-.964-.006-1.93.006-2.895-.007l.014-.219c.135-.041.278-.068.4-.142.079-.118.064-.268.071-.402-.002-.886.001-1.772-.001-2.658.003-.229-.046-.524-.296-.608-.282-.078-.582-.029-.865.017.004 1.082 0 2.164.002 3.247.004.13-.004.27.056.392.127.084.28.116.422.166l-.008.213c-.96-.003-1.92.002-2.88-.002l.016-.228c.166-.05.349-.077.488-.19.064-.13.054-.279.059-.42a850.13 850.13 0 0 1 0-2.945c-.007-.14.006-.293-.06-.422-.159-.227-.482-.297-.583-.571.811-.11 1.628-.202 2.445-.25.008.253.005.508.006.763.428-.32.884-.632 1.417-.735Zm10.278-.02c.786-.09 1.634.088 2.246.61.752.632.934 1.714.74 2.635-.109.522-.387 1.016-.815 1.34-.6.46-1.393.598-2.132.526-.686-.066-1.373-.37-1.803-.923-.415-.525-.548-1.221-.498-1.876.036-.577.241-1.16.651-1.579.422-.435 1.016-.668 1.611-.732Zm.146.35c-.272.102-.353.421-.408.678-.128.735-.101 1.487-.082 2.232.027.433.025.892.228 1.287.144.271.5.274.764.22.28-.075.357-.397.407-.644.12-.763.093-1.539.072-2.308-.03-.41-.049-.84-.233-1.215-.127-.276-.483-.342-.748-.25Zm6.68-.33c.414-.085.892-.06 1.23.22.293.24.4.632.398.998.002 1.003 0 2.006 0 3.01.012.137-.017.327.129.403.14.07.296.103.446.15l-.012.22c-.964-.006-1.93.006-2.894-.006l.014-.22c.134-.041.277-.068.4-.141.08-.118.064-.269.07-.404 0-.886.002-1.772 0-2.657.003-.229-.047-.524-.296-.607-.282-.079-.582-.03-.865.016.005 1.082 0 2.165.001 3.247.004.131-.004.27.056.392.128.084.28.116.423.166l-.007.213c-.96-.002-1.92.002-2.88-.002.003-.077.01-.152.015-.228.165-.05.35-.077.487-.19.063-.13.055-.279.06-.42a722.61 722.61 0 0 1 0-2.945c-.007-.14.006-.293-.06-.422-.16-.226-.481-.297-.582-.57.81-.113 1.627-.202 2.444-.252.007.254.004.51.006.764.427-.32.884-.632 1.417-.735Zm6.05 2.242c.735-.13 1.562.03 2.107.568.807.779.737 2.272-.171 2.945-.847.623-2.121.611-2.95-.04-.811-.641-.917-1.955-.268-2.746.317-.393.79-.638 1.281-.727ZM-.025 5.67c3.992-.006 7.983-.002 11.975-.002.057 1.625.133 3.248.187 4.872-.142-.03-.368.076-.445-.09-.466-1.07-.956-2.14-1.628-3.098-.336-.488-.867-.84-1.462-.902a7.582 7.582 0 0 0-2.208.073c-.006 1.986-.003 3.972-.001 5.957.576-.007 1.16.031 1.728-.081.266-.047.524-.188.655-.432.372-.65.59-1.375.78-2.096l.393.001v6.02l-.39.003c-.18-.733-.399-1.464-.752-2.134a.924.924 0 0 0-.647-.492c-.58-.124-1.18-.09-1.769-.096 0 1.81-.004 3.622.003 5.432.01.35.03.79.37.99.368.197.802.18 1.208.192.555-.007 1.14.004 1.65-.249.353-.18.602-.503.818-.826.797-1.212 1.4-2.541 1.921-3.892l.434-.003c-.097 1.902-.198 3.804-.298 5.706-4.174-.001-8.35.005-12.523-.002l.006-.37c.39-.111.804-.166 1.164-.359.373-.263.322-.782.35-1.185.008-3.58.002-7.16.004-10.742-.01-.381.008-.773-.108-1.142A.63.63 0 0 0 1 6.326C.668 6.2.319 6.133-.022 6.039l-.002-.369ZM77.37 9.605c.645-.627 1.448-1.185 2.376-1.232.52-.037 1.123.125 1.395.609.242.46.232 1.068-.066 1.501-.291.402-.85.452-1.3.357-.28-.056-.481-.292-.582-.55-.112-.247-.184-.578-.478-.666-.357-.102-.694.12-.984.297.503.387 1.01.804 1.302 1.382.427.786.324 1.758-.02 2.554-.46 1.04-1.483 1.72-2.549 2.024-1.538.435-3.205.331-4.712-.173-.176.287-.329.612-.3.957a.472.472 0 0 0 .256.388c.273.14.589.12.887.122 1.43 0 2.862-.005 4.293.003.883.017 1.817.137 2.56.653.522.352.857.934.971 1.547.194 1.053-.002 2.19-.602 3.085-.543.823-1.374 1.421-2.272 1.807-1.287.553-2.707.717-4.097.683-.934-.024-1.878-.087-2.78-.345-.505-.15-1.014-.376-1.367-.78-.483-.55-.513-1.43-.086-2.02.58-.81 1.614-1.077 2.549-1.22-.558-.183-1.145-.374-1.567-.805-.612-.597-.719-1.556-.48-2.346.257-.84.911-1.49 1.633-1.957-.712-.375-1.364-.956-1.613-1.744-.306-.974-.166-2.097.414-2.945.56-.824 1.478-1.336 2.424-1.589 1.581-.412 3.307-.282 4.795.403Zm-3.313.023c-.324.102-.461.451-.524.755-.14.703-.123 1.423-.134 2.136.011.734-.002 1.479.153 2.2.069.32.223.686.568.784.355.085.825.07 1.044-.27.224-.358.246-.796.29-1.205.05-.883.048-1.77.01-2.653-.028-.4-.061-.805-.183-1.188-.077-.245-.235-.494-.496-.568a1.314 1.314 0 0 0-.728.01ZM72.19 20.766c-.296.433-.33.98-.35 1.488-.024.529.072 1.115.476 1.492.493.46 1.203.552 1.85.58.895.008 1.824-.05 2.65-.427.529-.237.99-.693 1.098-1.279.102-.502.048-1.108-.355-1.469-.38-.324-.905-.386-1.386-.409-.883-.01-1.766-.001-2.649-.004-.444.019-.896-.038-1.334.028ZM26.244 9.824c1.215-.72 2.67-.968 4.065-.814 1.166.101 2.362.526 3.15 1.426.907 1.023 1.2 2.438 1.225 3.77-2.32-.003-4.64 0-6.962 0 .038 1.01.111 2.059.563 2.983.269.558.736 1.025 1.316 1.255.674.274 1.418.307 2.136.288.872-.05 1.764-.24 2.5-.733-.014.174.049.383-.086.524-1.145 1.46-3.007 2.289-4.852 2.258-1.375-.008-2.818-.316-3.9-1.213-1.01-.823-1.56-2.088-1.74-3.356-.176-1.276-.136-2.62.359-3.825a5.277 5.277 0 0 1 2.226-2.563Zm2.238.09c-.296.325-.429.757-.53 1.175-.182.829-.212 1.68-.229 2.526.955-.065 1.91-.14 2.866-.212.002-.89-.003-1.788-.164-2.667-.083-.392-.214-.846-.598-1.047-.434-.205-1.016-.143-1.345.225Zm14.414-.813c.944-.215 2.025-.218 2.848.357.73.503 1.04 1.418 1.05 2.273.01 2.433-.003 4.867.006 7.301.012.268 0 .609.257.774.32.182.693.24 1.043.344l.009.37c-2.212.007-4.425.006-6.637 0l.008-.37c.297-.087.619-.122.883-.291.22-.182.185-.5.202-.756.003-2.17.003-4.341 0-6.512-.007-.404-.063-.861-.38-1.15-.314-.277-.761-.265-1.154-.255a6.305 6.305 0 0 0-1.137.12c-.001 2.577-.006 5.153.003 7.73.022.281-.025.644.229.837.265.154.577.194.867.285-.003.121-.004.243-.005.365-2.202 0-4.404.005-6.606-.002l.007-.371c.334-.099.685-.16.995-.324.276-.156.275-.514.285-.79v-7.232c-.005-.312.023-.634-.072-.936-.072-.216-.256-.363-.43-.497-.288-.213-.584-.416-.87-.63 0-.054.003-.16.004-.214 1.786-.188 3.572-.38 5.359-.556l.15.13c.003.553-.004 1.104.005 1.655.934-.7 1.922-1.395 3.081-1.655Zm21.04.067c.845-.236 1.78-.306 2.612.022a2.345 2.345 0 0 1 1.352 1.43c.265.723.175 1.503.192 2.258v6.015c.018.315-.029.732.281.925.32.174.688.225 1.031.34-.003.121-.004.243-.004.365-2.21 0-4.42.003-6.63 0 .02-.123-.041-.278.047-.378.271-.093.568-.12.819-.268.223-.153.213-.456.228-.697.004-2.197.001-4.394.001-6.592-.01-.397-.064-.845-.367-1.134-.264-.248-.648-.276-.991-.272-.44.004-.88.035-1.31.123-.001 2.599-.004 5.199.001 7.798.015.265-.014.612.24.78.26.142.56.187.844.266l.009.372c-2.203.007-4.406.001-6.609.002 0-.121-.002-.243-.004-.365.34-.115.71-.164 1.026-.345.262-.165.248-.511.26-.783.006-2.458.001-4.915.003-7.373-.005-.253.005-.51-.06-.757-.068-.24-.274-.403-.465-.546l-.84-.604a10.323 10.323 0 0 1-.018-.217c1.736-.197 3.475-.364 5.212-.55.125-.04.221.05.318.112-.006.554-.008 1.108.002 1.66.864-.648 1.767-1.29 2.82-1.587Zm-15.59.363c1.808-.194 3.62-.365 5.428-.55.116-.03.21.046.306.098-.118 1.813-.081 3.63-.087 5.445.002 1.505-.003 3.009.003 4.513.013.274.006.624.275.784.31.17.664.229 1 .327l.008.375c-2.267 0-4.533.004-6.799-.002l.007-.371c.334-.099.686-.16.996-.325.253-.14.273-.46.283-.716.004-2.507 0-5.013.002-7.52-.002-.24-.004-.487-.08-.717-.08-.23-.28-.385-.467-.526-.289-.21-.583-.415-.87-.628l-.006-.187Zm-35.863-.283c2.488-.006 4.975 0 7.463-.002l.009.363c-.424.171-.981.194-1.243.62-.2.468-.04.994.115 1.451.637 1.674 1.245 3.359 1.9 5.025.543-1.485 1.024-2.993 1.546-4.486.171-.508.354-1.023.386-1.562a.685.685 0 0 0-.262-.609c-.3-.233-.681-.31-1.036-.427l-.008-.373c1.26-.004 2.521-.004 3.782 0l-.002.37c-.335.121-.688.25-.927.529-.362.42-.561.946-.771 1.451a9688.71 9688.71 0 0 0-3.464 8.925c-.653-.003-1.306.011-1.96-.006l-.048-.023c-1.326-3.09-2.634-6.19-3.958-9.282-.184-.398-.351-.816-.641-1.15-.224-.255-.565-.342-.874-.442l-.007-.372ZM50.865 21.79c1.829-.156 3.656-.315 5.485-.472a.665.665 0 0 1 .41.071c-.11 1.741-.074 3.486-.08 5.229.002 2.933-.002 5.867.002 8.8.014.312-.013.699.263.912.294.2.648.28.973.413.001.095.002.191.005.288-1.674.243-3.347.485-5.02.73-.166.044-.341-.069-.42-.205-.025-.45.008-.901-.017-1.35-.462.397-.922.81-1.47 1.086-1.061.572-2.358.628-3.49.242-.905-.307-1.665-.983-2.112-1.824-.598-1.11-.738-2.406-.69-3.648.053-1.307.36-2.645 1.119-3.73.633-.92 1.586-1.596 2.637-1.956.947-.329 1.96-.44 2.958-.395.345.015.68.1 1.011.198 0-.784.002-1.567-.001-2.35-.007-.26-.004-.529-.11-.77-.087-.191-.273-.306-.446-.408-.336-.191-.678-.369-1.012-.562l.005-.299Zm-.819 5.183c-.414.385-.616.938-.754 1.474-.242.992-.279 2.02-.282 3.037.008.939.042 1.894.316 2.798.164.548.47 1.1.998 1.368.657.333 1.441.243 2.104-.03.005-2.621-.003-5.242.003-7.862-.006-.108.01-.223-.046-.32-.192-.365-.502-.7-.917-.797-.489-.11-1.048-.022-1.422.332Zm35.392-5.182c1.851-.16 3.703-.32 5.554-.478.124-.03.236.035.343.088-.115 1.69-.075 3.383-.082 5.074.002 2.981-.002 5.963.002 8.945.013.31-.011.692.259.907.293.2.645.282.972.413 0 .098.002.195.006.292-1.693.243-3.385.494-5.078.735-.138.025-.241-.091-.343-.162-.057-.462.002-.933-.03-1.4-.415.35-.817.722-1.294.988-1.279.765-2.96.78-4.266.073-.979-.533-1.634-1.525-1.93-2.58-.35-1.243-.352-2.564-.147-3.83.204-1.21.72-2.397 1.614-3.257.963-.946 2.292-1.437 3.617-1.578.789-.075 1.607-.102 2.367.158-.014-.927.026-1.857-.025-2.783-.01-.317-.215-.585-.493-.722-.347-.201-.705-.383-1.051-.585l.005-.298Zm-.155 4.841c-.438.085-.797.4-1.015.778-.342.588-.476 1.266-.569 1.93-.132 1.043-.137 2.097-.089 3.146.052.75.14 1.515.444 2.21.199.458.555.873 1.038 1.04.62.229 1.306.13 1.906-.116.008-2.62-.001-5.241.005-7.862.039-.348-.23-.624-.456-.852-.339-.306-.832-.356-1.264-.274ZM3.514 22.806c.967-.338 2.002-.432 3.02-.386 1.138.052 2.293.197 3.347.651.07 1.362.145 2.723.213 4.084-.154 0-.307-.001-.46-.005-.44-.973-.84-1.986-1.509-2.83-.449-.55-1.021-1.053-1.733-1.205-.676-.14-1.424-.111-2.03.247-1.07.63-1.166 2.365-.204 3.135.588.494 1.316.776 2.025 1.047 1.244.437 2.502.927 3.54 1.76.696.556 1.244 1.322 1.44 2.2a4.966 4.966 0 0 1-.745 3.859c-.647.952-1.634 1.642-2.715 2.018-1.252.45-2.607.445-3.916.347-1.128-.083-2.252-.27-3.33-.61-.106-1.53-.19-3.061-.285-4.593l.449-.003c.461.91.92 1.826 1.502 2.667.371.544.802 1.067 1.367 1.421.761.49 1.71.632 2.595.49.575-.094 1.157-.363 1.487-.863.358-.538.348-1.231.213-1.84-.134-.59-.563-1.069-1.083-1.357-.986-.556-2.103-.797-3.144-1.223-.986-.403-1.973-.944-2.617-1.82-.566-.76-.761-1.728-.767-2.66a4.435 4.435 0 0 1 .805-2.705c.614-.868 1.538-1.482 2.535-1.826Zm12.007.453c.362-.012.724-.008 1.086-.004v2.994c.913 0 1.827-.002 2.741 0-.055.386-.116.77-.17 1.155-.856.006-1.713 0-2.57.003v6.939c.008.402-.013.833.183 1.198.141.264.447.371.727.403.63.072 1.264-.012 1.88-.14-.02.148.04.328-.076.445a4.243 4.243 0 0 1-1.822 1.253c-.835.29-1.742.328-2.615.22-.695-.087-1.413-.349-1.86-.913-.518-.651-.63-1.518-.647-2.324-.004-2.36-.002-4.72 0-7.08-.372-.003-.743 0-1.114-.002v-.5c1.769-.678 3.436-1.898 4.257-3.647Zm7.357 2.89c1.082-.184 2.185-.209 3.278-.148.97.085 2.003.269 2.766.921.578.487.85 1.25.86 1.991.008 2.074-.005 4.148.006 6.22.015.344.012.757.302.999.322.248.745.288 1.136.33-.015.142.033.325-.11.418-.766.678-1.824.907-2.822.899-.708-.002-1.469-.143-2.007-.636-.245-.212-.38-.51-.538-.784-.312.34-.634.678-1.036.914-.78.476-1.732.574-2.624.468-.713-.09-1.433-.374-1.906-.933-.496-.57-.648-1.37-.561-2.105.054-.497.254-.982.599-1.348.494-.54 1.188-.833 1.869-1.064 1.144-.36 2.311-.64 3.466-.964-.013-1.02.025-2.041-.03-3.06-.036-.456-.07-.946-.336-1.334-.259-.35-.758-.366-1.145-.267-.266.068-.384.353-.409.603-.076.684-.06 1.433-.467 2.024-.326.458-.94.526-1.458.518-.543-.008-1.175-.135-1.485-.63-.392-.67-.187-1.586.386-2.09.621-.562 1.46-.793 2.266-.942Zm1.442 6.299c-.319.181-.468.545-.53.89a5.326 5.326 0 0 0-.013 1.69c.048.285.13.577.308.811.316.43 1.031.431 1.39.057.096-.082.076-.215.082-.327-.004-1.12-.002-2.24 0-3.359-.416.051-.864.02-1.237.238Zm6.678-5.924c1.745-.176 3.49-.364 5.235-.543.1-.019.185.053.274.09.014.559-.006 1.12.011 1.68.938-.696 1.923-1.392 3.082-1.65.966-.218 2.082-.216 2.906.404.7.52.985 1.42.988 2.262.009 2.41-.002 4.82.005 7.23.012.287-.005.66.283.825.318.17.682.224 1.022.335 0 .12 0 .24.003.36-2.212.015-4.424.006-6.635.005l.005-.369c.29-.09.606-.125.871-.285.225-.166.203-.481.217-.731.006-2.147 0-4.295.002-6.442-.002-.399-.03-.836-.29-1.16-.227-.276-.605-.354-.944-.352-.48-.009-.96.03-1.43.12-.016 2.588-.003 5.176-.007 7.765.019.266-.015.6.212.791.264.167.585.204.88.292 0 .124 0 .247.002.371-2.202.004-4.403.003-6.604.001 0-.124.001-.249.003-.372.343-.106.713-.16 1.026-.346.263-.175.237-.531.255-.809.005-2.483.003-4.966.003-7.448-.011-.329.003-.71-.252-.958-.335-.327-.759-.545-1.112-.851a1.716 1.716 0 0 1-.011-.215Zm29.898-.308c1.116-.237 2.264-.27 3.401-.229.848.054 1.719.178 2.477.585.5.267.923.692 1.14 1.22.166.395.23.827.23 1.255.001 2.03-.006 4.057.003 6.086.015.344.015.756.303.999.321.248.745.285 1.135.329-.015.143.033.327-.111.42-.766.677-1.825.906-2.823.898-.707-.003-1.469-.144-2.006-.637-.244-.212-.379-.51-.537-.783-.312.34-.635.679-1.036.914-.78.476-1.733.574-2.626.468-.711-.09-1.432-.374-1.905-.933-.566-.66-.688-1.605-.502-2.433.127-.565.489-1.057.957-1.39.627-.447 1.372-.682 2.104-.892.938-.259 1.876-.513 2.816-.766-.008-.912.012-1.825-.013-2.736-.029-.514-.04-1.054-.27-1.525-.137-.292-.457-.453-.77-.45-.264-.003-.593.014-.745.265-.166.288-.133.634-.173.952-.056.533-.125 1.112-.48 1.54-.308.355-.806.428-1.25.438-.5.005-1.048-.057-1.438-.4-.357-.318-.44-.84-.367-1.293.067-.465.347-.878.717-1.159.513-.396 1.144-.602 1.77-.743Zm1.583 6.389c-.367.413-.378 1.003-.403 1.526.008.579.02 1.215.367 1.708.256.355.767.402 1.145.236.169-.081.358-.227.327-.438V32.21c-.49.058-1.062.012-1.436.395Zm6.877-6.08c1.745-.177 3.49-.364 5.235-.544.1-.019.185.053.274.089.017.59-.007 1.183.015 1.774.636-.722 1.376-1.41 2.314-1.706.666-.212 1.467-.24 2.052.198.54.408.677 1.148.596 1.785-.053.524-.306 1.048-.758 1.34-.535.343-1.236.36-1.824.152-.435-.16-.715-.56-.898-.967-.098-.2-.217-.465-.478-.46-.325-.008-.682.073-.923.302-.015 2.502-.003 5.005-.006 7.508.02.311 0 .733.329.895.33.143.695.166 1.043.242-.002.129-.003.26-.002.39-2.294.002-4.587.002-6.88 0l.001-.372c.345-.106.713-.159 1.027-.344.265-.175.24-.533.257-.81.005-2.484.002-4.968.002-7.451-.01-.329.006-.714-.253-.96-.337-.324-.76-.542-1.11-.848a2.187 2.187 0 0 1-.013-.213Z" fill="#141313"/></g><defs><clipPath id="a"><path fill="#fff" d="M0 0h92.477v38H0z"/></clipPath></defs></svg>