<svg width="264" height="132" viewBox="0 0 264 132" fill="none" xmlns="http://www.w3.org/2000/svg"><g clip-path="url(#a)"><path d="M44.707 63.383h1.309c2.832 0 4.72-.307 5.663-.921.943-.617 1.416-1.705 1.416-3.262 0-1.674-.503-2.856-1.514-3.541-1.007-.688-2.863-1.029-5.565-1.029h-1.309v8.753Zm-.322 4.184v14.097H39.6V50.25h7.724c2.288 0 3.971.127 5.053.378 1.081.25 2.021.661 2.822 1.232.986.732 1.757 1.714 2.316 2.952.56 1.238.836 2.601.836 4.088s-.277 2.862-.836 4.118c-.559 1.26-1.33 2.246-2.316 2.961-.801.575-1.741.98-2.822 1.223-1.08.246-2.764.366-5.053.366h-2.94Zm44.167-1.545c0-1.589-.289-3.097-.866-4.528a11.737 11.737 0 0 0-2.5-3.818 11.05 11.05 0 0 0-3.68-2.543 11.164 11.164 0 0 0-4.411-.89c-1.545 0-3.013.294-4.41.878a11.25 11.25 0 0 0-3.723 2.555 11.343 11.343 0 0 0-2.488 3.796 12.158 12.158 0 0 0-.857 4.55c0 1.588.286 3.09.857 4.506a11.637 11.637 0 0 0 2.488 3.8 11.285 11.285 0 0 0 3.714 2.551c1.388.587 2.86.88 4.42.88 1.53 0 2.985-.293 4.367-.88a11.577 11.577 0 0 0 3.723-2.552 11.793 11.793 0 0 0 2.5-3.808 11.85 11.85 0 0 0 .867-4.497m5.322 0c0 2.233-.417 4.343-1.256 6.33-.835 1.987-2.054 3.763-3.658 5.323a17.193 17.193 0 0 1-5.47 3.581 16.753 16.753 0 0 1-6.395 1.244c-2.26 0-4.417-.418-6.468-1.253a16.746 16.746 0 0 1-5.44-3.572c-1.603-1.56-2.82-3.327-3.649-5.302-.829-1.975-1.243-4.091-1.243-6.352 0-2.245.414-4.361 1.243-6.351.83-1.988 2.046-3.77 3.65-5.341a16.638 16.638 0 0 1 5.449-3.563c2.032-.814 4.182-1.223 6.458-1.223 2.26 0 4.401.409 6.425 1.223a16.663 16.663 0 0 1 5.44 3.563c1.603 1.588 2.822 3.378 3.658 5.375a16.13 16.13 0 0 1 1.256 6.318Zm4.54 15.643V50.252h5.104v26.842h11.416v4.57l-16.52.001Zm19.43-31.412h5.107v31.412h-5.107V50.253Zm21.275 4.334v27.078h-5.107V54.586h-8.345v-4.334h21.758v4.334h-8.306Zm10.978-4.334h5.105v31.412h-5.105V50.253Zm36.338 7.639c-1.446-1.232-2.973-2.153-4.582-2.77a14.11 14.11 0 0 0-5.074-.922c-3.434 0-6.226 1.102-8.379 3.304-2.153 2.202-3.228 5.056-3.228 8.56 0 3.392 1.047 6.187 3.142 8.392 2.095 2.202 4.739 3.301 7.927 3.301 1.862 0 3.631-.328 5.311-.986 1.68-.657 3.296-1.652 4.84-2.982v5.771a15.088 15.088 0 0 1-4.484 2.212c-1.619.485-3.37.727-5.258.727-2.402 0-4.626-.393-6.663-1.179a15.427 15.427 0 0 1-5.375-3.477 15.43 15.43 0 0 1-3.529-5.308c-.823-2.039-1.235-4.21-1.235-6.514 0-2.303.412-4.466 1.235-6.49a15.611 15.611 0 0 1 3.572-5.332 15.75 15.75 0 0 1 5.363-3.508c2.018-.795 4.199-1.191 6.545-1.191 1.846 0 3.607.267 5.28.805 1.674.538 3.296 1.348 4.871 2.435l-.279 5.152Zm31.898 8.13c0-1.589-.292-3.097-.87-4.528a11.73 11.73 0 0 0-2.5-3.818 11.06 11.06 0 0 0-3.68-2.543 11.163 11.163 0 0 0-4.41-.89c-1.546 0-3.013.294-4.411.878a11.25 11.25 0 0 0-3.722 2.555 11.38 11.38 0 0 0-2.488 3.796 12.147 12.147 0 0 0-.857 4.55c0 1.588.285 3.09.857 4.506a11.672 11.672 0 0 0 2.488 3.8 11.28 11.28 0 0 0 3.713 2.551c1.388.587 2.86.88 4.42.88 1.53 0 2.985-.293 4.368-.88a11.57 11.57 0 0 0 3.722-2.552 11.78 11.78 0 0 0 3.37-8.305m5.32 0c0 2.233-.418 4.343-1.256 6.33-.836 1.987-2.055 3.763-3.658 5.323a17.199 17.199 0 0 1-5.47 3.581 16.757 16.757 0 0 1-6.395 1.244c-2.261 0-4.417-.418-6.469-1.253a16.72 16.72 0 0 1-5.439-3.572c-1.604-1.56-2.82-3.327-3.649-5.302-.829-1.975-1.244-4.091-1.244-6.352 0-2.245.415-4.361 1.244-6.351.829-1.988 2.046-3.77 3.649-5.341a16.64 16.64 0 0 1 5.449-3.563c2.033-.814 4.187-1.223 6.459-1.223 2.261 0 4.402.409 6.426 1.223a16.655 16.655 0 0 1 5.439 3.563c1.604 1.588 2.823 3.378 3.658 5.375a16.122 16.122 0 0 1 1.257 6.318" fill="#CF1C23"/></g><defs><clipPath id="a"><path fill="#fff" transform="translate(39.6 49.5)" d="M0 0h184.055v33H0z"/></clipPath></defs></svg>