<svg width="383" height="200" viewBox="0 0 383 200" fill="none" xmlns="http://www.w3.org/2000/svg"><path d="M282.091 94.307c1.19-1.402 1.293-2.782 1.403-4.111.266-3.212.412-6.435.643-9.65.02-.285.304-.55.464-.826.198.276.444.53.583.834.087.193.015.458.012.69l-.075 11.576c0 .36 0 .723.07 1.086.442-2.721.771-5.468 1.358-8.157.537-2.461 1.182-4.925 2.083-7.27 1.238-3.218 3.58-4.185 6.843-3a23.178 23.178 0 0 1 4.232 2.02c3.052 1.876 6.22 2.139 9.604 1.147a68.776 68.776 0 0 1 5.537-1.347 4.953 4.953 0 0 1 2.161.045c.424.11.974.634 1.022 1.027.045.368-.404.974-.793 1.184-.753.405-1.597.683-2.438.874-7.329 1.665-13.622 5.303-19.355 10.025a150.022 150.022 0 0 1-4.22 3.365c-.587.448-.672.906-.185 1.407.717.739 1.418 1.522 2.249 2.113a72.027 72.027 0 0 0 6.358 4.061c-.874-.971-1.79-1.91-2.608-2.924-1.348-1.673-1.451-3.536-.284-5.283.876-1.312 1.925-2.57 3.118-3.598 2.68-2.319 5.587-4.337 9.059-5.343 1.85-.536 3.732-.967 5.602-1.432a9.184 9.184 0 0 1 1.378-.24c3.223-.299 5.096.75 6.522 3.665.331.678.602 1.39.946 2.186.545-.739.926-1.337.823-2.284-.331-2.987-1.265-5.7-3.213-8.03-1.601-1.915-3.225-3.813-4.792-5.758-.579-.721-1.114-1.507-1.513-2.338-.763-1.593-.319-2.84 1.24-3.689 2.005-1.091 4.199-1.281 6.418-1.109 2.759.216 5.289 1.037 7.31 3.06 1.34 1.342 1.912 3.007 2.178 4.82.784 5.318.761 10.67.778 16.026 0 .786.231 1.635.583 2.344 1.027 2.06 1.687 4.183 1.657 6.507-.016 1.222-.344 2.236-1.507 2.817-1.139.571-1.428 1.489-1.583 2.729-.452 3.623-1.009 7.238-1.74 10.814-.59 2.884-1.928 3.883-5.474 2.528-1.441-.551-2.644-1.717-4.069-2.684-.281.246-.716.644-1.17 1.019-4.737 3.904-10.199 6.535-15.804 8.886-2.332.977-4.759 1.73-7.136 2.604-2.106.771-4.134.543-6.105-.433-1.252-.621-2.485-1.287-3.725-1.938-.311-.163-.62-.338-1.064-.581-.09 1.688-.211 3.2-.241 4.717-.098 4.787-.188 9.577-.216 14.367-.007 1.357.191 2.714.322 4.071.045.481.065.884-.575.909-2.631.097-5.264.173-7.892.305-1.057.053-1.509-.378-1.807-1.389-1.687-5.709-3.462-11.39-5.181-17.089-.535-1.77-1.511-3.184-3.153-4.068-3.308-1.783-6.581-3.648-9.975-5.258-2.5-1.187-4.378-.155-5.409 2.491-.332.851-.826 1.665-1.383 2.391-.231.301-.826.326-1.253.476.015-.441-.103-.949.075-1.312.332-.681.826-1.284 1.271-1.908 1.056-1.487.738-3.217-.786-4.199-2.636-1.7-2.658-1.707-3.554 1.29-.332 1.109-.558 2.253-.784 3.392-.11.566-.461.844-.896.564-1.651-1.067-3.594-.864-5.374-1.347-1.37-.373-2.713-.839-4.089-1.187-.326-.083-.76.065-1.092.22-5.341 2.507-10.67 5.038-16.012 7.542-.964.453-1.96.843-2.969 1.186-.334.116-.884.133-1.092-.06-.196-.182-.158-.728-.068-1.074.439-1.672.936-3.327 1.398-4.995.086-.31.101-.641.146-.961a9.335 9.335 0 0 0-.269-.125c-.409.716-.785 1.454-1.24 2.14-.213.321-.569.549-.863.816-.161-.39-.432-.773-.457-1.171-.065-.994-.005-1.996-.025-2.992-.008-.336-.101-.671-.156-1.007l-.339-.03c-.13.581-.22 1.177-.409 1.74-.11.331-.376.606-.575.907-.22-.318-.481-.614-.642-.959-.103-.221-.055-.514-.103-1.132-.442.481-.748.726-.936 1.042-.166.275-.143.663-.309.939-.136.22-.412.415-.663.475-.1.025-.314-.325-.444-.528-.078-.12-.095-.281-.351-.426-.086.466-.224.929-.246 1.397-.086 1.753-.261 3.518-.161 5.263.085 1.477 1.162 1.993 2.585 1.472.344-.125.663-.348 1.014-.413.239-.045.515.111.774.176-.071.265-.078.721-.221.766-1.534.496-3.078.986-4.652 1.327-.323.07-.825-.441-1.164-.769-.244-.235-.349-.608-.741-.874.101 1.067.141 2.146.337 3.198.062.338.497.793.833.866 2.008.433 4.034.784 6.059 1.134.6.105.834-.278.881-.819.071-.761.051-1.547.254-2.273.143-.511.542-1.279.906-1.33.833-.11.833.774.956 1.363.146.681.186 1.384.302 2.07.128.754-.189 1.237-.776 1.695-.331.258-.665.751-.678 1.149-.19 5.318-.276 10.639-.499 15.954-.065 1.548.133 2.622 1.476 3.776 3.931 3.37 5.555 8.042 6.373 12.992.685 4.146.105 8.142-2.013 12.141 1.551.47 3.029 1.084 4.568 1.352 3.66.636 7.315.23 10.942-.401 5.966-1.039 11.745-2.751 17.392-4.915.241-.092.467-.225.716-.563-.271-.05-.545-.153-.816-.145-3.893.102-7.789.293-11.682.293-1.443 0-2.894-.411-4.33-.686-.449-.086-.886-.301-1.295-.519-1.835-.979-1.978-2.463-.377-3.773.153-.125.306-.245.452-.363-.04-.093-.053-.19-.09-.198-1.963-.505-3.133-1.875-4.084-3.563-1.454-2.576-2.987-5.107-4.491-7.656-.349-.593-.203-1.119.301-1.497a6.513 6.513 0 0 1 1.476-.824c1.175-.471 2.362-.924 3.57-1.302 1.036-.325 1.358-.979 1.142-1.973-.121-.551-.261-1.099-.397-1.647-.326-1.315-.655-2.629-1.032-4.139-.246.774-.529 1.402-.64 2.058-.226 1.345-1.014 2.228-2.166 2.812-3.11 1.577-6.431 2.378-9.902 2.534-1.506.067-2.156-.842-1.466-2.179.758-1.467 1.737-2.826 2.671-4.199.78-1.144 1.634-2.235 2.633-3.59-.974-.163-1.669-.305-2.37-.388-1.157-.138-2.322-.22-3.476-.366-.357-.045-.751-.145-1.027-.35-.256-.19-.52-.558-.52-.849 0-.218.382-.556.651-.628.605-.163 1.25-.283 1.872-.261 5.196.186 10.392.406 15.585.616 1.22.05 2.036.721 2.689 1.901.238-.456.416-.789.59-1.125 1.476-2.856 3.464-5.055 6.925-5.373.193-.017.397-.087.562-.187 2.327-1.39 4.752-1.277 7.114-.253 1.511.656 2.917 1.58 4.29 2.501.359.24.421.919.62 1.397-.487.058-1.014.265-1.451.145-2.568-.703-5.116-1.489-7.674-2.236-.286-.082-.602-.057-.886-.145-1.744-.538-2.864.318-3.546 1.753a71.788 71.788 0 0 0-2.508 5.964c-.326.884-.266 1.817.698 2.483.617.426.484.877-.231 1.122-3.592 1.227-5.118 4.317-3.933 7.982.07.215.178.433.321.609 1.057 1.279 2.088 2.578 3.198 3.81 2.123 2.364 5.906 4.437 9.3 2.877.695-.318 1.179-.668 1.22-1.502.022-.456.138-.942.353-1.34.166-.303.6-.716.829-.668.331.07.821.511.818.793 0 .659-.08 1.44-.447 1.943-.517.711-.652 1.405-.627 2.221.06 2.091.421 4.094 1.473 5.939.324.568.731.736 1.381.714 3.07-.095 5.685-1.242 7.959-3.26 1.624-1.44 2.882-5.952 2.182-7.987-.455-1.32-1.446-2.058-2.756-2.344-.257-.055-.671.268-.904.516-1.185 1.252-2.312 2.561-3.509 3.801-.359.373-.851.733-1.341.836-.667.14-1.493.245-2.06-.027-.779-.376-1.012-1.365-.656-2.104.46-.951 1.047-2.04 1.893-2.556 1.298-.791 2.834-1.272 4.33-1.63.806-.193 1.2-.461 1.441-1.214 1.333-4.139.487-7.95-1.73-11.54-.785-1.272-1.697-2.469-2.537-3.708-.666-.984-.58-1.232.514-1.65 1.614-.619 2.528-2.279 2.194-4.141-.452-2.529-1.604-4.785-2.919-6.956-.209-.343-.645-.553-.989-.808-1.25-.937-2.533-1.833-3.74-2.82-.51-.415-.992-1.046-.43-1.73.54-.656 1.368-.573 1.901-.105 1.089.956 2.221 1.948 3.012 3.137.918 1.385 2.173 1.871 3.649 2.131.856.15 1.549.015 1.946-.921.218-.516.602-1.255 1.328-.822.75.446.361 1.247-.053 1.643-1.822 1.737-1.712 3.876-1.318 6.026.299 1.628.836 3.21 1.275 4.813.171.623.477.961 1.23.738.427-.128.934-.085 1.388-.012 3.201.513 6.19 1.585 8.916 3.36 1.632 1.061 2.405 2.423 2.053 4.466-.358 2.084-.396 4.222-.685 6.32-.115.836-.429 1.685-.826 2.436-1.104 2.083-.622 3.991.723 5.654 1.132 1.399 2.111 2.829 2.543 4.574.208.849.796.839 1.453.846 8.972.083 17.945.215 26.916.253 23.55.103 47.1.163 70.65.245 1.599.005 3.203.025 4.799.111.379.02.743.33 1.115.508-.384.18-.766.513-1.15.516-5.703.027-11.408.027-17.114.005-18.813-.068-37.626-.123-56.44-.231-9.473-.055-18.944-.213-28.414-.325-.392-.005-.786 0-1.371 0 0 1.347.128 2.611-.022 3.843-.766 6.259-4.084 10.859-9.468 14.014-4.782 2.799-9.983 4.594-15.287 6.099-5.336 1.515-10.748 2.709-16.311 2.864-2.136.06-4.325-.228-6.415-.691-.997-.22-2.044-1.057-2.676-1.905-1.549-2.076-2.882-4.309-4.267-6.503-.317-.5-.528-1.076-.736-1.635-.582-1.562-.55-2.2.111-3.56-1.589-.573-3.181-1.159-4.782-1.715-.229-.08-.545-.095-.761 0-1.232.543-2.392.293-3.421-.411-1.649-1.121-3.298-2.263-4.819-3.542-2.611-2.196-4.825-4.77-6.798-7.557-2.495-3.525-3.752-7.306-3.168-11.717.947-7.126 2.006-14.222 3.836-21.185.135-.513.263-1.051.529-1.499.211-.353.63-.581.957-.864.248.385.71.768.71 1.154.003 1.425-.015 2.872-.261 4.269-.806 4.549-1.729 9.079-2.575 13.623a33.797 33.797 0 0 0-.475 3.655c-.085 1.182.302 1.58 1.509 1.585 1.032.005 2.061-.145 3.092-.165 2.167-.045 2.794.956 1.78 2.884-.399.761-.939 1.45-1.438 2.156-.693.979-.914 2.083-.362 3.115 2.493 4.652 5.149 9.196 9.734 12.191 1.431.933 1.612.908 2.257-.712 1.378-3.452 1.704-7.013.956-10.671-.883-4.316-2.437-8.289-5.675-11.442-1.054-1.026-1.117-1.014-2.309-.225-.515.34-1.127.573-1.727.729-.224.057-.685-.186-.776-.401-.08-.193.178-.548.329-.809.058-.1.216-.165.341-.195 1.675-.416 2.121-1.495 2.096-3.162-.045-3.122.153-6.247.254-9.372.068-2.161.145-4.321.211-6.48.042-1.427.02-1.312-1.351-1.489-1.875-.243-3.735-.629-5.577-1.054-1.195-.276-1.848-1.105-1.885-2.381-.04-1.395-.066-2.795-.216-4.179-.091-.831-.274-1.705-.643-2.449-1.576-3.192-3.278-6.322-4.852-9.514-1.114-2.261-1.039-2.554 1.24-3.561 6.496-2.861 13.025-5.653 19.554-8.442 2.575-1.099 5.183-2.123 7.774-3.185.296-.12.58-.268.868-.403-.03-.11-.057-.22-.088-.331-.469.103-.963.148-1.408.318-3.05 1.167-6.117 2.301-9.132 3.556-6.031 2.508-12.03 5.1-18.055 7.631-1.89.794-2.558.609-3.685-1.109-2.101-3.202-3.386-6.773-4.56-10.386-.284-.871.286-1.206.943-1.472 4.328-1.747 8.65-3.505 12.985-5.235 2.445-.977 4.91-1.906 7.365-2.86.266-.105.522-.24 1.021-.473-.911-.217-1.581-.35-2.236-.54-.831-.24-1.664-.486-2.465-.807-.874-.348-1.305-.971-1.044-1.975 1.554-5.984 3.072-11.978 4.651-17.957.304-1.147 1.042-1.247 1.915-.373.758.761 1.511 1.527 2.264 2.293.103-.085.209-.167.312-.253-.204-.31-.362-.666-.618-.926-1.064-1.1-2.101-2.236-3.268-3.217-.439-.368-1.285-.616-1.805-.459-1.739.529-3.461 1.17-5.098 1.959-.931.448-1.621.428-2.189-.346-.705-.962-1.423-1.948-1.912-3.025a263.138 263.138 0 0 1-4.052-9.441c-.329-.806-.725-1.104-1.606-1.09-3.868.068-7.739.03-11.607.11-.713.016-1.461.321-2.116.644-2.231 1.102-4.375 2.401-6.659 3.378-1.732.74-2.448.413-3.811-.99-.361 1.556-1.265 2.58-2.941 2.995.381.509.675.894.961 1.285 3.971 5.428 7.952 10.846 11.903 16.29 1.004 1.384.936 1.724-.65 2.308a1063.881 1063.881 0 0 1-17.973 6.44c-1.857.643-1.917.52-3.049-1.032-2.669-3.658-5.372-7.291-7.965-11.002-1.135-1.622-2.264-3.307-2.292-5.44-.002-.266-.391-.579-.667-.774-.844-.594-1.725-1.137-2.588-1.703-.713-.468-1.137-1.079-1.145-1.978 0-.242-.269-.656-.474-.696-2.38-.463-4.17-1.928-5.836-3.507-1.928-1.83-3.718-3.804-5.467-5.614-.618.1-1.233.29-1.848.286-9.94-.085-19.877-.233-29.815-.278-3.363-.015-6.732.208-10.095.355-1.303.058-1.788.496-1.976 1.558-.118.67.073.986.82.968a87.76 87.76 0 0 1 4.803-.005c5.61.18 11.185.7 16.619 2.184 1.343.368 2.628.946 3.926 1.465 6.471 2.578 12.937 5.167 19.401 7.759 2.595 1.041 5.13 2.283 7.796 3.087 2.023.61 3.85 1.447 5.545 2.651 2.337 1.66 4.011 3.778 4.618 6.64.362 1.708.063 2.972-1.066 3.415-.819.32-1.78.286-2.787.426 0 .022-.017.245.003.463.627 6.685 1.232 13.373 1.91 20.053.168 1.66-.221 2.992-1.516 4.076-.994.834-1.898 1.775-2.914 2.574-.332.26-.899.223-1.361.323-.085-.426-.241-.852-.243-1.277-.023-3.015-.013-6.029-.013-9.046h-.253c0 1.219.027 2.441-.005 3.66a270.235 270.235 0 0 1-.241 6.367c-.053 1.004-.668 1.58-1.647 1.71-2.543.338-5.08.809-7.636.924-3.79.17-7.593.08-11.391.095-.198 0-.399-.025-.597-.052-2.086-.298-2.267-.544-2.47-2.632-.311-3.209-.688-6.412-1.044-9.617-.025-.225-.113-.443-.193-.753-.307.178-.54.393-.806.45-.359.078-.859.181-1.087 0-.233-.182-.377-.746-.274-1.044.369-1.059.859-2.075 1.348-3.214-1.699-.679-3.434-.77-5.191-.624-.173.015-.401.333-.464.551-.444 1.532-.881 3.07-1.24 4.622-.053.233.249.731.489.816 1.005.351 2.054.573 3.075.879.573.173 1.145.373 1.685.631 1.664.801 2.266 1.845 1.581 3.558-1.2 2.987-2.558 5.916-3.996 8.798-1.172 2.348-2.588 4.577-3.833 6.893-.314.586-.527 1.304-.532 1.963-.043 5.223-.025 10.445-.023 15.668 0 1.618 0 1.678 1.662 1.738 3.466.128 6.933.188 10.399.265.866.02 1.735-.027 2.601.01.63.028.936-.255.996-.844.58-5.808 4.37-9.867 7.802-14.093 1.358-1.673 2.899-3.215 4.463-4.702 1.453-1.38 2.196-1.342 3.695.037 1.3 1.195 2.51 2.482 3.767 3.721.301.298.635.566 1.037.919l1.639-2.466c-.504-.373-.976-.787-1.506-1.105a171.54 171.54 0 0 0-4.503-2.593c-.507-.283-.808-.559-.447-1.16 1.908-3.194 3.735-6.444 5.751-9.569.62-.959 1.661-1.743 2.67-2.336 1.712-1.004 3.244-.08 2.947 1.86-.318 2.081-1.059 4.101-1.646 6.137-.214.744-.517 1.462-.781 2.193l.241.163c.605-.318 1.182-.716 1.822-.924.495-.16 1.293-.305 1.547-.05.318.32.396 1.099.268 1.602-.567 2.231-2.118 3.809-3.823 5.231-.68.568-1.134 1.199-1.501 2.03-.381.867-1.164 1.56-1.779 2.321-.244.303-.575.551-.761.884-1.371 2.436-2.746 4.872-4.061 7.339-.876 1.645-1.988 3.062-3.472 4.198-.203.156-.294.454-.437.686.266.148.523.401.799.424.728.06 1.466.04 2.198.015 1.117-.04 2.094.2 2.902 1.061.166.175.726.145 1.019.018 2.312-1.009 4.697-1.75 7.229-1.831 4.325-.137 4.747.817 5.543 3.541 1.799-2.339 4.44-2.569 7.031-2.692 4.224-.2 8.371.539 12.497 1.36.801.16.881.666.761 1.342-.377 2.09-.733 4.181-1.032 6.297.746-1.19 1.529-2.391 1.459-3.861-.116-2.421-.367-4.837-.502-7.256-.098-1.753-.214-3.518-.118-5.268.095-1.757.785-2.594 2.56-2.812 2.302-.285 4.641-.255 6.965-.35.289-.013.58.035 1.24.08-1.139-2.116-2.025-4.101-3.233-5.869-.652-.956-1.97-.841-2.994-.18-.392.253-.761.543-1.15.799-.66.435-.981.934-.838 1.822.226 1.423-.728 2.417-2.036 2.331-.941-.062-1.413-.736-1.004-1.582.269-.556.673-1.077 1.115-1.515.459-.455.524-.871.238-1.414-.409-.779-.796-1.568-1.328-2.617-.562 1.395-1.036 2.486-1.441 3.603-.253.696-.647 1.034-1.413.929-5.281-.724-10.577-1.34-15.836-2.193-2.713-.441-3.05-.902-2.633-3.558a104.162 104.162 0 0 1 2.249-10.726c1.509-5.654 3.238-11.25 4.89-16.865.401-1.37.472-1.393 1.922-1.117 7.006 1.34 14.019 2.656 21.015 4.046 2.633.523 2.691.656 1.795 3.152-1.022 2.849-2.136 5.664-3.253 8.478-.219.551-.214.946.113 1.462 1.132 1.798 1.292 3.878 1.666 5.906.748 4.049 1.579 8.083 2.365 12.124.251 1.297.68 2.486 1.646 3.455.156.155.103.841-.012.886-.623.245-.412.669-.336 1.079 1.071 5.877 1.521 11.8 1.413 17.767-.043 2.371-.583 4.569-1.9 6.612-4.657 7.221-9.459 14.342-14.853 21.042-.768.956-1.619 1.868-2.55 2.659-.361.308-1.059.22-1.604.313-.055-.518-.289-1.099-.136-1.543.415-1.189 1.06-2.295 1.494-3.48.846-2.303.65-4.481-1.037-6.53-.185.296-.369.496-.446.729-.866 2.546-2.99 3.438-5.329 3.994-1.391.33-1.936-.023-2.478-1.375-.796.941-1.519 1.928-2.372 2.784-2.819 2.824-6.225 4.702-10.068 5.686-4.86 1.247-9.026-.538-12.247-4.709-3.732-4.833-3.898-9.99-1.882-15.464.057-.155.123-.31.163-.47 1.054-4.387 3.991-6.688 8.281-7.632 3.536-.778 7.028-1.252 10.519.143 1.868.746 3.356 1.885 4.195 3.773.123.278.376.596.645.694 1.98.723 2.947 2.291 3.602 4.143.053.151.115.301.341.421-.077-.561-.128-1.129-.238-1.685-.766-3.783-2.545-6.968-5.595-9.407-1.833-1.467-3.833-1.922-6.085-1.109-2.038.734-4.076 1.472-6.132 2.153-.783.261-1.611.459-2.43.521-1.129.088-1.762-.543-1.553-1.647.168-.889.569-1.768 1.019-2.567.745-1.324 1.531-2.601.999-4.211-.038-.115-.088-.228-.487-.631-.224.371-.422.759-.678 1.107-.733.989-1.496 1.955-2.234 2.939-1.054 1.41-1.837 2.91-1.76 4.752.021.474-.112 1.034-.379 1.415-.22.315-.79.636-1.109.558-.291-.07-.665-.701-.623-1.036.101-.776.46-1.515.661-2.281.173-.664.391-1.345.389-2.016-.015-2.128-.153-4.254-.184-6.382-.012-.801-.338-1.014-1.091-1.001-3.136.047-6.271.06-9.408.052-.708 0-1.117.181-1.235.947-1.027 6.707-1.998 13.417-1.873 20.235.048 2.496.7 4.79 1.945 6.931.194.33.513.588.779.876.356.388.876.713 1.051 1.169.939 2.461 2.912 4.024 4.85 5.576 4.739 3.796 10.103 6.307 16.112 7.343 4.285.739 8.427-.082 12.513-1.332 2.041-.623 4.059-1.334 6.13-1.837 4.059-.987 6.571 1.64 5.565 5.733-.53 2.154-1.981 3.576-3.813 4.662-2.751 1.63-5.801 2.376-8.931 2.722-9.586 1.056-19.047.195-28.362-2.193-1.975-.506-3.923-1.357-5.695-2.376-4.17-2.397-5.49-5.867-4.272-10.516.14-.541.298-1.079.487-1.763-.425-.042-.766-.11-1.105-.105-11.905.155-23.81.371-35.719.461-13.075.095-26.15.112-39.225.092-13.176-.02-26.351-.125-39.527-.203a169.887 169.887 0 0 1-6.1-.127c-.379-.015-.745-.341-1.119-.521.379-.175.76-.508 1.14-.506 8.406.03 16.81.145 25.216.15 25.485.016 50.973.028 76.458-.037 6.534-.018 13.068-.326 19.602-.471.725-.015 1.071-.318 1.3-.961.554-1.563 1.174-3.102 1.724-4.665.081-.233-.012-.588-.143-.823-1.423-2.572-1.968-5.321-1.963-8.248.008-6.209.803-12.333 1.76-18.448.073-.458.13-.921.188-1.382.008-.057-.04-.122-.103-.293-.374-.02-.796-.057-1.215-.065-4.001-.082-8.002-.127-12.001-.253-2.869-.09-2.967-.242-2.967-3.042V127.772c-1.814.346-3.571.644-5.311 1.019-1.953.423-3.79.045-5.555-.743-9.084-4.059-17.327-9.407-24.631-16.157-1.672-1.547-3.09-3.325-3.454-5.704-.166-1.084-.146-2.113.512-3.062.15-.218.218-.553.195-.824-.248-3.044-.542-6.084-.783-9.126-.236-2.982-.424-5.969-.64-8.953-.01-.15-.083-.296-.314-.43v.918c-.005 4.457.016 8.916-.03 13.373a30.283 30.283 0 0 1-.331 4.071c-.286 1.978-1.41 2.756-3.386 2.378-.98-.187-1.925-.535-2.89-.801-.803-.22-1.598-.488-2.416-.618-.515-.08-1.065.06-1.597.1-.048.113-.093.225-.14.338.509.581.946 1.254 1.543 1.727 3.208 2.549 6.461 5.038 9.684 7.564 1.835 1.437 3.68 2.87 5.447 4.384.746.639 1.406 1.43 1.93 2.261.565.892.066 1.715-.994 1.665a9.266 9.266 0 0 1-2.633-.503c-6.265-2.208-11.862-5.596-16.99-9.765-1.444-1.171-2.774-2.496-4.067-3.835-2.706-2.802-4.28-6.135-4.594-10.048-.715-8.906.816-17.421 4.416-25.578.442-1 1.031-1.938 1.601-2.875 2.488-4.11 7.503-5.047 11.33-3.633 3.97 1.468 5.127 3.087 5.3 7.762.123 3.322.108 6.65.226 9.972.022.656.246 1.378.594 1.933 1.127 1.79 2.716 3.15 4.662 3.949 2.397.986 4.874 1.777 7.32 2.649.218.077.501.082.65.228.168.16.296.445.285.67-.005.123-.32.309-.514.334-.59.072-1.187.082-1.782.117l.012.313c1.65-.095 3.311-.092 4.945-.305 2.96-.388 5.834-1.167 8.442-2.657 5.095-2.911 6.074-8.34 2.299-12.834-1.074-1.277-2.377-2.361-3.755-3.708-.346 4.87-2.422 8.81-4.164 12.847-.505 1.169-1.303 2.238-2.106 3.245-.94 1.174-2.31 1.524-3.718 1.134-4.099-1.134-7.743-3.062-10.495-6.407-1.257-1.528-2.09-3.29-2.211-5.26-.158-2.547-.279-5.113-.13-7.655.135-2.32 1.586-3.888 3.84-4.456 1.827-.461 3.725-.644 5.633-.96-.1-.13-.264-.345-.432-.558-1.27-1.587-1.075-3.31.698-4.309 1.11-.626 2.394-.981 3.642-1.306 1.024-.266 2.103-.336 3.165-.434.562-.052.803-.242.871-.833.254-2.179.944-2.912 3.13-2.955 8.301-.16 16.605-.288 24.906-.338 4.668-.027 9.337.118 14.006.185.389.005.778 0 1.473 0-.351-.963-.582-1.732-.906-2.46-.795-1.783-1.684-3.524-2.427-5.326-.193-.468-.075-1.122.063-1.65.083-.323.474-.791.725-.789.339.003.793.323.982.636.338.56.564 1.204.748 1.84.366 1.277.74 2.562.984 3.866.22 1.184.715 2.183 1.445 3.122 2.239 2.872 4.614 5.616 7.543 7.81a14.112 14.112 0 0 0 2.847 1.627c.903.39 1.671.13 2.319-.764.751-1.034 1.714-1.915 2.633-2.914.015.06.02-.035-.02-.06-2.57-1.57-3.788-4.332-5.746-6.44-.768-.826-1.624-1.577-2.467-2.33-.512-.459-1.019-.847-1.832-.845-.374 0-.919-.628-1.09-1.081-.241-.641.409-.884 1.717-.504.266-.7.721-1.41.778-2.148.256-3.242.59-6.5.525-9.742-.065-3.177-.575-6.347-.901-9.517-.038-.36-.194-.708-.239-1.069-.331-2.709-2.505-3.362-4.608-4.05-.158-.05-.633.392-.721.678-.63 2.1-1.212 4.216-1.787 6.334-.861 3.175-1.692 6.36-2.57 9.532a5.168 5.168 0 0 1-.778 1.605c-.196.27-.653.513-.967.483-.226-.022-.572-.506-.58-.794-.04-1.189-.11-2.406.078-3.572.67-4.132 1.423-8.25 2.199-12.364.138-.736.477-1.457.836-2.123.509-.944 1.325-1.507 2.452-1.397.623.06.934-.226 1.291-.696.615-.811 1.355-1.525 2.118-2.359-1.491.711-2.942 1.385-4.375 2.096-1.323.656-2.134.453-2.337-.994-.281-1.986-.472-4.054-.226-6.03.294-2.348.941-4.684 1.715-6.93.785-2.283 2.51-3.735 4.987-4.103 3.426-.509 6.843-1.17 10.289-1.445 4.117-.328 8.258-.43 12.39-.408 2.282.012 4.571.42 6.842.761 1.85.276 3.1 1.412 3.926 3.077 1.19 2.404 1.479 4.968 1.326 7.58-.068 1.17.298 1.827 1.267 2.51a72.02 72.02 0 0 1 6.195 4.875c.871.766 1.594 1.823 2.079 2.887 3.715 8.15 6.215 16.693 8.14 25.418.336 1.522-.07 2.77-1.052 3.866-1.011 1.132-2.086 2.21-3.198 3.383.291.027.54.072.788.07 3.502-.04 7.004-.073 10.505-.136 1.687-.03 1.634-.035 2.294 1.56 1.338 3.225 2.734 6.427 4.122 9.63.223.516.52 1.004.813 1.49 1.032 1.712.997 1.622 2.766.836 1.451-.646 2.998-1.094 4.526-1.55.949-.283 1.853-.073 2.583.658 1.175 1.175 2.372 2.331 3.517 3.533.336.353.597.811.78 1.265.392.964-.246 1.747-1.245 1.454-.672-.198-1.297-.643-1.867-1.076-.464-.353-.818-.857-1.308-1.39-.148.308-.294.516-.354.746-1.395 5.34-2.799 10.679-4.157 16.03-.406 1.604-.313 1.762 1.261 2.175 1.608.423 3.245.759 4.887 1.037.487.082 1.056-.088 1.541-.268 3.092-1.152 6.17-2.346 9.257-3.516 1.27-.48 1.353-.425 1.69.912.283 1.129.524 2.27.868 3.38.093.295.502.708.756.703 2.161-.052 4.322-.18 6.481-.31.645-.04 1.031-.373 1.041-1.087.068-4.925.083-9.844-.74-14.724-.018-.098-.033-.198-.053-.296-.399-1.76-.582-1.865-2.294-1.357-.894.266-1.78.581-2.691.756-1.36.26-1.985-.515-1.483-1.805.587-1.51 1.729-2.581 2.972-3.56.18-.143.353-.29.74-.609-1.83-.295-3.449-.585-5.075-.81-2.709-.379-5.43-.657-8.128-1.082-2.834-.446-5.206-1.876-7.136-3.929-1.476-1.57-1.24-3.37.63-4.454 1.478-.859 3.13-1.477 4.776-1.97 1.908-.574 3.891-.892 5.854-1.555-2.001 0-4.004.05-6.002-.013-2.299-.072-4.593-.225-6.89-.375-1.463-.096-1.714.17-1.258 1.53.741 2.205 1.532 4.398 2.247 6.612.108.338-.06.763-.1 1.149-.322-.225-.779-.38-.939-.688-1.333-2.532-2.48-5.076-2.809-8.028-.238-2.13-1.232-4.193-2.018-6.236-.171-.449-.838-.79-1.351-1.004-.604-.253-1.307-.263-1.932-.486-.266-.095-.437-.453-.653-.694.286-.125.565-.293.864-.363.175-.042.386.083.582.103 1.797.2 2.716-.383 2.904-2.16.228-2.144.284-4.31.329-6.465.065-3.088.055-6.177.075-9.267.005-.598.04-1.2.005-1.795-.085-1.455-.725-2.416-1.777-2.747-1.426-.445-3.281-.04-4.004 1.044a12.043 12.043 0 0 0-1.36 2.757c-1.288 3.736-1.822 7.629-2.189 11.537-.356 3.806-.542 7.627-.848 11.437-.028.358-.369.691-.563 1.037-.205-.298-.509-.57-.599-.899-1.358-4.972-1.268-9.96.185-14.872 1.368-4.62 3.01-9.159 4.433-13.76 1.007-3.258 3.364-4.47 6.509-4.533 1.83-.035 3.667.056 5.492.2 1.704.136 2.809 1.265 3.735 2.585.206.295.377.616.479.79-.135-1.191-.446-2.516-.391-3.825.07-1.667 1.78-1.828 2.917-2.486a21.05 21.05 0 0 0-.101-.336c-1.262.138-2.558.14-3.783.438-2.59.629-5.135 1.428-7.713 2.114-.798.212-1.632.338-2.457.398-.711.052-1.203-.313-1.326-1.074-.71-4.385.251-8.238 3.512-11.428 1.855-1.815 4.192-2.448 6.616-2.749 8.603-1.071 17.022-.047 25.317 2.331 3.123.897 5.061 2.94 6.163 5.897a25.794 25.794 0 0 1 1.626 9.88c0 .067.013.14-.012.197-.231.556-.467 1.107-.703 1.66-.54-.313-1.175-.53-1.599-.959-.811-.816-1.504-1.75-2.36-2.774.058 1.174.091 2.148.166 3.115.013.168.173.363.319.473 3.336 2.474 5.695 5.568 6.248 10.043.348-.554.549-.924.798-1.257.499-.669.778-1.785 1.812-1.615 1.012.165 1.062 1.292 1.245 2.095.465 2.041.954 4.092 1.19 6.165.469 4.158.808 8.33 1.127 12.503.075.974-.148 1.968-.246 3.068.344.02.698.047 1.049.057 6.398.19 12.797.39 19.198.553.918.023 1.199.409 1.219 1.277.081 3.325.214 6.648.334 9.97.01.316.053.629.101 1.182 2.176-2.306 4.581-4.066 6.137-6.647.597-.99 1.335-1.916 2.121-2.767 1.418-1.54 3.153-1.965 5.188-1.315 3.964 1.27 7.686 3.085 11.205 5.248 3.454 2.124 6.768 4.487 10.051 6.873 1.079.784 1.995 1.883 2.759 2.992 1.606 2.339.647 4.567-2.137 5.188-2.367.528-4.719.168-7.05-.253-5.385-.971-10.34-3.052-14.993-5.884-.138-.082-.282-.155-.538-.295-.434 2.631-2.515 3.783-4.405 5.06-2.512 1.695-5.103 3.28-7.628 4.955-.472.313-.801.839-1.195 1.264-.11.12-.221.338-.334.338-.979.013-1.102.897-1.571 1.445-1.145 1.334-2.309 2.656-3.557 3.893-.326.323-.986.313-1.496.456-.068-.528-.251-1.072-.176-1.577.139-.917.477-1.8.648-2.715.181-.966-.07-1.186-.999-.86-1.541.54-3.03 1.246-4.593 1.692-1.165.33-2.423.52-3.628.48-1.711-.055-2.384-1.467-1.413-2.876.598-.867 1.406-1.59 2.146-2.349.339-.348.743-.63 1.047-1.174-1.21.08-2.427.09-3.624.25-2.639.358-5.269.776-7.897 1.202-1.343.218-2.071.964-2.172 2.411-.273 3.971-.712 7.932-.936 11.906-.118 2.108.07 2.183 2.169 2.128 6.968-.183 13.936-.348 20.899-.596 2.395-.085 4.787-.356 7.174-.604 1.489-.155 1.627-.288 1.521-1.737-.115-1.548-.389-3.085-.617-4.625-.131-.886-.357-1.76-.427-2.649-.023-.288.316-.606.489-.908.256.257.668.478.738.778.274 1.162.297 2.399.676 3.518.562 1.653 1.348 3.23 2.048 4.837.12.276.286.534.429.799v.005Zm-2.214-1.3c.151 2.026-1.165 2.179-2.415 2.354-1.252.178-2.515.36-3.777.403-8.53.293-17.061.556-25.593.809-1.481.045-1.795-.25-2.079-1.698a6.337 6.337 0 0 1-.115-.989c-.151-4.574.371-9.093 1.139-13.593.151-.878.603-1.472 1.411-1.782.746-.286 1.496-.629 2.274-.736 3.198-.446 6.399-.917 9.616-1.17 2.056-.16 4.019-.308 5.691-1.69.555-.458 1.293-.688 1.91-1.081.949-.606 1.943-1.177 2.771-1.923 1.285-1.154 2.48-2.419 3.647-3.696.299-.325.505-.874.495-1.314-.08-3.656-.228-7.311-.336-10.967-.018-.558-.169-.856-.791-.873-6.466-.17-12.93-.368-19.396-.506-.349-.008-.853.353-1.034.68-1.785 3.193-3.502 6.423-5.274 9.623-.341.618-.607 1.141-.135 1.82.163.235.238.736.098.939a108.218 108.218 0 0 1-3.359 4.547c-.123.16-.602.208-.801.097-.198-.107-.381-.498-.346-.73.085-.552.239-1.11.479-1.613.475-.99.984-1.966 1.559-2.9.412-.665.435-1.149-.306-1.542-1.998-1.059-3.994-2.12-5.992-3.18-.657-.35-1.162-.122-1.536.451-.509.779-.979 1.585-1.488 2.364-.367.555-.254 1.066.228 1.404.889.621 1.8 1.235 2.771 1.708.861.42 1.835.603 2.726.971.502.208 1.361.33 1.067 1.144-.309.86-1.089.461-1.639.253-.997-.373-1.953-.846-2.919-1.3-1.634-.763-3.286-1.038-4.815.146-1.225.95-2.362 2.018-3.491 3.085-.281.265-.379.72-.665 1.297.587-.09.941-.11 1.275-.206.898-.25 1.782-.56 2.683-.796 1.227-.32 1.832-.045 2.269 1.14.306.836.593 1.725.638 2.603.241 4.71.424 9.424.575 14.14.037 1.21-.352 1.714-1.622 1.874-1.978.248-3.978.306-5.972.436-.381.025-.768.002-1.257.002.093.484.14.807.218 1.122.512 2.1.989 4.209 1.567 6.292.261.942.371 1.705-.884 2.053 1.273 2.196 2.495 4.307 3.715 6.415 1.295-1.487 2.633-.471 3.989-.246.557-.993 1.438-.853 2.324-.523 1.958.731 3.547 2.001 4.829 3.606 1.896 2.368 1.479 3.482-.866 4.599a1.13 1.13 0 0 0-.175.095c-1.552 1.132-3.793 1.28-4.697 3.385-.165.386-.974.496-1.671.821 2.608.464 5.02.889 7.417 1.315.532-1.625.981-3.19 1.559-4.707.512-1.347 1.34-1.673 2.613-.982 1.634.889 3.554 1.55 3.795 4.212 1.672-2.797 3.727-1.971 5.62-1.084 2.922 1.369 5.751 2.939 8.625 4.409 2.844 1.454 4.516 3.745 5.374 6.817 1.441 5.156 3.08 10.256 4.583 15.394.231.791.56 1.084 1.381 1.019 1.96-.153 3.926-.263 5.891-.341.733-.027.899-.353.834-1.009-.091-.926-.184-1.858-.166-2.787.118-6.249.248-12.498.419-18.748.023-.831-.243-1.302-.921-1.79-4.004-2.874-7.955-5.824-11.951-8.711-.77-.558-.795-1.104-.524-1.955.625-1.958 1.119-3.956 1.626-5.949.101-.393.015-.834.015-1.254-.768 1.114-1.262 2.238-1.804 3.337-.272.551-.651 1.087-1.391.849-3.562-1.144-7.116-2.338-10.083-4.715a6.091 6.091 0 0 1-1.735-2.25c-.73-1.69.46-3.22 2.295-3.047.815.077 1.639.31 2.412.6 1.245.471 2.452 1.044 3.672 1.583.552.245.854.122 1.004-.498.181-.742.389-1.488.695-2.184.635-1.447 1.697-1.575 2.636-.298.846 1.152 1.576 2.389 2.382 3.568.193.283.457.553.751.726.886.521 1.86.909 2.693 1.495a207.76 207.76 0 0 1 6.356 4.682c1.716 1.309 3.654 1.898 5.778 1.905 1.132.003 2.274-.025 3.391-.185 1.948-.28 3.881-.673 5.818-1.019l-.015-.491c-1.932-.22-3.863-.508-5.803-.643-1.692-.118-3.399-.008-5.09-.123-.43-.03-1.052-.448-1.195-.834-.46-1.226-.879-2.503-1.05-3.795-.215-1.643-.19-3.315-.233-4.978-.033-1.297-.007-2.594-.007-3.89-1.497 1.494-1.963 1.361-4.2-1.29l.015.022ZM79.944 91.483c-3.521-1.322-6.812-2.514-9.262-5.27.482 5.297.319 10.568 1.072 15.748 1.596-.285 2.952-.461 4.277-.776 3.306-.784 6.504-.669 9.496 1.066 1.639.952 3.35 1.868 4.757 3.108 2.994 2.639 5.808 5.478 8.7 8.234.303.288.617.566.926.847l-.05-.313c1.551-.944 3.115-1.866 4.646-2.84 1.315-.833 2.789-1.544 3.825-2.649.826-.878 1.318-2.225 1.564-3.445.294-1.462.085-3.017.256-4.514.118-1.026.562-1.97 1.579-2.531.231-.128.379-.534.427-.834.354-2.28.429-4.557-.113-6.835a9.476 9.476 0 0 1-.229-2.469c.013-.4.281-1.024.58-1.127.374-.127.962.073 1.338.316.532.343.954.851 1.486 1.35.131-.872.223-1.693.382-2.502.326-1.667.655-3.35 1.86-4.664 1.094-1.195 2.316-1.11 3.265.195.193.268.384.556.487.866.209.624.588.769 1.223.691 2.447-.298 4.897-.56 7.352-.799 1.375-.132 2.756-.182 4.134-.272-.392-.246-.798-.336-1.205-.418-4.147-.852-8.296-1.69-12.438-2.562-1.478-.31-2.577-1.197-3.386-2.459-.135-.212-.293-.413-.497-.7-.795 1.542-2.108 1.74-3.542 1.562-1.696-.213-3.383-.488-5.218-.756.447.355.783.62 1.117.888 1.373 1.095 2.028 2.452 1.868 4.262-.452 5.032-.796 10.075-1.238 15.108-.11 1.246-.173 2.603-.713 3.683-1.2 2.401-2.558 4.752-4.086 6.957-2.111 3.043-3.145 3.228-6.456 1.623-4.46-2.161-8.64-4.795-12.41-7.99-1.363-1.154-2.337-2.776-3.42-4.236-.298-.406-.446-.984-.484-1.497-.027-.373.136-.927.41-1.112.273-.185.853-.14 1.184.025.525.263.98.686 1.424 1.087 1.187 1.069 2.324 2.2 3.539 3.237 1.24 1.057 2.54 2.043 3.83 3.037.6.463 1.082.333 1.454-.353a87.667 87.667 0 0 1 1.875-3.297c.477-.799.948-1.613 1.53-2.331.699-.856 1.341-.764 1.853.205.686 1.294 1.323 2.611 1.988 3.916.133.263.307.506.465.764.652-2.572 1.255-5.023 1.902-7.462.179-.668.056-.971-.672-1.084a40.819 40.819 0 0 1-3.723-.756c-.314-.08-.54-.498-.808-.761.354-.13.705-.27 1.064-.386.086-.027.194.038.294.046 1.461.095 2.922.205 4.385.275.904.045 1.165-.396.931-1.26-.236-.863-.394-1.752-.557-2.633-.562-3.033-1.732-5.777-3.725-8.17-2.28-2.74-4.503-5.521-6.752-8.285l-1.561-1.92c-.54 1.099-1.466 1.151-2.362 1.031-1.316-.175-2.639-.408-3.914-.764-1.215-.338-2.342-1.076-3.566-1.264-2.553-.396-5.126-.255-7.614.556-1.636.533-2.73 1.68-2.849 3.387-.145 2.078-.042 4.174-.012 6.262.04 2.845 1.165 5.228 3.2 7.186 2.227 2.143 4.892 3.555 7.81 4.52 2.18.723 3.35.42 4.5-1.538 2.271-3.863 3.858-8.027 4.94-12.371.243-.979.2-1.983-.668-2.772-.156-.142-.213-.606-.098-.773.115-.17.517-.248.763-.203.314.055.613.253.896.425 2.174 1.35 4.064 3.025 5.583 5.083 1.857 2.516 2.447 5.303 1.493 8.308-.868 2.734-2.821 4.572-5.341 5.783-4.225 2.028-8.688 2.985-13.39 2.624-.787-.06-1.576-.278-2.326-.533-.271-.093-.567-.49-.602-.781-.026-.206.346-.486.582-.686.138-.118.351-.143.763-.298l.013-.01Zm59.972-8.673c-.484.062-1.089.17-1.699.212-4.785.331-9.574.611-14.356.99-1.948.155-2.06.287-1.478 2.148 1.102 3.51.658 6.82-.914 10.062a75.251 75.251 0 0 0-1.084 2.356c-.103.238-.281.591-.186.742.68 1.074.133 2.218.254 3.319.426 3.899.846 7.797 1.257 11.698.065.628.367.964 1.004 1.014 1.26.1 2.528.351 3.78.295 4.591-.195 9.185-.423 13.766-.773 3.097-.238 3.233-.373 3.158-3.513-.166-6.91-.462-13.818-.701-20.726-.015-.463-.06-.944.05-1.382.063-.25.379-.523.638-.606.123-.04.487.305.557.533.166.536.244 1.102.317 1.663.943 7.243 1.704 14.502 1.794 22.033.914-.871 1.687-1.68 2.535-2.404 1.05-.891 1.283-1.96 1.15-3.29-.685-6.845-1.3-13.695-1.953-20.543-.04-.418-.098-.889-.313-1.23-.676-1.066-1.424-2.088-2.162-3.112-.188-.262-.449-.473-.675-.706-.023.88.228 1.613.281 2.359.038.546-.012 1.402-.334 1.59-.419.245-1.292.17-1.712-.128-1.069-.758-1.995-1.717-2.977-2.596l.003-.005Zm5.891-43.63c-2.402.245-3.185-.214-3.145-2.151.078-3.671.605-7.271 2.545-10.514.128-.213.163-.503.168-.76.058-2.352.766-4.508 1.903-6.546 2.355-4.221 6.027-6.216 10.804-5.483 5.821.894 9.877 3.746 10.853 9.424.204 1.182.63 1.402 1.76 1.004.474-.165.901-.52 1.293-.854.705-.6 1.33-1.299 2.065-1.857.435-.33 1.133-.646 1.471.022.154.303-.14 1.012-.449 1.325a7.835 7.835 0 0 1-1.928 1.404c-.861.456-1.305 1.152-1.41 2.043-.108.917-.199 1.863-.096 2.772.578 5.058 2.347 9.815 3.861 14.632.241.769.748 1.485 1.25 2.136.55.713 1.25.866 2.106.328.783-.494 1.654-.86 2.502-1.242.683-.31 1.399-.24 1.762.428.289.53.508 1.252.392 1.813-.153.748-.941.84-1.644.798-.299-.017-.595-.112-.891-.11-.994.008-2.156-.283-2.947.128-2.179 1.137-4.262 2.489-6.243 3.948-.449.33-.369 1.44-.401 2.199-.005.102.77.335 1.187.34 2.902.035 5.803.038 8.705.023.417 0 .961-.015 1.228-.26 1.558-1.44 3.122-2.888 4.52-4.477.422-.479.56-1.455.432-2.129-1.378-7.276-3.77-14.256-6.16-21.247-1.529-4.469-4.212-7.851-8.108-10.403-1.317-.863-2.464-1.745-4.284-1.7-2.375.06-4.762-.51-7.152-.736-4.668-.443-9.322-.448-13.913.714-3.976 1.006-7.764 2.446-11.085 4.902-.735.543-1.318 1.295-2.108 2.086.891.385 1.446.718 2.048.866 2.211.54 3.193 2.12 3.685 4.154.1.42.223.836.304 1.262 1.091 5.861 1.217 11.765.657 17.684-.12 1.27-.477 2.548-.931 3.743-.271.708-.191 1.029.371 1.472 2.104 1.665 3.951 3.565 5.324 5.899.332.563.806 1.072 1.303 1.5 1.009.868 2.079 1.665 3.125 2.488.904.714 1.137 1.505.834 2.704-.47 1.858-.658 3.791-.876 5.701-.041.356.248.954.554 1.107 1.393.706 2.837 1.315 4.285 1.905.351.143.786.083 1.406.133-.256-.528-.334-.874-.545-1.094-.773-.821-1.611-1.582-2.38-2.406-.218-.235-.286-.611-.424-.921.359-.068.726-.22 1.072-.183.658.075 1.295.315 1.95.385.701.076 1.077-.343 1.022-1.029-.033-.418-.123-.883-.344-1.227-.675-1.044-1.25-2.2-2.748-2.38-.277-.033-.477-.704-.713-1.08.331-.14.755-.485.979-.385 1.772.798 3.059-.468 4.681-.847-.956-.585-1.822-.986-2.513-1.584-.451-.391-1.001-1.185-.868-1.593.161-.506.934-.949 1.534-1.149.788-.263 1.664-.26 2.502-.373l.045-.243c-.446-.155-.881-.403-1.338-.448-1.523-.155-3.069-.153-4.583-.373-1.303-.188-2.585-.561-3.853-.937-.249-.072-.377-.54-.562-.826.288-.168.559-.415.868-.486.347-.077.731-.007 1.095.026 1.393.122 2.783.31 4.181.372 1.459.066 1.813-.423 1.474-1.998-1.238 1.365-2.292.539-3.351-.212a12.365 12.365 0 0 1-.798-.604c-2.962-2.48-5.924-4.96-8.876-7.45-.773-.654-.843-1.443-.151-2.174.472-.496 1.065-.879 1.705-1.392l.007-.008Zm26.374 145.315.191.112c.539-.58 1.109-1.136 1.611-1.75 5.583-6.807 10.465-14.106 15.252-21.477 1.25-1.925 1.837-3.993 1.789-6.222-.072-3.553-.18-7.11-.462-10.651-.198-2.508-.715-4.992-1.071-7.491-.091-.638-.404-.924-1.06-.916-2.06.022-4.129-.09-6.182.052-2.357.166-2.852.719-2.781 3.095.075 2.521.221 5.052.575 7.546.487 3.42-.041 6.525-2.069 9.374-.748 1.049-1.305 2.231-1.958 3.348a3.902 3.902 0 0 1-.449.656c-.866.951-1.742 1.895-2.62 2.837-1.022 1.094-2.004 2.228-3.098 3.247-.351.328-1.074.558-1.491.421-.346-.116-.512-.827-.71-1.292-.086-.203-.04-.461-.066-.691-.155-1.5-.419-2.945-1.405-4.192-.294-.37-.261-.996-.379-1.504.499-.033 1.004-.133 1.493-.083.49.05.962.263 1.451.368.188.04.399-.023.6-.04l.143-.338c-1.22-.774-2.442-1.547-3.66-2.324-.359-.227-1.049-.315-.642-.946.118-.18.768-.18 1.077-.045 2.291.994 4.563 2.038 6.837 3.075 1.479.673 1.812.553 2.435-.957a6.04 6.04 0 0 0 .316-1.049c.522-2.539 1.027-5.08 1.549-7.619.161-.786-.005-1.259-.924-1.364-3.042-.348-6.074-.832-9.122-1.1-2.095-.185-4.196.048-6.202.794-1.19.443-1.938 1.239-2.126 2.531-.196 1.347-.459 2.682-.628 4.031-.03.243.194.606.41.774 5.773 4.507 8.12 11.7 6.182 18.828-.301 1.11-.394 2.286-.487 3.441-.078.963.231 1.201 1.195.961 2.01-.498 3.747-1.335 4.513-3.505.178-.504.806-1.157 1.25-1.175.464-.017 1.087.556 1.413 1.029 1.574 2.274 1.599 4.725.613 7.229-.399 1.011-.866 1.993-1.303 2.989v-.007ZM75.68 120.136l.248-.366c-.944-.909-1.814-1.905-2.841-2.709-3.068-2.403-6.223-4.694-9.288-7.101-1.935-1.517-3.805-3.124-5.637-4.767-.62-.556-1.32-1.314-.849-2.263.507-1.024 1.567-.982 2.546-.959.198.005.399.048.59.1 1.214.348 2.432.694 3.644 1.062 2.88.874 3.567.425 3.652-2.579.113-3.986.199-7.977.201-11.966.003-3.357-.135-6.715-.176-10.072-.002-.28.282-.561.435-.844.21.27.534.513.612.816.176.684.231 1.4.337 2.103.118-.015.236-.027.353-.042-.248-3.608-.461-7.221-.773-10.824-.052-.608-.376-1.332-.816-1.75-3.64-3.46-10.514-3.873-13.592 1.377-.369.631-.768 1.252-1.074 1.913-3.785 8.135-5.294 16.68-4.609 25.616.264 3.44 1.552 6.445 3.896 8.981 5.982 6.467 13.276 10.926 21.512 13.931.514.187 1.084.23 1.629.34v.003Zm130.167-73.057c.911 2.378 1.744 4.556 2.522 6.582.791 0 1.514-.025 2.237.005 4.262.18 8.524.463 12.786.533 4.097.068 8.198-.07 12.297-.157.382-.008.929-.2 1.102-.486.585-.957 1.275-1.948 1.496-3.012.663-3.205 2.068-6.102 3.457-9.011.138-.288.564-.44.858-.654.078.348.296.739.208 1.04a46.339 46.339 0 0 1-1.215 3.59c-.66 1.74-1.375 3.462-2.053 5.195-.306.779-.231 1.535.402 2.108.673.611 1.26.153 1.88-.228 1.019-.628 2.058-1.242 3.148-1.727.399-.178.968.025 1.46.055-.155.493-.203 1.064-.492 1.46-.331.453-.876.753-1.3 1.099 2.043 0 4.067.012 6.087-.003 2.345-.017 2.515-.203 2.583-2.614.005-.165.01-.333.008-.498-.098-6.172-.899-12.258-2.257-18.275-.09-.396-.248-.776-.374-1.164l-.351-.06c-.809 1.622-1.66 3.225-2.413 4.87-.76 1.657-1.388 3.375-2.156 5.03-.163.35-.77.828-1.006.75-.663-.222-.347-.813-.156-1.261.645-1.497 1.34-2.972 1.953-4.482.258-.636.492-1.33.517-2.003.156-4.304-1.945-7.474-5.211-10.022-.063-.05-.183-.028-.321-.043l-2.515 5.944c.399-.183.645-.446.881-.719.261-.303.494-.63.773-.916.678-.696 1.31-.6 1.717.285.178.389.324.82.356 1.24.113 1.454.231 2.917.229 4.374 0 2.266-.334 2.769-2.538 3.455-2.033.633-4.124 1.077-6.188 1.612-.466.12-.923.276-1.383.416l-.296.456c.352.188.738.333 1.047.576.705.556 1.418 1.114 2.043 1.755.906.934.899 1.6-.035 2.483-.698.659-1.446 1.307-2.272 1.786-3.316 1.915-6.644 3.815-10.025 5.613-2.601 1.385-2.954 1.365-4.521-1.12-2.568-4.078-4.94-8.282-7.359-12.453-.701-1.207-.515-1.617.79-2.216.731-.335 1.479-.63 2.418-1.026-.836-.353-1.451-.604-2.059-.869-2.806-1.222-3.107-1.835-1.682-4.497 1.16-2.163 2.566-4.196 3.848-6.294.164-.265.379-.601.337-.869-.231-1.442-2.169-3.398-3.645-3.475-2.254-.12-4.538-.24-6.772-.003-2.51.266-3.416 1.147-4.225 4.277.768-.17 1.529-.386 2.305-.503 2.357-.356 4.074.84 4.503 3.174.13.709.12 1.452.108 2.178-.04 2.259-.131 4.515-.168 6.77-.051 2.89-.016 5.782-.126 8.671-.05 1.292-.314 2.592-1.235 3.285l-.007-.007Zm48.412 136.309c-.309.033-.507.03-.698.075-7.234 1.74-14.604 2.246-22.013 2.386-2.199.043-4.398.093-6.597.158-1.253.035-1.617.493-1.288 1.718.196.733.429 1.489.816 2.133 1.253 2.075 2.606 4.091 3.878 6.154.856 1.387 2.116 2.176 3.677 2.286 2.32.163 4.677.383 6.974.153 9.33-.934 18.251-3.428 26.73-7.439 3.456-1.635 6.468-3.828 8.579-7.103 1.953-3.027 2.912-6.317 2.749-9.92-.025-.568-.033-1.189-.834-1.239-1.827-.113-3.654-.261-5.482-.291-.923-.015-1.742.381-2.281 1.217-2.731 4.244-6.471 7.196-11.311 8.713-.562.175-.755.461-.786 1.067-.032.673-.228 1.367-.504 1.985-.123.273-.663.566-.934.506-.276-.06-.575-.523-.647-.856-.108-.504-.028-1.049-.028-1.698v-.005Zm-75.165-62.193c.68-1.5 1.177-2.769 1.815-3.961.878-1.643 1.305-3.596 3.095-4.65.195-.115.281-.443.376-.688 1.072-2.794 2.151-5.586 3.193-8.393.419-1.131.374-1.227-.823-1.462-6.933-1.359-13.874-2.681-20.809-4.038-.731-.143-1.07.03-1.28.778-1.73 6.112-3.572 12.191-5.219 18.323-.773 2.879-1.275 5.843-1.739 8.793-.261 1.657-.083 1.888 1.571 2.141 5.168.791 10.352 1.479 15.535 2.16.259.035.708-.323.841-.606.469-.989.901-2.008 1.222-3.052.136-.443.073-1.021-.088-1.472-.645-1.81-1.418-3.578-2.033-5.398-.248-.736-.313-1.575-.276-2.359.06-1.279 1.125-1.747 2.089-.891.599.533 1.051 1.277 1.433 2.001.412.786.663 1.655 1.097 2.779v-.005Zm113.934-5.443c.574.726.933 1.159 1.27 1.607.738.984 1.531 1.938 2.168 2.982.249.406.139 1.029.194 1.552-.53.018-1.082.138-1.587.028-.504-.108-.986-.403-1.435-.686-1.266-.801-2.508-1.643-3.763-2.459-.836-.546-1.654-1.127-2.528-1.605-.954-.523-1.237-.373-1.38.684-.166 1.217-.244 2.446-.384 3.665-.078.676.138 1.132.768 1.452 1.543.784 3.052 1.633 4.601 2.409 1.553.779 3.152.894 4.847.366 7.395-2.311 14.395-5.446 20.811-9.808 1.014-.688 1.935-1.524 2.829-2.368.233-.22.387-.814.256-1.082-.68-1.397-.665-2.824-.397-4.291.106-.569.196-1.139.251-1.465-2.557.105-5.042.328-7.52.281-2.904-.058-5.607-.822-7.59-3.23-.834.838-1.632.423-2.378.085-3.564-1.62-6.917-3.603-9.952-6.077a12.599 12.599 0 0 1-2.176-2.316c-.673-.921-.48-1.597.424-2.32 1.586-1.27 3.165-2.55 4.767-3.801 3.704-2.9 7.47-5.74 11.895-7.464 2.693-1.052 5.502-1.813 8.256-2.714.512-.168 1.011-.376 1.516-.566l-.065-.338c-.573.028-1.163-.025-1.715.098-2.179.49-4.35 1.006-6.511 1.57-2.987.776-5.808.46-8.492-1.085-.778-.448-1.564-.906-2.389-1.252-1.253-.525-2.516-1.079-3.826-1.4-1.579-.385-2.954.289-3.682 1.718-.57 1.12-1.09 2.296-1.413 3.506-1.996 7.426-2.932 14.987-2.761 22.684.02.904.376 1.297 1.222 1.492 2.663.623 5.311 1.247 8.088 1.134a67.13 67.13 0 0 1 5.901.023c2.593.125 5.218.175 7.668 1.189 2.32.959 2.588 3.13.482 4.492-1.092.706-2.392 1.247-3.667 1.484-2.877.539-5.798.837-8.703 1.24-1.205.168-2.409.358-3.895.581l-.005.005ZM166.724 35.977c.602 0 1.087-.013 1.571 0 1.567.043 2.071.861 1.295 2.206-.479.831-1.014 1.662-1.676 2.348-2.884 2.995-5.836 5.924-8.728 8.911-.329.338-.59.874-.622 1.337-.083 1.147.03 2.316-.989 3.247.637.005 1.192-.032 1.709-.197.748-.238 1.448-.731 2.204-.819 2.347-.273 4.711-.388 7.066-.606.577-.053 1.451-.085 1.656-.438.698-1.194 1.921-1.615 2.937-2.329 1.16-.81 2.375-1.542 3.321-2.15-.798-1.455-1.802-2.694-2.199-4.104-1.646-5.874-4.33-11.557-3.654-17.904-1.543-.224-2.513-1.136-2.91-2.737-.055-.225-.11-.453-.168-.678-.652-2.534-2.148-4.445-4.488-5.569-1.458-.7-3.017-1.287-4.596-1.62-3.494-.738-6.546.175-8.906 2.95-1.358 1.597-2.352 3.432-2.726 5.483-.263 1.445-.354 2.982-.165 4.432.198 1.53.74 3.034 1.28 4.496.286.777.723 1.643 1.358 2.121 2.834 2.138 6.029 3.363 9.641 3.3.904-.015 1.479-.44 1.797-1.31.136-.37.48-.663.731-.991.16.32.374.626.469.964.324 1.142 1.11 1.377 1.953.528.254-.255.459-.578.612-.904a165.001 165.001 0 0 0 2.081-4.526c.452-1.034.794-2.121 1.281-3.138.145-.305.614-.458.936-.678.15.386.507.826.419 1.15-.419 1.569-.934 3.116-1.458 4.656-.287.839-.661 1.648-1.03 2.559l-.002.01Zm-26.602 37.639c-.5-.2-1.107-.456-1.722-.694-6.559-2.533-13.131-5.042-19.677-7.608-2.201-.862-4.277-2.094-6.526-2.765-7.161-2.133-14.546-2.559-21.976-2.463-.7.01-.934.333-.703.936.487 1.27.85 2.634 1.584 3.748 1.388 2.106 3.007 4.059 4.516 6.087.612.821 1.307 1.387 2.39 1.605 1.197.24 2.381.678 3.488 1.206 2.192 1.047 4.478 1.698 6.87 2.028 1.813.25 3.623.549 5.445.684 1.107.083 1.473-.38 1.586-1.48.045-.43.038-.879.173-1.28.103-.297.4-.527.61-.788.229.233.477.448.676.704.092.12.092.315.13.475.545 2.334 1.918 3.789 4.343 4.25 3.863.736 7.713 1.542 11.571 2.305 2.179.431 4.363.84 6.647 1.275-.113-.37-.198-.616-.266-.866-.394-1.473.023-2.301 1.466-2.782 1.677-.558 3.388-.711 5.12-.268 1.248.32 2.036 1.079 2.217 2.398.181 1.318.329 2.642.605 3.941.083.396.492.94.838 1.014.595.128 1.531.168 1.823-.177.386-.461.489-1.357.376-2.008-.632-3.626-5.063-7.797-8.74-8.27-.364-.048-.864.203-1.157.47-1.25 1.145-2.433 2.364-3.675 3.516-.359.33-.816.59-1.273.77-1.006.397-1.757-.174-1.483-1.206.196-.741.557-1.562 1.107-2.06 1.089-.99 2.357-1.778 3.619-2.7l-.002.003Zm23.7 98.077c-.218-1.507-.311-3.044-.685-4.514-.437-1.723-1.315-3.195-3.21-3.781-.339-.105-.728-.446-.854-.769-1.024-2.658-3.215-3.758-5.778-4.198-4.448-.764-8.617.255-12.508 2.408-.617.341-1.097 1.069-1.451 1.72-1.393 2.567-2.302 5.323-2.646 8.215-.178 1.495-.291 3.102.071 4.535.62 2.463 1.945 4.654 3.657 6.572 2.385 2.671 5.339 3.991 8.928 3.407 4.135-.671 7.712-2.591 10.673-5.505 2.217-2.181 4.044-4.657 3.806-8.09h-.003Zm-34.559 8.981c-.12 1.307-1.145 1.472-2.226 1.555-.299.022-.6.037-.896.073-1.495.173-2.425 1.004-2.792 2.493-1.064 4.324.189 7.246 4.079 9.482 2.545 1.465 5.337 2.246 8.181 2.842 5.168 1.084 10.412 1.58 15.678 1.765 4.676.165 9.335-.048 13.876-1.357 2.035-.586 3.968-1.392 5.532-2.879 1.401-1.332 2.031-2.945 1.657-4.873-.405-2.078-1.501-2.887-3.575-2.411-2.073.476-4.109 1.127-6.145 1.76-3.228 1.004-6.493 1.848-9.889 1.841-6.09-.013-11.572-2.114-16.65-5.278-2.359-1.47-4.498-3.288-6.83-5.015v.002ZM72.374 103.24c.008.08-.005.186.03.271.103.245.18.518.344.716 1.365 1.662 2.528 3.585 4.172 4.907 3.6 2.897 7.462 5.468 11.19 8.21 4.546 3.345 9.619 5.388 15.168 6.342 2.091.358 4.24.646 5.914 2.429.969-1.688 1.948-3.23 2.766-4.85 1.83-3.618 3.65-7.243 5.329-10.929.761-1.67.377-2.316-1.363-2.969-1.119-.421-2.296-.686-3.446-1.022-1.486-.433-1.368-.701-1.991.936-.579 1.525-1.546 2.715-2.941 3.536-1.205.711-2.463 1.332-3.663 2.045a26.568 26.568 0 0 0-2.552 1.728c-.5.383-.457.816-.01 1.349a33.853 33.853 0 0 1 2.545 3.436c.206.318.005.893-.008 1.352-.429-.07-1.026.015-1.255-.236-.883-.971-1.978-1.94-2.377-3.117-.507-1.492-1.433-2.484-2.502-3.478a32.555 32.555 0 0 1-1.682-1.707c-3.09-3.333-6.431-6.335-10.377-8.688-4.37-2.609-8.733-1.525-13.153-.428-.05.012-.083.097-.14.167h.002ZM275.07 79.367c1.316-.869 2.558-1.685 3.798-2.506 2.304-1.525 4.619-3.032 6.903-4.587.863-.588 1.496-1.355 1.81-2.421.276-.937-.146-1.578-.52-2.321-.381-.756-.143-1.753.397-1.833.886-.133 1.077.621 1.129 1.21.103 1.141.786 1.752 1.679 2.28 4.22 2.492 8.668 4.442 13.502 5.323 2.144.39 4.355.466 6.542.529 1.049.03 2.216-.208 2.681-1.377.507-1.272-.184-2.324-1.042-3.12-1.752-1.623-3.509-3.275-5.452-4.652-5.148-3.653-10.628-6.743-16.587-8.908-2.643-.962-4.001-.677-5.482 1.534-2.091 3.125-4.629 5.817-7.312 8.408-.65.626-1.308 1.23-1.175 2.286.03.23-.236.536-.429.751a403.481 403.481 0 0 1-3.662 4.091c-.989 1.092-.633 2.226.838 2.626.193.053.394.07.59.11 1.468.294 1.704.574 1.742 2.049.005.155.025.308.045.533l.005-.005Zm-124.837-8.686c.178.649.228 1.077.409 1.44.472.952.913 1.938 1.526 2.8 2.638 3.717 5.374 7.368 7.979 11.109.693.996 1.356 1.136 2.398.758 5.73-2.08 11.473-4.131 17.209-6.202.233-.085.437-.255.675-.4-.105-.218-.153-.383-.248-.511-4.235-5.769-8.467-11.54-12.737-17.283-.228-.308-.77-.474-1.189-.534-1.153-.167-2.388-.035-3.462-.395-2.379-.799-4.084.836-6.212 1.247.517.693.948 1.199 1.3 1.76 1.398 2.233.768 3.793-1.795 4.344.291.348.592.653.828 1.001.261.38.53.779.681 1.21.449 1.296-.261 2.173-1.602 1.9-.971-.198-1.915-.558-2.844-.921-.913-.356-1.789-.807-2.916-1.325v.002Zm65.099 21.403c-.007-.06-.012-.118-.02-.178-.504.148-1.024.26-1.513.448-3.703 1.42-7.405 2.837-11.095 4.291-3.502 1.383-6.988 2.805-10.477 4.222-.467.19-1.107.318-.763 1.099 1.332 3.04 2.567 6.124 4.031 9.101.823 1.675 1.152 1.665 2.859.944 6.14-2.591 12.257-5.235 18.414-7.784 3.045-1.262 6.152-2.374 9.242-3.52.688-.256 1.423-.436 1.996.33.123.165.419.205.635.303.037-.238.15-.493.098-.711-.55-2.296-1.1-4.59-1.72-6.868-.085-.313-.527-.723-.836-.754-3.614-.345-7.234-.628-10.851-.928v.005Zm-45.571-79.798c.171-2.751.023-5.298-1.074-7.729-.678-1.5-1.74-2.541-3.406-2.759-2.342-.305-4.694-.71-7.046-.728-3.828-.028-7.674.07-11.486.403-3.61.315-7.189.986-10.776 1.534-1.765.27-2.947 1.35-3.678 2.92-1.739 3.74-2.334 7.676-1.865 11.762.181 1.575.299 1.575 1.717.907 7.46-3.508 15.066-6.623 23.051-8.768 3.624-.974 7.123-.804 10.562.648 1.285.541 2.543 1.152 4.001 1.813v-.003Zm74.884 8.899.357-.236c.027-.315.11-.636.072-.944-.253-2.138-.424-4.296-.82-6.41-.844-4.493-3.376-7.433-8.068-8.214-3.938-.656-7.859-1.46-11.822-1.915-4.077-.469-8.188-.459-12.25.343-1.845.363-3.584.934-4.98 2.336-2.625 2.641-3.725 5.746-3.223 9.436.151 1.112.274 1.317 1.361 1.057 1.488-.358 2.959-.799 4.428-1.232 2.944-.871 5.876-1.783 9.013-1.525.274.023.605-.082.836-.235 3.324-2.173 7.008-3.212 10.939-3.4 3.487-.165 6.494.989 8.515 3.896 1.147 1.652 2.444 3.127 3.815 4.569.527.553.999 1.162 1.468 1.763.158.203.239.468.354.706l.005.005Zm75.984 90.909c.331-.408.507-.539.56-.704a381.82 381.82 0 0 0 1.993-6.565c.06-.205-.093-.488-.184-.721-.341-.881-.843-1.73-1.016-2.644-.372-1.955-.492-3.958-.869-5.914-.469-2.438-.901-4.912-1.699-7.256-.894-2.621-5.141-4.409-7.648-3.287-3.349 1.497-6.298 3.63-8.623 6.495-1.511 1.863-1.187 3.152.859 4.389.437.265 1.092.55.678 1.202-.43.676-.846-.005-1.256-.176-.06-.025-.11-.095-.17-.102-.309-.035-.718-.188-.906-.048-.201.148-.231.573-.259.884-.02.22.058.468.148.676 1.689 3.853 3.991 7.021 8.615 7.526.893.098 1.807.233 2.691.143 2.04-.213 4.066-.551 6.099-.841.364-.053.726-.125 1.09-.188.047.403.178.816.125 1.204-.181 1.312-.489 2.609-.617 3.924-.056.568.216 1.166.391 2l-.002.003ZM218.156 16.558c-.783.22-1.637.413-1.734 1.374-.116 1.157-.116 2.457.853 3.218.876.688 1.343 1.555 1.662 2.488.514 1.503.703 3.12 1.275 4.595.951 2.453 2.791 4.008 5.409 4.572.685.147 1.371.29 2.061.4 3.537.569 6.479-.388 8.572-3.407a105.083 105.083 0 0 0 3.128-4.75c1.526-2.476 1.46-5.05.258-7.629a2.506 2.506 0 0 0-.748-.901c-1.554-1.142-3.273-1.9-5.203-2.164-3.728-.505-7.38-.02-11.01.782-2.008.443-2.414.929-2.512 3.012-.008.165.045.353-.018.493-.133.308-.319.593-.484.889-.297-.208-.751-.353-.861-.634-.292-.73-.432-1.522-.648-2.343v.005Zm-.888 139.865c.326.11.419.172.512.167 3.504-.182 6.88-.896 9.937-2.676.53-.308.886-1.029 1.157-1.635.435-.967.67-2.021 1.112-2.982.161-.348.67-.536 1.022-.796.261.353.657.671.758 1.064.276 1.092.396 2.223.637 3.325.249 1.134.625 2.243.846 3.385.234 1.207-.203 2.008-1.33 2.486-1.104.468-2.252.826-3.369 1.267-.665.26-1.302.583-2.01.904.512.826.946 1.49 1.343 2.176 1.333 2.303 2.615 4.637 3.991 6.915.903 1.5 3.614 2.366 5.314 1.928 1.707-.438 3.431-.884 5.178-1.089 1.707-.2 3.451-.143 5.176-.103.301.008.592.496.888.764-.256.273-.481.586-.775.806-.201.153-.492.2-.751.26-3.009.689-6.064 1.024-9.134.752-1.325-.118-2.352.318-3.343 1.004-.846.58-.821 1.297.1 1.782a8.21 8.21 0 0 0 2.342.819c4.641.831 9.305.491 13.964.15.173-.012.336-.14.587-.253-1.436-2.258-1.704-4.752-1.825-7.331-5.206 2.046-8.785-.328-11.955-3.916-.053.331-.061.669-.164.974-.233.694-.833.872-1.425.459-1.057-.739-1.988-3.683-1.597-4.915.113-.356.121-.771.081-1.15-.354-3.317.017-6.569 3.74-8.342.05-.025.072-.105.02-.023-.841-4.023 1.483-6.998 2.954-10.225-2.578.649-5.705 5.12-5.447 7.699.085.851.111 1.73-.002 2.574-.053.393-.505.734-.776 1.099-.269-.365-.743-.718-.763-1.096-.048-.917.065-1.851.208-2.762.306-1.973-.657-3.24-2.63-3.383-1.431-.105-2.857-.255-4.288-.315-3.521-.15-7.043-.261-10.565-.386.221.226.452.233.678.261 1.288.157 2.598.225 3.858.508 1.238.28 1.489 1.102.826 2.186-.244.395-.522.773-.793 1.151-1.185 1.648-2.392 3.28-3.55 4.948-.306.443-.466.984-.73 1.557l-.007.008Zm-6.1-38.275c.304 0 .909-.181 1.135.035.544.518.951.243 1.43.025 5.703-2.584 11.406-5.165 17.107-7.754.351-.161.68-.368 1.112-.606-1.203-2.078-2.375-4.044-3.479-6.047-.402-.728-.799-.874-1.587-.543-6.082 2.546-12.196 5.02-18.273 7.576-3.13 1.317-6.21 2.754-9.303 4.157-1.275.578-1.28.635-.69 1.932.289.636.58 1.272.899 1.891 1.162 2.263 2.336 4.519 3.506 6.777.193-.242.241-.433.206-.611-.301-1.602.434-2.503 1.94-2.899.033-.007.073-.017.091-.04.323-.413.775-.781.938-1.249.282-.809.337-1.693.583-2.517.085-.287.459-.488.7-.731.231.246.52.459.68.744.148.26.161.596.274 1.074.206-.501.316-.844.482-1.159.291-.561.386-1.485 1.232-1.305.412.088.688.819 1.017 1.247v.003Zm45.762 26.873c.961 1.477 1.945 2.859 2.796 4.321 2.181 3.743 2.869 7.697 1.448 11.885-.193.566-.078.804.5 1.027 2.598 1.009 3.725 2.959 3.336 5.754-.131.938-.382 1.862-.623 3.017.379-.301.625-.444.809-.649 2.065-2.303 4.131-4.604 6.172-6.93.893-1.019 1.473-2.181 1.554-3.583.037-.651.321-1.285.467-1.933.459-2.031.86-4.076 1.37-6.094.439-1.743-.414-2.779-1.762-3.618-2.525-1.57-5.266-2.564-8.201-3.027-.409-.065-.893-.058-1.265.1-1.114.476-1.451.476-1.86-.676-.685-1.935-1.363-3.903-1.719-5.914-.276-1.56-.055-3.205-.055-4.852l-2.415-.388c.64 1.597 1.34 3.102 1.847 4.669 1.014 3.147.337 5.005-2.402 6.893l.003-.002Zm38.337-24.154.17-.18c-.228-.341-.439-.699-.692-1.022-.779-.996-1.592-1.965-2.36-2.969-.617-.809-.469-1.405.444-1.828a4.57 4.57 0 0 1 1.238-.376c1.516-.218 3.042-.368 4.556-.593 2.565-.386 5.143-.729 7.681-1.262.968-.203 1.927-.759 2.728-1.367.894-.679.69-1.605-.306-2.148a3.966 3.966 0 0 0-.731-.318c-3.019-.944-6.137-.902-9.154-1.012.216.438.645.927.532 1.177-.165.376-.675.751-1.099.839-2.603.536-5.211 1.094-7.844 1.447-3.289.441-6.346-.2-9.034-2.321-2.116-1.668-4.328-3.217-6.509-4.802-.354-.258-.773-.423-1.237-.674 0 1.017.148 1.903-.031 2.717-.399 1.845-.918 3.668-1.473 5.476-.211.686-.12 1.101.462 1.524 3.607 2.624 7.196 5.273 10.796 7.907.281.205.6.363 1.019.611.053-.446.083-.731.118-1.014.145-1.187.236-2.384.454-3.555.221-1.182 1.027-1.643 2.141-1.205.829.326 1.607.804 2.357 1.287 1.316.849 2.581 1.773 3.891 2.629.597.391 1.255.694 1.885 1.037l-.002-.005ZM98.449 74.259c.545.674.911 1.137 1.288 1.593 2.301 2.786 4.495 5.63 5.233 9.294.276 1.37.545 2.741.884 4.093.236.942.191 1.708-.788 2.196-.151.075-.294.278-.334.446-.736 3.202-1.444 6.412-2.194 9.614-.088.378-.377.711-.572 1.067-.377-.208-.914-.323-1.105-.644-.833-1.399-1.564-2.859-2.334-4.294-.178-.33-.377-.653-.648-1.124-.321.453-.55.731-.728 1.04-.667 1.151-1.313 2.315-1.973 3.472-1.528 2.672-2.244 2.869-4.661.941-1.925-1.534-3.71-3.242-5.557-4.872-.61-.538-1.228-1.072-1.84-1.607-.07.062-.14.127-.209.19.492 1.642 1.474 3.032 2.751 4.131 4.238 3.648 8.899 6.673 14.022 8.949 1.606.713 2.201.641 3.205-.764a79.068 79.068 0 0 0 4.343-6.795c.54-.944.826-2.113.929-3.207.487-5.228.793-10.476 1.335-15.7.198-1.922-.507-3.116-1.92-4.256-2.618-2.11-5.874-2.536-9.127-3.763Zm140.333-19.188c-.442 0-.768-.018-1.092.002-2.026.135-4.067.163-6.072.446-4.677.658-9.35 1.354-13.989 2.22-1.534.286-3.035 1.01-4.41 1.783-1.411.791-1.479 1.898-.299 3.017 1.913 1.816 4.101 3.123 6.805 3.475 4.026.529 8.045 1.117 12.061 1.723 1.501.225 1.581.318 2.191-1.104 1.622-3.776 3.161-7.586 4.807-11.562h-.002Zm-112.034 90.212c.201.083.291.153.381.153 2.533 0 5.066.008 7.599-.035.238-.005.466-.343.712-.511.53-.358 1.042-.748 1.604-1.041.538-.283 1.268-.318 1.675-.711.921-.894 1.827-1.856 2.497-2.94 1.243-2.005 2.312-4.116 3.447-6.186.414-.757 1.207-1.58 1.109-2.271-.103-.719-1.052-1.337-1.672-1.958-1.152-1.152-2.329-2.279-3.504-3.41-.522-.501-1.054-.489-1.586 0-.246.225-.522.415-.758.648a63.978 63.978 0 0 0-9.749 12.221c-1.15 1.865-1.363 3.976-1.755 6.041Zm204.647-56.342c.055-.24.1-.335.095-.43-.191-4.777-.276-9.562-.61-14.33-.316-4.504-2.412-6.572-6.868-7.603-2.48-.576-4.975-.5-7.334.61-1.351.637-1.597 1.445-.844 2.74.432.743.947 1.45 1.489 2.118 1.556 1.908 3.158 3.776 4.716 5.681 1.64 2 2.641 4.291 3.018 6.853.075.508.2 1.011.311 1.56 2.731-.581 4.292 1.159 6.022 2.801h.005Zm-98.881 24.277c-.618-.458-1.067-.856-1.576-1.144-.239-.136-.651-.168-.897-.058a2302.742 2302.742 0 0 0-16.466 7.476c-.243.113-.532.461-.535.704-.012.806.096 1.615.171 2.601.279-.355.399-.621.608-.751.529-.33 1.162-.916 1.631-.819.793.166.658 1.054.52 1.698-.339 1.555-.741 3.1-1.117 4.647-.081.328-.158.656-.239.984l.256.263 21.939-10.396-.028-.383c-1.308-.631-2.615-1.267-3.926-1.895-.928-.448-1.882-.854-2.778-1.357-.254-.143-.52-.611-.462-.854.06-.253.482-.536.785-.591.615-.113 1.258-.083 2.114-.123v-.002Zm-20.43-75.721c1.612 2.869 3.083 5.588 4.656 8.247 1.05 1.773 2.254 3.453 3.381 5.18.54.83 1.148 1.027 2.086.509 2.157-1.195 4.408-2.219 6.534-3.46 2.008-1.172 3.911-2.527 5.849-3.819.7-.466.672-.976.032-1.512-.963-.806-1.905-1.64-3.024-2.609-.206.285-.364.586-.595.814-2.056 2.035-4.044 4.148-6.213 6.059-1.679 1.477-3.067 1.044-3.835-1.064-.542-1.495-.929-3.052-1.273-4.607-1.104-4.998-2.148-10.008-3.238-15.008-.143-.656-.419-1.282-.708-2.14-1.797 2.52-3.333 4.88-4.405 7.516-.248.61.033.961.535 1.194 1.087.503 2.206.944 3.27 1.495.4.208.929.648.932.986.002.328-.543.767-.942.967-.916.453-1.887.791-3.039 1.257l-.003-.005Zm-66.909-8.743c-.324 1.304-.748 2.696-1.002 4.12-.243 1.368-.356 2.762-.434 4.152-.045.809.304 1.342 1.288 1.11.547-.129 1.127-.226 1.681-.189.442.03.866.288 1.301.446-.211.406-.327.926-.651 1.197-.632.526-1.395.896-2.083 1.364-.577.396-.585.77.015 1.232 1.21.937 2.362 1.946 3.542 2.922 2.073 1.72 4.134 3.458 6.245 5.133.279.22.914.275 1.225.11.507-.27 1.087-.566 1.017-1.415-.219-2.571-1.082-5.142.012-7.776-.427-.02-.72-.045-1.016-.048-4.526-.047-6.953-1.722-8.598-5.929-.838-2.145-1.694-4.284-2.545-6.43h.003ZM71.38 104.167c-.078.002-.158.007-.236.01-.028.501-.193 1.044-.053 1.492.357 1.127.668 2.341 1.34 3.275.942 1.309 2.104 2.501 3.33 3.565 6.317 5.496 13.35 9.908 20.805 13.718 3.301 1.688 6.592 1.888 10.066.987.454-.118.884-.323 1.323-.488.007-.101.012-.201.02-.301-.407-.253-.786-.586-1.228-.738-.878-.303-1.777-.581-2.69-.742-4.903-.853-9.662-2.158-13.841-4.937a289.177 289.177 0 0 1-12.671-8.903c-1.687-1.26-3.088-2.92-4.528-4.482-.658-.714-1.095-1.63-1.635-2.454l-.002-.002Zm86.097 49.772c-.121-2.096-.116-3.888-.352-5.651-.266-1.986-.994-2.519-3.014-2.581-2.822-.088-5.472.606-8.033 1.745-.612.273-.755.631-.592 1.244.422 1.595.198 3.085-.746 4.467a9.389 9.389 0 0 0-.951 1.747c-.163.404-.148.882-.213 1.325.447.017.893.073 1.335.042.291-.02.58-.147.861-.245 1.915-.676 3.82-1.382 5.743-2.033 1.848-.623 3.715-1.137 5.959-.063l.003.003Zm79.638-123.38c-2.425 3.225-5.618 4.301-9.531 3.748-3.78-.536-6.913-1.928-8.582-5.709-.045 1.337-.015 2.614.153 3.874.367 2.711.941 5.375 2.5 7.704.947 1.412 2.126 1.995 3.675 1.457a18.293 18.293 0 0 0 4.235-2.14c3.318-2.27 5.933-5.186 7.547-8.932l.003-.002Zm.497 30.355c3.504.448 6.137 2.419 9.034 4.152 2.048-3.403 4.116-6.72 5.66-10.386-.289-.08-.384-.133-.479-.13-3.565.108-7.129.203-10.688.355-.367.015-.796.316-1.06.606-1.408 1.563-1.772 3.596-2.467 5.4v.003ZM216.113 182.89l.118-.245c-.665-.479-1.348-.934-1.991-1.438-3.898-3.062-6.328-7.235-8.627-11.487-.793-1.47-.54-2.957.429-4.326.517-.731 1.027-1.475 1.461-2.256.359-.649.183-1.112-.665-1.067-.73.04-1.461.108-2.191.165-3.138.248-4.18-.776-3.665-3.853.653-3.898 1.461-7.772 2.171-11.66.424-2.328.788-4.667 1.18-7-.311.237-.409.513-.48.796-1.644 6.657-2.743 13.407-3.519 20.218-.318 2.809-.067 5.475 1.298 8.024 1.589 2.965 3.569 5.646 5.997 7.93 2.143 2.018 4.551 3.763 6.882 5.575.432.336 1.06.424 1.597.626l.005-.002Zm115.314-90.173c.648-2.218-1.207-3.613-3.077-4.972-.392-.286-.896-.434-1.366-.586-.238-.078-.612-.13-.765 0-.309.255-.746.658-.723.971.351 4.94-.075 9.83-.826 14.702-.12.789.246 1.052.881.789a92.714 92.714 0 0 0 4.975-2.258c.224-.108.392-.536.412-.827.175-2.418.309-4.842.487-7.819h.002Zm-.565 9.912c-.451.183-.63.253-.805.323-1.509.599-2.977 1.393-4.544 1.726-.991.21-1.24.583-1.506 1.429-.692 2.208-1.536 4.369-2.296 6.558-.083.24-.138.633-.008.786 1.283 1.504 2.784 2.694 4.857 2.854 1.361.105 1.765-.11 2.159-1.405.462-1.522.861-3.074 1.119-4.644.404-2.449.671-4.922 1.027-7.629l-.003.002Zm-177.193 19.194c-.085-.065-.171-.13-.256-.198-.234.091-.477.158-.698.273-.587.313-1.14.706-1.752.947-.392.153-1.079.28-1.26.08-.261-.288-.241-.884-.226-1.345.013-.35.198-.698.319-1.041.582-1.66 1.195-3.31 1.739-4.983a10.47 10.47 0 0 0 .455-2.235c.035-.386-.081-1.027-.319-1.137-.334-.153-.901-.018-1.273.175a5.424 5.424 0 0 0-1.41 1.089c-2.608 2.782-4.157 6.227-5.904 9.542-.088.165.218.689.467.849 1.641 1.069 3.338 2.06 4.975 3.137.494.325.825.308 1.212-.08.798-.799 1.687-1.522 2.377-2.404.63-.803 1.047-1.775 1.559-2.671l-.005.002Zm26.938 7.604c2.089-1.973 4.242-3.039 6.86-.481-.384-1.847-.755-3.385-1.014-4.942-.379-2.291-.64-4.602-1.029-6.893-.133-.781-.499-1.525-.76-2.283-.098.007-.194.015-.291.02-.154.315-.312.628-.46.944-.898 1.89-1.749 3.808-2.721 5.661-.336.641-.939 1.166-1.493 1.665-.535.48-1.283 2.343-1.007 2.856.595 1.107 1.218 2.199 1.918 3.453h-.003Zm88.647-31.282-.497.065c-.293.964-.584 1.931-.883 2.892-.321 1.034-.756 1.297-1.787.934-.909-.318-1.765-.776-2.666-1.117-1.085-.41-2.174-.836-3.298-1.096-.427-.1-1.203.102-1.376.415-.223.398-.196 1.182.07 1.558.522.738 1.178 1.524 1.966 1.915 2.673 1.325 5.424 2.491 8.15 3.708.532.238.881.015 1.12-.486.61-1.289 1.242-2.568 1.839-3.863.086-.185.113-.488.018-.648-.863-1.437-1.762-2.855-2.651-4.277h-.005Zm-150.323.218c-.08-1.12-.21-2.236-.233-3.358-.063-2.916-.11-5.836-.093-8.755.005-.929.208-1.853 1.162-2.396.241-.138.588-.553.532-.671-.251-.521-.572-1.047-.999-1.425-.138-.123-.833.095-.994.34-.484.74-.996 1.53-1.194 2.372-.41 1.74-.598 3.53-.937 5.29-.062.323-.364.714-.652.836-.166.07-.595-.288-.803-.538-.56-.67-1.065-1.39-1.592-2.088-.231.358-.301.62-.251.856.585 2.812.941 5.631.427 8.5-.03.163.344.556.56.581 1.644.186 3.293.303 5.072.454l-.005.002Zm150.65-12.99c1.102-.61 2.675-2.348 3.499-3.943.253-.493.61-1.33.396-1.59-.692-.856-1.099-2.16-2.495-2.213-2.093-.078-4.189-.115-6.285-.158-.259-.005-.597-.012-.768.133-1.531 1.312-3.098 2.596-4.518 4.02-.635.637-.266 1.373.637 1.305a19.332 19.332 0 0 0 3.886-.71c1.338-.386 2.593-1.045 3.921-1.468 1.779-.568 2.547.113 2.286 1.968-.123.874-.361 1.73-.559 2.657ZM91.461 67.408c-1.38-1.87-2.535-4.089-3.163-6.575-.06-.243-.587-.541-.88-.523-1.06.065-2.135.167-3.161.42-1.087.268-2.179.626-3.178 1.124-.999.501-1.293 1.477-.76 2.249.793 1.144 1.81 1.945 3.313 2.125 2.633.316 5.246.781 7.829 1.18Zm140.24 46.872c2.163 1.155 4.086 2.196 6.031 3.195.211.108.593.048.824-.072a140.221 140.221 0 0 0 4.505-2.384c.957-.531 1.032-.886.437-1.848-.989-1.597-2.402-2.746-4.041-3.63-.349-.188-.746-.293-1.12-.438.236.588.638.956.891 1.407.244.433.593 1.267.452 1.382-.625.508-.966-.215-1.358-.566-1.144-1.024-2.337-1.943-4.006-1.985.771.818 1.639 1.524 2.427 2.311.259.257.314.718.462 1.089-.421.035-.861.16-1.257.082-.447-.087-.846-.383-1.283-.548-.725-.273-1.466-.513-2.199-.769l-.12.273c.851.498 1.719.967 2.54 1.51.316.21.522.586.778.886-.412.11-.826.316-1.237.313-.826-.002-1.655-.117-2.731-.208h.005Zm-62.864-76.845c-.082-.148-.163-.295-.246-.44-.896.167-1.872.167-2.665.545-1.055.501-1.926 1.372-2.95 1.95-.969.547-2.008 1.02-3.07 1.343-1.034.315-1.988 1.071-1.977 2.173.017 1.805.21 3.61.328 5.416l.337.097c3.614-3.513 7.46-6.813 10.246-11.084h-.003Zm-11.923 20.018c.141.33.154.453.221.5 1.702 1.242 3.351 2.564 5.673 1.29 1.584-.871 3.105-.931 4.222.861.138.223.54.418.808.403 1.092-.06 1.941-.78 2.174-1.883.156-.738.163-1.51.234-2.268.057-.633-.221-.889-.869-.881-2.083.025-4.167.01-6.012.01.071.12.457.5.379.728-.092.283-.549.579-.883.624-1.052.145-2.121.157-3.18.258-.881.085-1.757.225-2.762.355l-.005.003Zm145.913 44.647c-.6-1.267-1.175-2.346-1.626-3.473-.372-.924-.43-1.873.283-2.734.128-.153.156-.52.06-.706-.838-1.638-.343-3.087.731-4.337.969-1.129 2.093-2.135 3.198-3.142.69-.628 1.473-1.152 2.214-1.722l-.224-.319c-2.116 1.42-4.302 2.745-6.318 4.292-1.222.939-2.291 2.136-3.22 3.373-1.225 1.63-1.105 3.032.085 4.676 1.233 1.706 2.887 2.917 4.817 4.092Zm-61.38-73.32-7.578 8.905.199.364c2.344-.709 4.696-1.395 7.023-2.151.306-.1.678-.548.708-.866.191-2.016.256-4.037-.352-6.252Zm73.697 55.182c3.901.561 5.409 3.175 6.152 6.478.043.195.098.385.131.583.535 3.443 1.059 6.885 1.601 10.328.071.446.221.881.392 1.55.846-2.554 1.393-12.113.738-13.172a19.653 19.653 0 0 0-.078 2.426c.018.728.128 1.46.073 2.18-.02.27-.394.514-.605.77-.251-.224-.66-.411-.72-.68-.154-.67-.274-1.391-.184-2.065.334-2.496-.564-4.657-1.812-6.685-1.147-1.865-3.474-2.546-5.685-1.713h-.003Zm-60.298 98.01c-.429-.666-.785-1.137-1.049-1.655-.424-.829-.936-.831-1.775-.528a169.198 169.198 0 0 1-8.602 2.887c-2.324.703-4.704 1.234-7.058 1.84 6.18-.253 12.312-.794 18.487-2.544h-.003Zm18.083-17.253a8758.91 8758.91 0 0 1-2.881 6.539c2.196.131 4.322.256 6.486.386-.133-2.947-2.746-4.354-3.607-6.925h.002ZM168.551 13.138c-4.337-3.395-13.863-3.656-18.158-.581 6.07-.96 11.991-.186 18.158.58Zm-40.209 25.788.351.096 4.398-16.948-.166-.258c-.446.24-1.014.38-1.31.74-.386.469-.65 1.09-.811 1.686-1.302 4.815-2.081 9.717-2.46 14.682l-.002.002ZM237.76 14.512c-.981-1.652-3.409-3.002-5.56-3.137-4.008-.255-7.723.761-11.228 2.646-.15.08-.268.223-.316.263 2.806-.39 5.653-.901 8.522-1.151 2.897-.253 5.786-.05 8.58 1.38h.002Zm-90.334 68.716c-.153-.992-.316-1.738-.374-2.494-.083-1.124-.74-1.78-1.762-1.808-1.375-.035-2.766.116-4.137.3-.911.124-1.104.837-.753 1.58.379.802.824 1.603 1.389 2.28.539.645 1.272 1.128 1.92 1.684l.246-.225c-.183-.932-.46-1.858-.512-2.797-.028-.48.231-1.242.577-1.402.346-.158 1.089.15 1.438.48.686.654 1.22 1.466 1.966 2.397l.002.005Zm-27.714 13.37c2.452-3.197 2.796-8.82.999-11.868-.811.045-.974.696-.979 1.27-.037 3.532-.02 7.068-.02 10.6v-.002Zm49.276 69.006c1.815-1.587 3.271-3.425 4.792-5.421l-2.95-1.357c-.396 2.439-2.098 1.375-3.197 1.367.436 1.745.866 3.466 1.355 5.411Zm48.46-74.67.033.273c2.964.228 5.931.459 9.091.701-.369-1.477-.675-2.706-1.014-4.058l-8.112 3.087.002-.003Zm-37.144-35.438h-6.971c-2.131 0-2.181.083-1.22 2.058.61 1.257.921 1.42 2.274 1.084 2.199-.545 4.097-1.702 5.919-3.142h-.002Zm91.104 110.323-.271-.165c-.078.055-.163.103-.231.17-2.628 2.637-5.261 5.268-7.877 7.92-.359.363-.622.821-.928 1.237 2.254-.381 4.096-1.475 5.891-2.664a.85.85 0 0 0 .253-.306c1.057-2.061 2.109-4.126 3.163-6.189v-.003ZM229.158 41.49c-1.662.523-3.012 1.104-4.42 1.352-1.559.273-2.829-.56-3.951-1.692.366 1.612.778 3.152 1.338 4.634.364.964.926 1.132 1.706.476 1.77-1.485 3.449-3.077 5.327-4.77Zm26.984 139.935c3.343-.445 8.968-4.239 9.902-6.477-1.519.511-3.128 1.034-4.722 1.6-.293.105-.549.353-.785.576a358.758 358.758 0 0 0-3.464 3.29c-.294.283-.555.603-.931 1.016v-.005ZM139.105 152.72c.103 0 .206.002.309.005l4.352-5.459c-.271-.195-.584-.608-.941-.646-1.084-.115-2.186-.112-3.281-.085-.153.005-.419.403-.424.624-.035 1.853-.02 3.708-.02 5.561h.005ZM161.35 37.97c-4.355 2.046-8.095-.273-11.978-1.98 1.207 3.975 8.381 5.848 11.978 1.98ZM150.285 62.19c-1.147.764-2.452 1.625-3.752 2.499-.633.426-.884 1.565-.344 2.003.931.756 1.963 1.395 3.017 2.126.399-2.459.763-4.687 1.079-6.628Zm108.65 100.994c-2.025.151-3.813.782-5.065 2.469-.151.205-.294.486-.284.724.013.37.055.841.286 1.064.159.152.711.057.992-.1 1.744-.969 3.032-2.414 4.071-4.157Zm-134.306 18.13c.972-.075 1.788-.13 2.601-.2.765-.065.994-.526.934-1.235-.116-1.359-1.117-2.148-1.961-3.295-.554 1.665-1.036 3.118-1.574 4.73Zm52.976-57.058c.116 0 .234-.005.349-.005.136-.656.515-1.377.359-1.956-.361-1.334-.949-2.611-1.516-3.883-.208-.468-.615-.849-.931-1.267l-.342.183c.086 2.484.999 4.73 2.084 6.928h-.003Zm154.523-24.134.251.17c.436-.49 1.152-.928 1.26-1.482.396-2.06-.123-4.018-1.155-5.859l-.354 7.171h-.002ZM206.266 131.44c-1.544-2.684-.537-5.523-.5-8.307-1.016.15-1.561.566-1.461 1.642.076.824-.04 1.665.02 2.491.118 1.645 1.228 2.832 1.943 4.174h-.002Zm52.727 45.909-.223-.406-4.609 2.003c.444.604.798 1.09 1.172 1.598l3.66-3.195Zm12.179-104.146-5.359 3.117h4.669c-1.732-1.7.288-2.238.693-3.117h-.003ZM161.51 53.969l.028.33h8.326l.178-.222c-.236-.2-.482-.584-.708-.574-2.61.12-5.216.3-7.824.466Zm-25.023 24.289c.101.108.204.213.304.32 1.23-1.094 2.46-2.185 3.69-3.28l-.231-.262c-1.634.633-3.007 1.57-3.765 3.222h.002Zm109.333 62.694c2.156.593 4.393 1.209 6.762 1.863-1.892-1.543-5.09-2.366-6.762-1.863Zm-50.9-94.96.306.028c.264-2.842.53-5.684.793-8.523l-.321-.03c-.258 2.842-.519 5.683-.778 8.525Zm21.675-22.882 1.162 3.626c.143-.817.113-1.603.151-2.389.037-.826-.199-1.35-1.313-1.24v.003Zm-50.564 37.66c-.914-1.24-1.639-1.273-2.894-.266.959.087 1.822.168 2.894.265Zm14.406-14.36c0 .065.002.13.005.195.484.07.971.193 1.456.19.218 0 .436-.252.655-.392-.244-.17-.51-.504-.728-.474-.475.063-.926.31-1.386.481h-.002Zm65.039 125.433a6.79 6.79 0 0 0-.04-.235l-4.087.451c.008.075.016.147.026.222l4.101-.435v-.003Z" fill="#000"/></svg>