<svg width="388" height="154" viewBox="0 0 388 154" fill="none" xmlns="http://www.w3.org/2000/svg"><path d="M233.424 93.664c-.564-.723-1.11-1.332-1.549-2.014a12.96 12.96 0 0 1-1.126-2.163c-.293-.72-.564-1.539.071-2.216.658-.702 1.512-.514 2.288-.238 3.472 1.237 6.142 3.535 8.332 6.45.143.19.269.394.412.583.037.047.113.063.343.186.034-.514.133-.965.083-1.398-.235-2.082-1.123-3.915-2.304-5.6-.196-.279-.729-.478-1.092-.457-2.558.15-4.82-.58-6.801-2.187a5.302 5.302 0 0 1-1.021-1.128c-1.074-1.594-.627-2.674 1.16-3.036-.496-.627-1.129-1.214-1.497-1.94-.664-1.304-.037-2.232 1.419-2.227.535 0 1.086.09 1.606.23.716.192.909-.107.923-.76.039-2.176.086-4.355.161-6.531.029-.847.121-1.697.225-2.539.115-.925.609-1.544 1.594-1.518 2.67.076 5.342.139 8.005.34.87.066 1.212-.096 1.395-.946.245-1.15.627-2.276.982-3.521-.549-.087-1.003-.215-1.46-.223-2.545-.04-5.087-.034-7.632-.079-.726-.013-1.013.218-1.018.994-.006.805-.149 1.628-.356 2.41-.086.32-.46.7-.77.773-.199.047-.677-.362-.758-.647-.319-1.107-.614-2.237-.729-3.378-.039-.388.473-.834.875-1.484-.535-1.067-1.175-2.444-1.923-3.758-.146-.254-.7-.32-1.081-.383-.774-.128-1.785-.128-1.923-1.009-.118-.758.256-1.626.549-2.394.091-.244.645-.283.943-.485.295-.202.736-.467.765-.74.358-3.309 2.304-5.438 5.066-6.949 3.328-1.822 6.829-2.44 10.494-1.187 2.775.949 4.648 2.766 5.016 5.829.149 1.245.311 2.499.33 3.752.021 1.419-.455 1.82-1.876 1.71-4.46-.349-8.919-.732-13.379-1.083a52.9 52.9 0 0 0-3.352-.152c-.41-.006-1.081-.255-1.04.54.034.642.16 1.256 1.09 1.285 2.709.086 5.418.286 8.127.377 3.117.105 6.239.142 9.356.215.849.019 1.108.36.624 1.057-.642.928-1.429 1.77-2.218 2.586-.433.448-1 .763-1.431 1.085.671.522 1.554.868 1.774 1.458.321.868.318 1.933.182 2.874-.167 1.164-.525 2.323-1.585 3.097-.191.139-.191.543-.28.823-.196.609-.303 1.27-.606 1.818-.779 1.402-1.56 1.56-2.916.655l-.415 2.229c.771-.464 1.345-.884 1.978-1.183 1.839-.865 2.954-.16 2.876 1.865-.047 1.22-.227 2.441-.449 3.642-.426 2.32-.128 4.46 1.295 6.4.604.822 1.116 1.71 1.722 2.529 2.662 3.616 4.084 7.656 4.151 12.156.04 2.583.092 5.166.029 7.746-.042 1.749-.274 1.773-1.881 2.344-3.396 1.204-6.369 3.163-9.071 5.533-.162.142-.169.7-.026.91.57.824 1.602 1.133 2.642.609a37.206 37.206 0 0 0 4.454-2.636c1.727-1.198 3.341-2.562 5.016-3.836 1.176-.894 1.204-.771 2.09.383 1.884 2.449 3.856 4.833 5.857 7.19 7.634 8.986 15.312 17.933 22.925 26.94 1.422 1.681 2.683 3.514 3.88 5.368.726 1.125 1.165 2.436 1.776 3.64.123.238.471.55.682.529 3.326-.361 6.644-.776 10.14-1.195-3.582-4.264-5.369-9.107-7.211-13.867-4.248-10.973-8.284-22.029-12.457-33.034-1.324-3.496-2.779-6.944-4.227-10.395-.554-1.319-.611-1.276-1.912-.804-.572.207-1.16.414-1.758.485-1.246.152-2.056-.784-1.651-1.978.29-.852.809-1.625 1.329-2.63-.514-.445-1.157-.973-1.763-1.539-2.08-1.946-4.225-3.83-6.192-5.884-1.337-1.395-1.792-3.25-2.249-5.15-1.069-4.455-2.409-8.847-3.671-13.255-.674-2.352-1.416-4.686-2.126-7.03-.04-.132-.066-.265-.094-.4-.484-2.364.034-2.928 2.424-2.637.162.02.329.02.763.05-.421-.443-.687-.716-.946-1-1.776-1.916-3.616-3.78-5.306-5.773-1.4-1.647-1.398-2.363-.128-4.089 2.613-3.55 5.891-6.36 9.703-8.572 1.599-.925 3.093-.91 4.541.213 3.001 2.331 6.058 4.597 8.953 7.056 2.816 2.397 5.457 5 8.177 7.513.136.126.274.246.486.294-.496-.68-1.027-1.338-1.479-2.043-.569-.889-.258-1.558.776-1.799 1.544-.362 3.794 1.566 3.911 3.354.013.194 0 .393 0 .595.549.058 1.058.06 1.541.181.343.087.729.26.951.52.74.86 1.382 1.803 2.124 2.663.755.874.876 1.752.168 2.667-.429.556-.361.96.054 1.519 1.325 1.777 1.403 3.812.852 5.852-1.424 5.26-1.729 10.662-2.197 16.048-.097 1.115-.405 2.21-.656 3.52 2.017 1.095 2.548 3.607 3.684 5.684 8.109 14.829 16.198 29.668 24.21 44.546 2.548 4.728 4.854 9.584 7.25 14.391.243.488.478.713 1.069.674 4.733-.317 9.473-.598 14.209-.897.188-.013.374-.089.635-.155-.635-1.57-1.322-3.047-1.837-4.581-3.934-11.703-7.934-23.385-11.722-35.132-3.519-10.909-6.806-21.893-10.192-32.843-.07-.228-.19-.464-.169-.687.021-.236.128-.53.3-.666.102-.079.449.05.606.178.23.189.392.464.58.705 7.114 9.105 14.171 18.256 21.373 27.29 2.26 2.834 4.891 5.373 7.404 7.997.653.685 1.5 1.183 2.257 1.765l.296-.262c-.118-.286-.204-.59-.358-.855-2.934-5.019-5.714-10.14-8.875-15.012-2.101-3.236-4.629-6.217-7.177-9.128-4.026-4.6-8.227-9.044-12.357-13.552-.159-.175-.35-.322-.52-.49-1.189-1.167-2.484-1.859-4.263-2.022-2.443-.223-4.852-.912-7.255-1.479-.711-.167-1.406-.521-2.036-.907-1.395-.852-1.486-1.74-.269-3.068-.431-.18-.823-.325-1.196-.506-.915-.443-1.866-.834-2.72-1.371-2.009-1.267-2.009-2.247.319-3.745-.405-.225-.779-.343-1.032-.59-.645-.627-.943-1.371-.692-2.315.07-.265-.105-.664-.285-.915-.275-.378-.711-.64-.98-1.023-.899-1.288-.436-2.714 1.105-2.955 1.244-.194 2.55 0 3.828.044.365.014.728.105 1.34.2-.515-.63-.875-1.096-1.262-1.542-4.807-5.546-9.622-11.087-14.424-16.64-.366-.423-.666-.659-1.285-.441-2.485.868-4.601.126-6.404-1.668-1.337-1.33-2.249-2.947-2.455-4.822-.11-1.002-.541-1.267-1.401-1.474-4.023-.962-8.028-1.99-12.041-2.997-.23-.058-.454-.137-.679-.215-1.313-.458-2.22-.052-2.72 1.22-.324.823-.593 1.677-1.016 2.446-.178.322-.739.695-1.053.64a123.19 123.19 0 0 1-7.367-1.5c-.546-.131-.967-.745-1.481-1.078-.345-.223-.745-.44-1.14-.493a105.144 105.144 0 0 1-21.148-5c-1.4-.491-2.733-1.186-4.068-1.85-.867-.43-1.348-1.184-1.546-2.155-.672-3.26-.269-6.377 1.298-9.3.954-1.779 2.419-2.738 4.543-2.686 4.337.102 8.546 1.015 12.747 1.951 4.535 1.012 9.065 2.066 13.321 4.02.476.218.771.15 1.124-.28.243-.297.736-.562 1.105-.543 2.231.097 4.462.23 6.682.461.776.081 1.751.283 1.871 1.282.128 1.068-.839 1.385-1.599 1.72-1.356.601-2.774.562-4.193.252a20.35 20.35 0 0 1-1.672-.438c-2.022-.624-2.051-.64-2.678 1.34-.974 3.081-1.902 6.176-2.842 9.27-.086.283-.12.584-.186.904 1.092.318 1.905.071 2.305-.957.504-1.295.914-2.63 1.387-3.938.426-1.18.794-2.394 1.345-3.517.685-1.395 1.591-1.715 3.112-1.434 1.087.202 2.202.25 3.273.506.664.157 1.241.656 1.9.865 9.768 3.082 19.544 6.144 29.317 9.204 1.55.485 3.007 1.096 3.851 2.617.181.325.384.648.507.997.447 1.264-.034 2.281-1.351 2.396-1.815.158-3.652.08-5.478.08-.847 0-1.696-.08-2.542-.066-.269.005-.536.188-.802.29.016.106.031.213.044.318.377.04.755.113 1.132.113 1.308 0 2.257.482 3.067 1.615a2163.505 2163.505 0 0 0 15.335 21.13c.387.527 1.126.794 1.701 1.182l.144-.246c-.802-1.524-1.698-3.008-2.375-4.586-.543-1.27-.928-2.63-1.186-3.989-.303-1.602.494-2.69 2.038-3.175.564-.179 1-.04 1.097.535.342 2.008 1.74 3.26 3.14 4.5 3.211 2.852 6.223 5.892 8.619 9.476.88 1.316 1.672 2.738 2.236 4.214 1.92 5.027 3.47 10.172 4.499 15.463.334 1.723.235 2.184-.556 3.008.316.288.629.577.943.868.705.653 1.546 1.211 2.09 1.98 1.332 1.885 2.518 3.875 3.783 5.81 3.495 5.347 7.027 10.67 10.486 16.038 1.455 2.257 2.788 4.594 3.404 7.263.105.449.405.858.643 1.269 6.377 11.161 12.768 22.313 19.121 33.486.473.831.98 1.206 1.962 1.248 2.608.113 5.207.365 7.809.564.201.016.447-.013.596.089.219.15.371.401.551.608-.235.145-.473.42-.7.41-1.625-.071-3.248-.192-4.873-.31-1.115-.081-2.228-.194-3.344-.273-.227-.015-.561-.036-.676.095-.881 1.009-2.106 1.051-3.269 1.156-3.451.315-6.904.378-10.335-.265a6.05 6.05 0 0 1-.982-.262c-.63-.236-1.244-.566-1.108-1.366.134-.774.714-1.133 1.482-1.122 1.763.023 3.526.042 5.287.112 2.195.087 4.387.218 6.811.344-.209-.472-.311-.771-.462-1.038-6.085-10.662-12.177-21.319-18.262-31.981-.303-.532-.561-.865-1.324-.771-.523.066-1.223-.259-1.649-.634-1.703-1.5-3.446-2.982-4.971-4.657-8.363-9.183-15.801-19.119-23.294-29.007-.222-.294-.454-.58-.831-.805.484 1.602.944 3.215 1.453 4.809 5.677 17.789 11.336 35.586 17.07 53.356 1.137 3.525 2.584 6.947 3.896 10.416.12.317.284.616.446.918.834 1.549.721 1.736-.995 1.835-4.771.278-9.544.569-14.312.873-.352.024-.799.097-1.024.326-1.512 1.539-3.404 1.484-5.308 1.305-.319-.031-.606-.43-.907-.658.246-.322.429-.823.745-.933a15.435 15.435 0 0 1 2.952-.719c.935-.126 1.074-.474.671-1.266-1.998-3.941-3.887-7.946-5.985-11.834-8.572-15.893-17.206-31.75-25.812-47.625-.42-.776-.744-1.612-1.207-2.36-.332-.535-.786-1.015-1.256-1.44-.52-.466-1.038-.43-1.612.08-3.619 3.206-7.483 6.083-11.644 8.542-.413.244-.667.415-.418 1.02 2.173 5.318 4.352 10.636 6.426 15.993 4.298 11.1 8.504 22.237 12.815 33.331.747 1.925 1.782 3.745 2.753 5.575.573 1.072 1.215 2.095 2.433 2.646.765.346.663 1.206-.201 1.513-1.145.406-2.333.755-3.533.918-2.886.393-5.789.668-8.686.975-.329.034-.687 0-1.006-.086-.651-.179-.805-.774-.233-1.094.758-.422.593-.923.288-1.426-.93-1.54-1.772-3.163-2.892-4.553-4.711-5.847-9.458-11.668-14.296-17.408-5.102-6.052-10.33-12.002-15.492-18.005-.507-.59-.946-1.237-1.49-1.953-.344.241-.671.456-.984.69-2.158 1.591-4.306 3.196-6.474 4.775-.437.317-.928.563-1.411.81-2.37 1.206-3.349 1.088-5.546-.816-.045.583-.212 1.049-.084 1.406.538 1.502 1.079 3.013 1.774 4.447 5.013 10.319 10.756 20.236 16.495 30.153.155.265.194.598.288.899-.34.076-.685.239-1.019.221-8.527-.52-17.052-1.06-25.577-1.592-.321-.021-.645 0-.98 0 .238 2.137.061 2.444-1.954 2.297-2.597-.189-5.183-.561-7.761-.941-.714-.105-1.801-.187-1.74-1.196.06-1.002 1.152-.955 1.875-1.01 2.093-.162 4.196-.207 6.294-.291.36-.015.721 0 1.283 0-.314-.655-.515-1.146-.771-1.607-4.773-8.63-9.583-17.239-14.317-25.889-2.236-4.086-4.295-8.265-6.497-12.372-1.562-2.913-1.753-5.968-1.121-9.122.591-2.958.413-5.816-.324-8.77-.703-2.813-.899-5.76-1.207-8.663-.177-1.668-.107-1.707-1.698-1.87-1.625-.166-2.605.562-2.942 2.182-.347 1.665-.731 3.323-.392 5.048.079.396.108.834.016 1.217-.089.375-.363.705-.554 1.054-.277-.328-.734-.627-.791-.989-.12-.76.039-1.56-.039-2.331a154.46 154.46 0 0 0-.792-6.359c-.029-.2-.478-.42-.766-.488-1.416-.338-2.847-.608-4.266-.941-1.037-.244-1.51-.868-1.405-2.006.29-3.15.501-6.304.77-9.456.055-.629.029-1.02-.757-1.106-.789-.087-.907.283-.962.918-.183 2.134-.475 4.26-.582 6.4-.058 1.133.183 2.282.287 3.425.024.27.125.569.039.8-.091.254-.332.58-.554.621-.209.037-.585-.202-.692-.42-.175-.35-.219-.778-.274-1.177-.376-2.745-1.907-4.812-3.859-6.631-.097-.09-.227-.145-.35-.2-.055-.023-.131-.005-.355-.005.115.55.143 1.096.342 1.568a595.248 595.248 0 0 0 3.435 7.953c.327.743.928 1.076 1.738 1.225 2.335.43 4.475 1.364 6.34 2.853.633.504 1.395 1.12.938 2.04-.46.926-1.424.934-2.33.768-1.97-.354-3.407-1.607-4.794-2.923-.395-.373-.8-.75-1.113-1.188-.455-.638-.98-.742-1.677-.48-.695.26-1.014.734-1.035 1.466-.034 1.18.551 2.1 1.301 2.897.22.234.745.268 1.124.25 2.787-.124 5.384.558 7.832 1.838.59.309 1.155.731 1.617 1.211.786.818.604 1.822-.468 2.19-.77.264-1.672.372-2.476.26-2.631-.373-4.82-1.726-6.866-3.357-.334-.268-1.008-.614-1.173-.483-.402.323-.666.879-.846 1.39-.113.323 0 .74.062 1.106.128.753.442 1.039 1.351 1.052 3.958.06 7.498 1.434 10.552 3.947.462.38.883 1.305.737 1.806-.149.506-.98 1.03-1.589 1.149-3.448.666-6.296-.706-8.869-2.859-.727-.608-1.45-1.216-2.177-1.83.178.611.228 1.466.638 2.074 1.343 1.99 2.589 4.133 4.292 5.78 3.47 3.356 5.074 7.415 6.03 12.059 2.187 10.628 4.679 21.19 7.085 31.771.337 1.487.899 2.924 1.338 4.387.102.338.138.695.214 1.091-1.575 0-3.023.031-4.467-.008-3.018-.081-6.033-.268-9.048-.291-14.854-.121-29.712-.21-44.567-.268-.567 0-1.136.42-1.7.659-.429.183-.855.576-1.265.555-2.396-.125-4.786-.338-7.174-.542-.259-.021-.53-.147-.752-.291-.586-.381-.554-.984.091-1.243.397-.16.857-.215 1.291-.223 2.171-.032 4.342-.079 6.513-.021.953.026 1.554-.226 1.805-1.191 1.011-3.878 2.158-7.727 3.028-11.637 1.22-5.478 2.218-11.003 3.365-16.496.167-.808-.05-1.167-.779-1.304-2.064-.382-4.117-.852-6.194-1.098-2.738-.323-5.27-1.238-7.759-2.337-.306-.136-.614-.27-.988-.435-4.783 11.477-9.183 23.083-15.894 33.682.446.074 1.016.105 1.538.281.343.115.614.438.917.668-.227.294-.397.714-.695.853-.794.369-1.627.7-2.479.899-1.385.323-1.868-.128-1.831-1.639-.235-.044-.486-.133-.737-.136-12.072-.139-24.145-.275-36.218-.388-.402-.003-.81.238-1.212.377-.776.265-1.541.74-2.322.763-1.996.061-3.997-.076-5.996-.141-.27-.008-.57 0-.797-.116-.274-.138-.486-.403-.726-.61.238-.247.444-.661.716-.711a32.96 32.96 0 0 1 3.527-.451c1.52-.11 3.049-.171 4.572-.186.713-.008 1.233-.215 1.62-.824 2.732-4.303 5.567-8.543 8.187-12.911 2.71-4.518 5.212-9.16 7.814-13.743.468-.826.763-1.61-.125-2.36-.12-.103-.238-.289-.243-.438-.06-1.642-1.239-2.68-2.111-3.855-2.028-2.727-4.13-5.399-6.208-8.089-.222-.289-.48-.549-.734-.832-12.605 13.809-25.148 27.544-37.625 41.214 1.19-.16 2.51-.378 3.837-.509 1.996-.197 3.938.12 5.745.973.505.238 1.147.831 1.173 1.292.047.813-.849.868-1.463.895-2.063.089-4.138.23-6.197.123-6.024-.32-12.048-.687-18.063-1.157-6.048-.472-12.085-1.08-18.128-1.649-1.468-.139-1.599-.475-.773-1.694 13.107-19.331 26.211-38.664 39.321-57.995 15.056-22.2 30.12-44.394 45.163-66.604.512-.758.987-1.065 1.805-.493.209.146.481.199 1.019.409.507-2.318 1.016-4.518 1.46-6.734.126-.624.079-1.288.058-1.93-.024-.726-.499-.907-1.037-.574-.627.388-1.254.844-1.719 1.405-.996 1.201-1.9 2.48-2.814 3.747-.823 1.138-1.338 1.448-2.675 1.018-1.706-.548-3.355-1.277-5.03-1.928-1.598-.621-3.197-1.24-4.796-1.859-.037.097-.073.194-.112.291 1.567.609 3.153 1.172 4.694 1.838a76.551 76.551 0 0 1 4.779 2.26c.587.305 1.115.782 1.575 1.27.849.9.854 1.762.146 2.759-8.686 12.219-17.425 24.4-26.041 36.668-11.723 16.69-23.409 33.41-35 50.192-7.843 11.357-15.511 22.834-23.223 34.283-.612.905-.902 2.022-1.456 2.974-.253.435-.783.71-1.186 1.059-.211-.396-.425-.792-.637-1.188.065-.107.13-.218.199-.328-1.325-.131-2.652-.377-3.977-.367-3.184.026-6.37.192-9.554.249-.501.008-1.434-.23-1.444-.398-.055-.915.796-.64 1.274-.666 4.635-.249 9.272-.687 13.902.123.295.052.796-.273.993-.566 4.06-6.079 7.989-12.246 12.142-18.256a16134.854 16134.854 0 0 1 44.45-63.995c9.073-12.986 18.298-25.866 27.458-38.79.392-.556.802-1.1 1.212-1.64.4-.524.371-1.054-.118-1.447-.684-.548-1.379-1.138-2.168-1.49-2.54-1.13-5.126-2.155-7.689-3.235-.687-.289-1.379-.585-2.006-.98-.253-.16-.504-.64-.444-.9.063-.27.51-.645.781-.64.97.024 1.996.02 2.895.338 2.17.766 4.282 1.707 6.419 2.578 2.973 1.211 2.96 1.2 4.802-1.38.65-.91 1.374-1.77 2.095-2.627.282-.333.629-.621.982-.881.789-.58 1.667-1.086 2.631-.564.946.514.998 1.568.849 2.452-.4 2.376-.901 4.736-1.447 7.083-.314 1.34-.377 1.284.948 1.675.972.286 1.91.695 2.869 1.033.606.213 1.212.457 1.839.577.844.163 1.4-.312 1.212-1.143-.214-.944-.64-1.846-1.042-2.732-.084-.181-.479-.229-.737-.315-.363-.123-.734-.228-1.103-.341.267-.357.478-.957.808-1.033 2.401-.55 4.791-1.196 7.312-.619 6.61 1.513 13.253 2.887 19.845 4.479 3.057.737 6.05 1.778 9.018 2.832 1.257.445 2.425 1.209 3.546 1.956 1.11.74 1.476 1.872 1.285 3.217-.541 3.84-3.804 6.787-8.047 7.09-1.272.093-2.617.095-3.838-.225a2141.706 2141.706 0 0 1-25.145-6.77c-1.199-.33-2.364-.855-3.48-1.419-1.403-.705-1.447-1.54-.235-2.567.384-.325.81-.603 1.306-.97-.193-.097-.316-.181-.452-.22-1.847-.554-3.72-1.028-5.531-1.681-.875-.318-1.342-.333-1.669.642-.225.669-.596 1.298-.972 1.904-1.181 1.898-2.129 1.935-3.508.01L21.35 145.663l30.305 2.556c.765-1.004 1.267-1.785 1.886-2.459 8.854-9.632 17.74-19.231 26.58-28.873 3.72-4.057 7.347-8.2 11.02-12.301.718-.803.945-.813 1.65.1 2.684 3.466 5.346 6.951 8.016 10.428.178.231.358.459.47.603-.125-2.564-.514-5.192-.295-7.767.165-1.94-.488-3.133-1.84-4.235-.83-.679-1.606-1.426-2.259-2.011-.758.666-1.345 1.293-2.043 1.754-.418.276-1.003.297-1.513.43.055-.498-.065-1.135.196-1.465.7-.876 1.586-1.6 2.357-2.423.261-.28.51-.659.577-1.026.491-2.638 1.113-5.268 1.354-7.932.485-5.352 2.753-9.54 7.119-12.725 1.894-1.382 3.435-3.255 5.125-4.912.29-.283.523-.627.805-.92.998-1.036 1.523-1.102 2.738-.365.862-1.193.807-1.49-.154-2.452-.298-.296-.562-.852-.504-1.24.297-2.045.35-4.24 1.186-6.054.669-1.453.752-2.798.841-4.256.402-6.595 6.479-11.863 13.036-11.315 3.329.278 6.174 2.866 7.402 6.582 1.183 3.579.475 6.788-1.727 9.718-.995 1.324-2.14 2.533-3.263 3.846.865.771.478 1.495-.191 2.148-.943.923-1.881 1.862-2.902 2.688-.612.493-1.435.836-2.096.055-.627-.742-.13-1.424.358-2.004.787-.928 1.625-1.814 2.576-2.866-3.733-1.442-7.563-2.918-11.39-4.397l-.293.286c.426.729.747 1.552 1.301 2.16.818.9 1.803 1.644 2.717 2.457 1.369 1.217 2.871 2.337 2.853 4.469 0 .18.455.432.742.54 2.16.807 2.437 1.282 1.377 3.359-1.714 3.359-3.561 6.647-5.22 9.718.499.923 1.28 1.72 1.246 2.48-.034.763-.878 1.49-1.455 2.366 1.225 1.562.901 3.08-.904 4.305.196.318.342.543.478.774.575.988.483 1.89-.327 2.688a4.21 4.21 0 0 1-1.063.773c-.938.462-1.907.69-1.758 2.211.094.975-.886 1.738-1.881 1.854-1.191.136-2.414.002-3.624-.027-.256-.005-.509-.073-.676-.099.065 3.002-1.16 5.498-2.587 7.937-.269.459-.439.973-.695 1.44-.258.472-.493.988-.864 1.355-.701.687-1.453 1.34-2.26 1.894-.941.642-1.244 1.426-.99 2.525.329 1.429-.024 2.716-.763 3.991-3.705 6.38-7.326 12.809-11.051 19.179-1.421 2.428-3.05 4.733-4.674 7.234.486.024.901.063 1.32.063 8.106.024 16.213.008 24.319.076 3.593.032 7.185.215 10.777.37.752.031 1.348-.128 1.745-.774 1.508-2.457 3.253-4.803 4.449-7.407 3.692-8.029 7.172-16.158 10.73-24.25.11-.25.185-.512.274-.769.413-1.181 1.206-1.585 2.38-1.211-1.714-3.506-1.951-7.353-2.628-11.09-.656-3.613-.405-7.174.703-10.688 1.275-4.04 2.168-8.144 2.012-12.432-.034-.936.172-1.898.368-2.826.441-2.093 1.202-2.42 3.075-1.293.052-.755.102-1.455.146-2.156.282-4.376.494-8.76.867-13.129.257-3.013 1.176-3.939 4.128-4.605 3.182-.72 6.422-.705 9.614-.272 3.551.482 7.065 1.237 10.586 1.922 1.892.367 2.84 1.55 2.817 3.524-.06 5.407-.058 10.814-.165 16.218-.029 1.42.034 2.636.883 3.926.972 1.474 1.544 3.233 2.169 4.914.585 1.576.391 3.18-.411 4.644-1.126 2.056-2.377 4.038-3.5 6.096a7.558 7.558 0 0 0-.816 2.355c-.465 2.853-.854 5.717-1.251 8.58-.201 1.448-.987 2.276-2.445 2.41-1.518.139-3.044.194-4.551.393-.499.066-1.082.352-1.411.724-2.73 3.107-4.018 6.865-4.82 10.859a1608.005 1608.005 0 0 1-4.486 21.68c-.397 1.846-1.079 3.627-1.635 5.452l56.773.566c0-.018.031-.181-.006-.328-2.309-9.901-4.634-19.803-6.933-29.707-.768-3.314-1.518-6.631-2.19-9.967-.415-2.069-1.606-3.637-2.918-5.171-1.763-2.066-3.587-4.088-5.212-6.262-.771-1.033-1.243-2.333-1.651-3.579-.198-.611.076-1.369.11-2.064.015-.351.052-.734-.055-1.056-.585-1.752-.588-3.357.873-4.505-.429-1.288-.993-2.46-1.187-3.692-.237-1.508.761-2.37 2.226-2.827-.169-.378-.311-.671-.436-.97-1.102-2.596-2.228-5.182-3.287-7.796-.235-.582-.323-1.259-.331-1.894-.013-1.054.768-1.591 1.614-1.004 1.035.721 1.918 1.678 2.801 2.599.436.456.726 1.057 1.223 1.806.167-1.573.305-2.931.457-4.287.109-.98.269-1.956.347-2.937.071-.9.523-1.227 1.351-1.007 1.04.278 1.821.231 2.168-1.046.167-.619.758-.983 1.466-.776.58.168.789-.102.951-.593.245-.742.47-1.505.836-2.19.334-.626.846-1.156 1.319-1.78l-3.589-.37c.117.446.229.722.256 1.008.047.532.23 1.172.013 1.58-.28.528-.873 1.183-1.377 1.225-.823.069-.841-.82-.849-1.46-.008-.677.109-1.356.109-2.035 0-.632-.096-1.264-.128-1.899-.023-.469-.138-.986.008-1.403 1.646-4.677 3.284-9.363 5.053-13.997.449-1.177 1.306-2.218 2.077-3.246.718-.96 1.737-1.353 2.965-1.19 1.074.141 2.166.165 3.234.327 3.073.467 5.058 2.169 5.408 5.242.361 3.16.322 6.372.343 9.563.01 1.66-.222 3.325-.356 4.985-.146 1.81-.305 1.98-2.064 2.307-.122.024-.245.037-.585.09.528.167.847.264 1.163.37 1.293.432 1.648 1.232.784 2.304-1.231 1.53-2.621 2.935-3.995 4.343-.183.189-.698.141-1.032.076-2.563-.501-5.118-1.033-7.678-1.553-.395-.078-.792-.136-1.207-.207-.512.947.089 1.088.734 1.193 3.078.504 6.158.994 9.233 1.516.966.165 1.922.414 2.879.637.786.184 1.175.661.982 1.49-.813 3.477-1.602 6.962-2.492 10.42-.107.412-.763.682-1.377 1.196-.094 2.447.183 5.176.739 7.874.335 1.631 1.022 3.234 1.077 4.865.081 2.355-.189 4.735-.46 7.088-.282 2.43-.149 4.748 1.024 6.943 3.702 6.925 7.372 13.869 11.114 20.776 3.464 6.398 7.009 12.754 10.499 19.139.309.562.625.85 1.309.887 7.953.435 15.905.91 23.858 1.366.535.031 1.074.005 1.792.005-.212-.435-.363-.784-.546-1.117-4.859-8.853-9.75-17.684-14.562-26.563-1.017-1.875-1.745-3.907-2.587-5.876-.41-.963-.418-1.883.217-2.809.209-.304.251-.868.126-1.229-1.307-3.808-.108-6.792 2.92-9.191.818-.648 1.672-1.251 2.373-1.773a4896.95 4896.95 0 0 1-4.711-4.484c-.117 1.225-.185 2.554-.389 3.865-.277 1.778-.559 3.564-1.019 5.3-.457 1.723-1.251 2.284-3.004 2.032-1.45-.207-2.877-.698-4.267-1.193-.742-.265-1.058-.923-.668-1.757.128-.273.177-.585.271-.876.632-1.951.742-3.639-1.275-5.061-1.016-.716-1.664-2.04-2.307-3.186-.969-1.728-.514-2.656 1.443-3.144l-.006-.008Zm-60.783-14.928c.063-.212.115-.307.118-.404.123-5.063.441-10.134.295-15.19-.105-3.697.392-3.49-3.752-4.61-4.01-1.083-8.13-1.558-12.271-1.589-2.082-.016-4.182.291-6.251.6-1.552.234-2.576 1.165-2.681 2.861-.366 5.934-.734 11.871-1.079 17.808-.021.356.149.726.251 1.085.635 2.216.899 4.474.575 6.76-.243 1.713-.836 3.404-.87 5.111-.081 4.043.115 8.092.115 12.138 0 1.149.504 1.626 1.507 1.925 4.875 1.453 9.865 2.119 14.931 2.25.415.01.977-.31 1.241-.653a193.623 193.623 0 0 0 4.655-6.317c.29-.409.502-1.01.46-1.495-.097-1.101-.259-2.226-.601-3.272-.624-1.901-1.476-3.732-2.095-5.635-.531-1.637-.201-2.164 1.33-2.759-1.79-3.865-1.787-4.051.013-5.556-.384-.87-.849-1.707-1.124-2.602-.316-1.025.288-1.885 1.351-1.919.687-.024 1.416.136 2.064.378.619.23 1.155.679 1.818 1.085ZM298.369 60.56c-1.531 1.754-2.944 3.577-4.572 5.179a47.235 47.235 0 0 1-5.342 4.544c-1.351.984-2.908 1.723-4.455 2.381-1.039.443-1.889.047-2.299-.9-.598-1.379-1.68-2.136-3.028-2.506-1.598-.438-3.231-.748-4.854-1.094-2.947-.629-3.673-1.468-4.229-4.413-.379-1.995-.839-3.999-1.523-5.902-.706-1.962-2.258-3.092-4.384-3.315-1.014-.107-1.233.092-1.079 1.112.075.503.193 1.004.347 1.49.917 2.918 1.918 5.813 2.764 8.75 1.032 3.587 2.054 7.185 2.858 10.83.379 1.712.831 3.343 2.02 4.586 1.753 1.835 3.652 3.534 5.515 5.262.786.73 1.638 1.388 2.471 2.088.29-.236.502-.401.706-.577a29.495 29.495 0 0 1 8.754-5.29c1.811-.705 3.671-1.192 5.646-1.111 1.236.052 1.902-.5 2.04-1.733.16-1.419.236-2.845.361-4.267.387-4.368.752-8.74 1.92-12.995.193-.703.251-1.442.366-2.122l-.003.003Zm-60.584-58.7-.05.275c-2.626-.035-3.806.681-4.661 3.186-.478 1.395-.723 2.894-.901 4.366-.387 3.217.24 4.23 3.182 5.53.402.178.81.351 1.223.498 7.108 2.56 14.421 4.245 21.903 5.234.849.113 1.181-.073 1.429-.913a357.358 357.358 0 0 1 3.292-10.612c.285-.87.152-1.224-.692-1.591-4.037-1.757-8.282-2.806-12.556-3.719-4.034-.86-8.112-1.513-12.172-2.255h.003Zm-123.51 24.76c1.152.486 2.103 1.015 3.122 1.296a2809.202 2809.202 0 0 0 25.71 6.986c1.058.28 2.223.285 3.331.233 3.694-.17 6.62-2.596 7.228-5.774.256-1.332-.112-2.329-1.256-2.932-1.526-.802-3.07-1.615-4.69-2.184-6.419-2.253-13.089-3.514-19.719-4.93-2.751-.587-5.497-1.195-8.258-1.733-1.372-.267-2.71.005-3.815.32l1.364 5.129c.159-.037.583-.092.98-.23.575-.2 1.115-.512 1.701-.67.243-.065.559.153.843.24-.12.272-.167.676-.376.791-.585.328-1.236.548-1.865.795-1.51.595-2.955 1.295-4.303 2.659l.003.005Zm100.31 22.436c-.115-1.725-.167-3.356-.339-4.977-.337-3.146-1.798-4.69-4.901-5.202-.998-.165-2.028-.123-3.034-.26-.833-.112-1.502.142-1.969.784-.677.931-1.463 1.846-1.866 2.898-1.729 4.534-3.336 9.115-4.979 13.683-.079.217-.084.469-.081.705.005.76.3 1.167 1.157 1.18 1.113.018 2.234.131 3.336.307 3.517.556 7.028 1.051 10.607.695.97-.097 1.461-.417 1.516-1.458.146-2.816.365-5.627.551-8.355h.002Zm30.59 63.838c.476-.354.748-.551 1.012-.753 2.785-2.134 5.703-4.025 9.036-5.212.348-.124.732-.732.742-1.123.058-2.509.034-5.024 0-7.536-.06-4.35-1.39-8.265-3.979-11.774-.945-1.28-1.755-2.664-2.565-4.038a6.016 6.016 0 0 1-.797-3.923c.225-1.683.46-3.367.611-5.058.113-1.253-.326-1.544-1.41-.962-1.625.873-2.814 2.076-2.994 4.067-.194 2.129-.687 4.253-.672 6.374.029 3.763.342 7.523.549 11.286.021.401.044.845.222 1.186 1.432 2.706 3.25 5.016 6.317 6.004.282.092.507.365.76.554-.24.246-.439.629-.729.718-2.531.774-4.305 2.499-5.828 4.552-1.296 1.752-.763 3.58-.275 5.641v-.003ZM116.054 59.185c0 .375.002.747 0 1.122-.005.7.313 1.078.993 1.332 3.866 1.453 7.709 2.971 11.576 4.427.3.112.83.044 1.058-.16a27.31 27.31 0 0 0 2.267-2.332c2.822-3.235 3.823-6.801 1.999-10.918-1.526-3.449-4.65-5.266-8.25-4.712-5.672.873-9.656 5.504-9.641 11.241h-.002Zm45.453 51.846c-1.986-.212-3.977-.375-5.949-.653-2.824-.398-5.617-.946-8.211-2.226-1.505-.742-2.571-1.864-2.668-3.579-.125-2.263-.261-4.552-.068-6.8.212-2.462 1.019-4.88 1.163-7.342.219-3.765.125-7.55.097-11.328-.008-1.046-.591-1.872-1.644-2.63-.201.918-.444 1.626-.499 2.35-.151 1.964-.036 3.967-.365 5.897-.51 2.974-1.249 5.913-1.989 8.842-.587 2.323-1.123 4.647-.77 7.049.541 3.697 1.118 7.392 1.795 11.065.143.779.637 1.623 1.222 2.166 2.291 2.119 5.191 3.047 8.185 3.139 2.03.063 4.039-.281 5.74.787l3.961-6.734v-.003Zm156.104-69.423c-.964.312-1.095.997-1.004 1.678.121.868.306 1.747.601 2.57.847 2.347 2.007 4.529 3.6 6.47.196.238.311.697.217.964-.068.186-.556.276-.865.3-.339.025-.687-.074-1.28-.153 1.299 1.794 2.453 3.375 3.59 4.97 3.65 5.11 7.271 10.247 10.965 15.326.668.92 1.64 1.62 2.471 2.423.097-.07.191-.142.287-.215-.041-.428-.049-.863-.133-1.282a92.858 92.858 0 0 0-4.661-15.82c-.431-1.094-1.055-2.13-1.703-3.118-2.194-3.348-4.969-6.191-7.905-8.873-1.657-1.514-3.371-2.961-4.18-5.242v.002Zm-215.09 60.303c-.606-.136-1.097-.17-1.515-.364-.4-.184-.944-.485-1.017-.824-.068-.32.356-.786.638-1.125.185-.222.512-.325.76-.503 1.288-.93 2.701-1.736 3.83-2.835 2.262-2.197 2.605-4.93 1.157-7.67-.412-.778-.311-1.429.282-2.037.332-.34.719-.64 1.001-1.015 1.076-1.432 2.375-2.769 3.117-4.363.966-2.082 1.531-4.358 2.158-6.585.136-.487-.199-1.109-.319-1.667-.436.23-1.008.354-1.285.708a31.566 31.566 0 0 1-6.451 6.186c-3.417 2.464-5.214 5.852-5.794 10.024-.476 3.427-1.207 6.818-1.81 10.227-.037.204-.016.516.112.634 1.316 1.207 2.662 2.387 4.078 3.64.355-.821.674-1.555 1.055-2.431h.003Zm170.606-88.57c-.473 1.484-.893 2.842-1.338 4.193-.499 1.513-.538 1.615 1.011 2.035 4.35 1.174 8.729 2.244 13.092 3.38.726.188 1.181.068 1.766-.501.588-.572 1.486-.944 2.309-1.125 1.623-.357 3.24-.068 4.784.54 1.173.462 2.158 1.14 2.584 2.423.06.18.183.399.337.482 1.201.632 2.364 1.506 3.649 1.778 1.529.326 3.167.173 4.755.137.753-.019.985-.538.648-1.225-.559-1.138-1.356-1.987-2.625-2.389-9.118-2.879-18.228-5.784-27.343-8.674-1.186-.375-2.391-.695-3.629-1.054Zm-27.962 29.644c-3.367-.005-6.116.87-8.161 2.328-1.599 1.141-2.799 2.568-3.253 4.529-.285 1.227-.139 1.453 1.095 1.55 5.536.443 11.074.857 16.61 1.303.692.055.954-.233.888-.87-.13-1.283-.136-2.604-.473-3.832-.274-1.001-.786-2.05-1.486-2.803-1.596-1.717-3.765-2.174-5.217-2.205h-.003Zm26.951 13.648c1.343-1.13 2.584-2.019 3.639-3.094 1.994-2.027 3.893-4.145 5.8-6.256.63-.698.57-1.456-.008-2.219a33.406 33.406 0 0 0-8.195-7.696c-1.539-1.023-3.054-1.099-4.533-.042-2.451 1.752-4.846 3.58-7.255 5.389-.212.16-.345.427-.64.81.504-.04.771-.034 1.029-.084 1.798-.34 3.59-.713 5.387-1.038 2.166-.39 4.334-.768 6.511-1.091.287-.042.627.26.943.401-.196.315-.322.784-.601.915-1.134.53-2.315.963-3.483 1.414-.987.38-1.983.734-2.973 1.101.452.184.849.163 1.246.147 2.268-.084 4.536-.202 6.804-.215.457 0 .919.401 1.376.616-.339.364-.621.823-1.032 1.07-.715.43-1.507.729-2.267 1.083 1.473-.226 2.887-.585 4.321-.8.405-.06.872.294 1.314.456-.23.412-.358 1-.708 1.207-1.249.742-2.576 1.355-3.872 2.019-1.175.6-2.38 1.159-3.508 1.838-.322.191-.68.818-.588 1.112.292.949.786 1.835 1.298 2.963l-.005-.006Zm8.587-14.873c-.065.069-.133.137-.198.202.695.908 1.384 1.817 2.085 2.722.718.926.731 1.899.094 2.837-.646.955-1.273 1.956-2.088 2.751-2.333 2.27-4.765 4.434-7.132 6.671-.259.244-.564.805-.455 1.007.515.95 1.014 2 1.798 2.693 2.693 2.378 5.494 4.636 8.287 6.899.251.202.865.299 1.087.136 2.003-1.47 3.958-3.013 5.925-4.533l-.188-.263c-.518.294-1.017.638-1.557.873-1.207.53-2.407 1.104-3.663 1.482-1.933.58-3.545-.123-4.797-1.636-3.213-3.879-.896-10.633 4.003-11.727 2.395-.535 4.47.294 6.228 1.776 1.513 1.271 2.795 2.816 4.253 4.316l1.578-1.464c-5.194-5.016-10.228-9.88-15.26-14.744v.002ZM115.356 70.796c-.368 1.225-.951 2.318-.982 3.427-.076 2.727-1.087 5.074-2.354 7.398-.554 1.017-.849 2.181-1.314 3.419 2.542-.477 4.862-.273 7.145.257.868.202 1.33-.068 1.727-.79 1.272-2.325 2.589-4.625 3.851-6.956.499-.923.935-1.89 1.296-2.874.083-.226-.191-.808-.416-.886-2.907-1.013-5.833-1.964-8.95-2.995h-.003Zm127.317 18.922h.23c0-2.633-.047-5.268.015-7.9.039-1.655.102-3.331.403-4.951.577-3.103 1.324-6.17 2.022-9.249.149-.658-.076-.986-.724-1.025-2.398-.142-4.794-.276-7.192-.401-.909-.048-1.359.364-1.382 1.316-.079 2.992-.222 5.981-.259 8.97-.005.32.46.774.815.95 1.777.883 3.491 1.838 4.682 3.495 1.259 1.752 1.191 3.246-.136 4.932-.162.208-.253.645-.146.86.512 1.023 1.105 2.004 1.666 3l.006.003Zm36.847-30.515c-.005 4.099 2.908 6.176 6.557 4.408 2.357-1.14 4.47-2.792 6.691-4.216.489-.315.431-.69.154-1.125-1.246-1.954-2.772-3.674-4.877-4.644-1.087-.501-2.435-.808-3.603-.674-2.819.328-4.917 3.165-4.922 6.251Zm16.717-1.717c-.789 1.051-1.525 2.126-2.356 3.125-2.67 3.218-5.894 5.803-9.309 8.171-.603.42-1.175.404-1.771-.06-1.364-1.065-2.774-2.072-4.12-3.162-2.503-2.027-5.141-3.928-6.617-6.947-.081-.167-.254-.346-.421-.404-.807-.272-1.628-.506-2.275-.7.433 2.001.943 4.172 1.366 6.36.418 2.162.925 2.703 3.098 3.177 1.918.42 3.88.74 5.709 1.414 1.042.383 2.019 1.25 2.735 2.134.956 1.18 1.066 1.45 2.419.687 1.706-.96 3.376-2.03 4.909-3.246 2.772-2.2 5.335-4.636 7.297-7.625.836-1.275.721-1.747-.664-2.924ZM269.921 43.14l-.026-.116c-.156.026-.313.047-.47.076-2.863.543-5.724 1.112-8.598 1.602-.423.074-1.053-.089-1.309-.382-.167-.194.084-.868.293-1.246.222-.406.572-.773.938-1.062 2.213-1.738 4.384-3.537 6.696-5.134 1.491-1.03 3.13-2.027 5.144-1.196-1.79-1.392-2.291-1.534-3.875-.66-3.767 2.076-6.918 4.882-9.499 8.333-.692.923-.697 1.72.058 2.643a65.096 65.096 0 0 0 10.716 10.418c.264.202.575.34 1.105.65-.449-.941-.781-1.573-1.058-2.226-.781-1.836-.572-2.525 1.2-3.485 1.4-.76 2.858-1.413 4.292-2.11.517-.253 1.037-.494 1.557-.74-1.588.212-3.093.613-4.598.999-.755.194-1.51.422-2.281.511-.376.045-.786-.189-1.181-.296.228-.367.371-.852.695-1.075.638-.438 1.369-.742 2.072-1.08.807-.389 1.628-.753 2.594-1.196-1.617 0-3.025.005-4.436 0-1.319-.008-2.639 0-3.955-.071-.256-.013-.648-.349-.695-.588-.047-.246.196-.624.42-.823.27-.239.643-.375.988-.511 1.069-.422 2.142-.821 3.216-1.23l-.003-.005Zm-59.377 36.816.193.028c.086-.128.217-.246.251-.39.726-3.04 1.434-6.084 2.166-9.12.151-.622-.196-.808-.669-.89a935.781 935.781 0 0 0-11.712-1.987c-.196-.031-.627.349-.658.577-.053.375.091.797.229 1.17.466 1.266 1.072 2.49 1.427 3.786.486 1.765.802 3.58 1.168 5.375.109.533.224 1.11.893.963.358-.079.753-.457.93-.803.382-.752.559-1.612.962-2.352.496-.912 1.047-1.828 1.737-2.596.624-.695 1.933-.75 2.652-.293.836.532.817 1.332.619 2.173-.071.297-.173.598-.178.897-.021 1.154-.008 2.308-.008 3.462h-.002Zm98.134-19.958c.533.435.889.868 1.343 1.072 1.667.742 3.365 1.416 5.063 2.09.238.095.531.066.797.063 1.489-.016 2.981-.094 4.468-.042.802.029 1.609.22 2.382.446.24.07.504.475.53.747.019.21-.279.6-.501.656-.711.178-1.468.39-2.176.314-1.544-.167-3.073-.49-4.601-.783-.98-.19-1.831-.019-2.866.812.933.483 1.62 1.026 2.393 1.207 2.665.621 5.345 1.203 8.049 1.615 1.084.165 2.075.351 2.845 1.13 3.175 3.204 6.378 6.385 9.476 9.66 1.946 2.056 3.728 4.27 5.586 6.412-.029-.294-.155-.522-.296-.737-1.478-2.253-2.975-4.395-5.115-6.204-2.746-2.324-5.076-5.184-7.386-7.977-2.223-2.688-4.216-5.567-6.257-8.404-.87-1.212-1.646-1.93-3.427-1.64-2.446.4-4.909-.309-7.268-1.111-1.079-.367-1.952.018-3.036.677l-.003-.003Zm-16.571-33.446c.005-.895-.353-1.343-1.178-1.443-.638-.076-1.262-.249-1.894-.37-.975-.186-1.16 0-.917 1 .379 1.557 1.134 2.929 2.325 3.993 1.625 1.453 3.485 1.938 5.538.973.609-.286 1.019-.18 1.414.315.253.32.538.61.804.92 5.351 6.191 10.694 12.39 16.062 18.565.324.373.857.564 1.291.837l.18-.26c-.078-.141-.144-.296-.238-.425-4.927-6.791-9.849-13.582-14.8-20.358-.232-.32-.687-.624-1.063-.661-.967-.09-1.951-.021-2.926-.024-.397 0-.81.047-1.189-.047-.783-.194-1.551-.456-2.32-.708-.577-.191-1.173-.357-1.708-.64-.251-.13-.491-.498-.515-.776-.015-.202.316-.456.533-.64.146-.123.363-.162.598-.26l.003.009Zm-57.682 28.967c.65 1.227 1.246 2.245 1.735 3.312.303.663.718.84 1.416.844 3.145.016 6.288.11 9.433.137.358.002.769-.173 1.066-.391.763-.556 1.484-1.17 2.203-1.783.48-.412.925-.863 1.554-1.456l-17.407-.66v-.003Zm26.256-33.341-.076.403c2.341.446 4.679.918 7.03 1.304.241.04.688-.375.826-.677.481-1.046.888-2.129 1.278-3.215.12-.33.12-.715.128-1.075.026-1.24-.061-2.49.078-3.715.091-.819.494-1.6.797-2.52-.664-.168-1.278-.315-1.887-.48-1.011-.273-1.732.076-2.134 1.033a45.191 45.191 0 0 0-.904 2.376c-.59 1.66-1.123 3.34-1.756 4.982-.42 1.09-1.293 1.615-2.476 1.586-.301-.008-.604 0-.904 0v-.002ZM213.87 61.794c-.408-.25-.513-.351-.633-.383-2.722-.687-5.426-1.447-8.292-1.266-2.821.178-3.117.38-4.018 3.055-.274.812-.042 1.072.75 1.216 2.197.407 4.397.821 6.563 1.359 1.16.288 1.985.086 2.751-.847.867-1.06 1.849-2.022 2.879-3.134Zm65.501 27.62c.462.493.82.773 1.05 1.138.63 1.004 1.312.897 2.163.275 3.256-2.378 6.534-4.72 9.797-7.088.309-.223.562-.522.842-.786-.058-.084-.118-.168-.175-.252-5.28.616-9.583 3.262-13.674 6.715l-.003-.002Zm-77.694-10.098.337-.315c-.593-2.462-1.176-4.925-1.787-7.382-.105-.422-.353-.805-.499-1.219-.267-.75-.575-1.497-.732-2.273-.096-.48-.146-.95-.713-.852-.256.044-.611.466-.637.747a316.102 316.102 0 0 0-.75 9.327c-.021.328.308.907.585.989 1.38.398 2.793.666 4.196.98v-.002Zm39.661 16.037c-2.064-3.349-4.768-5.784-8.345-7.2-.365-.145-.828-.043-1.243-.056.036.423-.039.892.125 1.257 1.244 2.771 3.242 4.824 6.038 6.017 1.024.436 2.131.674 3.425-.015v-.003Zm-2.477 6.385c1.675-.021 2.346-1.125 1.633-2.25-1.557-2.457-3.875-3.839-6.626-4.547-.321-.084-.906-.02-1.016.174-.157.28-.099.797.06 1.12.99 2.026 2.393 3.712 4.363 4.85.575.331 1.236.514 1.586.653Zm-132.178 8.931c.692-1.549 1.387-2.884 1.896-4.287 1.056-2.921.685-3.469-2.424-3.962-.034-.005-.068-.005-.099-.016-.583-.189-.829.071-1.027.622-.41 1.132-.922 2.229-1.359 3.356-.068.178-.034.483.081.629.886 1.144 1.806 2.263 2.932 3.661v-.003Zm1.57-17.76c.394 0 .561.024.718-.002 2.968-.49 5.852-.318 8.682.847.386.16 1.149-.31 1.601-.664.551-.435.47-1.075.102-1.66-.353-.56-.802-.634-1.468-.56-1.701.185-3.428.361-5.123.25-.821-.052-1.719-.62-2.365-1.203-.815-.731-.475-1.775.57-2.163.394-.147.818-.215 1.348-.349-.713-.362-1.301-.66-1.991-1.012-.69 2.169-1.351 4.258-2.069 6.519l-.005-.003Zm135.104 8.258-.517-.252c-.157.328-.395.645-.452.988-.28 1.686-1.126 2.282-2.788 1.81-.802-.228-1.57-.582-2.424-.905-.233 1.041-.397 2.048-.698 3.013-.216.695.006 1.086.617 1.238 1.176.293 2.362.558 3.558.747.727.115 1.275-.286 1.445-1.004.447-1.873.841-3.755 1.257-5.635h.002Zm-51.634-7.927c-.052.123-.104.249-.157.372.575.606 1.103 1.267 1.732 1.807 2.185 1.867 4.635 3.052 7.603 2.685.371-.047.718-.286 1.079-.436-.233-.343-.397-.784-.711-1.02-2.262-1.696-4.833-2.698-7.594-3.214-.64-.121-1.301-.132-1.952-.194Zm-28.422 15.437c-1.541-.121-2.954-.197-4.363-.352-1.447-.157-2.907-.299-4.326-.606-2.38-.514-4.742-1.119-7.093-1.754-.974-.262-1.499-.949-1.484-2.043.037-2.247.011-4.497.011-6.744-.128 0-.256-.002-.384-.005-.055 1.421-.165 2.842-.16 4.264.019 4.573.81 5.588 5.191 6.828 3.611 1.023 7.321 1.358 11.043 1.62.852.061 1.215-.414 1.563-1.208h.002Zm-48.857-39.499c.097.003.194.005.288.01.467-1.258 1.233-1.032 2.061-.547 1.317.77 2.631 1.547 3.966 2.286.41.228.88.349 1.607.627-.34-.66-.455-1.083-.719-1.358-.82-.853-1.648-1.713-2.568-2.452-1.698-1.361-3.203-2.837-3.765-5.037-.007-.035-.109-.042-.433-.153-.298 1.944-.612 3.84-.855 5.743-.034.273.27.588.416.881h.002Zm119.184 11.548c1.061.585 2.048 1.039 2.934 1.642.92.627 1.774 1.366 2.597 2.121.977.897 1.515.79 1.821-.511a2.684 2.684 0 0 0-.042-1.293c-.496-1.752-3.362-4.03-5.309-4.214-.201 1.096-.635 2.059-2.001 2.255ZM107.046 97.081c2.523-.37 4.99-.016 7.197 1.146 1.631.858 2.77.191 4-.585.577-.364.794-.93.418-1.586-.347-.608-.805-.766-1.526-.543-2.834.876-5.716 1.033-8.624.38-1.225-.275-1.261-.254-1.463 1.19l-.002-.002Zm67.758-5.045c2.002-2.475 1.422-7.699-1.1-9.815-.052 1.822-.794 3.69.868 5.184.094.084.198.25.178.354-.048.236-.113.525-.277.666-.118.103-.437.058-.617-.026-.183-.084-.306-.296-.452-.451-.773 1.801.253 2.929 1.403 4.085l-.003.003Zm-3.579 5.813s.068-.1.079-.194c.154-1.555.318-3.11.441-4.667.102-1.324-1.387-3.603-2.649-4.075-.235-.09-.658-.168-.742-.058-.154.202-.222.577-.149.831.24.847.541 1.681.852 2.507.716 1.899 1.452 3.79 2.171 5.659l-.003-.003Zm34.18-18.164c1.264.137 2.103.19 2.929.323.684.113.885-.157.935-.808.099-1.316.264-2.625.426-3.936.104-.844-.324-1.243-1.118-.93-.327.128-.693.382-.852.681-.766 1.45-1.466 2.934-2.32 4.668v.002Zm109.857-26.172c-.026-.063-.047-.165-.102-.241-.604-.873-1.366-1.48-2.479-1.56-1.542-.113-3.078-.312-4.622-.365-.585-.02-1.042.362-.744 1.099.357.884 1.562 1.492 2.471 1.274.392-.094.797-.188 1.197-.196 1.408-.024 2.818-.01 4.276-.01h.003Zm-208.65 45.228-.371.013c.029.564-.104 1.55.107 1.631 2.396.918 4.807 1.906 7.451 1.702.486-.037.998-.383 1.395-.708.188-.155.269-.661.162-.897-.089-.194-.53-.299-.817-.309-.434-.013-.87.112-1.309.139-2.359.144-4.685.118-6.615-1.571h-.003Zm86.376-10.526c2.171 1.765 4.331 3.024 6.949 3.273.481.044.987-.173 1.547-.283-.959-1.72-5.534-3.315-8.496-2.99Zm-20.524-3.946c.044-.983.083-1.68.109-2.376.063-1.743-1.363-3.367-3.116-3.545-.944-.097-1.223.23-.834 1.101.81 1.815 2.027 3.328 3.841 4.823v-.003ZM319.032 58.07c.044-.065.091-.13.136-.199-.465-.257-.915-.705-1.395-.742-2.757-.21-5.437-.721-8.039-1.668-.227-.084-.682-.036-.766.108-.12.207-.042.569.034.842.05.178.225.34.379.466.776.638 1.599 1.023 2.675 1.013 2.325-.024 4.651.112 6.976.183v-.002Zm-68.59 4.752-.107-.026v-.407c0-.758-.339-1.13-1.126-1.28-.836-.16-1.092.26-1.28.903-.292 1.007-.569 2.016-.888 3.015-.18.57-.037.855.546 1.057 1.246.433 1.813.23 2.262-1.023.259-.723.397-1.492.591-2.24h.002Zm-11.983 22.887c.073-.121.149-.242.222-.362-1.129-.834-2.213-1.75-3.407-2.478-.852-.522-1.847-.816-2.798-1.162-.206-.076-.611-.01-.713.137-.113.165-.037.519.057.75.113.275.298.542.51.752 1.7 1.704 3.796 2.363 6.129 2.36v.003Zm-66.596 3.689c.765-2.512-.16-4.896-2.148-5.952-.319-.17-.87-.265-1.113-.097-.204.139-.264.768-.136 1.077.426 1.028.876 2.064 1.484 2.987.473.716 1.199 1.261 1.915 1.988l-.002-.003Zm124.129-65.16c-1.202-2.092-6.461-2.642-7.595-.775 1.249.262 2.456.621 3.686.747 1.255.128 2.535.029 3.909.029ZM265.193 7.58c1.57 1.227 6.257 2.124 7.521.535-1.157-.86-6.573-1.246-7.521-.535Zm-95.251 94.588c-.083-.034-.167-.068-.25-.105-1.286 1.744-2.568 3.488-3.911 5.313 2.393.27 3.137-.173 3.608-2.127.243-1.012.373-2.053.553-3.081Zm-62.034-7.848c1.599 1.093 6.651 1.117 8.438.105-2.819-.834-5.533-.873-8.438-.105Zm268.074 52.216c-3.932-.249-7.861-.747-11.816-.393 3.903 1.09 7.853.834 11.816.393Zm-322.198 1.78h9.538c-3.171-1.494-6.343-1.103-9.538 0Zm49.137-40.623c-.988 1.65-.912 2.906.078 3.703.797.64 1.769.6 2.639-.215-.873-1.123-1.756-2.253-2.72-3.488h.003Zm123.431 42.726.011.431c2.675.456 5.353.925 8.135.694-.018-.812-.345-1.135-1.063-1.132-2.362.015-4.724.005-7.083.005v.002Zm-62.356-40.966.165.406c.232.011.465.045.697.032.944-.061 1.889-.108 2.827-.213 1.897-.21 2.111-.456 2.291-2.237-.64.292-1.355.708-2.129.937-.703.207-1.484.133-2.197.317-.577.149-1.105.495-1.656.755l.002.003Zm36.325-23.807c-1.706-1.629-3.611-2.455-5.868-3.134 1.419 2.255 4.175 3.758 5.868 3.134Zm-84.732 2.26c.836.367 1.805.766 2.751 1.217.854.409 1.371-.129 1.826-.664.178-.21.235-.792.081-.965-.449-.508-.995-.841-1.792-.508-.956.398-1.978.642-2.866.92Zm-4.408 1.07c.782 1.274 3.773 1.686 5.915.868-1.494-1.033-4.598-1.516-5.915-.868Zm-5.726 8.763-3.945 2.646c2.147.955 3.488.029 3.945-2.646Zm134.425-.98c.88 1.258 1.58 2.255 2.281 3.256.629-.58.661-2.147-.186-3.07-.321-.352-1.256-.134-2.095-.186Zm-7.561-19.373c-.115.042-.512.081-.554.225-.07.242-.002.627.16.818.324.375.713.742 1.152.955.598.288 1.102.115 1.345-.603.251-.742-.028-1.08-.749-1.178-.403-.052-.8-.128-1.354-.217Zm48.097 14.692c-.711-.745-1.202-1.261-1.818-1.909-.455.713-.844 1.183-1.077 1.72-.308.708-.01 1.075.719.907.642-.146 1.256-.409 2.179-.718h-.003Zm30.804-37.485-.057.31c1.964.378 3.926.758 5.891 1.135l.105-.545c-1.853-.97-3.904-.892-5.936-.9h-.003Zm-208.738 60.663c1.042-.834 1.883-1.505 2.698-2.156-1.05-.212-1.983-.401-3.033-.611l.332 2.769.003-.002Zm10.724-16.171c-1.661-.771-3.399-1.149-5.243-.813 1.614 1.054 3.399 1.056 5.243.813ZM104.65 25.2l.379.024c.914-.776 1.387-1.804 1.829-3.066-1.205.105-1.97.533-2.273 1.424-.162.475.034 1.075.068 1.618h-.003Zm192.217 30c.948-1.085.88-1.583-.303-2.619-.183-.16-.75-.225-.794-.147-.18.336-.429.853-.288 1.1.337.594.873 1.077 1.385 1.667Zm-187.42 30.371-.233-.133c-.363.393-.718.8-1.094 1.18-1.087 1.096-1.079 1.447.143 2.62l1.186-3.667h-.002Zm182.511-36.095c.638-.768.34-1.337-.104-1.82-.528-.57-.949-1.428-2.205-1.085.817 1.028 1.538 1.933 2.309 2.905ZM116.84 86.48l.039-.352-4.598-.304c-.005.1-.013.197-.018.296 1.484.674 3.017.677 4.577.36Zm12.924-18.38-.371-.4-3.297 3.13c.126.131.249.262.374.394 1.097-1.041 2.194-2.083 3.292-3.12l.002-.004Zm-25.725 34.115c-1.032.787-1.698 2.623-1.32 3.525.925-1.036.936-2.35 1.32-3.525Zm190.174-50.052c.125.008.248.013.373.02l.426-1.41-1.719-.302-.141.33c.353.454.708.908 1.061 1.364v-.002Zm2.192-25.59c.021-.11.039-.223.06-.334l-3.146-.629c-.023.126-.049.252-.073.378.865 1.117 2.116.338 3.159.585ZM172.644 95.529c.068.02.138.044.206.065.423-.679.847-1.36 1.322-2.126l-1.28-.525c-.091.963-.17 1.773-.248 2.583v.003Zm75.75-27.47c-1.708.141-1.991.744-1.006 1.958.369-.718.687-1.34 1.006-1.959Zm-15.892-13.767.416-.435-.813-1.33c-.272.37-.543.74-.818 1.107.405.217.81.438 1.213.655l.002.003Zm10.996 40.101c-.977 1.154-.577 2.022 0 3.008v-3.008Zm74.102-39.87.455-.499-1.544-1.479c-.113.118-.228.236-.34.355.476.54.951 1.083 1.429 1.623ZM199.503 65.81c-.078-.15-.157-.299-.232-.448-.194-.126-.491-.401-.559-.352-.241.17-.4.454-.588.693.191.147.381.414.575.414.269 0 .538-.197.807-.307h-.003Zm71.166-49.027.24.07c.324-1.103.648-2.21.974-3.314l-.266-.079-.946 3.323h-.002Zm-67.302 63.72.254 2.087c.567-1.469.564-1.524-.254-2.087Zm111.56-21.631-.023.202 3.558.414.024-.194c-1.186-.142-2.37-.283-3.556-.422h-.003Z" fill="#fff"/></svg>